M48
; DRILL file {KiCad 6.0.10-86aedd382b~118~ubuntu22.04.1} date Mon 06 Mar 2023 06:26:13 PM PST
; FORMAT={-:-/ absolute / inch / decimal}
; #@! TF.CreationDate,2023-03-06T18:26:13-08:00
; #@! TF.GenerationSoftware,Kicad,Pcbnew,6.0.10-86aedd382b~118~ubuntu22.04.1
; #@! TF.FileFunction,Plated,1,2,PTH
FMAT,2
INCH
; #@! TA.AperFunction,Plated,PTH,ViaDrill
T1C0.0157
%
G90
G05
T1
X-0.5315Y-0.2559
X-0.5315Y-0.4429
X-0.4921Y-0.4429
X-0.4528Y-0.4429
X-0.3642Y-0.2559
X-0.3642Y-0.3543
X-0.3642Y-0.4134
X-0.2904Y-0.4577
X-0.1969Y-0.3543
X-0.1969Y-0.4222
X-0.1181Y-0.0787
X-0.1181Y-0.0787
X-0.0591Y-0.1565
X0.0394Y-0.1575
X0.128Y-0.4626
X0.1476Y-0.0591
X0.1575Y-0.1083
X0.1575Y-0.187
X0.1772Y-0.4626
X0.3642Y-0.1083
X0.4921Y-0.4331
X0.5315Y-0.4331
X0.5709Y-0.4331
X0.5906Y-0.2567
X0.6472Y-0.3567
X0.6496Y-0.0591
X0.8563Y-0.0886
T0
M30
