%TF.GenerationSoftware,KiCad,Pcbnew,6.0.11-2627ca5db0~126~ubuntu22.04.1*%
%TF.CreationDate,2023-12-08T19:13:38-08:00*%
%TF.ProjectId,compact-probe,636f6d70-6163-4742-9d70-726f62652e6b,rev?*%
%TF.SameCoordinates,Original*%
%TF.FileFunction,Drillmap*%
%TF.FilePolarity,Positive*%
%FSLAX45Y45*%
G04 Gerber Fmt 4.5, Leading zero omitted, Abs format (unit mm)*
G04 Created by KiCad (PCBNEW 6.0.11-2627ca5db0~126~ubuntu22.04.1) date 2023-12-08 19:13:38*
%MOMM*%
%LPD*%
G01*
G04 APERTURE LIST*
%ADD10C,0.100000*%
%ADD11C,0.200000*%
G04 APERTURE END LIST*
D10*
X2375000Y0D02*
G75*
G03*
X2375000Y0I-2375000J0D01*
G01*
D11*
X-2122381Y-2690476D02*
X-2122381Y-2490476D01*
X-2074762Y-2490476D01*
X-2046190Y-2500000D01*
X-2027143Y-2519048D01*
X-2017619Y-2538095D01*
X-2008095Y-2576190D01*
X-2008095Y-2604762D01*
X-2017619Y-2642857D01*
X-2027143Y-2661905D01*
X-2046190Y-2680952D01*
X-2074762Y-2690476D01*
X-2122381Y-2690476D01*
X-1922381Y-2690476D02*
X-1922381Y-2557143D01*
X-1922381Y-2595238D02*
X-1912857Y-2576190D01*
X-1903333Y-2566667D01*
X-1884286Y-2557143D01*
X-1865238Y-2557143D01*
X-1798571Y-2690476D02*
X-1798571Y-2557143D01*
X-1798571Y-2490476D02*
X-1808095Y-2500000D01*
X-1798571Y-2509524D01*
X-1789048Y-2500000D01*
X-1798571Y-2490476D01*
X-1798571Y-2509524D01*
X-1674762Y-2690476D02*
X-1693809Y-2680952D01*
X-1703333Y-2661905D01*
X-1703333Y-2490476D01*
X-1570000Y-2690476D02*
X-1589048Y-2680952D01*
X-1598571Y-2661905D01*
X-1598571Y-2490476D01*
X-1341429Y-2690476D02*
X-1341429Y-2490476D01*
X-1274762Y-2633333D01*
X-1208095Y-2490476D01*
X-1208095Y-2690476D01*
X-1027143Y-2690476D02*
X-1027143Y-2585714D01*
X-1036667Y-2566667D01*
X-1055714Y-2557143D01*
X-1093810Y-2557143D01*
X-1112857Y-2566667D01*
X-1027143Y-2680952D02*
X-1046190Y-2690476D01*
X-1093810Y-2690476D01*
X-1112857Y-2680952D01*
X-1122381Y-2661905D01*
X-1122381Y-2642857D01*
X-1112857Y-2623810D01*
X-1093810Y-2614286D01*
X-1046190Y-2614286D01*
X-1027143Y-2604762D01*
X-931905Y-2557143D02*
X-931905Y-2757143D01*
X-931905Y-2566667D02*
X-912857Y-2557143D01*
X-874762Y-2557143D01*
X-855714Y-2566667D01*
X-846190Y-2576190D01*
X-836667Y-2595238D01*
X-836667Y-2652381D01*
X-846190Y-2671429D01*
X-855714Y-2680952D01*
X-874762Y-2690476D01*
X-912857Y-2690476D01*
X-931905Y-2680952D01*
X-750952Y-2671429D02*
X-741428Y-2680952D01*
X-750952Y-2690476D01*
X-760476Y-2680952D01*
X-750952Y-2671429D01*
X-750952Y-2690476D01*
X-750952Y-2566667D02*
X-741428Y-2576190D01*
X-750952Y-2585714D01*
X-760476Y-2576190D01*
X-750952Y-2566667D01*
X-750952Y-2585714D01*
M02*
