M48
; DRILL file {KiCad 6.0.11-2627ca5db0~126~ubuntu22.04.1} date Fri 08 Dec 2023 07:13:37 PM PST
; FORMAT={-:-/ absolute / inch / decimal}
; #@! TF.CreationDate,2023-12-08T19:13:37-08:00
; #@! TF.GenerationSoftware,Kicad,Pcbnew,6.0.11-2627ca5db0~126~ubuntu22.04.1
; #@! TF.FileFunction,Plated,1,2,PTH
FMAT,2
INCH
; #@! TA.AperFunction,Plated,PTH,ComponentDrill
T1C0.0118
; #@! TA.AperFunction,Plated,PTH,ViaDrill
T2C0.0157
; #@! TA.AperFunction,Plated,PTH,ComponentDrill
T3C0.0256
; #@! TA.AperFunction,Plated,PTH,ViaDrill
T4C0.1181
%
G90
G05
T1
X-0.0811Y0.3248
X-0.0811Y0.2815
X-0.0594Y0.3465
X-0.0594Y0.3031
X-0.0594Y0.2598
X-0.0378Y0.3248
X-0.0378Y0.2815
X-0.0161Y0.3465
X-0.0161Y0.3031
X-0.0161Y0.2598
X0.0055Y0.3248
X0.0055Y0.2815
T2
X-0.7874Y0.3937
X-0.7874Y0.2953
X-0.7874Y-0.3937
X-0.7776Y0.1476
X-0.5906Y0.0984
X-0.5906Y-0.1969
X-0.4921Y0.3937
X-0.4921Y0.2953
X-0.4626Y0.7579
X-0.3937Y0.0787
X-0.3937Y-0.7874
X-0.3543Y-0.3642
X-0.3445Y0.3701
X-0.3445Y0.311
X-0.3445Y0.252
X-0.3248Y-0.5413
X-0.31Y-0.2904
X-0.31Y-0.4085
X-0.2461Y0.3839
X-0.2362Y0.0787
X-0.2322Y-0.0828
X-0.1772Y0.0787
X-0.1772Y-0.0295
X-0.1575Y-0.6201
X-0.1431Y-0.3104
X-0.0984Y0.3937
X-0.0787Y-0.6201
X-0.0492Y0.0886
X-0.0394Y-0.4626
X0.0Y0.3937
X0.0335Y-0.128
X0.0689Y0.1673
X0.0694Y0.0979
X0.0787Y-0.7677
X0.0984Y0.3937
X0.2067Y0.3346
X0.2165Y-0.0492
X0.2805Y-0.4774
X0.2953Y0.4331
X0.2953Y0.374
X0.2953Y0.311
X0.2953Y-0.7874
X0.3937Y0.7874
X0.3937Y-0.689
X0.3937Y-0.7874
X0.4134Y-0.128
X0.4724Y0.5118
X0.4724Y0.3346
X0.4724Y0.1476
X0.5906Y-0.1969
X0.6398Y0.1969
X0.6398Y0.1378
X0.6791Y0.1378
X0.7874Y0.3937
X0.7874Y-0.1969
X0.876Y0.0
T3
X-0.8465Y0.1004
X-0.8465Y0.0504
X-0.8465Y0.0004
X-0.8465Y-0.0496
X-0.8465Y-0.0996
X-0.7965Y0.1004
X-0.7965Y0.0504
X-0.7965Y0.0004
X-0.7965Y-0.0496
X-0.7965Y-0.0996
T4
X-0.5906Y0.5906
X-0.5906Y-0.5906
X0.5906Y0.5906
X0.5906Y-0.5906
T0
M30
