%TF.GenerationSoftware,KiCad,Pcbnew,6.0.11-2627ca5db0~126~ubuntu22.04.1*%
%TF.CreationDate,2023-12-08T19:13:14-08:00*%
%TF.ProjectId,compact-probe,636f6d70-6163-4742-9d70-726f62652e6b,rev?*%
%TF.SameCoordinates,Original*%
%TF.FileFunction,Copper,L2,Bot*%
%TF.FilePolarity,Positive*%
%FSLAX46Y46*%
G04 Gerber Fmt 4.6, Leading zero omitted, Abs format (unit mm)*
G04 Created by KiCad (PCBNEW 6.0.11-2627ca5db0~126~ubuntu22.04.1) date 2023-12-08 19:13:14*
%MOMM*%
%LPD*%
G01*
G04 APERTURE LIST*
G04 Aperture macros list*
%AMRoundRect*
0 Rectangle with rounded corners*
0 $1 Rounding radius*
0 $2 $3 $4 $5 $6 $7 $8 $9 X,Y pos of 4 corners*
0 Add a 4 corners polygon primitive as box body*
4,1,4,$2,$3,$4,$5,$6,$7,$8,$9,$2,$3,0*
0 Add four circle primitives for the rounded corners*
1,1,$1+$1,$2,$3*
1,1,$1+$1,$4,$5*
1,1,$1+$1,$6,$7*
1,1,$1+$1,$8,$9*
0 Add four rect primitives between the rounded corners*
20,1,$1+$1,$2,$3,$4,$5,0*
20,1,$1+$1,$4,$5,$6,$7,0*
20,1,$1+$1,$6,$7,$8,$9,0*
20,1,$1+$1,$8,$9,$2,$3,0*%
G04 Aperture macros list end*
%TA.AperFunction,ComponentPad*%
%ADD10R,1.000000X1.000000*%
%TD*%
%TA.AperFunction,ComponentPad*%
%ADD11O,1.000000X1.000000*%
%TD*%
%TA.AperFunction,SMDPad,CuDef*%
%ADD12RoundRect,0.225000X-0.250000X0.225000X-0.250000X-0.225000X0.250000X-0.225000X0.250000X0.225000X0*%
%TD*%
%TA.AperFunction,SMDPad,CuDef*%
%ADD13R,1.500000X2.000000*%
%TD*%
%TA.AperFunction,SMDPad,CuDef*%
%ADD14R,3.800000X2.000000*%
%TD*%
%TA.AperFunction,SMDPad,CuDef*%
%ADD15RoundRect,0.225000X0.250000X-0.225000X0.250000X0.225000X-0.250000X0.225000X-0.250000X-0.225000X0*%
%TD*%
%TA.AperFunction,SMDPad,CuDef*%
%ADD16RoundRect,0.250000X0.250000X0.750000X-0.250000X0.750000X-0.250000X-0.750000X0.250000X-0.750000X0*%
%TD*%
%TA.AperFunction,SMDPad,CuDef*%
%ADD17R,1.750000X0.590000*%
%TD*%
%TA.AperFunction,SMDPad,CuDef*%
%ADD18RoundRect,0.200000X0.275000X-0.200000X0.275000X0.200000X-0.275000X0.200000X-0.275000X-0.200000X0*%
%TD*%
%TA.AperFunction,SMDPad,CuDef*%
%ADD19RoundRect,0.200000X-0.275000X0.200000X-0.275000X-0.200000X0.275000X-0.200000X0.275000X0.200000X0*%
%TD*%
%TA.AperFunction,SMDPad,CuDef*%
%ADD20R,1.500000X0.900000*%
%TD*%
%TA.AperFunction,SMDPad,CuDef*%
%ADD21R,0.700000X0.700000*%
%TD*%
%TA.AperFunction,ComponentPad*%
%ADD22C,0.400000*%
%TD*%
%TA.AperFunction,SMDPad,CuDef*%
%ADD23R,2.870000X1.250000*%
%TD*%
%TA.AperFunction,SMDPad,CuDef*%
%ADD24R,1.580000X1.050000*%
%TD*%
%TA.AperFunction,SMDPad,CuDef*%
%ADD25RoundRect,0.225000X0.225000X0.250000X-0.225000X0.250000X-0.225000X-0.250000X0.225000X-0.250000X0*%
%TD*%
%TA.AperFunction,ViaPad*%
%ADD26C,0.800000*%
%TD*%
%TA.AperFunction,ViaPad*%
%ADD27C,4.000000*%
%TD*%
%TA.AperFunction,Conductor*%
%ADD28C,0.500000*%
%TD*%
%TA.AperFunction,Conductor*%
%ADD29C,0.250000*%
%TD*%
G04 APERTURE END LIST*
D10*
%TO.P,J3,1,Pin_1*%
%TO.N,GND*%
X-21500000Y2550000D03*
D11*
%TO.P,J3,2,Pin_2*%
%TO.N,+3V3*%
X-20230000Y2550000D03*
%TO.P,J3,3,Pin_3*%
%TO.N,TXD*%
X-21500000Y1280000D03*
%TO.P,J3,4,Pin_4*%
%TO.N,RXD*%
X-20230000Y1280000D03*
%TO.P,J3,5,Pin_5*%
%TO.N,MCU_EN*%
X-21500000Y10000D03*
%TO.P,J3,6,Pin_6*%
%TO.N,MCU_IO9*%
X-20230000Y10000D03*
%TO.P,J3,7,Pin_7*%
%TO.N,VBAT_5V*%
X-21500000Y-1260000D03*
%TO.P,J3,8,Pin_8*%
%TO.N,unconnected-(J3-Pad8)*%
X-20230000Y-1260000D03*
%TO.P,J3,9,Pin_9*%
%TO.N,unconnected-(J3-Pad9)*%
X-21500000Y-2530000D03*
%TO.P,J3,10,Pin_10*%
%TO.N,unconnected-(J3-Pad10)*%
X-20230000Y-2530000D03*
%TD*%
D12*
%TO.P,C9,1*%
%TO.N,VBAT_5V*%
X-2500000Y-7975000D03*
%TO.P,C9,2*%
%TO.N,GND*%
X-2500000Y-9525000D03*
%TD*%
D13*
%TO.P,U6,1,IN*%
%TO.N,VBAT_5V*%
X17800000Y-7400000D03*
D14*
%TO.P,U6,2,GND*%
%TO.N,GND*%
X15500000Y-1100000D03*
D13*
X15500000Y-7400000D03*
%TO.P,U6,3,OUT*%
%TO.N,+3V3*%
X13200000Y-7400000D03*
%TD*%
D15*
%TO.P,C5,1*%
%TO.N,+3V3*%
X10500000Y-2275000D03*
%TO.P,C5,2*%
%TO.N,GND*%
X10500000Y-725000D03*
%TD*%
D16*
%TO.P,J6,1,Pin_1*%
%TO.N,12V28*%
X0Y-21000000D03*
%TD*%
D15*
%TO.P,C1,1*%
%TO.N,12V28*%
X2000000Y-6775000D03*
%TO.P,C1,2*%
%TO.N,GND*%
X2000000Y-5225000D03*
%TD*%
D12*
%TO.P,C6,1*%
%TO.N,+3V3*%
X10750000Y13025000D03*
%TO.P,C6,2*%
%TO.N,GND*%
X10750000Y11475000D03*
%TD*%
D17*
%TO.P,U1,1,TXD*%
%TO.N,CAN_TX*%
X-5165000Y-5345000D03*
%TO.P,U1,2,GND*%
%TO.N,GND*%
X-5165000Y-6615000D03*
%TO.P,U1,3,VCC*%
%TO.N,VBAT_5V*%
X-5165000Y-7885000D03*
%TO.P,U1,4,RXD*%
%TO.N,CAN_RX*%
X-5165000Y-9155000D03*
%TO.P,U1,5,VIO*%
%TO.N,+3V3*%
X-10335000Y-9155000D03*
%TO.P,U1,6,CANL*%
%TO.N,CANL*%
X-10335000Y-7885000D03*
%TO.P,U1,7,CANH*%
%TO.N,CANH*%
X-10335000Y-6615000D03*
%TO.P,U1,8,S*%
%TO.N,GND*%
X-10335000Y-5345000D03*
%TD*%
D16*
%TO.P,J5,1,Pin_1*%
%TO.N,VBAT_5V*%
X2000000Y-21000000D03*
%TD*%
%TO.P,J4,1,Pin_1*%
%TO.N,GND*%
X4000000Y-21000000D03*
%TD*%
%TO.P,J8,1,Pin_1*%
%TO.N,CANH*%
X-4000000Y-21000000D03*
%TD*%
D18*
%TO.P,R4,1*%
%TO.N,+3V3*%
X11000000Y3675000D03*
%TO.P,R4,2*%
%TO.N,SCL*%
X11000000Y5325000D03*
%TD*%
%TO.P,R1,1*%
%TO.N,+3V3*%
X850000Y-2325000D03*
%TO.P,R1,2*%
%TO.N,MCU_EN*%
X850000Y-675000D03*
%TD*%
D15*
%TO.P,C7,1*%
%TO.N,+3V3*%
X10750000Y14725000D03*
%TO.P,C7,2*%
%TO.N,GND*%
X10750000Y16275000D03*
%TD*%
D19*
%TO.P,R2,1*%
%TO.N,Net-(D1-Pad1)*%
X-10500000Y19575000D03*
%TO.P,R2,2*%
%TO.N,GND*%
X-10500000Y17925000D03*
%TD*%
D20*
%TO.P,U4,1,3V3*%
%TO.N,+3V3*%
X8750000Y13900000D03*
%TO.P,U4,2,EN*%
%TO.N,MCU_EN*%
X8750000Y12400000D03*
%TO.P,U4,3,IO4*%
%TO.N,SS2*%
X8750000Y10900000D03*
%TO.P,U4,4,IO5*%
%TO.N,SS3*%
X8750000Y9400000D03*
%TO.P,U4,5,IO6*%
%TO.N,SS4*%
X8750000Y7900000D03*
%TO.P,U4,6,IO7*%
%TO.N,SDA*%
X8750000Y6400000D03*
%TO.P,U4,7,IO8*%
%TO.N,SCL*%
X8750000Y4900000D03*
%TO.P,U4,8,IO9*%
%TO.N,MCU_IO9*%
X8750000Y3400000D03*
%TO.P,U4,9,GND*%
%TO.N,GND*%
X8750000Y1900000D03*
%TO.P,U4,10,IO10*%
%TO.N,Net-(D1-Pad2)*%
X-8750000Y1900000D03*
%TO.P,U4,11,RXD*%
%TO.N,RXD*%
X-8750000Y3400000D03*
%TO.P,U4,12,TXD*%
%TO.N,TXD*%
X-8750000Y4900000D03*
%TO.P,U4,13,IO18*%
%TO.N,MISO*%
X-8750000Y6400000D03*
%TO.P,U4,14,IO19*%
%TO.N,SCLK*%
X-8750000Y7900000D03*
%TO.P,U4,15,IO3*%
%TO.N,SS1*%
X-8750000Y9400000D03*
%TO.P,U4,16,IO2*%
%TO.N,CAN_TX*%
X-8750000Y10900000D03*
%TO.P,U4,17,IO1*%
%TO.N,CAN_RX*%
X-8750000Y12400000D03*
%TO.P,U4,18,IO0*%
%TO.N,unconnected-(U4-Pad18)*%
X-8750000Y13900000D03*
D21*
%TO.P,U4,19,GND*%
%TO.N,GND*%
X140000Y8800000D03*
%TO.P,U4,20,GND*%
X-960000Y8800000D03*
%TO.P,U4,21,GND*%
X-2060000Y8800000D03*
%TO.P,U4,22,GND*%
X140000Y7700000D03*
%TO.P,U4,23,GND*%
X-960000Y7700000D03*
%TO.P,U4,24,GND*%
X-2060000Y7700000D03*
%TO.P,U4,25,GND*%
X140000Y6600000D03*
%TO.P,U4,26,GND*%
X-960000Y6600000D03*
%TO.P,U4,27,GND*%
X-2060000Y6600000D03*
D22*
%TO.P,U4,28,GND*%
X-410000Y8800000D03*
%TO.P,U4,29,GND*%
X-1510000Y8800000D03*
%TO.P,U4,30,GND*%
X140000Y8250000D03*
%TO.P,U4,31,GND*%
X-960000Y8250000D03*
%TO.P,U4,32,GND*%
X-2060000Y8250000D03*
%TO.P,U4,33,GND*%
X-410000Y7700000D03*
%TO.P,U4,34,GND*%
X-1510000Y7700000D03*
%TO.P,U4,35,GND*%
X140000Y7150000D03*
%TO.P,U4,36,GND*%
X-960000Y7150000D03*
%TO.P,U4,37,GND*%
X-2060000Y7150000D03*
%TO.P,U4,38,GND*%
X-410000Y6600000D03*
%TO.P,U4,39,GND*%
X-1510000Y6600000D03*
%TD*%
D16*
%TO.P,J7,1,Pin_1*%
%TO.N,CANL*%
X-2000000Y-21000000D03*
%TD*%
D19*
%TO.P,R3,1*%
%TO.N,+3V3*%
X11000000Y8325000D03*
%TO.P,R3,2*%
%TO.N,SDA*%
X11000000Y6675000D03*
%TD*%
D23*
%TO.P,PS1,1,+VIN*%
%TO.N,12V28*%
X8965000Y-6710000D03*
%TO.P,PS1,2,GND/-VO*%
%TO.N,GND*%
X8965000Y-9250000D03*
%TO.P,PS1,3,+VO/GND*%
%TO.N,VBAT_5V*%
X8965000Y-11790000D03*
D24*
%TO.P,PS1,4,TRIM*%
%TO.N,unconnected-(PS1-Pad4)*%
X3890000Y-11790000D03*
D23*
%TO.P,PS1,5,GND/-VO__1*%
%TO.N,GND*%
X4535000Y-9250000D03*
D24*
%TO.P,PS1,6,CTRL*%
%TO.N,12V28*%
X3890000Y-6710000D03*
%TD*%
D12*
%TO.P,C4,1*%
%TO.N,MCU_EN*%
X-900000Y-725000D03*
%TO.P,C4,2*%
%TO.N,GND*%
X-900000Y-2275000D03*
%TD*%
D25*
%TO.P,C3,1*%
%TO.N,VBAT_5V*%
X17775000Y-9500000D03*
%TO.P,C3,2*%
%TO.N,GND*%
X16225000Y-9500000D03*
%TD*%
D26*
%TO.N,GND*%
X5250000Y8500000D03*
X10000000Y-17500000D03*
X15000000Y-5000000D03*
X16250000Y5000000D03*
X20000000Y-5000000D03*
X-15000000Y2500000D03*
X-10000000Y-20000000D03*
D27*
X15000000Y15000000D03*
D26*
X-20000000Y10000000D03*
D27*
X-15000000Y-15000000D03*
D26*
X-12500000Y7500000D03*
X-6250000Y9750000D03*
X10000000Y20000000D03*
X0Y10000000D03*
X10000000Y-20000000D03*
X-19750000Y3750000D03*
X-15000000Y-5000000D03*
X-1000000Y-11750000D03*
X-8250000Y-13750000D03*
X20000000Y10000000D03*
X-1250000Y2250000D03*
X-2500000Y10000000D03*
X5500000Y-1250000D03*
X7500000Y-20000000D03*
D27*
X15000000Y-15000000D03*
D26*
X22250000Y0D03*
X-12500000Y10000000D03*
D27*
X-15000000Y15000000D03*
D26*
X2500000Y10000000D03*
X-20000000Y-10000000D03*
X-20000000Y7500000D03*
%TO.N,+3V3*%
X10500000Y-3250000D03*
X12000000Y8500000D03*
X12000000Y13000000D03*
X12000000Y3750000D03*
X-9000000Y-9250000D03*
X850000Y-3250000D03*
%TO.N,MCU_EN*%
X1762299Y2487701D03*
X1750000Y4250000D03*
%TO.N,Net-(D1-Pad1)*%
X-11750000Y19250000D03*
%TO.N,Net-(D1-Pad2)*%
X-10000000Y2000000D03*
%TO.N,CAN_TX*%
X-5898056Y-2101944D03*
X-6000000Y2000000D03*
%TO.N,CAN_RX*%
X-4500000Y2000000D03*
X-4500000Y-750000D03*
%TO.N,SDA*%
X17250000Y3500000D03*
%TO.N,SCL*%
X16250000Y3500000D03*
%TO.N,MISO*%
X-8750000Y6400000D03*
%TO.N,SCLK*%
X-8750000Y7900000D03*
%TO.N,SS1*%
X-8750000Y9400000D03*
%TO.N,SS2*%
X7500000Y11000000D03*
%TO.N,SS3*%
X7500000Y9500000D03*
%TO.N,CANH*%
X-7875000Y-7375000D03*
X-7875000Y-10375000D03*
X-4000000Y-15750000D03*
%TO.N,CANL*%
X-2000000Y-15750000D03*
%TO.N,SS4*%
X7500000Y7900000D03*
%TO.N,VBAT_5V*%
X7125000Y-12125000D03*
X2000000Y-19500000D03*
X-3635000Y-7885000D03*
%TD*%
D28*
%TO.N,+3V3*%
X10750000Y13025000D02*
X11975000Y13025000D01*
D29*
X12000000Y3750000D02*
X11925000Y3675000D01*
X11000000Y8325000D02*
X11825000Y8325000D01*
D28*
X10500000Y-3250000D02*
X10750000Y-3250000D01*
D29*
X11925000Y3675000D02*
X11000000Y3675000D01*
D28*
X10750000Y14725000D02*
X10750000Y13025000D01*
D29*
X-9095000Y-9155000D02*
X-9000000Y-9250000D01*
D28*
X13200000Y-5700000D02*
X13200000Y-7400000D01*
X11975000Y13025000D02*
X12000000Y13000000D01*
X10750000Y-3250000D02*
X13200000Y-5700000D01*
X9875000Y13900000D02*
X10750000Y13025000D01*
D29*
X850000Y-2325000D02*
X850000Y-3250000D01*
D28*
X8750000Y13900000D02*
X9875000Y13900000D01*
D29*
X11825000Y8325000D02*
X12000000Y8500000D01*
D28*
X10500000Y-2275000D02*
X10500000Y-3000000D01*
D29*
X-10335000Y-9155000D02*
X-9095000Y-9155000D01*
%TO.N,MCU_EN*%
X7150000Y12400000D02*
X8750000Y12400000D01*
X-900000Y-725000D02*
X-900000Y250000D01*
X1762299Y2487701D02*
X1374097Y2487701D01*
X1750000Y4250000D02*
X1750000Y7000000D01*
X-21696727Y-3500000D02*
X-22325000Y-2871727D01*
X850000Y-675000D02*
X-850000Y-675000D01*
X-22325000Y-815000D02*
X-21500000Y10000D01*
X-19405000Y-155000D02*
X-19405000Y-2871727D01*
X-22325000Y-2871727D02*
X-22325000Y-815000D01*
X1374097Y2487701D02*
X-813604Y300000D01*
X-813604Y300000D02*
X-16200000Y300000D01*
X-16200000Y300000D02*
X-18950000Y300000D01*
X1750000Y7000000D02*
X7150000Y12400000D01*
X-20033273Y-3500000D02*
X-21696727Y-3500000D01*
X-18950000Y300000D02*
X-19405000Y-155000D01*
X-19405000Y-2871727D02*
X-20033273Y-3500000D01*
%TO.N,Net-(D1-Pad1)*%
X-10250000Y19575000D02*
X-11425000Y19575000D01*
X-11425000Y19575000D02*
X-11750000Y19250000D01*
%TO.N,Net-(D1-Pad2)*%
X-8750000Y1900000D02*
X-9900000Y1900000D01*
X-9900000Y1900000D02*
X-10000000Y2000000D01*
%TO.N,MCU_IO9*%
X8450000Y3400000D02*
X8300000Y3250000D01*
X-1000000Y750000D02*
X-19490000Y750000D01*
X1500000Y3250000D02*
X-1000000Y750000D01*
X-19490000Y750000D02*
X-20230000Y10000D01*
X8300000Y3250000D02*
X1500000Y3250000D01*
X8750000Y3400000D02*
X8450000Y3400000D01*
%TO.N,CAN_TX*%
X-5165000Y-2835000D02*
X-5165000Y-5345000D01*
X-6000000Y2000000D02*
X-6000000Y8500000D01*
X-6000000Y8500000D02*
X-8400000Y10900000D01*
X-8400000Y10900000D02*
X-8750000Y10900000D01*
X-5898056Y-2101944D02*
X-5165000Y-2835000D01*
%TO.N,CAN_RX*%
X-6750000Y-1750000D02*
X-6750000Y-8000000D01*
X-5595000Y-9155000D02*
X-5165000Y-9155000D01*
X-4500000Y2000000D02*
X-4500000Y9000000D01*
X-5750000Y-750000D02*
X-6750000Y-1750000D01*
X-6750000Y-8000000D02*
X-5595000Y-9155000D01*
X-7900000Y12400000D02*
X-8750000Y12400000D01*
X-4500000Y9000000D02*
X-7900000Y12400000D01*
X-4500000Y-750000D02*
X-5750000Y-750000D01*
%TO.N,SDA*%
X17250000Y5250000D02*
X15825000Y6675000D01*
X9025000Y6675000D02*
X8750000Y6400000D01*
X15825000Y6675000D02*
X11000000Y6675000D01*
X17250000Y3500000D02*
X17250000Y5250000D01*
X11000000Y6675000D02*
X9025000Y6675000D01*
%TO.N,SCL*%
X14425000Y5325000D02*
X11000000Y5325000D01*
X8750000Y4900000D02*
X10575000Y4900000D01*
X10575000Y4900000D02*
X11000000Y5325000D01*
X16250000Y3500000D02*
X14425000Y5325000D01*
%TO.N,RXD*%
X-18110000Y3400000D02*
X-20230000Y1280000D01*
X-8750000Y3400000D02*
X-18110000Y3400000D01*
%TO.N,TXD*%
X-21880000Y1280000D02*
X-21500000Y1280000D01*
X-22325000Y1725000D02*
X-21880000Y1280000D01*
X-22325000Y3375000D02*
X-22325000Y1725000D01*
X-20800000Y4900000D02*
X-22325000Y3375000D01*
X-8750000Y4900000D02*
X-20800000Y4900000D01*
%TO.N,SS2*%
X8750000Y10900000D02*
X7600000Y10900000D01*
X7600000Y10900000D02*
X7500000Y11000000D01*
%TO.N,SS3*%
X8750000Y9400000D02*
X7600000Y9400000D01*
X7600000Y9400000D02*
X7500000Y9500000D01*
%TO.N,CANH*%
X-7875000Y-7375000D02*
X-8635000Y-6615000D01*
X-4000000Y-21000000D02*
X-4000000Y-15750000D01*
X-8635000Y-6615000D02*
X-10335000Y-6615000D01*
X-4000000Y-15750000D02*
X-4000000Y-14250000D01*
X-4000000Y-14250000D02*
X-7875000Y-10375000D01*
%TO.N,CANL*%
X-2000000Y-14750000D02*
X-2000000Y-15750000D01*
X-8865000Y-7885000D02*
X-2000000Y-14750000D01*
X-10335000Y-7885000D02*
X-8865000Y-7885000D01*
X-2000000Y-15750000D02*
X-2000000Y-21000000D01*
%TO.N,SS4*%
X8750000Y7900000D02*
X7500000Y7900000D01*
D28*
%TO.N,12V28*%
X2000000Y-15500000D02*
X2000000Y-6775000D01*
X3825000Y-6775000D02*
X3890000Y-6710000D01*
X2000000Y-6775000D02*
X3825000Y-6775000D01*
X0Y-17500000D02*
X2000000Y-15500000D01*
X3890000Y-6710000D02*
X8965000Y-6710000D01*
X0Y-21000000D02*
X0Y-17500000D01*
%TO.N,VBAT_5V*%
X2000000Y-17250000D02*
X2000000Y-19500000D01*
X-3635000Y-7885000D02*
X-2590000Y-7885000D01*
X17800000Y-7400000D02*
X17800000Y-9475000D01*
X8965000Y-11790000D02*
X7460000Y-11790000D01*
X-5165000Y-7885000D02*
X-3635000Y-7885000D01*
X-2590000Y-7885000D02*
X-2500000Y-7975000D01*
X15485000Y-11790000D02*
X8965000Y-11790000D01*
X17800000Y-9475000D02*
X17775000Y-9500000D01*
X17775000Y-9500000D02*
X15485000Y-11790000D01*
X7125000Y-12125000D02*
X2000000Y-17250000D01*
X7460000Y-11790000D02*
X7125000Y-12125000D01*
X2000000Y-19500000D02*
X2000000Y-21000000D01*
%TD*%
%TA.AperFunction,Conductor*%
%TO.N,GND*%
G36*
X9354628Y21665803D02*
G01*
X9502788Y21598439D01*
X10195680Y21283401D01*
X10198328Y21282132D01*
X10817179Y20970205D01*
X11041567Y20857104D01*
X11044189Y20855717D01*
X11869740Y20397163D01*
X11872282Y20395683D01*
X12037436Y20295071D01*
X12678736Y19904387D01*
X12681241Y19902791D01*
X12855247Y19786963D01*
X13257041Y19519507D01*
X13467316Y19379536D01*
X13469747Y19377847D01*
X13872581Y19085707D01*
X14234210Y18823450D01*
X14236579Y18821658D01*
X14687882Y18465880D01*
X14978155Y18237047D01*
X14980443Y18235168D01*
X15432094Y17848740D01*
X15697973Y17621256D01*
X15700182Y17619288D01*
X15802978Y17523931D01*
X16392492Y16977078D01*
X16394629Y16975015D01*
X16507102Y16861952D01*
X17060637Y16305510D01*
X17062663Y16303390D01*
X17639486Y15675000D01*
X17701245Y15607720D01*
X17703209Y15605492D01*
X18313337Y14884779D01*
X18315211Y14882474D01*
X18895946Y14137829D01*
X18897725Y14135451D01*
X19448106Y13368103D01*
X19449788Y13365655D01*
X19968921Y12576852D01*
X19970504Y12574338D01*
X20457560Y11765339D01*
X20459041Y11762764D01*
X20913246Y10934858D01*
X20914622Y10932226D01*
X21020937Y10718525D01*
X21240182Y10277826D01*
X21335241Y10086749D01*
X21336506Y10084071D01*
X21720854Y9226859D01*
X21722842Y9222425D01*
X21723995Y9219710D01*
X22073571Y8347916D01*
X22075456Y8343215D01*
X22076500Y8340452D01*
X22329898Y7626859D01*
X22392508Y7450542D01*
X22393443Y7447728D01*
X22579044Y6850000D01*
X22673466Y6545911D01*
X22674288Y6543065D01*
X22891026Y5731350D01*
X22917896Y5630720D01*
X22918603Y5627843D01*
X23125409Y4706428D01*
X23126000Y4703521D01*
X23294396Y3781475D01*
X23295655Y3774580D01*
X23296127Y3771666D01*
X23427683Y2841496D01*
X23428369Y2836643D01*
X23428723Y2833717D01*
X23523335Y1894127D01*
X23523572Y1891178D01*
X23579496Y963545D01*
X23580399Y948568D01*
X23580518Y945604D01*
X23584802Y732198D01*
X23599477Y1135D01*
X23599488Y-1125D01*
X23597533Y-187801D01*
X23594469Y-480437D01*
X23594336Y-493096D01*
X23594278Y-495347D01*
X23586264Y-690627D01*
X23555542Y-1439247D01*
X23555360Y-1442212D01*
X23531133Y-1740073D01*
X23489716Y-2249288D01*
X23478808Y-2383394D01*
X23478510Y-2386334D01*
X23449630Y-2623251D01*
X23364244Y-3323710D01*
X23363826Y-3326651D01*
X23212035Y-4258689D01*
X23211500Y-4261605D01*
X23041930Y-5091362D01*
X23022424Y-5186808D01*
X23021774Y-5189693D01*
X22865140Y-5825000D01*
X22795721Y-6106564D01*
X22794952Y-6109433D01*
X22533457Y-7012444D01*
X22532286Y-7016487D01*
X22531408Y-7019304D01*
X22320992Y-7650000D01*
X22232560Y-7915065D01*
X22231564Y-7917863D01*
X21983120Y-8573622D01*
X21907926Y-8772094D01*
X21896998Y-8800937D01*
X21895899Y-8803672D01*
X21646881Y-9388901D01*
X21526156Y-9672623D01*
X21524938Y-9675332D01*
X21120641Y-10528698D01*
X21119316Y-10531356D01*
X20681088Y-11367830D01*
X20679657Y-11370433D01*
X20208217Y-12188640D01*
X20206683Y-12191183D01*
X20121506Y-12326180D01*
X19901240Y-12675282D01*
X19702788Y-12989809D01*
X19701161Y-12992277D01*
X19466440Y-13333161D01*
X19165598Y-13770071D01*
X19163864Y-13772483D01*
X18597562Y-14528099D01*
X18595734Y-14530440D01*
X17999515Y-15262780D01*
X17997614Y-15265021D01*
X17372502Y-15972825D01*
X17370509Y-15974993D01*
X16717489Y-16657147D01*
X16715392Y-16659251D01*
X16035547Y-17314624D01*
X16033368Y-17316642D01*
X15327754Y-17944218D01*
X15325495Y-17946147D01*
X14595283Y-18544884D01*
X14592955Y-18546716D01*
X13869952Y-19092528D01*
X13839285Y-19115679D01*
X13836879Y-19117421D01*
X13060989Y-19655675D01*
X13058515Y-19657319D01*
X12261642Y-20164005D01*
X12259104Y-20165548D01*
X11442548Y-20639843D01*
X11439958Y-20641278D01*
X10604990Y-21082438D01*
X10602359Y-21083761D01*
X9750418Y-21491029D01*
X9747719Y-21492254D01*
X8901836Y-21855674D01*
X8880059Y-21865030D01*
X8877313Y-21866145D01*
X8135799Y-22150044D01*
X7995428Y-22203787D01*
X7992637Y-22204791D01*
X7097901Y-22506773D01*
X7095085Y-22507660D01*
X6188949Y-22773492D01*
X6186119Y-22774261D01*
X5270026Y-23003518D01*
X5267135Y-23004180D01*
X4695914Y-23122994D01*
X4342631Y-23196477D01*
X4339712Y-23197024D01*
X3408205Y-23352069D01*
X3405266Y-23352498D01*
X3178669Y-23380923D01*
X2468262Y-23470038D01*
X2465347Y-23470344D01*
X1524408Y-23550185D01*
X1521461Y-23550375D01*
X578034Y-23592391D01*
X575111Y-23592461D01*
X96109Y-23594552D01*
X-369183Y-23596582D01*
X-372153Y-23596536D01*
X-1268874Y-23564439D01*
X-1315881Y-23562756D01*
X-1318846Y-23562590D01*
X-1480280Y-23550310D01*
X-2260441Y-23490965D01*
X-2263390Y-23490681D01*
X-2541398Y-23458268D01*
X-3201342Y-23381326D01*
X-3204284Y-23380923D01*
X-4137099Y-23234014D01*
X-4140024Y-23233493D01*
X-5066193Y-23049266D01*
X-5069094Y-23048628D01*
X-5987100Y-22827387D01*
X-5989973Y-22826634D01*
X-6898414Y-22568715D01*
X-6901254Y-22567846D01*
X-6919059Y-22562009D01*
X-7084841Y-22507663D01*
X-7798563Y-22273693D01*
X-7801367Y-22272711D01*
X-8287750Y-22091344D01*
X-8686171Y-21942776D01*
X-8688894Y-21941699D01*
X-9559808Y-21576494D01*
X-9562482Y-21575308D01*
X-10061611Y-21342030D01*
X-10417964Y-21175481D01*
X-10420629Y-21174170D01*
X-11259376Y-20740333D01*
X-11261987Y-20738916D01*
X-11434725Y-20640588D01*
X-12082691Y-20271744D01*
X-12085202Y-20270247D01*
X-12506440Y-20007539D01*
X-12886462Y-19770535D01*
X-12888951Y-19768913D01*
X-13669526Y-19237438D01*
X-13671947Y-19235717D01*
X-14430534Y-18673368D01*
X-14432884Y-18671552D01*
X-15168325Y-18079185D01*
X-15170600Y-18077275D01*
X-15881639Y-17455903D01*
X-15883836Y-17453904D01*
X-15902137Y-17436567D01*
X-16569402Y-16804462D01*
X-16571487Y-16802406D01*
X-17230415Y-16125997D01*
X-17232443Y-16123831D01*
X-17863715Y-15421501D01*
X-17865656Y-15419252D01*
X-18468218Y-14692172D01*
X-18470067Y-14689847D01*
X-18506196Y-14642506D01*
X-18805748Y-14250000D01*
X-19042954Y-13939185D01*
X-19044708Y-13936789D01*
X-19587023Y-13163721D01*
X-19588680Y-13161255D01*
X-19698146Y-12991070D01*
X-20099537Y-12367038D01*
X-20101088Y-12364516D01*
X-20110812Y-12347974D01*
X-20525668Y-11642282D01*
X-20579640Y-11550472D01*
X-20581094Y-11547882D01*
X-20668485Y-11384556D01*
X-21026624Y-10715227D01*
X-21027963Y-10712598D01*
X-21057019Y-10652625D01*
X-21191527Y-10375000D01*
X-8430250Y-10375000D01*
X-8411330Y-10518709D01*
X-8409474Y-10523190D01*
X-8406635Y-10530045D01*
X-8355861Y-10652625D01*
X-8267621Y-10767621D01*
X-8152625Y-10855861D01*
X-8018709Y-10911330D01*
X-7875000Y-10930250D01*
X-7870192Y-10929617D01*
X-7764816Y-10915744D01*
X-7715397Y-10926700D01*
X-7702831Y-10936785D01*
X-4297174Y-14342442D01*
X-4275782Y-14388318D01*
X-4275500Y-14394768D01*
X-4275500Y-15231016D01*
X-4292813Y-15278582D01*
X-4304448Y-15289721D01*
X-4392621Y-15357379D01*
X-4480861Y-15472375D01*
X-4536330Y-15606291D01*
X-4555250Y-15750000D01*
X-4536330Y-15893709D01*
X-4480861Y-16027625D01*
X-4392621Y-16142621D01*
X-4304450Y-16210277D01*
X-4277254Y-16252968D01*
X-4275500Y-16268984D01*
X-4275500Y-19785345D01*
X-4292813Y-19832911D01*
X-4337924Y-19858434D01*
X-4341024Y-19858925D01*
X-4375304Y-19864354D01*
X-4409967Y-19882016D01*
X-4483150Y-19919304D01*
X-4483152Y-19919306D01*
X-4488342Y-19921950D01*
X-4578050Y-20011658D01*
X-4580694Y-20016848D01*
X-4580696Y-20016850D01*
X-4580847Y-20017147D01*
X-4635646Y-20124696D01*
X-4636557Y-20130448D01*
X-4636558Y-20130451D01*
X-4650045Y-20215608D01*
X-4650500Y-20218481D01*
X-4650499Y-21781518D01*
X-4635646Y-21875304D01*
X-4606848Y-21931823D01*
X-4580696Y-21983150D01*
X-4580694Y-21983152D01*
X-4578050Y-21988342D01*
X-4488342Y-22078050D01*
X-4483152Y-22080694D01*
X-4483150Y-22080696D01*
X-4380498Y-22133000D01*
X-4380495Y-22133001D01*
X-4375304Y-22135646D01*
X-4369552Y-22136557D01*
X-4369549Y-22136558D01*
X-4287555Y-22149544D01*
X-4281519Y-22150500D01*
X-4000001Y-22150500D01*
X-3718482Y-22150499D01*
X-3715610Y-22150044D01*
X-3715608Y-22150044D01*
X-3683910Y-22145024D01*
X-3624696Y-22135646D01*
X-3568177Y-22106848D01*
X-3516850Y-22080696D01*
X-3516848Y-22080694D01*
X-3511658Y-22078050D01*
X-3421950Y-21988342D01*
X-3419306Y-21983152D01*
X-3419304Y-21983150D01*
X-3367000Y-21880498D01*
X-3366999Y-21880495D01*
X-3364354Y-21875304D01*
X-3363443Y-21869552D01*
X-3363442Y-21869549D01*
X-3349955Y-21784392D01*
X-3349500Y-21781519D01*
X-3349501Y-20218482D01*
X-3364354Y-20124696D01*
X-3419153Y-20017147D01*
X-3419304Y-20016850D01*
X-3419306Y-20016848D01*
X-3421950Y-20011658D01*
X-3511658Y-19921950D01*
X-3516848Y-19919306D01*
X-3516850Y-19919304D01*
X-3619502Y-19867000D01*
X-3619505Y-19866999D01*
X-3624696Y-19864354D01*
X-3630450Y-19863443D01*
X-3630452Y-19863442D01*
X-3649809Y-19860377D01*
X-3662076Y-19858434D01*
X-3706348Y-19833894D01*
X-3724500Y-19785345D01*
X-3724500Y-16268984D01*
X-3707187Y-16221418D01*
X-3695552Y-16210279D01*
X-3607379Y-16142621D01*
X-3519139Y-16027625D01*
X-3463670Y-15893709D01*
X-3444750Y-15750000D01*
X-3463670Y-15606291D01*
X-3519139Y-15472375D01*
X-3607379Y-15357379D01*
X-3695550Y-15289723D01*
X-3722746Y-15247032D01*
X-3724500Y-15231016D01*
X-3724500Y-14284421D01*
X-3723078Y-14269985D01*
X-3720525Y-14257149D01*
X-3719103Y-14250000D01*
X-3740484Y-14142506D01*
X-3786006Y-14074378D01*
X-3786007Y-14074377D01*
X-3801376Y-14051376D01*
X-3818318Y-14040056D01*
X-3829529Y-14030855D01*
X-7313215Y-10547169D01*
X-7334607Y-10501293D01*
X-7334256Y-10485184D01*
X-7320383Y-10379808D01*
X-7319750Y-10375000D01*
X-7338670Y-10231291D01*
X-7394139Y-10097375D01*
X-7482379Y-9982379D01*
X-7597375Y-9894139D01*
X-7731291Y-9838670D01*
X-7875000Y-9819750D01*
X-8018709Y-9838670D01*
X-8152625Y-9894139D01*
X-8267621Y-9982379D01*
X-8355861Y-10097375D01*
X-8411330Y-10231291D01*
X-8430250Y-10375000D01*
X-21191527Y-10375000D01*
X-21439681Y-9862812D01*
X-21440923Y-9860114D01*
X-21613212Y-9464820D01*
X-11360500Y-9464820D01*
X-11351767Y-9508722D01*
X-11318504Y-9558504D01*
X-11268722Y-9591767D01*
X-11261576Y-9593188D01*
X-11261575Y-9593189D01*
X-11228390Y-9599790D01*
X-11228389Y-9599790D01*
X-11224820Y-9600500D01*
X-9461434Y-9600500D01*
X-9413868Y-9617813D01*
X-9402730Y-9629447D01*
X-9392621Y-9642621D01*
X-9277625Y-9730861D01*
X-9184821Y-9769301D01*
X-9152127Y-9782843D01*
X-9143709Y-9786330D01*
X-9000000Y-9805250D01*
X-8995192Y-9804617D01*
X-8861099Y-9786963D01*
X-8856291Y-9786330D01*
X-8847872Y-9782843D01*
X-8815179Y-9769301D01*
X-8722375Y-9730861D01*
X-8607379Y-9642621D01*
X-8519139Y-9527625D01*
X-8463670Y-9393709D01*
X-8444750Y-9250000D01*
X-8463670Y-9106291D01*
X-8519139Y-8972375D01*
X-8607379Y-8857379D01*
X-8722375Y-8769139D01*
X-8856291Y-8713670D01*
X-9000000Y-8694750D01*
X-9143709Y-8713670D01*
X-9148190Y-8715526D01*
X-9273125Y-8767275D01*
X-9323696Y-8769483D01*
X-9350240Y-8753375D01*
X-9351496Y-8751496D01*
X-9401278Y-8718233D01*
X-9408424Y-8716812D01*
X-9408425Y-8716811D01*
X-9441610Y-8710210D01*
X-9441611Y-8710210D01*
X-9445180Y-8709500D01*
X-11224820Y-8709500D01*
X-11228389Y-8710210D01*
X-11228390Y-8710210D01*
X-11261575Y-8716811D01*
X-11261576Y-8716812D01*
X-11268722Y-8718233D01*
X-11318504Y-8751496D01*
X-11351767Y-8801278D01*
X-11360500Y-8845180D01*
X-11360500Y-9464820D01*
X-21613212Y-9464820D01*
X-21818232Y-8994427D01*
X-21819364Y-8991680D01*
X-22129247Y-8194820D01*
X-11360500Y-8194820D01*
X-11359790Y-8198389D01*
X-11359790Y-8198390D01*
X-11353189Y-8231575D01*
X-11353188Y-8231576D01*
X-11351767Y-8238722D01*
X-11318504Y-8288504D01*
X-11268722Y-8321767D01*
X-11261576Y-8323188D01*
X-11261575Y-8323189D01*
X-11228390Y-8329790D01*
X-11228389Y-8329790D01*
X-11224820Y-8330500D01*
X-9445180Y-8330500D01*
X-9441611Y-8329790D01*
X-9441610Y-8329790D01*
X-9408425Y-8323189D01*
X-9408424Y-8323188D01*
X-9401278Y-8321767D01*
X-9351496Y-8288504D01*
X-9318233Y-8238722D01*
X-9314521Y-8220061D01*
X-9288260Y-8176787D01*
X-9241943Y-8160500D01*
X-9009768Y-8160500D01*
X-8962202Y-8177813D01*
X-8957442Y-8182174D01*
X-2297174Y-14842442D01*
X-2275782Y-14888318D01*
X-2275500Y-14894768D01*
X-2275500Y-15231016D01*
X-2292813Y-15278582D01*
X-2304448Y-15289721D01*
X-2392621Y-15357379D01*
X-2480861Y-15472375D01*
X-2536330Y-15606291D01*
X-2555250Y-15750000D01*
X-2536330Y-15893709D01*
X-2480861Y-16027625D01*
X-2392621Y-16142621D01*
X-2304450Y-16210277D01*
X-2277254Y-16252968D01*
X-2275500Y-16268984D01*
X-2275500Y-19785345D01*
X-2292813Y-19832911D01*
X-2337924Y-19858434D01*
X-2341024Y-19858925D01*
X-2375304Y-19864354D01*
X-2409967Y-19882016D01*
X-2483150Y-19919304D01*
X-2483152Y-19919306D01*
X-2488342Y-19921950D01*
X-2578050Y-20011658D01*
X-2580694Y-20016848D01*
X-2580696Y-20016850D01*
X-2580847Y-20017147D01*
X-2635646Y-20124696D01*
X-2636557Y-20130448D01*
X-2636558Y-20130451D01*
X-2650045Y-20215608D01*
X-2650500Y-20218481D01*
X-2650499Y-21781518D01*
X-2635646Y-21875304D01*
X-2606848Y-21931823D01*
X-2580696Y-21983150D01*
X-2580694Y-21983152D01*
X-2578050Y-21988342D01*
X-2488342Y-22078050D01*
X-2483152Y-22080694D01*
X-2483150Y-22080696D01*
X-2380498Y-22133000D01*
X-2380495Y-22133001D01*
X-2375304Y-22135646D01*
X-2369552Y-22136557D01*
X-2369549Y-22136558D01*
X-2287555Y-22149544D01*
X-2281519Y-22150500D01*
X-2000001Y-22150500D01*
X-1718482Y-22150499D01*
X-1715610Y-22150044D01*
X-1715608Y-22150044D01*
X-1683910Y-22145024D01*
X-1624696Y-22135646D01*
X-1568177Y-22106848D01*
X-1516850Y-22080696D01*
X-1516848Y-22080694D01*
X-1511658Y-22078050D01*
X-1421950Y-21988342D01*
X-1419306Y-21983152D01*
X-1419304Y-21983150D01*
X-1367000Y-21880498D01*
X-1366999Y-21880495D01*
X-1364354Y-21875304D01*
X-1363443Y-21869552D01*
X-1363442Y-21869549D01*
X-1349955Y-21784392D01*
X-1349500Y-21781519D01*
X-1349501Y-20218482D01*
X-1349501Y-20218481D01*
X-650500Y-20218481D01*
X-650499Y-21781518D01*
X-635646Y-21875304D01*
X-606848Y-21931823D01*
X-580696Y-21983150D01*
X-580694Y-21983152D01*
X-578050Y-21988342D01*
X-488342Y-22078050D01*
X-483152Y-22080694D01*
X-483150Y-22080696D01*
X-380498Y-22133000D01*
X-380495Y-22133001D01*
X-375304Y-22135646D01*
X-369552Y-22136557D01*
X-369549Y-22136558D01*
X-287555Y-22149544D01*
X-281519Y-22150500D01*
X-1Y-22150500D01*
X281518Y-22150499D01*
X284390Y-22150044D01*
X284392Y-22150044D01*
X316090Y-22145024D01*
X375304Y-22135646D01*
X431823Y-22106848D01*
X483150Y-22080696D01*
X483152Y-22080694D01*
X488342Y-22078050D01*
X578050Y-21988342D01*
X580694Y-21983152D01*
X580696Y-21983150D01*
X633000Y-21880498D01*
X633001Y-21880495D01*
X635646Y-21875304D01*
X636557Y-21869552D01*
X636558Y-21869549D01*
X650045Y-21784392D01*
X650500Y-21781519D01*
X650499Y-20218482D01*
X650499Y-20218481D01*
X1349500Y-20218481D01*
X1349501Y-21781518D01*
X1364354Y-21875304D01*
X1393152Y-21931823D01*
X1419304Y-21983150D01*
X1419306Y-21983152D01*
X1421950Y-21988342D01*
X1511658Y-22078050D01*
X1516848Y-22080694D01*
X1516850Y-22080696D01*
X1619502Y-22133000D01*
X1619505Y-22133001D01*
X1624696Y-22135646D01*
X1630448Y-22136557D01*
X1630451Y-22136558D01*
X1712445Y-22149544D01*
X1718481Y-22150500D01*
X2000000Y-22150500D01*
X2281518Y-22150499D01*
X2284390Y-22150044D01*
X2284392Y-22150044D01*
X2316090Y-22145024D01*
X2375304Y-22135646D01*
X2431823Y-22106848D01*
X2483150Y-22080696D01*
X2483152Y-22080694D01*
X2488342Y-22078050D01*
X2578050Y-21988342D01*
X2580694Y-21983152D01*
X2580696Y-21983150D01*
X2633000Y-21880498D01*
X2633001Y-21880495D01*
X2635646Y-21875304D01*
X2636557Y-21869552D01*
X2636558Y-21869549D01*
X2650045Y-21784392D01*
X2650500Y-21781519D01*
X2650500Y-21778571D01*
X3350001Y-21778571D01*
X3350456Y-21784354D01*
X3363924Y-21869394D01*
X3367481Y-21880340D01*
X3419713Y-21982853D01*
X3426478Y-21992164D01*
X3507836Y-22073522D01*
X3517147Y-22080287D01*
X3619658Y-22132519D01*
X3630607Y-22136077D01*
X3715646Y-22149545D01*
X3721428Y-22150000D01*
X3736952Y-22150000D01*
X3746948Y-22146362D01*
X3750000Y-22141075D01*
X3750000Y-22136951D01*
X4250000Y-22136951D01*
X4253638Y-22146947D01*
X4258925Y-22149999D01*
X4278571Y-22149999D01*
X4284354Y-22149544D01*
X4369394Y-22136076D01*
X4380340Y-22132519D01*
X4482853Y-22080287D01*
X4492164Y-22073522D01*
X4573522Y-21992164D01*
X4580287Y-21982853D01*
X4632519Y-21880342D01*
X4636077Y-21869393D01*
X4649545Y-21784354D01*
X4650000Y-21778572D01*
X4650000Y-21263048D01*
X4646362Y-21253052D01*
X4641075Y-21250000D01*
X4263048Y-21250000D01*
X4253052Y-21253638D01*
X4250000Y-21258925D01*
X4250000Y-22136951D01*
X3750000Y-22136951D01*
X3750000Y-21263048D01*
X3746362Y-21253052D01*
X3741075Y-21250000D01*
X3363049Y-21250000D01*
X3353053Y-21253638D01*
X3350001Y-21258925D01*
X3350001Y-21778571D01*
X2650500Y-21778571D01*
X2650499Y-20736952D01*
X3350000Y-20736952D01*
X3353638Y-20746948D01*
X3358925Y-20750000D01*
X3736952Y-20750000D01*
X3746948Y-20746362D01*
X3750000Y-20741075D01*
X3750000Y-20736952D01*
X4250000Y-20736952D01*
X4253638Y-20746948D01*
X4258925Y-20750000D01*
X4636951Y-20750000D01*
X4646947Y-20746362D01*
X4649999Y-20741075D01*
X4649999Y-20221429D01*
X4649544Y-20215646D01*
X4636076Y-20130606D01*
X4632519Y-20119660D01*
X4580287Y-20017147D01*
X4573522Y-20007836D01*
X4492164Y-19926478D01*
X4482853Y-19919713D01*
X4380342Y-19867481D01*
X4369393Y-19863923D01*
X4284354Y-19850455D01*
X4278572Y-19850000D01*
X4263048Y-19850000D01*
X4253052Y-19853638D01*
X4250000Y-19858925D01*
X4250000Y-20736952D01*
X3750000Y-20736952D01*
X3750000Y-19863049D01*
X3746362Y-19853053D01*
X3741075Y-19850001D01*
X3721429Y-19850001D01*
X3715646Y-19850456D01*
X3630606Y-19863924D01*
X3619660Y-19867481D01*
X3517147Y-19919713D01*
X3507836Y-19926478D01*
X3426478Y-20007836D01*
X3419713Y-20017147D01*
X3367481Y-20119658D01*
X3363923Y-20130607D01*
X3350455Y-20215646D01*
X3350000Y-20221428D01*
X3350000Y-20736952D01*
X2650499Y-20736952D01*
X2650499Y-20218482D01*
X2635646Y-20124696D01*
X2580847Y-20017147D01*
X2580696Y-20016850D01*
X2580694Y-20016848D01*
X2578050Y-20011658D01*
X2488342Y-19921950D01*
X2483149Y-19919304D01*
X2482624Y-19919036D01*
X2482292Y-19918680D01*
X2478441Y-19915882D01*
X2478985Y-19915133D01*
X2448102Y-19882016D01*
X2445454Y-19831466D01*
X2457512Y-19808054D01*
X2474937Y-19785345D01*
X2480861Y-19777625D01*
X2536330Y-19643709D01*
X2555250Y-19500000D01*
X2536330Y-19356291D01*
X2480861Y-19222375D01*
X2415791Y-19137575D01*
X2400500Y-19092528D01*
X2400500Y-17446545D01*
X2417813Y-17398979D01*
X2422174Y-17394219D01*
X7120070Y-12696323D01*
X7162737Y-12675282D01*
X7263901Y-12661963D01*
X7268709Y-12661330D01*
X7273190Y-12659474D01*
X7398143Y-12607718D01*
X7398146Y-12607716D01*
X7402625Y-12605861D01*
X7406473Y-12602908D01*
X7406477Y-12602906D01*
X7440966Y-12576441D01*
X7489242Y-12561218D01*
X7500445Y-12562569D01*
X7515180Y-12565500D01*
X10414820Y-12565500D01*
X10418389Y-12564790D01*
X10418390Y-12564790D01*
X10451575Y-12558189D01*
X10451576Y-12558188D01*
X10458722Y-12556767D01*
X10508504Y-12523504D01*
X10541767Y-12473722D01*
X10550500Y-12429820D01*
X10550500Y-12264500D01*
X10567813Y-12216934D01*
X10611650Y-12191624D01*
X10624500Y-12190500D01*
X15548433Y-12190500D01*
X15553971Y-12188700D01*
X15553974Y-12188700D01*
X15573246Y-12182438D01*
X15584537Y-12179727D01*
X15594544Y-12178142D01*
X15610304Y-12175646D01*
X15615701Y-12172896D01*
X15633550Y-12163802D01*
X15644278Y-12159358D01*
X15663551Y-12153096D01*
X15663552Y-12153095D01*
X15669090Y-12151296D01*
X15673799Y-12147874D01*
X15673804Y-12147872D01*
X15690198Y-12135961D01*
X15700098Y-12129894D01*
X15718153Y-12120694D01*
X15718154Y-12120694D01*
X15723342Y-12118050D01*
X15745905Y-12095487D01*
X15745909Y-12095484D01*
X17694219Y-10147174D01*
X17740095Y-10125782D01*
X17746545Y-10125500D01*
X18035590Y-10125500D01*
X18041616Y-10124613D01*
X18044598Y-10124174D01*
X18109396Y-10114635D01*
X18221610Y-10059541D01*
X18309927Y-9971069D01*
X18364826Y-9858759D01*
X18375500Y-9785590D01*
X18375500Y-9214410D01*
X18364635Y-9140604D01*
X18309541Y-9028390D01*
X18222220Y-8941222D01*
X18200787Y-8895364D01*
X18200500Y-8888850D01*
X18200500Y-8624500D01*
X18217813Y-8576934D01*
X18261650Y-8551624D01*
X18274500Y-8550500D01*
X18564820Y-8550500D01*
X18568389Y-8549790D01*
X18568390Y-8549790D01*
X18601575Y-8543189D01*
X18601576Y-8543188D01*
X18608722Y-8541767D01*
X18658504Y-8508504D01*
X18691767Y-8458722D01*
X18693228Y-8451380D01*
X18699790Y-8418390D01*
X18699790Y-8418389D01*
X18700500Y-8414820D01*
X18700500Y-6385180D01*
X18694932Y-6357187D01*
X18693189Y-6348425D01*
X18693188Y-6348424D01*
X18691767Y-6341278D01*
X18658504Y-6291496D01*
X18608722Y-6258233D01*
X18601576Y-6256812D01*
X18601575Y-6256811D01*
X18568390Y-6250210D01*
X18568389Y-6250210D01*
X18564820Y-6249500D01*
X17035180Y-6249500D01*
X17031611Y-6250210D01*
X17031610Y-6250210D01*
X16998425Y-6256811D01*
X16998424Y-6256812D01*
X16991278Y-6258233D01*
X16941496Y-6291496D01*
X16908233Y-6341278D01*
X16906812Y-6348424D01*
X16906811Y-6348425D01*
X16905068Y-6357187D01*
X16899500Y-6385180D01*
X16899500Y-8414820D01*
X16900210Y-8418389D01*
X16900210Y-8418390D01*
X16906773Y-8451380D01*
X16908233Y-8458722D01*
X16941496Y-8508504D01*
X16991278Y-8541767D01*
X16998424Y-8543188D01*
X16998425Y-8543189D01*
X17031610Y-8549790D01*
X17031611Y-8549790D01*
X17035180Y-8550500D01*
X17325500Y-8550500D01*
X17373066Y-8567813D01*
X17398376Y-8611650D01*
X17399500Y-8624500D01*
X17399500Y-8859440D01*
X17382187Y-8907006D01*
X17358114Y-8925866D01*
X17328390Y-8940459D01*
X17240073Y-9028931D01*
X17185174Y-9141241D01*
X17184345Y-9146924D01*
X17174890Y-9211740D01*
X17174500Y-9214410D01*
X17174500Y-9503455D01*
X17157187Y-9551021D01*
X17152826Y-9555781D01*
X16939306Y-9769301D01*
X16893430Y-9790693D01*
X16844535Y-9777592D01*
X16829159Y-9757554D01*
X16816075Y-9750000D01*
X16488048Y-9750000D01*
X16478052Y-9753638D01*
X16475000Y-9758925D01*
X16475000Y-10111952D01*
X16484575Y-10138259D01*
X16496140Y-10152041D01*
X16496141Y-10202660D01*
X16478929Y-10229678D01*
X15340781Y-11367826D01*
X15294905Y-11389218D01*
X15288455Y-11389500D01*
X10624500Y-11389500D01*
X10576934Y-11372187D01*
X10551624Y-11328350D01*
X10550500Y-11315500D01*
X10550500Y-11150180D01*
X10541767Y-11106278D01*
X10508504Y-11056496D01*
X10458722Y-11023233D01*
X10451576Y-11021812D01*
X10451575Y-11021811D01*
X10418390Y-11015210D01*
X10418389Y-11015210D01*
X10414820Y-11014500D01*
X7515180Y-11014500D01*
X7511611Y-11015210D01*
X7511610Y-11015210D01*
X7478425Y-11021811D01*
X7478424Y-11021812D01*
X7471278Y-11023233D01*
X7421496Y-11056496D01*
X7388233Y-11106278D01*
X7379500Y-11150180D01*
X7379500Y-11336990D01*
X7362187Y-11384556D01*
X7334221Y-11403421D01*
X7334696Y-11404354D01*
X7311453Y-11416197D01*
X7300724Y-11420641D01*
X7275911Y-11428703D01*
X7271201Y-11432125D01*
X7254801Y-11444040D01*
X7244904Y-11450106D01*
X7221658Y-11461950D01*
X7199095Y-11484513D01*
X7199091Y-11484516D01*
X7129930Y-11553677D01*
X7087263Y-11574718D01*
X6981291Y-11588670D01*
X6847375Y-11644139D01*
X6732379Y-11732379D01*
X6644139Y-11847375D01*
X6588670Y-11981291D01*
X6588037Y-11986099D01*
X6574718Y-12087263D01*
X6553677Y-12129930D01*
X1694516Y-16989091D01*
X1694513Y-16989095D01*
X1671950Y-17011658D01*
X1669306Y-17016846D01*
X1669306Y-17016847D01*
X1660106Y-17034902D01*
X1654039Y-17044802D01*
X1642128Y-17061196D01*
X1642126Y-17061201D01*
X1638704Y-17065910D01*
X1636905Y-17071448D01*
X1636904Y-17071449D01*
X1630642Y-17090722D01*
X1626198Y-17101450D01*
X1617104Y-17119299D01*
X1614354Y-17124696D01*
X1613443Y-17130449D01*
X1610273Y-17150463D01*
X1607562Y-17161754D01*
X1601300Y-17181026D01*
X1599500Y-17186567D01*
X1599500Y-19092528D01*
X1584209Y-19137575D01*
X1519139Y-19222375D01*
X1463670Y-19356291D01*
X1444750Y-19500000D01*
X1463670Y-19643709D01*
X1519139Y-19777625D01*
X1525063Y-19785345D01*
X1542488Y-19808054D01*
X1557710Y-19856330D01*
X1538339Y-19903096D01*
X1521547Y-19915865D01*
X1521559Y-19915882D01*
X1520770Y-19916455D01*
X1517376Y-19919036D01*
X1516851Y-19919304D01*
X1511658Y-19921950D01*
X1421950Y-20011658D01*
X1419306Y-20016848D01*
X1419304Y-20016850D01*
X1419153Y-20017147D01*
X1364354Y-20124696D01*
X1363443Y-20130448D01*
X1363442Y-20130451D01*
X1349955Y-20215608D01*
X1349500Y-20218481D01*
X650499Y-20218481D01*
X635646Y-20124696D01*
X580847Y-20017147D01*
X580696Y-20016850D01*
X580694Y-20016848D01*
X578050Y-20011658D01*
X488342Y-19921950D01*
X440904Y-19897779D01*
X406382Y-19860758D01*
X400500Y-19831845D01*
X400500Y-17696545D01*
X417813Y-17648979D01*
X422174Y-17644219D01*
X2305483Y-15760909D01*
X2328050Y-15738342D01*
X2339895Y-15715094D01*
X2345961Y-15705197D01*
X2348996Y-15701019D01*
X2361296Y-15684090D01*
X2369358Y-15659278D01*
X2373802Y-15648550D01*
X2383000Y-15630497D01*
X2385646Y-15625304D01*
X2389727Y-15599537D01*
X2392438Y-15588246D01*
X2398700Y-15568974D01*
X2398700Y-15568971D01*
X2400500Y-15563433D01*
X2400500Y-12329820D01*
X2949500Y-12329820D01*
X2950210Y-12333389D01*
X2950210Y-12333390D01*
X2956402Y-12364516D01*
X2958233Y-12373722D01*
X2991496Y-12423504D01*
X3041278Y-12456767D01*
X3048424Y-12458188D01*
X3048425Y-12458189D01*
X3081610Y-12464790D01*
X3081611Y-12464790D01*
X3085180Y-12465500D01*
X4694820Y-12465500D01*
X4698389Y-12464790D01*
X4698390Y-12464790D01*
X4731575Y-12458189D01*
X4731576Y-12458188D01*
X4738722Y-12456767D01*
X4788504Y-12423504D01*
X4821767Y-12373722D01*
X4823599Y-12364516D01*
X4829790Y-12333390D01*
X4829790Y-12333389D01*
X4830500Y-12329820D01*
X4830500Y-11250180D01*
X4821767Y-11206278D01*
X4788504Y-11156496D01*
X4738722Y-11123233D01*
X4731576Y-11121812D01*
X4731575Y-11121811D01*
X4698390Y-11115210D01*
X4698389Y-11115210D01*
X4694820Y-11114500D01*
X3085180Y-11114500D01*
X3081611Y-11115210D01*
X3081610Y-11115210D01*
X3048425Y-11121811D01*
X3048424Y-11121812D01*
X3041278Y-11123233D01*
X2991496Y-11156496D01*
X2958233Y-11206278D01*
X2949500Y-11250180D01*
X2949500Y-12329820D01*
X2400500Y-12329820D01*
X2400500Y-9886133D01*
X2950001Y-9886133D01*
X2950712Y-9893347D01*
X2957281Y-9926378D01*
X2962752Y-9939587D01*
X2987807Y-9977084D01*
X2997916Y-9987193D01*
X3035415Y-10012249D01*
X3048620Y-10017719D01*
X3081655Y-10024290D01*
X3088865Y-10025000D01*
X4271952Y-10025000D01*
X4281948Y-10021362D01*
X4285000Y-10016075D01*
X4285000Y-10011951D01*
X4785000Y-10011951D01*
X4788638Y-10021947D01*
X4793925Y-10024999D01*
X5981133Y-10024999D01*
X5988347Y-10024288D01*
X6021378Y-10017719D01*
X6034587Y-10012248D01*
X6072084Y-9987193D01*
X6082193Y-9977084D01*
X6107249Y-9939585D01*
X6112719Y-9926380D01*
X6119290Y-9893345D01*
X6120000Y-9886135D01*
X6120000Y-9886133D01*
X7380001Y-9886133D01*
X7380712Y-9893347D01*
X7387281Y-9926378D01*
X7392752Y-9939587D01*
X7417807Y-9977084D01*
X7427916Y-9987193D01*
X7465415Y-10012249D01*
X7478620Y-10017719D01*
X7511655Y-10024290D01*
X7518865Y-10025000D01*
X8701952Y-10025000D01*
X8711948Y-10021362D01*
X8715000Y-10016075D01*
X8715000Y-10011951D01*
X9215000Y-10011951D01*
X9218638Y-10021947D01*
X9223925Y-10024999D01*
X10411133Y-10024999D01*
X10418347Y-10024288D01*
X10451378Y-10017719D01*
X10464587Y-10012248D01*
X10502084Y-9987193D01*
X10512193Y-9977084D01*
X10537249Y-9939585D01*
X10542719Y-9926380D01*
X10549290Y-9893345D01*
X10550000Y-9886135D01*
X10550000Y-9782843D01*
X15625000Y-9782843D01*
X15625393Y-9788212D01*
X15635013Y-9853564D01*
X15638382Y-9864408D01*
X15688176Y-9965826D01*
X15695199Y-9975634D01*
X15774899Y-10055196D01*
X15784717Y-10062199D01*
X15886226Y-10111818D01*
X15897070Y-10115169D01*
X15961805Y-10124613D01*
X15962814Y-10124686D01*
X15971948Y-10121362D01*
X15975000Y-10116075D01*
X15975000Y-9763048D01*
X15971362Y-9753052D01*
X15966075Y-9750000D01*
X15638048Y-9750000D01*
X15628052Y-9753638D01*
X15625000Y-9758925D01*
X15625000Y-9782843D01*
X10550000Y-9782843D01*
X10550000Y-9513048D01*
X10546362Y-9503052D01*
X10541075Y-9500000D01*
X9228048Y-9500000D01*
X9218052Y-9503638D01*
X9215000Y-9508925D01*
X9215000Y-10011951D01*
X8715000Y-10011951D01*
X8715000Y-9513048D01*
X8711362Y-9503052D01*
X8706075Y-9500000D01*
X7393049Y-9500000D01*
X7383053Y-9503638D01*
X7380001Y-9508925D01*
X7380001Y-9886133D01*
X6120000Y-9886133D01*
X6120000Y-9513048D01*
X6116362Y-9503052D01*
X6111075Y-9500000D01*
X4798048Y-9500000D01*
X4788052Y-9503638D01*
X4785000Y-9508925D01*
X4785000Y-10011951D01*
X4285000Y-10011951D01*
X4285000Y-9513048D01*
X4281362Y-9503052D01*
X4276075Y-9500000D01*
X2963049Y-9500000D01*
X2953053Y-9503638D01*
X2950001Y-9508925D01*
X2950001Y-9886133D01*
X2400500Y-9886133D01*
X2400500Y-9236952D01*
X15625000Y-9236952D01*
X15628638Y-9246948D01*
X15633925Y-9250000D01*
X15961952Y-9250000D01*
X15971948Y-9246362D01*
X15975000Y-9241075D01*
X15975000Y-9236952D01*
X16475000Y-9236952D01*
X16478638Y-9246948D01*
X16483925Y-9250000D01*
X16811952Y-9250000D01*
X16821948Y-9246362D01*
X16825000Y-9241075D01*
X16825000Y-9217157D01*
X16824607Y-9211788D01*
X16814987Y-9146436D01*
X16811618Y-9135592D01*
X16761824Y-9034174D01*
X16754801Y-9024366D01*
X16675101Y-8944804D01*
X16665283Y-8937801D01*
X16563774Y-8888182D01*
X16552930Y-8884831D01*
X16488195Y-8875387D01*
X16487186Y-8875314D01*
X16478052Y-8878638D01*
X16475000Y-8883925D01*
X16475000Y-9236952D01*
X15975000Y-9236952D01*
X15975000Y-8888048D01*
X15971362Y-8878052D01*
X15966197Y-8875070D01*
X15961788Y-8875393D01*
X15896436Y-8885013D01*
X15885592Y-8888382D01*
X15784174Y-8938176D01*
X15774366Y-8945199D01*
X15694804Y-9024899D01*
X15687801Y-9034717D01*
X15638182Y-9136226D01*
X15634831Y-9147070D01*
X15625387Y-9211805D01*
X15625000Y-9217139D01*
X15625000Y-9236952D01*
X2400500Y-9236952D01*
X2400500Y-8986952D01*
X2950000Y-8986952D01*
X2953638Y-8996948D01*
X2958925Y-9000000D01*
X4271952Y-9000000D01*
X4281948Y-8996362D01*
X4285000Y-8991075D01*
X4285000Y-8986952D01*
X4785000Y-8986952D01*
X4788638Y-8996948D01*
X4793925Y-9000000D01*
X6106951Y-9000000D01*
X6116947Y-8996362D01*
X6119999Y-8991075D01*
X6119999Y-8986952D01*
X7380000Y-8986952D01*
X7383638Y-8996948D01*
X7388925Y-9000000D01*
X8701952Y-9000000D01*
X8711948Y-8996362D01*
X8715000Y-8991075D01*
X8715000Y-8986952D01*
X9215000Y-8986952D01*
X9218638Y-8996948D01*
X9223925Y-9000000D01*
X10536951Y-9000000D01*
X10546947Y-8996362D01*
X10549999Y-8991075D01*
X10549999Y-8613867D01*
X10549288Y-8606653D01*
X10542719Y-8573622D01*
X10537248Y-8560413D01*
X10512193Y-8522916D01*
X10502084Y-8512807D01*
X10464585Y-8487751D01*
X10451380Y-8482281D01*
X10418345Y-8475710D01*
X10411135Y-8475000D01*
X9228048Y-8475000D01*
X9218052Y-8478638D01*
X9215000Y-8483925D01*
X9215000Y-8986952D01*
X8715000Y-8986952D01*
X8715000Y-8488049D01*
X8711362Y-8478053D01*
X8706075Y-8475001D01*
X7518867Y-8475001D01*
X7511653Y-8475712D01*
X7478622Y-8482281D01*
X7465413Y-8487752D01*
X7427916Y-8512807D01*
X7417807Y-8522916D01*
X7392751Y-8560415D01*
X7387281Y-8573620D01*
X7380710Y-8606655D01*
X7380000Y-8613865D01*
X7380000Y-8986952D01*
X6119999Y-8986952D01*
X6119999Y-8613867D01*
X6119288Y-8606653D01*
X6112719Y-8573622D01*
X6107248Y-8560413D01*
X6082193Y-8522916D01*
X6072084Y-8512807D01*
X6034585Y-8487751D01*
X6021380Y-8482281D01*
X5988345Y-8475710D01*
X5981135Y-8475000D01*
X4798048Y-8475000D01*
X4788052Y-8478638D01*
X4785000Y-8483925D01*
X4785000Y-8986952D01*
X4285000Y-8986952D01*
X4285000Y-8488049D01*
X4281362Y-8478053D01*
X4276075Y-8475001D01*
X3088867Y-8475001D01*
X3081653Y-8475712D01*
X3048622Y-8482281D01*
X3035413Y-8487752D01*
X2997916Y-8512807D01*
X2987807Y-8522916D01*
X2962751Y-8560415D01*
X2957281Y-8573620D01*
X2950710Y-8606655D01*
X2950000Y-8613865D01*
X2950000Y-8986952D01*
X2400500Y-8986952D01*
X2400500Y-7390560D01*
X2417813Y-7342994D01*
X2441887Y-7324134D01*
X2471610Y-7309541D01*
X2559927Y-7221069D01*
X2562613Y-7215574D01*
X2566164Y-7210596D01*
X2567542Y-7211579D01*
X2598357Y-7181871D01*
X2628397Y-7175500D01*
X2875500Y-7175500D01*
X2923066Y-7192813D01*
X2948376Y-7236650D01*
X2948896Y-7242590D01*
X2949144Y-7242566D01*
X2949500Y-7246180D01*
X2949500Y-7249820D01*
X2958233Y-7293722D01*
X2991496Y-7343504D01*
X3041278Y-7376767D01*
X3048424Y-7378188D01*
X3048425Y-7378189D01*
X3081610Y-7384790D01*
X3081611Y-7384790D01*
X3085180Y-7385500D01*
X4694820Y-7385500D01*
X4698389Y-7384790D01*
X4698390Y-7384790D01*
X4731575Y-7378189D01*
X4731576Y-7378188D01*
X4738722Y-7376767D01*
X4788504Y-7343504D01*
X4821767Y-7293722D01*
X4830500Y-7249820D01*
X4830500Y-7184500D01*
X4847813Y-7136934D01*
X4891650Y-7111624D01*
X4904500Y-7110500D01*
X7305500Y-7110500D01*
X7353066Y-7127813D01*
X7378376Y-7171650D01*
X7379500Y-7184500D01*
X7379500Y-7349820D01*
X7380210Y-7353389D01*
X7380210Y-7353390D01*
X7386571Y-7385365D01*
X7388233Y-7393722D01*
X7421496Y-7443504D01*
X7471278Y-7476767D01*
X7478424Y-7478188D01*
X7478425Y-7478189D01*
X7511610Y-7484790D01*
X7511611Y-7484790D01*
X7515180Y-7485500D01*
X10414820Y-7485500D01*
X10418389Y-7484790D01*
X10418390Y-7484790D01*
X10451575Y-7478189D01*
X10451576Y-7478188D01*
X10458722Y-7476767D01*
X10508504Y-7443504D01*
X10541767Y-7393722D01*
X10543430Y-7385365D01*
X10549790Y-7353390D01*
X10549790Y-7353389D01*
X10550500Y-7349820D01*
X10550500Y-6070180D01*
X10541767Y-6026278D01*
X10508504Y-5976496D01*
X10458722Y-5943233D01*
X10451576Y-5941812D01*
X10451575Y-5941811D01*
X10418390Y-5935210D01*
X10418389Y-5935210D01*
X10414820Y-5934500D01*
X7515180Y-5934500D01*
X7511611Y-5935210D01*
X7511610Y-5935210D01*
X7478425Y-5941811D01*
X7478424Y-5941812D01*
X7471278Y-5943233D01*
X7421496Y-5976496D01*
X7388233Y-6026278D01*
X7379500Y-6070180D01*
X7379500Y-6235500D01*
X7362187Y-6283066D01*
X7318350Y-6308376D01*
X7305500Y-6309500D01*
X4904500Y-6309500D01*
X4856934Y-6292187D01*
X4831624Y-6248350D01*
X4830500Y-6235500D01*
X4830500Y-6170180D01*
X4821767Y-6126278D01*
X4788504Y-6076496D01*
X4738722Y-6043233D01*
X4731576Y-6041812D01*
X4731575Y-6041811D01*
X4698390Y-6035210D01*
X4698389Y-6035210D01*
X4694820Y-6034500D01*
X3085180Y-6034500D01*
X3081611Y-6035210D01*
X3081610Y-6035210D01*
X3048425Y-6041811D01*
X3048424Y-6041812D01*
X3041278Y-6043233D01*
X2991496Y-6076496D01*
X2958233Y-6126278D01*
X2949500Y-6170180D01*
X2949500Y-6300500D01*
X2932187Y-6348066D01*
X2888350Y-6373376D01*
X2875500Y-6374500D01*
X2628286Y-6374500D01*
X2580720Y-6357187D01*
X2566157Y-6338597D01*
X2565798Y-6338854D01*
X2562235Y-6333878D01*
X2559541Y-6328390D01*
X2555214Y-6324071D01*
X2555213Y-6324069D01*
X2494085Y-6263049D01*
X2471069Y-6240073D01*
X2398966Y-6204828D01*
X2363919Y-6187696D01*
X2363917Y-6187695D01*
X2358759Y-6185174D01*
X2285590Y-6174500D01*
X1714410Y-6174500D01*
X1640604Y-6185365D01*
X1528390Y-6240459D01*
X1440073Y-6328931D01*
X1385174Y-6441241D01*
X1374500Y-6514410D01*
X1374500Y-7035590D01*
X1385365Y-7109396D01*
X1440459Y-7221610D01*
X1461452Y-7242566D01*
X1524207Y-7305211D01*
X1528931Y-7309927D01*
X1557999Y-7324136D01*
X1593129Y-7360578D01*
X1599500Y-7390617D01*
X1599500Y-15303456D01*
X1582187Y-15351022D01*
X1577826Y-15355782D01*
X-305484Y-17239091D01*
X-305487Y-17239095D01*
X-328050Y-17261658D01*
X-330694Y-17266846D01*
X-330694Y-17266847D01*
X-339894Y-17284902D01*
X-345961Y-17294802D01*
X-357872Y-17311196D01*
X-357874Y-17311201D01*
X-361296Y-17315910D01*
X-363095Y-17321448D01*
X-363096Y-17321449D01*
X-369358Y-17340722D01*
X-373802Y-17351450D01*
X-382896Y-17369299D01*
X-385646Y-17374696D01*
X-386557Y-17380449D01*
X-389727Y-17400463D01*
X-392438Y-17411754D01*
X-398700Y-17431026D01*
X-400500Y-17436567D01*
X-400500Y-19831845D01*
X-417813Y-19879411D01*
X-440904Y-19897779D01*
X-488342Y-19921950D01*
X-578050Y-20011658D01*
X-580694Y-20016848D01*
X-580696Y-20016850D01*
X-580847Y-20017147D01*
X-635646Y-20124696D01*
X-636557Y-20130448D01*
X-636558Y-20130451D01*
X-650045Y-20215608D01*
X-650500Y-20218481D01*
X-1349501Y-20218481D01*
X-1364354Y-20124696D01*
X-1419153Y-20017147D01*
X-1419304Y-20016850D01*
X-1419306Y-20016848D01*
X-1421950Y-20011658D01*
X-1511658Y-19921950D01*
X-1516848Y-19919306D01*
X-1516850Y-19919304D01*
X-1619502Y-19867000D01*
X-1619505Y-19866999D01*
X-1624696Y-19864354D01*
X-1630450Y-19863443D01*
X-1630452Y-19863442D01*
X-1649809Y-19860377D01*
X-1662076Y-19858434D01*
X-1706348Y-19833894D01*
X-1724500Y-19785345D01*
X-1724500Y-16268984D01*
X-1707187Y-16221418D01*
X-1695552Y-16210279D01*
X-1607379Y-16142621D01*
X-1519139Y-16027625D01*
X-1463670Y-15893709D01*
X-1444750Y-15750000D01*
X-1463670Y-15606291D01*
X-1519139Y-15472375D01*
X-1607379Y-15357379D01*
X-1695550Y-15289723D01*
X-1722746Y-15247032D01*
X-1724500Y-15231016D01*
X-1724500Y-14784420D01*
X-1723078Y-14769983D01*
X-1720525Y-14757149D01*
X-1719103Y-14750000D01*
X-1725532Y-14717679D01*
X-1737396Y-14658033D01*
X-1737397Y-14658032D01*
X-1740485Y-14642506D01*
X-1740485Y-14642505D01*
X-1801376Y-14551376D01*
X-1818318Y-14540056D01*
X-1829529Y-14530855D01*
X-6576581Y-9783803D01*
X-3124930Y-9783803D01*
X-3124607Y-9788212D01*
X-3114987Y-9853564D01*
X-3111618Y-9864408D01*
X-3061824Y-9965826D01*
X-3054801Y-9975634D01*
X-2975101Y-10055196D01*
X-2965283Y-10062199D01*
X-2863774Y-10111818D01*
X-2852930Y-10115169D01*
X-2788195Y-10124613D01*
X-2782861Y-10125000D01*
X-2763048Y-10125000D01*
X-2753052Y-10121362D01*
X-2750000Y-10116075D01*
X-2750000Y-10111952D01*
X-2250000Y-10111952D01*
X-2246362Y-10121948D01*
X-2241075Y-10125000D01*
X-2217157Y-10125000D01*
X-2211788Y-10124607D01*
X-2146436Y-10114987D01*
X-2135592Y-10111618D01*
X-2034174Y-10061824D01*
X-2024366Y-10054801D01*
X-1944804Y-9975101D01*
X-1937801Y-9965283D01*
X-1888182Y-9863774D01*
X-1884831Y-9852930D01*
X-1875387Y-9788195D01*
X-1875314Y-9787186D01*
X-1878638Y-9778052D01*
X-1883925Y-9775000D01*
X-2236952Y-9775000D01*
X-2246948Y-9778638D01*
X-2250000Y-9783925D01*
X-2250000Y-10111952D01*
X-2750000Y-10111952D01*
X-2750000Y-9788048D01*
X-2753638Y-9778052D01*
X-2758925Y-9775000D01*
X-3111952Y-9775000D01*
X-3121948Y-9778638D01*
X-3124930Y-9783803D01*
X-6576581Y-9783803D01*
X-8360384Y-8000000D01*
X-7030897Y-8000000D01*
X-7025500Y-8027132D01*
X-7025500Y-8027133D01*
X-7009515Y-8107495D01*
X-6998926Y-8123342D01*
X-6966350Y-8172095D01*
X-6948624Y-8198624D01*
X-6931682Y-8209944D01*
X-6920471Y-8219145D01*
X-6212174Y-8927442D01*
X-6190782Y-8973318D01*
X-6190500Y-8979768D01*
X-6190500Y-9464820D01*
X-6181767Y-9508722D01*
X-6148504Y-9558504D01*
X-6098722Y-9591767D01*
X-6091576Y-9593188D01*
X-6091575Y-9593189D01*
X-6058390Y-9599790D01*
X-6058389Y-9599790D01*
X-6054820Y-9600500D01*
X-4275180Y-9600500D01*
X-4271611Y-9599790D01*
X-4271610Y-9599790D01*
X-4238425Y-9593189D01*
X-4238424Y-9593188D01*
X-4231278Y-9591767D01*
X-4181496Y-9558504D01*
X-4148233Y-9508722D01*
X-4139500Y-9464820D01*
X-4139500Y-9262814D01*
X-3124686Y-9262814D01*
X-3121362Y-9271948D01*
X-3116075Y-9275000D01*
X-2763048Y-9275000D01*
X-2753052Y-9271362D01*
X-2750000Y-9266075D01*
X-2750000Y-9261952D01*
X-2250000Y-9261952D01*
X-2246362Y-9271948D01*
X-2241075Y-9275000D01*
X-1888048Y-9275000D01*
X-1878052Y-9271362D01*
X-1875070Y-9266197D01*
X-1875393Y-9261788D01*
X-1885013Y-9196436D01*
X-1888382Y-9185592D01*
X-1938176Y-9084174D01*
X-1945199Y-9074366D01*
X-2024899Y-8994804D01*
X-2034717Y-8987801D01*
X-2136226Y-8938182D01*
X-2147070Y-8934831D01*
X-2211805Y-8925387D01*
X-2217139Y-8925000D01*
X-2236952Y-8925000D01*
X-2246948Y-8928638D01*
X-2250000Y-8933925D01*
X-2250000Y-9261952D01*
X-2750000Y-9261952D01*
X-2750000Y-8938048D01*
X-2753638Y-8928052D01*
X-2758925Y-8925000D01*
X-2782843Y-8925000D01*
X-2788212Y-8925393D01*
X-2853564Y-8935013D01*
X-2864408Y-8938382D01*
X-2965826Y-8988176D01*
X-2975634Y-8995199D01*
X-3055196Y-9074899D01*
X-3062199Y-9084717D01*
X-3111818Y-9186226D01*
X-3115169Y-9197070D01*
X-3124613Y-9261805D01*
X-3124686Y-9262814D01*
X-4139500Y-9262814D01*
X-4139500Y-8845180D01*
X-4148233Y-8801278D01*
X-4181496Y-8751496D01*
X-4231278Y-8718233D01*
X-4238424Y-8716812D01*
X-4238425Y-8716811D01*
X-4271610Y-8710210D01*
X-4271611Y-8710210D01*
X-4275180Y-8709500D01*
X-5620232Y-8709500D01*
X-5667798Y-8692187D01*
X-5672558Y-8687826D01*
X-5903558Y-8456826D01*
X-5924950Y-8410950D01*
X-5911849Y-8362055D01*
X-5870385Y-8333021D01*
X-5851232Y-8330500D01*
X-4275180Y-8330500D01*
X-4271611Y-8329790D01*
X-4271610Y-8329790D01*
X-4238425Y-8323189D01*
X-4238424Y-8323188D01*
X-4231278Y-8321767D01*
X-4225221Y-8317720D01*
X-4225219Y-8317719D01*
X-4195664Y-8297971D01*
X-4154552Y-8285500D01*
X-4042472Y-8285500D01*
X-3997425Y-8300791D01*
X-3912625Y-8365861D01*
X-3778709Y-8421330D01*
X-3635000Y-8440250D01*
X-3630192Y-8439617D01*
X-3496099Y-8421963D01*
X-3491291Y-8421330D01*
X-3357375Y-8365861D01*
X-3272575Y-8300791D01*
X-3227528Y-8285500D01*
X-3172473Y-8285500D01*
X-3124907Y-8302813D01*
X-3106048Y-8326886D01*
X-3059541Y-8421610D01*
X-2971069Y-8509927D01*
X-2903023Y-8543189D01*
X-2863919Y-8562304D01*
X-2863917Y-8562305D01*
X-2858759Y-8564826D01*
X-2853076Y-8565655D01*
X-2798463Y-8573622D01*
X-2785590Y-8575500D01*
X-2214410Y-8575500D01*
X-2140604Y-8564635D01*
X-2028390Y-8509541D01*
X-1940073Y-8421069D01*
X-1894035Y-8326887D01*
X-1887696Y-8313919D01*
X-1887695Y-8313917D01*
X-1885174Y-8308759D01*
X-1874500Y-8235590D01*
X-1874500Y-7714410D01*
X-1885365Y-7640604D01*
X-1940459Y-7528390D01*
X-2028931Y-7440073D01*
X-2106242Y-7402282D01*
X-2136081Y-7387696D01*
X-2136083Y-7387695D01*
X-2141241Y-7385174D01*
X-2198870Y-7376767D01*
X-2211757Y-7374887D01*
X-2214410Y-7374500D01*
X-2785590Y-7374500D01*
X-2859396Y-7385365D01*
X-2971610Y-7440459D01*
X-2979370Y-7448233D01*
X-2993892Y-7462780D01*
X-3039750Y-7484213D01*
X-3046264Y-7484500D01*
X-3227528Y-7484500D01*
X-3272575Y-7469209D01*
X-3357375Y-7404139D01*
X-3491291Y-7348670D01*
X-3635000Y-7329750D01*
X-3778709Y-7348670D01*
X-3912625Y-7404139D01*
X-3997425Y-7469209D01*
X-4042472Y-7484500D01*
X-4154552Y-7484500D01*
X-4195664Y-7472029D01*
X-4225219Y-7452281D01*
X-4225221Y-7452280D01*
X-4231278Y-7448233D01*
X-4238424Y-7446812D01*
X-4238425Y-7446811D01*
X-4271610Y-7440210D01*
X-4271611Y-7440210D01*
X-4275180Y-7439500D01*
X-6054820Y-7439500D01*
X-6058389Y-7440210D01*
X-6058390Y-7440210D01*
X-6091575Y-7446811D01*
X-6091576Y-7446812D01*
X-6098722Y-7448233D01*
X-6148504Y-7481496D01*
X-6181767Y-7531278D01*
X-6183188Y-7538424D01*
X-6190500Y-7575180D01*
X-6190500Y-7991232D01*
X-6207813Y-8038798D01*
X-6251650Y-8064108D01*
X-6301500Y-8055318D01*
X-6316826Y-8043558D01*
X-6452826Y-7907558D01*
X-6474218Y-7861682D01*
X-6474500Y-7855232D01*
X-6474500Y-6921133D01*
X-6189999Y-6921133D01*
X-6189288Y-6928347D01*
X-6182719Y-6961378D01*
X-6177248Y-6974587D01*
X-6152193Y-7012084D01*
X-6142084Y-7022193D01*
X-6104585Y-7047249D01*
X-6091380Y-7052719D01*
X-6058345Y-7059290D01*
X-6051135Y-7060000D01*
X-5428048Y-7060000D01*
X-5418052Y-7056362D01*
X-5415000Y-7051075D01*
X-5415000Y-7046951D01*
X-4915000Y-7046951D01*
X-4911362Y-7056947D01*
X-4906075Y-7059999D01*
X-4278867Y-7059999D01*
X-4271653Y-7059288D01*
X-4238622Y-7052719D01*
X-4225413Y-7047248D01*
X-4187916Y-7022193D01*
X-4177807Y-7012084D01*
X-4152751Y-6974585D01*
X-4147281Y-6961380D01*
X-4140710Y-6928345D01*
X-4140000Y-6921135D01*
X-4140000Y-6878048D01*
X-4143638Y-6868052D01*
X-4148925Y-6865000D01*
X-4901952Y-6865000D01*
X-4911948Y-6868638D01*
X-4915000Y-6873925D01*
X-4915000Y-7046951D01*
X-5415000Y-7046951D01*
X-5415000Y-6878048D01*
X-5418638Y-6868052D01*
X-5423925Y-6865000D01*
X-6176951Y-6865000D01*
X-6186947Y-6868638D01*
X-6189999Y-6873925D01*
X-6189999Y-6921133D01*
X-6474500Y-6921133D01*
X-6474500Y-6351952D01*
X-6190000Y-6351952D01*
X-6186362Y-6361948D01*
X-6181075Y-6365000D01*
X-5428048Y-6365000D01*
X-5418052Y-6361362D01*
X-5415000Y-6356075D01*
X-5415000Y-6351952D01*
X-4915000Y-6351952D01*
X-4911362Y-6361948D01*
X-4906075Y-6365000D01*
X-4153049Y-6365000D01*
X-4143053Y-6361362D01*
X-4140001Y-6356075D01*
X-4140001Y-6308867D01*
X-4140712Y-6301653D01*
X-4147281Y-6268622D01*
X-4152752Y-6255413D01*
X-4177807Y-6217916D01*
X-4187916Y-6207807D01*
X-4225415Y-6182751D01*
X-4238620Y-6177281D01*
X-4271655Y-6170710D01*
X-4278865Y-6170000D01*
X-4901952Y-6170000D01*
X-4911948Y-6173638D01*
X-4915000Y-6178925D01*
X-4915000Y-6351952D01*
X-5415000Y-6351952D01*
X-5415000Y-6183049D01*
X-5418638Y-6173053D01*
X-5423925Y-6170001D01*
X-6051133Y-6170001D01*
X-6058347Y-6170712D01*
X-6091378Y-6177281D01*
X-6104587Y-6182752D01*
X-6142084Y-6207807D01*
X-6152193Y-6217916D01*
X-6177249Y-6255415D01*
X-6182719Y-6268620D01*
X-6189290Y-6301655D01*
X-6190000Y-6308865D01*
X-6190000Y-6351952D01*
X-6474500Y-6351952D01*
X-6474500Y-2472999D01*
X-6457187Y-2425433D01*
X-6413350Y-2400123D01*
X-6363500Y-2408913D01*
X-6341794Y-2427948D01*
X-6290677Y-2494565D01*
X-6175681Y-2582805D01*
X-6078034Y-2623251D01*
X-6056250Y-2632274D01*
X-6041765Y-2638274D01*
X-5898056Y-2657194D01*
X-5893248Y-2656561D01*
X-5787872Y-2642688D01*
X-5738453Y-2653644D01*
X-5725887Y-2663729D01*
X-5462174Y-2927442D01*
X-5440782Y-2973318D01*
X-5440500Y-2979768D01*
X-5440500Y-4825500D01*
X-5457813Y-4873066D01*
X-5501650Y-4898376D01*
X-5514500Y-4899500D01*
X-6054820Y-4899500D01*
X-6058389Y-4900210D01*
X-6058390Y-4900210D01*
X-6091575Y-4906811D01*
X-6091576Y-4906812D01*
X-6098722Y-4908233D01*
X-6148504Y-4941496D01*
X-6181767Y-4991278D01*
X-6183188Y-4998424D01*
X-6183189Y-4998425D01*
X-6183228Y-4998622D01*
X-6190500Y-5035180D01*
X-6190500Y-5654820D01*
X-6189790Y-5658389D01*
X-6189790Y-5658390D01*
X-6183227Y-5691380D01*
X-6181767Y-5698722D01*
X-6148504Y-5748504D01*
X-6098722Y-5781767D01*
X-6091576Y-5783188D01*
X-6091575Y-5783189D01*
X-6058390Y-5789790D01*
X-6058389Y-5789790D01*
X-6054820Y-5790500D01*
X-4275180Y-5790500D01*
X-4271611Y-5789790D01*
X-4271610Y-5789790D01*
X-4238425Y-5783189D01*
X-4238424Y-5783188D01*
X-4231278Y-5781767D01*
X-4181496Y-5748504D01*
X-4148233Y-5698722D01*
X-4146772Y-5691380D01*
X-4140210Y-5658390D01*
X-4140210Y-5658389D01*
X-4139500Y-5654820D01*
X-4139500Y-5483803D01*
X1375070Y-5483803D01*
X1375393Y-5488212D01*
X1385013Y-5553564D01*
X1388382Y-5564408D01*
X1438176Y-5665826D01*
X1445199Y-5675634D01*
X1524899Y-5755196D01*
X1534717Y-5762199D01*
X1636226Y-5811818D01*
X1647070Y-5815169D01*
X1711805Y-5824613D01*
X1717139Y-5825000D01*
X1736952Y-5825000D01*
X1746948Y-5821362D01*
X1750000Y-5816075D01*
X1750000Y-5811952D01*
X2250000Y-5811952D01*
X2253638Y-5821948D01*
X2258925Y-5825000D01*
X2282843Y-5825000D01*
X2288212Y-5824607D01*
X2353564Y-5814987D01*
X2364408Y-5811618D01*
X2465826Y-5761824D01*
X2475634Y-5754801D01*
X2555196Y-5675101D01*
X2562199Y-5665283D01*
X2611818Y-5563774D01*
X2615169Y-5552930D01*
X2624613Y-5488195D01*
X2624686Y-5487186D01*
X2621362Y-5478052D01*
X2616075Y-5475000D01*
X2263048Y-5475000D01*
X2253052Y-5478638D01*
X2250000Y-5483925D01*
X2250000Y-5811952D01*
X1750000Y-5811952D01*
X1750000Y-5488048D01*
X1746362Y-5478052D01*
X1741075Y-5475000D01*
X1388048Y-5475000D01*
X1378052Y-5478638D01*
X1375070Y-5483803D01*
X-4139500Y-5483803D01*
X-4139500Y-5035180D01*
X-4146772Y-4998622D01*
X-4146811Y-4998425D01*
X-4146812Y-4998424D01*
X-4148233Y-4991278D01*
X-4167252Y-4962814D01*
X1375314Y-4962814D01*
X1378638Y-4971948D01*
X1383925Y-4975000D01*
X1736952Y-4975000D01*
X1746948Y-4971362D01*
X1750000Y-4966075D01*
X1750000Y-4961952D01*
X2250000Y-4961952D01*
X2253638Y-4971948D01*
X2258925Y-4975000D01*
X2611952Y-4975000D01*
X2621948Y-4971362D01*
X2624930Y-4966197D01*
X2624607Y-4961788D01*
X2614987Y-4896436D01*
X2611618Y-4885592D01*
X2561824Y-4784174D01*
X2554801Y-4774366D01*
X2475101Y-4694804D01*
X2465283Y-4687801D01*
X2363774Y-4638182D01*
X2352930Y-4634831D01*
X2288195Y-4625387D01*
X2282861Y-4625000D01*
X2263048Y-4625000D01*
X2253052Y-4628638D01*
X2250000Y-4633925D01*
X2250000Y-4961952D01*
X1750000Y-4961952D01*
X1750000Y-4638048D01*
X1746362Y-4628052D01*
X1741075Y-4625000D01*
X1717157Y-4625000D01*
X1711788Y-4625393D01*
X1646436Y-4635013D01*
X1635592Y-4638382D01*
X1534174Y-4688176D01*
X1524366Y-4695199D01*
X1444804Y-4774899D01*
X1437801Y-4784717D01*
X1388182Y-4886226D01*
X1384831Y-4897070D01*
X1375387Y-4961805D01*
X1375314Y-4962814D01*
X-4167252Y-4962814D01*
X-4181496Y-4941496D01*
X-4231278Y-4908233D01*
X-4238424Y-4906812D01*
X-4238425Y-4906811D01*
X-4271610Y-4900210D01*
X-4271611Y-4900210D01*
X-4275180Y-4899500D01*
X-4815500Y-4899500D01*
X-4863066Y-4882187D01*
X-4888376Y-4838350D01*
X-4889500Y-4825500D01*
X-4889500Y-2869420D01*
X-4888078Y-2854984D01*
X-4885525Y-2842149D01*
X-4884103Y-2835000D01*
X-4889500Y-2807867D01*
X-4905485Y-2727505D01*
X-4937472Y-2679633D01*
X-4951006Y-2659378D01*
X-4951007Y-2659377D01*
X-4966376Y-2636376D01*
X-4983318Y-2625056D01*
X-4994529Y-2615855D01*
X-5076581Y-2533803D01*
X-1524930Y-2533803D01*
X-1524607Y-2538212D01*
X-1514987Y-2603564D01*
X-1511618Y-2614408D01*
X-1461824Y-2715826D01*
X-1454801Y-2725634D01*
X-1375101Y-2805196D01*
X-1365283Y-2812199D01*
X-1263774Y-2861818D01*
X-1252930Y-2865169D01*
X-1188195Y-2874613D01*
X-1182861Y-2875000D01*
X-1163048Y-2875000D01*
X-1153052Y-2871362D01*
X-1150000Y-2866075D01*
X-1150000Y-2861952D01*
X-650000Y-2861952D01*
X-646362Y-2871948D01*
X-641075Y-2875000D01*
X-617157Y-2875000D01*
X-611788Y-2874607D01*
X-546436Y-2864987D01*
X-535592Y-2861618D01*
X-434174Y-2811824D01*
X-424366Y-2804801D01*
X-344804Y-2725101D01*
X-337801Y-2715283D01*
X-288182Y-2613774D01*
X-284831Y-2602930D01*
X-278308Y-2558218D01*
X224500Y-2558218D01*
X224895Y-2560901D01*
X233804Y-2621423D01*
X233805Y-2621426D01*
X234642Y-2627112D01*
X237175Y-2632272D01*
X237176Y-2632274D01*
X249411Y-2657194D01*
X286068Y-2731855D01*
X290397Y-2736176D01*
X290398Y-2736178D01*
X364276Y-2809927D01*
X368650Y-2814293D01*
X375921Y-2817847D01*
X377150Y-2819122D01*
X379123Y-2820529D01*
X378861Y-2820897D01*
X411052Y-2854288D01*
X414540Y-2904787D01*
X402132Y-2929378D01*
X390516Y-2944516D01*
X369139Y-2972375D01*
X367284Y-2976854D01*
X367282Y-2976857D01*
X322741Y-3084391D01*
X313670Y-3106291D01*
X294750Y-3250000D01*
X313670Y-3393709D01*
X369139Y-3527625D01*
X457379Y-3642621D01*
X572375Y-3730861D01*
X706291Y-3786330D01*
X850000Y-3805250D01*
X854808Y-3804617D01*
X988901Y-3786963D01*
X993709Y-3786330D01*
X1127625Y-3730861D01*
X1242621Y-3642621D01*
X1330861Y-3527625D01*
X1386330Y-3393709D01*
X1405250Y-3250000D01*
X1386330Y-3106291D01*
X1377259Y-3084391D01*
X1332718Y-2976857D01*
X1332716Y-2976854D01*
X1330861Y-2972375D01*
X1297814Y-2929308D01*
X1282592Y-2881032D01*
X1301963Y-2834266D01*
X1323910Y-2817833D01*
X1331855Y-2813932D01*
X1336176Y-2809603D01*
X1336178Y-2809602D01*
X1409972Y-2735679D01*
X1409973Y-2735677D01*
X1414293Y-2731350D01*
X1460697Y-2636418D01*
X1463012Y-2631682D01*
X1463012Y-2631681D01*
X1465536Y-2626518D01*
X1475500Y-2558218D01*
X1475500Y-2535590D01*
X9874500Y-2535590D01*
X9885365Y-2609396D01*
X9940459Y-2721610D01*
X9950216Y-2731350D01*
X10024192Y-2805196D01*
X10028931Y-2809927D01*
X10034428Y-2812614D01*
X10039404Y-2816163D01*
X10038010Y-2818117D01*
X10066299Y-2847472D01*
X10069777Y-2897971D01*
X10057375Y-2922545D01*
X10019139Y-2972375D01*
X9963670Y-3106291D01*
X9944750Y-3250000D01*
X9963670Y-3393709D01*
X10019139Y-3527625D01*
X10107379Y-3642621D01*
X10222375Y-3730861D01*
X10356291Y-3786330D01*
X10500000Y-3805250D01*
X10504808Y-3804617D01*
X10638904Y-3786963D01*
X10638907Y-3786962D01*
X10643709Y-3786330D01*
X10648190Y-3784474D01*
X10651931Y-3782925D01*
X10702502Y-3780719D01*
X10732574Y-3798967D01*
X12777826Y-5844218D01*
X12799218Y-5890094D01*
X12799500Y-5896544D01*
X12799500Y-6175500D01*
X12782187Y-6223066D01*
X12738350Y-6248376D01*
X12725500Y-6249500D01*
X12435180Y-6249500D01*
X12431611Y-6250210D01*
X12431610Y-6250210D01*
X12398425Y-6256811D01*
X12398424Y-6256812D01*
X12391278Y-6258233D01*
X12341496Y-6291496D01*
X12308233Y-6341278D01*
X12306812Y-6348424D01*
X12306811Y-6348425D01*
X12305068Y-6357187D01*
X12299500Y-6385180D01*
X12299500Y-8414820D01*
X12300210Y-8418389D01*
X12300210Y-8418390D01*
X12306773Y-8451380D01*
X12308233Y-8458722D01*
X12341496Y-8508504D01*
X12391278Y-8541767D01*
X12398424Y-8543188D01*
X12398425Y-8543189D01*
X12431610Y-8549790D01*
X12431611Y-8549790D01*
X12435180Y-8550500D01*
X13964820Y-8550500D01*
X13968389Y-8549790D01*
X13968390Y-8549790D01*
X14001575Y-8543189D01*
X14001576Y-8543188D01*
X14008722Y-8541767D01*
X14058504Y-8508504D01*
X14091767Y-8458722D01*
X14093228Y-8451380D01*
X14099790Y-8418390D01*
X14099790Y-8418389D01*
X14100500Y-8414820D01*
X14100500Y-8411133D01*
X14600001Y-8411133D01*
X14600712Y-8418347D01*
X14607281Y-8451378D01*
X14612752Y-8464587D01*
X14637807Y-8502084D01*
X14647916Y-8512193D01*
X14685415Y-8537249D01*
X14698620Y-8542719D01*
X14731655Y-8549290D01*
X14738865Y-8550000D01*
X15236952Y-8550000D01*
X15246948Y-8546362D01*
X15250000Y-8541075D01*
X15250000Y-8536951D01*
X15750000Y-8536951D01*
X15753638Y-8546947D01*
X15758925Y-8549999D01*
X16261133Y-8549999D01*
X16268347Y-8549288D01*
X16301378Y-8542719D01*
X16314587Y-8537248D01*
X16352084Y-8512193D01*
X16362193Y-8502084D01*
X16387249Y-8464585D01*
X16392719Y-8451380D01*
X16399290Y-8418345D01*
X16400000Y-8411135D01*
X16400000Y-7663048D01*
X16396362Y-7653052D01*
X16391075Y-7650000D01*
X15763048Y-7650000D01*
X15753052Y-7653638D01*
X15750000Y-7658925D01*
X15750000Y-8536951D01*
X15250000Y-8536951D01*
X15250000Y-7663048D01*
X15246362Y-7653052D01*
X15241075Y-7650000D01*
X14613049Y-7650000D01*
X14603053Y-7653638D01*
X14600001Y-7658925D01*
X14600001Y-8411133D01*
X14100500Y-8411133D01*
X14100500Y-7136952D01*
X14600000Y-7136952D01*
X14603638Y-7146948D01*
X14608925Y-7150000D01*
X15236952Y-7150000D01*
X15246948Y-7146362D01*
X15250000Y-7141075D01*
X15250000Y-7136952D01*
X15750000Y-7136952D01*
X15753638Y-7146948D01*
X15758925Y-7150000D01*
X16386951Y-7150000D01*
X16396947Y-7146362D01*
X16399999Y-7141075D01*
X16399999Y-6388867D01*
X16399288Y-6381653D01*
X16392719Y-6348622D01*
X16387248Y-6335413D01*
X16362193Y-6297916D01*
X16352084Y-6287807D01*
X16314585Y-6262751D01*
X16301380Y-6257281D01*
X16268345Y-6250710D01*
X16261135Y-6250000D01*
X15763048Y-6250000D01*
X15753052Y-6253638D01*
X15750000Y-6258925D01*
X15750000Y-7136952D01*
X15250000Y-7136952D01*
X15250000Y-6263049D01*
X15246362Y-6253053D01*
X15241075Y-6250001D01*
X14738867Y-6250001D01*
X14731653Y-6250712D01*
X14698622Y-6257281D01*
X14685413Y-6262752D01*
X14647916Y-6287807D01*
X14637807Y-6297916D01*
X14612751Y-6335415D01*
X14607281Y-6348620D01*
X14600710Y-6381655D01*
X14600000Y-6388865D01*
X14600000Y-7136952D01*
X14100500Y-7136952D01*
X14100500Y-6385180D01*
X14094932Y-6357187D01*
X14093189Y-6348425D01*
X14093188Y-6348424D01*
X14091767Y-6341278D01*
X14058504Y-6291496D01*
X14008722Y-6258233D01*
X14001576Y-6256812D01*
X14001575Y-6256811D01*
X13968390Y-6250210D01*
X13968389Y-6250210D01*
X13964820Y-6249500D01*
X13674500Y-6249500D01*
X13626934Y-6232187D01*
X13601624Y-6188350D01*
X13600500Y-6175500D01*
X13600500Y-5668481D01*
X13600499Y-5668475D01*
X13600499Y-5636567D01*
X13592438Y-5611757D01*
X13589728Y-5600470D01*
X13586557Y-5580449D01*
X13585646Y-5574696D01*
X13574556Y-5552930D01*
X13573801Y-5551448D01*
X13569357Y-5540720D01*
X13563095Y-5521447D01*
X13561296Y-5515910D01*
X13545961Y-5494803D01*
X13539895Y-5484905D01*
X13539396Y-5483925D01*
X13528050Y-5461658D01*
X13438342Y-5371950D01*
X11010909Y-2944516D01*
X11010905Y-2944513D01*
X10988342Y-2921950D01*
X10983153Y-2919306D01*
X10982985Y-2919184D01*
X10954680Y-2877218D01*
X10959972Y-2826877D01*
X10974110Y-2807037D01*
X11044844Y-2736178D01*
X11059927Y-2721069D01*
X11103306Y-2632327D01*
X11112304Y-2613919D01*
X11112305Y-2613917D01*
X11114826Y-2608759D01*
X11122595Y-2555506D01*
X11125113Y-2538243D01*
X11125500Y-2535590D01*
X11125500Y-2111133D01*
X13450001Y-2111133D01*
X13450712Y-2118347D01*
X13457281Y-2151378D01*
X13462752Y-2164587D01*
X13487807Y-2202084D01*
X13497916Y-2212193D01*
X13535415Y-2237249D01*
X13548620Y-2242719D01*
X13581655Y-2249290D01*
X13588865Y-2250000D01*
X15236952Y-2250000D01*
X15246948Y-2246362D01*
X15250000Y-2241075D01*
X15250000Y-2236951D01*
X15750000Y-2236951D01*
X15753638Y-2246947D01*
X15758925Y-2249999D01*
X17411133Y-2249999D01*
X17418347Y-2249288D01*
X17451378Y-2242719D01*
X17464587Y-2237248D01*
X17502084Y-2212193D01*
X17512193Y-2202084D01*
X17537249Y-2164585D01*
X17542719Y-2151380D01*
X17549290Y-2118345D01*
X17550000Y-2111135D01*
X17550000Y-1363048D01*
X17546362Y-1353052D01*
X17541075Y-1350000D01*
X15763048Y-1350000D01*
X15753052Y-1353638D01*
X15750000Y-1358925D01*
X15750000Y-2236951D01*
X15250000Y-2236951D01*
X15250000Y-1363048D01*
X15246362Y-1353052D01*
X15241075Y-1350000D01*
X13463049Y-1350000D01*
X13453053Y-1353638D01*
X13450001Y-1358925D01*
X13450001Y-2111133D01*
X11125500Y-2111133D01*
X11125500Y-2014410D01*
X11114635Y-1940604D01*
X11059541Y-1828390D01*
X10971069Y-1740073D01*
X10898966Y-1704828D01*
X10863919Y-1687696D01*
X10863917Y-1687695D01*
X10858759Y-1685174D01*
X10809939Y-1678052D01*
X10788243Y-1674887D01*
X10785590Y-1674500D01*
X10214410Y-1674500D01*
X10211741Y-1674893D01*
X10211740Y-1674893D01*
X10208344Y-1675393D01*
X10140604Y-1685365D01*
X10028390Y-1740459D01*
X9940073Y-1828931D01*
X9885174Y-1941241D01*
X9879044Y-1983263D01*
X9874890Y-2011740D01*
X9874500Y-2014410D01*
X9874500Y-2535590D01*
X1475500Y-2535590D01*
X1475500Y-2091782D01*
X1467744Y-2039093D01*
X1466196Y-2028577D01*
X1466195Y-2028574D01*
X1465358Y-2022888D01*
X1459909Y-2011788D01*
X1435976Y-1963043D01*
X1413932Y-1918145D01*
X1409603Y-1913824D01*
X1409602Y-1913822D01*
X1335679Y-1840028D01*
X1335677Y-1840027D01*
X1331350Y-1835707D01*
X1307539Y-1824068D01*
X1231682Y-1786988D01*
X1231681Y-1786988D01*
X1226518Y-1784464D01*
X1158218Y-1774500D01*
X541782Y-1774500D01*
X539099Y-1774895D01*
X478577Y-1783804D01*
X478574Y-1783805D01*
X472888Y-1784642D01*
X467728Y-1787175D01*
X467726Y-1787176D01*
X429804Y-1805795D01*
X368145Y-1836068D01*
X363824Y-1840397D01*
X363822Y-1840398D01*
X290028Y-1914321D01*
X285707Y-1918650D01*
X283020Y-1924147D01*
X237278Y-2017726D01*
X234464Y-2023482D01*
X224500Y-2091782D01*
X224500Y-2558218D01*
X-278308Y-2558218D01*
X-275387Y-2538195D01*
X-275314Y-2537186D01*
X-278638Y-2528052D01*
X-283925Y-2525000D01*
X-636952Y-2525000D01*
X-646948Y-2528638D01*
X-650000Y-2533925D01*
X-650000Y-2861952D01*
X-1150000Y-2861952D01*
X-1150000Y-2538048D01*
X-1153638Y-2528052D01*
X-1158925Y-2525000D01*
X-1511952Y-2525000D01*
X-1521948Y-2528638D01*
X-1524930Y-2533803D01*
X-5076581Y-2533803D01*
X-5336271Y-2274113D01*
X-5357663Y-2228237D01*
X-5357312Y-2212128D01*
X-5343439Y-2106752D01*
X-5342806Y-2101944D01*
X-5354540Y-2012814D01*
X-1524686Y-2012814D01*
X-1521362Y-2021948D01*
X-1516075Y-2025000D01*
X-1163048Y-2025000D01*
X-1153052Y-2021362D01*
X-1150000Y-2016075D01*
X-1150000Y-2011952D01*
X-650000Y-2011952D01*
X-646362Y-2021948D01*
X-641075Y-2025000D01*
X-288048Y-2025000D01*
X-278052Y-2021362D01*
X-275070Y-2016197D01*
X-275393Y-2011788D01*
X-285013Y-1946436D01*
X-288382Y-1935592D01*
X-338176Y-1834174D01*
X-345199Y-1824366D01*
X-424899Y-1744804D01*
X-434717Y-1737801D01*
X-536226Y-1688182D01*
X-547070Y-1684831D01*
X-611805Y-1675387D01*
X-617139Y-1675000D01*
X-636952Y-1675000D01*
X-646948Y-1678638D01*
X-650000Y-1683925D01*
X-650000Y-2011952D01*
X-1150000Y-2011952D01*
X-1150000Y-1688048D01*
X-1153638Y-1678052D01*
X-1158925Y-1675000D01*
X-1182843Y-1675000D01*
X-1188212Y-1675393D01*
X-1253564Y-1685013D01*
X-1264408Y-1688382D01*
X-1365826Y-1738176D01*
X-1375634Y-1745199D01*
X-1455196Y-1824899D01*
X-1462199Y-1834717D01*
X-1511818Y-1936226D01*
X-1515169Y-1947070D01*
X-1524613Y-2011805D01*
X-1524686Y-2012814D01*
X-5354540Y-2012814D01*
X-5361726Y-1958235D01*
X-5417195Y-1824319D01*
X-5505435Y-1709323D01*
X-5620431Y-1621083D01*
X-5754347Y-1565614D01*
X-5898056Y-1546694D01*
X-5980217Y-1557511D01*
X-6029636Y-1546555D01*
X-6060451Y-1506396D01*
X-6058243Y-1455826D01*
X-6042202Y-1431818D01*
X-5657558Y-1047174D01*
X-5611682Y-1025782D01*
X-5605232Y-1025500D01*
X-5018984Y-1025500D01*
X-4971418Y-1042813D01*
X-4960279Y-1054448D01*
X-4892621Y-1142621D01*
X-4777625Y-1230861D01*
X-4643709Y-1286330D01*
X-4500000Y-1305250D01*
X-4495192Y-1304617D01*
X-4361099Y-1286963D01*
X-4356291Y-1286330D01*
X-4222375Y-1230861D01*
X-4107379Y-1142621D01*
X-4019139Y-1027625D01*
X-3963670Y-893709D01*
X-3944750Y-750000D01*
X-3963670Y-606291D01*
X-4019139Y-472375D01*
X-4107379Y-357379D01*
X-4222375Y-269139D01*
X-4356291Y-213670D01*
X-4500000Y-194750D01*
X-4643709Y-213670D01*
X-4777625Y-269139D01*
X-4892621Y-357379D01*
X-4960277Y-445550D01*
X-5002968Y-472746D01*
X-5018984Y-474500D01*
X-5715579Y-474500D01*
X-5730015Y-473078D01*
X-5742851Y-470525D01*
X-5750000Y-469103D01*
X-5857494Y-490484D01*
X-5925622Y-536006D01*
X-5925623Y-536007D01*
X-5948624Y-551376D01*
X-5952673Y-557436D01*
X-5959942Y-568315D01*
X-5969145Y-579529D01*
X-6920471Y-1530855D01*
X-6931682Y-1540056D01*
X-6948624Y-1551376D01*
X-7009515Y-1642505D01*
X-7010936Y-1649650D01*
X-7010937Y-1649652D01*
X-7013296Y-1661513D01*
X-7028470Y-1737801D01*
X-7030897Y-1750000D01*
X-7029475Y-1757149D01*
X-7026922Y-1769983D01*
X-7025500Y-1784420D01*
X-7025500Y-7965580D01*
X-7026922Y-7980016D01*
X-7030897Y-8000000D01*
X-8360384Y-8000000D01*
X-8645855Y-7714529D01*
X-8655058Y-7703315D01*
X-8662327Y-7692436D01*
X-8666376Y-7686376D01*
X-8689377Y-7671007D01*
X-8689378Y-7671006D01*
X-8715535Y-7653529D01*
X-8720816Y-7650000D01*
X-8751442Y-7629536D01*
X-8751443Y-7629536D01*
X-8757505Y-7625485D01*
X-8802371Y-7616561D01*
X-8837865Y-7609500D01*
X-8837868Y-7609500D01*
X-8865000Y-7604103D01*
X-8872149Y-7605525D01*
X-8884983Y-7608078D01*
X-8899420Y-7609500D01*
X-9241943Y-7609500D01*
X-9289509Y-7592187D01*
X-9314521Y-7549939D01*
X-9318233Y-7531278D01*
X-9351496Y-7481496D01*
X-9401278Y-7448233D01*
X-9408424Y-7446812D01*
X-9408425Y-7446811D01*
X-9441610Y-7440210D01*
X-9441611Y-7440210D01*
X-9445180Y-7439500D01*
X-11224820Y-7439500D01*
X-11228389Y-7440210D01*
X-11228390Y-7440210D01*
X-11261575Y-7446811D01*
X-11261576Y-7446812D01*
X-11268722Y-7448233D01*
X-11318504Y-7481496D01*
X-11351767Y-7531278D01*
X-11353188Y-7538424D01*
X-11360500Y-7575180D01*
X-11360500Y-8194820D01*
X-22129247Y-8194820D01*
X-22161622Y-8111567D01*
X-22162642Y-8108778D01*
X-22469295Y-7215662D01*
X-22470203Y-7212834D01*
X-22556337Y-6924820D01*
X-11360500Y-6924820D01*
X-11359790Y-6928389D01*
X-11359790Y-6928390D01*
X-11353189Y-6961575D01*
X-11353188Y-6961576D01*
X-11351767Y-6968722D01*
X-11318504Y-7018504D01*
X-11268722Y-7051767D01*
X-11261576Y-7053188D01*
X-11261575Y-7053189D01*
X-11228390Y-7059790D01*
X-11228389Y-7059790D01*
X-11224820Y-7060500D01*
X-9445180Y-7060500D01*
X-9441611Y-7059790D01*
X-9441610Y-7059790D01*
X-9408425Y-7053189D01*
X-9408424Y-7053188D01*
X-9401278Y-7051767D01*
X-9351496Y-7018504D01*
X-9318233Y-6968722D01*
X-9314521Y-6950061D01*
X-9288260Y-6906787D01*
X-9241943Y-6890500D01*
X-8779768Y-6890500D01*
X-8732202Y-6907813D01*
X-8727442Y-6912174D01*
X-8436785Y-7202831D01*
X-8415393Y-7248707D01*
X-8415744Y-7264816D01*
X-8426700Y-7348037D01*
X-8430250Y-7375000D01*
X-8411330Y-7518709D01*
X-8409474Y-7523190D01*
X-8400590Y-7544639D01*
X-8355861Y-7652625D01*
X-8267621Y-7767621D01*
X-8152625Y-7855861D01*
X-8018709Y-7911330D01*
X-7875000Y-7930250D01*
X-7870192Y-7929617D01*
X-7736099Y-7911963D01*
X-7731291Y-7911330D01*
X-7597375Y-7855861D01*
X-7482379Y-7767621D01*
X-7394139Y-7652625D01*
X-7349410Y-7544639D01*
X-7340526Y-7523190D01*
X-7338670Y-7518709D01*
X-7319750Y-7375000D01*
X-7338670Y-7231291D01*
X-7394139Y-7097375D01*
X-7482379Y-6982379D01*
X-7597375Y-6894139D01*
X-7731291Y-6838670D01*
X-7875000Y-6819750D01*
X-7879808Y-6820383D01*
X-7985184Y-6834256D01*
X-8034603Y-6823300D01*
X-8047169Y-6813215D01*
X-8415855Y-6444529D01*
X-8425058Y-6433315D01*
X-8432327Y-6422436D01*
X-8436376Y-6416376D01*
X-8459377Y-6401007D01*
X-8459378Y-6401006D01*
X-8487898Y-6381950D01*
X-8527505Y-6355485D01*
X-8572371Y-6346561D01*
X-8607865Y-6339500D01*
X-8607868Y-6339500D01*
X-8635000Y-6334103D01*
X-8642149Y-6335525D01*
X-8654983Y-6338078D01*
X-8669420Y-6339500D01*
X-9241943Y-6339500D01*
X-9289509Y-6322187D01*
X-9314521Y-6279939D01*
X-9318233Y-6261278D01*
X-9351496Y-6211496D01*
X-9401278Y-6178233D01*
X-9408424Y-6176812D01*
X-9408425Y-6176811D01*
X-9441610Y-6170210D01*
X-9441611Y-6170210D01*
X-9445180Y-6169500D01*
X-11224820Y-6169500D01*
X-11228389Y-6170210D01*
X-11228390Y-6170210D01*
X-11261575Y-6176811D01*
X-11261576Y-6176812D01*
X-11268722Y-6178233D01*
X-11318504Y-6211496D01*
X-11351767Y-6261278D01*
X-11353188Y-6268424D01*
X-11353189Y-6268425D01*
X-11359055Y-6297916D01*
X-11360500Y-6305180D01*
X-11360500Y-6924820D01*
X-22556337Y-6924820D01*
X-22740771Y-6308116D01*
X-22741565Y-6305253D01*
X-22908906Y-5651133D01*
X-11359999Y-5651133D01*
X-11359288Y-5658347D01*
X-11352719Y-5691378D01*
X-11347248Y-5704587D01*
X-11322193Y-5742084D01*
X-11312084Y-5752193D01*
X-11274585Y-5777249D01*
X-11261380Y-5782719D01*
X-11228345Y-5789290D01*
X-11221135Y-5790000D01*
X-10598048Y-5790000D01*
X-10588052Y-5786362D01*
X-10585000Y-5781075D01*
X-10585000Y-5776951D01*
X-10085000Y-5776951D01*
X-10081362Y-5786947D01*
X-10076075Y-5789999D01*
X-9448867Y-5789999D01*
X-9441653Y-5789288D01*
X-9408622Y-5782719D01*
X-9395413Y-5777248D01*
X-9357916Y-5752193D01*
X-9347807Y-5742084D01*
X-9322751Y-5704585D01*
X-9317281Y-5691380D01*
X-9310710Y-5658345D01*
X-9310000Y-5651135D01*
X-9310000Y-5608048D01*
X-9313638Y-5598052D01*
X-9318925Y-5595000D01*
X-10071952Y-5595000D01*
X-10081948Y-5598638D01*
X-10085000Y-5603925D01*
X-10085000Y-5776951D01*
X-10585000Y-5776951D01*
X-10585000Y-5608048D01*
X-10588638Y-5598052D01*
X-10593925Y-5595000D01*
X-11346951Y-5595000D01*
X-11356947Y-5598638D01*
X-11359999Y-5603925D01*
X-11359999Y-5651133D01*
X-22908906Y-5651133D01*
X-22975607Y-5390403D01*
X-22976285Y-5387512D01*
X-23041513Y-5081952D01*
X-11360000Y-5081952D01*
X-11356362Y-5091948D01*
X-11351075Y-5095000D01*
X-10598048Y-5095000D01*
X-10588052Y-5091362D01*
X-10585000Y-5086075D01*
X-10585000Y-5081952D01*
X-10085000Y-5081952D01*
X-10081362Y-5091948D01*
X-10076075Y-5095000D01*
X-9323049Y-5095000D01*
X-9313053Y-5091362D01*
X-9310001Y-5086075D01*
X-9310001Y-5038867D01*
X-9310712Y-5031653D01*
X-9317281Y-4998622D01*
X-9322752Y-4985413D01*
X-9347807Y-4947916D01*
X-9357916Y-4937807D01*
X-9395415Y-4912751D01*
X-9408620Y-4907281D01*
X-9441655Y-4900710D01*
X-9448865Y-4900000D01*
X-10071952Y-4900000D01*
X-10081948Y-4903638D01*
X-10085000Y-4908925D01*
X-10085000Y-5081952D01*
X-10585000Y-5081952D01*
X-10585000Y-4913049D01*
X-10588638Y-4903053D01*
X-10593925Y-4900001D01*
X-11221133Y-4900001D01*
X-11228347Y-4900712D01*
X-11261378Y-4907281D01*
X-11274587Y-4912752D01*
X-11312084Y-4937807D01*
X-11322193Y-4947916D01*
X-11347249Y-4985415D01*
X-11352719Y-4998620D01*
X-11359290Y-5031655D01*
X-11360000Y-5038865D01*
X-11360000Y-5081952D01*
X-23041513Y-5081952D01*
X-23173423Y-4464017D01*
X-23173985Y-4461100D01*
X-23333905Y-3530419D01*
X-23334349Y-3527482D01*
X-23420099Y-2871727D01*
X-22605897Y-2871727D01*
X-22604475Y-2878876D01*
X-22600500Y-2898859D01*
X-22600500Y-2898860D01*
X-22586642Y-2968528D01*
X-22584515Y-2979222D01*
X-22576591Y-2991081D01*
X-22548164Y-3033624D01*
X-22523624Y-3070351D01*
X-22506682Y-3081671D01*
X-22495471Y-3090872D01*
X-21915872Y-3670471D01*
X-21906671Y-3681682D01*
X-21895351Y-3698624D01*
X-21872350Y-3713993D01*
X-21872349Y-3713994D01*
X-21804222Y-3759515D01*
X-21797077Y-3760936D01*
X-21797075Y-3760937D01*
X-21703876Y-3779475D01*
X-21696727Y-3780897D01*
X-21676743Y-3776922D01*
X-21662307Y-3775500D01*
X-20067693Y-3775500D01*
X-20053257Y-3776922D01*
X-20033273Y-3780897D01*
X-20006141Y-3775500D01*
X-20006138Y-3775500D01*
X-19970644Y-3768439D01*
X-19925778Y-3759515D01*
X-19882895Y-3730861D01*
X-19857651Y-3713994D01*
X-19857650Y-3713993D01*
X-19834649Y-3698624D01*
X-19823329Y-3681682D01*
X-19814128Y-3670471D01*
X-19234529Y-3090872D01*
X-19223318Y-3081671D01*
X-19206376Y-3070351D01*
X-19181835Y-3033624D01*
X-19145485Y-2979222D01*
X-19143357Y-2968528D01*
X-19125525Y-2878876D01*
X-19124103Y-2871727D01*
X-19128078Y-2851743D01*
X-19129500Y-2837307D01*
X-19129500Y-299768D01*
X-19112187Y-252202D01*
X-19107826Y-247442D01*
X-18857558Y2826D01*
X-18811682Y24218D01*
X-18805232Y24500D01*
X-1249500Y24500D01*
X-1201934Y7187D01*
X-1176624Y-36650D01*
X-1175500Y-49500D01*
X-1175500Y-59111D01*
X-1192813Y-106677D01*
X-1238724Y-132322D01*
X-1241723Y-132763D01*
X-1253707Y-134527D01*
X-1253710Y-134528D01*
X-1259396Y-135365D01*
X-1371610Y-190459D01*
X-1459927Y-278931D01*
X-1495172Y-351034D01*
X-1510400Y-382187D01*
X-1514826Y-391241D01*
X-1525500Y-464410D01*
X-1525500Y-985590D01*
X-1514635Y-1059396D01*
X-1459541Y-1171610D01*
X-1371069Y-1259927D01*
X-1317055Y-1286330D01*
X-1263919Y-1312304D01*
X-1263917Y-1312305D01*
X-1258759Y-1314826D01*
X-1253076Y-1315655D01*
X-1189017Y-1325000D01*
X-1185590Y-1325500D01*
X-614410Y-1325500D01*
X-608384Y-1324613D01*
X-605402Y-1324174D01*
X-540604Y-1314635D01*
X-428390Y-1259541D01*
X-340073Y-1171069D01*
X-285174Y-1058759D01*
X-278618Y-1013818D01*
X-254620Y-969249D01*
X-205393Y-950500D01*
X175470Y-950500D01*
X223036Y-967813D01*
X241896Y-991887D01*
X286068Y-1081855D01*
X290397Y-1086176D01*
X290398Y-1086178D01*
X364321Y-1159972D01*
X368650Y-1164293D01*
X374147Y-1166980D01*
X467934Y-1212824D01*
X473482Y-1215536D01*
X541782Y-1225500D01*
X1158218Y-1225500D01*
X1164363Y-1224595D01*
X1221423Y-1216196D01*
X1221426Y-1216195D01*
X1227112Y-1215358D01*
X1232272Y-1212825D01*
X1232274Y-1212824D01*
X1278117Y-1190316D01*
X1331855Y-1163932D01*
X1336176Y-1159603D01*
X1336178Y-1159602D01*
X1409972Y-1085679D01*
X1409973Y-1085677D01*
X1414293Y-1081350D01*
X1433130Y-1042813D01*
X1461975Y-983803D01*
X9875070Y-983803D01*
X9875393Y-988212D01*
X9885013Y-1053564D01*
X9888382Y-1064408D01*
X9938176Y-1165826D01*
X9945199Y-1175634D01*
X10024899Y-1255196D01*
X10034717Y-1262199D01*
X10136226Y-1311818D01*
X10147070Y-1315169D01*
X10211805Y-1324613D01*
X10217139Y-1325000D01*
X10236952Y-1325000D01*
X10246948Y-1321362D01*
X10250000Y-1316075D01*
X10250000Y-1311952D01*
X10750000Y-1311952D01*
X10753638Y-1321948D01*
X10758925Y-1325000D01*
X10782843Y-1325000D01*
X10788212Y-1324607D01*
X10853564Y-1314987D01*
X10864408Y-1311618D01*
X10965826Y-1261824D01*
X10975634Y-1254801D01*
X11055196Y-1175101D01*
X11062199Y-1165283D01*
X11111818Y-1063774D01*
X11115169Y-1052930D01*
X11124613Y-988195D01*
X11124686Y-987186D01*
X11121362Y-978052D01*
X11116075Y-975000D01*
X10763048Y-975000D01*
X10753052Y-978638D01*
X10750000Y-983925D01*
X10750000Y-1311952D01*
X10250000Y-1311952D01*
X10250000Y-988048D01*
X10246362Y-978052D01*
X10241075Y-975000D01*
X9888048Y-975000D01*
X9878052Y-978638D01*
X9875070Y-983803D01*
X1461975Y-983803D01*
X1463012Y-981682D01*
X1463012Y-981681D01*
X1465536Y-976518D01*
X1475500Y-908218D01*
X1475500Y-836952D01*
X13450000Y-836952D01*
X13453638Y-846948D01*
X13458925Y-850000D01*
X15236952Y-850000D01*
X15246948Y-846362D01*
X15250000Y-841075D01*
X15250000Y-836952D01*
X15750000Y-836952D01*
X15753638Y-846948D01*
X15758925Y-850000D01*
X17536951Y-850000D01*
X17546947Y-846362D01*
X17549999Y-841075D01*
X17549999Y-88867D01*
X17549288Y-81653D01*
X17542719Y-48622D01*
X17537248Y-35413D01*
X17512193Y2084D01*
X17502084Y12193D01*
X17464585Y37249D01*
X17451380Y42719D01*
X17418345Y49290D01*
X17411135Y50000D01*
X15763048Y50000D01*
X15753052Y46362D01*
X15750000Y41075D01*
X15750000Y-836952D01*
X15250000Y-836952D01*
X15250000Y36951D01*
X15246362Y46947D01*
X15241075Y49999D01*
X13588867Y49999D01*
X13581653Y49288D01*
X13548622Y42719D01*
X13535413Y37248D01*
X13497916Y12193D01*
X13487807Y2084D01*
X13462751Y-35415D01*
X13457281Y-48620D01*
X13450710Y-81655D01*
X13450000Y-88865D01*
X13450000Y-836952D01*
X1475500Y-836952D01*
X1475500Y-462814D01*
X9875314Y-462814D01*
X9878638Y-471948D01*
X9883925Y-475000D01*
X10236952Y-475000D01*
X10246948Y-471362D01*
X10250000Y-466075D01*
X10250000Y-461952D01*
X10750000Y-461952D01*
X10753638Y-471948D01*
X10758925Y-475000D01*
X11111952Y-475000D01*
X11121948Y-471362D01*
X11124930Y-466197D01*
X11124607Y-461788D01*
X11114987Y-396436D01*
X11111618Y-385592D01*
X11061824Y-284174D01*
X11054801Y-274366D01*
X10975101Y-194804D01*
X10965283Y-187801D01*
X10863774Y-138182D01*
X10852930Y-134831D01*
X10788195Y-125387D01*
X10782861Y-125000D01*
X10763048Y-125000D01*
X10753052Y-128638D01*
X10750000Y-133925D01*
X10750000Y-461952D01*
X10250000Y-461952D01*
X10250000Y-138048D01*
X10246362Y-128052D01*
X10241075Y-125000D01*
X10217157Y-125000D01*
X10211788Y-125393D01*
X10146436Y-135013D01*
X10135592Y-138382D01*
X10034174Y-188176D01*
X10024366Y-195199D01*
X9944804Y-274899D01*
X9937801Y-284717D01*
X9888182Y-386226D01*
X9884831Y-397070D01*
X9875387Y-461805D01*
X9875314Y-462814D01*
X1475500Y-462814D01*
X1475500Y-441782D01*
X1474287Y-433542D01*
X1466196Y-378577D01*
X1466195Y-378574D01*
X1465358Y-372888D01*
X1459635Y-361230D01*
X1421925Y-284425D01*
X1413932Y-268145D01*
X1409603Y-263824D01*
X1409602Y-263822D01*
X1335679Y-190028D01*
X1335677Y-190027D01*
X1331350Y-185707D01*
X1237093Y-139633D01*
X1231682Y-136988D01*
X1231681Y-136988D01*
X1226518Y-134464D01*
X1158218Y-124500D01*
X541782Y-124500D01*
X539099Y-124895D01*
X478577Y-133804D01*
X478574Y-133805D01*
X472888Y-134642D01*
X467728Y-137175D01*
X467726Y-137176D01*
X422058Y-159598D01*
X368145Y-186068D01*
X363824Y-190397D01*
X363822Y-190398D01*
X290028Y-264321D01*
X285707Y-268650D01*
X283020Y-274147D01*
X242033Y-357997D01*
X205591Y-393129D01*
X175551Y-399500D01*
X-234891Y-399500D01*
X-282457Y-382187D01*
X-301317Y-358113D01*
X-329963Y-299768D01*
X-340459Y-278390D01*
X-428931Y-190073D01*
X-523543Y-143825D01*
X-536081Y-137696D01*
X-536083Y-137695D01*
X-541241Y-135174D01*
X-561182Y-132265D01*
X-605751Y-108267D01*
X-624500Y-59040D01*
X-624500Y64681D01*
X-612029Y105793D01*
X-603656Y118323D01*
X-594458Y129530D01*
X714879Y1438867D01*
X7850001Y1438867D01*
X7850712Y1431653D01*
X7857281Y1398622D01*
X7862752Y1385413D01*
X7887807Y1347916D01*
X7897916Y1337807D01*
X7935415Y1312751D01*
X7948620Y1307281D01*
X7981655Y1300710D01*
X7988865Y1300000D01*
X8486952Y1300000D01*
X8496948Y1303638D01*
X8500000Y1308925D01*
X8500000Y1313049D01*
X9000000Y1313049D01*
X9003638Y1303053D01*
X9008925Y1300001D01*
X9511133Y1300001D01*
X9518347Y1300712D01*
X9551378Y1307281D01*
X9564587Y1312752D01*
X9602084Y1337807D01*
X9612193Y1347916D01*
X9637249Y1385415D01*
X9642719Y1398620D01*
X9649290Y1431655D01*
X9650000Y1438865D01*
X9650000Y1636952D01*
X9646362Y1646948D01*
X9641075Y1650000D01*
X9013048Y1650000D01*
X9003052Y1646362D01*
X9000000Y1641075D01*
X9000000Y1313049D01*
X8500000Y1313049D01*
X8500000Y1636952D01*
X8496362Y1646948D01*
X8491075Y1650000D01*
X7863049Y1650000D01*
X7853053Y1646362D01*
X7850001Y1641075D01*
X7850001Y1438867D01*
X714879Y1438867D01*
X1324590Y2048578D01*
X1370466Y2069970D01*
X1421962Y2054961D01*
X1484674Y2006840D01*
X1618590Y1951371D01*
X1762299Y1932451D01*
X1767107Y1933084D01*
X1901200Y1950738D01*
X1906008Y1951371D01*
X2039924Y2006840D01*
X2154920Y2095080D01*
X2207074Y2163048D01*
X7850000Y2163048D01*
X7853638Y2153052D01*
X7858925Y2150000D01*
X8486952Y2150000D01*
X8496948Y2153638D01*
X8500000Y2158925D01*
X8500000Y2163048D01*
X9000000Y2163048D01*
X9003638Y2153052D01*
X9008925Y2150000D01*
X9636951Y2150000D01*
X9646947Y2153638D01*
X9649999Y2158925D01*
X9649999Y2361133D01*
X9649288Y2368347D01*
X9642719Y2401378D01*
X9637248Y2414587D01*
X9612193Y2452084D01*
X9602084Y2462193D01*
X9564585Y2487249D01*
X9551380Y2492719D01*
X9518345Y2499290D01*
X9511135Y2500000D01*
X9013048Y2500000D01*
X9003052Y2496362D01*
X9000000Y2491075D01*
X9000000Y2163048D01*
X8500000Y2163048D01*
X8500000Y2486951D01*
X8496362Y2496947D01*
X8491075Y2499999D01*
X7988867Y2499999D01*
X7981653Y2499288D01*
X7948622Y2492719D01*
X7935413Y2487248D01*
X7897916Y2462193D01*
X7887807Y2452084D01*
X7862751Y2414585D01*
X7857281Y2401380D01*
X7850710Y2368345D01*
X7850000Y2361135D01*
X7850000Y2163048D01*
X2207074Y2163048D01*
X2243160Y2210076D01*
X2298629Y2343992D01*
X2317549Y2487701D01*
X2298629Y2631410D01*
X2243160Y2765326D01*
X2216937Y2799500D01*
X2174004Y2855452D01*
X2158782Y2903728D01*
X2178154Y2950494D01*
X2223053Y2973867D01*
X2232712Y2974500D01*
X7780949Y2974500D01*
X7828515Y2957187D01*
X7853527Y2914936D01*
X7858233Y2891278D01*
X7891496Y2841496D01*
X7941278Y2808233D01*
X7948424Y2806812D01*
X7948425Y2806811D01*
X7981610Y2800210D01*
X7981611Y2800210D01*
X7985180Y2799500D01*
X9514820Y2799500D01*
X9518389Y2800210D01*
X9518390Y2800210D01*
X9551575Y2806811D01*
X9551576Y2806812D01*
X9558722Y2808233D01*
X9608504Y2841496D01*
X9641767Y2891278D01*
X9650500Y2935180D01*
X9650500Y3441782D01*
X10374500Y3441782D01*
X10374895Y3439099D01*
X10383804Y3378577D01*
X10383805Y3378574D01*
X10384642Y3372888D01*
X10387175Y3367728D01*
X10387176Y3367726D01*
X10396926Y3347868D01*
X10436068Y3268145D01*
X10440397Y3263824D01*
X10440398Y3263822D01*
X10514321Y3190028D01*
X10518650Y3185707D01*
X10524147Y3183020D01*
X10617934Y3137176D01*
X10623482Y3134464D01*
X10691782Y3124500D01*
X11308218Y3124500D01*
X11314363Y3125405D01*
X11371423Y3133804D01*
X11371426Y3133805D01*
X11377112Y3134642D01*
X11382272Y3137175D01*
X11382274Y3137176D01*
X11439396Y3165222D01*
X11481855Y3186068D01*
X11486176Y3190397D01*
X11486178Y3190398D01*
X11559972Y3264321D01*
X11559973Y3264323D01*
X11564293Y3268650D01*
X11567847Y3275921D01*
X11569122Y3277150D01*
X11570529Y3279123D01*
X11570897Y3278861D01*
X11604288Y3311052D01*
X11654787Y3314540D01*
X11679379Y3302132D01*
X11722375Y3269139D01*
X11726854Y3267284D01*
X11726857Y3267282D01*
X11824449Y3226859D01*
X11856291Y3213670D01*
X12000000Y3194750D01*
X12004808Y3195383D01*
X12138901Y3213037D01*
X12143709Y3213670D01*
X12277625Y3269139D01*
X12392621Y3357379D01*
X12480861Y3472375D01*
X12536330Y3606291D01*
X12555250Y3750000D01*
X12536330Y3893709D01*
X12480861Y4027625D01*
X12392621Y4142621D01*
X12277625Y4230861D01*
X12143709Y4286330D01*
X12000000Y4305250D01*
X11856291Y4286330D01*
X11722375Y4230861D01*
X11607379Y4142621D01*
X11606699Y4141734D01*
X11562111Y4120947D01*
X11513218Y4134052D01*
X11503386Y4142295D01*
X11503345Y4142336D01*
X11481350Y4164293D01*
X11475853Y4166980D01*
X11381682Y4213012D01*
X11381681Y4213012D01*
X11376518Y4215536D01*
X11308218Y4225500D01*
X10691782Y4225500D01*
X10689099Y4225105D01*
X10628577Y4216196D01*
X10628574Y4216195D01*
X10622888Y4215358D01*
X10617728Y4212825D01*
X10617726Y4212824D01*
X10571883Y4190316D01*
X10518145Y4163932D01*
X10513824Y4159603D01*
X10513822Y4159602D01*
X10456131Y4101810D01*
X10435707Y4081350D01*
X10433020Y4075853D01*
X10387495Y3982718D01*
X10384464Y3976518D01*
X10374500Y3908218D01*
X10374500Y3441782D01*
X9650500Y3441782D01*
X9650500Y3864820D01*
X9644970Y3892621D01*
X9643189Y3901575D01*
X9643188Y3901576D01*
X9641767Y3908722D01*
X9608504Y3958504D01*
X9558722Y3991767D01*
X9551576Y3993188D01*
X9551575Y3993189D01*
X9518390Y3999790D01*
X9518389Y3999790D01*
X9514820Y4000500D01*
X7985180Y4000500D01*
X7981611Y3999790D01*
X7981610Y3999790D01*
X7948425Y3993189D01*
X7948424Y3993188D01*
X7941278Y3991767D01*
X7891496Y3958504D01*
X7858233Y3908722D01*
X7856812Y3901576D01*
X7856811Y3901575D01*
X7855030Y3892621D01*
X7849500Y3864820D01*
X7849500Y3599500D01*
X7832187Y3551934D01*
X7788350Y3526624D01*
X7775500Y3525500D01*
X1534420Y3525500D01*
X1519983Y3526922D01*
X1507149Y3529475D01*
X1500000Y3530897D01*
X1472868Y3525500D01*
X1472865Y3525500D01*
X1399652Y3510937D01*
X1399650Y3510936D01*
X1392505Y3509515D01*
X1352067Y3482495D01*
X1324378Y3463994D01*
X1324377Y3463993D01*
X1301376Y3448624D01*
X1297327Y3442564D01*
X1290058Y3431685D01*
X1280855Y3420471D01*
X-1092442Y1047174D01*
X-1138318Y1025782D01*
X-1144768Y1025500D01*
X-19455580Y1025500D01*
X-19470017Y1026922D01*
X-19482851Y1029475D01*
X-19490000Y1030897D01*
X-19509450Y1027028D01*
X-19559480Y1034728D01*
X-19592855Y1072785D01*
X-19594886Y1110094D01*
X-19597050Y1110402D01*
X-19575207Y1263881D01*
X-19574866Y1266277D01*
X-19574722Y1280000D01*
X-19587478Y1385413D01*
X-19593101Y1431880D01*
X-19593102Y1431883D01*
X-19593637Y1436306D01*
X-19595920Y1442349D01*
X-19601550Y1457248D01*
X-19602168Y1507863D01*
X-19584653Y1535731D01*
X-19120384Y2000000D01*
X-10555250Y2000000D01*
X-10536330Y1856291D01*
X-10480861Y1722375D01*
X-10392621Y1607379D01*
X-10277625Y1519139D01*
X-10143709Y1463670D01*
X-10000000Y1444750D01*
X-9995192Y1445383D01*
X-9861099Y1463037D01*
X-9856291Y1463670D01*
X-9821883Y1477922D01*
X-9752818Y1506529D01*
X-9702247Y1508737D01*
X-9662089Y1477922D01*
X-9651720Y1442349D01*
X-9650856Y1442434D01*
X-9650500Y1438820D01*
X-9650500Y1435180D01*
X-9649790Y1431611D01*
X-9649790Y1431610D01*
X-9643227Y1398620D01*
X-9641767Y1391278D01*
X-9608504Y1341496D01*
X-9558722Y1308233D01*
X-9551576Y1306812D01*
X-9551575Y1306811D01*
X-9518390Y1300210D01*
X-9518389Y1300210D01*
X-9514820Y1299500D01*
X-7985180Y1299500D01*
X-7981611Y1300210D01*
X-7981610Y1300210D01*
X-7948425Y1306811D01*
X-7948424Y1306812D01*
X-7941278Y1308233D01*
X-7891496Y1341496D01*
X-7858233Y1391278D01*
X-7856772Y1398620D01*
X-7850210Y1431610D01*
X-7850210Y1431611D01*
X-7849500Y1435180D01*
X-7849500Y2364820D01*
X-7851326Y2374000D01*
X-7856811Y2401575D01*
X-7856812Y2401576D01*
X-7858233Y2408722D01*
X-7891496Y2458504D01*
X-7941278Y2491767D01*
X-7948424Y2493188D01*
X-7948425Y2493189D01*
X-7981610Y2499790D01*
X-7981611Y2499790D01*
X-7985180Y2500500D01*
X-9514820Y2500500D01*
X-9518389Y2499790D01*
X-9518390Y2499790D01*
X-9551575Y2493189D01*
X-9551576Y2493188D01*
X-9558722Y2491767D01*
X-9608504Y2458504D01*
X-9610263Y2461136D01*
X-9644143Y2445338D01*
X-9695640Y2460347D01*
X-9718525Y2477907D01*
X-9718526Y2477908D01*
X-9722375Y2480861D01*
X-9856291Y2536330D01*
X-10000000Y2555250D01*
X-10143709Y2536330D01*
X-10277625Y2480861D01*
X-10392621Y2392621D01*
X-10480861Y2277625D01*
X-10536330Y2143709D01*
X-10555250Y2000000D01*
X-19120384Y2000000D01*
X-18017558Y3102826D01*
X-17971682Y3124218D01*
X-17965232Y3124500D01*
X-9724500Y3124500D01*
X-9676934Y3107187D01*
X-9651624Y3063350D01*
X-9650500Y3050500D01*
X-9650500Y2935180D01*
X-9641767Y2891278D01*
X-9608504Y2841496D01*
X-9558722Y2808233D01*
X-9551576Y2806812D01*
X-9551575Y2806811D01*
X-9518390Y2800210D01*
X-9518389Y2800210D01*
X-9514820Y2799500D01*
X-7985180Y2799500D01*
X-7981611Y2800210D01*
X-7981610Y2800210D01*
X-7948425Y2806811D01*
X-7948424Y2806812D01*
X-7941278Y2808233D01*
X-7891496Y2841496D01*
X-7858233Y2891278D01*
X-7849500Y2935180D01*
X-7849500Y3864820D01*
X-7855030Y3892621D01*
X-7856811Y3901575D01*
X-7856812Y3901576D01*
X-7858233Y3908722D01*
X-7891496Y3958504D01*
X-7941278Y3991767D01*
X-7948424Y3993188D01*
X-7948425Y3993189D01*
X-7981610Y3999790D01*
X-7981611Y3999790D01*
X-7985180Y4000500D01*
X-9514820Y4000500D01*
X-9518389Y3999790D01*
X-9518390Y3999790D01*
X-9551575Y3993189D01*
X-9551576Y3993188D01*
X-9558722Y3991767D01*
X-9608504Y3958504D01*
X-9641767Y3908722D01*
X-9643188Y3901576D01*
X-9643189Y3901575D01*
X-9644970Y3892621D01*
X-9650500Y3864820D01*
X-9650500Y3749500D01*
X-9667813Y3701934D01*
X-9711650Y3676624D01*
X-9724500Y3675500D01*
X-18075580Y3675500D01*
X-18090016Y3676922D01*
X-18102851Y3679475D01*
X-18110000Y3680897D01*
X-18137132Y3675500D01*
X-18137135Y3675500D01*
X-18210348Y3660937D01*
X-18210350Y3660936D01*
X-18217495Y3659515D01*
X-18223554Y3655467D01*
X-18223553Y3655467D01*
X-18254910Y3634515D01*
X-18285622Y3613994D01*
X-18285623Y3613993D01*
X-18291323Y3610184D01*
X-18308624Y3598624D01*
X-18312673Y3592564D01*
X-18319942Y3581685D01*
X-18329145Y3570471D01*
X-19453125Y2446491D01*
X-19499001Y2425099D01*
X-19547896Y2438200D01*
X-19576930Y2479664D01*
X-19578713Y2509243D01*
X-19575207Y2533878D01*
X-19575207Y2533884D01*
X-19574866Y2536277D01*
X-19574722Y2550000D01*
X-19593637Y2706306D01*
X-19629153Y2800297D01*
X-19647714Y2849418D01*
X-19647715Y2849420D01*
X-19649290Y2853588D01*
X-19691454Y2914936D01*
X-19735938Y2979661D01*
X-19735940Y2979663D01*
X-19738469Y2983343D01*
X-19825778Y3061133D01*
X-19852690Y3085111D01*
X-19852693Y3085113D01*
X-19856024Y3088081D01*
X-19995169Y3161755D01*
X-20147872Y3200111D01*
X-20229417Y3200538D01*
X-20300858Y3200912D01*
X-20300861Y3200912D01*
X-20305316Y3200935D01*
X-20309651Y3199894D01*
X-20309653Y3199894D01*
X-20378471Y3183372D01*
X-20458412Y3164180D01*
X-20598321Y3091968D01*
X-20601679Y3089039D01*
X-20601680Y3089038D01*
X-20692486Y3009822D01*
X-20716966Y2988467D01*
X-20719534Y2984813D01*
X-20721006Y2983178D01*
X-20765700Y2959413D01*
X-20815213Y2969935D01*
X-20846378Y3009822D01*
X-20850001Y3032692D01*
X-20850001Y3061133D01*
X-20850712Y3068347D01*
X-20857281Y3101378D01*
X-20862752Y3114587D01*
X-20887807Y3152084D01*
X-20897916Y3162193D01*
X-20935415Y3187249D01*
X-20948620Y3192719D01*
X-20981655Y3199290D01*
X-20988865Y3200000D01*
X-21236952Y3200000D01*
X-21246948Y3196362D01*
X-21250000Y3191075D01*
X-21250000Y2374000D01*
X-21267313Y2326434D01*
X-21311150Y2301124D01*
X-21324000Y2300000D01*
X-21676000Y2300000D01*
X-21723566Y2317313D01*
X-21748876Y2361150D01*
X-21750000Y2374000D01*
X-21750000Y3186951D01*
X-21753638Y3196947D01*
X-21758925Y3199999D01*
X-21931733Y3199999D01*
X-21979299Y3217312D01*
X-22004609Y3261149D01*
X-21995819Y3310999D01*
X-21984059Y3326325D01*
X-20707558Y4602826D01*
X-20661682Y4624218D01*
X-20655232Y4624500D01*
X-9724500Y4624500D01*
X-9676934Y4607187D01*
X-9651624Y4563350D01*
X-9650500Y4550500D01*
X-9650500Y4435180D01*
X-9641767Y4391278D01*
X-9608504Y4341496D01*
X-9558722Y4308233D01*
X-9551576Y4306812D01*
X-9551575Y4306811D01*
X-9518390Y4300210D01*
X-9518389Y4300210D01*
X-9514820Y4299500D01*
X-7985180Y4299500D01*
X-7981611Y4300210D01*
X-7981610Y4300210D01*
X-7948425Y4306811D01*
X-7948424Y4306812D01*
X-7941278Y4308233D01*
X-7891496Y4341496D01*
X-7858233Y4391278D01*
X-7849500Y4435180D01*
X-7849500Y5364820D01*
X-7858233Y5408722D01*
X-7891496Y5458504D01*
X-7941278Y5491767D01*
X-7948424Y5493188D01*
X-7948425Y5493189D01*
X-7981610Y5499790D01*
X-7981611Y5499790D01*
X-7985180Y5500500D01*
X-9514820Y5500500D01*
X-9518389Y5499790D01*
X-9518390Y5499790D01*
X-9551575Y5493189D01*
X-9551576Y5493188D01*
X-9558722Y5491767D01*
X-9608504Y5458504D01*
X-9641767Y5408722D01*
X-9650500Y5364820D01*
X-9650500Y5249500D01*
X-9667813Y5201934D01*
X-9711650Y5176624D01*
X-9724500Y5175500D01*
X-20765580Y5175500D01*
X-20780016Y5176922D01*
X-20792851Y5179475D01*
X-20800000Y5180897D01*
X-20827132Y5175500D01*
X-20827135Y5175500D01*
X-20862629Y5168439D01*
X-20907495Y5159515D01*
X-20949465Y5131471D01*
X-20975622Y5113994D01*
X-20975623Y5113993D01*
X-20998624Y5098624D01*
X-21002673Y5092564D01*
X-21009942Y5081685D01*
X-21019145Y5070471D01*
X-22495471Y3594145D01*
X-22506682Y3584944D01*
X-22523624Y3573624D01*
X-22584515Y3482495D01*
X-22584515Y3482494D01*
X-22586941Y3470296D01*
X-22586942Y3470295D01*
X-22596852Y3420471D01*
X-22605897Y3375000D01*
X-22604475Y3367851D01*
X-22601922Y3355017D01*
X-22600500Y3340580D01*
X-22600500Y1759420D01*
X-22601922Y1744984D01*
X-22605897Y1725000D01*
X-22600500Y1697868D01*
X-22600500Y1697867D01*
X-22584515Y1617505D01*
X-22565904Y1589652D01*
X-22543084Y1555500D01*
X-22523624Y1526376D01*
X-22506682Y1515056D01*
X-22495471Y1505855D01*
X-22157661Y1168045D01*
X-22138280Y1133224D01*
X-22137965Y1130367D01*
X-22136432Y1126178D01*
X-22087815Y993327D01*
X-22083857Y982510D01*
X-22081372Y978812D01*
X-22081370Y978808D01*
X-21998528Y855527D01*
X-21996042Y851828D01*
X-21879590Y745865D01*
X-21875667Y743735D01*
X-21813845Y710168D01*
X-21780304Y672257D01*
X-21778979Y621655D01*
X-21810490Y582040D01*
X-21815215Y579378D01*
X-21864359Y554013D01*
X-21868321Y551968D01*
X-21871679Y549039D01*
X-21871680Y549038D01*
X-21981969Y452826D01*
X-21986966Y448467D01*
X-21989534Y444813D01*
X-21989535Y444812D01*
X-22074904Y323344D01*
X-22077499Y319652D01*
X-22079121Y315493D01*
X-22079121Y315492D01*
X-22129520Y186223D01*
X-22134691Y172961D01*
X-22135273Y168537D01*
X-22135274Y168535D01*
X-22154236Y24500D01*
X-22155242Y16862D01*
X-22153380Y0D01*
X-22138457Y-135174D01*
X-22137965Y-139633D01*
X-22136431Y-143824D01*
X-22136431Y-143825D01*
X-22127751Y-167546D01*
X-22127663Y-218165D01*
X-22144918Y-245302D01*
X-22495471Y-595855D01*
X-22506682Y-605056D01*
X-22523624Y-616376D01*
X-22538993Y-639377D01*
X-22538994Y-639378D01*
X-22556471Y-665535D01*
X-22584515Y-707505D01*
X-22584515Y-707506D01*
X-22605897Y-815000D01*
X-22604475Y-822149D01*
X-22601922Y-834983D01*
X-22600500Y-849420D01*
X-22600500Y-2837307D01*
X-22601922Y-2851743D01*
X-22605897Y-2871727D01*
X-23420099Y-2871727D01*
X-23456789Y-2591148D01*
X-23457115Y-2588196D01*
X-23541880Y-1647694D01*
X-23542087Y-1644730D01*
X-23589038Y-701615D01*
X-23589127Y-698646D01*
X-23594507Y-138182D01*
X-23598192Y245668D01*
X-23598160Y248636D01*
X-23596625Y298882D01*
X-23569322Y1192499D01*
X-23569173Y1195443D01*
X-23564157Y1266277D01*
X-23524668Y1824013D01*
X-23502479Y2137395D01*
X-23502210Y2140354D01*
X-23397766Y3078887D01*
X-23397378Y3081831D01*
X-23255360Y4015372D01*
X-23254855Y4018300D01*
X-23075475Y4945445D01*
X-23074852Y4948349D01*
X-22920020Y5605897D01*
X-22858415Y5867526D01*
X-22857678Y5870395D01*
X-22839651Y5935180D01*
X-9650500Y5935180D01*
X-9641767Y5891278D01*
X-9608504Y5841496D01*
X-9558722Y5808233D01*
X-9551576Y5806812D01*
X-9551575Y5806811D01*
X-9518390Y5800210D01*
X-9518389Y5800210D01*
X-9514820Y5799500D01*
X-7985180Y5799500D01*
X-7981611Y5800210D01*
X-7981610Y5800210D01*
X-7948425Y5806811D01*
X-7948424Y5806812D01*
X-7941278Y5808233D01*
X-7891496Y5841496D01*
X-7858233Y5891278D01*
X-7849500Y5935180D01*
X-7849500Y6864820D01*
X-7854026Y6887574D01*
X-7856811Y6901575D01*
X-7856812Y6901576D01*
X-7858233Y6908722D01*
X-7891496Y6958504D01*
X-7941278Y6991767D01*
X-7948424Y6993188D01*
X-7948425Y6993189D01*
X-7981610Y6999790D01*
X-7981611Y6999790D01*
X-7985180Y7000500D01*
X-9514820Y7000500D01*
X-9518389Y6999790D01*
X-9518390Y6999790D01*
X-9551575Y6993189D01*
X-9551576Y6993188D01*
X-9558722Y6991767D01*
X-9608504Y6958504D01*
X-9641767Y6908722D01*
X-9643188Y6901576D01*
X-9643189Y6901575D01*
X-9645974Y6887574D01*
X-9650500Y6864820D01*
X-9650500Y5935180D01*
X-22839651Y5935180D01*
X-22793787Y6100001D01*
X-22604528Y6780144D01*
X-22603681Y6782967D01*
X-22582094Y6850000D01*
X-22393650Y7435180D01*
X-9650500Y7435180D01*
X-9649790Y7431611D01*
X-9649790Y7431610D01*
X-9645659Y7410845D01*
X-9641767Y7391278D01*
X-9608504Y7341496D01*
X-9558722Y7308233D01*
X-9551576Y7306812D01*
X-9551575Y7306811D01*
X-9518390Y7300210D01*
X-9518389Y7300210D01*
X-9514820Y7299500D01*
X-7985180Y7299500D01*
X-7981611Y7300210D01*
X-7981610Y7300210D01*
X-7948425Y7306811D01*
X-7948424Y7306812D01*
X-7941278Y7308233D01*
X-7891496Y7341496D01*
X-7858233Y7391278D01*
X-7854340Y7410845D01*
X-7850210Y7431610D01*
X-7850210Y7431611D01*
X-7849500Y7435180D01*
X-7849500Y8364820D01*
X-7853690Y8385884D01*
X-7856811Y8401575D01*
X-7856812Y8401576D01*
X-7858233Y8408722D01*
X-7891496Y8458504D01*
X-7941278Y8491767D01*
X-7948424Y8493188D01*
X-7948425Y8493189D01*
X-7981610Y8499790D01*
X-7981611Y8499790D01*
X-7985180Y8500500D01*
X-9514820Y8500500D01*
X-9518389Y8499790D01*
X-9518390Y8499790D01*
X-9551575Y8493189D01*
X-9551576Y8493188D01*
X-9558722Y8491767D01*
X-9608504Y8458504D01*
X-9641767Y8408722D01*
X-9643188Y8401576D01*
X-9643189Y8401575D01*
X-9646310Y8385884D01*
X-9650500Y8364820D01*
X-9650500Y7435180D01*
X-22393650Y7435180D01*
X-22314222Y7681829D01*
X-22313256Y7684636D01*
X-21987957Y8571157D01*
X-21986878Y8573924D01*
X-21837610Y8935180D01*
X-9650500Y8935180D01*
X-9649790Y8931611D01*
X-9649790Y8931610D01*
X-9645005Y8907558D01*
X-9641767Y8891278D01*
X-9608504Y8841496D01*
X-9558722Y8808233D01*
X-9551576Y8806812D01*
X-9551575Y8806811D01*
X-9518390Y8800210D01*
X-9518389Y8800210D01*
X-9514820Y8799500D01*
X-7985180Y8799500D01*
X-7981611Y8800210D01*
X-7981610Y8800210D01*
X-7948425Y8806811D01*
X-7948424Y8806812D01*
X-7941278Y8808233D01*
X-7891496Y8841496D01*
X-7858233Y8891278D01*
X-7854994Y8907558D01*
X-7850210Y8931610D01*
X-7850210Y8931611D01*
X-7849500Y8935180D01*
X-7849500Y9781232D01*
X-7832187Y9828798D01*
X-7788350Y9854108D01*
X-7738500Y9845318D01*
X-7723174Y9833558D01*
X-6297174Y8407558D01*
X-6275782Y8361682D01*
X-6275500Y8355232D01*
X-6275500Y2518984D01*
X-6292813Y2471418D01*
X-6304448Y2460279D01*
X-6392621Y2392621D01*
X-6480861Y2277625D01*
X-6536330Y2143709D01*
X-6555250Y2000000D01*
X-6536330Y1856291D01*
X-6480861Y1722375D01*
X-6392621Y1607379D01*
X-6277625Y1519139D01*
X-6143709Y1463670D01*
X-6000000Y1444750D01*
X-5995192Y1445383D01*
X-5861099Y1463037D01*
X-5856291Y1463670D01*
X-5722375Y1519139D01*
X-5607379Y1607379D01*
X-5519139Y1722375D01*
X-5463670Y1856291D01*
X-5444750Y2000000D01*
X-5463670Y2143709D01*
X-5519139Y2277625D01*
X-5607379Y2392621D01*
X-5695550Y2460277D01*
X-5722746Y2502968D01*
X-5724500Y2518984D01*
X-5724500Y8465579D01*
X-5723078Y8480015D01*
X-5720525Y8492851D01*
X-5719103Y8500000D01*
X-5740484Y8607494D01*
X-5786006Y8675622D01*
X-5786007Y8675623D01*
X-5801376Y8698624D01*
X-5818318Y8709944D01*
X-5829529Y8719145D01*
X-7827826Y10717442D01*
X-7849218Y10763318D01*
X-7849500Y10769768D01*
X-7849500Y11364820D01*
X-7858233Y11408722D01*
X-7891496Y11458504D01*
X-7941278Y11491767D01*
X-7948424Y11493188D01*
X-7948425Y11493189D01*
X-7981610Y11499790D01*
X-7981611Y11499790D01*
X-7985180Y11500500D01*
X-9514820Y11500500D01*
X-9518389Y11499790D01*
X-9518390Y11499790D01*
X-9551575Y11493189D01*
X-9551576Y11493188D01*
X-9558722Y11491767D01*
X-9608504Y11458504D01*
X-9641767Y11408722D01*
X-9650500Y11364820D01*
X-9650500Y10435180D01*
X-9641767Y10391278D01*
X-9608504Y10341496D01*
X-9558722Y10308233D01*
X-9551576Y10306812D01*
X-9551575Y10306811D01*
X-9518390Y10300210D01*
X-9518389Y10300210D01*
X-9514820Y10299500D01*
X-8219768Y10299500D01*
X-8172202Y10282187D01*
X-8167442Y10277826D01*
X-8016442Y10126826D01*
X-7995050Y10080950D01*
X-8008151Y10032055D01*
X-8049615Y10003021D01*
X-8068768Y10000500D01*
X-9514820Y10000500D01*
X-9518389Y9999790D01*
X-9518390Y9999790D01*
X-9551575Y9993189D01*
X-9551576Y9993188D01*
X-9558722Y9991767D01*
X-9608504Y9958504D01*
X-9641767Y9908722D01*
X-9650500Y9864820D01*
X-9650500Y8935180D01*
X-21837610Y8935180D01*
X-21626271Y9446660D01*
X-21625082Y9449382D01*
X-21419384Y9895576D01*
X-21229728Y10306973D01*
X-21228433Y10309638D01*
X-21186745Y10391278D01*
X-20798994Y11150644D01*
X-20797590Y11153262D01*
X-20357900Y11935180D01*
X-9650500Y11935180D01*
X-9641767Y11891278D01*
X-9608504Y11841496D01*
X-9558722Y11808233D01*
X-9551576Y11806812D01*
X-9551575Y11806811D01*
X-9518390Y11800210D01*
X-9518389Y11800210D01*
X-9514820Y11799500D01*
X-7985180Y11799500D01*
X-7981611Y11800210D01*
X-7981610Y11800210D01*
X-7948425Y11806811D01*
X-7948424Y11806812D01*
X-7941278Y11808233D01*
X-7891496Y11841496D01*
X-7877351Y11862666D01*
X-7836530Y11892597D01*
X-7786020Y11889287D01*
X-7763496Y11873880D01*
X-4797174Y8907558D01*
X-4775782Y8861682D01*
X-4775500Y8855232D01*
X-4775500Y2518984D01*
X-4792813Y2471418D01*
X-4804448Y2460279D01*
X-4892621Y2392621D01*
X-4980861Y2277625D01*
X-5036330Y2143709D01*
X-5055250Y2000000D01*
X-5036330Y1856291D01*
X-4980861Y1722375D01*
X-4892621Y1607379D01*
X-4777625Y1519139D01*
X-4643709Y1463670D01*
X-4500000Y1444750D01*
X-4495192Y1445383D01*
X-4361099Y1463037D01*
X-4356291Y1463670D01*
X-4222375Y1519139D01*
X-4107379Y1607379D01*
X-4019139Y1722375D01*
X-3963670Y1856291D01*
X-3944750Y2000000D01*
X-3963670Y2143709D01*
X-4019139Y2277625D01*
X-4107379Y2392621D01*
X-4195550Y2460277D01*
X-4222746Y2502968D01*
X-4224500Y2518984D01*
X-4224500Y4250000D01*
X1194750Y4250000D01*
X1213670Y4106291D01*
X1269139Y3972375D01*
X1357379Y3857379D01*
X1472375Y3769139D01*
X1606291Y3713670D01*
X1750000Y3694750D01*
X1754808Y3695383D01*
X1888901Y3713037D01*
X1893709Y3713670D01*
X2027625Y3769139D01*
X2142621Y3857379D01*
X2230861Y3972375D01*
X2286330Y4106291D01*
X2305250Y4250000D01*
X2286330Y4393709D01*
X2269152Y4435180D01*
X7849500Y4435180D01*
X7858233Y4391278D01*
X7891496Y4341496D01*
X7941278Y4308233D01*
X7948424Y4306812D01*
X7948425Y4306811D01*
X7981610Y4300210D01*
X7981611Y4300210D01*
X7985180Y4299500D01*
X9514820Y4299500D01*
X9518389Y4300210D01*
X9518390Y4300210D01*
X9551575Y4306811D01*
X9551576Y4306812D01*
X9558722Y4308233D01*
X9608504Y4341496D01*
X9641767Y4391278D01*
X9650500Y4435180D01*
X9650500Y4550500D01*
X9667813Y4598066D01*
X9711650Y4623376D01*
X9724500Y4624500D01*
X10540580Y4624500D01*
X10555016Y4623078D01*
X10575000Y4619103D01*
X10602132Y4624500D01*
X10602135Y4624500D01*
X10637629Y4631561D01*
X10682495Y4640485D01*
X10724465Y4668529D01*
X10750622Y4686006D01*
X10750623Y4686007D01*
X10773624Y4701376D01*
X10784944Y4718317D01*
X10794146Y4729530D01*
X10817442Y4752826D01*
X10863318Y4774218D01*
X10869768Y4774500D01*
X11308218Y4774500D01*
X11314363Y4775405D01*
X11371423Y4783804D01*
X11371426Y4783805D01*
X11377112Y4784642D01*
X11382272Y4787175D01*
X11382274Y4787176D01*
X11428117Y4809684D01*
X11481855Y4836068D01*
X11486176Y4840397D01*
X11486178Y4840398D01*
X11559972Y4914321D01*
X11559973Y4914323D01*
X11564293Y4918650D01*
X11577391Y4945445D01*
X11607967Y5007997D01*
X11644409Y5043129D01*
X11674449Y5049500D01*
X14280232Y5049500D01*
X14327798Y5032187D01*
X14332558Y5027826D01*
X15688215Y3672169D01*
X15709607Y3626293D01*
X15709256Y3610184D01*
X15698294Y3526922D01*
X15694750Y3500000D01*
X15713670Y3356291D01*
X15769139Y3222375D01*
X15857379Y3107379D01*
X15972375Y3019139D01*
X16106291Y2963670D01*
X16250000Y2944750D01*
X16254808Y2945383D01*
X16388901Y2963037D01*
X16393709Y2963670D01*
X16527625Y3019139D01*
X16642621Y3107379D01*
X16691292Y3170808D01*
X16733984Y3198006D01*
X16784170Y3191399D01*
X16808708Y3170808D01*
X16857379Y3107379D01*
X16972375Y3019139D01*
X17106291Y2963670D01*
X17250000Y2944750D01*
X17254808Y2945383D01*
X17388901Y2963037D01*
X17393709Y2963670D01*
X17527625Y3019139D01*
X17642621Y3107379D01*
X17730861Y3222375D01*
X17786330Y3356291D01*
X17805250Y3500000D01*
X17786330Y3643709D01*
X17730861Y3777625D01*
X17642621Y3892621D01*
X17554450Y3960277D01*
X17527254Y4002968D01*
X17525500Y4018984D01*
X17525500Y5215580D01*
X17526922Y5230017D01*
X17529475Y5242851D01*
X17530897Y5250000D01*
X17509515Y5357495D01*
X17463994Y5425622D01*
X17463993Y5425623D01*
X17448624Y5448624D01*
X17431682Y5459944D01*
X17420471Y5469145D01*
X16044145Y6845471D01*
X16034942Y6856685D01*
X16033446Y6858925D01*
X16023624Y6873624D01*
X16000623Y6888993D01*
X16000622Y6888994D01*
X15971097Y6908722D01*
X15932495Y6934515D01*
X15925350Y6935936D01*
X15925348Y6935937D01*
X15852135Y6950500D01*
X15852132Y6950500D01*
X15825000Y6955897D01*
X15817851Y6954475D01*
X15805017Y6951922D01*
X15790580Y6950500D01*
X11674530Y6950500D01*
X11626964Y6967813D01*
X11608104Y6991887D01*
X11590799Y7027133D01*
X11563932Y7081855D01*
X11559603Y7086176D01*
X11559602Y7086178D01*
X11485679Y7159972D01*
X11485677Y7159973D01*
X11481350Y7164293D01*
X11423516Y7192563D01*
X11381682Y7213012D01*
X11381681Y7213012D01*
X11376518Y7215536D01*
X11308218Y7225500D01*
X10691782Y7225500D01*
X10689099Y7225105D01*
X10628577Y7216196D01*
X10628574Y7216195D01*
X10622888Y7215358D01*
X10617728Y7212825D01*
X10617726Y7212824D01*
X10583236Y7195890D01*
X10518145Y7163932D01*
X10513824Y7159603D01*
X10513822Y7159602D01*
X10440028Y7085679D01*
X10435707Y7081350D01*
X10433020Y7075853D01*
X10392033Y6992003D01*
X10355591Y6956871D01*
X10325551Y6950500D01*
X9642931Y6950500D01*
X9601819Y6962971D01*
X9564781Y6987719D01*
X9564779Y6987720D01*
X9558722Y6991767D01*
X9551576Y6993188D01*
X9551575Y6993189D01*
X9518390Y6999790D01*
X9518389Y6999790D01*
X9514820Y7000500D01*
X7985180Y7000500D01*
X7981611Y6999790D01*
X7981610Y6999790D01*
X7948425Y6993189D01*
X7948424Y6993188D01*
X7941278Y6991767D01*
X7891496Y6958504D01*
X7858233Y6908722D01*
X7856812Y6901576D01*
X7856811Y6901575D01*
X7854026Y6887574D01*
X7849500Y6864820D01*
X7849500Y5935180D01*
X7858233Y5891278D01*
X7891496Y5841496D01*
X7941278Y5808233D01*
X7948424Y5806812D01*
X7948425Y5806811D01*
X7981610Y5800210D01*
X7981611Y5800210D01*
X7985180Y5799500D01*
X9514820Y5799500D01*
X9518389Y5800210D01*
X9518390Y5800210D01*
X9551575Y5806811D01*
X9551576Y5806812D01*
X9558722Y5808233D01*
X9608504Y5841496D01*
X9641767Y5891278D01*
X9650500Y5935180D01*
X9650500Y6325500D01*
X9667813Y6373066D01*
X9711650Y6398376D01*
X9724500Y6399500D01*
X10325470Y6399500D01*
X10373036Y6382187D01*
X10391896Y6358113D01*
X10436068Y6268145D01*
X10440397Y6263824D01*
X10440398Y6263822D01*
X10514321Y6190028D01*
X10518650Y6185707D01*
X10524147Y6183020D01*
X10617934Y6137176D01*
X10623482Y6134464D01*
X10691782Y6124500D01*
X11308218Y6124500D01*
X11314363Y6125405D01*
X11371423Y6133804D01*
X11371426Y6133805D01*
X11377112Y6134642D01*
X11382272Y6137175D01*
X11382274Y6137176D01*
X11428117Y6159684D01*
X11481855Y6186068D01*
X11486176Y6190397D01*
X11486178Y6190398D01*
X11559972Y6264321D01*
X11559973Y6264323D01*
X11564293Y6268650D01*
X11601468Y6344701D01*
X11607967Y6357997D01*
X11644409Y6393129D01*
X11674449Y6399500D01*
X15680232Y6399500D01*
X15727798Y6382187D01*
X15732558Y6377826D01*
X16952826Y5157558D01*
X16974218Y5111682D01*
X16974500Y5105232D01*
X16974500Y4018984D01*
X16957187Y3971418D01*
X16945552Y3960279D01*
X16857379Y3892621D01*
X16854424Y3888770D01*
X16808708Y3829192D01*
X16766016Y3801994D01*
X16715830Y3808601D01*
X16691292Y3829192D01*
X16645576Y3888770D01*
X16642621Y3892621D01*
X16527625Y3980861D01*
X16393709Y4036330D01*
X16250000Y4055250D01*
X16245192Y4054617D01*
X16139816Y4040744D01*
X16090397Y4051700D01*
X16077831Y4061785D01*
X14644145Y5495471D01*
X14634942Y5506685D01*
X14627673Y5517564D01*
X14623624Y5523624D01*
X14600623Y5538993D01*
X14600622Y5538994D01*
X14571851Y5558218D01*
X14532495Y5584515D01*
X14525350Y5585936D01*
X14525348Y5585937D01*
X14452135Y5600500D01*
X14452132Y5600500D01*
X14425000Y5605897D01*
X14417851Y5604475D01*
X14405017Y5601922D01*
X14390580Y5600500D01*
X11674530Y5600500D01*
X11626964Y5617813D01*
X11608104Y5641887D01*
X11578465Y5702255D01*
X11563932Y5731855D01*
X11559603Y5736176D01*
X11559602Y5736178D01*
X11485679Y5809972D01*
X11485677Y5809973D01*
X11481350Y5814293D01*
X11413301Y5847556D01*
X11381682Y5863012D01*
X11381681Y5863012D01*
X11376518Y5865536D01*
X11308218Y5875500D01*
X10691782Y5875500D01*
X10689099Y5875105D01*
X10628577Y5866196D01*
X10628574Y5866195D01*
X10622888Y5865358D01*
X10617728Y5862825D01*
X10617726Y5862824D01*
X10586629Y5847556D01*
X10518145Y5813932D01*
X10513824Y5809603D01*
X10513822Y5809602D01*
X10440028Y5735679D01*
X10435707Y5731350D01*
X10433020Y5725853D01*
X10391977Y5641887D01*
X10384464Y5626518D01*
X10374500Y5558218D01*
X10374500Y5249500D01*
X10357187Y5201934D01*
X10313350Y5176624D01*
X10300500Y5175500D01*
X9724500Y5175500D01*
X9676934Y5192813D01*
X9651624Y5236650D01*
X9650500Y5249500D01*
X9650500Y5364820D01*
X9641767Y5408722D01*
X9608504Y5458504D01*
X9558722Y5491767D01*
X9551576Y5493188D01*
X9551575Y5493189D01*
X9518390Y5499790D01*
X9518389Y5499790D01*
X9514820Y5500500D01*
X7985180Y5500500D01*
X7981611Y5499790D01*
X7981610Y5499790D01*
X7948425Y5493189D01*
X7948424Y5493188D01*
X7941278Y5491767D01*
X7891496Y5458504D01*
X7858233Y5408722D01*
X7849500Y5364820D01*
X7849500Y4435180D01*
X2269152Y4435180D01*
X2230861Y4527625D01*
X2142621Y4642621D01*
X2054450Y4710277D01*
X2027254Y4752968D01*
X2025500Y4768984D01*
X2025500Y6855232D01*
X2042813Y6902798D01*
X2047174Y6907558D01*
X3039616Y7900000D01*
X6944750Y7900000D01*
X6963670Y7756291D01*
X7019139Y7622375D01*
X7107379Y7507379D01*
X7222375Y7419139D01*
X7356291Y7363670D01*
X7500000Y7344750D01*
X7504808Y7345383D01*
X7638901Y7363037D01*
X7643709Y7363670D01*
X7648190Y7365526D01*
X7770072Y7416010D01*
X7820643Y7418218D01*
X7859919Y7388755D01*
X7891496Y7341496D01*
X7941278Y7308233D01*
X7948424Y7306812D01*
X7948425Y7306811D01*
X7981610Y7300210D01*
X7981611Y7300210D01*
X7985180Y7299500D01*
X9514820Y7299500D01*
X9518389Y7300210D01*
X9518390Y7300210D01*
X9551575Y7306811D01*
X9551576Y7306812D01*
X9558722Y7308233D01*
X9608504Y7341496D01*
X9641767Y7391278D01*
X9645660Y7410845D01*
X9649790Y7431610D01*
X9649790Y7431611D01*
X9650500Y7435180D01*
X9650500Y8091782D01*
X10374500Y8091782D01*
X10374895Y8089099D01*
X10383804Y8028577D01*
X10383805Y8028574D01*
X10384642Y8022888D01*
X10436068Y7918145D01*
X10440397Y7913824D01*
X10440398Y7913822D01*
X10514321Y7840028D01*
X10518650Y7835707D01*
X10524147Y7833020D01*
X10617934Y7787176D01*
X10623482Y7784464D01*
X10691782Y7774500D01*
X11308218Y7774500D01*
X11314363Y7775405D01*
X11371423Y7783804D01*
X11371426Y7783805D01*
X11377112Y7784642D01*
X11382272Y7787175D01*
X11382274Y7787176D01*
X11428117Y7809684D01*
X11481855Y7836068D01*
X11486176Y7840397D01*
X11486178Y7840398D01*
X11559972Y7914321D01*
X11559973Y7914323D01*
X11564293Y7918650D01*
X11586299Y7963670D01*
X11603395Y7998644D01*
X11639837Y8033776D01*
X11690336Y8037263D01*
X11714926Y8024854D01*
X11718523Y8022094D01*
X11718527Y8022092D01*
X11722375Y8019139D01*
X11726854Y8017284D01*
X11726857Y8017282D01*
X11851810Y7965526D01*
X11856291Y7963670D01*
X12000000Y7944750D01*
X12004808Y7945383D01*
X12138901Y7963037D01*
X12143709Y7963670D01*
X12277625Y8019139D01*
X12392621Y8107379D01*
X12480861Y8222375D01*
X12536330Y8356291D01*
X12555250Y8500000D01*
X12536330Y8643709D01*
X12480861Y8777625D01*
X12392621Y8892621D01*
X12277625Y8980861D01*
X12143709Y9036330D01*
X12000000Y9055250D01*
X11856291Y9036330D01*
X11722375Y8980861D01*
X11607379Y8892621D01*
X11604424Y8888770D01*
X11566132Y8838867D01*
X11523440Y8811669D01*
X11474929Y8817432D01*
X11376518Y8865536D01*
X11308218Y8875500D01*
X10691782Y8875500D01*
X10689099Y8875105D01*
X10628577Y8866196D01*
X10628574Y8866195D01*
X10622888Y8865358D01*
X10617728Y8862825D01*
X10617726Y8862824D01*
X10586629Y8847556D01*
X10518145Y8813932D01*
X10513824Y8809603D01*
X10513822Y8809602D01*
X10477425Y8773141D01*
X10435707Y8731350D01*
X10433020Y8725853D01*
X10395058Y8648190D01*
X10384464Y8626518D01*
X10374500Y8558218D01*
X10374500Y8091782D01*
X9650500Y8091782D01*
X9650500Y8364820D01*
X9646310Y8385884D01*
X9643189Y8401575D01*
X9643188Y8401576D01*
X9641767Y8408722D01*
X9608504Y8458504D01*
X9558722Y8491767D01*
X9551576Y8493188D01*
X9551575Y8493189D01*
X9518390Y8499790D01*
X9518389Y8499790D01*
X9514820Y8500500D01*
X7985180Y8500500D01*
X7981611Y8499790D01*
X7981610Y8499790D01*
X7948425Y8493189D01*
X7948424Y8493188D01*
X7941278Y8491767D01*
X7891496Y8458504D01*
X7861670Y8413865D01*
X7859919Y8411245D01*
X7819098Y8381313D01*
X7770072Y8383990D01*
X7648190Y8434474D01*
X7643709Y8436330D01*
X7500000Y8455250D01*
X7356291Y8436330D01*
X7351810Y8434474D01*
X7330361Y8425590D01*
X7222375Y8380861D01*
X7107379Y8292621D01*
X7019139Y8177625D01*
X6963670Y8043709D01*
X6944750Y7900000D01*
X3039616Y7900000D01*
X4639616Y9500000D01*
X6944750Y9500000D01*
X6963670Y9356291D01*
X7019139Y9222375D01*
X7107379Y9107379D01*
X7222375Y9019139D01*
X7356291Y8963670D01*
X7500000Y8944750D01*
X7504808Y8945383D01*
X7638901Y8963037D01*
X7643709Y8963670D01*
X7648320Y8965580D01*
X7747182Y9006529D01*
X7797753Y9008737D01*
X7837911Y8977922D01*
X7848280Y8942349D01*
X7849144Y8942434D01*
X7849500Y8938820D01*
X7849500Y8935180D01*
X7850210Y8931611D01*
X7850210Y8931610D01*
X7854995Y8907558D01*
X7858233Y8891278D01*
X7891496Y8841496D01*
X7941278Y8808233D01*
X7948424Y8806812D01*
X7948425Y8806811D01*
X7981610Y8800210D01*
X7981611Y8800210D01*
X7985180Y8799500D01*
X9514820Y8799500D01*
X9518389Y8800210D01*
X9518390Y8800210D01*
X9551575Y8806811D01*
X9551576Y8806812D01*
X9558722Y8808233D01*
X9608504Y8841496D01*
X9641767Y8891278D01*
X9645006Y8907558D01*
X9649790Y8931610D01*
X9649790Y8931611D01*
X9650500Y8935180D01*
X9650500Y9864820D01*
X9641767Y9908722D01*
X9608504Y9958504D01*
X9558722Y9991767D01*
X9551576Y9993188D01*
X9551575Y9993189D01*
X9518390Y9999790D01*
X9518389Y9999790D01*
X9514820Y10000500D01*
X7985180Y10000500D01*
X7981611Y9999790D01*
X7981610Y9999790D01*
X7948425Y9993189D01*
X7948424Y9993188D01*
X7941278Y9991767D01*
X7891496Y9958504D01*
X7889737Y9961136D01*
X7855857Y9945338D01*
X7804360Y9960347D01*
X7781475Y9977907D01*
X7781474Y9977908D01*
X7777625Y9980861D01*
X7643709Y10036330D01*
X7500000Y10055250D01*
X7356291Y10036330D01*
X7222375Y9980861D01*
X7107379Y9892621D01*
X7019139Y9777625D01*
X6963670Y9643709D01*
X6944750Y9500000D01*
X4639616Y9500000D01*
X6139616Y11000000D01*
X6944750Y11000000D01*
X6963670Y10856291D01*
X7019139Y10722375D01*
X7107379Y10607379D01*
X7222375Y10519139D01*
X7356291Y10463670D01*
X7500000Y10444750D01*
X7504808Y10445383D01*
X7638901Y10463037D01*
X7643709Y10463670D01*
X7678117Y10477922D01*
X7747182Y10506529D01*
X7797753Y10508737D01*
X7837911Y10477922D01*
X7848280Y10442349D01*
X7849144Y10442434D01*
X7849500Y10438820D01*
X7849500Y10435180D01*
X7858233Y10391278D01*
X7891496Y10341496D01*
X7941278Y10308233D01*
X7948424Y10306812D01*
X7948425Y10306811D01*
X7981610Y10300210D01*
X7981611Y10300210D01*
X7985180Y10299500D01*
X9514820Y10299500D01*
X9518389Y10300210D01*
X9518390Y10300210D01*
X9551575Y10306811D01*
X9551576Y10306812D01*
X9558722Y10308233D01*
X9608504Y10341496D01*
X9641767Y10391278D01*
X9650500Y10435180D01*
X9650500Y11216197D01*
X10125070Y11216197D01*
X10125393Y11211788D01*
X10135013Y11146436D01*
X10138382Y11135592D01*
X10188176Y11034174D01*
X10195199Y11024366D01*
X10274899Y10944804D01*
X10284717Y10937801D01*
X10386226Y10888182D01*
X10397070Y10884831D01*
X10461805Y10875387D01*
X10467139Y10875000D01*
X10486952Y10875000D01*
X10496948Y10878638D01*
X10500000Y10883925D01*
X10500000Y10888048D01*
X11000000Y10888048D01*
X11003638Y10878052D01*
X11008925Y10875000D01*
X11032843Y10875000D01*
X11038212Y10875393D01*
X11103564Y10885013D01*
X11114408Y10888382D01*
X11215826Y10938176D01*
X11225634Y10945199D01*
X11305196Y11024899D01*
X11312199Y11034717D01*
X11361818Y11136226D01*
X11365169Y11147070D01*
X11374613Y11211805D01*
X11374686Y11212814D01*
X11371362Y11221948D01*
X11366075Y11225000D01*
X11013048Y11225000D01*
X11003052Y11221362D01*
X11000000Y11216075D01*
X11000000Y10888048D01*
X10500000Y10888048D01*
X10500000Y11211952D01*
X10496362Y11221948D01*
X10491075Y11225000D01*
X10138048Y11225000D01*
X10128052Y11221362D01*
X10125070Y11216197D01*
X9650500Y11216197D01*
X9650500Y11364820D01*
X9641767Y11408722D01*
X9608504Y11458504D01*
X9558722Y11491767D01*
X9551576Y11493188D01*
X9551575Y11493189D01*
X9518390Y11499790D01*
X9518389Y11499790D01*
X9514820Y11500500D01*
X7985180Y11500500D01*
X7981611Y11499790D01*
X7981610Y11499790D01*
X7948425Y11493189D01*
X7948424Y11493188D01*
X7941278Y11491767D01*
X7891496Y11458504D01*
X7889737Y11461136D01*
X7855857Y11445338D01*
X7804360Y11460347D01*
X7781475Y11477907D01*
X7781474Y11477908D01*
X7777625Y11480861D01*
X7643709Y11536330D01*
X7500000Y11555250D01*
X7356291Y11536330D01*
X7222375Y11480861D01*
X7107379Y11392621D01*
X7019139Y11277625D01*
X6993695Y11216197D01*
X6966543Y11150644D01*
X6963670Y11143709D01*
X6944750Y11000000D01*
X6139616Y11000000D01*
X6876802Y11737186D01*
X10125314Y11737186D01*
X10128638Y11728052D01*
X10133925Y11725000D01*
X10486952Y11725000D01*
X10496948Y11728638D01*
X10500000Y11733925D01*
X10500000Y11738048D01*
X11000000Y11738048D01*
X11003638Y11728052D01*
X11008925Y11725000D01*
X11361952Y11725000D01*
X11371948Y11728638D01*
X11374930Y11733803D01*
X11374607Y11738212D01*
X11364987Y11803564D01*
X11361618Y11814408D01*
X11311824Y11915826D01*
X11304801Y11925634D01*
X11225101Y12005196D01*
X11215283Y12012199D01*
X11113774Y12061818D01*
X11102930Y12065169D01*
X11038195Y12074613D01*
X11032861Y12075000D01*
X11013048Y12075000D01*
X11003052Y12071362D01*
X11000000Y12066075D01*
X11000000Y11738048D01*
X10500000Y11738048D01*
X10500000Y12061952D01*
X10496362Y12071948D01*
X10491075Y12075000D01*
X10467157Y12075000D01*
X10461788Y12074607D01*
X10396436Y12064987D01*
X10385592Y12061618D01*
X10284174Y12011824D01*
X10274366Y12004801D01*
X10194804Y11925101D01*
X10187801Y11915283D01*
X10138182Y11813774D01*
X10134831Y11802930D01*
X10125387Y11738195D01*
X10125314Y11737186D01*
X6876802Y11737186D01*
X7242442Y12102826D01*
X7288318Y12124218D01*
X7294768Y12124500D01*
X7775500Y12124500D01*
X7823066Y12107187D01*
X7848376Y12063350D01*
X7849500Y12050500D01*
X7849500Y11935180D01*
X7858233Y11891278D01*
X7891496Y11841496D01*
X7941278Y11808233D01*
X7948424Y11806812D01*
X7948425Y11806811D01*
X7981610Y11800210D01*
X7981611Y11800210D01*
X7985180Y11799500D01*
X9514820Y11799500D01*
X9518389Y11800210D01*
X9518390Y11800210D01*
X9551575Y11806811D01*
X9551576Y11806812D01*
X9558722Y11808233D01*
X9608504Y11841496D01*
X9641767Y11891278D01*
X9650500Y11935180D01*
X9650500Y12864820D01*
X9641767Y12908722D01*
X9608504Y12958504D01*
X9558722Y12991767D01*
X9551576Y12993188D01*
X9551575Y12993189D01*
X9518390Y12999790D01*
X9518389Y12999790D01*
X9514820Y13000500D01*
X7985180Y13000500D01*
X7981611Y12999790D01*
X7981610Y12999790D01*
X7948425Y12993189D01*
X7948424Y12993188D01*
X7941278Y12991767D01*
X7891496Y12958504D01*
X7858233Y12908722D01*
X7849500Y12864820D01*
X7849500Y12749500D01*
X7832187Y12701934D01*
X7788350Y12676624D01*
X7775500Y12675500D01*
X7184420Y12675500D01*
X7169983Y12676922D01*
X7157149Y12679475D01*
X7150000Y12680897D01*
X7142851Y12679475D01*
X7049652Y12660937D01*
X7049650Y12660936D01*
X7042505Y12659515D01*
X7036446Y12655467D01*
X7036447Y12655467D01*
X6974378Y12613994D01*
X6974377Y12613993D01*
X6964479Y12607379D01*
X6951376Y12598624D01*
X6944559Y12588421D01*
X6940058Y12581685D01*
X6930855Y12570471D01*
X1579529Y7219145D01*
X1568318Y7209944D01*
X1551376Y7198624D01*
X1536007Y7175623D01*
X1536006Y7175622D01*
X1528195Y7163932D01*
X1490485Y7107495D01*
X1489064Y7100350D01*
X1489063Y7100348D01*
X1485385Y7081855D01*
X1474500Y7027133D01*
X1469103Y7000000D01*
X1470525Y6992851D01*
X1473078Y6980017D01*
X1474500Y6965580D01*
X1474500Y4768984D01*
X1457187Y4721418D01*
X1445552Y4710279D01*
X1357379Y4642621D01*
X1269139Y4527625D01*
X1213670Y4393709D01*
X1194750Y4250000D01*
X-4224500Y4250000D01*
X-4224500Y6238867D01*
X-2559999Y6238867D01*
X-2559288Y6231653D01*
X-2552719Y6198622D01*
X-2547248Y6185413D01*
X-2522193Y6147916D01*
X-2512084Y6137807D01*
X-2474585Y6112751D01*
X-2461380Y6107281D01*
X-2428345Y6100710D01*
X-2421135Y6100000D01*
X-2323048Y6100000D01*
X-2313052Y6103638D01*
X-2310000Y6108925D01*
X-2310000Y6113049D01*
X-1810000Y6113049D01*
X-1806362Y6103053D01*
X-1801075Y6100001D01*
X-1698867Y6100001D01*
X-1691653Y6100712D01*
X-1658622Y6107281D01*
X-1645413Y6112752D01*
X-1607916Y6137807D01*
X-1597807Y6147916D01*
X-1571529Y6187244D01*
X-1530708Y6217176D01*
X-1480197Y6213865D01*
X-1448471Y6187244D01*
X-1422193Y6147916D01*
X-1412084Y6137807D01*
X-1374585Y6112751D01*
X-1361380Y6107281D01*
X-1328345Y6100710D01*
X-1321135Y6100000D01*
X-1223048Y6100000D01*
X-1213052Y6103638D01*
X-1210000Y6108925D01*
X-1210000Y6113049D01*
X-710000Y6113049D01*
X-706362Y6103053D01*
X-701075Y6100001D01*
X-598867Y6100001D01*
X-591653Y6100712D01*
X-558622Y6107281D01*
X-545413Y6112752D01*
X-507916Y6137807D01*
X-497807Y6147916D01*
X-471529Y6187244D01*
X-430708Y6217176D01*
X-380197Y6213865D01*
X-348471Y6187244D01*
X-322193Y6147916D01*
X-312084Y6137807D01*
X-274585Y6112751D01*
X-261380Y6107281D01*
X-228345Y6100710D01*
X-221135Y6100000D01*
X-123048Y6100000D01*
X-113052Y6103638D01*
X-110000Y6108925D01*
X-110000Y6113049D01*
X390000Y6113049D01*
X393638Y6103053D01*
X398925Y6100001D01*
X501133Y6100001D01*
X508347Y6100712D01*
X541378Y6107281D01*
X554587Y6112752D01*
X592084Y6137807D01*
X602193Y6147916D01*
X627249Y6185415D01*
X632719Y6198620D01*
X639290Y6231655D01*
X640000Y6238865D01*
X640000Y6336952D01*
X636362Y6346948D01*
X631075Y6350000D01*
X403048Y6350000D01*
X393052Y6346362D01*
X390000Y6341075D01*
X390000Y6113049D01*
X-110000Y6113049D01*
X-110000Y6336952D01*
X-113638Y6346948D01*
X-118925Y6350000D01*
X-364110Y6350000D01*
X-385456Y6342231D01*
X-436075Y6342231D01*
X-442038Y6344701D01*
X-453402Y6350000D01*
X-696952Y6350000D01*
X-706948Y6346362D01*
X-710000Y6341075D01*
X-710000Y6113049D01*
X-1210000Y6113049D01*
X-1210000Y6336952D01*
X-1213638Y6346948D01*
X-1218925Y6350000D01*
X-1464110Y6350000D01*
X-1485456Y6342231D01*
X-1536075Y6342231D01*
X-1542038Y6344701D01*
X-1553402Y6350000D01*
X-1796952Y6350000D01*
X-1806948Y6346362D01*
X-1810000Y6341075D01*
X-1810000Y6113049D01*
X-2310000Y6113049D01*
X-2310000Y6336952D01*
X-2313638Y6346948D01*
X-2318925Y6350000D01*
X-2546951Y6350000D01*
X-2556947Y6346362D01*
X-2559999Y6341075D01*
X-2559999Y6238867D01*
X-4224500Y6238867D01*
X-4224500Y6863048D01*
X-2560000Y6863048D01*
X-2556362Y6853052D01*
X-2551075Y6850000D01*
X-2323048Y6850000D01*
X-2313052Y6853638D01*
X-2310000Y6858925D01*
X-2310000Y6863048D01*
X390000Y6863048D01*
X393638Y6853052D01*
X398925Y6850000D01*
X626951Y6850000D01*
X636947Y6853638D01*
X639999Y6858925D01*
X639999Y6961133D01*
X639288Y6968347D01*
X632719Y7001378D01*
X627248Y7014587D01*
X602193Y7052084D01*
X592084Y7062193D01*
X552756Y7088471D01*
X522824Y7129292D01*
X526135Y7179803D01*
X552756Y7211529D01*
X592084Y7237807D01*
X602193Y7247916D01*
X627249Y7285415D01*
X632719Y7298620D01*
X639290Y7331655D01*
X640000Y7338865D01*
X640000Y7436952D01*
X636362Y7446948D01*
X631075Y7450000D01*
X403048Y7450000D01*
X393052Y7446362D01*
X390000Y7441075D01*
X390000Y7195890D01*
X397769Y7174544D01*
X397769Y7123925D01*
X395299Y7117962D01*
X390000Y7106598D01*
X390000Y6863048D01*
X-2310000Y6863048D01*
X-2310000Y7104110D01*
X-2317769Y7125456D01*
X-2317769Y7149587D01*
X-1772426Y7149587D01*
X-1770845Y7143688D01*
X-1519226Y6892069D01*
X-1509587Y6887574D01*
X-1503688Y6889155D01*
X-1252069Y7140774D01*
X-1247959Y7149587D01*
X-672426Y7149587D01*
X-670845Y7143688D01*
X-419226Y6892069D01*
X-409587Y6887574D01*
X-403688Y6889155D01*
X-152069Y7140774D01*
X-147574Y7150413D01*
X-149155Y7156312D01*
X-400774Y7407931D01*
X-410413Y7412426D01*
X-416312Y7410845D01*
X-667931Y7159226D01*
X-672426Y7149587D01*
X-1247959Y7149587D01*
X-1247574Y7150413D01*
X-1249155Y7156312D01*
X-1500774Y7407931D01*
X-1510413Y7412426D01*
X-1516312Y7410845D01*
X-1767931Y7159226D01*
X-1772426Y7149587D01*
X-2317769Y7149587D01*
X-2317769Y7176075D01*
X-2315299Y7182038D01*
X-2310000Y7193402D01*
X-2310000Y7436952D01*
X-2313638Y7446948D01*
X-2318925Y7450000D01*
X-2546951Y7450000D01*
X-2556947Y7446362D01*
X-2559999Y7441075D01*
X-2559999Y7338867D01*
X-2559288Y7331653D01*
X-2552719Y7298622D01*
X-2547248Y7285413D01*
X-2522193Y7247916D01*
X-2512084Y7237807D01*
X-2472756Y7211529D01*
X-2442824Y7170708D01*
X-2446135Y7120197D01*
X-2472756Y7088471D01*
X-2512084Y7062193D01*
X-2522193Y7052084D01*
X-2547249Y7014585D01*
X-2552719Y7001380D01*
X-2559290Y6968345D01*
X-2560000Y6961135D01*
X-2560000Y6863048D01*
X-4224500Y6863048D01*
X-4224500Y7963048D01*
X-2560000Y7963048D01*
X-2556362Y7953052D01*
X-2551075Y7950000D01*
X-2323048Y7950000D01*
X-2313052Y7953638D01*
X-2310000Y7958925D01*
X-2310000Y7963048D01*
X390000Y7963048D01*
X393638Y7953052D01*
X398925Y7950000D01*
X626951Y7950000D01*
X636947Y7953638D01*
X639999Y7958925D01*
X639999Y8061133D01*
X639288Y8068347D01*
X632719Y8101378D01*
X627248Y8114587D01*
X602193Y8152084D01*
X592084Y8162193D01*
X552756Y8188471D01*
X522824Y8229292D01*
X526135Y8279803D01*
X552756Y8311529D01*
X592084Y8337807D01*
X602193Y8347916D01*
X627249Y8385415D01*
X632719Y8398620D01*
X639290Y8431655D01*
X640000Y8438865D01*
X640000Y8536952D01*
X636362Y8546948D01*
X631075Y8550000D01*
X403048Y8550000D01*
X393052Y8546362D01*
X390000Y8541075D01*
X390000Y8295890D01*
X397769Y8274544D01*
X397769Y8223925D01*
X395299Y8217962D01*
X390000Y8206598D01*
X390000Y7963048D01*
X-2310000Y7963048D01*
X-2310000Y8204110D01*
X-2317769Y8225456D01*
X-2317769Y8249587D01*
X-1772426Y8249587D01*
X-1770845Y8243688D01*
X-1519226Y7992069D01*
X-1509587Y7987574D01*
X-1503688Y7989155D01*
X-1252069Y8240774D01*
X-1247959Y8249587D01*
X-672426Y8249587D01*
X-670845Y8243688D01*
X-419226Y7992069D01*
X-409587Y7987574D01*
X-403688Y7989155D01*
X-152069Y8240774D01*
X-147574Y8250413D01*
X-149155Y8256312D01*
X-400774Y8507931D01*
X-410413Y8512426D01*
X-416312Y8510845D01*
X-667931Y8259226D01*
X-672426Y8249587D01*
X-1247959Y8249587D01*
X-1247574Y8250413D01*
X-1249155Y8256312D01*
X-1500774Y8507931D01*
X-1510413Y8512426D01*
X-1516312Y8510845D01*
X-1767931Y8259226D01*
X-1772426Y8249587D01*
X-2317769Y8249587D01*
X-2317769Y8276075D01*
X-2315299Y8282038D01*
X-2310000Y8293402D01*
X-2310000Y8536952D01*
X-2313638Y8546948D01*
X-2318925Y8550000D01*
X-2546951Y8550000D01*
X-2556947Y8546362D01*
X-2559999Y8541075D01*
X-2559999Y8438867D01*
X-2559288Y8431653D01*
X-2552719Y8398622D01*
X-2547248Y8385413D01*
X-2522193Y8347916D01*
X-2512084Y8337807D01*
X-2472756Y8311529D01*
X-2442824Y8270708D01*
X-2446135Y8220197D01*
X-2472756Y8188471D01*
X-2512084Y8162193D01*
X-2522193Y8152084D01*
X-2547249Y8114585D01*
X-2552719Y8101380D01*
X-2559290Y8068345D01*
X-2560000Y8061135D01*
X-2560000Y7963048D01*
X-4224500Y7963048D01*
X-4224500Y8965580D01*
X-4223078Y8980017D01*
X-4220525Y8992851D01*
X-4219103Y9000000D01*
X-4224500Y9027133D01*
X-4231644Y9063048D01*
X-2560000Y9063048D01*
X-2556362Y9053052D01*
X-2551075Y9050000D01*
X-2323048Y9050000D01*
X-2313052Y9053638D01*
X-2310000Y9058925D01*
X-2310000Y9063048D01*
X-1810000Y9063048D01*
X-1806362Y9053052D01*
X-1801075Y9050000D01*
X-1555890Y9050000D01*
X-1534544Y9057769D01*
X-1483925Y9057769D01*
X-1477962Y9055299D01*
X-1466598Y9050000D01*
X-1223048Y9050000D01*
X-1213052Y9053638D01*
X-1210000Y9058925D01*
X-1210000Y9063048D01*
X-710000Y9063048D01*
X-706362Y9053052D01*
X-701075Y9050000D01*
X-455890Y9050000D01*
X-434544Y9057769D01*
X-383925Y9057769D01*
X-377962Y9055299D01*
X-366598Y9050000D01*
X-123048Y9050000D01*
X-113052Y9053638D01*
X-110000Y9058925D01*
X-110000Y9063048D01*
X390000Y9063048D01*
X393638Y9053052D01*
X398925Y9050000D01*
X626951Y9050000D01*
X636947Y9053638D01*
X639999Y9058925D01*
X639999Y9161133D01*
X639288Y9168347D01*
X632719Y9201378D01*
X627248Y9214587D01*
X602193Y9252084D01*
X592084Y9262193D01*
X554585Y9287249D01*
X541380Y9292719D01*
X508345Y9299290D01*
X501135Y9300000D01*
X403048Y9300000D01*
X393052Y9296362D01*
X390000Y9291075D01*
X390000Y9063048D01*
X-110000Y9063048D01*
X-110000Y9286951D01*
X-113638Y9296947D01*
X-118925Y9299999D01*
X-221133Y9299999D01*
X-228347Y9299288D01*
X-261378Y9292719D01*
X-274587Y9287248D01*
X-312084Y9262193D01*
X-322193Y9252084D01*
X-348471Y9212756D01*
X-389292Y9182824D01*
X-439803Y9186135D01*
X-471529Y9212756D01*
X-497807Y9252084D01*
X-507916Y9262193D01*
X-545415Y9287249D01*
X-558620Y9292719D01*
X-591655Y9299290D01*
X-598865Y9300000D01*
X-696952Y9300000D01*
X-706948Y9296362D01*
X-710000Y9291075D01*
X-710000Y9063048D01*
X-1210000Y9063048D01*
X-1210000Y9286951D01*
X-1213638Y9296947D01*
X-1218925Y9299999D01*
X-1321133Y9299999D01*
X-1328347Y9299288D01*
X-1361378Y9292719D01*
X-1374587Y9287248D01*
X-1412084Y9262193D01*
X-1422193Y9252084D01*
X-1448471Y9212756D01*
X-1489292Y9182824D01*
X-1539803Y9186135D01*
X-1571529Y9212756D01*
X-1597807Y9252084D01*
X-1607916Y9262193D01*
X-1645415Y9287249D01*
X-1658620Y9292719D01*
X-1691655Y9299290D01*
X-1698865Y9300000D01*
X-1796952Y9300000D01*
X-1806948Y9296362D01*
X-1810000Y9291075D01*
X-1810000Y9063048D01*
X-2310000Y9063048D01*
X-2310000Y9286951D01*
X-2313638Y9296947D01*
X-2318925Y9299999D01*
X-2421133Y9299999D01*
X-2428347Y9299288D01*
X-2461378Y9292719D01*
X-2474587Y9287248D01*
X-2512084Y9262193D01*
X-2522193Y9252084D01*
X-2547249Y9214585D01*
X-2552719Y9201380D01*
X-2559290Y9168345D01*
X-2560000Y9161135D01*
X-2560000Y9063048D01*
X-4231644Y9063048D01*
X-4240485Y9107495D01*
X-4301376Y9198624D01*
X-4318318Y9209944D01*
X-4329529Y9219145D01*
X-7680855Y12570471D01*
X-7690058Y12581685D01*
X-7694558Y12588421D01*
X-7701376Y12598624D01*
X-7724377Y12613993D01*
X-7724378Y12613994D01*
X-7750535Y12631471D01*
X-7786443Y12655465D01*
X-7786445Y12655466D01*
X-7792505Y12659515D01*
X-7799655Y12660937D01*
X-7803819Y12662662D01*
X-7841139Y12696860D01*
X-7849500Y12731029D01*
X-7849500Y12864820D01*
X-7858233Y12908722D01*
X-7891496Y12958504D01*
X-7941278Y12991767D01*
X-7948424Y12993188D01*
X-7948425Y12993189D01*
X-7981610Y12999790D01*
X-7981611Y12999790D01*
X-7985180Y13000500D01*
X-9514820Y13000500D01*
X-9518389Y12999790D01*
X-9518390Y12999790D01*
X-9551575Y12993189D01*
X-9551576Y12993188D01*
X-9558722Y12991767D01*
X-9608504Y12958504D01*
X-9641767Y12908722D01*
X-9650500Y12864820D01*
X-9650500Y11935180D01*
X-20357900Y11935180D01*
X-20334740Y11976367D01*
X-20333242Y11978910D01*
X-20317282Y12004801D01*
X-19837725Y12782789D01*
X-19836125Y12785272D01*
X-19308738Y13568627D01*
X-19307058Y13571017D01*
X-18748666Y14332568D01*
X-18746867Y14334922D01*
X-18720197Y14368390D01*
X-18158359Y15073454D01*
X-18156461Y15075739D01*
X-18073561Y15171610D01*
X-17538811Y15790032D01*
X-17536833Y15792229D01*
X-17326880Y16016197D01*
X-16891003Y16481172D01*
X-16888928Y16483298D01*
X-16215984Y17145753D01*
X-16213826Y17147794D01*
X-15695652Y17618470D01*
X-15641247Y17667888D01*
X-11121476Y17667888D01*
X-11115711Y17628721D01*
X-11112341Y17617874D01*
X-11066217Y17523931D01*
X-11059191Y17514117D01*
X-10985386Y17440441D01*
X-10975561Y17433433D01*
X-10881534Y17387471D01*
X-10870690Y17384120D01*
X-10810829Y17375387D01*
X-10805496Y17375000D01*
X-10763048Y17375000D01*
X-10753052Y17378638D01*
X-10750000Y17383925D01*
X-10750000Y17388049D01*
X-10250000Y17388049D01*
X-10246362Y17378053D01*
X-10241075Y17375001D01*
X-10194524Y17375001D01*
X-10189152Y17375394D01*
X-10128721Y17384289D01*
X-10117874Y17387659D01*
X-10023931Y17433783D01*
X-10014117Y17440809D01*
X-9940441Y17514614D01*
X-9933433Y17524439D01*
X-9887469Y17618470D01*
X-9884120Y17629305D01*
X-9879337Y17662090D01*
X-9881494Y17672504D01*
X-9884655Y17675000D01*
X-10236952Y17675000D01*
X-10246948Y17671362D01*
X-10250000Y17666075D01*
X-10250000Y17388049D01*
X-10750000Y17388049D01*
X-10750000Y17661952D01*
X-10753638Y17671948D01*
X-10758925Y17675000D01*
X-11109475Y17675000D01*
X-11119471Y17671362D01*
X-11121476Y17667888D01*
X-15641247Y17667888D01*
X-15514826Y17782720D01*
X-15512598Y17784665D01*
X-15031177Y18187910D01*
X-11120663Y18187910D01*
X-11118506Y18177496D01*
X-11115345Y18175000D01*
X-10763048Y18175000D01*
X-10753052Y18178638D01*
X-10750000Y18183925D01*
X-10750000Y18188048D01*
X-10250000Y18188048D01*
X-10246362Y18178052D01*
X-10241075Y18175000D01*
X-9890525Y18175000D01*
X-9880529Y18178638D01*
X-9878524Y18182112D01*
X-9884289Y18221279D01*
X-9887659Y18232126D01*
X-9933783Y18326069D01*
X-9940809Y18335883D01*
X-10014614Y18409559D01*
X-10024439Y18416567D01*
X-10118466Y18462529D01*
X-10129310Y18465880D01*
X-10189171Y18474613D01*
X-10194504Y18475000D01*
X-10236952Y18475000D01*
X-10246948Y18471362D01*
X-10250000Y18466075D01*
X-10250000Y18188048D01*
X-10750000Y18188048D01*
X-10750000Y18461951D01*
X-10753638Y18471947D01*
X-10758925Y18474999D01*
X-10805476Y18474999D01*
X-10810848Y18474606D01*
X-10871279Y18465711D01*
X-10882126Y18462341D01*
X-10976069Y18416217D01*
X-10985883Y18409191D01*
X-11059559Y18335386D01*
X-11066567Y18325561D01*
X-11112531Y18231530D01*
X-11115880Y18220695D01*
X-11120663Y18187910D01*
X-15031177Y18187910D01*
X-14788671Y18391036D01*
X-14786356Y18392897D01*
X-14541671Y18581670D01*
X-14038687Y18969720D01*
X-14036308Y18971480D01*
X-14028725Y18976859D01*
X-13643668Y19250000D01*
X-12305250Y19250000D01*
X-12286330Y19106291D01*
X-12284474Y19101810D01*
X-12277804Y19085707D01*
X-12230861Y18972375D01*
X-12142621Y18857379D01*
X-12027625Y18769139D01*
X-11893709Y18713670D01*
X-11750000Y18694750D01*
X-11745192Y18695383D01*
X-11611099Y18713037D01*
X-11606291Y18713670D01*
X-11472375Y18769139D01*
X-11357379Y18857379D01*
X-11269139Y18972375D01*
X-11222196Y19085707D01*
X-11215526Y19101810D01*
X-11213670Y19106291D01*
X-11207529Y19152939D01*
X-11184156Y19197837D01*
X-11137390Y19217209D01*
X-11089114Y19201987D01*
X-11067738Y19175895D01*
X-11066631Y19173641D01*
X-11066629Y19173638D01*
X-11063932Y19168145D01*
X-11059603Y19163824D01*
X-11059602Y19163822D01*
X-10985679Y19090028D01*
X-10981350Y19085707D01*
X-10975853Y19083020D01*
X-10882066Y19037176D01*
X-10876518Y19034464D01*
X-10808218Y19024500D01*
X-10191782Y19024500D01*
X-10185637Y19025405D01*
X-10128577Y19033804D01*
X-10128574Y19033805D01*
X-10122888Y19034642D01*
X-10117728Y19037175D01*
X-10117726Y19037176D01*
X-10057752Y19066622D01*
X-10018145Y19086068D01*
X-10013824Y19090397D01*
X-10013822Y19090398D01*
X-9940028Y19164321D01*
X-9940027Y19164323D01*
X-9935707Y19168650D01*
X-9921440Y19197837D01*
X-9886988Y19268318D01*
X-9886988Y19268319D01*
X-9884464Y19273482D01*
X-9874500Y19341782D01*
X-9874500Y19808218D01*
X-9878371Y19834515D01*
X-9883804Y19871423D01*
X-9883805Y19871426D01*
X-9884642Y19877112D01*
X-9897249Y19902791D01*
X-9909684Y19928117D01*
X-9936068Y19981855D01*
X-9940397Y19986176D01*
X-9940398Y19986178D01*
X-10014321Y20059972D01*
X-10014323Y20059973D01*
X-10018650Y20064293D01*
X-10024147Y20066980D01*
X-10118318Y20113012D01*
X-10118319Y20113012D01*
X-10123482Y20115536D01*
X-10191782Y20125500D01*
X-10808218Y20125500D01*
X-10810901Y20125105D01*
X-10871423Y20116196D01*
X-10871426Y20116195D01*
X-10877112Y20115358D01*
X-10882272Y20112825D01*
X-10882274Y20112824D01*
X-10928117Y20090316D01*
X-10981855Y20063932D01*
X-10986176Y20059603D01*
X-10986178Y20059602D01*
X-11059972Y19985679D01*
X-11064293Y19981350D01*
X-11066980Y19975853D01*
X-11107967Y19892003D01*
X-11144409Y19856871D01*
X-11174449Y19850500D01*
X-11390584Y19850500D01*
X-11405020Y19851922D01*
X-11417851Y19854474D01*
X-11425000Y19855896D01*
X-11432149Y19854474D01*
X-11452124Y19850501D01*
X-11452132Y19850500D01*
X-11452135Y19850500D01*
X-11452140Y19850499D01*
X-11525348Y19835937D01*
X-11525350Y19835936D01*
X-11532495Y19834515D01*
X-11538552Y19830468D01*
X-11538554Y19830467D01*
X-11567836Y19810901D01*
X-11577240Y19804617D01*
X-11581727Y19801619D01*
X-11632498Y19789780D01*
X-11750000Y19805250D01*
X-11893709Y19786330D01*
X-12027625Y19730861D01*
X-12142621Y19642621D01*
X-12230861Y19527625D01*
X-12286330Y19393709D01*
X-12305250Y19250000D01*
X-13643668Y19250000D01*
X-13266069Y19517850D01*
X-13263646Y19519495D01*
X-12472133Y20034492D01*
X-12469618Y20036058D01*
X-12336027Y20115536D01*
X-11863849Y20396453D01*
X-11658051Y20518890D01*
X-11655468Y20520357D01*
X-11036528Y20855715D01*
X-10825209Y20970213D01*
X-10822599Y20971561D01*
X-9974894Y21387766D01*
X-9972205Y21389019D01*
X-9353921Y21662359D01*
X-9303417Y21665758D01*
X-9262543Y21635897D01*
X-9250000Y21594678D01*
X-9250000Y14574500D01*
X-9267313Y14526934D01*
X-9311150Y14501624D01*
X-9324000Y14500500D01*
X-9514820Y14500500D01*
X-9518389Y14499790D01*
X-9518390Y14499790D01*
X-9551575Y14493189D01*
X-9551576Y14493188D01*
X-9558722Y14491767D01*
X-9608504Y14458504D01*
X-9641767Y14408722D01*
X-9643188Y14401576D01*
X-9643189Y14401575D01*
X-9649790Y14368390D01*
X-9650500Y14364820D01*
X-9650500Y13435180D01*
X-9649790Y13431611D01*
X-9649790Y13431610D01*
X-9643886Y13401932D01*
X-9641767Y13391278D01*
X-9608504Y13341496D01*
X-9558722Y13308233D01*
X-9551576Y13306812D01*
X-9551575Y13306811D01*
X-9518390Y13300210D01*
X-9518389Y13300210D01*
X-9514820Y13299500D01*
X-7985180Y13299500D01*
X-7981611Y13300210D01*
X-7981610Y13300210D01*
X-7948425Y13306811D01*
X-7948424Y13306812D01*
X-7941278Y13308233D01*
X-7891496Y13341496D01*
X-7858233Y13391278D01*
X-7856113Y13401932D01*
X-7850210Y13431610D01*
X-7850210Y13431611D01*
X-7849500Y13435180D01*
X-7849500Y14364820D01*
X-7853602Y14385444D01*
X-7858233Y14408722D01*
X-7855702Y14409225D01*
X-7857409Y14448248D01*
X-7826596Y14488408D01*
X-7786832Y14500000D01*
X7786832Y14500000D01*
X7834398Y14482687D01*
X7859708Y14438850D01*
X7856446Y14409077D01*
X7858233Y14408722D01*
X7853603Y14385444D01*
X7849500Y14364820D01*
X7849500Y13435180D01*
X7850210Y13431611D01*
X7850210Y13431610D01*
X7856114Y13401932D01*
X7858233Y13391278D01*
X7891496Y13341496D01*
X7941278Y13308233D01*
X7948424Y13306812D01*
X7948425Y13306811D01*
X7981610Y13300210D01*
X7981611Y13300210D01*
X7985180Y13299500D01*
X9514820Y13299500D01*
X9518389Y13300210D01*
X9518390Y13300210D01*
X9551575Y13306811D01*
X9551576Y13306812D01*
X9558722Y13308233D01*
X9608504Y13341496D01*
X9641767Y13391278D01*
X9643189Y13398425D01*
X9643190Y13398427D01*
X9643887Y13401932D01*
X9670149Y13445205D01*
X9718082Y13461473D01*
X9768790Y13439817D01*
X10102826Y13105781D01*
X10124218Y13059905D01*
X10124500Y13053455D01*
X10124500Y12764410D01*
X10135365Y12690604D01*
X10190459Y12578390D01*
X10278931Y12490073D01*
X10332945Y12463670D01*
X10386081Y12437696D01*
X10386083Y12437695D01*
X10391241Y12435174D01*
X10464410Y12424500D01*
X11035590Y12424500D01*
X11109396Y12435365D01*
X11221610Y12490459D01*
X11309927Y12578931D01*
X11312613Y12584426D01*
X11316164Y12589404D01*
X11317542Y12588421D01*
X11348357Y12618129D01*
X11378397Y12624500D01*
X11560502Y12624500D01*
X11607316Y12607461D01*
X11607379Y12607379D01*
X11722375Y12519139D01*
X11856291Y12463670D01*
X12000000Y12444750D01*
X12004808Y12445383D01*
X12138901Y12463037D01*
X12143709Y12463670D01*
X12277625Y12519139D01*
X12392621Y12607379D01*
X12480861Y12722375D01*
X12536330Y12856291D01*
X12555250Y13000000D01*
X12536330Y13143709D01*
X12480861Y13277625D01*
X12392621Y13392621D01*
X12277625Y13480861D01*
X12143709Y13536330D01*
X12000000Y13555250D01*
X11856291Y13536330D01*
X11851810Y13534474D01*
X11726857Y13482718D01*
X11726854Y13482716D01*
X11722375Y13480861D01*
X11672791Y13442813D01*
X11670157Y13440792D01*
X11625108Y13425500D01*
X11378286Y13425500D01*
X11330720Y13442813D01*
X11316157Y13461403D01*
X11315798Y13461146D01*
X11312235Y13466122D01*
X11309541Y13471610D01*
X11305214Y13475929D01*
X11305213Y13475931D01*
X11225398Y13555606D01*
X11225397Y13555607D01*
X11221069Y13559927D01*
X11192001Y13574136D01*
X11156871Y13610578D01*
X11150500Y13640617D01*
X11150500Y14109440D01*
X11167813Y14157006D01*
X11191887Y14175866D01*
X11221610Y14190459D01*
X11309927Y14278931D01*
X11350132Y14361180D01*
X11362304Y14386081D01*
X11362305Y14386083D01*
X11364826Y14391241D01*
X11374638Y14458504D01*
X11375113Y14461757D01*
X11375500Y14464410D01*
X11375500Y14985590D01*
X11364635Y15059396D01*
X11309541Y15171610D01*
X11221069Y15259927D01*
X11114334Y15312101D01*
X11113919Y15312304D01*
X11113917Y15312305D01*
X11108759Y15314826D01*
X11035590Y15325500D01*
X10464410Y15325500D01*
X10390604Y15314635D01*
X10278390Y15259541D01*
X10190073Y15171069D01*
X10135174Y15058759D01*
X10134345Y15053076D01*
X10124890Y14988260D01*
X10124500Y14985590D01*
X10124500Y14464410D01*
X10135365Y14390604D01*
X10148267Y14364325D01*
X10153691Y14313999D01*
X10125496Y14271960D01*
X10076875Y14257879D01*
X10058976Y14261333D01*
X10034272Y14269360D01*
X10023550Y14273802D01*
X10005497Y14283000D01*
X10000304Y14285646D01*
X9984544Y14288142D01*
X9974537Y14289727D01*
X9963246Y14292438D01*
X9943974Y14298700D01*
X9943971Y14298700D01*
X9938433Y14300500D01*
X9723547Y14300500D01*
X9675981Y14317813D01*
X9650671Y14361650D01*
X9650500Y14362896D01*
X9650500Y14364820D01*
X9646898Y14382930D01*
X9643189Y14401575D01*
X9643188Y14401576D01*
X9641767Y14408722D01*
X9608504Y14458504D01*
X9558722Y14491767D01*
X9551576Y14493188D01*
X9551575Y14493189D01*
X9518390Y14499790D01*
X9518389Y14499790D01*
X9514820Y14500500D01*
X9324000Y14500500D01*
X9276434Y14517813D01*
X9251124Y14561650D01*
X9250000Y14574500D01*
X9250000Y16016197D01*
X10125070Y16016197D01*
X10125393Y16011788D01*
X10135013Y15946436D01*
X10138382Y15935592D01*
X10188176Y15834174D01*
X10195199Y15824366D01*
X10274899Y15744804D01*
X10284717Y15737801D01*
X10386226Y15688182D01*
X10397070Y15684831D01*
X10461805Y15675387D01*
X10467139Y15675000D01*
X10486952Y15675000D01*
X10496948Y15678638D01*
X10500000Y15683925D01*
X10500000Y15688048D01*
X11000000Y15688048D01*
X11003638Y15678052D01*
X11008925Y15675000D01*
X11032843Y15675000D01*
X11038212Y15675393D01*
X11103564Y15685013D01*
X11114408Y15688382D01*
X11215826Y15738176D01*
X11225634Y15745199D01*
X11305196Y15824899D01*
X11312199Y15834717D01*
X11361818Y15936226D01*
X11365169Y15947070D01*
X11374613Y16011805D01*
X11374686Y16012814D01*
X11371362Y16021948D01*
X11366075Y16025000D01*
X11013048Y16025000D01*
X11003052Y16021362D01*
X11000000Y16016075D01*
X11000000Y15688048D01*
X10500000Y15688048D01*
X10500000Y16011952D01*
X10496362Y16021948D01*
X10491075Y16025000D01*
X10138048Y16025000D01*
X10128052Y16021362D01*
X10125070Y16016197D01*
X9250000Y16016197D01*
X9250000Y16537186D01*
X10125314Y16537186D01*
X10128638Y16528052D01*
X10133925Y16525000D01*
X10486952Y16525000D01*
X10496948Y16528638D01*
X10500000Y16533925D01*
X10500000Y16538048D01*
X11000000Y16538048D01*
X11003638Y16528052D01*
X11008925Y16525000D01*
X11361952Y16525000D01*
X11371948Y16528638D01*
X11374930Y16533803D01*
X11374607Y16538212D01*
X11364987Y16603564D01*
X11361618Y16614408D01*
X11311824Y16715826D01*
X11304801Y16725634D01*
X11225101Y16805196D01*
X11215283Y16812199D01*
X11113774Y16861818D01*
X11102930Y16865169D01*
X11038195Y16874613D01*
X11032861Y16875000D01*
X11013048Y16875000D01*
X11003052Y16871362D01*
X11000000Y16866075D01*
X11000000Y16538048D01*
X10500000Y16538048D01*
X10500000Y16861952D01*
X10496362Y16871948D01*
X10491075Y16875000D01*
X10467157Y16875000D01*
X10461788Y16874607D01*
X10396436Y16864987D01*
X10385592Y16861618D01*
X10284174Y16811824D01*
X10274366Y16804801D01*
X10194804Y16725101D01*
X10187801Y16715283D01*
X10138182Y16613774D01*
X10134831Y16602930D01*
X10125387Y16538195D01*
X10125314Y16537186D01*
X9250000Y16537186D01*
X9250000Y21598439D01*
X9267313Y21646005D01*
X9311150Y21671315D01*
X9354628Y21665803D01*
G37*
%TD.AperFunction*%
%TD*%
M02*
