%TF.GenerationSoftware,KiCad,Pcbnew,6.0.10-86aedd382b~118~ubuntu22.04.1*%
%TF.CreationDate,2023-03-14T18:16:05-07:00*%
%TF.ProjectId,compact-probe,636f6d70-6163-4742-9d70-726f62652e6b,rev?*%
%TF.SameCoordinates,Original*%
%TF.FileFunction,Legend,Bot*%
%TF.FilePolarity,Positive*%
%FSLAX46Y46*%
G04 Gerber Fmt 4.6, Leading zero omitted, Abs format (unit mm)*
G04 Created by KiCad (PCBNEW 6.0.10-86aedd382b~118~ubuntu22.04.1) date 2023-03-14 18:16:05*
%MOMM*%
%LPD*%
G01*
G04 APERTURE LIST*
%ADD10C,0.050000*%
%ADD11C,0.150000*%
%ADD12C,0.062500*%
%ADD13C,0.125000*%
%ADD14C,0.254000*%
%ADD15C,0.120000*%
%ADD16C,0.250000*%
%ADD17C,0.127000*%
%ADD18C,0.200000*%
G04 APERTURE END LIST*
D10*
X0Y2000000D02*
X0Y-2000000D01*
D11*
X18000000Y15000000D02*
G75*
G03*
X18000000Y15000000I-3000000J0D01*
G01*
X-12000000Y-15000000D02*
G75*
G03*
X-12000000Y-15000000I-3000000J0D01*
G01*
X18000000Y-15000000D02*
G75*
G03*
X18000000Y-15000000I-3000000J0D01*
G01*
D10*
X-2000000Y0D02*
X2000000Y0D01*
D11*
X-12000000Y15000000D02*
G75*
G03*
X-12000000Y15000000I-3000000J0D01*
G01*
D12*
X-2178571Y-19304613D02*
X-2202380Y-19328422D01*
X-2226190Y-19399851D01*
X-2226190Y-19447470D01*
X-2202380Y-19518898D01*
X-2154761Y-19566517D01*
X-2107142Y-19590327D01*
X-2011904Y-19614136D01*
X-1940476Y-19614136D01*
X-1845238Y-19590327D01*
X-1797619Y-19566517D01*
X-1750000Y-19518898D01*
X-1726190Y-19447470D01*
X-1726190Y-19399851D01*
X-1750000Y-19328422D01*
X-1773809Y-19304613D01*
X-2083333Y-19114136D02*
X-2083333Y-18876041D01*
X-2226190Y-19161755D02*
X-1726190Y-18995089D01*
X-2226190Y-18828422D01*
X-2226190Y-18661755D02*
X-1726190Y-18661755D01*
X-2226190Y-18376041D01*
X-1726190Y-18376041D01*
X-2226190Y-18137946D02*
X-1726190Y-18137946D01*
X-1964285Y-18137946D02*
X-1964285Y-17852232D01*
X-2226190Y-17852232D02*
X-1726190Y-17852232D01*
X4250000Y-19328422D02*
X4273809Y-19376041D01*
X4273809Y-19447470D01*
X4250000Y-19518898D01*
X4202380Y-19566517D01*
X4154761Y-19590327D01*
X4059523Y-19614136D01*
X3988095Y-19614136D01*
X3892857Y-19590327D01*
X3845238Y-19566517D01*
X3797619Y-19518898D01*
X3773809Y-19447470D01*
X3773809Y-19399851D01*
X3797619Y-19328422D01*
X3821428Y-19304613D01*
X3988095Y-19304613D01*
X3988095Y-19399851D01*
X3773809Y-19090327D02*
X4273809Y-19090327D01*
X3773809Y-18804613D01*
X4273809Y-18804613D01*
X3773809Y-18566517D02*
X4273809Y-18566517D01*
X4273809Y-18447470D01*
X4250000Y-18376041D01*
X4202380Y-18328422D01*
X4154761Y-18304613D01*
X4059523Y-18280803D01*
X3988095Y-18280803D01*
X3892857Y-18304613D01*
X3845238Y-18328422D01*
X3797619Y-18376041D01*
X3773809Y-18447470D01*
X3773809Y-18566517D01*
X-4178571Y-19304613D02*
X-4202380Y-19328422D01*
X-4226190Y-19399851D01*
X-4226190Y-19447470D01*
X-4202380Y-19518898D01*
X-4154761Y-19566517D01*
X-4107142Y-19590327D01*
X-4011904Y-19614136D01*
X-3940476Y-19614136D01*
X-3845238Y-19590327D01*
X-3797619Y-19566517D01*
X-3750000Y-19518898D01*
X-3726190Y-19447470D01*
X-3726190Y-19399851D01*
X-3750000Y-19328422D01*
X-3773809Y-19304613D01*
X-4083333Y-19114136D02*
X-4083333Y-18876041D01*
X-4226190Y-19161755D02*
X-3726190Y-18995089D01*
X-4226190Y-18828422D01*
X-4226190Y-18661755D02*
X-3726190Y-18661755D01*
X-4226190Y-18376041D01*
X-3726190Y-18376041D01*
X-4226190Y-17899851D02*
X-4226190Y-18137946D01*
X-3726190Y-18137946D01*
X-226190Y-19328422D02*
X-226190Y-19614136D01*
X-226190Y-19471279D02*
X273809Y-19471279D01*
X202380Y-19518898D01*
X154761Y-19566517D01*
X130952Y-19614136D01*
X226190Y-19137946D02*
X250000Y-19114136D01*
X273809Y-19066517D01*
X273809Y-18947470D01*
X250000Y-18899851D01*
X226190Y-18876041D01*
X178571Y-18852232D01*
X130952Y-18852232D01*
X59523Y-18876041D01*
X-226190Y-19161755D01*
X-226190Y-18852232D01*
X273809Y-18709375D02*
X-226190Y-18542708D01*
X273809Y-18376041D01*
X226190Y-18233184D02*
X250000Y-18209375D01*
X273809Y-18161755D01*
X273809Y-18042708D01*
X250000Y-17995089D01*
X226190Y-17971279D01*
X178571Y-17947470D01*
X130952Y-17947470D01*
X59523Y-17971279D01*
X-226190Y-18256994D01*
X-226190Y-17947470D01*
X59523Y-17661755D02*
X83333Y-17709375D01*
X107142Y-17733184D01*
X154761Y-17756994D01*
X178571Y-17756994D01*
X226190Y-17733184D01*
X250000Y-17709375D01*
X273809Y-17661755D01*
X273809Y-17566517D01*
X250000Y-17518898D01*
X226190Y-17495089D01*
X178571Y-17471279D01*
X154761Y-17471279D01*
X107142Y-17495089D01*
X83333Y-17518898D01*
X59523Y-17566517D01*
X59523Y-17661755D01*
X35714Y-17709375D01*
X11904Y-17733184D01*
X-35714Y-17756994D01*
X-130952Y-17756994D01*
X-178571Y-17733184D01*
X-202380Y-17709375D01*
X-226190Y-17661755D01*
X-226190Y-17566517D01*
X-202380Y-17518898D01*
X-178571Y-17495089D01*
X-130952Y-17471279D01*
X-35714Y-17471279D01*
X11904Y-17495089D01*
X35714Y-17518898D01*
X59523Y-17566517D01*
X2273809Y-19661755D02*
X1773809Y-19495089D01*
X2273809Y-19328422D01*
X2035714Y-18995089D02*
X2011904Y-18923660D01*
X1988095Y-18899851D01*
X1940476Y-18876041D01*
X1869047Y-18876041D01*
X1821428Y-18899851D01*
X1797619Y-18923660D01*
X1773809Y-18971279D01*
X1773809Y-19161755D01*
X2273809Y-19161755D01*
X2273809Y-18995089D01*
X2250000Y-18947470D01*
X2226190Y-18923660D01*
X2178571Y-18899851D01*
X2130952Y-18899851D01*
X2083333Y-18923660D01*
X2059523Y-18947470D01*
X2035714Y-18995089D01*
X2035714Y-19161755D01*
X1916666Y-18685565D02*
X1916666Y-18447470D01*
X1773809Y-18733184D02*
X2273809Y-18566517D01*
X1773809Y-18399851D01*
X2273809Y-18304613D02*
X2273809Y-18018898D01*
X1773809Y-18161755D02*
X2273809Y-18161755D01*
D11*
%TO.C,C9*%
X-4083333Y-13107142D02*
X-4035714Y-13154761D01*
X-3892857Y-13202380D01*
X-3797619Y-13202380D01*
X-3654761Y-13154761D01*
X-3559523Y-13059523D01*
X-3511904Y-12964285D01*
X-3464285Y-12773809D01*
X-3464285Y-12630952D01*
X-3511904Y-12440476D01*
X-3559523Y-12345238D01*
X-3654761Y-12250000D01*
X-3797619Y-12202380D01*
X-3892857Y-12202380D01*
X-4035714Y-12250000D01*
X-4083333Y-12297619D01*
X-4559523Y-13202380D02*
X-4749999Y-13202380D01*
X-4845238Y-13154761D01*
X-4892857Y-13107142D01*
X-4988095Y-12964285D01*
X-5035714Y-12773809D01*
X-5035714Y-12392857D01*
X-4988095Y-12297619D01*
X-4940476Y-12250000D01*
X-4845238Y-12202380D01*
X-4654761Y-12202380D01*
X-4559523Y-12250000D01*
X-4511904Y-12297619D01*
X-4464285Y-12392857D01*
X-4464285Y-12630952D01*
X-4511904Y-12726190D01*
X-4559523Y-12773809D01*
X-4654761Y-12821428D01*
X-4845238Y-12821428D01*
X-4940476Y-12773809D01*
X-4988095Y-12726190D01*
X-5035714Y-12630952D01*
%TO.C,U6*%
X21011904Y-2202380D02*
X21011904Y-3011904D01*
X20964285Y-3107142D01*
X20916666Y-3154761D01*
X20821428Y-3202380D01*
X20630952Y-3202380D01*
X20535714Y-3154761D01*
X20488095Y-3107142D01*
X20440476Y-3011904D01*
X20440476Y-2202380D01*
X19535714Y-2202380D02*
X19726190Y-2202380D01*
X19821428Y-2250000D01*
X19869047Y-2297619D01*
X19964285Y-2440476D01*
X20011904Y-2630952D01*
X20011904Y-3011904D01*
X19964285Y-3107142D01*
X19916666Y-3154761D01*
X19821428Y-3202380D01*
X19630952Y-3202380D01*
X19535714Y-3154761D01*
X19488095Y-3107142D01*
X19440476Y-3011904D01*
X19440476Y-2773809D01*
X19488095Y-2678571D01*
X19535714Y-2630952D01*
X19630952Y-2583333D01*
X19821428Y-2583333D01*
X19916666Y-2630952D01*
X19964285Y-2678571D01*
X20011904Y-2773809D01*
%TO.C,C5*%
X8916666Y-1857142D02*
X8964285Y-1904761D01*
X9107142Y-1952380D01*
X9202380Y-1952380D01*
X9345238Y-1904761D01*
X9440476Y-1809523D01*
X9488095Y-1714285D01*
X9535714Y-1523809D01*
X9535714Y-1380952D01*
X9488095Y-1190476D01*
X9440476Y-1095238D01*
X9345238Y-1000000D01*
X9202380Y-952380D01*
X9107142Y-952380D01*
X8964285Y-1000000D01*
X8916666Y-1047619D01*
X8011904Y-952380D02*
X8488095Y-952380D01*
X8535714Y-1428571D01*
X8488095Y-1380952D01*
X8392857Y-1333333D01*
X8154761Y-1333333D01*
X8059523Y-1380952D01*
X8011904Y-1428571D01*
X7964285Y-1523809D01*
X7964285Y-1761904D01*
X8011904Y-1857142D01*
X8059523Y-1904761D01*
X8154761Y-1952380D01*
X8392857Y-1952380D01*
X8488095Y-1904761D01*
X8535714Y-1857142D01*
D13*
%TO.C,J6*%
X166666Y-22476190D02*
X166666Y-22833333D01*
X190476Y-22904761D01*
X238095Y-22952380D01*
X309523Y-22976190D01*
X357142Y-22976190D01*
X-285714Y-22476190D02*
X-190476Y-22476190D01*
X-142857Y-22500000D01*
X-119047Y-22523809D01*
X-71428Y-22595238D01*
X-47619Y-22690476D01*
X-47619Y-22880952D01*
X-71428Y-22928571D01*
X-95238Y-22952380D01*
X-142857Y-22976190D01*
X-238095Y-22976190D01*
X-285714Y-22952380D01*
X-309523Y-22928571D01*
X-333333Y-22880952D01*
X-333333Y-22761904D01*
X-309523Y-22714285D01*
X-285714Y-22690476D01*
X-238095Y-22666666D01*
X-142857Y-22666666D01*
X-95238Y-22690476D01*
X-71428Y-22714285D01*
X-47619Y-22761904D01*
D11*
%TO.C,C1*%
X3666666Y-15787142D02*
X3714285Y-15834761D01*
X3857142Y-15882380D01*
X3952380Y-15882380D01*
X4095238Y-15834761D01*
X4190476Y-15739523D01*
X4238095Y-15644285D01*
X4285714Y-15453809D01*
X4285714Y-15310952D01*
X4238095Y-15120476D01*
X4190476Y-15025238D01*
X4095238Y-14930000D01*
X3952380Y-14882380D01*
X3857142Y-14882380D01*
X3714285Y-14930000D01*
X3666666Y-14977619D01*
X2714285Y-15882380D02*
X3285714Y-15882380D01*
X3000000Y-15882380D02*
X3000000Y-14882380D01*
X3095238Y-15025238D01*
X3190476Y-15120476D01*
X3285714Y-15168095D01*
%TO.C,C6*%
X10916666Y9642857D02*
X10964285Y9595238D01*
X11107142Y9547619D01*
X11202380Y9547619D01*
X11345238Y9595238D01*
X11440476Y9690476D01*
X11488095Y9785714D01*
X11535714Y9976190D01*
X11535714Y10119047D01*
X11488095Y10309523D01*
X11440476Y10404761D01*
X11345238Y10500000D01*
X11202380Y10547619D01*
X11107142Y10547619D01*
X10964285Y10500000D01*
X10916666Y10452380D01*
X10059523Y10547619D02*
X10250000Y10547619D01*
X10345238Y10500000D01*
X10392857Y10452380D01*
X10488095Y10309523D01*
X10535714Y10119047D01*
X10535714Y9738095D01*
X10488095Y9642857D01*
X10440476Y9595238D01*
X10345238Y9547619D01*
X10154761Y9547619D01*
X10059523Y9595238D01*
X10011904Y9642857D01*
X9964285Y9738095D01*
X9964285Y9976190D01*
X10011904Y10071428D01*
X10059523Y10119047D01*
X10154761Y10166666D01*
X10345238Y10166666D01*
X10440476Y10119047D01*
X10488095Y10071428D01*
X10535714Y9976190D01*
D13*
%TO.C,J5*%
X2166666Y-22476190D02*
X2166666Y-22833333D01*
X2190476Y-22904761D01*
X2238095Y-22952380D01*
X2309523Y-22976190D01*
X2357142Y-22976190D01*
X1690476Y-22476190D02*
X1928571Y-22476190D01*
X1952380Y-22714285D01*
X1928571Y-22690476D01*
X1880952Y-22666666D01*
X1761904Y-22666666D01*
X1714285Y-22690476D01*
X1690476Y-22714285D01*
X1666666Y-22761904D01*
X1666666Y-22880952D01*
X1690476Y-22928571D01*
X1714285Y-22952380D01*
X1761904Y-22976190D01*
X1880952Y-22976190D01*
X1928571Y-22952380D01*
X1952380Y-22928571D01*
%TO.C,J4*%
X4166666Y-22476190D02*
X4166666Y-22833333D01*
X4190476Y-22904761D01*
X4238095Y-22952380D01*
X4309523Y-22976190D01*
X4357142Y-22976190D01*
X3714285Y-22642857D02*
X3714285Y-22976190D01*
X3833333Y-22452380D02*
X3952380Y-22809523D01*
X3642857Y-22809523D01*
%TO.C,J8*%
X-3833333Y-22476190D02*
X-3833333Y-22833333D01*
X-3809523Y-22904761D01*
X-3761904Y-22952380D01*
X-3690476Y-22976190D01*
X-3642857Y-22976190D01*
X-4142857Y-22690476D02*
X-4095238Y-22666666D01*
X-4071428Y-22642857D01*
X-4047619Y-22595238D01*
X-4047619Y-22571428D01*
X-4071428Y-22523809D01*
X-4095238Y-22500000D01*
X-4142857Y-22476190D01*
X-4238095Y-22476190D01*
X-4285714Y-22500000D01*
X-4309523Y-22523809D01*
X-4333333Y-22571428D01*
X-4333333Y-22595238D01*
X-4309523Y-22642857D01*
X-4285714Y-22666666D01*
X-4238095Y-22690476D01*
X-4142857Y-22690476D01*
X-4095238Y-22714285D01*
X-4071428Y-22738095D01*
X-4047619Y-22785714D01*
X-4047619Y-22880952D01*
X-4071428Y-22928571D01*
X-4095238Y-22952380D01*
X-4142857Y-22976190D01*
X-4238095Y-22976190D01*
X-4285714Y-22952380D01*
X-4309523Y-22928571D01*
X-4333333Y-22880952D01*
X-4333333Y-22785714D01*
X-4309523Y-22738095D01*
X-4285714Y-22714285D01*
X-4238095Y-22690476D01*
D11*
%TO.C,R4*%
X12916666Y4547619D02*
X13250000Y5023809D01*
X13488095Y4547619D02*
X13488095Y5547619D01*
X13107142Y5547619D01*
X13011904Y5500000D01*
X12964285Y5452380D01*
X12916666Y5357142D01*
X12916666Y5214285D01*
X12964285Y5119047D01*
X13011904Y5071428D01*
X13107142Y5023809D01*
X13488095Y5023809D01*
X12059523Y5214285D02*
X12059523Y4547619D01*
X12297619Y5595238D02*
X12535714Y4880952D01*
X11916666Y4880952D01*
D14*
%TO.C,IC1*%
X-5260238Y-16524523D02*
X-5260238Y-15254523D01*
X-6590714Y-16403571D02*
X-6530238Y-16464047D01*
X-6348809Y-16524523D01*
X-6227857Y-16524523D01*
X-6046428Y-16464047D01*
X-5925476Y-16343095D01*
X-5865000Y-16222142D01*
X-5804523Y-15980238D01*
X-5804523Y-15798809D01*
X-5865000Y-15556904D01*
X-5925476Y-15435952D01*
X-6046428Y-15315000D01*
X-6227857Y-15254523D01*
X-6348809Y-15254523D01*
X-6530238Y-15315000D01*
X-6590714Y-15375476D01*
X-7800238Y-16524523D02*
X-7074523Y-16524523D01*
X-7437380Y-16524523D02*
X-7437380Y-15254523D01*
X-7316428Y-15435952D01*
X-7195476Y-15556904D01*
X-7074523Y-15617380D01*
D11*
%TO.C,R1*%
X2666666Y-2202380D02*
X3000000Y-1726190D01*
X3238095Y-2202380D02*
X3238095Y-1202380D01*
X2857142Y-1202380D01*
X2761904Y-1250000D01*
X2714285Y-1297619D01*
X2666666Y-1392857D01*
X2666666Y-1535714D01*
X2714285Y-1630952D01*
X2761904Y-1678571D01*
X2857142Y-1726190D01*
X3238095Y-1726190D01*
X1714285Y-2202380D02*
X2285714Y-2202380D01*
X2000000Y-2202380D02*
X2000000Y-1202380D01*
X2095238Y-1345238D01*
X2190476Y-1440476D01*
X2285714Y-1488095D01*
%TO.C,C7*%
X10916666Y17392857D02*
X10964285Y17345238D01*
X11107142Y17297619D01*
X11202380Y17297619D01*
X11345238Y17345238D01*
X11440476Y17440476D01*
X11488095Y17535714D01*
X11535714Y17726190D01*
X11535714Y17869047D01*
X11488095Y18059523D01*
X11440476Y18154761D01*
X11345238Y18250000D01*
X11202380Y18297619D01*
X11107142Y18297619D01*
X10964285Y18250000D01*
X10916666Y18202380D01*
X10583333Y18297619D02*
X9916666Y18297619D01*
X10345238Y17297619D01*
%TO.C,C10*%
X-4107142Y-11607142D02*
X-4059523Y-11654761D01*
X-3916666Y-11702380D01*
X-3821428Y-11702380D01*
X-3678571Y-11654761D01*
X-3583333Y-11559523D01*
X-3535714Y-11464285D01*
X-3488095Y-11273809D01*
X-3488095Y-11130952D01*
X-3535714Y-10940476D01*
X-3583333Y-10845238D01*
X-3678571Y-10750000D01*
X-3821428Y-10702380D01*
X-3916666Y-10702380D01*
X-4059523Y-10750000D01*
X-4107142Y-10797619D01*
X-5059523Y-11702380D02*
X-4488095Y-11702380D01*
X-4773809Y-11702380D02*
X-4773809Y-10702380D01*
X-4678571Y-10845238D01*
X-4583333Y-10940476D01*
X-4488095Y-10988095D01*
X-5678571Y-10702380D02*
X-5773809Y-10702380D01*
X-5869047Y-10750000D01*
X-5916666Y-10797619D01*
X-5964285Y-10892857D01*
X-6011904Y-11083333D01*
X-6011904Y-11321428D01*
X-5964285Y-11511904D01*
X-5916666Y-11607142D01*
X-5869047Y-11654761D01*
X-5773809Y-11702380D01*
X-5678571Y-11702380D01*
X-5583333Y-11654761D01*
X-5535714Y-11607142D01*
X-5488095Y-11511904D01*
X-5440476Y-11321428D01*
X-5440476Y-11083333D01*
X-5488095Y-10892857D01*
X-5535714Y-10797619D01*
X-5583333Y-10750000D01*
X-5678571Y-10702380D01*
%TO.C,R2*%
X-10833333Y15797619D02*
X-10500000Y16273809D01*
X-10261904Y15797619D02*
X-10261904Y16797619D01*
X-10642857Y16797619D01*
X-10738095Y16750000D01*
X-10785714Y16702380D01*
X-10833333Y16607142D01*
X-10833333Y16464285D01*
X-10785714Y16369047D01*
X-10738095Y16321428D01*
X-10642857Y16273809D01*
X-10261904Y16273809D01*
X-11214285Y16702380D02*
X-11261904Y16750000D01*
X-11357142Y16797619D01*
X-11595238Y16797619D01*
X-11690476Y16750000D01*
X-11738095Y16702380D01*
X-11785714Y16607142D01*
X-11785714Y16511904D01*
X-11738095Y16369047D01*
X-11166666Y15797619D01*
X-11785714Y15797619D01*
%TO.C,U4*%
X761904Y23047619D02*
X761904Y22238095D01*
X714285Y22142857D01*
X666666Y22095238D01*
X571428Y22047619D01*
X380952Y22047619D01*
X285714Y22095238D01*
X238095Y22142857D01*
X190476Y22238095D01*
X190476Y23047619D01*
X-714285Y22714285D02*
X-714285Y22047619D01*
X-476190Y23095238D02*
X-238095Y22380952D01*
X-857142Y22380952D01*
D13*
%TO.C,J7*%
X-1833333Y-22476190D02*
X-1833333Y-22833333D01*
X-1809523Y-22904761D01*
X-1761904Y-22952380D01*
X-1690476Y-22976190D01*
X-1642857Y-22976190D01*
X-2023809Y-22476190D02*
X-2357142Y-22476190D01*
X-2142857Y-22976190D01*
D11*
%TO.C,PS1*%
X214285Y-5202380D02*
X214285Y-4202380D01*
X-166666Y-4202380D01*
X-261904Y-4250000D01*
X-309523Y-4297619D01*
X-357142Y-4392857D01*
X-357142Y-4535714D01*
X-309523Y-4630952D01*
X-261904Y-4678571D01*
X-166666Y-4726190D01*
X214285Y-4726190D01*
X-738095Y-5154761D02*
X-880952Y-5202380D01*
X-1119047Y-5202380D01*
X-1214285Y-5154761D01*
X-1261904Y-5107142D01*
X-1309523Y-5011904D01*
X-1309523Y-4916666D01*
X-1261904Y-4821428D01*
X-1214285Y-4773809D01*
X-1119047Y-4726190D01*
X-928571Y-4678571D01*
X-833333Y-4630952D01*
X-785714Y-4583333D01*
X-738095Y-4488095D01*
X-738095Y-4392857D01*
X-785714Y-4297619D01*
X-833333Y-4250000D01*
X-928571Y-4202380D01*
X-1166666Y-4202380D01*
X-1309523Y-4250000D01*
X-2261904Y-5202380D02*
X-1690476Y-5202380D01*
X-1976190Y-5202380D02*
X-1976190Y-4202380D01*
X-1880952Y-4345238D01*
X-1785714Y-4440476D01*
X-1690476Y-4488095D01*
%TO.C,R3*%
X12916666Y6547619D02*
X13250000Y7023809D01*
X13488095Y6547619D02*
X13488095Y7547619D01*
X13107142Y7547619D01*
X13011904Y7500000D01*
X12964285Y7452380D01*
X12916666Y7357142D01*
X12916666Y7214285D01*
X12964285Y7119047D01*
X13011904Y7071428D01*
X13107142Y7023809D01*
X13488095Y7023809D01*
X12583333Y7547619D02*
X11964285Y7547619D01*
X12297619Y7166666D01*
X12154761Y7166666D01*
X12059523Y7119047D01*
X12011904Y7071428D01*
X11964285Y6976190D01*
X11964285Y6738095D01*
X12011904Y6642857D01*
X12059523Y6595238D01*
X12154761Y6547619D01*
X12440476Y6547619D01*
X12535714Y6595238D01*
X12583333Y6642857D01*
%TO.C,C4*%
X-2583333Y-1857142D02*
X-2535714Y-1904761D01*
X-2392857Y-1952380D01*
X-2297619Y-1952380D01*
X-2154761Y-1904761D01*
X-2059523Y-1809523D01*
X-2011904Y-1714285D01*
X-1964285Y-1523809D01*
X-1964285Y-1380952D01*
X-2011904Y-1190476D01*
X-2059523Y-1095238D01*
X-2154761Y-1000000D01*
X-2297619Y-952380D01*
X-2392857Y-952380D01*
X-2535714Y-1000000D01*
X-2583333Y-1047619D01*
X-3440476Y-1285714D02*
X-3440476Y-1952380D01*
X-3202380Y-904761D02*
X-2964285Y-1619047D01*
X-3583333Y-1619047D01*
%TO.C,C3*%
X19916666Y-9857142D02*
X19964285Y-9904761D01*
X20107142Y-9952380D01*
X20202380Y-9952380D01*
X20345238Y-9904761D01*
X20440476Y-9809523D01*
X20488095Y-9714285D01*
X20535714Y-9523809D01*
X20535714Y-9380952D01*
X20488095Y-9190476D01*
X20440476Y-9095238D01*
X20345238Y-9000000D01*
X20202380Y-8952380D01*
X20107142Y-8952380D01*
X19964285Y-9000000D01*
X19916666Y-9047619D01*
X19583333Y-8952380D02*
X18964285Y-8952380D01*
X19297619Y-9333333D01*
X19154761Y-9333333D01*
X19059523Y-9380952D01*
X19011904Y-9428571D01*
X18964285Y-9523809D01*
X18964285Y-9761904D01*
X19011904Y-9857142D01*
X19059523Y-9904761D01*
X19154761Y-9952380D01*
X19440476Y-9952380D01*
X19535714Y-9904761D01*
X19583333Y-9857142D01*
D15*
%TO.C,C9*%
X-1890580Y-12240000D02*
X-1609420Y-12240000D01*
X-1890580Y-13260000D02*
X-1609420Y-13260000D01*
%TO.C,U6*%
X18910000Y-8350000D02*
X18910000Y-2340000D01*
X12090000Y-2340000D02*
X13350000Y-2340000D01*
X12090000Y-6100000D02*
X12090000Y-2340000D01*
X18910000Y-2340000D02*
X17650000Y-2340000D01*
%TO.C,C5*%
X9990000Y-1640580D02*
X9990000Y-1359420D01*
X11010000Y-1640580D02*
X11010000Y-1359420D01*
%TO.C,C1*%
X3359420Y-14510000D02*
X3640580Y-14510000D01*
X3359420Y-13490000D02*
X3640580Y-13490000D01*
%TO.C,C6*%
X11260000Y12390580D02*
X11260000Y12109420D01*
X10240000Y12390580D02*
X10240000Y12109420D01*
%TO.C,R4*%
X11522500Y4262742D02*
X11522500Y4737258D01*
X10477500Y4262742D02*
X10477500Y4737258D01*
D16*
%TO.C,IC1*%
X-4525000Y-14075000D02*
G75*
G03*
X-4525000Y-14075000I-125000J0D01*
G01*
D15*
%TO.C,R1*%
X1372500Y-1737258D02*
X1372500Y-1262742D01*
X327500Y-1737258D02*
X327500Y-1262742D01*
%TO.C,C7*%
X11260000Y15359420D02*
X11260000Y15640580D01*
X10240000Y15359420D02*
X10240000Y15640580D01*
%TO.C,C10*%
X-1865580Y-11760000D02*
X-1584420Y-11760000D01*
X-1865580Y-10740000D02*
X-1584420Y-10740000D01*
%TO.C,R2*%
X-9977500Y18987258D02*
X-9977500Y18512742D01*
X-11022500Y18987258D02*
X-11022500Y18512742D01*
D17*
%TO.C,U4*%
X9000000Y21000000D02*
X9000000Y14670000D01*
X-9000000Y21000000D02*
X9000000Y21000000D01*
X9000000Y1000000D02*
X9000000Y1130000D01*
X-9000000Y14670000D02*
X-9000000Y21000000D01*
X9000000Y1000000D02*
X-9000000Y1000000D01*
X-9000000Y1000000D02*
X-9000000Y1130000D01*
D18*
X10600000Y13900000D02*
G75*
G03*
X10600000Y13900000I-100000J0D01*
G01*
D17*
%TO.C,PS1*%
X1500000Y-3750000D02*
X1500000Y-4765000D01*
X8500000Y-12750000D02*
X8500000Y-11635000D01*
X1500000Y-11735000D02*
X1500000Y-12750000D01*
X8500000Y-3750000D02*
X1500000Y-3750000D01*
X1500000Y-12750000D02*
X8500000Y-12750000D01*
X8500000Y-3750000D02*
X8500000Y-4865000D01*
D18*
X250000Y-10790000D02*
G75*
G03*
X250000Y-10790000I-100000J0D01*
G01*
D15*
%TO.C,R3*%
X10477500Y7737258D02*
X10477500Y7262742D01*
X11522500Y7737258D02*
X11522500Y7262742D01*
%TO.C,C4*%
X-1410000Y-1359420D02*
X-1410000Y-1640580D01*
X-390000Y-1359420D02*
X-390000Y-1640580D01*
%TO.C,C3*%
X17140580Y-10010000D02*
X16859420Y-10010000D01*
X17140580Y-8990000D02*
X16859420Y-8990000D01*
%TD*%
M02*
