%TF.GenerationSoftware,KiCad,Pcbnew,6.0.10-86aedd382b~118~ubuntu22.04.1*%
%TF.CreationDate,2023-03-14T18:16:05-07:00*%
%TF.ProjectId,compact-probe,636f6d70-6163-4742-9d70-726f62652e6b,rev?*%
%TF.SameCoordinates,Original*%
%TF.FileFunction,Soldermask,Bot*%
%TF.FilePolarity,Negative*%
%FSLAX46Y46*%
G04 Gerber Fmt 4.6, Leading zero omitted, Abs format (unit mm)*
G04 Created by KiCad (PCBNEW 6.0.10-86aedd382b~118~ubuntu22.04.1) date 2023-03-14 18:16:05*
%MOMM*%
%LPD*%
G01*
G04 APERTURE LIST*
G04 Aperture macros list*
%AMRoundRect*
0 Rectangle with rounded corners*
0 $1 Rounding radius*
0 $2 $3 $4 $5 $6 $7 $8 $9 X,Y pos of 4 corners*
0 Add a 4 corners polygon primitive as box body*
4,1,4,$2,$3,$4,$5,$6,$7,$8,$9,$2,$3,0*
0 Add four circle primitives for the rounded corners*
1,1,$1+$1,$2,$3*
1,1,$1+$1,$4,$5*
1,1,$1+$1,$6,$7*
1,1,$1+$1,$8,$9*
0 Add four rect primitives between the rounded corners*
20,1,$1+$1,$2,$3,$4,$5,0*
20,1,$1+$1,$4,$5,$6,$7,0*
20,1,$1+$1,$6,$7,$8,$9,0*
20,1,$1+$1,$8,$9,$2,$3,0*%
G04 Aperture macros list end*
%ADD10R,1.000000X1.000000*%
%ADD11O,1.000000X1.000000*%
%ADD12RoundRect,0.225000X-0.225000X-0.250000X0.225000X-0.250000X0.225000X0.250000X-0.225000X0.250000X0*%
%ADD13R,1.500000X2.000000*%
%ADD14R,3.800000X2.000000*%
%ADD15RoundRect,0.225000X0.250000X-0.225000X0.250000X0.225000X-0.250000X0.225000X-0.250000X-0.225000X0*%
%ADD16RoundRect,0.250000X0.250000X0.750000X-0.250000X0.750000X-0.250000X-0.750000X0.250000X-0.750000X0*%
%ADD17RoundRect,0.225000X-0.250000X0.225000X-0.250000X-0.225000X0.250000X-0.225000X0.250000X0.225000X0*%
%ADD18RoundRect,0.200000X0.275000X-0.200000X0.275000X0.200000X-0.275000X0.200000X-0.275000X-0.200000X0*%
%ADD19R,0.350000X0.850000*%
%ADD20R,2.500000X1.700000*%
%ADD21RoundRect,0.200000X-0.275000X0.200000X-0.275000X-0.200000X0.275000X-0.200000X0.275000X0.200000X0*%
%ADD22R,1.500000X0.900000*%
%ADD23R,0.700000X0.700000*%
%ADD24R,3.520000X1.250000*%
%ADD25R,2.220000X1.050000*%
%ADD26RoundRect,0.225000X0.225000X0.250000X-0.225000X0.250000X-0.225000X-0.250000X0.225000X-0.250000X0*%
G04 APERTURE END LIST*
D10*
%TO.C,J3*%
X-21500000Y2550000D03*
D11*
X-20230000Y2550000D03*
X-21500000Y1280000D03*
X-20230000Y1280000D03*
X-21500000Y10000D03*
X-20230000Y10000D03*
X-21500000Y-1260000D03*
X-20230000Y-1260000D03*
X-21500000Y-2530000D03*
X-20230000Y-2530000D03*
%TD*%
D12*
%TO.C,C9*%
X-975000Y-12750000D03*
X-2525000Y-12750000D03*
%TD*%
D13*
%TO.C,U6*%
X17800000Y-7400000D03*
X15500000Y-7400000D03*
D14*
X15500000Y-1100000D03*
D13*
X13200000Y-7400000D03*
%TD*%
D15*
%TO.C,C5*%
X10500000Y-725000D03*
X10500000Y-2275000D03*
%TD*%
D16*
%TO.C,J6*%
X0Y-21000000D03*
%TD*%
D12*
%TO.C,C1*%
X2725000Y-14000000D03*
X4275000Y-14000000D03*
%TD*%
D17*
%TO.C,C6*%
X10750000Y13025000D03*
X10750000Y11475000D03*
%TD*%
D16*
%TO.C,J5*%
X2000000Y-21000000D03*
%TD*%
%TO.C,J4*%
X4000000Y-21000000D03*
%TD*%
%TO.C,J8*%
X-4000000Y-21000000D03*
%TD*%
D18*
%TO.C,R4*%
X11000000Y3675000D03*
X11000000Y5325000D03*
%TD*%
D19*
%TO.C,IC1*%
X-3975000Y-14500000D03*
X-3325000Y-14500000D03*
X-2675000Y-14500000D03*
X-2025000Y-14500000D03*
X-2025000Y-17400000D03*
X-2675000Y-17400000D03*
X-3325000Y-17400000D03*
X-3975000Y-17400000D03*
D20*
X-3000000Y-15950000D03*
%TD*%
D18*
%TO.C,R1*%
X850000Y-2325000D03*
X850000Y-675000D03*
%TD*%
D15*
%TO.C,C7*%
X10750000Y14725000D03*
X10750000Y16275000D03*
%TD*%
D12*
%TO.C,C10*%
X-2500000Y-11250000D03*
X-950000Y-11250000D03*
%TD*%
D21*
%TO.C,R2*%
X-10500000Y19575000D03*
X-10500000Y17925000D03*
%TD*%
D22*
%TO.C,U4*%
X8750000Y13900000D03*
X8750000Y12400000D03*
X8750000Y10900000D03*
X8750000Y9400000D03*
X8750000Y7900000D03*
X8750000Y6400000D03*
X8750000Y4900000D03*
X8750000Y3400000D03*
X8750000Y1900000D03*
X-8750000Y1900000D03*
X-8750000Y3400000D03*
X-8750000Y4900000D03*
X-8750000Y6400000D03*
X-8750000Y7900000D03*
X-8750000Y9400000D03*
X-8750000Y10900000D03*
X-8750000Y12400000D03*
X-8750000Y13900000D03*
D23*
X140000Y8800000D03*
X-960000Y8800000D03*
X-2060000Y8800000D03*
X140000Y7700000D03*
X-960000Y7700000D03*
X-2060000Y7700000D03*
X140000Y6600000D03*
X-960000Y6600000D03*
X-2060000Y6600000D03*
%TD*%
D16*
%TO.C,J7*%
X-2000000Y-21000000D03*
%TD*%
D24*
%TO.C,PS1*%
X2610000Y-10790000D03*
X2610000Y-8250000D03*
X2610000Y-5710000D03*
D25*
X8040000Y-5710000D03*
D24*
X7390000Y-8250000D03*
D25*
X8040000Y-10790000D03*
%TD*%
D21*
%TO.C,R3*%
X11000000Y8325000D03*
X11000000Y6675000D03*
%TD*%
D17*
%TO.C,C4*%
X-900000Y-725000D03*
X-900000Y-2275000D03*
%TD*%
D26*
%TO.C,C3*%
X17775000Y-9500000D03*
X16225000Y-9500000D03*
%TD*%
M02*
