%TF.GenerationSoftware,KiCad,Pcbnew,6.0.10-86aedd382b~118~ubuntu22.04.1*%
%TF.CreationDate,2023-03-14T18:16:05-07:00*%
%TF.ProjectId,compact-probe,636f6d70-6163-4742-9d70-726f62652e6b,rev?*%
%TF.SameCoordinates,Original*%
%TF.FileFunction,Legend,Top*%
%TF.FilePolarity,Positive*%
%FSLAX46Y46*%
G04 Gerber Fmt 4.6, Leading zero omitted, Abs format (unit mm)*
G04 Created by KiCad (PCBNEW 6.0.10-86aedd382b~118~ubuntu22.04.1) date 2023-03-14 18:16:05*
%MOMM*%
%LPD*%
G01*
G04 APERTURE LIST*
%ADD10C,0.150000*%
%ADD11C,0.050000*%
%ADD12C,0.120000*%
%ADD13C,0.127000*%
%ADD14C,0.300000*%
G04 APERTURE END LIST*
D10*
X-12000000Y15000000D02*
G75*
G03*
X-12000000Y15000000I-3000000J0D01*
G01*
X-12000000Y-15000000D02*
G75*
G03*
X-12000000Y-15000000I-3000000J0D01*
G01*
D11*
X0Y-2000000D02*
X0Y2000000D01*
D10*
X-24000000Y-750000D02*
X24000000Y-750000D01*
X18000000Y-15000000D02*
G75*
G03*
X18000000Y-15000000I-3000000J0D01*
G01*
X-24000000Y750000D02*
X24000000Y750000D01*
X18000000Y15000000D02*
G75*
G03*
X18000000Y15000000I-3000000J0D01*
G01*
X-3009642Y19686250D02*
X-2652500Y19686250D01*
X-3081071Y19471964D02*
X-2831071Y20221964D01*
X-2581071Y19471964D01*
X-2331071Y19471964D02*
X-2331071Y19971964D01*
X-2331071Y20221964D02*
X-2366785Y20186250D01*
X-2331071Y20150535D01*
X-2295357Y20186250D01*
X-2331071Y20221964D01*
X-2331071Y20150535D01*
X-1973928Y19471964D02*
X-1973928Y19971964D01*
X-1973928Y19829107D02*
X-1938214Y19900535D01*
X-1902500Y19936250D01*
X-1831071Y19971964D01*
X-1759642Y19971964D01*
X-1509642Y19471964D02*
X-1509642Y20221964D01*
X-1509642Y19936250D02*
X-1438214Y19971964D01*
X-1295357Y19971964D01*
X-1223928Y19936250D01*
X-1188214Y19900535D01*
X-1152500Y19829107D01*
X-1152500Y19614821D01*
X-1188214Y19543392D01*
X-1223928Y19507678D01*
X-1295357Y19471964D01*
X-1438214Y19471964D01*
X-1509642Y19507678D01*
X-509642Y19471964D02*
X-509642Y19864821D01*
X-545357Y19936250D01*
X-616785Y19971964D01*
X-759642Y19971964D01*
X-831071Y19936250D01*
X-509642Y19507678D02*
X-581071Y19471964D01*
X-759642Y19471964D01*
X-831071Y19507678D01*
X-866785Y19579107D01*
X-866785Y19650535D01*
X-831071Y19721964D01*
X-759642Y19757678D01*
X-581071Y19757678D01*
X-509642Y19793392D01*
X-45357Y19471964D02*
X-116785Y19507678D01*
X-152500Y19579107D01*
X-152500Y20221964D01*
X347500Y19471964D02*
X276071Y19507678D01*
X240357Y19579107D01*
X240357Y20221964D01*
X1633214Y19543392D02*
X1597500Y19507678D01*
X1490357Y19471964D01*
X1418928Y19471964D01*
X1311785Y19507678D01*
X1240357Y19579107D01*
X1204642Y19650535D01*
X1168928Y19793392D01*
X1168928Y19900535D01*
X1204642Y20043392D01*
X1240357Y20114821D01*
X1311785Y20186250D01*
X1418928Y20221964D01*
X1490357Y20221964D01*
X1597500Y20186250D01*
X1633214Y20150535D01*
X2061785Y19471964D02*
X1990357Y19507678D01*
X1954642Y19543392D01*
X1918928Y19614821D01*
X1918928Y19829107D01*
X1954642Y19900535D01*
X1990357Y19936250D01*
X2061785Y19971964D01*
X2168928Y19971964D01*
X2240357Y19936250D01*
X2276071Y19900535D01*
X2311785Y19829107D01*
X2311785Y19614821D01*
X2276071Y19543392D01*
X2240357Y19507678D01*
X2168928Y19471964D01*
X2061785Y19471964D01*
X2633214Y19471964D02*
X2633214Y19971964D01*
X2633214Y19900535D02*
X2668928Y19936250D01*
X2740357Y19971964D01*
X2847499Y19971964D01*
X2918928Y19936250D01*
X2954642Y19864821D01*
X2954642Y19471964D01*
X2954642Y19864821D02*
X2990357Y19936250D01*
X3061785Y19971964D01*
X3168928Y19971964D01*
X3240357Y19936250D01*
X3276071Y19864821D01*
X3276071Y19471964D01*
X3633214Y19971964D02*
X3633214Y19221964D01*
X3633214Y19936250D02*
X3704642Y19971964D01*
X3847499Y19971964D01*
X3918928Y19936250D01*
X3954642Y19900535D01*
X3990357Y19829107D01*
X3990357Y19614821D01*
X3954642Y19543392D01*
X3918928Y19507678D01*
X3847499Y19471964D01*
X3704642Y19471964D01*
X3633214Y19507678D01*
X4633214Y19471964D02*
X4633214Y19864821D01*
X4597499Y19936250D01*
X4526071Y19971964D01*
X4383214Y19971964D01*
X4311785Y19936250D01*
X4633214Y19507678D02*
X4561785Y19471964D01*
X4383214Y19471964D01*
X4311785Y19507678D01*
X4276071Y19579107D01*
X4276071Y19650535D01*
X4311785Y19721964D01*
X4383214Y19757678D01*
X4561785Y19757678D01*
X4633214Y19793392D01*
X5311785Y19507678D02*
X5240357Y19471964D01*
X5097499Y19471964D01*
X5026071Y19507678D01*
X4990357Y19543392D01*
X4954642Y19614821D01*
X4954642Y19829107D01*
X4990357Y19900535D01*
X5026071Y19936250D01*
X5097499Y19971964D01*
X5240357Y19971964D01*
X5311785Y19936250D01*
X5526071Y19971964D02*
X5811785Y19971964D01*
X5633214Y20221964D02*
X5633214Y19579107D01*
X5668928Y19507678D01*
X5740357Y19471964D01*
X5811785Y19471964D01*
X6633214Y19471964D02*
X6633214Y20221964D01*
X6918928Y20221964D01*
X6990357Y20186250D01*
X7026071Y20150535D01*
X7061785Y20079107D01*
X7061785Y19971964D01*
X7026071Y19900535D01*
X6990357Y19864821D01*
X6918928Y19829107D01*
X6633214Y19829107D01*
X7383214Y19471964D02*
X7383214Y19971964D01*
X7383214Y19829107D02*
X7418928Y19900535D01*
X7454642Y19936250D01*
X7526071Y19971964D01*
X7597500Y19971964D01*
X7954642Y19471964D02*
X7883214Y19507678D01*
X7847500Y19543392D01*
X7811785Y19614821D01*
X7811785Y19829107D01*
X7847500Y19900535D01*
X7883214Y19936250D01*
X7954642Y19971964D01*
X8061785Y19971964D01*
X8133214Y19936250D01*
X8168928Y19900535D01*
X8204642Y19829107D01*
X8204642Y19614821D01*
X8168928Y19543392D01*
X8133214Y19507678D01*
X8061785Y19471964D01*
X7954642Y19471964D01*
X8526071Y19471964D02*
X8526071Y20221964D01*
X8526071Y19936250D02*
X8597500Y19971964D01*
X8740357Y19971964D01*
X8811785Y19936250D01*
X8847500Y19900535D01*
X8883214Y19829107D01*
X8883214Y19614821D01*
X8847500Y19543392D01*
X8811785Y19507678D01*
X8740357Y19471964D01*
X8597500Y19471964D01*
X8526071Y19507678D01*
X9490357Y19507678D02*
X9418928Y19471964D01*
X9276071Y19471964D01*
X9204642Y19507678D01*
X9168928Y19579107D01*
X9168928Y19864821D01*
X9204642Y19936250D01*
X9276071Y19971964D01*
X9418928Y19971964D01*
X9490357Y19936250D01*
X9526071Y19864821D01*
X9526071Y19793392D01*
X9168928Y19721964D01*
X-2545357Y18335892D02*
X-2581071Y18300178D01*
X-2688214Y18264464D01*
X-2759642Y18264464D01*
X-2866785Y18300178D01*
X-2938214Y18371607D01*
X-2973928Y18443035D01*
X-3009642Y18585892D01*
X-3009642Y18693035D01*
X-2973928Y18835892D01*
X-2938214Y18907321D01*
X-2866785Y18978750D01*
X-2759642Y19014464D01*
X-2688214Y19014464D01*
X-2581071Y18978750D01*
X-2545357Y18943035D01*
X-2116785Y18264464D02*
X-2188214Y18300178D01*
X-2223928Y18335892D01*
X-2259642Y18407321D01*
X-2259642Y18621607D01*
X-2223928Y18693035D01*
X-2188214Y18728750D01*
X-2116785Y18764464D01*
X-2009642Y18764464D01*
X-1938214Y18728750D01*
X-1902500Y18693035D01*
X-1866785Y18621607D01*
X-1866785Y18407321D01*
X-1902500Y18335892D01*
X-1938214Y18300178D01*
X-2009642Y18264464D01*
X-2116785Y18264464D01*
X-1545357Y18764464D02*
X-1545357Y18014464D01*
X-1545357Y18728750D02*
X-1473928Y18764464D01*
X-1331071Y18764464D01*
X-1259642Y18728750D01*
X-1223928Y18693035D01*
X-1188214Y18621607D01*
X-1188214Y18407321D01*
X-1223928Y18335892D01*
X-1259642Y18300178D01*
X-1331071Y18264464D01*
X-1473928Y18264464D01*
X-1545357Y18300178D01*
X-938214Y18764464D02*
X-759642Y18264464D01*
X-581071Y18764464D02*
X-759642Y18264464D01*
X-831071Y18085892D01*
X-866785Y18050178D01*
X-938214Y18014464D01*
X-295357Y18264464D02*
X-295357Y18764464D01*
X-295357Y18621607D02*
X-259642Y18693035D01*
X-223928Y18728750D01*
X-152500Y18764464D01*
X-81071Y18764464D01*
X168928Y18264464D02*
X168928Y18764464D01*
X168928Y19014464D02*
X133214Y18978750D01*
X168928Y18943035D01*
X204642Y18978750D01*
X168928Y19014464D01*
X168928Y18943035D01*
X847500Y18764464D02*
X847500Y18157321D01*
X811785Y18085892D01*
X776071Y18050178D01*
X704642Y18014464D01*
X597500Y18014464D01*
X526071Y18050178D01*
X847500Y18300178D02*
X776071Y18264464D01*
X633214Y18264464D01*
X561785Y18300178D01*
X526071Y18335892D01*
X490357Y18407321D01*
X490357Y18621607D01*
X526071Y18693035D01*
X561785Y18728750D01*
X633214Y18764464D01*
X776071Y18764464D01*
X847500Y18728750D01*
X1204642Y18264464D02*
X1204642Y19014464D01*
X1526071Y18264464D02*
X1526071Y18657321D01*
X1490357Y18728750D01*
X1418928Y18764464D01*
X1311785Y18764464D01*
X1240357Y18728750D01*
X1204642Y18693035D01*
X1776071Y18764464D02*
X2061785Y18764464D01*
X1883214Y19014464D02*
X1883214Y18371607D01*
X1918928Y18300178D01*
X1990357Y18264464D01*
X2061785Y18264464D01*
X3490357Y18835892D02*
X3418928Y18871607D01*
X3276071Y18871607D01*
X3204642Y18835892D01*
X3133214Y18764464D01*
X3097499Y18693035D01*
X3097499Y18550178D01*
X3133214Y18478750D01*
X3204642Y18407321D01*
X3276071Y18371607D01*
X3418928Y18371607D01*
X3490357Y18407321D01*
X3347499Y19121607D02*
X3168928Y19085892D01*
X2990357Y18978750D01*
X2883214Y18800178D01*
X2847499Y18621607D01*
X2883214Y18443035D01*
X2990357Y18264464D01*
X3168928Y18157321D01*
X3347499Y18121607D01*
X3526071Y18157321D01*
X3704642Y18264464D01*
X3811785Y18443035D01*
X3847499Y18621607D01*
X3811785Y18800178D01*
X3704642Y18978750D01*
X3526071Y19085892D01*
X3347499Y19121607D01*
X4704642Y18943035D02*
X4740357Y18978750D01*
X4811785Y19014464D01*
X4990357Y19014464D01*
X5061785Y18978750D01*
X5097499Y18943035D01*
X5133214Y18871607D01*
X5133214Y18800178D01*
X5097499Y18693035D01*
X4668928Y18264464D01*
X5133214Y18264464D01*
X5597499Y19014464D02*
X5668928Y19014464D01*
X5740357Y18978750D01*
X5776071Y18943035D01*
X5811785Y18871607D01*
X5847499Y18728750D01*
X5847499Y18550178D01*
X5811785Y18407321D01*
X5776071Y18335892D01*
X5740357Y18300178D01*
X5668928Y18264464D01*
X5597499Y18264464D01*
X5526071Y18300178D01*
X5490357Y18335892D01*
X5454642Y18407321D01*
X5418928Y18550178D01*
X5418928Y18728750D01*
X5454642Y18871607D01*
X5490357Y18943035D01*
X5526071Y18978750D01*
X5597499Y19014464D01*
X6133214Y18943035D02*
X6168928Y18978750D01*
X6240357Y19014464D01*
X6418928Y19014464D01*
X6490357Y18978750D01*
X6526071Y18943035D01*
X6561785Y18871607D01*
X6561785Y18800178D01*
X6526071Y18693035D01*
X6097499Y18264464D01*
X6561785Y18264464D01*
X6811785Y19014464D02*
X7276071Y19014464D01*
X7026071Y18728750D01*
X7133214Y18728750D01*
X7204642Y18693035D01*
X7240357Y18657321D01*
X7276071Y18585892D01*
X7276071Y18407321D01*
X7240357Y18335892D01*
X7204642Y18300178D01*
X7133214Y18264464D01*
X6918928Y18264464D01*
X6847500Y18300178D01*
X6811785Y18335892D01*
X7633214Y18300178D02*
X7633214Y18264464D01*
X7597500Y18193035D01*
X7561785Y18157321D01*
X-3081071Y17806964D02*
X-2652500Y17806964D01*
X-2866785Y17056964D02*
X-2866785Y17806964D01*
X-2402500Y17056964D02*
X-2402500Y17806964D01*
X-2081071Y17056964D02*
X-2081071Y17449821D01*
X-2116785Y17521250D01*
X-2188214Y17556964D01*
X-2295357Y17556964D01*
X-2366785Y17521250D01*
X-2402500Y17485535D01*
X-1438214Y17092678D02*
X-1509642Y17056964D01*
X-1652500Y17056964D01*
X-1723928Y17092678D01*
X-1759642Y17164107D01*
X-1759642Y17449821D01*
X-1723928Y17521250D01*
X-1652500Y17556964D01*
X-1509642Y17556964D01*
X-1438214Y17521250D01*
X-1402500Y17449821D01*
X-1402500Y17378392D01*
X-1759642Y17306964D01*
X-545357Y17271250D02*
X-188214Y17271250D01*
X-616785Y17056964D02*
X-366785Y17806964D01*
X-116785Y17056964D01*
X133214Y17056964D02*
X133214Y17556964D01*
X133214Y17806964D02*
X97499Y17771250D01*
X133214Y17735535D01*
X168928Y17771250D01*
X133214Y17806964D01*
X133214Y17735535D01*
X490357Y17056964D02*
X490357Y17556964D01*
X490357Y17414107D02*
X526071Y17485535D01*
X561785Y17521250D01*
X633214Y17556964D01*
X704642Y17556964D01*
X954642Y17056964D02*
X954642Y17806964D01*
X954642Y17521250D02*
X1026071Y17556964D01*
X1168928Y17556964D01*
X1240357Y17521250D01*
X1276071Y17485535D01*
X1311785Y17414107D01*
X1311785Y17199821D01*
X1276071Y17128392D01*
X1240357Y17092678D01*
X1168928Y17056964D01*
X1026071Y17056964D01*
X954642Y17092678D01*
X1954642Y17056964D02*
X1954642Y17449821D01*
X1918928Y17521250D01*
X1847499Y17556964D01*
X1704642Y17556964D01*
X1633214Y17521250D01*
X1954642Y17092678D02*
X1883214Y17056964D01*
X1704642Y17056964D01*
X1633214Y17092678D01*
X1597499Y17164107D01*
X1597499Y17235535D01*
X1633214Y17306964D01*
X1704642Y17342678D01*
X1883214Y17342678D01*
X1954642Y17378392D01*
X2418928Y17056964D02*
X2347499Y17092678D01*
X2311785Y17164107D01*
X2311785Y17806964D01*
X2811785Y17056964D02*
X2740357Y17092678D01*
X2704642Y17164107D01*
X2704642Y17806964D01*
X3990357Y17056964D02*
X3990357Y17449821D01*
X3954642Y17521250D01*
X3883214Y17556964D01*
X3740357Y17556964D01*
X3668928Y17521250D01*
X3990357Y17092678D02*
X3918928Y17056964D01*
X3740357Y17056964D01*
X3668928Y17092678D01*
X3633214Y17164107D01*
X3633214Y17235535D01*
X3668928Y17306964D01*
X3740357Y17342678D01*
X3918928Y17342678D01*
X3990357Y17378392D01*
X4668928Y17556964D02*
X4668928Y17056964D01*
X4347499Y17556964D02*
X4347499Y17164107D01*
X4383214Y17092678D01*
X4454642Y17056964D01*
X4561785Y17056964D01*
X4633214Y17092678D01*
X4668928Y17128392D01*
X4918928Y17556964D02*
X5204642Y17556964D01*
X5026071Y17806964D02*
X5026071Y17164107D01*
X5061785Y17092678D01*
X5133214Y17056964D01*
X5204642Y17056964D01*
X5454642Y17056964D02*
X5454642Y17806964D01*
X5776071Y17056964D02*
X5776071Y17449821D01*
X5740357Y17521250D01*
X5668928Y17556964D01*
X5561785Y17556964D01*
X5490357Y17521250D01*
X5454642Y17485535D01*
X6240357Y17056964D02*
X6168928Y17092678D01*
X6133214Y17128392D01*
X6097500Y17199821D01*
X6097500Y17414107D01*
X6133214Y17485535D01*
X6168928Y17521250D01*
X6240357Y17556964D01*
X6347500Y17556964D01*
X6418928Y17521250D01*
X6454642Y17485535D01*
X6490357Y17414107D01*
X6490357Y17199821D01*
X6454642Y17128392D01*
X6418928Y17092678D01*
X6347500Y17056964D01*
X6240357Y17056964D01*
X6811785Y17056964D02*
X6811785Y17556964D01*
X6811785Y17414107D02*
X6847500Y17485535D01*
X6883214Y17521250D01*
X6954642Y17556964D01*
X7026071Y17556964D01*
X7240357Y17092678D02*
X7311785Y17056964D01*
X7454642Y17056964D01*
X7526071Y17092678D01*
X7561785Y17164107D01*
X7561785Y17199821D01*
X7526071Y17271250D01*
X7454642Y17306964D01*
X7347500Y17306964D01*
X7276071Y17342678D01*
X7240357Y17414107D01*
X7240357Y17449821D01*
X7276071Y17521250D01*
X7347500Y17556964D01*
X7454642Y17556964D01*
X7526071Y17521250D01*
X-3009642Y16528035D02*
X-2973928Y16563750D01*
X-2902500Y16599464D01*
X-2723928Y16599464D01*
X-2652500Y16563750D01*
X-2616785Y16528035D01*
X-2581071Y16456607D01*
X-2581071Y16385178D01*
X-2616785Y16278035D01*
X-3045357Y15849464D01*
X-2581071Y15849464D01*
X-2116785Y16599464D02*
X-2045357Y16599464D01*
X-1973928Y16563750D01*
X-1938214Y16528035D01*
X-1902500Y16456607D01*
X-1866785Y16313750D01*
X-1866785Y16135178D01*
X-1902500Y15992321D01*
X-1938214Y15920892D01*
X-1973928Y15885178D01*
X-2045357Y15849464D01*
X-2116785Y15849464D01*
X-2188214Y15885178D01*
X-2223928Y15920892D01*
X-2259642Y15992321D01*
X-2295357Y16135178D01*
X-2295357Y16313750D01*
X-2259642Y16456607D01*
X-2223928Y16528035D01*
X-2188214Y16563750D01*
X-2116785Y16599464D01*
X-1581071Y16528035D02*
X-1545357Y16563750D01*
X-1473928Y16599464D01*
X-1295357Y16599464D01*
X-1223928Y16563750D01*
X-1188214Y16528035D01*
X-1152500Y16456607D01*
X-1152500Y16385178D01*
X-1188214Y16278035D01*
X-1616785Y15849464D01*
X-1152500Y15849464D01*
X-902500Y16599464D02*
X-438214Y16599464D01*
X-688214Y16313750D01*
X-581071Y16313750D01*
X-509642Y16278035D01*
X-473928Y16242321D01*
X-438214Y16170892D01*
X-438214Y15992321D01*
X-473928Y15920892D01*
X-509642Y15885178D01*
X-581071Y15849464D01*
X-795357Y15849464D01*
X-866785Y15885178D01*
X-902500Y15920892D01*
X-116785Y16135178D02*
X454642Y16135178D01*
X954642Y16599464D02*
X1026071Y16599464D01*
X1097500Y16563750D01*
X1133214Y16528035D01*
X1168928Y16456607D01*
X1204642Y16313750D01*
X1204642Y16135178D01*
X1168928Y15992321D01*
X1133214Y15920892D01*
X1097500Y15885178D01*
X1026071Y15849464D01*
X954642Y15849464D01*
X883214Y15885178D01*
X847499Y15920892D01*
X811785Y15992321D01*
X776071Y16135178D01*
X776071Y16313750D01*
X811785Y16456607D01*
X847499Y16528035D01*
X883214Y16563750D01*
X954642Y16599464D01*
X1454642Y16599464D02*
X1918928Y16599464D01*
X1668928Y16313750D01*
X1776071Y16313750D01*
X1847500Y16278035D01*
X1883214Y16242321D01*
X1918928Y16170892D01*
X1918928Y15992321D01*
X1883214Y15920892D01*
X1847500Y15885178D01*
X1776071Y15849464D01*
X1561785Y15849464D01*
X1490357Y15885178D01*
X1454642Y15920892D01*
X2240357Y16135178D02*
X2811785Y16135178D01*
X3561785Y15849464D02*
X3133214Y15849464D01*
X3347500Y15849464D02*
X3347500Y16599464D01*
X3276071Y16492321D01*
X3204642Y16420892D01*
X3133214Y16385178D01*
X4204642Y16349464D02*
X4204642Y15849464D01*
X4026071Y16635178D02*
X3847500Y16099464D01*
X4311785Y16099464D01*
%TO.C,R5*%
X-3166666Y-20882380D02*
X-3500000Y-20406190D01*
X-3738095Y-20882380D02*
X-3738095Y-19882380D01*
X-3357142Y-19882380D01*
X-3261904Y-19930000D01*
X-3214285Y-19977619D01*
X-3166666Y-20072857D01*
X-3166666Y-20215714D01*
X-3214285Y-20310952D01*
X-3261904Y-20358571D01*
X-3357142Y-20406190D01*
X-3738095Y-20406190D01*
X-2261904Y-19882380D02*
X-2738095Y-19882380D01*
X-2785714Y-20358571D01*
X-2738095Y-20310952D01*
X-2642857Y-20263333D01*
X-2404761Y-20263333D01*
X-2309523Y-20310952D01*
X-2261904Y-20358571D01*
X-2214285Y-20453809D01*
X-2214285Y-20691904D01*
X-2261904Y-20787142D01*
X-2309523Y-20834761D01*
X-2404761Y-20882380D01*
X-2642857Y-20882380D01*
X-2738095Y-20834761D01*
X-2785714Y-20787142D01*
%TO.C,D1*%
X-10988095Y16547619D02*
X-10988095Y17547619D01*
X-10750000Y17547619D01*
X-10607142Y17500000D01*
X-10511904Y17404761D01*
X-10464285Y17309523D01*
X-10416666Y17119047D01*
X-10416666Y16976190D01*
X-10464285Y16785714D01*
X-10511904Y16690476D01*
X-10607142Y16595238D01*
X-10750000Y16547619D01*
X-10988095Y16547619D01*
X-9464285Y16547619D02*
X-10035714Y16547619D01*
X-9750000Y16547619D02*
X-9750000Y17547619D01*
X-9845238Y17404761D01*
X-9940476Y17309523D01*
X-10035714Y17261904D01*
%TO.C,J2*%
X17416275Y10048261D02*
X17416275Y9333137D01*
X17368600Y9190113D01*
X17273250Y9094763D01*
X17130226Y9047088D01*
X17034876Y9047088D01*
X17845349Y9952911D02*
X17893024Y10000586D01*
X17988374Y10048261D01*
X18226749Y10048261D01*
X18322098Y10000586D01*
X18369773Y9952911D01*
X18417448Y9857561D01*
X18417448Y9762211D01*
X18369773Y9619187D01*
X17797674Y9047088D01*
X18417448Y9047088D01*
%TO.C,J3*%
X-21198333Y4792619D02*
X-21198333Y4078333D01*
X-21245952Y3935476D01*
X-21341190Y3840238D01*
X-21484047Y3792619D01*
X-21579285Y3792619D01*
X-20817380Y4792619D02*
X-20198333Y4792619D01*
X-20531666Y4411666D01*
X-20388809Y4411666D01*
X-20293571Y4364047D01*
X-20245952Y4316428D01*
X-20198333Y4221190D01*
X-20198333Y3983095D01*
X-20245952Y3887857D01*
X-20293571Y3840238D01*
X-20388809Y3792619D01*
X-20674523Y3792619D01*
X-20769761Y3840238D01*
X-20817380Y3887857D01*
%TO.C,J1*%
X7666666Y8547619D02*
X7666666Y7833333D01*
X7619047Y7690476D01*
X7523809Y7595238D01*
X7380952Y7547619D01*
X7285714Y7547619D01*
X8666666Y7547619D02*
X8095238Y7547619D01*
X8380952Y7547619D02*
X8380952Y8547619D01*
X8285714Y8404761D01*
X8190476Y8309523D01*
X8095238Y8261904D01*
D12*
%TO.C,R5*%
X-2762742Y-18477500D02*
X-3237258Y-18477500D01*
X-2762742Y-19522500D02*
X-3237258Y-19522500D01*
%TO.C,D1*%
X-9515000Y20735000D02*
X-10985000Y20735000D01*
X-9515000Y18450000D02*
X-9515000Y20735000D01*
X-10985000Y20735000D02*
X-10985000Y18450000D01*
%TO.C,G\u002A\u002A\u002A*%
G36*
X20155233Y7390000D02*
G01*
X20195562Y7383769D01*
X20221500Y7366623D01*
X20231408Y7340883D01*
X20223645Y7308872D01*
X20218722Y7300114D01*
X20211471Y7281843D01*
X20218722Y7268250D01*
X20230200Y7251080D01*
X20223607Y7241556D01*
X20211643Y7240000D01*
X20193269Y7248383D01*
X20185959Y7260000D01*
X20172695Y7276255D01*
X20160275Y7280000D01*
X20144038Y7272605D01*
X20140941Y7260000D01*
X20134686Y7243713D01*
X20125935Y7240000D01*
X20118020Y7243929D01*
X20113374Y7258127D01*
X20111273Y7286210D01*
X20110930Y7315000D01*
X20110930Y7335000D01*
X20140941Y7335000D01*
X20147854Y7315523D01*
X20164410Y7309483D01*
X20184332Y7318197D01*
X20190597Y7324562D01*
X20197843Y7343022D01*
X20187463Y7355851D01*
X20165361Y7360000D01*
X20146731Y7355727D01*
X20141026Y7339118D01*
X20140941Y7335000D01*
X20110930Y7335000D01*
X20110930Y7390000D01*
X20155233Y7390000D01*
G37*
G36*
X16309433Y8410000D02*
G01*
X16309433Y8288147D01*
X16259115Y8333369D01*
X16195237Y8377769D01*
X16122327Y8405693D01*
X16043012Y8416917D01*
X15959922Y8411217D01*
X15875682Y8388372D01*
X15832271Y8369631D01*
X15763980Y8325318D01*
X15706854Y8265697D01*
X15661919Y8192704D01*
X15630204Y8108271D01*
X15612734Y8014335D01*
X15609505Y7950000D01*
X15617686Y7849608D01*
X15641533Y7757271D01*
X15680002Y7674838D01*
X15732048Y7604156D01*
X15796626Y7547071D01*
X15857074Y7512221D01*
X15891511Y7498334D01*
X15926385Y7489469D01*
X15968753Y7484232D01*
X16010850Y7481797D01*
X16082604Y7481903D01*
X16140443Y7489965D01*
X16189393Y7507499D01*
X16234481Y7536019D01*
X16259115Y7556632D01*
X16309433Y7601854D01*
X16309433Y7150000D01*
X16156873Y7151220D01*
X16097870Y7152246D01*
X16040629Y7154227D01*
X15990621Y7156908D01*
X15953315Y7160031D01*
X15944597Y7161134D01*
X15825533Y7188277D01*
X15713425Y7233129D01*
X15609933Y7294114D01*
X15516716Y7369655D01*
X15435435Y7458176D01*
X15367749Y7558099D01*
X15315319Y7667847D01*
X15279804Y7785844D01*
X15277997Y7794358D01*
X15262249Y7917617D01*
X15265454Y8038590D01*
X15286567Y8155641D01*
X15324545Y8267133D01*
X15378343Y8371431D01*
X15446918Y8466900D01*
X15529224Y8551903D01*
X15624217Y8624806D01*
X15730854Y8683971D01*
X15848090Y8727764D01*
X15879264Y8736201D01*
X15889185Y8738542D01*
X15900035Y8740680D01*
X15912716Y8742625D01*
X15928131Y8744386D01*
X15947181Y8745971D01*
X15970769Y8747391D01*
X15999797Y8748654D01*
X16035167Y8749769D01*
X16077783Y8750746D01*
X16128545Y8751593D01*
X16188357Y8752320D01*
X16258120Y8752937D01*
X16338738Y8753451D01*
X16431111Y8753872D01*
X16536143Y8754210D01*
X16654736Y8754473D01*
X16787793Y8754671D01*
X16936214Y8754813D01*
X17100904Y8754908D01*
X17282763Y8754964D01*
X17482695Y8754992D01*
X17701602Y8755000D01*
X17734994Y8755000D01*
X17960314Y8755023D01*
X18166534Y8755070D01*
X18354563Y8755107D01*
X18525308Y8755100D01*
X18679677Y8755015D01*
X18818580Y8754821D01*
X18942923Y8754482D01*
X19053615Y8753965D01*
X19151564Y8753237D01*
X19237678Y8752263D01*
X19312865Y8751012D01*
X19378034Y8749448D01*
X19434092Y8747538D01*
X19481948Y8745250D01*
X19522509Y8742548D01*
X19556684Y8739401D01*
X19585380Y8735773D01*
X19609507Y8731632D01*
X19629972Y8726944D01*
X19647682Y8721675D01*
X19663547Y8715792D01*
X19678474Y8709262D01*
X19693372Y8702050D01*
X19709148Y8694123D01*
X19726711Y8685448D01*
X19735973Y8681041D01*
X19847169Y8618251D01*
X19945389Y8540524D01*
X20029752Y8448857D01*
X20099373Y8344246D01*
X20153371Y8227688D01*
X20163990Y8197802D01*
X20176186Y8160219D01*
X20184711Y8129025D01*
X20190225Y8099111D01*
X20193386Y8065364D01*
X20194853Y8022675D01*
X20195287Y7965932D01*
X20195305Y7955000D01*
X20195160Y7896020D01*
X20194111Y7851966D01*
X20191481Y7817765D01*
X20186595Y7788345D01*
X20178779Y7758634D01*
X20167357Y7723559D01*
X20162702Y7710000D01*
X20126745Y7618953D01*
X20084757Y7540211D01*
X20032736Y7467450D01*
X19966684Y7394344D01*
X19956881Y7384508D01*
X19914113Y7343152D01*
X19878581Y7312385D01*
X19844243Y7287838D01*
X19805052Y7265141D01*
X19760792Y7242759D01*
X19737258Y7230990D01*
X19716525Y7220316D01*
X19697566Y7210684D01*
X19679355Y7202041D01*
X19660865Y7194334D01*
X19641068Y7187509D01*
X19618937Y7181513D01*
X19593446Y7176293D01*
X19563567Y7171797D01*
X19528274Y7167970D01*
X19486540Y7164760D01*
X19437338Y7162114D01*
X19379640Y7159978D01*
X19312421Y7158299D01*
X19234652Y7157025D01*
X19145307Y7156101D01*
X19043359Y7155475D01*
X18927782Y7155094D01*
X18797547Y7154905D01*
X18651628Y7154853D01*
X18488999Y7154888D01*
X18308632Y7154954D01*
X18109500Y7154999D01*
X18065124Y7155000D01*
X16614553Y7155000D01*
X16609440Y8400541D01*
X16669575Y8400541D01*
X16672867Y8390079D01*
X16682203Y8363078D01*
X16696769Y8321787D01*
X16715753Y8268456D01*
X16738341Y8205335D01*
X16763721Y8134675D01*
X16791079Y8058723D01*
X16819604Y7979732D01*
X16848481Y7899950D01*
X16876899Y7821626D01*
X16904043Y7747012D01*
X16929102Y7678356D01*
X16951263Y7617909D01*
X16969712Y7567919D01*
X16983636Y7530638D01*
X16988634Y7517500D01*
X16999209Y7490000D01*
X17149516Y7490000D01*
X17201784Y7490234D01*
X17246150Y7490877D01*
X17279160Y7491843D01*
X17297358Y7493049D01*
X17299823Y7493719D01*
X17302697Y7504702D01*
X17310707Y7531694D01*
X17322929Y7571767D01*
X17338442Y7621993D01*
X17356325Y7679440D01*
X17375656Y7741182D01*
X17395513Y7804287D01*
X17414974Y7865827D01*
X17433119Y7922873D01*
X17449024Y7972496D01*
X17461769Y8011766D01*
X17470432Y8037754D01*
X17474080Y8047522D01*
X17478549Y8040422D01*
X17487300Y8017824D01*
X17498991Y7983423D01*
X17510002Y7948446D01*
X17525919Y7896445D01*
X17546278Y7830215D01*
X17569576Y7754624D01*
X17594312Y7674539D01*
X17618983Y7594829D01*
X17641504Y7522245D01*
X17651681Y7489489D01*
X17679624Y7490000D01*
X18320023Y7490000D01*
X18620343Y7490000D01*
X18690370Y7490000D01*
X18990690Y7490000D01*
X18988285Y7912909D01*
X19046149Y7912909D01*
X19058962Y7817496D01*
X19088008Y7731330D01*
X19132187Y7655714D01*
X19190398Y7591951D01*
X19261538Y7541347D01*
X19344507Y7505203D01*
X19438203Y7484825D01*
X19503190Y7480659D01*
X19580721Y7480000D01*
X19580721Y7720000D01*
X19537277Y7720000D01*
X19479341Y7728974D01*
X19430386Y7754729D01*
X19391862Y7795519D01*
X19365218Y7849598D01*
X19351901Y7915218D01*
X19350630Y7945000D01*
X19358076Y8014914D01*
X19379457Y8073946D01*
X19413338Y8120369D01*
X19458281Y8152455D01*
X19512853Y8168477D01*
X19537584Y8170000D01*
X19581337Y8170001D01*
X19578528Y8292500D01*
X19575719Y8415000D01*
X19493857Y8412832D01*
X19395046Y8401315D01*
X19306004Y8372977D01*
X19227975Y8328931D01*
X19162205Y8270291D01*
X19109937Y8198171D01*
X19072417Y8113685D01*
X19050888Y8017945D01*
X19050672Y8016264D01*
X19046149Y7912909D01*
X18988285Y7912909D01*
X18985486Y8405000D01*
X18837928Y8407768D01*
X18690370Y8410535D01*
X18690370Y7490000D01*
X18620343Y7490000D01*
X18620343Y8410535D01*
X18472785Y8407768D01*
X18325227Y8405000D01*
X18320023Y7490000D01*
X17679624Y7490000D01*
X17802386Y7492245D01*
X17953091Y7495000D01*
X17965588Y7530000D01*
X17971657Y7546714D01*
X17983848Y7580040D01*
X18001368Y7627824D01*
X18023427Y7687910D01*
X18049233Y7758144D01*
X18077994Y7836370D01*
X18108919Y7920432D01*
X18125322Y7965000D01*
X18156758Y8050610D01*
X18186133Y8130998D01*
X18212699Y8204093D01*
X18235711Y8267826D01*
X18254423Y8320128D01*
X18268091Y8358929D01*
X18275967Y8382158D01*
X18277550Y8387500D01*
X18282541Y8410000D01*
X18138519Y8410000D01*
X17994497Y8410001D01*
X17905720Y8107500D01*
X17883739Y8033048D01*
X17863332Y7964775D01*
X17845226Y7905049D01*
X17830149Y7856239D01*
X17818829Y7820710D01*
X17811991Y7800832D01*
X17810476Y7797495D01*
X17806232Y7804865D01*
X17797210Y7829265D01*
X17784115Y7868493D01*
X17767653Y7920345D01*
X17748528Y7982617D01*
X17727447Y8053106D01*
X17714425Y8097495D01*
X17624839Y8405000D01*
X17336023Y8405000D01*
X17257787Y8135000D01*
X17236884Y8062787D01*
X17217320Y7995060D01*
X17199931Y7934728D01*
X17185556Y7884698D01*
X17175031Y7847880D01*
X17169192Y7827180D01*
X17169002Y7826491D01*
X17161427Y7803533D01*
X17155212Y7792587D01*
X17153838Y7792594D01*
X17150248Y7802617D01*
X17141833Y7829023D01*
X17129432Y7869018D01*
X17113885Y7919802D01*
X17096032Y7978580D01*
X17076711Y8042555D01*
X17056762Y8108928D01*
X17037024Y8174904D01*
X17018338Y8237684D01*
X17001541Y8294473D01*
X16987475Y8342472D01*
X16976978Y8378885D01*
X16970889Y8400914D01*
X16969693Y8406201D01*
X16960265Y8407523D01*
X16934288Y8408645D01*
X16895220Y8409480D01*
X16846518Y8409939D01*
X16819634Y8410000D01*
X16763364Y8409399D01*
X16717937Y8407710D01*
X16686107Y8405108D01*
X16670626Y8401765D01*
X16669575Y8400541D01*
X16609440Y8400541D01*
X16609401Y8410000D01*
X16309433Y8410000D01*
G37*
G36*
X20036774Y7385122D02*
G01*
X20062133Y7420534D01*
X20088271Y7443105D01*
X20131568Y7458079D01*
X20181254Y7460517D01*
X20228131Y7450421D01*
X20243631Y7443105D01*
X20270662Y7419460D01*
X20295671Y7384207D01*
X20314005Y7345289D01*
X20321012Y7311039D01*
X20314253Y7277618D01*
X20296976Y7239409D01*
X20273682Y7204836D01*
X20254038Y7185674D01*
X20216560Y7168783D01*
X20170175Y7162141D01*
X20123403Y7166168D01*
X20090922Y7177625D01*
X20061099Y7202249D01*
X20034680Y7238626D01*
X20016427Y7278878D01*
X20010890Y7310000D01*
X20015181Y7331077D01*
X20052708Y7331077D01*
X20053361Y7286192D01*
X20070652Y7245842D01*
X20103098Y7214055D01*
X20135736Y7198497D01*
X20157581Y7192462D01*
X20174290Y7192793D01*
X20196117Y7200276D01*
X20204609Y7203789D01*
X20245568Y7230352D01*
X20271304Y7267198D01*
X20280522Y7310379D01*
X20271926Y7355946D01*
X20261430Y7376956D01*
X20232504Y7407086D01*
X20194500Y7423393D01*
X20152786Y7425889D01*
X20112731Y7414589D01*
X20079703Y7389505D01*
X20070177Y7376470D01*
X20052708Y7331077D01*
X20015181Y7331077D01*
X20018139Y7345603D01*
X20036774Y7385122D01*
G37*
G36*
X16175486Y8164232D02*
G01*
X16206148Y8150124D01*
X16237832Y8125229D01*
X16238872Y8124293D01*
X16275531Y8078856D01*
X16298945Y8023661D01*
X16309348Y7962905D01*
X16306975Y7900786D01*
X16292060Y7841502D01*
X16264838Y7789251D01*
X16225542Y7748230D01*
X16217566Y7742602D01*
X16169859Y7721073D01*
X16115757Y7712393D01*
X16063175Y7717328D01*
X16039398Y7725376D01*
X15985660Y7758661D01*
X15947360Y7803701D01*
X15924011Y7861335D01*
X15915124Y7932405D01*
X15915014Y7940000D01*
X15921533Y8013873D01*
X15941696Y8074194D01*
X15974981Y8120285D01*
X16020865Y8151464D01*
X16078827Y8167050D01*
X16089960Y8168109D01*
X16139030Y8169558D01*
X16175486Y8164232D01*
G37*
D13*
%TO.C,J2*%
X19950000Y2325000D02*
X20750000Y2325000D01*
X20750000Y2325000D02*
X20750000Y4600000D01*
X19550000Y6575000D02*
X15950000Y6575000D01*
X15550000Y2325000D02*
X14750000Y2325000D01*
X14750000Y2325000D02*
X14750000Y4600000D01*
D14*
X20300000Y1615000D02*
G75*
G03*
X20300000Y1615000I-100000J0D01*
G01*
D12*
%TO.C,J3*%
X-20740000Y1843471D02*
X-20740000Y1986529D01*
X-22630000Y1790000D02*
X-22630000Y-3225000D01*
X-22630000Y1790000D02*
X-22063471Y1790000D01*
X-21192470Y-3225000D02*
X-20537530Y-3225000D01*
X-20936529Y1790000D02*
X-20793471Y1790000D01*
X-20740000Y3245000D02*
X-20537530Y3245000D01*
X-19100000Y3245000D02*
X-19100000Y-3225000D01*
X-19922470Y3245000D02*
X-19100000Y3245000D01*
X-22630000Y2550000D02*
X-22630000Y3310000D01*
X-20740000Y3113471D02*
X-20740000Y3245000D01*
X-22630000Y-3225000D02*
X-21807530Y-3225000D01*
X-19922470Y-3225000D02*
X-19100000Y-3225000D01*
X-22630000Y3310000D02*
X-21500000Y3310000D01*
%TO.C,J1*%
X13110000Y2215000D02*
X12060000Y2215000D01*
X12060000Y2215000D02*
X12060000Y1225000D01*
X2890000Y2215000D02*
X3940000Y2215000D01*
X2890000Y4715000D02*
X2890000Y2215000D01*
X11940000Y6685000D02*
X4060000Y6685000D01*
X13110000Y4715000D02*
X13110000Y2215000D01*
%TO.C,G\u002A\u002A\u002A*%
G36*
X-5792607Y20458507D02*
G01*
X-5454757Y20371129D01*
X-5127447Y20236779D01*
X-4943162Y20136907D01*
X-4779693Y20024633D01*
X-4606749Y19879678D01*
X-4436685Y19714395D01*
X-4281855Y19541141D01*
X-4154615Y19372270D01*
X-4113094Y19306839D01*
X-4044445Y19181269D01*
X-3974221Y19036648D01*
X-3915789Y18900781D01*
X-3907306Y18878738D01*
X-3874805Y18790116D01*
X-3847027Y18707413D01*
X-3823602Y18625961D01*
X-3804161Y18541089D01*
X-3788335Y18448128D01*
X-3775754Y18342407D01*
X-3766048Y18219256D01*
X-3758850Y18074006D01*
X-3753789Y17901987D01*
X-3750497Y17698529D01*
X-3748604Y17458961D01*
X-3747740Y17178614D01*
X-3747537Y16858102D01*
X-3747537Y15497537D01*
X-4873646Y15497537D01*
X-4873646Y15900381D01*
X-5034218Y15810584D01*
X-5331201Y15671966D01*
X-5651262Y15572847D01*
X-5984823Y15514799D01*
X-6322308Y15499391D01*
X-6654138Y15528196D01*
X-6704218Y15536677D01*
X-7035436Y15621416D01*
X-7348718Y15750570D01*
X-7640322Y15920561D01*
X-7906501Y16127808D01*
X-8143511Y16368731D01*
X-8347608Y16639750D01*
X-8515046Y16937286D01*
X-8642081Y17257759D01*
X-8692049Y17436946D01*
X-8719728Y17597245D01*
X-8736429Y17790143D01*
X-8738738Y17874877D01*
X-8507984Y17874877D01*
X-8490912Y17730986D01*
X-8476657Y17631207D01*
X-8459103Y17535250D01*
X-8449394Y17492757D01*
X-8424948Y17398420D01*
X-7623138Y17400121D01*
X-7400798Y17400457D01*
X-7222669Y17400200D01*
X-7082910Y17399023D01*
X-6975684Y17396596D01*
X-6895151Y17392591D01*
X-6835473Y17386680D01*
X-6790811Y17378535D01*
X-6755327Y17367826D01*
X-6723181Y17354226D01*
X-6711936Y17348866D01*
X-6591797Y17269114D01*
X-6486001Y17159558D01*
X-6411781Y17038202D01*
X-6409530Y17032920D01*
X-6390095Y16960418D01*
X-6377878Y16864666D01*
X-6375673Y16805878D01*
X-6398040Y16640510D01*
X-6459100Y16498230D01*
X-6551803Y16381828D01*
X-6669096Y16294089D01*
X-6803926Y16237801D01*
X-6949242Y16215751D01*
X-7097991Y16230728D01*
X-7243120Y16285517D01*
X-7377578Y16382907D01*
X-7397164Y16402152D01*
X-7469339Y16492606D01*
X-7494714Y16569664D01*
X-7473949Y16635817D01*
X-7462782Y16649679D01*
X-7403159Y16692271D01*
X-7342740Y16686586D01*
X-7278527Y16632080D01*
X-7263480Y16613334D01*
X-7192903Y16546213D01*
X-7099685Y16489488D01*
X-7004712Y16454435D01*
X-6958085Y16448473D01*
X-6883991Y16465552D01*
X-6797306Y16508824D01*
X-6717846Y16566341D01*
X-6666531Y16624249D01*
X-6631349Y16719597D01*
X-6621921Y16829079D01*
X-6638131Y16932123D01*
X-6668624Y16994964D01*
X-6724493Y17057035D01*
X-6785121Y17110080D01*
X-6807366Y17124951D01*
X-6833701Y17136768D01*
X-6869971Y17145964D01*
X-6922020Y17152978D01*
X-6995695Y17158244D01*
X-7096840Y17162200D01*
X-7231301Y17165281D01*
X-7404923Y17167923D01*
X-7590619Y17170184D01*
X-7809338Y17172845D01*
X-7982580Y17174417D01*
X-8114916Y17173706D01*
X-8210920Y17169516D01*
X-8275162Y17160654D01*
X-8312216Y17145925D01*
X-8326652Y17124133D01*
X-8323044Y17094085D01*
X-8305963Y17054586D01*
X-8279980Y17004441D01*
X-8273473Y16991762D01*
X-8104289Y16712986D01*
X-7896091Y16460982D01*
X-7654404Y16240009D01*
X-7384754Y16054321D01*
X-7092665Y15908175D01*
X-6783663Y15805827D01*
X-6712566Y15789312D01*
X-6548845Y15764828D01*
X-6355978Y15752543D01*
X-6153369Y15752494D01*
X-5960422Y15764720D01*
X-5804758Y15787529D01*
X-5482461Y15879308D01*
X-5176997Y16017879D01*
X-4998608Y16125955D01*
X-4904760Y16186824D01*
X-4824363Y16235453D01*
X-4767539Y16265923D01*
X-4746625Y16273301D01*
X-4704697Y16257731D01*
X-4669163Y16231885D01*
X-4646315Y16202556D01*
X-4632381Y16157661D01*
X-4625398Y16085929D01*
X-4623403Y15976090D01*
X-4623399Y15969127D01*
X-4623399Y15747784D01*
X-3995345Y15747784D01*
X-4003843Y17080345D01*
X-4005768Y17373150D01*
X-4007628Y17620432D01*
X-4009615Y17826718D01*
X-4011922Y17996536D01*
X-4014740Y18134411D01*
X-4018261Y18244869D01*
X-4022679Y18332439D01*
X-4028186Y18401645D01*
X-4034973Y18457014D01*
X-4043233Y18503074D01*
X-4053159Y18544350D01*
X-4064942Y18585368D01*
X-4068241Y18596246D01*
X-4192328Y18923310D01*
X-4355043Y19220827D01*
X-4554028Y19486436D01*
X-4786923Y19717778D01*
X-5051370Y19912493D01*
X-5345009Y20068221D01*
X-5649409Y20178060D01*
X-5828293Y20216324D01*
X-6036989Y20240270D01*
X-6257157Y20249222D01*
X-6470457Y20242506D01*
X-6658547Y20219446D01*
X-6676863Y20215892D01*
X-6991122Y20128058D01*
X-7289389Y19997098D01*
X-7565952Y19827094D01*
X-7815099Y19622128D01*
X-8031119Y19386280D01*
X-8208300Y19123631D01*
X-8210240Y19120204D01*
X-8262561Y19028881D01*
X-8300937Y18958169D01*
X-8321108Y18905546D01*
X-8318813Y18868493D01*
X-8289793Y18844490D01*
X-8229788Y18831015D01*
X-8134537Y18825550D01*
X-7999780Y18825573D01*
X-7821258Y18828564D01*
X-7720197Y18830291D01*
X-7522792Y18833910D01*
X-7369050Y18838074D01*
X-7252585Y18843262D01*
X-7167010Y18849952D01*
X-7105938Y18858625D01*
X-7062985Y18869758D01*
X-7035736Y18881628D01*
X-6940441Y18957330D01*
X-6881139Y19055404D01*
X-6856768Y19165598D01*
X-6866263Y19277656D01*
X-6908562Y19381326D01*
X-6982601Y19466351D01*
X-7087316Y19522479D01*
X-7102665Y19526995D01*
X-7234672Y19539383D01*
X-7356509Y19502788D01*
X-7467995Y19417271D01*
X-7482617Y19401566D01*
X-7545092Y19337110D01*
X-7591301Y19307683D01*
X-7634805Y19308121D01*
X-7678050Y19327186D01*
X-7719308Y19374035D01*
X-7724337Y19443515D01*
X-7694278Y19524967D01*
X-7650280Y19586494D01*
X-7529201Y19689526D01*
X-7386858Y19754586D01*
X-7233149Y19781723D01*
X-7077972Y19770987D01*
X-6931224Y19722428D01*
X-6802804Y19636096D01*
X-6751161Y19581963D01*
X-6685550Y19481304D01*
X-6633652Y19362688D01*
X-6604081Y19247857D01*
X-6600345Y19201267D01*
X-6619287Y19070093D01*
X-6669805Y18934243D01*
X-6742441Y18817105D01*
X-6766994Y18789249D01*
X-6819483Y18737098D01*
X-6868741Y18695624D01*
X-6921136Y18663600D01*
X-6983040Y18639801D01*
X-7060821Y18622999D01*
X-7160850Y18611970D01*
X-7289498Y18605486D01*
X-7453135Y18602322D01*
X-7658130Y18601251D01*
X-7744258Y18601141D01*
X-8425214Y18600592D01*
X-8449527Y18506749D01*
X-8466584Y18426703D01*
X-8483319Y18325831D01*
X-8490912Y18269015D01*
X-8507984Y18125124D01*
X-7102479Y18125124D01*
X-6794317Y18125119D01*
X-6532139Y18125331D01*
X-6311880Y18126103D01*
X-6129472Y18127776D01*
X-5980852Y18130691D01*
X-5861953Y18135190D01*
X-5768710Y18141614D01*
X-5697057Y18150304D01*
X-5642929Y18161603D01*
X-5602260Y18175851D01*
X-5570984Y18193391D01*
X-5545037Y18214563D01*
X-5520352Y18239710D01*
X-5501923Y18259565D01*
X-5450538Y18347540D01*
X-5429136Y18458031D01*
X-5439331Y18572318D01*
X-5468374Y18648707D01*
X-5548621Y18746276D01*
X-5657192Y18804130D01*
X-5788768Y18819609D01*
X-5807549Y18818347D01*
X-5887244Y18805276D01*
X-5950686Y18775519D01*
X-6019086Y18718372D01*
X-6033718Y18704197D01*
X-6123798Y18630318D01*
X-6197657Y18602357D01*
X-6257399Y18619658D01*
X-6270020Y18630621D01*
X-6298193Y18689020D01*
X-6286616Y18759315D01*
X-6242142Y18835154D01*
X-6171626Y18910179D01*
X-6081919Y18978037D01*
X-5979874Y19032371D01*
X-5872345Y19066828D01*
X-5789948Y19075815D01*
X-5636725Y19058549D01*
X-5501955Y19002485D01*
X-5373792Y18902477D01*
X-5360241Y18889223D01*
X-5253082Y18751856D01*
X-5190849Y18601425D01*
X-5174791Y18444466D01*
X-5206159Y18287515D01*
X-5233067Y18224591D01*
X-5259816Y18169392D01*
X-5273554Y18137957D01*
X-5274040Y18135991D01*
X-5251950Y18128484D01*
X-5196341Y18117197D01*
X-5167685Y18112322D01*
X-4983060Y18059482D01*
X-4814664Y17961883D01*
X-4727559Y17888767D01*
X-4600132Y17737631D01*
X-4514807Y17567107D01*
X-4471585Y17384870D01*
X-4470466Y17198592D01*
X-4511451Y17015947D01*
X-4594538Y16844608D01*
X-4719728Y16692249D01*
X-4727559Y16684830D01*
X-4857733Y16577836D01*
X-4984812Y16509204D01*
X-5125138Y16472547D01*
X-5295054Y16461479D01*
X-5299064Y16461475D01*
X-5427243Y16465346D01*
X-5523347Y16478855D01*
X-5604886Y16504838D01*
X-5627448Y16514716D01*
X-5755167Y16590363D01*
X-5878399Y16692492D01*
X-5978085Y16804565D01*
X-6001655Y16839431D01*
X-6034138Y16897373D01*
X-6040126Y16935638D01*
X-6021444Y16975817D01*
X-6014137Y16987160D01*
X-5970665Y17033849D01*
X-5920570Y17044312D01*
X-5858094Y17016811D01*
X-5777481Y16949606D01*
X-5729057Y16901075D01*
X-5625316Y16803734D01*
X-5536873Y16745195D01*
X-5486749Y16726042D01*
X-5311344Y16700837D01*
X-5147673Y16719221D01*
X-5001693Y16776874D01*
X-4879358Y16869480D01*
X-4786623Y16992722D01*
X-4729445Y17142283D01*
X-4713247Y17286798D01*
X-4733430Y17448204D01*
X-4796391Y17589932D01*
X-4902827Y17717409D01*
X-4934285Y17747491D01*
X-4963989Y17773476D01*
X-4995657Y17795664D01*
X-5033009Y17814355D01*
X-5079764Y17829849D01*
X-5139641Y17842445D01*
X-5216358Y17852444D01*
X-5313635Y17860144D01*
X-5435191Y17865846D01*
X-5584745Y17869849D01*
X-5766016Y17872454D01*
X-5982723Y17873959D01*
X-6238585Y17874665D01*
X-6537321Y17874871D01*
X-6856621Y17874877D01*
X-8507984Y17874877D01*
X-8738738Y17874877D01*
X-8742131Y17999405D01*
X-8736815Y18208795D01*
X-8720460Y18402077D01*
X-8693478Y18561171D01*
X-8592544Y18885640D01*
X-8447779Y19193381D01*
X-8263396Y19479521D01*
X-8043608Y19739188D01*
X-7792626Y19967509D01*
X-7514663Y20159614D01*
X-7213930Y20310628D01*
X-7163618Y20330792D01*
X-6826503Y20435054D01*
X-6482770Y20490843D01*
X-6136708Y20498536D01*
X-5792607Y20458507D01*
G37*
%TD*%
M02*
