%TF.GenerationSoftware,KiCad,Pcbnew,6.0.11-2627ca5db0~126~ubuntu22.04.1*%
%TF.CreationDate,2024-03-24T13:08:46-07:00*%
%TF.ProjectId,prototype-knob,70726f74-6f74-4797-9065-2d6b6e6f622e,rev?*%
%TF.SameCoordinates,Original*%
%TF.FileFunction,Legend,Bot*%
%TF.FilePolarity,Positive*%
%FSLAX46Y46*%
G04 Gerber Fmt 4.6, Leading zero omitted, Abs format (unit mm)*
G04 Created by KiCad (PCBNEW 6.0.11-2627ca5db0~126~ubuntu22.04.1) date 2024-03-24 13:08:46*
%MOMM*%
%LPD*%
G01*
G04 APERTURE LIST*
%ADD10C,0.150000*%
%ADD11C,0.120000*%
%ADD12C,0.508000*%
G04 APERTURE END LIST*
D10*
X-34925000Y10795000D02*
X-34925000Y8255000D01*
X-42545000Y10795000D02*
X-34925000Y10795000D01*
X-42545000Y8255000D02*
X-42545000Y10795000D01*
X-9524999Y11218333D02*
X-10129761Y11218333D01*
X-9404047Y10855476D02*
X-9827380Y12125476D01*
X-10250714Y10855476D01*
X-11218333Y10855476D02*
X-11218333Y12125476D01*
X-11218333Y10915952D02*
X-11097380Y10855476D01*
X-10855476Y10855476D01*
X-10734523Y10915952D01*
X-10674047Y10976428D01*
X-10613571Y11097380D01*
X-10613571Y11460238D01*
X-10674047Y11581190D01*
X-10734523Y11641666D01*
X-10855476Y11702142D01*
X-11097380Y11702142D01*
X-11218333Y11641666D01*
X-12367380Y10855476D02*
X-12367380Y11520714D01*
X-12306904Y11641666D01*
X-12185952Y11702142D01*
X-11944047Y11702142D01*
X-11823095Y11641666D01*
X-12367380Y10915952D02*
X-12246428Y10855476D01*
X-11944047Y10855476D01*
X-11823095Y10915952D01*
X-11762619Y11036904D01*
X-11762619Y11157857D01*
X-11823095Y11278809D01*
X-11944047Y11339285D01*
X-12246428Y11339285D01*
X-12367380Y11399761D01*
X-12790714Y11702142D02*
X-13274523Y11702142D01*
X-12972142Y10855476D02*
X-12972142Y11944047D01*
X-13032619Y12065000D01*
X-13153571Y12125476D01*
X-13274523Y12125476D01*
X-13697857Y10855476D02*
X-13697857Y11702142D01*
X-13697857Y11460238D02*
X-13758333Y11581190D01*
X-13818809Y11641666D01*
X-13939761Y11702142D01*
X-14060714Y11702142D01*
X-15028333Y11702142D02*
X-15028333Y10855476D01*
X-14484047Y11702142D02*
X-14484047Y11036904D01*
X-14544523Y10915952D01*
X-14665476Y10855476D01*
X-14846904Y10855476D01*
X-14967857Y10915952D01*
X-15028333Y10976428D01*
X-15633095Y10855476D02*
X-15633095Y11702142D01*
X-15633095Y12125476D02*
X-15572619Y12065000D01*
X-15633095Y12004523D01*
X-15693571Y12065000D01*
X-15633095Y12125476D01*
X-15633095Y12004523D01*
X-16056428Y11702142D02*
X-16540238Y11702142D01*
X-16237857Y12125476D02*
X-16237857Y11036904D01*
X-16298333Y10915952D01*
X-16419285Y10855476D01*
X-16540238Y10855476D01*
X-18656904Y10976428D02*
X-18596428Y10915952D01*
X-18415000Y10855476D01*
X-18294047Y10855476D01*
X-18112619Y10915952D01*
X-17991666Y11036904D01*
X-17931190Y11157857D01*
X-17870714Y11399761D01*
X-17870714Y11581190D01*
X-17931190Y11823095D01*
X-17991666Y11944047D01*
X-18112619Y12065000D01*
X-18294047Y12125476D01*
X-18415000Y12125476D01*
X-18596428Y12065000D01*
X-18656904Y12004523D01*
X-19140714Y11218333D02*
X-19745476Y11218333D01*
X-19019761Y10855476D02*
X-19443095Y12125476D01*
X-19866428Y10855476D01*
X-20289761Y10855476D02*
X-20289761Y12125476D01*
X-21015476Y10855476D01*
X-21015476Y12125476D01*
X-21620238Y11339285D02*
X-22587857Y11339285D01*
X-23192619Y10855476D02*
X-23192619Y12125476D01*
X-23676428Y12125476D01*
X-23797380Y12065000D01*
X-23857857Y12004523D01*
X-23918333Y11883571D01*
X-23918333Y11702142D01*
X-23857857Y11581190D01*
X-23797380Y11520714D01*
X-23676428Y11460238D01*
X-23192619Y11460238D01*
X-24402142Y11218333D02*
X-25006904Y11218333D01*
X-24281190Y10855476D02*
X-24704523Y12125476D01*
X-25127857Y10855476D01*
X-26155952Y10855476D02*
X-25551190Y10855476D01*
X-25551190Y12125476D01*
X-38097380Y8001095D02*
X-38097380Y8572523D01*
X-39097380Y8286809D02*
X-38097380Y8286809D01*
X-38097380Y8810619D02*
X-39097380Y9477285D01*
X-38097380Y9477285D02*
X-39097380Y8810619D01*
X-36727380Y8596333D02*
X-36251190Y8263000D01*
X-36727380Y8024904D02*
X-35727380Y8024904D01*
X-35727380Y8405857D01*
X-35775000Y8501095D01*
X-35822619Y8548714D01*
X-35917857Y8596333D01*
X-36060714Y8596333D01*
X-36155952Y8548714D01*
X-36203571Y8501095D01*
X-36251190Y8405857D01*
X-36251190Y8024904D01*
X-35727380Y8929666D02*
X-36727380Y9596333D01*
X-35727380Y9596333D02*
X-36727380Y8929666D01*
X-40775000Y8001095D02*
X-40727380Y7905857D01*
X-40727380Y7763000D01*
X-40775000Y7620142D01*
X-40870238Y7524904D01*
X-40965476Y7477285D01*
X-41155952Y7429666D01*
X-41298809Y7429666D01*
X-41489285Y7477285D01*
X-41584523Y7524904D01*
X-41679761Y7620142D01*
X-41727380Y7763000D01*
X-41727380Y7858238D01*
X-41679761Y8001095D01*
X-41632142Y8048714D01*
X-41298809Y8048714D01*
X-41298809Y7858238D01*
X-41727380Y8477285D02*
X-40727380Y8477285D01*
X-41727380Y9048714D01*
X-40727380Y9048714D01*
X-41727380Y9524904D02*
X-40727380Y9524904D01*
X-40727380Y9763000D01*
X-40775000Y9905857D01*
X-40870238Y10001095D01*
X-40965476Y10048714D01*
X-41155952Y10096333D01*
X-41298809Y10096333D01*
X-41489285Y10048714D01*
X-41584523Y10001095D01*
X-41679761Y9905857D01*
X-41727380Y9763000D01*
X-41727380Y9524904D01*
X-30789761Y10072619D02*
X-30789761Y9263095D01*
X-30837380Y9167857D01*
X-30885000Y9120238D01*
X-30980238Y9072619D01*
X-31170714Y9072619D01*
X-31265952Y9120238D01*
X-31313571Y9167857D01*
X-31361190Y9263095D01*
X-31361190Y10072619D01*
X-31789761Y9358333D02*
X-32265952Y9358333D01*
X-31694523Y9072619D02*
X-32027857Y10072619D01*
X-32361190Y9072619D01*
X-33265952Y9072619D02*
X-32932619Y9548809D01*
X-32694523Y9072619D02*
X-32694523Y10072619D01*
X-33075476Y10072619D01*
X-33170714Y10025000D01*
X-33218333Y9977380D01*
X-33265952Y9882142D01*
X-33265952Y9739285D01*
X-33218333Y9644047D01*
X-33170714Y9596428D01*
X-33075476Y9548809D01*
X-32694523Y9548809D01*
X-33551666Y10072619D02*
X-34123095Y10072619D01*
X-33837380Y9072619D02*
X-33837380Y10072619D01*
%TO.C,U2*%
X-16778095Y23167619D02*
X-16778095Y22358095D01*
X-16825714Y22262857D01*
X-16873333Y22215238D01*
X-16968571Y22167619D01*
X-17159047Y22167619D01*
X-17254285Y22215238D01*
X-17301904Y22262857D01*
X-17349523Y22358095D01*
X-17349523Y23167619D01*
X-17778095Y23072380D02*
X-17825714Y23120000D01*
X-17920952Y23167619D01*
X-18159047Y23167619D01*
X-18254285Y23120000D01*
X-18301904Y23072380D01*
X-18349523Y22977142D01*
X-18349523Y22881904D01*
X-18301904Y22739047D01*
X-17730476Y22167619D01*
X-18349523Y22167619D01*
%TO.C,R4*%
X-39838333Y-9977380D02*
X-39505000Y-9501190D01*
X-39266904Y-9977380D02*
X-39266904Y-8977380D01*
X-39647857Y-8977380D01*
X-39743095Y-9025000D01*
X-39790714Y-9072619D01*
X-39838333Y-9167857D01*
X-39838333Y-9310714D01*
X-39790714Y-9405952D01*
X-39743095Y-9453571D01*
X-39647857Y-9501190D01*
X-39266904Y-9501190D01*
X-40695476Y-9310714D02*
X-40695476Y-9977380D01*
X-40457380Y-8929761D02*
X-40219285Y-9644047D01*
X-40838333Y-9644047D01*
%TO.C,R3*%
X-37298333Y-9977380D02*
X-36965000Y-9501190D01*
X-36726904Y-9977380D02*
X-36726904Y-8977380D01*
X-37107857Y-8977380D01*
X-37203095Y-9025000D01*
X-37250714Y-9072619D01*
X-37298333Y-9167857D01*
X-37298333Y-9310714D01*
X-37250714Y-9405952D01*
X-37203095Y-9453571D01*
X-37107857Y-9501190D01*
X-36726904Y-9501190D01*
X-37631666Y-8977380D02*
X-38250714Y-8977380D01*
X-37917380Y-9358333D01*
X-38060238Y-9358333D01*
X-38155476Y-9405952D01*
X-38203095Y-9453571D01*
X-38250714Y-9548809D01*
X-38250714Y-9786904D01*
X-38203095Y-9882142D01*
X-38155476Y-9929761D01*
X-38060238Y-9977380D01*
X-37774523Y-9977380D01*
X-37679285Y-9929761D01*
X-37631666Y-9882142D01*
%TO.C,R2*%
X-34123333Y-9977380D02*
X-33790000Y-9501190D01*
X-33551904Y-9977380D02*
X-33551904Y-8977380D01*
X-33932857Y-8977380D01*
X-34028095Y-9025000D01*
X-34075714Y-9072619D01*
X-34123333Y-9167857D01*
X-34123333Y-9310714D01*
X-34075714Y-9405952D01*
X-34028095Y-9453571D01*
X-33932857Y-9501190D01*
X-33551904Y-9501190D01*
X-34504285Y-9072619D02*
X-34551904Y-9025000D01*
X-34647142Y-8977380D01*
X-34885238Y-8977380D01*
X-34980476Y-9025000D01*
X-35028095Y-9072619D01*
X-35075714Y-9167857D01*
X-35075714Y-9263095D01*
X-35028095Y-9405952D01*
X-34456666Y-9977380D01*
X-35075714Y-9977380D01*
%TO.C,R1*%
X-30948333Y-9977380D02*
X-30615000Y-9501190D01*
X-30376904Y-9977380D02*
X-30376904Y-8977380D01*
X-30757857Y-8977380D01*
X-30853095Y-9025000D01*
X-30900714Y-9072619D01*
X-30948333Y-9167857D01*
X-30948333Y-9310714D01*
X-30900714Y-9405952D01*
X-30853095Y-9453571D01*
X-30757857Y-9501190D01*
X-30376904Y-9501190D01*
X-31900714Y-9977380D02*
X-31329285Y-9977380D01*
X-31615000Y-9977380D02*
X-31615000Y-8977380D01*
X-31519761Y-9120238D01*
X-31424523Y-9215476D01*
X-31329285Y-9263095D01*
%TO.C,J1*%
X-33546666Y6262619D02*
X-33546666Y5548333D01*
X-33499047Y5405476D01*
X-33403809Y5310238D01*
X-33260952Y5262619D01*
X-33165714Y5262619D01*
X-34546666Y5262619D02*
X-33975238Y5262619D01*
X-34260952Y5262619D02*
X-34260952Y6262619D01*
X-34165714Y6119761D01*
X-34070476Y6024523D01*
X-33975238Y5976904D01*
D11*
%TO.C,U2*%
X-27700000Y-540000D02*
X-7380000Y-540000D01*
X-7380000Y19780000D02*
X-27700000Y19780000D01*
X-7380000Y-540000D02*
X-7380000Y19780000D01*
X-27700000Y19780000D02*
X-27700000Y-540000D01*
D12*
%TO.C,U1*%
X381000Y-3763000D02*
G75*
G03*
X381000Y-3763000I-381000J0D01*
G01*
D11*
%TO.C,R4*%
X-39905000Y730000D02*
X-39905000Y-5810000D01*
X-42645000Y-5810000D02*
X-42645000Y730000D01*
X-42645000Y730000D02*
X-39905000Y730000D01*
X-39905000Y-5810000D02*
X-42645000Y-5810000D01*
X-41275000Y-6580000D02*
X-41275000Y-5810000D01*
X-41275000Y1500000D02*
X-41275000Y730000D01*
%TO.C,R3*%
X-36730000Y730000D02*
X-36730000Y-5810000D01*
X-39470000Y-5810000D02*
X-39470000Y730000D01*
X-39470000Y730000D02*
X-36730000Y730000D01*
X-36730000Y-5810000D02*
X-39470000Y-5810000D01*
X-38100000Y-6580000D02*
X-38100000Y-5810000D01*
X-38100000Y1500000D02*
X-38100000Y730000D01*
%TO.C,R2*%
X-33555000Y730000D02*
X-33555000Y-5810000D01*
X-36295000Y-5810000D02*
X-36295000Y730000D01*
X-36295000Y730000D02*
X-33555000Y730000D01*
X-33555000Y-5810000D02*
X-36295000Y-5810000D01*
X-34925000Y-6580000D02*
X-34925000Y-5810000D01*
X-34925000Y1500000D02*
X-34925000Y730000D01*
%TO.C,R1*%
X-30380000Y730000D02*
X-30380000Y-5810000D01*
X-33120000Y-5810000D02*
X-33120000Y730000D01*
X-33120000Y730000D02*
X-30380000Y730000D01*
X-30380000Y-5810000D02*
X-33120000Y-5810000D01*
X-31750000Y-6580000D02*
X-31750000Y-5810000D01*
X-31750000Y1500000D02*
X-31750000Y730000D01*
%TO.C,J1*%
X-42620000Y4385000D02*
X-42620000Y7045000D01*
X-37480000Y4385000D02*
X-42620000Y4385000D01*
X-36210000Y4385000D02*
X-34880000Y4385000D01*
X-37480000Y7045000D02*
X-42620000Y7045000D01*
X-34880000Y4385000D02*
X-34880000Y5715000D01*
X-37480000Y4385000D02*
X-37480000Y7045000D01*
%TD*%
M02*
