%TF.GenerationSoftware,KiCad,Pcbnew,6.0.11-2627ca5db0~126~ubuntu22.04.1*%
%TF.CreationDate,2024-03-24T13:08:50-07:00*%
%TF.ProjectId,prototype-knob,70726f74-6f74-4797-9065-2d6b6e6f622e,rev?*%
%TF.SameCoordinates,Original*%
%TF.FileFunction,Soldermask,Bot*%
%TF.FilePolarity,Negative*%
%FSLAX46Y46*%
G04 Gerber Fmt 4.6, Leading zero omitted, Abs format (unit mm)*
G04 Created by KiCad (PCBNEW 6.0.11-2627ca5db0~126~ubuntu22.04.1) date 2024-03-24 13:08:50*
%MOMM*%
%LPD*%
G01*
G04 APERTURE LIST*
%ADD10C,2.500000*%
%ADD11C,1.219200*%
%ADD12C,1.524000*%
%ADD13C,3.000000*%
%ADD14C,1.803400*%
%ADD15C,2.209800*%
%ADD16O,1.600000X1.600000*%
%ADD17C,1.600000*%
%ADD18R,1.700000X1.700000*%
%ADD19O,1.700000X1.700000*%
G04 APERTURE END LIST*
D10*
%TO.C,*%
X-46990000Y-7620000D03*
%TD*%
%TO.C,*%
X-46990000Y-2540000D03*
%TD*%
%TO.C,*%
X-46990000Y2540000D03*
%TD*%
%TO.C,*%
X-46990000Y7620000D03*
%TD*%
%TO.C,*%
X-46990000Y12700000D03*
%TD*%
%TO.C,REF\u002A\u002A*%
X-46990000Y17780000D03*
%TD*%
D11*
%TO.C,U4*%
X-34000000Y16000000D03*
X-36540000Y16000000D03*
X-39080000Y16000000D03*
%TD*%
D12*
%TO.C,U3*%
X-24620000Y-8620000D03*
X-22080000Y-8620000D03*
X-19540000Y-8620000D03*
X-17000000Y-8620000D03*
X-14460000Y-8620000D03*
X-11920000Y-8620000D03*
X-9380000Y-8620000D03*
X-9380000Y6620000D03*
X-11920000Y6620000D03*
X-14460000Y6620000D03*
X-17060381Y6608086D03*
X-19540000Y6620000D03*
X-22080000Y6620000D03*
X-24638277Y6577895D03*
%TD*%
D13*
%TO.C,U2*%
X-9920000Y17240000D03*
X-25160000Y17240000D03*
D12*
X-9920000Y2000000D03*
X-12460000Y2000000D03*
X-15000000Y2000000D03*
X-17540000Y2000000D03*
X-20080000Y2000000D03*
X-22620000Y2000000D03*
X-25160000Y2000000D03*
%TD*%
D14*
%TO.C,U1*%
X0Y0D03*
X0Y5000000D03*
X0Y10000000D03*
X-2600000Y2500000D03*
X-2600000Y7500000D03*
D15*
X-2600000Y13200002D03*
X-2600000Y-3200001D03*
%TD*%
D16*
%TO.C,R4*%
X-41275000Y2540000D03*
D17*
X-41275000Y-7620000D03*
%TD*%
D16*
%TO.C,R3*%
X-38100000Y2540000D03*
D17*
X-38100000Y-7620000D03*
%TD*%
D16*
%TO.C,R2*%
X-34925000Y2540000D03*
D17*
X-34925000Y-7620000D03*
%TD*%
D16*
%TO.C,R1*%
X-31750000Y2540000D03*
D17*
X-31750000Y-7620000D03*
%TD*%
D18*
%TO.C,J3*%
X-3540000Y18000000D03*
D19*
X-1000000Y18000000D03*
%TD*%
D18*
%TO.C,J2*%
X-1270000Y-8255000D03*
D19*
X-3810000Y-8255000D03*
%TD*%
D18*
%TO.C,J1*%
X-36210000Y5715000D03*
D19*
X-38750000Y5715000D03*
X-41290000Y5715000D03*
%TD*%
M02*
