%TF.GenerationSoftware,KiCad,Pcbnew,6.0.11-2627ca5db0~126~ubuntu22.04.1*%
%TF.CreationDate,2024-03-24T13:08:40-07:00*%
%TF.ProjectId,prototype-knob,70726f74-6f74-4797-9065-2d6b6e6f622e,rev?*%
%TF.SameCoordinates,Original*%
%TF.FileFunction,Copper,L1,Top*%
%TF.FilePolarity,Positive*%
%FSLAX46Y46*%
G04 Gerber Fmt 4.6, Leading zero omitted, Abs format (unit mm)*
G04 Created by KiCad (PCBNEW 6.0.11-2627ca5db0~126~ubuntu22.04.1) date 2024-03-24 13:08:40*
%MOMM*%
%LPD*%
G01*
G04 APERTURE LIST*
%TA.AperFunction,ComponentPad*%
%ADD10C,1.219200*%
%TD*%
%TA.AperFunction,ComponentPad*%
%ADD11C,1.524000*%
%TD*%
%TA.AperFunction,WasherPad*%
%ADD12C,3.000000*%
%TD*%
%TA.AperFunction,ComponentPad*%
%ADD13C,1.803400*%
%TD*%
%TA.AperFunction,ComponentPad*%
%ADD14C,2.209800*%
%TD*%
%TA.AperFunction,ComponentPad*%
%ADD15O,1.600000X1.600000*%
%TD*%
%TA.AperFunction,ComponentPad*%
%ADD16C,1.600000*%
%TD*%
%TA.AperFunction,ComponentPad*%
%ADD17R,1.700000X1.700000*%
%TD*%
%TA.AperFunction,ComponentPad*%
%ADD18O,1.700000X1.700000*%
%TD*%
%TA.AperFunction,ViaPad*%
%ADD19C,0.800000*%
%TD*%
%TA.AperFunction,Conductor*%
%ADD20C,0.250000*%
%TD*%
%TA.AperFunction,Conductor*%
%ADD21C,1.270000*%
%TD*%
G04 APERTURE END LIST*
D10*
%TO.P,U4,1,+VIN*%
%TO.N,Net-(J3-Pad1)*%
X-34000000Y16000000D03*
%TO.P,U4,2,GND*%
%TO.N,GND*%
X-36540000Y16000000D03*
%TO.P,U4,3,+VOUT*%
%TO.N,Net-(U3-Pad14)*%
X-39080000Y16000000D03*
%TD*%
D11*
%TO.P,U3,1,GPIO18*%
%TO.N,Net-(U2-Pad4)*%
X-24620000Y-8620000D03*
%TO.P,U3,2,GPIO17*%
%TO.N,Net-(U2-Pad3)*%
X-22080000Y-8620000D03*
%TO.P,U3,3,GPIO9*%
%TO.N,/CHAN_B*%
X-19540000Y-8620000D03*
%TO.P,U3,4,GPIO8*%
%TO.N,/CHAN_A*%
X-17000000Y-8620000D03*
%TO.P,U3,5,GPIO7*%
%TO.N,/BUTTON*%
X-14460000Y-8620000D03*
%TO.P,U3,6,GPIO6*%
%TO.N,/LEADER*%
X-11920000Y-8620000D03*
%TO.P,U3,7,GPIO5*%
%TO.N,/UART_TX*%
X-9380000Y-8620000D03*
%TO.P,U3,8,GPIO16*%
%TO.N,/UART_RX*%
X-9380000Y6620000D03*
%TO.P,U3,9,GPIO36*%
%TO.N,unconnected-(U3-Pad9)*%
X-11920000Y6620000D03*
%TO.P,U3,10,GPIO37*%
%TO.N,unconnected-(U3-Pad10)*%
X-14460000Y6620000D03*
%TO.P,U3,11,GPIO35*%
%TO.N,unconnected-(U3-Pad11)*%
X-17060381Y6608086D03*
%TO.P,U3,12,3.3V*%
%TO.N,+3V3*%
X-19540000Y6620000D03*
%TO.P,U3,13,GND*%
%TO.N,GND*%
X-22080000Y6620000D03*
%TO.P,U3,14,5V*%
%TO.N,Net-(U3-Pad14)*%
X-24638277Y6577895D03*
%TD*%
D12*
%TO.P,U2,*%
%TO.N,*%
X-9920000Y17240000D03*
X-25160000Y17240000D03*
D11*
%TO.P,U2,1,VCC*%
%TO.N,+3V3*%
X-9920000Y2000000D03*
%TO.P,U2,2,GND*%
%TO.N,GND*%
X-12460000Y2000000D03*
%TO.P,U2,3,RX*%
%TO.N,Net-(U2-Pad3)*%
X-15000000Y2000000D03*
%TO.P,U2,4,TX*%
%TO.N,Net-(U2-Pad4)*%
X-17540000Y2000000D03*
%TO.P,U2,5,SLNT*%
%TO.N,unconnected-(U2-Pad5)*%
X-20080000Y2000000D03*
%TO.P,U2,6,CANH*%
%TO.N,unconnected-(U2-Pad6)*%
X-22620000Y2000000D03*
%TO.P,U2,7,CANL*%
%TO.N,unconnected-(U2-Pad7)*%
X-25160000Y2000000D03*
%TD*%
D13*
%TO.P,U1,1,CHAN_A*%
%TO.N,/CHAN_A*%
X0Y0D03*
%TO.P,U1,2,CHAN_B*%
%TO.N,/CHAN_B*%
X0Y5000000D03*
%TO.P,U1,3,COM*%
%TO.N,+3V3*%
X0Y10000000D03*
%TO.P,U1,4,BTN_D*%
%TO.N,/BUTTON*%
X-2600000Y2500000D03*
%TO.P,U1,5,BTN_E*%
%TO.N,+3V3*%
X-2600000Y7500000D03*
D14*
%TO.P,U1,6*%
%TO.N,N/C*%
X-2600000Y13200002D03*
%TO.P,U1,7*%
X-2600000Y-3200001D03*
%TD*%
D15*
%TO.P,R4,2*%
%TO.N,GND*%
X-41275000Y2540000D03*
D16*
%TO.P,R4,1*%
%TO.N,/LEADER*%
X-41275000Y-7620000D03*
%TD*%
D15*
%TO.P,R3,2*%
%TO.N,GND*%
X-38100000Y2540000D03*
D16*
%TO.P,R3,1*%
%TO.N,/BUTTON*%
X-38100000Y-7620000D03*
%TD*%
D15*
%TO.P,R2,2*%
%TO.N,GND*%
X-34925000Y2540000D03*
D16*
%TO.P,R2,1*%
%TO.N,/CHAN_A*%
X-34925000Y-7620000D03*
%TD*%
D15*
%TO.P,R1,2*%
%TO.N,GND*%
X-31750000Y2540000D03*
D16*
%TO.P,R1,1*%
%TO.N,/CHAN_B*%
X-31750000Y-7620000D03*
%TD*%
D17*
%TO.P,J3,1,Pin_1*%
%TO.N,Net-(J3-Pad1)*%
X-3540000Y18000000D03*
D18*
%TO.P,J3,2,Pin_2*%
%TO.N,GND*%
X-1000000Y18000000D03*
%TD*%
D17*
%TO.P,J2,1,Pin_1*%
%TO.N,+3V3*%
X-1270000Y-8255000D03*
D18*
%TO.P,J2,2,Pin_2*%
%TO.N,/LEADER*%
X-3810000Y-8255000D03*
%TD*%
D17*
%TO.P,J1,1,Pin_1*%
%TO.N,/UART_RX*%
X-36210000Y5715000D03*
D18*
%TO.P,J1,2,Pin_2*%
%TO.N,/UART_TX*%
X-38750000Y5715000D03*
%TO.P,J1,3,Pin_3*%
%TO.N,GND*%
X-41290000Y5715000D03*
%TD*%
D19*
%TO.N,/UART_TX*%
X-10795000Y-5715000D03*
%TO.N,/CHAN_A*%
X-6985000Y0D03*
X-1905000Y0D03*
X-1905000Y0D03*
%TD*%
D20*
%TO.N,/UART_TX*%
X-36845000Y7620000D02*
X-38750000Y5715000D01*
X-33655000Y7620000D02*
X-36845000Y7620000D01*
X-28575000Y1270000D02*
X-28575000Y2540000D01*
X-25400000Y-1905000D02*
X-28575000Y1270000D01*
X-14605000Y-1905000D02*
X-25400000Y-1905000D01*
X-28575000Y2540000D02*
X-33655000Y7620000D01*
X-10795000Y-5715000D02*
X-14605000Y-1905000D01*
D21*
%TO.N,Net-(U3-Pad14)*%
X-39080000Y16000000D02*
X-39080000Y15585000D01*
X-39080000Y15585000D02*
X-30072895Y6577895D01*
X-30072895Y6577895D02*
X-24638277Y6577895D01*
D20*
%TO.N,/LEADER*%
X-3810000Y-8255000D02*
X-5715000Y-6350000D01*
X-5715000Y-6350000D02*
X-10160000Y-6350000D01*
X-10160000Y-6350000D02*
X-11920000Y-8110000D01*
X-11920000Y-8110000D02*
X-11920000Y-8620000D01*
%TO.N,/CHAN_A*%
X-1905000Y0D02*
X-6985000Y0D01*
D21*
%TO.N,Net-(J3-Pad1)*%
X-3540000Y18000000D02*
X-8205000Y13335000D01*
X-8205000Y13335000D02*
X-31335000Y13335000D01*
X-31335000Y13335000D02*
X-34000000Y16000000D01*
%TO.N,+3V3*%
X-9920000Y2000000D02*
X-12365000Y4445000D01*
X-12365000Y4445000D02*
X-17365000Y4445000D01*
X-17365000Y4445000D02*
X-19540000Y6620000D01*
D20*
%TO.N,/CHAN_B*%
X-19540000Y-8620000D02*
X-21810000Y-6350000D01*
X-21810000Y-6350000D02*
X-30480000Y-6350000D01*
X-30480000Y-6350000D02*
X-31750000Y-7620000D01*
%TO.N,/LEADER*%
X-11920000Y-8620000D02*
X-16095000Y-4445000D01*
X-16095000Y-4445000D02*
X-39370000Y-4445000D01*
X-39370000Y-4445000D02*
X-41275000Y-6350000D01*
X-41275000Y-6350000D02*
X-41275000Y-7620000D01*
%TO.N,/BUTTON*%
X-14460000Y-8620000D02*
X-18000000Y-5080000D01*
X-35560000Y-5080000D02*
X-38100000Y-7620000D01*
X-18000000Y-5080000D02*
X-35560000Y-5080000D01*
%TO.N,/CHAN_A*%
X-17000000Y-8620000D02*
X-19905000Y-5715000D01*
X-19905000Y-5715000D02*
X-34290000Y-5715000D01*
X-34290000Y-5715000D02*
X-34925000Y-6350000D01*
X-34925000Y-6350000D02*
X-34925000Y-7620000D01*
%TO.N,+3V3*%
X-2600000Y7500000D02*
X-100000Y10000000D01*
X-100000Y10000000D02*
X0Y10000000D01*
X-9920000Y2000000D02*
X-8100000Y2000000D01*
X-8100000Y2000000D02*
X-2600000Y7500000D01*
X-9920000Y2000000D02*
X-9920000Y395000D01*
X-9920000Y395000D02*
X-1270000Y-8255000D01*
%TD*%
%TA.AperFunction,Conductor*%
%TO.N,GND*%
G36*
X3145018Y22350000D02*
G01*
X3159852Y22347690D01*
X3159855Y22347690D01*
X3168724Y22346309D01*
X3178659Y22347608D01*
X3179746Y22347750D01*
X3208431Y22348207D01*
X3281741Y22340987D01*
X3311212Y22338084D01*
X3335432Y22333267D01*
X3454546Y22297134D01*
X3477355Y22287685D01*
X3587124Y22229013D01*
X3607655Y22215295D01*
X3703876Y22136329D01*
X3721329Y22118876D01*
X3800295Y22022655D01*
X3814013Y22002124D01*
X3872685Y21892355D01*
X3882134Y21869546D01*
X3918267Y21750432D01*
X3923084Y21726211D01*
X3932541Y21630191D01*
X3932091Y21614132D01*
X3932800Y21614123D01*
X3932690Y21605147D01*
X3931309Y21596276D01*
X3932473Y21587374D01*
X3932473Y21587372D01*
X3935436Y21564717D01*
X3936500Y21548379D01*
X3936500Y-11380633D01*
X3935000Y-11400018D01*
X3934269Y-11404717D01*
X3931309Y-11423724D01*
X3932473Y-11432626D01*
X3932750Y-11434746D01*
X3933207Y-11463431D01*
X3925987Y-11536741D01*
X3923084Y-11566212D01*
X3918267Y-11590432D01*
X3882134Y-11709546D01*
X3872685Y-11732355D01*
X3814013Y-11842124D01*
X3800295Y-11862655D01*
X3721329Y-11958876D01*
X3703876Y-11976329D01*
X3607655Y-12055295D01*
X3587124Y-12069013D01*
X3477355Y-12127685D01*
X3454546Y-12137134D01*
X3335432Y-12173267D01*
X3311211Y-12178084D01*
X3215191Y-12187541D01*
X3199132Y-12187091D01*
X3199123Y-12187800D01*
X3190147Y-12187690D01*
X3181276Y-12186309D01*
X3172374Y-12187473D01*
X3172372Y-12187473D01*
X3159856Y-12189110D01*
X3149714Y-12190436D01*
X3133379Y-12191500D01*
X-49480633Y-12191500D01*
X-49500018Y-12190000D01*
X-49514852Y-12187690D01*
X-49514855Y-12187690D01*
X-49523724Y-12186309D01*
X-49533659Y-12187608D01*
X-49534746Y-12187750D01*
X-49563431Y-12188207D01*
X-49632999Y-12181355D01*
X-49666213Y-12178084D01*
X-49690439Y-12173265D01*
X-49749988Y-12155201D01*
X-49809538Y-12137137D01*
X-49832357Y-12127685D01*
X-49942128Y-12069011D01*
X-49962655Y-12055295D01*
X-50058876Y-11976329D01*
X-50076329Y-11958876D01*
X-50155295Y-11862655D01*
X-50169013Y-11842125D01*
X-50169013Y-11842124D01*
X-50227686Y-11732355D01*
X-50237134Y-11709547D01*
X-50273267Y-11590433D01*
X-50278084Y-11566212D01*
X-50287541Y-11470191D01*
X-50287091Y-11454132D01*
X-50287800Y-11454123D01*
X-50287690Y-11445147D01*
X-50286309Y-11436276D01*
X-50289110Y-11414852D01*
X-50290436Y-11404717D01*
X-50291500Y-11388379D01*
X-50291500Y-7727655D01*
X-48750142Y-7727655D01*
X-48714896Y-7986638D01*
X-48713588Y-7991124D01*
X-48713588Y-7991126D01*
X-48693902Y-8058664D01*
X-48641757Y-8237567D01*
X-48532332Y-8474928D01*
X-48529769Y-8478837D01*
X-48391590Y-8689596D01*
X-48391586Y-8689601D01*
X-48389024Y-8693509D01*
X-48214982Y-8888506D01*
X-48014030Y-9055637D01*
X-48010027Y-9058066D01*
X-47794578Y-9188804D01*
X-47794574Y-9188806D01*
X-47790581Y-9191229D01*
X-47549545Y-9292303D01*
X-47296217Y-9356641D01*
X-47291566Y-9357109D01*
X-47291562Y-9357110D01*
X-47147340Y-9371632D01*
X-47079133Y-9378500D01*
X-46923646Y-9378500D01*
X-46921321Y-9378327D01*
X-46921315Y-9378327D01*
X-46734000Y-9364407D01*
X-46733996Y-9364406D01*
X-46729348Y-9364061D01*
X-46724800Y-9363032D01*
X-46724794Y-9363031D01*
X-46538399Y-9320853D01*
X-46474423Y-9306377D01*
X-46470069Y-9304684D01*
X-46235176Y-9213340D01*
X-46235173Y-9213339D01*
X-46230823Y-9211647D01*
X-46214360Y-9202238D01*
X-46134390Y-9156531D01*
X-46003902Y-9081951D01*
X-45798643Y-8920138D01*
X-45619557Y-8729763D01*
X-45470576Y-8515009D01*
X-45445569Y-8464300D01*
X-45357040Y-8284781D01*
X-45357039Y-8284778D01*
X-45354975Y-8280593D01*
X-45325692Y-8189114D01*
X-45276720Y-8036123D01*
X-45275293Y-8031665D01*
X-45233279Y-7773693D01*
X-45231267Y-7620000D01*
X-42588498Y-7620000D01*
X-42568543Y-7848087D01*
X-42567119Y-7853400D01*
X-42567119Y-7853402D01*
X-42544741Y-7936915D01*
X-42509284Y-8069243D01*
X-42506961Y-8074224D01*
X-42506961Y-8074225D01*
X-42414849Y-8271762D01*
X-42414846Y-8271767D01*
X-42412523Y-8276749D01*
X-42403792Y-8289218D01*
X-42298530Y-8439547D01*
X-42281198Y-8464300D01*
X-42119300Y-8626198D01*
X-42114792Y-8629355D01*
X-42114789Y-8629357D01*
X-42074459Y-8657596D01*
X-41931749Y-8757523D01*
X-41926767Y-8759846D01*
X-41926762Y-8759849D01*
X-41763488Y-8835984D01*
X-41724243Y-8854284D01*
X-41718935Y-8855706D01*
X-41718933Y-8855707D01*
X-41508402Y-8912119D01*
X-41508400Y-8912119D01*
X-41503087Y-8913543D01*
X-41275000Y-8933498D01*
X-41046913Y-8913543D01*
X-41041600Y-8912119D01*
X-41041598Y-8912119D01*
X-40831067Y-8855707D01*
X-40831065Y-8855706D01*
X-40825757Y-8854284D01*
X-40786512Y-8835984D01*
X-40623238Y-8759849D01*
X-40623233Y-8759846D01*
X-40618251Y-8757523D01*
X-40475541Y-8657596D01*
X-40435211Y-8629357D01*
X-40435208Y-8629355D01*
X-40430700Y-8626198D01*
X-40268802Y-8464300D01*
X-40251469Y-8439547D01*
X-40146208Y-8289218D01*
X-40137477Y-8276749D01*
X-40135154Y-8271767D01*
X-40135151Y-8271762D01*
X-40043039Y-8074225D01*
X-40043039Y-8074224D01*
X-40040716Y-8069243D01*
X-40005258Y-7936915D01*
X-39982881Y-7853402D01*
X-39982881Y-7853400D01*
X-39981457Y-7848087D01*
X-39961502Y-7620000D01*
X-39981457Y-7391913D01*
X-39982883Y-7386591D01*
X-40039293Y-7176067D01*
X-40039294Y-7176065D01*
X-40040716Y-7170757D01*
X-40057290Y-7135213D01*
X-40135151Y-6968238D01*
X-40135154Y-6968233D01*
X-40137477Y-6963251D01*
X-40268802Y-6775700D01*
X-40430700Y-6613802D01*
X-40435211Y-6610643D01*
X-40439424Y-6607108D01*
X-40438106Y-6605537D01*
X-40476841Y-6557059D01*
X-40484136Y-6486438D01*
X-40449327Y-6420231D01*
X-39829481Y-5800386D01*
X-39144500Y-5115405D01*
X-39082188Y-5081379D01*
X-39055405Y-5078500D01*
X-36758595Y-5078500D01*
X-36690474Y-5098502D01*
X-36643981Y-5152158D01*
X-36633877Y-5222432D01*
X-36663371Y-5287012D01*
X-36669500Y-5293595D01*
X-37686753Y-6310848D01*
X-37749065Y-6344874D01*
X-37808458Y-6343460D01*
X-37871913Y-6326457D01*
X-38100000Y-6306502D01*
X-38328087Y-6326457D01*
X-38333400Y-6327881D01*
X-38333402Y-6327881D01*
X-38543933Y-6384293D01*
X-38543935Y-6384294D01*
X-38549243Y-6385716D01*
X-38554224Y-6388039D01*
X-38554225Y-6388039D01*
X-38751762Y-6480151D01*
X-38751767Y-6480154D01*
X-38756749Y-6482477D01*
X-38861611Y-6555902D01*
X-38939789Y-6610643D01*
X-38939792Y-6610645D01*
X-38944300Y-6613802D01*
X-39106198Y-6775700D01*
X-39237523Y-6963251D01*
X-39239846Y-6968233D01*
X-39239849Y-6968238D01*
X-39317710Y-7135213D01*
X-39334284Y-7170757D01*
X-39335706Y-7176065D01*
X-39335707Y-7176067D01*
X-39392117Y-7386591D01*
X-39393543Y-7391913D01*
X-39413498Y-7620000D01*
X-39393543Y-7848087D01*
X-39392119Y-7853400D01*
X-39392119Y-7853402D01*
X-39369741Y-7936915D01*
X-39334284Y-8069243D01*
X-39331961Y-8074224D01*
X-39331961Y-8074225D01*
X-39239849Y-8271762D01*
X-39239846Y-8271767D01*
X-39237523Y-8276749D01*
X-39228792Y-8289218D01*
X-39123530Y-8439547D01*
X-39106198Y-8464300D01*
X-38944300Y-8626198D01*
X-38939792Y-8629355D01*
X-38939789Y-8629357D01*
X-38899459Y-8657596D01*
X-38756749Y-8757523D01*
X-38751767Y-8759846D01*
X-38751762Y-8759849D01*
X-38588488Y-8835984D01*
X-38549243Y-8854284D01*
X-38543935Y-8855706D01*
X-38543933Y-8855707D01*
X-38333402Y-8912119D01*
X-38333400Y-8912119D01*
X-38328087Y-8913543D01*
X-38100000Y-8933498D01*
X-37871913Y-8913543D01*
X-37866600Y-8912119D01*
X-37866598Y-8912119D01*
X-37656067Y-8855707D01*
X-37656065Y-8855706D01*
X-37650757Y-8854284D01*
X-37611512Y-8835984D01*
X-37448238Y-8759849D01*
X-37448233Y-8759846D01*
X-37443251Y-8757523D01*
X-37300541Y-8657596D01*
X-37260211Y-8629357D01*
X-37260208Y-8629355D01*
X-37255700Y-8626198D01*
X-37093802Y-8464300D01*
X-37076469Y-8439547D01*
X-36971208Y-8289218D01*
X-36962477Y-8276749D01*
X-36960154Y-8271767D01*
X-36960151Y-8271762D01*
X-36868039Y-8074225D01*
X-36868039Y-8074224D01*
X-36865716Y-8069243D01*
X-36830258Y-7936915D01*
X-36807881Y-7853402D01*
X-36807881Y-7853400D01*
X-36806457Y-7848087D01*
X-36786502Y-7620000D01*
X-36806457Y-7391913D01*
X-36807881Y-7386598D01*
X-36807882Y-7386591D01*
X-36823459Y-7328459D01*
X-36821770Y-7257483D01*
X-36790848Y-7206752D01*
X-35773595Y-6189499D01*
X-35711283Y-6155473D01*
X-35640468Y-6160538D01*
X-35583632Y-6203085D01*
X-35558821Y-6269605D01*
X-35558500Y-6278594D01*
X-35558500Y-6290224D01*
X-35560051Y-6309934D01*
X-35563220Y-6329943D01*
X-35562474Y-6337835D01*
X-35559059Y-6373961D01*
X-35558500Y-6385819D01*
X-35558500Y-6400606D01*
X-35578502Y-6468727D01*
X-35612229Y-6503819D01*
X-35764789Y-6610643D01*
X-35764792Y-6610645D01*
X-35769300Y-6613802D01*
X-35931198Y-6775700D01*
X-36062523Y-6963251D01*
X-36064846Y-6968233D01*
X-36064849Y-6968238D01*
X-36142710Y-7135213D01*
X-36159284Y-7170757D01*
X-36160706Y-7176065D01*
X-36160707Y-7176067D01*
X-36217117Y-7386591D01*
X-36218543Y-7391913D01*
X-36238498Y-7620000D01*
X-36218543Y-7848087D01*
X-36217119Y-7853400D01*
X-36217119Y-7853402D01*
X-36194741Y-7936915D01*
X-36159284Y-8069243D01*
X-36156961Y-8074224D01*
X-36156961Y-8074225D01*
X-36064849Y-8271762D01*
X-36064846Y-8271767D01*
X-36062523Y-8276749D01*
X-36053792Y-8289218D01*
X-35948530Y-8439547D01*
X-35931198Y-8464300D01*
X-35769300Y-8626198D01*
X-35764792Y-8629355D01*
X-35764789Y-8629357D01*
X-35724459Y-8657596D01*
X-35581749Y-8757523D01*
X-35576767Y-8759846D01*
X-35576762Y-8759849D01*
X-35413488Y-8835984D01*
X-35374243Y-8854284D01*
X-35368935Y-8855706D01*
X-35368933Y-8855707D01*
X-35158402Y-8912119D01*
X-35158400Y-8912119D01*
X-35153087Y-8913543D01*
X-34925000Y-8933498D01*
X-34696913Y-8913543D01*
X-34691600Y-8912119D01*
X-34691598Y-8912119D01*
X-34481067Y-8855707D01*
X-34481065Y-8855706D01*
X-34475757Y-8854284D01*
X-34436512Y-8835984D01*
X-34273238Y-8759849D01*
X-34273233Y-8759846D01*
X-34268251Y-8757523D01*
X-34125541Y-8657596D01*
X-34085211Y-8629357D01*
X-34085208Y-8629355D01*
X-34080700Y-8626198D01*
X-33918802Y-8464300D01*
X-33901469Y-8439547D01*
X-33796208Y-8289218D01*
X-33787477Y-8276749D01*
X-33785154Y-8271767D01*
X-33785151Y-8271762D01*
X-33693039Y-8074225D01*
X-33693039Y-8074224D01*
X-33690716Y-8069243D01*
X-33655258Y-7936915D01*
X-33632881Y-7853402D01*
X-33632881Y-7853400D01*
X-33631457Y-7848087D01*
X-33611502Y-7620000D01*
X-33631457Y-7391913D01*
X-33632883Y-7386591D01*
X-33689293Y-7176067D01*
X-33689294Y-7176065D01*
X-33690716Y-7170757D01*
X-33707290Y-7135213D01*
X-33785151Y-6968238D01*
X-33785154Y-6968233D01*
X-33787477Y-6963251D01*
X-33918802Y-6775700D01*
X-34080700Y-6613802D01*
X-34085211Y-6610643D01*
X-34089424Y-6607108D01*
X-34088106Y-6605537D01*
X-34126841Y-6557059D01*
X-34134136Y-6486438D01*
X-34099327Y-6420231D01*
X-34064501Y-6385405D01*
X-34002189Y-6351379D01*
X-33975406Y-6348500D01*
X-32615031Y-6348500D01*
X-32546910Y-6368502D01*
X-32500417Y-6422158D01*
X-32490313Y-6492432D01*
X-32519807Y-6557012D01*
X-32542760Y-6577713D01*
X-32589789Y-6610643D01*
X-32589792Y-6610645D01*
X-32594300Y-6613802D01*
X-32756198Y-6775700D01*
X-32887523Y-6963251D01*
X-32889846Y-6968233D01*
X-32889849Y-6968238D01*
X-32967710Y-7135213D01*
X-32984284Y-7170757D01*
X-32985706Y-7176065D01*
X-32985707Y-7176067D01*
X-33042117Y-7386591D01*
X-33043543Y-7391913D01*
X-33063498Y-7620000D01*
X-33043543Y-7848087D01*
X-33042119Y-7853400D01*
X-33042119Y-7853402D01*
X-33019741Y-7936915D01*
X-32984284Y-8069243D01*
X-32981961Y-8074224D01*
X-32981961Y-8074225D01*
X-32889849Y-8271762D01*
X-32889846Y-8271767D01*
X-32887523Y-8276749D01*
X-32878792Y-8289218D01*
X-32773530Y-8439547D01*
X-32756198Y-8464300D01*
X-32594300Y-8626198D01*
X-32589792Y-8629355D01*
X-32589789Y-8629357D01*
X-32549459Y-8657596D01*
X-32406749Y-8757523D01*
X-32401767Y-8759846D01*
X-32401762Y-8759849D01*
X-32238488Y-8835984D01*
X-32199243Y-8854284D01*
X-32193935Y-8855706D01*
X-32193933Y-8855707D01*
X-31983402Y-8912119D01*
X-31983400Y-8912119D01*
X-31978087Y-8913543D01*
X-31750000Y-8933498D01*
X-31521913Y-8913543D01*
X-31516600Y-8912119D01*
X-31516598Y-8912119D01*
X-31306067Y-8855707D01*
X-31306065Y-8855706D01*
X-31300757Y-8854284D01*
X-31261512Y-8835984D01*
X-31098238Y-8759849D01*
X-31098233Y-8759846D01*
X-31093251Y-8757523D01*
X-30950541Y-8657596D01*
X-30910211Y-8629357D01*
X-30910208Y-8629355D01*
X-30905700Y-8626198D01*
X-30743802Y-8464300D01*
X-30726469Y-8439547D01*
X-30621208Y-8289218D01*
X-30612477Y-8276749D01*
X-30610154Y-8271767D01*
X-30610151Y-8271762D01*
X-30518039Y-8074225D01*
X-30518039Y-8074224D01*
X-30515716Y-8069243D01*
X-30480258Y-7936915D01*
X-30457881Y-7853402D01*
X-30457881Y-7853400D01*
X-30456457Y-7848087D01*
X-30436502Y-7620000D01*
X-30456457Y-7391913D01*
X-30457881Y-7386598D01*
X-30457882Y-7386591D01*
X-30473459Y-7328459D01*
X-30471770Y-7257483D01*
X-30440848Y-7206752D01*
X-30254501Y-7020405D01*
X-30192189Y-6986379D01*
X-30165406Y-6983500D01*
X-22124594Y-6983500D01*
X-22056473Y-7003502D01*
X-22035499Y-7020405D01*
X-21920691Y-7135213D01*
X-21886665Y-7197525D01*
X-21891730Y-7268340D01*
X-21934277Y-7325176D01*
X-22000797Y-7349987D01*
X-22020767Y-7349829D01*
X-22074525Y-7345126D01*
X-22080000Y-7344647D01*
X-22301463Y-7364022D01*
X-22410781Y-7393314D01*
X-22510886Y-7420137D01*
X-22510888Y-7420138D01*
X-22516196Y-7421560D01*
X-22521177Y-7423882D01*
X-22521178Y-7423883D01*
X-22712689Y-7513186D01*
X-22712694Y-7513189D01*
X-22717676Y-7515512D01*
X-22722183Y-7518668D01*
X-22722185Y-7518669D01*
X-22895270Y-7639864D01*
X-22895273Y-7639866D01*
X-22899781Y-7643023D01*
X-23056977Y-7800219D01*
X-23060134Y-7804727D01*
X-23060136Y-7804730D01*
X-23181331Y-7977815D01*
X-23184488Y-7982324D01*
X-23186811Y-7987306D01*
X-23186814Y-7987311D01*
X-23235805Y-8092373D01*
X-23282723Y-8145658D01*
X-23351000Y-8165119D01*
X-23418960Y-8144577D01*
X-23464195Y-8092373D01*
X-23513186Y-7987311D01*
X-23513189Y-7987306D01*
X-23515512Y-7982324D01*
X-23518669Y-7977815D01*
X-23639864Y-7804730D01*
X-23639866Y-7804727D01*
X-23643023Y-7800219D01*
X-23800219Y-7643023D01*
X-23804727Y-7639866D01*
X-23804730Y-7639864D01*
X-23880495Y-7586813D01*
X-23982323Y-7515512D01*
X-23987305Y-7513189D01*
X-23987310Y-7513186D01*
X-24178822Y-7423883D01*
X-24178823Y-7423882D01*
X-24183804Y-7421560D01*
X-24189112Y-7420138D01*
X-24189114Y-7420137D01*
X-24289219Y-7393314D01*
X-24398537Y-7364022D01*
X-24620000Y-7344647D01*
X-24841463Y-7364022D01*
X-24950781Y-7393314D01*
X-25050886Y-7420137D01*
X-25050888Y-7420138D01*
X-25056196Y-7421560D01*
X-25061177Y-7423882D01*
X-25061178Y-7423883D01*
X-25252689Y-7513186D01*
X-25252694Y-7513189D01*
X-25257676Y-7515512D01*
X-25262183Y-7518668D01*
X-25262185Y-7518669D01*
X-25435270Y-7639864D01*
X-25435273Y-7639866D01*
X-25439781Y-7643023D01*
X-25596977Y-7800219D01*
X-25600134Y-7804727D01*
X-25600136Y-7804730D01*
X-25721331Y-7977815D01*
X-25724488Y-7982324D01*
X-25726811Y-7987306D01*
X-25726814Y-7987311D01*
X-25775805Y-8092373D01*
X-25818440Y-8183804D01*
X-25875978Y-8398537D01*
X-25895353Y-8620000D01*
X-25875978Y-8841463D01*
X-25818440Y-9056196D01*
X-25816118Y-9061177D01*
X-25816117Y-9061178D01*
X-25726814Y-9252689D01*
X-25726811Y-9252694D01*
X-25724488Y-9257676D01*
X-25721332Y-9262183D01*
X-25721331Y-9262185D01*
X-25606699Y-9425896D01*
X-25596977Y-9439781D01*
X-25439781Y-9596977D01*
X-25435273Y-9600134D01*
X-25435270Y-9600136D01*
X-25416711Y-9613131D01*
X-25257677Y-9724488D01*
X-25252695Y-9726811D01*
X-25252690Y-9726814D01*
X-25061178Y-9816117D01*
X-25056196Y-9818440D01*
X-25050888Y-9819862D01*
X-25050886Y-9819863D01*
X-24985051Y-9837503D01*
X-24841463Y-9875978D01*
X-24620000Y-9895353D01*
X-24398537Y-9875978D01*
X-24254949Y-9837503D01*
X-24189114Y-9819863D01*
X-24189112Y-9819862D01*
X-24183804Y-9818440D01*
X-24178822Y-9816117D01*
X-23987310Y-9726814D01*
X-23987305Y-9726811D01*
X-23982323Y-9724488D01*
X-23823289Y-9613131D01*
X-23804730Y-9600136D01*
X-23804727Y-9600134D01*
X-23800219Y-9596977D01*
X-23643023Y-9439781D01*
X-23633300Y-9425896D01*
X-23518669Y-9262185D01*
X-23518668Y-9262183D01*
X-23515512Y-9257676D01*
X-23513189Y-9252694D01*
X-23513186Y-9252689D01*
X-23464195Y-9147627D01*
X-23417277Y-9094342D01*
X-23349000Y-9074881D01*
X-23281040Y-9095423D01*
X-23235805Y-9147627D01*
X-23186814Y-9252689D01*
X-23186811Y-9252694D01*
X-23184488Y-9257676D01*
X-23181332Y-9262183D01*
X-23181331Y-9262185D01*
X-23066699Y-9425896D01*
X-23056977Y-9439781D01*
X-22899781Y-9596977D01*
X-22895273Y-9600134D01*
X-22895270Y-9600136D01*
X-22876711Y-9613131D01*
X-22717677Y-9724488D01*
X-22712695Y-9726811D01*
X-22712690Y-9726814D01*
X-22521178Y-9816117D01*
X-22516196Y-9818440D01*
X-22510888Y-9819862D01*
X-22510886Y-9819863D01*
X-22445051Y-9837503D01*
X-22301463Y-9875978D01*
X-22080000Y-9895353D01*
X-21858537Y-9875978D01*
X-21714949Y-9837503D01*
X-21649114Y-9819863D01*
X-21649112Y-9819862D01*
X-21643804Y-9818440D01*
X-21638822Y-9816117D01*
X-21447310Y-9726814D01*
X-21447305Y-9726811D01*
X-21442323Y-9724488D01*
X-21283289Y-9613131D01*
X-21264730Y-9600136D01*
X-21264727Y-9600134D01*
X-21260219Y-9596977D01*
X-21103023Y-9439781D01*
X-21093300Y-9425896D01*
X-20978669Y-9262185D01*
X-20978668Y-9262183D01*
X-20975512Y-9257676D01*
X-20973189Y-9252694D01*
X-20973186Y-9252689D01*
X-20924195Y-9147627D01*
X-20877277Y-9094342D01*
X-20809000Y-9074881D01*
X-20741040Y-9095423D01*
X-20695805Y-9147627D01*
X-20646814Y-9252689D01*
X-20646811Y-9252694D01*
X-20644488Y-9257676D01*
X-20641332Y-9262183D01*
X-20641331Y-9262185D01*
X-20526699Y-9425896D01*
X-20516977Y-9439781D01*
X-20359781Y-9596977D01*
X-20355273Y-9600134D01*
X-20355270Y-9600136D01*
X-20336711Y-9613131D01*
X-20177677Y-9724488D01*
X-20172695Y-9726811D01*
X-20172690Y-9726814D01*
X-19981178Y-9816117D01*
X-19976196Y-9818440D01*
X-19970888Y-9819862D01*
X-19970886Y-9819863D01*
X-19905051Y-9837503D01*
X-19761463Y-9875978D01*
X-19540000Y-9895353D01*
X-19318537Y-9875978D01*
X-19174949Y-9837503D01*
X-19109114Y-9819863D01*
X-19109112Y-9819862D01*
X-19103804Y-9818440D01*
X-19098822Y-9816117D01*
X-18907310Y-9726814D01*
X-18907305Y-9726811D01*
X-18902323Y-9724488D01*
X-18743289Y-9613131D01*
X-18724730Y-9600136D01*
X-18724727Y-9600134D01*
X-18720219Y-9596977D01*
X-18563023Y-9439781D01*
X-18553300Y-9425896D01*
X-18438669Y-9262185D01*
X-18438668Y-9262183D01*
X-18435512Y-9257676D01*
X-18433189Y-9252694D01*
X-18433186Y-9252689D01*
X-18384195Y-9147627D01*
X-18337277Y-9094342D01*
X-18269000Y-9074881D01*
X-18201040Y-9095423D01*
X-18155805Y-9147627D01*
X-18106814Y-9252689D01*
X-18106811Y-9252694D01*
X-18104488Y-9257676D01*
X-18101332Y-9262183D01*
X-18101331Y-9262185D01*
X-17986699Y-9425896D01*
X-17976977Y-9439781D01*
X-17819781Y-9596977D01*
X-17815273Y-9600134D01*
X-17815270Y-9600136D01*
X-17796711Y-9613131D01*
X-17637677Y-9724488D01*
X-17632695Y-9726811D01*
X-17632690Y-9726814D01*
X-17441178Y-9816117D01*
X-17436196Y-9818440D01*
X-17430888Y-9819862D01*
X-17430886Y-9819863D01*
X-17365051Y-9837503D01*
X-17221463Y-9875978D01*
X-17000000Y-9895353D01*
X-16778537Y-9875978D01*
X-16634949Y-9837503D01*
X-16569114Y-9819863D01*
X-16569112Y-9819862D01*
X-16563804Y-9818440D01*
X-16558822Y-9816117D01*
X-16367310Y-9726814D01*
X-16367305Y-9726811D01*
X-16362323Y-9724488D01*
X-16203289Y-9613131D01*
X-16184730Y-9600136D01*
X-16184727Y-9600134D01*
X-16180219Y-9596977D01*
X-16023023Y-9439781D01*
X-16013300Y-9425896D01*
X-15898669Y-9262185D01*
X-15898668Y-9262183D01*
X-15895512Y-9257676D01*
X-15893189Y-9252694D01*
X-15893186Y-9252689D01*
X-15844195Y-9147627D01*
X-15797277Y-9094342D01*
X-15729000Y-9074881D01*
X-15661040Y-9095423D01*
X-15615805Y-9147627D01*
X-15566814Y-9252689D01*
X-15566811Y-9252694D01*
X-15564488Y-9257676D01*
X-15561332Y-9262183D01*
X-15561331Y-9262185D01*
X-15446699Y-9425896D01*
X-15436977Y-9439781D01*
X-15279781Y-9596977D01*
X-15275273Y-9600134D01*
X-15275270Y-9600136D01*
X-15256711Y-9613131D01*
X-15097677Y-9724488D01*
X-15092695Y-9726811D01*
X-15092690Y-9726814D01*
X-14901178Y-9816117D01*
X-14896196Y-9818440D01*
X-14890888Y-9819862D01*
X-14890886Y-9819863D01*
X-14825051Y-9837503D01*
X-14681463Y-9875978D01*
X-14460000Y-9895353D01*
X-14238537Y-9875978D01*
X-14094949Y-9837503D01*
X-14029114Y-9819863D01*
X-14029112Y-9819862D01*
X-14023804Y-9818440D01*
X-14018822Y-9816117D01*
X-13827310Y-9726814D01*
X-13827305Y-9726811D01*
X-13822323Y-9724488D01*
X-13663289Y-9613131D01*
X-13644730Y-9600136D01*
X-13644727Y-9600134D01*
X-13640219Y-9596977D01*
X-13483023Y-9439781D01*
X-13473300Y-9425896D01*
X-13358669Y-9262185D01*
X-13358668Y-9262183D01*
X-13355512Y-9257676D01*
X-13353189Y-9252694D01*
X-13353186Y-9252689D01*
X-13304195Y-9147627D01*
X-13257277Y-9094342D01*
X-13189000Y-9074881D01*
X-13121040Y-9095423D01*
X-13075805Y-9147627D01*
X-13026814Y-9252689D01*
X-13026811Y-9252694D01*
X-13024488Y-9257676D01*
X-13021332Y-9262183D01*
X-13021331Y-9262185D01*
X-12906699Y-9425896D01*
X-12896977Y-9439781D01*
X-12739781Y-9596977D01*
X-12735273Y-9600134D01*
X-12735270Y-9600136D01*
X-12716711Y-9613131D01*
X-12557677Y-9724488D01*
X-12552695Y-9726811D01*
X-12552690Y-9726814D01*
X-12361178Y-9816117D01*
X-12356196Y-9818440D01*
X-12350888Y-9819862D01*
X-12350886Y-9819863D01*
X-12285051Y-9837503D01*
X-12141463Y-9875978D01*
X-11920000Y-9895353D01*
X-11698537Y-9875978D01*
X-11554949Y-9837503D01*
X-11489114Y-9819863D01*
X-11489112Y-9819862D01*
X-11483804Y-9818440D01*
X-11478822Y-9816117D01*
X-11287310Y-9726814D01*
X-11287305Y-9726811D01*
X-11282323Y-9724488D01*
X-11123289Y-9613131D01*
X-11104730Y-9600136D01*
X-11104727Y-9600134D01*
X-11100219Y-9596977D01*
X-10943023Y-9439781D01*
X-10933300Y-9425896D01*
X-10818669Y-9262185D01*
X-10818668Y-9262183D01*
X-10815512Y-9257676D01*
X-10813189Y-9252694D01*
X-10813186Y-9252689D01*
X-10764195Y-9147627D01*
X-10717277Y-9094342D01*
X-10649000Y-9074881D01*
X-10581040Y-9095423D01*
X-10535805Y-9147627D01*
X-10486814Y-9252689D01*
X-10486811Y-9252694D01*
X-10484488Y-9257676D01*
X-10481332Y-9262183D01*
X-10481331Y-9262185D01*
X-10366699Y-9425896D01*
X-10356977Y-9439781D01*
X-10199781Y-9596977D01*
X-10195273Y-9600134D01*
X-10195270Y-9600136D01*
X-10176711Y-9613131D01*
X-10017677Y-9724488D01*
X-10012695Y-9726811D01*
X-10012690Y-9726814D01*
X-9821178Y-9816117D01*
X-9816196Y-9818440D01*
X-9810888Y-9819862D01*
X-9810886Y-9819863D01*
X-9745051Y-9837503D01*
X-9601463Y-9875978D01*
X-9380000Y-9895353D01*
X-9158537Y-9875978D01*
X-9014949Y-9837503D01*
X-8949114Y-9819863D01*
X-8949112Y-9819862D01*
X-8943804Y-9818440D01*
X-8938822Y-9816117D01*
X-8747310Y-9726814D01*
X-8747305Y-9726811D01*
X-8742323Y-9724488D01*
X-8583289Y-9613131D01*
X-8564730Y-9600136D01*
X-8564727Y-9600134D01*
X-8560219Y-9596977D01*
X-8403023Y-9439781D01*
X-8393300Y-9425896D01*
X-8278669Y-9262185D01*
X-8278668Y-9262183D01*
X-8275512Y-9257676D01*
X-8273189Y-9252694D01*
X-8273186Y-9252689D01*
X-8183883Y-9061178D01*
X-8183882Y-9061177D01*
X-8181560Y-9056196D01*
X-8124022Y-8841463D01*
X-8104647Y-8620000D01*
X-8124022Y-8398537D01*
X-8181560Y-8183804D01*
X-8224195Y-8092373D01*
X-8273186Y-7987311D01*
X-8273189Y-7987306D01*
X-8275512Y-7982324D01*
X-8278669Y-7977815D01*
X-8399864Y-7804730D01*
X-8399866Y-7804727D01*
X-8403023Y-7800219D01*
X-8560219Y-7643023D01*
X-8564727Y-7639866D01*
X-8564730Y-7639864D01*
X-8640495Y-7586813D01*
X-8742323Y-7515512D01*
X-8747305Y-7513189D01*
X-8747310Y-7513186D01*
X-8938822Y-7423883D01*
X-8938823Y-7423882D01*
X-8943804Y-7421560D01*
X-8949112Y-7420138D01*
X-8949114Y-7420137D01*
X-9049219Y-7393314D01*
X-9158537Y-7364022D01*
X-9380000Y-7344647D01*
X-9601463Y-7364022D01*
X-9710781Y-7393314D01*
X-9810886Y-7420137D01*
X-9810888Y-7420138D01*
X-9816196Y-7421560D01*
X-9821177Y-7423882D01*
X-9821178Y-7423883D01*
X-10012689Y-7513186D01*
X-10012694Y-7513189D01*
X-10017676Y-7515512D01*
X-10022183Y-7518668D01*
X-10022185Y-7518669D01*
X-10195270Y-7639864D01*
X-10195273Y-7639866D01*
X-10199781Y-7643023D01*
X-10356977Y-7800219D01*
X-10360134Y-7804727D01*
X-10360136Y-7804730D01*
X-10481331Y-7977815D01*
X-10484488Y-7982324D01*
X-10486811Y-7987306D01*
X-10486814Y-7987311D01*
X-10535805Y-8092373D01*
X-10582723Y-8145658D01*
X-10651000Y-8165119D01*
X-10718960Y-8144577D01*
X-10764195Y-8092373D01*
X-10803956Y-8007106D01*
X-10814617Y-7936915D01*
X-10785637Y-7872102D01*
X-10778856Y-7864760D01*
X-9934499Y-7020404D01*
X-9872187Y-6986379D01*
X-9845404Y-6983500D01*
X-6029594Y-6983500D01*
X-5961473Y-7003502D01*
X-5940499Y-7020405D01*
X-5160222Y-7800682D01*
X-5126196Y-7862994D01*
X-5127900Y-7923448D01*
X-5149011Y-7999570D01*
X-5149559Y-8004700D01*
X-5149560Y-8004704D01*
X-5155889Y-8063933D01*
X-5172749Y-8221695D01*
X-5172452Y-8226848D01*
X-5172452Y-8226851D01*
X-5169575Y-8276749D01*
X-5159890Y-8444715D01*
X-5158753Y-8449761D01*
X-5158752Y-8449767D01*
X-5134696Y-8556508D01*
X-5110778Y-8662639D01*
X-5098243Y-8693509D01*
X-5040390Y-8835984D01*
X-5026734Y-8869616D01*
X-4910013Y-9060088D01*
X-4763750Y-9228938D01*
X-4591874Y-9371632D01*
X-4399000Y-9484338D01*
X-4190308Y-9564030D01*
X-4185240Y-9565061D01*
X-4185237Y-9565062D01*
X-4077983Y-9586883D01*
X-3971403Y-9608567D01*
X-3966228Y-9608757D01*
X-3966226Y-9608757D01*
X-3753327Y-9616564D01*
X-3753323Y-9616564D01*
X-3748163Y-9616753D01*
X-3743043Y-9616097D01*
X-3743041Y-9616097D01*
X-3531712Y-9589025D01*
X-3531711Y-9589025D01*
X-3526584Y-9588368D01*
X-3521634Y-9586883D01*
X-3317571Y-9525661D01*
X-3317566Y-9525659D01*
X-3312616Y-9524174D01*
X-3112006Y-9425896D01*
X-2930140Y-9296173D01*
X-2821909Y-9188319D01*
X-2759538Y-9154404D01*
X-2688732Y-9159592D01*
X-2631970Y-9202238D01*
X-2614988Y-9233341D01*
X-2605865Y-9257676D01*
X-2570615Y-9351705D01*
X-2483261Y-9468261D01*
X-2366705Y-9555615D01*
X-2230316Y-9606745D01*
X-2168134Y-9613500D01*
X-371866Y-9613500D01*
X-309684Y-9606745D01*
X-173295Y-9555615D01*
X-56739Y-9468261D01*
X30615Y-9351705D01*
X81745Y-9215316D01*
X88500Y-9153134D01*
X88500Y-7356866D01*
X81745Y-7294684D01*
X30615Y-7158295D01*
X-56739Y-7041739D01*
X-173295Y-6954385D01*
X-309684Y-6903255D01*
X-371866Y-6896500D01*
X-1680405Y-6896500D01*
X-1748526Y-6876498D01*
X-1769500Y-6859595D01*
X-5429094Y-3200001D01*
X-4218389Y-3200001D01*
X-4198464Y-3453173D01*
X-4197310Y-3457980D01*
X-4197309Y-3457986D01*
X-4160910Y-3609596D01*
X-4139179Y-3700111D01*
X-4137286Y-3704682D01*
X-4137285Y-3704684D01*
X-4048656Y-3918652D01*
X-4041995Y-3934734D01*
X-3909304Y-4151266D01*
X-3744374Y-4344375D01*
X-3551265Y-4509305D01*
X-3334733Y-4641996D01*
X-3330163Y-4643889D01*
X-3330159Y-4643891D01*
X-3104683Y-4737286D01*
X-3100110Y-4739180D01*
X-3013405Y-4759996D01*
X-2857985Y-4797310D01*
X-2857979Y-4797311D01*
X-2853172Y-4798465D01*
X-2600000Y-4818390D01*
X-2346828Y-4798465D01*
X-2342021Y-4797311D01*
X-2342015Y-4797310D01*
X-2186595Y-4759996D01*
X-2099890Y-4739180D01*
X-2095317Y-4737286D01*
X-1869841Y-4643891D01*
X-1869837Y-4643889D01*
X-1865267Y-4641996D01*
X-1648735Y-4509305D01*
X-1455626Y-4344375D01*
X-1290696Y-4151266D01*
X-1158005Y-3934734D01*
X-1151343Y-3918652D01*
X-1062715Y-3704684D01*
X-1062714Y-3704682D01*
X-1060821Y-3700111D01*
X-1039090Y-3609596D01*
X-1002691Y-3457986D01*
X-1002690Y-3457980D01*
X-1001536Y-3453173D01*
X-981611Y-3200001D01*
X-1001536Y-2946829D01*
X-1002690Y-2942022D01*
X-1002691Y-2942016D01*
X-1059666Y-2704703D01*
X-1060821Y-2699891D01*
X-1084395Y-2642978D01*
X-1156110Y-2469842D01*
X-1156112Y-2469838D01*
X-1158005Y-2465268D01*
X-1290696Y-2248736D01*
X-1455626Y-2055627D01*
X-1648735Y-1890697D01*
X-1865267Y-1758006D01*
X-1869837Y-1756113D01*
X-1869841Y-1756111D01*
X-2095317Y-1662716D01*
X-2095319Y-1662715D01*
X-2099890Y-1660822D01*
X-2186595Y-1640006D01*
X-2342015Y-1602692D01*
X-2342021Y-1602691D01*
X-2346828Y-1601537D01*
X-2600000Y-1581612D01*
X-2853172Y-1601537D01*
X-2857979Y-1602691D01*
X-2857985Y-1602692D01*
X-3013405Y-1640006D01*
X-3100110Y-1660822D01*
X-3104681Y-1662715D01*
X-3104683Y-1662716D01*
X-3330159Y-1756111D01*
X-3330163Y-1756113D01*
X-3334733Y-1758006D01*
X-3551265Y-1890697D01*
X-3744374Y-2055627D01*
X-3909304Y-2248736D01*
X-4041995Y-2465268D01*
X-4043888Y-2469838D01*
X-4043890Y-2469842D01*
X-4115605Y-2642978D01*
X-4139179Y-2699891D01*
X-4140334Y-2704703D01*
X-4197309Y-2942016D01*
X-4197310Y-2942022D01*
X-4198464Y-2946829D01*
X-4218389Y-3200001D01*
X-5429094Y-3200001D01*
X-7758637Y-870458D01*
X-7769602Y-850377D01*
X-7775506Y-848765D01*
X-7798511Y-830584D01*
X-8629095Y0D01*
X-7898504Y0D01*
X-7897814Y-6565D01*
X-7891115Y-70298D01*
X-7878542Y-189928D01*
X-7819527Y-371556D01*
X-7724040Y-536944D01*
X-7719622Y-541851D01*
X-7719621Y-541852D01*
X-7615780Y-657179D01*
X-7609266Y-670751D01*
X-7609157Y-670775D01*
X-7595481Y-679427D01*
X-7474863Y-767061D01*
X-7441752Y-791118D01*
X-7435724Y-793802D01*
X-7435722Y-793803D01*
X-7273319Y-866109D01*
X-7267288Y-868794D01*
X-7173888Y-888647D01*
X-7086944Y-907128D01*
X-7086939Y-907128D01*
X-7080487Y-908500D01*
X-6889513Y-908500D01*
X-6883061Y-907128D01*
X-6883056Y-907128D01*
X-6796112Y-888647D01*
X-6702712Y-868794D01*
X-6696681Y-866109D01*
X-6534278Y-793803D01*
X-6534276Y-793802D01*
X-6528248Y-791118D01*
X-6495136Y-767061D01*
X-6379086Y-682745D01*
X-6373747Y-678866D01*
X-6369332Y-673963D01*
X-6364420Y-669540D01*
X-6363295Y-670789D01*
X-6309986Y-637949D01*
X-6276800Y-633500D01*
X-2613200Y-633500D01*
X-2545079Y-653502D01*
X-2525853Y-669843D01*
X-2525580Y-669540D01*
X-2520668Y-673963D01*
X-2516253Y-678866D01*
X-2510914Y-682745D01*
X-2394863Y-767061D01*
X-2361752Y-791118D01*
X-2355724Y-793802D01*
X-2355722Y-793803D01*
X-2193319Y-866109D01*
X-2187288Y-868794D01*
X-2093888Y-888647D01*
X-2006944Y-907128D01*
X-2006939Y-907128D01*
X-2000487Y-908500D01*
X-1809513Y-908500D01*
X-1803061Y-907128D01*
X-1803056Y-907128D01*
X-1716112Y-888647D01*
X-1622712Y-868794D01*
X-1616681Y-866109D01*
X-1454278Y-793803D01*
X-1454276Y-793802D01*
X-1448248Y-791118D01*
X-1415136Y-767061D01*
X-1365448Y-730960D01*
X-1298580Y-707102D01*
X-1229429Y-723182D01*
X-1183955Y-767061D01*
X-1144578Y-831317D01*
X-1144575Y-831322D01*
X-1141875Y-835727D01*
X-990047Y-1011002D01*
X-811630Y-1159127D01*
X-807178Y-1161729D01*
X-807173Y-1161732D01*
X-620284Y-1270941D01*
X-611416Y-1276123D01*
X-394782Y-1358847D01*
X-389714Y-1359878D01*
X-389711Y-1359879D01*
X-320898Y-1373879D01*
X-167546Y-1405079D01*
X-162373Y-1405269D01*
X-162370Y-1405269D01*
X59026Y-1413387D01*
X59030Y-1413387D01*
X64190Y-1413576D01*
X69310Y-1412920D01*
X69312Y-1412920D01*
X140109Y-1403851D01*
X294202Y-1384111D01*
X299151Y-1382626D01*
X299157Y-1382625D01*
X511370Y-1318958D01*
X516313Y-1317475D01*
X539192Y-1306267D01*
X719920Y-1217729D01*
X724558Y-1215457D01*
X808156Y-1155827D01*
X909132Y-1083802D01*
X909137Y-1083798D01*
X913344Y-1080797D01*
X1077602Y-917111D01*
X1212920Y-728796D01*
X1241608Y-670751D01*
X1313370Y-525550D01*
X1313371Y-525548D01*
X1315664Y-520908D01*
X1331672Y-468220D01*
X1381572Y-303984D01*
X1381573Y-303978D01*
X1383076Y-299032D01*
X1413344Y-69124D01*
X1415033Y0D01*
X1403407Y141407D01*
X1396456Y225961D01*
X1396455Y225967D01*
X1396032Y231112D01*
X1339540Y456017D01*
X1247073Y668675D01*
X1121116Y863376D01*
X1117185Y867697D01*
X968528Y1031068D01*
X968526Y1031069D01*
X965050Y1034890D01*
X960999Y1038089D01*
X960995Y1038093D01*
X787125Y1175406D01*
X783067Y1178611D01*
X580055Y1290680D01*
X449514Y1336907D01*
X366339Y1366361D01*
X366335Y1366362D01*
X361464Y1368087D01*
X356371Y1368994D01*
X356368Y1368995D01*
X138255Y1407847D01*
X138249Y1407848D01*
X133166Y1408753D01*
X44632Y1409835D01*
X-93539Y1411523D01*
X-93541Y1411523D01*
X-98708Y1411586D01*
X-327931Y1376510D01*
X-548347Y1304467D01*
X-552935Y1302079D01*
X-552939Y1302077D01*
X-749449Y1199780D01*
X-754038Y1197391D01*
X-758171Y1194288D01*
X-758174Y1194286D01*
X-930941Y1064569D01*
X-939478Y1058159D01*
X-1099687Y890509D01*
X-1102601Y886237D01*
X-1102602Y886236D01*
X-1187382Y761953D01*
X-1242293Y716950D01*
X-1312818Y708779D01*
X-1365531Y731021D01*
X-1442906Y787237D01*
X-1442907Y787238D01*
X-1448248Y791118D01*
X-1454276Y793802D01*
X-1454278Y793803D01*
X-1616681Y866109D01*
X-1616682Y866109D01*
X-1622712Y868794D01*
X-1724872Y890509D01*
X-1803056Y907128D01*
X-1803061Y907128D01*
X-1809513Y908500D01*
X-2000487Y908500D01*
X-2006939Y907128D01*
X-2006944Y907128D01*
X-2085128Y890509D01*
X-2187288Y868794D01*
X-2193318Y866109D01*
X-2193319Y866109D01*
X-2355722Y793803D01*
X-2355724Y793802D01*
X-2361752Y791118D01*
X-2516253Y678866D01*
X-2520668Y673963D01*
X-2525580Y669540D01*
X-2526705Y670789D01*
X-2580014Y637949D01*
X-2613200Y633500D01*
X-6276800Y633500D01*
X-6344921Y653502D01*
X-6364147Y669843D01*
X-6364420Y669540D01*
X-6369332Y673963D01*
X-6373747Y678866D01*
X-6528248Y791118D01*
X-6534276Y793802D01*
X-6534278Y793803D01*
X-6696681Y866109D01*
X-6696682Y866109D01*
X-6702712Y868794D01*
X-6804872Y890509D01*
X-6883056Y907128D01*
X-6883061Y907128D01*
X-6889513Y908500D01*
X-7080487Y908500D01*
X-7086939Y907128D01*
X-7086944Y907128D01*
X-7165128Y890509D01*
X-7267288Y868794D01*
X-7273318Y866109D01*
X-7273319Y866109D01*
X-7435722Y793803D01*
X-7435724Y793802D01*
X-7441752Y791118D01*
X-7596253Y678866D01*
X-7724040Y536944D01*
X-7819527Y371556D01*
X-7878542Y189928D01*
X-7898504Y0D01*
X-8629095Y0D01*
X-9249595Y620500D01*
X-9283621Y682812D01*
X-9286500Y709595D01*
X-9286500Y826996D01*
X-9266498Y895117D01*
X-9232771Y930209D01*
X-9206858Y948353D01*
X-9119413Y1009583D01*
X-9104730Y1019864D01*
X-9104727Y1019866D01*
X-9100219Y1023023D01*
X-8943023Y1180219D01*
X-8939818Y1184795D01*
X-8850209Y1312771D01*
X-8794752Y1357099D01*
X-8746996Y1366500D01*
X-8178767Y1366500D01*
X-8167584Y1365973D01*
X-8160091Y1364298D01*
X-8152165Y1364547D01*
X-8152164Y1364547D01*
X-8092014Y1366438D01*
X-8088055Y1366500D01*
X-8060144Y1366500D01*
X-8056209Y1366997D01*
X-8056144Y1367005D01*
X-8044307Y1367938D01*
X-8010671Y1368995D01*
X-8008030Y1369078D01*
X-8000111Y1369327D01*
X-7980657Y1374979D01*
X-7961300Y1378987D01*
X-7949070Y1380532D01*
X-7949069Y1380532D01*
X-7941203Y1381526D01*
X-7933832Y1384445D01*
X-7933830Y1384445D01*
X-7900088Y1397804D01*
X-7888858Y1401649D01*
X-7854017Y1411771D01*
X-7854016Y1411771D01*
X-7846407Y1413982D01*
X-7839588Y1418015D01*
X-7839583Y1418017D01*
X-7828972Y1424293D01*
X-7811224Y1432988D01*
X-7792383Y1440448D01*
X-7756613Y1466436D01*
X-7746693Y1472952D01*
X-7715465Y1491420D01*
X-7715462Y1491422D01*
X-7708638Y1495458D01*
X-7694317Y1509779D01*
X-7679283Y1522620D01*
X-7662893Y1534528D01*
X-7634702Y1568605D01*
X-7626712Y1577384D01*
X-6669524Y2534572D01*
X-4014611Y2534572D01*
X-4014314Y2529420D01*
X-4014314Y2529416D01*
X-4011166Y2474831D01*
X-4001262Y2303065D01*
X-4000127Y2298028D01*
X-4000126Y2298022D01*
X-3971021Y2168874D01*
X-3950282Y2076847D01*
X-3863038Y1861993D01*
X-3741875Y1664273D01*
X-3590047Y1488998D01*
X-3586072Y1485698D01*
X-3586069Y1485695D01*
X-3562871Y1466436D01*
X-3411630Y1340873D01*
X-3407178Y1338271D01*
X-3407173Y1338268D01*
X-3244593Y1243264D01*
X-3211416Y1223877D01*
X-2994782Y1141153D01*
X-2989714Y1140122D01*
X-2989711Y1140121D01*
X-2886241Y1119070D01*
X-2767546Y1094921D01*
X-2762373Y1094731D01*
X-2762370Y1094731D01*
X-2540974Y1086613D01*
X-2540970Y1086613D01*
X-2535810Y1086424D01*
X-2530690Y1087080D01*
X-2530688Y1087080D01*
X-2414735Y1101934D01*
X-2305798Y1115889D01*
X-2300849Y1117374D01*
X-2300843Y1117375D01*
X-2088630Y1181042D01*
X-2083687Y1182525D01*
X-2059679Y1194286D01*
X-1925455Y1260042D01*
X-1875442Y1284543D01*
X-1811586Y1330091D01*
X-1690868Y1416198D01*
X-1690863Y1416202D01*
X-1686656Y1419203D01*
X-1676482Y1429341D01*
X-1604504Y1501069D01*
X-1522398Y1582889D01*
X-1387080Y1771204D01*
X-1344384Y1857592D01*
X-1286630Y1974450D01*
X-1286629Y1974452D01*
X-1284336Y1979092D01*
X-1253100Y2081901D01*
X-1218428Y2196016D01*
X-1218427Y2196022D01*
X-1216924Y2200968D01*
X-1193131Y2381692D01*
X-1187093Y2427555D01*
X-1187093Y2427559D01*
X-1186656Y2430876D01*
X-1185914Y2461233D01*
X-1185049Y2496635D01*
X-1185049Y2496639D01*
X-1184967Y2500000D01*
X-1197094Y2647508D01*
X-1203544Y2725961D01*
X-1203545Y2725967D01*
X-1203968Y2731112D01*
X-1260460Y2956017D01*
X-1352927Y3168675D01*
X-1478884Y3363376D01*
X-1493525Y3379467D01*
X-1631472Y3531068D01*
X-1631474Y3531069D01*
X-1634950Y3534890D01*
X-1639001Y3538089D01*
X-1639005Y3538093D01*
X-1812875Y3675406D01*
X-1816933Y3678611D01*
X-2019945Y3790680D01*
X-2150003Y3836736D01*
X-2233661Y3866361D01*
X-2233665Y3866362D01*
X-2238536Y3868087D01*
X-2243629Y3868994D01*
X-2243632Y3868995D01*
X-2461745Y3907847D01*
X-2461751Y3907848D01*
X-2466834Y3908753D01*
X-2555368Y3909835D01*
X-2693539Y3911523D01*
X-2693541Y3911523D01*
X-2698708Y3911586D01*
X-2927931Y3876510D01*
X-3148347Y3804467D01*
X-3152935Y3802079D01*
X-3152939Y3802077D01*
X-3349449Y3699780D01*
X-3354038Y3697391D01*
X-3358171Y3694288D01*
X-3358174Y3694286D01*
X-3535343Y3561264D01*
X-3539478Y3558159D01*
X-3699687Y3390509D01*
X-3702601Y3386237D01*
X-3702602Y3386236D01*
X-3742101Y3328332D01*
X-3830364Y3198944D01*
X-3851659Y3153068D01*
X-3890122Y3070206D01*
X-3927999Y2988608D01*
X-3989969Y2765151D01*
X-4014611Y2534572D01*
X-6669524Y2534572D01*
X-4169524Y5034572D01*
X-1414611Y5034572D01*
X-1414314Y5029420D01*
X-1414314Y5029416D01*
X-1413107Y5008489D01*
X-1401262Y4803065D01*
X-1400127Y4798028D01*
X-1400126Y4798022D01*
X-1359623Y4618295D01*
X-1350282Y4576847D01*
X-1263038Y4361993D01*
X-1260341Y4357592D01*
X-1170200Y4210496D01*
X-1141875Y4164273D01*
X-990047Y3988998D01*
X-986072Y3985698D01*
X-986069Y3985695D01*
X-973954Y3975637D01*
X-811630Y3840873D01*
X-807178Y3838271D01*
X-807173Y3838268D01*
X-692896Y3771490D01*
X-611416Y3723877D01*
X-394782Y3641153D01*
X-389714Y3640122D01*
X-389711Y3640121D01*
X-277910Y3617375D01*
X-167546Y3594921D01*
X-162373Y3594731D01*
X-162370Y3594731D01*
X59026Y3586613D01*
X59030Y3586613D01*
X64190Y3586424D01*
X69310Y3587080D01*
X69312Y3587080D01*
X140109Y3596149D01*
X294202Y3615889D01*
X299151Y3617374D01*
X299157Y3617375D01*
X511370Y3681042D01*
X516313Y3682525D01*
X540321Y3694286D01*
X719920Y3782271D01*
X724558Y3784543D01*
X808156Y3844173D01*
X909132Y3916198D01*
X909137Y3916202D01*
X913344Y3919203D01*
X1077602Y4082889D01*
X1212920Y4271204D01*
X1218766Y4283031D01*
X1313370Y4474450D01*
X1313371Y4474452D01*
X1315664Y4479092D01*
X1334725Y4541827D01*
X1381572Y4696016D01*
X1381573Y4696022D01*
X1383076Y4700968D01*
X1413344Y4930876D01*
X1415033Y5000000D01*
X1406368Y5105397D01*
X1396456Y5225961D01*
X1396455Y5225967D01*
X1396032Y5231112D01*
X1339540Y5456017D01*
X1247073Y5668675D01*
X1121116Y5863376D01*
X1110000Y5875593D01*
X968528Y6031068D01*
X968526Y6031069D01*
X965050Y6034890D01*
X960999Y6038089D01*
X960995Y6038093D01*
X805441Y6160941D01*
X783067Y6178611D01*
X580055Y6290680D01*
X461620Y6332620D01*
X366339Y6366361D01*
X366335Y6366362D01*
X361464Y6368087D01*
X356371Y6368994D01*
X356368Y6368995D01*
X138255Y6407847D01*
X138249Y6407848D01*
X133166Y6408753D01*
X44632Y6409835D01*
X-93539Y6411523D01*
X-93541Y6411523D01*
X-98708Y6411586D01*
X-327931Y6376510D01*
X-548347Y6304467D01*
X-552935Y6302079D01*
X-552939Y6302077D01*
X-742564Y6203364D01*
X-754038Y6197391D01*
X-758171Y6194288D01*
X-758174Y6194286D01*
X-935343Y6061264D01*
X-939478Y6058159D01*
X-1099687Y5890509D01*
X-1102601Y5886237D01*
X-1102602Y5886236D01*
X-1109626Y5875939D01*
X-1230364Y5698944D01*
X-1248279Y5660350D01*
X-1316590Y5513186D01*
X-1327999Y5488608D01*
X-1389969Y5265151D01*
X-1414611Y5034572D01*
X-4169524Y5034572D01*
X-3099293Y6104803D01*
X-3036981Y6138829D01*
X-2985079Y6139179D01*
X-2767546Y6094921D01*
X-2762373Y6094731D01*
X-2762370Y6094731D01*
X-2540974Y6086613D01*
X-2540970Y6086613D01*
X-2535810Y6086424D01*
X-2530690Y6087080D01*
X-2530688Y6087080D01*
X-2459891Y6096149D01*
X-2305798Y6115889D01*
X-2300849Y6117374D01*
X-2300843Y6117375D01*
X-2088630Y6181042D01*
X-2083687Y6182525D01*
X-2073827Y6187355D01*
X-1934806Y6255461D01*
X-1875442Y6284543D01*
X-1781580Y6351494D01*
X-1690868Y6416198D01*
X-1690863Y6416202D01*
X-1686656Y6419203D01*
X-1522398Y6582889D01*
X-1387080Y6771204D01*
X-1373165Y6799358D01*
X-1286630Y6974450D01*
X-1286629Y6974452D01*
X-1284336Y6979092D01*
X-1256057Y7072169D01*
X-1218428Y7196016D01*
X-1218427Y7196022D01*
X-1216924Y7200968D01*
X-1186656Y7430876D01*
X-1184967Y7500000D01*
X-1191640Y7581166D01*
X-1203544Y7725961D01*
X-1203545Y7725967D01*
X-1203968Y7731112D01*
X-1222327Y7804203D01*
X-1240572Y7876842D01*
X-1237767Y7947783D01*
X-1207463Y7996632D01*
X-574222Y8629873D01*
X-511910Y8663899D01*
X-440178Y8658488D01*
X-394782Y8641153D01*
X-389714Y8640122D01*
X-389711Y8640121D01*
X-277910Y8617375D01*
X-167546Y8594921D01*
X-162373Y8594731D01*
X-162370Y8594731D01*
X59026Y8586613D01*
X59030Y8586613D01*
X64190Y8586424D01*
X69310Y8587080D01*
X69312Y8587080D01*
X140109Y8596149D01*
X294202Y8615889D01*
X299151Y8617374D01*
X299157Y8617375D01*
X511370Y8681042D01*
X516313Y8682525D01*
X526718Y8687622D01*
X719920Y8782271D01*
X724558Y8784543D01*
X832198Y8861322D01*
X909132Y8916198D01*
X909137Y8916202D01*
X913344Y8919203D01*
X917184Y8923029D01*
X1052692Y9058066D01*
X1077602Y9082889D01*
X1212920Y9271204D01*
X1230304Y9306377D01*
X1313370Y9474450D01*
X1313371Y9474452D01*
X1315664Y9479092D01*
X1362418Y9632974D01*
X1381572Y9696016D01*
X1381573Y9696022D01*
X1383076Y9700968D01*
X1413344Y9930876D01*
X1415033Y10000000D01*
X1408734Y10076614D01*
X1396456Y10225961D01*
X1396455Y10225967D01*
X1396032Y10231112D01*
X1339540Y10456017D01*
X1247073Y10668675D01*
X1121116Y10863376D01*
X1093027Y10894246D01*
X968528Y11031068D01*
X968526Y11031069D01*
X965050Y11034890D01*
X960999Y11038089D01*
X960995Y11038093D01*
X787125Y11175406D01*
X783067Y11178611D01*
X580055Y11290680D01*
X461620Y11332620D01*
X366339Y11366361D01*
X366335Y11366362D01*
X361464Y11368087D01*
X356371Y11368994D01*
X356368Y11368995D01*
X138255Y11407847D01*
X138249Y11407848D01*
X133166Y11408753D01*
X44632Y11409835D01*
X-93539Y11411523D01*
X-93541Y11411523D01*
X-98708Y11411586D01*
X-327931Y11376510D01*
X-548347Y11304467D01*
X-552935Y11302079D01*
X-552939Y11302077D01*
X-749449Y11199780D01*
X-754038Y11197391D01*
X-758171Y11194288D01*
X-758174Y11194286D01*
X-872626Y11108353D01*
X-939478Y11058159D01*
X-1099687Y10890509D01*
X-1230364Y10698944D01*
X-1327999Y10488608D01*
X-1389969Y10265151D01*
X-1414611Y10034572D01*
X-1401262Y9803065D01*
X-1378190Y9700685D01*
X-1382728Y9629835D01*
X-1412013Y9583892D01*
X-2100557Y8895348D01*
X-2162869Y8861322D01*
X-2228547Y8865471D01*
X-2228661Y8865040D01*
X-2230841Y8865616D01*
X-2231713Y8865671D01*
X-2238536Y8868087D01*
X-2243625Y8868994D01*
X-2243627Y8868994D01*
X-2461745Y8907847D01*
X-2461751Y8907848D01*
X-2466834Y8908753D01*
X-2555368Y8909835D01*
X-2693539Y8911523D01*
X-2693541Y8911523D01*
X-2698708Y8911586D01*
X-2927931Y8876510D01*
X-3148347Y8804467D01*
X-3152935Y8802079D01*
X-3152939Y8802077D01*
X-3291852Y8729763D01*
X-3354038Y8697391D01*
X-3358171Y8694288D01*
X-3358174Y8694286D01*
X-3535343Y8561264D01*
X-3539478Y8558159D01*
X-3699687Y8390509D01*
X-3702601Y8386237D01*
X-3702602Y8386236D01*
X-3771810Y8284781D01*
X-3830364Y8198944D01*
X-3851429Y8153564D01*
X-3924274Y7996632D01*
X-3927999Y7988608D01*
X-3989969Y7765151D01*
X-4014611Y7534572D01*
X-4014314Y7529420D01*
X-4014314Y7529416D01*
X-4013062Y7507711D01*
X-4001262Y7303065D01*
X-4000127Y7298028D01*
X-4000126Y7298022D01*
X-3959799Y7119078D01*
X-3964335Y7048227D01*
X-3993621Y7002283D01*
X-8325500Y2670405D01*
X-8387812Y2636379D01*
X-8414595Y2633500D01*
X-8746996Y2633500D01*
X-8815117Y2653502D01*
X-8850209Y2687229D01*
X-8939864Y2815270D01*
X-8939866Y2815273D01*
X-8943023Y2819781D01*
X-9100219Y2976977D01*
X-9104727Y2980134D01*
X-9104730Y2980136D01*
X-9180495Y3033187D01*
X-9282323Y3104488D01*
X-9287305Y3106811D01*
X-9287310Y3106814D01*
X-9389604Y3154514D01*
X-9483804Y3198440D01*
X-9485511Y3198898D01*
X-9530243Y3227396D01*
X-11520725Y5217878D01*
X-11554751Y5280190D01*
X-11549686Y5351005D01*
X-11507139Y5407841D01*
X-11483397Y5420688D01*
X-11483804Y5421560D01*
X-11287310Y5513186D01*
X-11287305Y5513189D01*
X-11282323Y5515512D01*
X-11160351Y5600918D01*
X-11104730Y5639864D01*
X-11104727Y5639866D01*
X-11100219Y5643023D01*
X-10943023Y5800219D01*
X-10900113Y5861500D01*
X-10818669Y5977815D01*
X-10818668Y5977817D01*
X-10815512Y5982324D01*
X-10813189Y5987306D01*
X-10813186Y5987311D01*
X-10764195Y6092373D01*
X-10717277Y6145658D01*
X-10649000Y6165119D01*
X-10581040Y6144577D01*
X-10535805Y6092373D01*
X-10486814Y5987311D01*
X-10486811Y5987306D01*
X-10484488Y5982324D01*
X-10481332Y5977817D01*
X-10481331Y5977815D01*
X-10399886Y5861500D01*
X-10356977Y5800219D01*
X-10199781Y5643023D01*
X-10195273Y5639866D01*
X-10195270Y5639864D01*
X-10139649Y5600918D01*
X-10017677Y5515512D01*
X-10012695Y5513189D01*
X-10012690Y5513186D01*
X-9822190Y5424355D01*
X-9816196Y5421560D01*
X-9810888Y5420138D01*
X-9810886Y5420137D01*
X-9745051Y5402497D01*
X-9601463Y5364022D01*
X-9380000Y5344647D01*
X-9158537Y5364022D01*
X-9014949Y5402497D01*
X-8949114Y5420137D01*
X-8949112Y5420138D01*
X-8943804Y5421560D01*
X-8937810Y5424355D01*
X-8747310Y5513186D01*
X-8747305Y5513189D01*
X-8742323Y5515512D01*
X-8620351Y5600918D01*
X-8564730Y5639864D01*
X-8564727Y5639866D01*
X-8560219Y5643023D01*
X-8403023Y5800219D01*
X-8360113Y5861500D01*
X-8278669Y5977815D01*
X-8278668Y5977817D01*
X-8275512Y5982324D01*
X-8273189Y5987306D01*
X-8273186Y5987311D01*
X-8183883Y6178822D01*
X-8183882Y6178823D01*
X-8181560Y6183804D01*
X-8179841Y6190217D01*
X-8153593Y6288177D01*
X-8124022Y6398537D01*
X-8104647Y6620000D01*
X-8124022Y6841463D01*
X-8175516Y7033639D01*
X-8180137Y7050886D01*
X-8180138Y7050888D01*
X-8181560Y7056196D01*
X-8187180Y7068249D01*
X-8273186Y7252689D01*
X-8273189Y7252694D01*
X-8275512Y7257676D01*
X-8278669Y7262185D01*
X-8399864Y7435270D01*
X-8399866Y7435273D01*
X-8403023Y7439781D01*
X-8560219Y7596977D01*
X-8564727Y7600134D01*
X-8564730Y7600136D01*
X-8640495Y7653187D01*
X-8742323Y7724488D01*
X-8747305Y7726811D01*
X-8747310Y7726814D01*
X-8938822Y7816117D01*
X-8938823Y7816118D01*
X-8943804Y7818440D01*
X-8949112Y7819862D01*
X-8949114Y7819863D01*
X-9071921Y7852769D01*
X-9158537Y7875978D01*
X-9380000Y7895353D01*
X-9601463Y7875978D01*
X-9688079Y7852769D01*
X-9810886Y7819863D01*
X-9810888Y7819862D01*
X-9816196Y7818440D01*
X-9821177Y7816118D01*
X-9821178Y7816117D01*
X-10012689Y7726814D01*
X-10012694Y7726811D01*
X-10017676Y7724488D01*
X-10022183Y7721332D01*
X-10022185Y7721331D01*
X-10195270Y7600136D01*
X-10195273Y7600134D01*
X-10199781Y7596977D01*
X-10356977Y7439781D01*
X-10360134Y7435273D01*
X-10360136Y7435270D01*
X-10481331Y7262185D01*
X-10484488Y7257676D01*
X-10486811Y7252694D01*
X-10486814Y7252689D01*
X-10535805Y7147627D01*
X-10582723Y7094342D01*
X-10651000Y7074881D01*
X-10718960Y7095423D01*
X-10764195Y7147627D01*
X-10813186Y7252689D01*
X-10813189Y7252694D01*
X-10815512Y7257676D01*
X-10818669Y7262185D01*
X-10939864Y7435270D01*
X-10939866Y7435273D01*
X-10943023Y7439781D01*
X-11100219Y7596977D01*
X-11104727Y7600134D01*
X-11104730Y7600136D01*
X-11180495Y7653187D01*
X-11282323Y7724488D01*
X-11287305Y7726811D01*
X-11287310Y7726814D01*
X-11478822Y7816117D01*
X-11478823Y7816118D01*
X-11483804Y7818440D01*
X-11489112Y7819862D01*
X-11489114Y7819863D01*
X-11611921Y7852769D01*
X-11698537Y7875978D01*
X-11920000Y7895353D01*
X-12141463Y7875978D01*
X-12228079Y7852769D01*
X-12350886Y7819863D01*
X-12350888Y7819862D01*
X-12356196Y7818440D01*
X-12361177Y7816118D01*
X-12361178Y7816117D01*
X-12552689Y7726814D01*
X-12552694Y7726811D01*
X-12557676Y7724488D01*
X-12562183Y7721332D01*
X-12562185Y7721331D01*
X-12735270Y7600136D01*
X-12735273Y7600134D01*
X-12739781Y7596977D01*
X-12896977Y7439781D01*
X-12900134Y7435273D01*
X-12900136Y7435270D01*
X-13021331Y7262185D01*
X-13024488Y7257676D01*
X-13026811Y7252694D01*
X-13026814Y7252689D01*
X-13075805Y7147627D01*
X-13122723Y7094342D01*
X-13191000Y7074881D01*
X-13258960Y7095423D01*
X-13304195Y7147627D01*
X-13353186Y7252689D01*
X-13353189Y7252694D01*
X-13355512Y7257676D01*
X-13358669Y7262185D01*
X-13479864Y7435270D01*
X-13479866Y7435273D01*
X-13483023Y7439781D01*
X-13640219Y7596977D01*
X-13644727Y7600134D01*
X-13644730Y7600136D01*
X-13720495Y7653187D01*
X-13822323Y7724488D01*
X-13827305Y7726811D01*
X-13827310Y7726814D01*
X-14018822Y7816117D01*
X-14018823Y7816118D01*
X-14023804Y7818440D01*
X-14029112Y7819862D01*
X-14029114Y7819863D01*
X-14151921Y7852769D01*
X-14238537Y7875978D01*
X-14460000Y7895353D01*
X-14681463Y7875978D01*
X-14768079Y7852769D01*
X-14890886Y7819863D01*
X-14890888Y7819862D01*
X-14896196Y7818440D01*
X-14901177Y7816118D01*
X-14901178Y7816117D01*
X-15092689Y7726814D01*
X-15092694Y7726811D01*
X-15097676Y7724488D01*
X-15102183Y7721332D01*
X-15102185Y7721331D01*
X-15275270Y7600136D01*
X-15275273Y7600134D01*
X-15279781Y7596977D01*
X-15436977Y7439781D01*
X-15440134Y7435273D01*
X-15440136Y7435270D01*
X-15561331Y7262185D01*
X-15564488Y7257676D01*
X-15566811Y7252694D01*
X-15566814Y7252689D01*
X-15593241Y7196016D01*
X-15629117Y7119078D01*
X-15648773Y7076926D01*
X-15695690Y7023641D01*
X-15763968Y7004180D01*
X-15831927Y7024722D01*
X-15877163Y7076926D01*
X-15953567Y7240775D01*
X-15953570Y7240780D01*
X-15955893Y7245762D01*
X-15959050Y7250271D01*
X-16080245Y7423356D01*
X-16080247Y7423359D01*
X-16083404Y7427867D01*
X-16240600Y7585063D01*
X-16245108Y7588220D01*
X-16245111Y7588222D01*
X-16320876Y7641273D01*
X-16422704Y7712574D01*
X-16427686Y7714897D01*
X-16427691Y7714900D01*
X-16619203Y7804203D01*
X-16619204Y7804204D01*
X-16624185Y7806526D01*
X-16629493Y7807948D01*
X-16629495Y7807949D01*
X-16726245Y7833873D01*
X-16838918Y7864064D01*
X-17060381Y7883439D01*
X-17281844Y7864064D01*
X-17394517Y7833873D01*
X-17491267Y7807949D01*
X-17491269Y7807948D01*
X-17496577Y7806526D01*
X-17501558Y7804204D01*
X-17501559Y7804203D01*
X-17693070Y7714900D01*
X-17693075Y7714897D01*
X-17698057Y7712574D01*
X-17702564Y7709418D01*
X-17702566Y7709417D01*
X-17875651Y7588222D01*
X-17875654Y7588220D01*
X-17880162Y7585063D01*
X-18037358Y7427867D01*
X-18040515Y7423359D01*
X-18040517Y7423356D01*
X-18161712Y7250271D01*
X-18164869Y7245762D01*
X-18167192Y7240781D01*
X-18167198Y7240770D01*
X-18183219Y7206412D01*
X-18230136Y7153128D01*
X-18298413Y7133667D01*
X-18366373Y7154209D01*
X-18411608Y7206414D01*
X-18433184Y7252685D01*
X-18433187Y7252691D01*
X-18435512Y7257676D01*
X-18438669Y7262185D01*
X-18559864Y7435270D01*
X-18559866Y7435273D01*
X-18563023Y7439781D01*
X-18720219Y7596977D01*
X-18724727Y7600134D01*
X-18724730Y7600136D01*
X-18800495Y7653187D01*
X-18902323Y7724488D01*
X-18907305Y7726811D01*
X-18907310Y7726814D01*
X-19098822Y7816117D01*
X-19098823Y7816118D01*
X-19103804Y7818440D01*
X-19109112Y7819862D01*
X-19109114Y7819863D01*
X-19231921Y7852769D01*
X-19318537Y7875978D01*
X-19540000Y7895353D01*
X-19761463Y7875978D01*
X-19848079Y7852769D01*
X-19970886Y7819863D01*
X-19970888Y7819862D01*
X-19976196Y7818440D01*
X-19981177Y7816118D01*
X-19981178Y7816117D01*
X-20172689Y7726814D01*
X-20172694Y7726811D01*
X-20177676Y7724488D01*
X-20182183Y7721332D01*
X-20182185Y7721331D01*
X-20355270Y7600136D01*
X-20355273Y7600134D01*
X-20359781Y7596977D01*
X-20516977Y7439781D01*
X-20520134Y7435273D01*
X-20520136Y7435270D01*
X-20641331Y7262185D01*
X-20644488Y7257676D01*
X-20646811Y7252694D01*
X-20646814Y7252689D01*
X-20696081Y7147035D01*
X-20742999Y7093750D01*
X-20811276Y7074289D01*
X-20879236Y7094831D01*
X-20924471Y7147035D01*
X-20973623Y7252441D01*
X-20979103Y7261932D01*
X-21009794Y7305765D01*
X-21020271Y7314140D01*
X-21033718Y7307072D01*
X-21707978Y6632812D01*
X-21715592Y6618868D01*
X-21715461Y6617035D01*
X-21711210Y6610420D01*
X-21032997Y5932207D01*
X-21021223Y5925777D01*
X-21009207Y5935074D01*
X-20979103Y5978068D01*
X-20973623Y5987559D01*
X-20924471Y6092965D01*
X-20877553Y6146250D01*
X-20809276Y6165711D01*
X-20741316Y6145169D01*
X-20696081Y6092965D01*
X-20646814Y5987311D01*
X-20646811Y5987306D01*
X-20644488Y5982324D01*
X-20641332Y5977817D01*
X-20641331Y5977815D01*
X-20559886Y5861500D01*
X-20516977Y5800219D01*
X-20359781Y5643023D01*
X-20355273Y5639866D01*
X-20355270Y5639864D01*
X-20299649Y5600918D01*
X-20177677Y5515512D01*
X-20172695Y5513189D01*
X-20172690Y5513186D01*
X-20082394Y5471081D01*
X-19976196Y5421560D01*
X-19974489Y5421102D01*
X-19929757Y5392604D01*
X-18203849Y3666696D01*
X-18198212Y3660678D01*
X-18155506Y3611981D01*
X-18086027Y3557207D01*
X-18083483Y3555147D01*
X-18019908Y3502272D01*
X-18019898Y3502265D01*
X-18015461Y3498575D01*
X-18010417Y3495750D01*
X-18007359Y3493649D01*
X-17998079Y3487448D01*
X-17994997Y3485446D01*
X-17990463Y3481872D01*
X-17985357Y3479185D01*
X-17985356Y3479185D01*
X-17913618Y3441442D01*
X-17862645Y3392022D01*
X-17846482Y3322890D01*
X-17870261Y3255994D01*
X-17926431Y3212573D01*
X-17939674Y3208226D01*
X-17970886Y3199863D01*
X-17970888Y3199862D01*
X-17976196Y3198440D01*
X-17981177Y3196118D01*
X-17981178Y3196117D01*
X-18172689Y3106814D01*
X-18172694Y3106811D01*
X-18177676Y3104488D01*
X-18182183Y3101332D01*
X-18182185Y3101331D01*
X-18355270Y2980136D01*
X-18355273Y2980134D01*
X-18359781Y2976977D01*
X-18516977Y2819781D01*
X-18520134Y2815273D01*
X-18520136Y2815270D01*
X-18621571Y2670405D01*
X-18644488Y2637676D01*
X-18646811Y2632694D01*
X-18646814Y2632689D01*
X-18695805Y2527627D01*
X-18742723Y2474342D01*
X-18811000Y2454881D01*
X-18878960Y2475423D01*
X-18924195Y2527627D01*
X-18973186Y2632689D01*
X-18973189Y2632694D01*
X-18975512Y2637676D01*
X-18998429Y2670405D01*
X-19099864Y2815270D01*
X-19099866Y2815273D01*
X-19103023Y2819781D01*
X-19260219Y2976977D01*
X-19264727Y2980134D01*
X-19264730Y2980136D01*
X-19340495Y3033187D01*
X-19442323Y3104488D01*
X-19447305Y3106811D01*
X-19447310Y3106814D01*
X-19638822Y3196117D01*
X-19638823Y3196118D01*
X-19643804Y3198440D01*
X-19649112Y3199862D01*
X-19649114Y3199863D01*
X-19714949Y3217503D01*
X-19858537Y3255978D01*
X-20080000Y3275353D01*
X-20301463Y3255978D01*
X-20445051Y3217503D01*
X-20510886Y3199863D01*
X-20510888Y3199862D01*
X-20516196Y3198440D01*
X-20521177Y3196118D01*
X-20521178Y3196117D01*
X-20712689Y3106814D01*
X-20712694Y3106811D01*
X-20717676Y3104488D01*
X-20722183Y3101332D01*
X-20722185Y3101331D01*
X-20895270Y2980136D01*
X-20895273Y2980134D01*
X-20899781Y2976977D01*
X-21056977Y2819781D01*
X-21060134Y2815273D01*
X-21060136Y2815270D01*
X-21161571Y2670405D01*
X-21184488Y2637676D01*
X-21186811Y2632694D01*
X-21186814Y2632689D01*
X-21235805Y2527627D01*
X-21282723Y2474342D01*
X-21351000Y2454881D01*
X-21418960Y2475423D01*
X-21464195Y2527627D01*
X-21513186Y2632689D01*
X-21513189Y2632694D01*
X-21515512Y2637676D01*
X-21538429Y2670405D01*
X-21639864Y2815270D01*
X-21639866Y2815273D01*
X-21643023Y2819781D01*
X-21800219Y2976977D01*
X-21804727Y2980134D01*
X-21804730Y2980136D01*
X-21880495Y3033187D01*
X-21982323Y3104488D01*
X-21987305Y3106811D01*
X-21987310Y3106814D01*
X-22178822Y3196117D01*
X-22178823Y3196118D01*
X-22183804Y3198440D01*
X-22189112Y3199862D01*
X-22189114Y3199863D01*
X-22254949Y3217503D01*
X-22398537Y3255978D01*
X-22620000Y3275353D01*
X-22841463Y3255978D01*
X-22985051Y3217503D01*
X-23050886Y3199863D01*
X-23050888Y3199862D01*
X-23056196Y3198440D01*
X-23061177Y3196118D01*
X-23061178Y3196117D01*
X-23252689Y3106814D01*
X-23252694Y3106811D01*
X-23257676Y3104488D01*
X-23262183Y3101332D01*
X-23262185Y3101331D01*
X-23435270Y2980136D01*
X-23435273Y2980134D01*
X-23439781Y2976977D01*
X-23596977Y2819781D01*
X-23600134Y2815273D01*
X-23600136Y2815270D01*
X-23701571Y2670405D01*
X-23724488Y2637676D01*
X-23726811Y2632694D01*
X-23726814Y2632689D01*
X-23775805Y2527627D01*
X-23822723Y2474342D01*
X-23891000Y2454881D01*
X-23958960Y2475423D01*
X-24004195Y2527627D01*
X-24053186Y2632689D01*
X-24053189Y2632694D01*
X-24055512Y2637676D01*
X-24078429Y2670405D01*
X-24179864Y2815270D01*
X-24179866Y2815273D01*
X-24183023Y2819781D01*
X-24340219Y2976977D01*
X-24344727Y2980134D01*
X-24344730Y2980136D01*
X-24420495Y3033187D01*
X-24522323Y3104488D01*
X-24527305Y3106811D01*
X-24527310Y3106814D01*
X-24718822Y3196117D01*
X-24718823Y3196118D01*
X-24723804Y3198440D01*
X-24729112Y3199862D01*
X-24729114Y3199863D01*
X-24794949Y3217503D01*
X-24938537Y3255978D01*
X-25160000Y3275353D01*
X-25381463Y3255978D01*
X-25525051Y3217503D01*
X-25590886Y3199863D01*
X-25590888Y3199862D01*
X-25596196Y3198440D01*
X-25601177Y3196118D01*
X-25601178Y3196117D01*
X-25792689Y3106814D01*
X-25792694Y3106811D01*
X-25797676Y3104488D01*
X-25802183Y3101332D01*
X-25802185Y3101331D01*
X-25975270Y2980136D01*
X-25975273Y2980134D01*
X-25979781Y2976977D01*
X-26136977Y2819781D01*
X-26140134Y2815273D01*
X-26140136Y2815270D01*
X-26241571Y2670405D01*
X-26264488Y2637676D01*
X-26266811Y2632694D01*
X-26266814Y2632689D01*
X-26314971Y2529416D01*
X-26358440Y2436196D01*
X-26359862Y2430888D01*
X-26359863Y2430886D01*
X-26370556Y2390980D01*
X-26415978Y2221463D01*
X-26435353Y2000000D01*
X-26415978Y1778537D01*
X-26386540Y1668674D01*
X-26360950Y1573173D01*
X-26358440Y1563804D01*
X-26356118Y1558823D01*
X-26356117Y1558822D01*
X-26266814Y1367311D01*
X-26266811Y1367306D01*
X-26264488Y1362324D01*
X-26261332Y1357817D01*
X-26261331Y1357815D01*
X-26140181Y1184795D01*
X-26136977Y1180219D01*
X-25979781Y1023023D01*
X-25975273Y1019866D01*
X-25975270Y1019864D01*
X-25960587Y1009583D01*
X-25797677Y895512D01*
X-25792695Y893189D01*
X-25792690Y893186D01*
X-25602190Y804355D01*
X-25596196Y801560D01*
X-25590888Y800138D01*
X-25590886Y800137D01*
X-25542742Y787237D01*
X-25381463Y744022D01*
X-25160000Y724647D01*
X-24938537Y744022D01*
X-24777258Y787237D01*
X-24729114Y800137D01*
X-24729112Y800138D01*
X-24723804Y801560D01*
X-24717810Y804355D01*
X-24527310Y893186D01*
X-24527305Y893189D01*
X-24522323Y895512D01*
X-24359413Y1009583D01*
X-24344730Y1019864D01*
X-24344727Y1019866D01*
X-24340219Y1023023D01*
X-24183023Y1180219D01*
X-24179818Y1184795D01*
X-24058669Y1357815D01*
X-24058668Y1357817D01*
X-24055512Y1362324D01*
X-24053189Y1367306D01*
X-24053186Y1367311D01*
X-24004195Y1472373D01*
X-23957277Y1525658D01*
X-23889000Y1545119D01*
X-23821040Y1524577D01*
X-23775805Y1472373D01*
X-23726814Y1367311D01*
X-23726811Y1367306D01*
X-23724488Y1362324D01*
X-23721332Y1357817D01*
X-23721331Y1357815D01*
X-23600181Y1184795D01*
X-23596977Y1180219D01*
X-23439781Y1023023D01*
X-23435273Y1019866D01*
X-23435270Y1019864D01*
X-23420587Y1009583D01*
X-23257677Y895512D01*
X-23252695Y893189D01*
X-23252690Y893186D01*
X-23062190Y804355D01*
X-23056196Y801560D01*
X-23050888Y800138D01*
X-23050886Y800137D01*
X-23002742Y787237D01*
X-22841463Y744022D01*
X-22620000Y724647D01*
X-22398537Y744022D01*
X-22237258Y787237D01*
X-22189114Y800137D01*
X-22189112Y800138D01*
X-22183804Y801560D01*
X-22177810Y804355D01*
X-21987310Y893186D01*
X-21987305Y893189D01*
X-21982323Y895512D01*
X-21819413Y1009583D01*
X-21804730Y1019864D01*
X-21804727Y1019866D01*
X-21800219Y1023023D01*
X-21643023Y1180219D01*
X-21639818Y1184795D01*
X-21518669Y1357815D01*
X-21518668Y1357817D01*
X-21515512Y1362324D01*
X-21513189Y1367306D01*
X-21513186Y1367311D01*
X-21464195Y1472373D01*
X-21417277Y1525658D01*
X-21349000Y1545119D01*
X-21281040Y1524577D01*
X-21235805Y1472373D01*
X-21186814Y1367311D01*
X-21186811Y1367306D01*
X-21184488Y1362324D01*
X-21181332Y1357817D01*
X-21181331Y1357815D01*
X-21060181Y1184795D01*
X-21056977Y1180219D01*
X-20899781Y1023023D01*
X-20895273Y1019866D01*
X-20895270Y1019864D01*
X-20880587Y1009583D01*
X-20717677Y895512D01*
X-20712695Y893189D01*
X-20712690Y893186D01*
X-20522190Y804355D01*
X-20516196Y801560D01*
X-20510888Y800138D01*
X-20510886Y800137D01*
X-20462742Y787237D01*
X-20301463Y744022D01*
X-20080000Y724647D01*
X-19858537Y744022D01*
X-19697258Y787237D01*
X-19649114Y800137D01*
X-19649112Y800138D01*
X-19643804Y801560D01*
X-19637810Y804355D01*
X-19447310Y893186D01*
X-19447305Y893189D01*
X-19442323Y895512D01*
X-19279413Y1009583D01*
X-19264730Y1019864D01*
X-19264727Y1019866D01*
X-19260219Y1023023D01*
X-19103023Y1180219D01*
X-19099818Y1184795D01*
X-18978669Y1357815D01*
X-18978668Y1357817D01*
X-18975512Y1362324D01*
X-18973189Y1367306D01*
X-18973186Y1367311D01*
X-18924195Y1472373D01*
X-18877277Y1525658D01*
X-18809000Y1545119D01*
X-18741040Y1524577D01*
X-18695805Y1472373D01*
X-18646814Y1367311D01*
X-18646811Y1367306D01*
X-18644488Y1362324D01*
X-18641332Y1357817D01*
X-18641331Y1357815D01*
X-18520181Y1184795D01*
X-18516977Y1180219D01*
X-18359781Y1023023D01*
X-18355273Y1019866D01*
X-18355270Y1019864D01*
X-18340587Y1009583D01*
X-18177677Y895512D01*
X-18172695Y893189D01*
X-18172690Y893186D01*
X-17982190Y804355D01*
X-17976196Y801560D01*
X-17970888Y800138D01*
X-17970886Y800137D01*
X-17922742Y787237D01*
X-17761463Y744022D01*
X-17540000Y724647D01*
X-17318537Y744022D01*
X-17157258Y787237D01*
X-17109114Y800137D01*
X-17109112Y800138D01*
X-17103804Y801560D01*
X-17097810Y804355D01*
X-16907310Y893186D01*
X-16907305Y893189D01*
X-16902323Y895512D01*
X-16739413Y1009583D01*
X-16724730Y1019864D01*
X-16724727Y1019866D01*
X-16720219Y1023023D01*
X-16563023Y1180219D01*
X-16559818Y1184795D01*
X-16438669Y1357815D01*
X-16438668Y1357817D01*
X-16435512Y1362324D01*
X-16433189Y1367306D01*
X-16433186Y1367311D01*
X-16384195Y1472373D01*
X-16337277Y1525658D01*
X-16269000Y1545119D01*
X-16201040Y1524577D01*
X-16155805Y1472373D01*
X-16106814Y1367311D01*
X-16106811Y1367306D01*
X-16104488Y1362324D01*
X-16101332Y1357817D01*
X-16101331Y1357815D01*
X-15980181Y1184795D01*
X-15976977Y1180219D01*
X-15819781Y1023023D01*
X-15815273Y1019866D01*
X-15815270Y1019864D01*
X-15800587Y1009583D01*
X-15637677Y895512D01*
X-15632695Y893189D01*
X-15632690Y893186D01*
X-15442190Y804355D01*
X-15436196Y801560D01*
X-15430888Y800138D01*
X-15430886Y800137D01*
X-15382742Y787237D01*
X-15221463Y744022D01*
X-15000000Y724647D01*
X-14778537Y744022D01*
X-14617258Y787237D01*
X-14569114Y800137D01*
X-14569112Y800138D01*
X-14563804Y801560D01*
X-14557810Y804355D01*
X-14367310Y893186D01*
X-14367305Y893189D01*
X-14362323Y895512D01*
X-14297041Y941223D01*
X-13154223Y941223D01*
X-13144926Y929207D01*
X-13101931Y899102D01*
X-13092445Y893624D01*
X-12901007Y804355D01*
X-12890715Y800609D01*
X-12686691Y745941D01*
X-12675896Y744038D01*
X-12465475Y725628D01*
X-12454525Y725628D01*
X-12244104Y744038D01*
X-12233309Y745941D01*
X-12029285Y800609D01*
X-12018993Y804355D01*
X-11827555Y893624D01*
X-11818069Y899102D01*
X-11774236Y929793D01*
X-11765861Y940271D01*
X-11772929Y953719D01*
X-12447188Y1627978D01*
X-12461132Y1635592D01*
X-12462965Y1635461D01*
X-12469580Y1631210D01*
X-13147793Y952997D01*
X-13154223Y941223D01*
X-14297041Y941223D01*
X-14199413Y1009583D01*
X-14184730Y1019864D01*
X-14184727Y1019866D01*
X-14180219Y1023023D01*
X-14023023Y1180219D01*
X-14019818Y1184795D01*
X-13898669Y1357815D01*
X-13898668Y1357817D01*
X-13895512Y1362324D01*
X-13893189Y1367306D01*
X-13893186Y1367311D01*
X-13843919Y1472965D01*
X-13797001Y1526250D01*
X-13728724Y1545711D01*
X-13660764Y1525169D01*
X-13615529Y1472965D01*
X-13566377Y1367559D01*
X-13560897Y1358068D01*
X-13530206Y1314235D01*
X-13519729Y1305860D01*
X-13506282Y1312928D01*
X-12832022Y1987188D01*
X-12824408Y2001132D01*
X-12824539Y2002965D01*
X-12828790Y2009580D01*
X-13507003Y2687793D01*
X-13518777Y2694223D01*
X-13530793Y2684926D01*
X-13560897Y2641932D01*
X-13566377Y2632441D01*
X-13615529Y2527035D01*
X-13662447Y2473750D01*
X-13730724Y2454289D01*
X-13798684Y2474831D01*
X-13843919Y2527035D01*
X-13893186Y2632689D01*
X-13893189Y2632694D01*
X-13895512Y2637676D01*
X-13918429Y2670405D01*
X-14019864Y2815270D01*
X-14019866Y2815273D01*
X-14023023Y2819781D01*
X-14180219Y2976977D01*
X-14184727Y2980134D01*
X-14184730Y2980136D01*
X-14316335Y3072287D01*
X-14360663Y3127744D01*
X-14367972Y3198364D01*
X-14335941Y3261724D01*
X-14274740Y3297709D01*
X-14244064Y3301500D01*
X-13215063Y3301500D01*
X-13146942Y3281498D01*
X-13100449Y3227842D01*
X-13090345Y3157568D01*
X-13119839Y3092988D01*
X-13142794Y3072286D01*
X-13145765Y3070206D01*
X-13154140Y3059729D01*
X-13147072Y3046282D01*
X-11412997Y1312207D01*
X-11401223Y1305777D01*
X-11389207Y1315074D01*
X-11359103Y1358068D01*
X-11353623Y1367559D01*
X-11304471Y1472965D01*
X-11257553Y1526250D01*
X-11189276Y1545711D01*
X-11121316Y1525169D01*
X-11076081Y1472965D01*
X-11026814Y1367311D01*
X-11026811Y1367306D01*
X-11024488Y1362324D01*
X-11021332Y1357817D01*
X-11021331Y1357815D01*
X-10900181Y1184795D01*
X-10896977Y1180219D01*
X-10739781Y1023023D01*
X-10735273Y1019866D01*
X-10735270Y1019864D01*
X-10720587Y1009583D01*
X-10633141Y948353D01*
X-10607229Y930209D01*
X-10562901Y874752D01*
X-10553500Y826996D01*
X-10553500Y473767D01*
X-10554027Y462584D01*
X-10555702Y455091D01*
X-10555453Y447165D01*
X-10555453Y447164D01*
X-10553562Y387014D01*
X-10553500Y383055D01*
X-10553500Y355144D01*
X-10553003Y351210D01*
X-10553003Y351209D01*
X-10552995Y351144D01*
X-10552062Y339307D01*
X-10550673Y295111D01*
X-10545022Y275661D01*
X-10541013Y256300D01*
X-10538474Y236203D01*
X-10535555Y228832D01*
X-10535555Y228830D01*
X-10522196Y195088D01*
X-10518351Y183858D01*
X-10506018Y141407D01*
X-10501985Y134588D01*
X-10501983Y134583D01*
X-10495707Y123972D01*
X-10487012Y106224D01*
X-10479552Y87383D01*
X-10474890Y80967D01*
X-10474890Y80966D01*
X-10453564Y51613D01*
X-10447048Y41693D01*
X-10424542Y3638D01*
X-10410221Y-10683D01*
X-10397381Y-25716D01*
X-10385472Y-42107D01*
X-10379366Y-47158D01*
X-10351395Y-70298D01*
X-10342616Y-78288D01*
X-3739914Y-6680990D01*
X-3705888Y-6743302D01*
X-3710953Y-6814117D01*
X-3753500Y-6870953D01*
X-3820020Y-6895764D01*
X-3830541Y-6896076D01*
X-3878038Y-6895495D01*
X-3899920Y-6895228D01*
X-3899922Y-6895228D01*
X-3905089Y-6895165D01*
X-4125909Y-6928955D01*
X-4138468Y-6933060D01*
X-4209432Y-6935210D01*
X-4266706Y-6902389D01*
X-5211348Y-5957747D01*
X-5218888Y-5949461D01*
X-5223000Y-5942982D01*
X-5231163Y-5935316D01*
X-5272651Y-5896357D01*
X-5275493Y-5893602D01*
X-5295230Y-5873865D01*
X-5298427Y-5871385D01*
X-5307449Y-5863680D01*
X-5309770Y-5861500D01*
X-5339679Y-5833414D01*
X-5346625Y-5829595D01*
X-5346628Y-5829593D01*
X-5357434Y-5823652D01*
X-5373953Y-5812801D01*
X-5374417Y-5812441D01*
X-5389959Y-5800386D01*
X-5397228Y-5797241D01*
X-5397232Y-5797238D01*
X-5430537Y-5782826D01*
X-5441187Y-5777609D01*
X-5479940Y-5756305D01*
X-5499563Y-5751267D01*
X-5518266Y-5744863D01*
X-5529580Y-5739967D01*
X-5529581Y-5739967D01*
X-5536855Y-5736819D01*
X-5544678Y-5735580D01*
X-5544688Y-5735577D01*
X-5580524Y-5729901D01*
X-5592144Y-5727495D01*
X-5627289Y-5718472D01*
X-5627290Y-5718472D01*
X-5634970Y-5716500D01*
X-5655224Y-5716500D01*
X-5674935Y-5714949D01*
X-5687114Y-5713020D01*
X-5694943Y-5711780D01*
X-5702835Y-5712526D01*
X-5738961Y-5715941D01*
X-5750819Y-5716500D01*
X-9767887Y-5716500D01*
X-9836008Y-5696498D01*
X-9882501Y-5642842D01*
X-9893197Y-5603671D01*
X-9900768Y-5531634D01*
X-9900769Y-5531631D01*
X-9901458Y-5525072D01*
X-9960473Y-5343444D01*
X-10055960Y-5178056D01*
X-10079278Y-5152158D01*
X-10179325Y-5041045D01*
X-10179326Y-5041044D01*
X-10183747Y-5036134D01*
X-10338248Y-4923882D01*
X-10344276Y-4921198D01*
X-10344278Y-4921197D01*
X-10506681Y-4848891D01*
X-10506682Y-4848891D01*
X-10512712Y-4846206D01*
X-10606112Y-4826353D01*
X-10693056Y-4807872D01*
X-10693061Y-4807872D01*
X-10699513Y-4806500D01*
X-10755406Y-4806500D01*
X-10823527Y-4786498D01*
X-10844501Y-4769595D01*
X-12461027Y-3153068D01*
X-14101348Y-1512747D01*
X-14108888Y-1504461D01*
X-14113000Y-1497982D01*
X-14162652Y-1451356D01*
X-14165493Y-1448602D01*
X-14185230Y-1428865D01*
X-14188427Y-1426385D01*
X-14197449Y-1418680D01*
X-14202884Y-1413576D01*
X-14229679Y-1388414D01*
X-14236625Y-1384595D01*
X-14236628Y-1384593D01*
X-14247434Y-1378652D01*
X-14263953Y-1367801D01*
X-14264417Y-1367441D01*
X-14279959Y-1355386D01*
X-14287228Y-1352241D01*
X-14287232Y-1352238D01*
X-14320537Y-1337826D01*
X-14331187Y-1332609D01*
X-14369940Y-1311305D01*
X-14389563Y-1306267D01*
X-14408266Y-1299863D01*
X-14419580Y-1294967D01*
X-14419581Y-1294967D01*
X-14426855Y-1291819D01*
X-14434678Y-1290580D01*
X-14434688Y-1290577D01*
X-14470524Y-1284901D01*
X-14482144Y-1282495D01*
X-14517289Y-1273472D01*
X-14517290Y-1273472D01*
X-14524970Y-1271500D01*
X-14545224Y-1271500D01*
X-14564935Y-1269949D01*
X-14574045Y-1268506D01*
X-14584943Y-1266780D01*
X-14592835Y-1267526D01*
X-14628961Y-1270941D01*
X-14640819Y-1271500D01*
X-25085406Y-1271500D01*
X-25153527Y-1251498D01*
X-25174501Y-1234595D01*
X-27904595Y1495500D01*
X-27938621Y1557812D01*
X-27941500Y1584595D01*
X-27941500Y2461233D01*
X-27940973Y2472416D01*
X-27939298Y2479909D01*
X-27941438Y2548000D01*
X-27941500Y2551957D01*
X-27941500Y2579856D01*
X-27942004Y2583847D01*
X-27942937Y2595689D01*
X-27944077Y2631964D01*
X-27944326Y2639889D01*
X-27946538Y2647503D01*
X-27946539Y2647508D01*
X-27949977Y2659341D01*
X-27953988Y2678705D01*
X-27955533Y2690936D01*
X-27956526Y2698797D01*
X-27959443Y2706164D01*
X-27959444Y2706169D01*
X-27972802Y2739908D01*
X-27976646Y2751135D01*
X-27986770Y2785978D01*
X-27988982Y2793593D01*
X-27999293Y2811028D01*
X-28007988Y2828776D01*
X-28015448Y2847617D01*
X-28041436Y2883387D01*
X-28047952Y2893307D01*
X-28066420Y2924535D01*
X-28066422Y2924538D01*
X-28070458Y2931362D01*
X-28084779Y2945683D01*
X-28097620Y2960717D01*
X-28109528Y2977107D01*
X-28143605Y3005298D01*
X-28152384Y3013288D01*
X-30374618Y5235523D01*
X-30408644Y5297835D01*
X-30403579Y5368651D01*
X-30361032Y5425486D01*
X-30294512Y5450297D01*
X-30270718Y5449745D01*
X-30223768Y5444188D01*
X-30220555Y5443765D01*
X-30132998Y5431070D01*
X-30050841Y5434298D01*
X-30045894Y5434395D01*
X-25220226Y5434395D01*
X-25166976Y5422590D01*
X-25074473Y5379455D01*
X-25069165Y5378033D01*
X-25069163Y5378032D01*
X-25016877Y5364022D01*
X-24859740Y5321917D01*
X-24638277Y5302542D01*
X-24416814Y5321917D01*
X-24259677Y5364022D01*
X-24207391Y5378032D01*
X-24207389Y5378033D01*
X-24202081Y5379455D01*
X-24197099Y5381778D01*
X-24005587Y5471081D01*
X-24005582Y5471084D01*
X-24000600Y5473407D01*
X-23875186Y5561223D01*
X-22774223Y5561223D01*
X-22764926Y5549207D01*
X-22721931Y5519102D01*
X-22712445Y5513624D01*
X-22521007Y5424355D01*
X-22510715Y5420609D01*
X-22306691Y5365941D01*
X-22295896Y5364038D01*
X-22085475Y5345628D01*
X-22074525Y5345628D01*
X-21864104Y5364038D01*
X-21853309Y5365941D01*
X-21649285Y5420609D01*
X-21638993Y5424355D01*
X-21447555Y5513624D01*
X-21438069Y5519102D01*
X-21394236Y5549793D01*
X-21385861Y5560271D01*
X-21392929Y5573719D01*
X-22067188Y6247978D01*
X-22081132Y6255592D01*
X-22082965Y6255461D01*
X-22089580Y6251210D01*
X-22767793Y5572997D01*
X-22774223Y5561223D01*
X-23875186Y5561223D01*
X-23857340Y5573719D01*
X-23823007Y5597759D01*
X-23823004Y5597761D01*
X-23818496Y5600918D01*
X-23661300Y5758114D01*
X-23635125Y5795495D01*
X-23536946Y5935710D01*
X-23536945Y5935712D01*
X-23533789Y5940219D01*
X-23531466Y5945201D01*
X-23531463Y5945206D01*
X-23489643Y6034890D01*
X-23463240Y6091511D01*
X-23416324Y6144795D01*
X-23348047Y6164256D01*
X-23280087Y6143714D01*
X-23234852Y6091511D01*
X-23186380Y5987564D01*
X-23180897Y5978068D01*
X-23150206Y5934235D01*
X-23139729Y5925860D01*
X-23126282Y5932928D01*
X-22452022Y6607188D01*
X-22444408Y6621132D01*
X-22444539Y6622965D01*
X-22448790Y6629580D01*
X-23127003Y7307793D01*
X-23138777Y7314223D01*
X-23150793Y7304926D01*
X-23180897Y7261932D01*
X-23186377Y7252441D01*
X-23254485Y7106385D01*
X-23301403Y7053100D01*
X-23369680Y7033639D01*
X-23437640Y7054181D01*
X-23482875Y7106385D01*
X-23488793Y7119078D01*
X-23529519Y7206414D01*
X-23531463Y7210584D01*
X-23531466Y7210589D01*
X-23533789Y7215571D01*
X-23558086Y7250271D01*
X-23658141Y7393165D01*
X-23658143Y7393168D01*
X-23661300Y7397676D01*
X-23818496Y7554872D01*
X-23823004Y7558029D01*
X-23823007Y7558031D01*
X-23898772Y7611082D01*
X-23996810Y7679729D01*
X-22774140Y7679729D01*
X-22767072Y7666282D01*
X-22092812Y6992022D01*
X-22078868Y6984408D01*
X-22077035Y6984539D01*
X-22070420Y6988790D01*
X-21392207Y7667003D01*
X-21385777Y7678777D01*
X-21395074Y7690793D01*
X-21438069Y7720898D01*
X-21447555Y7726376D01*
X-21638993Y7815645D01*
X-21649285Y7819391D01*
X-21853309Y7874059D01*
X-21864104Y7875962D01*
X-22074525Y7894372D01*
X-22085475Y7894372D01*
X-22295896Y7875962D01*
X-22306691Y7874059D01*
X-22510715Y7819391D01*
X-22521007Y7815645D01*
X-22712441Y7726377D01*
X-22721932Y7720897D01*
X-22765765Y7690206D01*
X-22774140Y7679729D01*
X-23996810Y7679729D01*
X-24000600Y7682383D01*
X-24005582Y7684706D01*
X-24005587Y7684709D01*
X-24197099Y7774012D01*
X-24197100Y7774013D01*
X-24202081Y7776335D01*
X-24207389Y7777757D01*
X-24207391Y7777758D01*
X-24306085Y7804203D01*
X-24416814Y7833873D01*
X-24638277Y7853248D01*
X-24859740Y7833873D01*
X-24970469Y7804203D01*
X-25069163Y7777758D01*
X-25069165Y7777757D01*
X-25074473Y7776335D01*
X-25079454Y7774013D01*
X-25079455Y7774012D01*
X-25166976Y7733200D01*
X-25220226Y7721395D01*
X-29547052Y7721395D01*
X-29615173Y7741397D01*
X-29636147Y7758300D01*
X-36544354Y14666507D01*
X-36578380Y14728819D01*
X-36573315Y14799634D01*
X-36530768Y14856470D01*
X-36473340Y14880298D01*
X-36283697Y14907796D01*
X-36272516Y14910480D01*
X-36088952Y14972792D01*
X-36078449Y14977468D01*
X-35964914Y15041050D01*
X-35955052Y15051125D01*
X-35958007Y15058797D01*
X-36898078Y15998868D01*
X-36175592Y15998868D01*
X-36175461Y15997035D01*
X-36171210Y15990420D01*
X-35602712Y15421922D01*
X-35590332Y15415162D01*
X-35583752Y15420087D01*
X-35517468Y15538449D01*
X-35512792Y15548952D01*
X-35450480Y15732516D01*
X-35447795Y15743698D01*
X-35419683Y15937585D01*
X-35419053Y15944968D01*
X-35418399Y15969939D01*
X-35148006Y15969939D01*
X-35123303Y15761235D01*
X-35060982Y15560527D01*
X-34963129Y15374537D01*
X-34959557Y15370006D01*
X-34959555Y15370003D01*
X-34947598Y15354836D01*
X-34856749Y15239596D01*
X-34854114Y15236961D01*
X-32173842Y12556688D01*
X-32168205Y12550670D01*
X-32125506Y12501981D01*
X-32120975Y12498409D01*
X-32056046Y12447223D01*
X-32053483Y12445147D01*
X-32032452Y12427656D01*
X-31985461Y12388574D01*
X-31980423Y12385753D01*
X-31977436Y12383700D01*
X-31968108Y12377467D01*
X-31964997Y12375447D01*
X-31960463Y12371872D01*
X-31955356Y12369185D01*
X-31955345Y12369178D01*
X-31882187Y12330688D01*
X-31879288Y12329115D01*
X-31865184Y12321217D01*
X-31802096Y12285886D01*
X-31796636Y12284033D01*
X-31793336Y12282563D01*
X-31782947Y12278100D01*
X-31779584Y12276707D01*
X-31774473Y12274018D01*
X-31768957Y12272305D01*
X-31768954Y12272304D01*
X-31751099Y12266760D01*
X-31689970Y12247778D01*
X-31686911Y12246785D01*
X-31603088Y12218331D01*
X-31597374Y12217502D01*
X-31593862Y12216659D01*
X-31582849Y12214167D01*
X-31579282Y12213409D01*
X-31573766Y12211696D01*
X-31568038Y12211018D01*
X-31568033Y12211017D01*
X-31519743Y12205302D01*
X-31485882Y12201294D01*
X-31482660Y12200870D01*
X-31395103Y12188175D01*
X-31312946Y12191403D01*
X-31307999Y12191500D01*
X-8247805Y12191500D01*
X-8239564Y12191230D01*
X-8174939Y12186994D01*
X-8087027Y12197399D01*
X-8083814Y12197736D01*
X-7995721Y12205831D01*
X-7990161Y12207399D01*
X-7986588Y12208061D01*
X-7975585Y12210250D01*
X-7971972Y12211018D01*
X-7966235Y12211697D01*
X-7881724Y12237938D01*
X-7878627Y12238854D01*
X-7793451Y12262877D01*
X-7788263Y12265435D01*
X-7784812Y12266760D01*
X-7774434Y12270901D01*
X-7771047Y12272304D01*
X-7765527Y12274018D01*
X-7687254Y12315199D01*
X-7684318Y12316695D01*
X-7657499Y12329921D01*
X-7604963Y12355829D01*
X-7600332Y12359287D01*
X-7597129Y12361250D01*
X-7587742Y12367173D01*
X-7584649Y12369182D01*
X-7579537Y12371871D01*
X-7510044Y12426656D01*
X-7507474Y12428627D01*
X-7441199Y12478116D01*
X-7441192Y12478123D01*
X-7436571Y12481573D01*
X-7380738Y12541973D01*
X-7377309Y12545538D01*
X-6722845Y13200002D01*
X-4218389Y13200002D01*
X-4198464Y12946830D01*
X-4197310Y12942023D01*
X-4197309Y12942017D01*
X-4177212Y12858308D01*
X-4139179Y12699892D01*
X-4137286Y12695321D01*
X-4137285Y12695319D01*
X-4047316Y12478116D01*
X-4041995Y12465269D01*
X-3909304Y12248737D01*
X-3744374Y12055628D01*
X-3551265Y11890698D01*
X-3334733Y11758007D01*
X-3330163Y11756114D01*
X-3330159Y11756112D01*
X-3104683Y11662717D01*
X-3100110Y11660823D01*
X-3013405Y11640007D01*
X-2857985Y11602693D01*
X-2857979Y11602692D01*
X-2853172Y11601538D01*
X-2600000Y11581613D01*
X-2346828Y11601538D01*
X-2342021Y11602692D01*
X-2342015Y11602693D01*
X-2186595Y11640007D01*
X-2099890Y11660823D01*
X-2095317Y11662717D01*
X-1869841Y11756112D01*
X-1869837Y11756114D01*
X-1865267Y11758007D01*
X-1648735Y11890698D01*
X-1455626Y12055628D01*
X-1290696Y12248737D01*
X-1158005Y12465269D01*
X-1152683Y12478116D01*
X-1062715Y12695319D01*
X-1062714Y12695321D01*
X-1060821Y12699892D01*
X-1022788Y12858308D01*
X-1002691Y12942017D01*
X-1002690Y12942023D01*
X-1001536Y12946830D01*
X-981611Y13200002D01*
X-1001536Y13453174D01*
X-1002690Y13457981D01*
X-1002691Y13457987D01*
X-1059666Y13695300D01*
X-1060821Y13700112D01*
X-1106240Y13809763D01*
X-1156110Y13930161D01*
X-1156112Y13930165D01*
X-1158005Y13934735D01*
X-1290696Y14151267D01*
X-1455626Y14344376D01*
X-1648735Y14509306D01*
X-1865267Y14641997D01*
X-1869837Y14643890D01*
X-1869841Y14643892D01*
X-2095317Y14737287D01*
X-2095319Y14737288D01*
X-2099890Y14739181D01*
X-2189685Y14760739D01*
X-2342015Y14797311D01*
X-2342021Y14797312D01*
X-2346828Y14798466D01*
X-2600000Y14818391D01*
X-2853172Y14798466D01*
X-2857979Y14797312D01*
X-2857985Y14797311D01*
X-3010315Y14760739D01*
X-3100110Y14739181D01*
X-3104681Y14737288D01*
X-3104683Y14737287D01*
X-3330159Y14643892D01*
X-3330163Y14643890D01*
X-3334733Y14641997D01*
X-3551265Y14509306D01*
X-3744374Y14344376D01*
X-3909304Y14151267D01*
X-4041995Y13934735D01*
X-4043888Y13930165D01*
X-4043890Y13930161D01*
X-4093760Y13809763D01*
X-4139179Y13700112D01*
X-4140334Y13695300D01*
X-4197309Y13457987D01*
X-4197310Y13457981D01*
X-4198464Y13453174D01*
X-4218389Y13200002D01*
X-6722845Y13200002D01*
X-3318251Y16604595D01*
X-3255939Y16638621D01*
X-3229156Y16641500D01*
X-2641866Y16641500D01*
X-2579684Y16648255D01*
X-2443295Y16699385D01*
X-2326739Y16786739D01*
X-2239385Y16903295D01*
X-2219549Y16956208D01*
X-2195202Y17021152D01*
X-2152560Y17077916D01*
X-2085999Y17102616D01*
X-2016650Y17087408D01*
X-1981983Y17059420D01*
X-1956782Y17030327D01*
X-1949420Y17023117D01*
X-1785566Y16887084D01*
X-1777119Y16881169D01*
X-1593244Y16773721D01*
X-1583958Y16769271D01*
X-1384999Y16693297D01*
X-1375101Y16690421D01*
X-1271750Y16669394D01*
X-1257701Y16670590D01*
X-1254000Y16680935D01*
X-1254000Y16681483D01*
X-746000Y16681483D01*
X-741936Y16667641D01*
X-728522Y16665607D01*
X-721816Y16666466D01*
X-711738Y16668608D01*
X-507745Y16729809D01*
X-498158Y16733567D01*
X-306905Y16827261D01*
X-298055Y16832536D01*
X-124672Y16956208D01*
X-116800Y16962861D01*
X34052Y17113188D01*
X40730Y17121035D01*
X165003Y17293980D01*
X170313Y17302817D01*
X264670Y17493733D01*
X268469Y17503328D01*
X330377Y17707090D01*
X332555Y17717163D01*
X333986Y17728038D01*
X331775Y17742222D01*
X318617Y17746000D01*
X-727885Y17746000D01*
X-743124Y17741525D01*
X-744329Y17740135D01*
X-746000Y17732452D01*
X-746000Y16681483D01*
X-1254000Y16681483D01*
X-1254000Y18272115D01*
X-746000Y18272115D01*
X-741525Y18256876D01*
X-740135Y18255671D01*
X-732452Y18254000D01*
X318344Y18254000D01*
X331875Y18257973D01*
X333180Y18267053D01*
X291214Y18434125D01*
X287894Y18443876D01*
X202972Y18639186D01*
X198105Y18648261D01*
X82426Y18827074D01*
X76136Y18835243D01*
X-67194Y18992760D01*
X-74727Y18999785D01*
X-241861Y19131778D01*
X-250448Y19137483D01*
X-436883Y19240401D01*
X-446295Y19244631D01*
X-647041Y19315720D01*
X-657012Y19318354D01*
X-728163Y19331028D01*
X-741460Y19329568D01*
X-746000Y19315011D01*
X-746000Y18272115D01*
X-1254000Y18272115D01*
X-1254000Y19316898D01*
X-1257918Y19330242D01*
X-1272194Y19332229D01*
X-1310676Y19326340D01*
X-1320712Y19323949D01*
X-1523132Y19257788D01*
X-1532641Y19253791D01*
X-1721537Y19155458D01*
X-1730262Y19149964D01*
X-1900567Y19022095D01*
X-1908274Y19015252D01*
X-1985522Y18934416D01*
X-2047046Y18898986D01*
X-2117958Y18902443D01*
X-2175745Y18943689D01*
X-2194598Y18977237D01*
X-2236233Y19088297D01*
X-2239385Y19096705D01*
X-2326739Y19213261D01*
X-2443295Y19300615D01*
X-2579684Y19351745D01*
X-2641866Y19358500D01*
X-4438134Y19358500D01*
X-4500316Y19351745D01*
X-4636705Y19300615D01*
X-4753261Y19213261D01*
X-4840615Y19096705D01*
X-4891745Y18960316D01*
X-4898500Y18898134D01*
X-4898500Y18310843D01*
X-4918502Y18242722D01*
X-4935405Y18221748D01*
X-8641748Y14515405D01*
X-8704060Y14481379D01*
X-8730843Y14478500D01*
X-30809157Y14478500D01*
X-30877278Y14498502D01*
X-30898252Y14515405D01*
X-33229124Y16846277D01*
X-33349540Y16946426D01*
X-33490506Y17025371D01*
X-33527861Y17046291D01*
X-33527863Y17046292D01*
X-33532904Y17049115D01*
X-33538371Y17050971D01*
X-33538376Y17050973D01*
X-33726443Y17114813D01*
X-33726448Y17114814D01*
X-33731912Y17116669D01*
X-33939897Y17146825D01*
X-34080567Y17141298D01*
X-34144123Y17138801D01*
X-34144125Y17138801D01*
X-34149896Y17138574D01*
X-34155527Y17137300D01*
X-34155533Y17137299D01*
X-34349245Y17093466D01*
X-34354875Y17092192D01*
X-34360175Y17089915D01*
X-34360178Y17089914D01*
X-34515653Y17023117D01*
X-34547969Y17009233D01*
X-34722711Y16892473D01*
X-34873249Y16745826D01*
X-34876584Y16741108D01*
X-34876585Y16741106D01*
X-34923951Y16674084D01*
X-34994543Y16574199D01*
X-35082529Y16383343D01*
X-35134260Y16179649D01*
X-35148006Y15969939D01*
X-35418399Y15969939D01*
X-35417709Y15996296D01*
X-35417952Y16003695D01*
X-35435877Y16198785D01*
X-35437974Y16210099D01*
X-35490593Y16396669D01*
X-35494715Y16407408D01*
X-35580245Y16580846D01*
X-35588274Y16586870D01*
X-35600691Y16580099D01*
X-36167978Y16012812D01*
X-36175592Y15998868D01*
X-36898078Y15998868D01*
X-37478566Y16579356D01*
X-37490946Y16586116D01*
X-37496912Y16581650D01*
X-37574262Y16434631D01*
X-37578665Y16423998D01*
X-37636149Y16238873D01*
X-37638539Y16227628D01*
X-37657422Y16068083D01*
X-37685292Y16002785D01*
X-37744040Y15962921D01*
X-37815015Y15961146D01*
X-37871644Y15993797D01*
X-37904832Y16026985D01*
X-37938858Y16089297D01*
X-37941208Y16104551D01*
X-37946766Y16165045D01*
X-37950831Y16209279D01*
X-37953581Y16219032D01*
X-37988929Y16344363D01*
X-38007877Y16411549D01*
X-38100829Y16600037D01*
X-38175015Y16699385D01*
X-38223120Y16763805D01*
X-38223121Y16763806D01*
X-38226573Y16768429D01*
X-38232298Y16773721D01*
X-38376659Y16907167D01*
X-38376662Y16907169D01*
X-38380899Y16911086D01*
X-38439926Y16948329D01*
X-37124217Y16948329D01*
X-37120731Y16939941D01*
X-36552812Y16372022D01*
X-36538868Y16364408D01*
X-36537035Y16364539D01*
X-36530420Y16368790D01*
X-35962759Y16936451D01*
X-35955999Y16948831D01*
X-35962029Y16956886D01*
X-36025567Y16996976D01*
X-36035810Y17002195D01*
X-36215862Y17074028D01*
X-36226888Y17077295D01*
X-36417011Y17115112D01*
X-36428458Y17116315D01*
X-36622280Y17118852D01*
X-36633760Y17117949D01*
X-36824798Y17085123D01*
X-36835918Y17082143D01*
X-37017784Y17015049D01*
X-37028162Y17010099D01*
X-37114619Y16958662D01*
X-37124217Y16948329D01*
X-38439926Y16948329D01*
X-38558638Y17023231D01*
X-38753837Y17101108D01*
X-38759494Y17102233D01*
X-38759500Y17102235D01*
X-38954293Y17140981D01*
X-38954295Y17140981D01*
X-38959960Y17142108D01*
X-38965735Y17142184D01*
X-38965739Y17142184D01*
X-39070999Y17143562D01*
X-39170102Y17144859D01*
X-39175799Y17143880D01*
X-39175800Y17143880D01*
X-39371531Y17110247D01*
X-39377228Y17109268D01*
X-39574399Y17036528D01*
X-39579360Y17033576D01*
X-39579361Y17033576D01*
X-39742612Y16936451D01*
X-39755012Y16929074D01*
X-39913019Y16790506D01*
X-39963489Y16726485D01*
X-40030485Y16641500D01*
X-40043128Y16625463D01*
X-40045819Y16620347D01*
X-40045821Y16620345D01*
X-40128124Y16463912D01*
X-40140982Y16439473D01*
X-40203304Y16238766D01*
X-40223500Y16068126D01*
X-40223500Y15627805D01*
X-40223770Y15619564D01*
X-40228006Y15554939D01*
X-40217601Y15467027D01*
X-40217264Y15463814D01*
X-40209169Y15375721D01*
X-40207601Y15370161D01*
X-40206939Y15366588D01*
X-40204750Y15355585D01*
X-40203982Y15351972D01*
X-40203303Y15346235D01*
X-40177062Y15261724D01*
X-40176146Y15258627D01*
X-40152123Y15173451D01*
X-40149565Y15168263D01*
X-40148240Y15164812D01*
X-40144099Y15154434D01*
X-40142696Y15151047D01*
X-40140982Y15145527D01*
X-40138291Y15140413D01*
X-40138291Y15140412D01*
X-40099802Y15067255D01*
X-40098305Y15064319D01*
X-40059171Y14984963D01*
X-40055713Y14980332D01*
X-40053750Y14977129D01*
X-40047827Y14967742D01*
X-40045818Y14964649D01*
X-40043129Y14959537D01*
X-39988344Y14890044D01*
X-39986373Y14887474D01*
X-39936884Y14821199D01*
X-39936877Y14821192D01*
X-39933427Y14816571D01*
X-39929193Y14812657D01*
X-39929191Y14812655D01*
X-39873028Y14760739D01*
X-39869462Y14757309D01*
X-33582559Y8470405D01*
X-33548534Y8408095D01*
X-33553599Y8337280D01*
X-33596146Y8280444D01*
X-33659794Y8255871D01*
X-33664215Y8255453D01*
X-33678965Y8254059D01*
X-33690819Y8253500D01*
X-36766233Y8253500D01*
X-36777416Y8254027D01*
X-36784909Y8255702D01*
X-36792835Y8255453D01*
X-36792836Y8255453D01*
X-36852999Y8253562D01*
X-36856957Y8253500D01*
X-36884856Y8253500D01*
X-36888846Y8252996D01*
X-36900680Y8252064D01*
X-36944889Y8250674D01*
X-36952503Y8248462D01*
X-36952508Y8248461D01*
X-36964341Y8245023D01*
X-36983704Y8241012D01*
X-37003797Y8238474D01*
X-37011164Y8235557D01*
X-37011169Y8235556D01*
X-37044908Y8222198D01*
X-37056135Y8218354D01*
X-37098593Y8206018D01*
X-37105419Y8201981D01*
X-37116028Y8195707D01*
X-37133776Y8187012D01*
X-37152617Y8179552D01*
X-37159033Y8174890D01*
X-37159034Y8174890D01*
X-37188387Y8153564D01*
X-37198307Y8147048D01*
X-37229535Y8128580D01*
X-37229538Y8128578D01*
X-37236362Y8124542D01*
X-37250683Y8110221D01*
X-37265716Y8097381D01*
X-37282107Y8085472D01*
X-37287158Y8079366D01*
X-37310298Y8051395D01*
X-37318278Y8042626D01*
X-38292657Y7068248D01*
X-38354967Y7034224D01*
X-38403846Y7033298D01*
X-38616627Y7071200D01*
X-38616633Y7071201D01*
X-38621716Y7072106D01*
X-38695548Y7073008D01*
X-38839919Y7074772D01*
X-38839921Y7074772D01*
X-38845089Y7074835D01*
X-39065909Y7041045D01*
X-39278244Y6971643D01*
X-39476393Y6868493D01*
X-39480526Y6865390D01*
X-39480529Y6865388D01*
X-39650900Y6737470D01*
X-39655035Y6734365D01*
X-39673746Y6714785D01*
X-39804561Y6577895D01*
X-39809371Y6572862D01*
X-39812285Y6568590D01*
X-39812286Y6568589D01*
X-39917102Y6414934D01*
X-39972013Y6369931D01*
X-40042538Y6361760D01*
X-40106285Y6393014D01*
X-40126982Y6417498D01*
X-40207574Y6542074D01*
X-40213864Y6550243D01*
X-40357194Y6707760D01*
X-40364727Y6714785D01*
X-40531861Y6846778D01*
X-40540448Y6852483D01*
X-40726883Y6955401D01*
X-40736295Y6959631D01*
X-40937041Y7030720D01*
X-40947012Y7033354D01*
X-41018163Y7046028D01*
X-41031460Y7044568D01*
X-41036000Y7030011D01*
X-41036000Y4396483D01*
X-41031936Y4382641D01*
X-41018522Y4380607D01*
X-41011816Y4381466D01*
X-41001738Y4383608D01*
X-40797745Y4444809D01*
X-40788158Y4448567D01*
X-40596905Y4542261D01*
X-40588055Y4547536D01*
X-40414672Y4671208D01*
X-40406800Y4677861D01*
X-40255948Y4828188D01*
X-40249270Y4836035D01*
X-40121978Y5013181D01*
X-40120721Y5012278D01*
X-40073627Y5055638D01*
X-40003689Y5067855D01*
X-39938249Y5040322D01*
X-39910421Y5008489D01*
X-39850013Y4909912D01*
X-39703750Y4741062D01*
X-39531874Y4598368D01*
X-39339000Y4485662D01*
X-39130308Y4405970D01*
X-39125240Y4404939D01*
X-39125237Y4404938D01*
X-39030138Y4385590D01*
X-38911403Y4361433D01*
X-38906228Y4361243D01*
X-38906226Y4361243D01*
X-38693327Y4353436D01*
X-38693323Y4353436D01*
X-38688163Y4353247D01*
X-38683043Y4353903D01*
X-38683041Y4353903D01*
X-38471712Y4380975D01*
X-38471711Y4380975D01*
X-38466584Y4381632D01*
X-38461634Y4383117D01*
X-38257571Y4444339D01*
X-38257566Y4444341D01*
X-38252616Y4445826D01*
X-38052006Y4544104D01*
X-37870140Y4673827D01*
X-37761909Y4781681D01*
X-37699538Y4815596D01*
X-37628732Y4810408D01*
X-37571970Y4767762D01*
X-37554988Y4736659D01*
X-37510615Y4618295D01*
X-37423261Y4501739D01*
X-37306705Y4414385D01*
X-37170316Y4363255D01*
X-37108134Y4356500D01*
X-35311866Y4356500D01*
X-35249684Y4363255D01*
X-35113295Y4414385D01*
X-34996739Y4501739D01*
X-34909385Y4618295D01*
X-34858255Y4754684D01*
X-34851500Y4816866D01*
X-34851500Y6613134D01*
X-34858255Y6675316D01*
X-34909385Y6811705D01*
X-34907167Y6812537D01*
X-34919590Y6869355D01*
X-34894851Y6935901D01*
X-34838060Y6978509D01*
X-34793902Y6986500D01*
X-33969594Y6986500D01*
X-33901473Y6966498D01*
X-33880499Y6949595D01*
X-29245405Y2314500D01*
X-29211379Y2252188D01*
X-29208500Y2225405D01*
X-29208500Y1348767D01*
X-29209027Y1337584D01*
X-29210702Y1330091D01*
X-29210453Y1322165D01*
X-29210453Y1322164D01*
X-29208562Y1262014D01*
X-29208500Y1258055D01*
X-29208500Y1230144D01*
X-29208003Y1226210D01*
X-29208003Y1226209D01*
X-29207995Y1226144D01*
X-29207062Y1214307D01*
X-29205673Y1170111D01*
X-29200022Y1150661D01*
X-29196013Y1131300D01*
X-29193474Y1111203D01*
X-29190555Y1103832D01*
X-29190555Y1103830D01*
X-29177196Y1070088D01*
X-29173351Y1058858D01*
X-29161018Y1016407D01*
X-29156985Y1009588D01*
X-29156983Y1009583D01*
X-29150707Y998972D01*
X-29142012Y981224D01*
X-29134552Y962383D01*
X-29129890Y955967D01*
X-29129890Y955966D01*
X-29108564Y926613D01*
X-29102048Y916693D01*
X-29088369Y893564D01*
X-29079542Y878638D01*
X-29065221Y864317D01*
X-29052381Y849284D01*
X-29040472Y832893D01*
X-29006395Y804702D01*
X-28997616Y796712D01*
X-25903652Y-2297253D01*
X-25896112Y-2305539D01*
X-25892000Y-2312018D01*
X-25886223Y-2317443D01*
X-25842349Y-2358643D01*
X-25839507Y-2361398D01*
X-25819770Y-2381135D01*
X-25816573Y-2383615D01*
X-25807553Y-2391318D01*
X-25775321Y-2421586D01*
X-25768375Y-2425405D01*
X-25768372Y-2425407D01*
X-25757566Y-2431348D01*
X-25741047Y-2442199D01*
X-25725041Y-2454614D01*
X-25717772Y-2457759D01*
X-25717768Y-2457762D01*
X-25684463Y-2472174D01*
X-25673813Y-2477391D01*
X-25635060Y-2498695D01*
X-25627385Y-2500666D01*
X-25627384Y-2500666D01*
X-25615438Y-2503733D01*
X-25596733Y-2510137D01*
X-25578145Y-2518181D01*
X-25570322Y-2519420D01*
X-25570312Y-2519423D01*
X-25534476Y-2525099D01*
X-25522856Y-2527505D01*
X-25487711Y-2536528D01*
X-25480030Y-2538500D01*
X-25459776Y-2538500D01*
X-25440066Y-2540051D01*
X-25420057Y-2543220D01*
X-25412165Y-2542474D01*
X-25376039Y-2539059D01*
X-25364181Y-2538500D01*
X-14919594Y-2538500D01*
X-14851473Y-2558502D01*
X-14830499Y-2575405D01*
X-11742122Y-5663782D01*
X-11708096Y-5726094D01*
X-11705908Y-5739703D01*
X-11699530Y-5800386D01*
X-11689732Y-5893602D01*
X-11688542Y-5904928D01*
X-11629527Y-6086556D01*
X-11626224Y-6092278D01*
X-11626223Y-6092279D01*
X-11608708Y-6122616D01*
X-11534040Y-6251944D01*
X-11529622Y-6256851D01*
X-11529621Y-6256852D01*
X-11434686Y-6362288D01*
X-11406253Y-6393866D01*
X-11360317Y-6427240D01*
X-11348093Y-6436122D01*
X-11304739Y-6492345D01*
X-11298664Y-6563081D01*
X-11333058Y-6627153D01*
X-12030639Y-7324735D01*
X-12092952Y-7358760D01*
X-12108753Y-7361161D01*
X-12115751Y-7361773D01*
X-12135983Y-7363542D01*
X-12135990Y-7363543D01*
X-12141463Y-7364022D01*
X-12146778Y-7365446D01*
X-12146777Y-7365446D01*
X-12180516Y-7374486D01*
X-12251493Y-7372796D01*
X-12302222Y-7341874D01*
X-13925623Y-5718472D01*
X-15591348Y-4052747D01*
X-15598888Y-4044461D01*
X-15603000Y-4037982D01*
X-15652652Y-3991356D01*
X-15655493Y-3988602D01*
X-15675230Y-3968865D01*
X-15678427Y-3966385D01*
X-15687449Y-3958680D01*
X-15700878Y-3946069D01*
X-15719679Y-3928414D01*
X-15726625Y-3924595D01*
X-15726628Y-3924593D01*
X-15737434Y-3918652D01*
X-15753953Y-3907801D01*
X-15754417Y-3907441D01*
X-15769959Y-3895386D01*
X-15777228Y-3892241D01*
X-15777232Y-3892238D01*
X-15810537Y-3877826D01*
X-15821187Y-3872609D01*
X-15859940Y-3851305D01*
X-15879563Y-3846267D01*
X-15898266Y-3839863D01*
X-15909580Y-3834967D01*
X-15909581Y-3834967D01*
X-15916855Y-3831819D01*
X-15924678Y-3830580D01*
X-15924688Y-3830577D01*
X-15960524Y-3824901D01*
X-15972144Y-3822495D01*
X-16007289Y-3813472D01*
X-16007290Y-3813472D01*
X-16014970Y-3811500D01*
X-16035224Y-3811500D01*
X-16054935Y-3809949D01*
X-16064045Y-3808506D01*
X-16074943Y-3806780D01*
X-16104214Y-3809547D01*
X-16118961Y-3810941D01*
X-16130819Y-3811500D01*
X-39291233Y-3811500D01*
X-39302416Y-3810973D01*
X-39309909Y-3809298D01*
X-39317835Y-3809547D01*
X-39317836Y-3809547D01*
X-39377999Y-3811438D01*
X-39381957Y-3811500D01*
X-39409856Y-3811500D01*
X-39413846Y-3812004D01*
X-39425680Y-3812936D01*
X-39469889Y-3814326D01*
X-39477503Y-3816538D01*
X-39477508Y-3816539D01*
X-39489341Y-3819977D01*
X-39508704Y-3823988D01*
X-39528797Y-3826526D01*
X-39536164Y-3829443D01*
X-39536169Y-3829444D01*
X-39569908Y-3842802D01*
X-39581135Y-3846646D01*
X-39623593Y-3858982D01*
X-39630419Y-3863019D01*
X-39641028Y-3869293D01*
X-39658776Y-3877988D01*
X-39677617Y-3885448D01*
X-39684033Y-3890110D01*
X-39684034Y-3890110D01*
X-39713387Y-3911436D01*
X-39723307Y-3917952D01*
X-39754535Y-3936420D01*
X-39754538Y-3936422D01*
X-39761362Y-3940458D01*
X-39775683Y-3954779D01*
X-39790716Y-3967619D01*
X-39807107Y-3979528D01*
X-39815783Y-3990016D01*
X-39835298Y-4013605D01*
X-39843288Y-4022384D01*
X-41667253Y-5846348D01*
X-41675539Y-5853888D01*
X-41682018Y-5858000D01*
X-41687443Y-5863777D01*
X-41728643Y-5907651D01*
X-41731398Y-5910493D01*
X-41751135Y-5930230D01*
X-41753615Y-5933427D01*
X-41761318Y-5942447D01*
X-41791586Y-5974679D01*
X-41795405Y-5981625D01*
X-41795407Y-5981628D01*
X-41801348Y-5992434D01*
X-41812199Y-6008953D01*
X-41824614Y-6024959D01*
X-41827759Y-6032228D01*
X-41827762Y-6032232D01*
X-41842174Y-6065537D01*
X-41847391Y-6076187D01*
X-41868695Y-6114940D01*
X-41870666Y-6122615D01*
X-41870666Y-6122616D01*
X-41873733Y-6134562D01*
X-41880137Y-6153266D01*
X-41888181Y-6171855D01*
X-41889420Y-6179678D01*
X-41889423Y-6179688D01*
X-41895099Y-6215524D01*
X-41897505Y-6227144D01*
X-41908500Y-6269970D01*
X-41908500Y-6290224D01*
X-41910051Y-6309934D01*
X-41913220Y-6329943D01*
X-41912474Y-6337835D01*
X-41909059Y-6373961D01*
X-41908500Y-6385819D01*
X-41908500Y-6400606D01*
X-41928502Y-6468727D01*
X-41962229Y-6503819D01*
X-42114789Y-6610643D01*
X-42114792Y-6610645D01*
X-42119300Y-6613802D01*
X-42281198Y-6775700D01*
X-42412523Y-6963251D01*
X-42414846Y-6968233D01*
X-42414849Y-6968238D01*
X-42492710Y-7135213D01*
X-42509284Y-7170757D01*
X-42510706Y-7176065D01*
X-42510707Y-7176067D01*
X-42567117Y-7386591D01*
X-42568543Y-7391913D01*
X-42588498Y-7620000D01*
X-45231267Y-7620000D01*
X-45229919Y-7517022D01*
X-45229919Y-7517019D01*
X-45229858Y-7512345D01*
X-45265104Y-7253362D01*
X-45279527Y-7203877D01*
X-45324694Y-7048919D01*
X-45338243Y-7002433D01*
X-45447668Y-6765072D01*
X-45480481Y-6715024D01*
X-45588410Y-6550404D01*
X-45588414Y-6550399D01*
X-45590976Y-6546491D01*
X-45765018Y-6351494D01*
X-45965970Y-6184363D01*
X-46032213Y-6144166D01*
X-46185422Y-6051196D01*
X-46185426Y-6051194D01*
X-46189419Y-6048771D01*
X-46430455Y-5947697D01*
X-46683783Y-5883359D01*
X-46688434Y-5882891D01*
X-46688438Y-5882890D01*
X-46897729Y-5861816D01*
X-46900867Y-5861500D01*
X-47056354Y-5861500D01*
X-47058679Y-5861673D01*
X-47058685Y-5861673D01*
X-47246000Y-5875593D01*
X-47246004Y-5875594D01*
X-47250652Y-5875939D01*
X-47255200Y-5876968D01*
X-47255206Y-5876969D01*
X-47397109Y-5909079D01*
X-47505577Y-5933623D01*
X-47509929Y-5935315D01*
X-47509931Y-5935316D01*
X-47744824Y-6026660D01*
X-47744827Y-6026661D01*
X-47749177Y-6028353D01*
X-47976098Y-6158049D01*
X-48181357Y-6319862D01*
X-48360443Y-6510237D01*
X-48509424Y-6724991D01*
X-48511490Y-6729181D01*
X-48511492Y-6729184D01*
X-48622548Y-6954385D01*
X-48625025Y-6959407D01*
X-48626447Y-6963850D01*
X-48626448Y-6963852D01*
X-48649657Y-7036358D01*
X-48704707Y-7208335D01*
X-48746721Y-7466307D01*
X-48746782Y-7470980D01*
X-48748804Y-7625475D01*
X-48750142Y-7727655D01*
X-50291500Y-7727655D01*
X-50291500Y-2647655D01*
X-48750142Y-2647655D01*
X-48714896Y-2906638D01*
X-48713588Y-2911124D01*
X-48713588Y-2911126D01*
X-48693902Y-2978664D01*
X-48641757Y-3157567D01*
X-48532332Y-3394928D01*
X-48529769Y-3398837D01*
X-48391590Y-3609596D01*
X-48391586Y-3609601D01*
X-48389024Y-3613509D01*
X-48214982Y-3808506D01*
X-48014030Y-3975637D01*
X-48010027Y-3978066D01*
X-47794578Y-4108804D01*
X-47794574Y-4108806D01*
X-47790581Y-4111229D01*
X-47549545Y-4212303D01*
X-47296217Y-4276641D01*
X-47291566Y-4277109D01*
X-47291562Y-4277110D01*
X-47098692Y-4296531D01*
X-47079133Y-4298500D01*
X-46923646Y-4298500D01*
X-46921321Y-4298327D01*
X-46921315Y-4298327D01*
X-46734000Y-4284407D01*
X-46733996Y-4284406D01*
X-46729348Y-4284061D01*
X-46724800Y-4283032D01*
X-46724794Y-4283031D01*
X-46538399Y-4240853D01*
X-46474423Y-4226377D01*
X-46438231Y-4212303D01*
X-46235176Y-4133340D01*
X-46235173Y-4133339D01*
X-46230823Y-4131647D01*
X-46003902Y-4001951D01*
X-45798643Y-3840138D01*
X-45619557Y-3649763D01*
X-45470576Y-3435009D01*
X-45354975Y-3200593D01*
X-45275293Y-2951665D01*
X-45233279Y-2693693D01*
X-45231255Y-2539059D01*
X-45229919Y-2437022D01*
X-45229919Y-2437019D01*
X-45229858Y-2432345D01*
X-45265104Y-2173362D01*
X-45279527Y-2123877D01*
X-45336932Y-1926932D01*
X-45338243Y-1922433D01*
X-45352873Y-1890697D01*
X-45445711Y-1689318D01*
X-45447668Y-1685072D01*
X-45560649Y-1512747D01*
X-45588410Y-1470404D01*
X-45588414Y-1470399D01*
X-45590976Y-1466491D01*
X-45765018Y-1271494D01*
X-45965970Y-1104363D01*
X-46119824Y-1011002D01*
X-46185422Y-971196D01*
X-46185426Y-971194D01*
X-46189419Y-968771D01*
X-46430455Y-867697D01*
X-46683783Y-803359D01*
X-46688434Y-802891D01*
X-46688438Y-802890D01*
X-46897729Y-781816D01*
X-46900867Y-781500D01*
X-47056354Y-781500D01*
X-47058679Y-781673D01*
X-47058685Y-781673D01*
X-47246000Y-795593D01*
X-47246004Y-795594D01*
X-47250652Y-795939D01*
X-47255200Y-796968D01*
X-47255206Y-796969D01*
X-47426489Y-835727D01*
X-47505577Y-853623D01*
X-47509929Y-855315D01*
X-47509931Y-855316D01*
X-47744824Y-946660D01*
X-47744827Y-946661D01*
X-47749177Y-948353D01*
X-47976098Y-1078049D01*
X-48181357Y-1239862D01*
X-48360443Y-1430237D01*
X-48509424Y-1644991D01*
X-48511490Y-1649181D01*
X-48511492Y-1649184D01*
X-48564222Y-1756111D01*
X-48625025Y-1879407D01*
X-48626447Y-1883850D01*
X-48626448Y-1883852D01*
X-48637436Y-1918179D01*
X-48704707Y-2128335D01*
X-48746721Y-2386307D01*
X-48747615Y-2454614D01*
X-48748733Y-2540051D01*
X-48750142Y-2647655D01*
X-50291500Y-2647655D01*
X-50291500Y2432345D01*
X-48750142Y2432345D01*
X-48714896Y2173362D01*
X-48713588Y2168876D01*
X-48713588Y2168874D01*
X-48693902Y2101336D01*
X-48641757Y1922433D01*
X-48532332Y1685072D01*
X-48516137Y1660370D01*
X-48391590Y1470404D01*
X-48391586Y1470399D01*
X-48389024Y1466491D01*
X-48214982Y1271494D01*
X-48014030Y1104363D01*
X-48010027Y1101934D01*
X-47794578Y971196D01*
X-47794574Y971194D01*
X-47790581Y968771D01*
X-47549545Y867697D01*
X-47296217Y803359D01*
X-47291566Y802891D01*
X-47291562Y802890D01*
X-47136108Y787237D01*
X-47079133Y781500D01*
X-46923646Y781500D01*
X-46921321Y781673D01*
X-46921315Y781673D01*
X-46734000Y795593D01*
X-46733996Y795594D01*
X-46729348Y795939D01*
X-46724800Y796968D01*
X-46724794Y796969D01*
X-46493603Y849283D01*
X-46474423Y853623D01*
X-46470069Y855316D01*
X-46235176Y946660D01*
X-46235173Y946661D01*
X-46230823Y948353D01*
X-46222697Y952997D01*
X-46100178Y1023023D01*
X-46003902Y1078049D01*
X-45798643Y1239862D01*
X-45619557Y1430237D01*
X-45470576Y1644991D01*
X-45410405Y1767005D01*
X-45357040Y1875219D01*
X-45357039Y1875222D01*
X-45354975Y1879407D01*
X-45314620Y2005475D01*
X-45276720Y2123877D01*
X-45275293Y2128335D01*
X-45251655Y2273478D01*
X-42557727Y2273478D01*
X-42510236Y2096239D01*
X-42506490Y2085947D01*
X-42414414Y1888489D01*
X-42408931Y1878993D01*
X-42283972Y1700533D01*
X-42276916Y1692125D01*
X-42122875Y1538084D01*
X-42114467Y1531028D01*
X-41936007Y1406069D01*
X-41926511Y1400586D01*
X-41729053Y1308510D01*
X-41718761Y1304764D01*
X-41546497Y1258606D01*
X-41532401Y1258942D01*
X-41529000Y1266884D01*
X-41529000Y1272033D01*
X-41021000Y1272033D01*
X-41017027Y1258502D01*
X-41008478Y1257273D01*
X-40831239Y1304764D01*
X-40820947Y1308510D01*
X-40623489Y1400586D01*
X-40613993Y1406069D01*
X-40435533Y1531028D01*
X-40427125Y1538084D01*
X-40273084Y1692125D01*
X-40266028Y1700533D01*
X-40141069Y1878993D01*
X-40135586Y1888489D01*
X-40043510Y2085947D01*
X-40039764Y2096239D01*
X-39993606Y2268503D01*
X-39993725Y2273478D01*
X-39382727Y2273478D01*
X-39335236Y2096239D01*
X-39331490Y2085947D01*
X-39239414Y1888489D01*
X-39233931Y1878993D01*
X-39108972Y1700533D01*
X-39101916Y1692125D01*
X-38947875Y1538084D01*
X-38939467Y1531028D01*
X-38761007Y1406069D01*
X-38751511Y1400586D01*
X-38554053Y1308510D01*
X-38543761Y1304764D01*
X-38371497Y1258606D01*
X-38357401Y1258942D01*
X-38354000Y1266884D01*
X-38354000Y1272033D01*
X-37846000Y1272033D01*
X-37842027Y1258502D01*
X-37833478Y1257273D01*
X-37656239Y1304764D01*
X-37645947Y1308510D01*
X-37448489Y1400586D01*
X-37438993Y1406069D01*
X-37260533Y1531028D01*
X-37252125Y1538084D01*
X-37098084Y1692125D01*
X-37091028Y1700533D01*
X-36966069Y1878993D01*
X-36960586Y1888489D01*
X-36868510Y2085947D01*
X-36864764Y2096239D01*
X-36818606Y2268503D01*
X-36818725Y2273478D01*
X-36207727Y2273478D01*
X-36160236Y2096239D01*
X-36156490Y2085947D01*
X-36064414Y1888489D01*
X-36058931Y1878993D01*
X-35933972Y1700533D01*
X-35926916Y1692125D01*
X-35772875Y1538084D01*
X-35764467Y1531028D01*
X-35586007Y1406069D01*
X-35576511Y1400586D01*
X-35379053Y1308510D01*
X-35368761Y1304764D01*
X-35196497Y1258606D01*
X-35182401Y1258942D01*
X-35179000Y1266884D01*
X-35179000Y1272033D01*
X-34671000Y1272033D01*
X-34667027Y1258502D01*
X-34658478Y1257273D01*
X-34481239Y1304764D01*
X-34470947Y1308510D01*
X-34273489Y1400586D01*
X-34263993Y1406069D01*
X-34085533Y1531028D01*
X-34077125Y1538084D01*
X-33923084Y1692125D01*
X-33916028Y1700533D01*
X-33791069Y1878993D01*
X-33785586Y1888489D01*
X-33693510Y2085947D01*
X-33689764Y2096239D01*
X-33643606Y2268503D01*
X-33643725Y2273478D01*
X-33032727Y2273478D01*
X-32985236Y2096239D01*
X-32981490Y2085947D01*
X-32889414Y1888489D01*
X-32883931Y1878993D01*
X-32758972Y1700533D01*
X-32751916Y1692125D01*
X-32597875Y1538084D01*
X-32589467Y1531028D01*
X-32411007Y1406069D01*
X-32401511Y1400586D01*
X-32204053Y1308510D01*
X-32193761Y1304764D01*
X-32021497Y1258606D01*
X-32007401Y1258942D01*
X-32004000Y1266884D01*
X-32004000Y1272033D01*
X-31496000Y1272033D01*
X-31492027Y1258502D01*
X-31483478Y1257273D01*
X-31306239Y1304764D01*
X-31295947Y1308510D01*
X-31098489Y1400586D01*
X-31088993Y1406069D01*
X-30910533Y1531028D01*
X-30902125Y1538084D01*
X-30748084Y1692125D01*
X-30741028Y1700533D01*
X-30616069Y1878993D01*
X-30610586Y1888489D01*
X-30518510Y2085947D01*
X-30514764Y2096239D01*
X-30468606Y2268503D01*
X-30468942Y2282599D01*
X-30476884Y2286000D01*
X-31477885Y2286000D01*
X-31493124Y2281525D01*
X-31494329Y2280135D01*
X-31496000Y2272452D01*
X-31496000Y1272033D01*
X-32004000Y1272033D01*
X-32004000Y2267885D01*
X-32008475Y2283124D01*
X-32009865Y2284329D01*
X-32017548Y2286000D01*
X-33017967Y2286000D01*
X-33031498Y2282027D01*
X-33032727Y2273478D01*
X-33643725Y2273478D01*
X-33643942Y2282599D01*
X-33651884Y2286000D01*
X-34652885Y2286000D01*
X-34668124Y2281525D01*
X-34669329Y2280135D01*
X-34671000Y2272452D01*
X-34671000Y1272033D01*
X-35179000Y1272033D01*
X-35179000Y2267885D01*
X-35183475Y2283124D01*
X-35184865Y2284329D01*
X-35192548Y2286000D01*
X-36192967Y2286000D01*
X-36206498Y2282027D01*
X-36207727Y2273478D01*
X-36818725Y2273478D01*
X-36818942Y2282599D01*
X-36826884Y2286000D01*
X-37827885Y2286000D01*
X-37843124Y2281525D01*
X-37844329Y2280135D01*
X-37846000Y2272452D01*
X-37846000Y1272033D01*
X-38354000Y1272033D01*
X-38354000Y2267885D01*
X-38358475Y2283124D01*
X-38359865Y2284329D01*
X-38367548Y2286000D01*
X-39367967Y2286000D01*
X-39381498Y2282027D01*
X-39382727Y2273478D01*
X-39993725Y2273478D01*
X-39993942Y2282599D01*
X-40001884Y2286000D01*
X-41002885Y2286000D01*
X-41018124Y2281525D01*
X-41019329Y2280135D01*
X-41021000Y2272452D01*
X-41021000Y1272033D01*
X-41529000Y1272033D01*
X-41529000Y2267885D01*
X-41533475Y2283124D01*
X-41534865Y2284329D01*
X-41542548Y2286000D01*
X-42542967Y2286000D01*
X-42556498Y2282027D01*
X-42557727Y2273478D01*
X-45251655Y2273478D01*
X-45233279Y2386307D01*
X-45230043Y2633500D01*
X-45229919Y2642978D01*
X-45229919Y2642981D01*
X-45229858Y2647655D01*
X-45252156Y2811497D01*
X-42556394Y2811497D01*
X-42556058Y2797401D01*
X-42548116Y2794000D01*
X-41547115Y2794000D01*
X-41531876Y2798475D01*
X-41530671Y2799865D01*
X-41529000Y2807548D01*
X-41529000Y2812115D01*
X-41021000Y2812115D01*
X-41016525Y2796876D01*
X-41015135Y2795671D01*
X-41007452Y2794000D01*
X-40007033Y2794000D01*
X-39993502Y2797973D01*
X-39992273Y2806522D01*
X-39993606Y2811497D01*
X-39381394Y2811497D01*
X-39381058Y2797401D01*
X-39373116Y2794000D01*
X-38372115Y2794000D01*
X-38356876Y2798475D01*
X-38355671Y2799865D01*
X-38354000Y2807548D01*
X-38354000Y2812115D01*
X-37846000Y2812115D01*
X-37841525Y2796876D01*
X-37840135Y2795671D01*
X-37832452Y2794000D01*
X-36832033Y2794000D01*
X-36818502Y2797973D01*
X-36817273Y2806522D01*
X-36818606Y2811497D01*
X-36206394Y2811497D01*
X-36206058Y2797401D01*
X-36198116Y2794000D01*
X-35197115Y2794000D01*
X-35181876Y2798475D01*
X-35180671Y2799865D01*
X-35179000Y2807548D01*
X-35179000Y2812115D01*
X-34671000Y2812115D01*
X-34666525Y2796876D01*
X-34665135Y2795671D01*
X-34657452Y2794000D01*
X-33657033Y2794000D01*
X-33643502Y2797973D01*
X-33642273Y2806522D01*
X-33643606Y2811497D01*
X-33031394Y2811497D01*
X-33031058Y2797401D01*
X-33023116Y2794000D01*
X-32022115Y2794000D01*
X-32006876Y2798475D01*
X-32005671Y2799865D01*
X-32004000Y2807548D01*
X-32004000Y2812115D01*
X-31496000Y2812115D01*
X-31491525Y2796876D01*
X-31490135Y2795671D01*
X-31482452Y2794000D01*
X-30482033Y2794000D01*
X-30468502Y2797973D01*
X-30467273Y2806522D01*
X-30514764Y2983761D01*
X-30518510Y2994053D01*
X-30610586Y3191511D01*
X-30616069Y3201007D01*
X-30741028Y3379467D01*
X-30748084Y3387875D01*
X-30902125Y3541916D01*
X-30910533Y3548972D01*
X-31088993Y3673931D01*
X-31098489Y3679414D01*
X-31295947Y3771490D01*
X-31306239Y3775236D01*
X-31478503Y3821394D01*
X-31492599Y3821058D01*
X-31496000Y3813116D01*
X-31496000Y2812115D01*
X-32004000Y2812115D01*
X-32004000Y3807967D01*
X-32007973Y3821498D01*
X-32016522Y3822727D01*
X-32193761Y3775236D01*
X-32204053Y3771490D01*
X-32401511Y3679414D01*
X-32411007Y3673931D01*
X-32589467Y3548972D01*
X-32597875Y3541916D01*
X-32751916Y3387875D01*
X-32758972Y3379467D01*
X-32883931Y3201007D01*
X-32889414Y3191511D01*
X-32981490Y2994053D01*
X-32985236Y2983761D01*
X-33031394Y2811497D01*
X-33643606Y2811497D01*
X-33689764Y2983761D01*
X-33693510Y2994053D01*
X-33785586Y3191511D01*
X-33791069Y3201007D01*
X-33916028Y3379467D01*
X-33923084Y3387875D01*
X-34077125Y3541916D01*
X-34085533Y3548972D01*
X-34263993Y3673931D01*
X-34273489Y3679414D01*
X-34470947Y3771490D01*
X-34481239Y3775236D01*
X-34653503Y3821394D01*
X-34667599Y3821058D01*
X-34671000Y3813116D01*
X-34671000Y2812115D01*
X-35179000Y2812115D01*
X-35179000Y3807967D01*
X-35182973Y3821498D01*
X-35191522Y3822727D01*
X-35368761Y3775236D01*
X-35379053Y3771490D01*
X-35576511Y3679414D01*
X-35586007Y3673931D01*
X-35764467Y3548972D01*
X-35772875Y3541916D01*
X-35926916Y3387875D01*
X-35933972Y3379467D01*
X-36058931Y3201007D01*
X-36064414Y3191511D01*
X-36156490Y2994053D01*
X-36160236Y2983761D01*
X-36206394Y2811497D01*
X-36818606Y2811497D01*
X-36864764Y2983761D01*
X-36868510Y2994053D01*
X-36960586Y3191511D01*
X-36966069Y3201007D01*
X-37091028Y3379467D01*
X-37098084Y3387875D01*
X-37252125Y3541916D01*
X-37260533Y3548972D01*
X-37438993Y3673931D01*
X-37448489Y3679414D01*
X-37645947Y3771490D01*
X-37656239Y3775236D01*
X-37828503Y3821394D01*
X-37842599Y3821058D01*
X-37846000Y3813116D01*
X-37846000Y2812115D01*
X-38354000Y2812115D01*
X-38354000Y3807967D01*
X-38357973Y3821498D01*
X-38366522Y3822727D01*
X-38543761Y3775236D01*
X-38554053Y3771490D01*
X-38751511Y3679414D01*
X-38761007Y3673931D01*
X-38939467Y3548972D01*
X-38947875Y3541916D01*
X-39101916Y3387875D01*
X-39108972Y3379467D01*
X-39233931Y3201007D01*
X-39239414Y3191511D01*
X-39331490Y2994053D01*
X-39335236Y2983761D01*
X-39381394Y2811497D01*
X-39993606Y2811497D01*
X-40039764Y2983761D01*
X-40043510Y2994053D01*
X-40135586Y3191511D01*
X-40141069Y3201007D01*
X-40266028Y3379467D01*
X-40273084Y3387875D01*
X-40427125Y3541916D01*
X-40435533Y3548972D01*
X-40613993Y3673931D01*
X-40623489Y3679414D01*
X-40820947Y3771490D01*
X-40831239Y3775236D01*
X-41003503Y3821394D01*
X-41017599Y3821058D01*
X-41021000Y3813116D01*
X-41021000Y2812115D01*
X-41529000Y2812115D01*
X-41529000Y3807967D01*
X-41532973Y3821498D01*
X-41541522Y3822727D01*
X-41718761Y3775236D01*
X-41729053Y3771490D01*
X-41926511Y3679414D01*
X-41936007Y3673931D01*
X-42114467Y3548972D01*
X-42122875Y3541916D01*
X-42276916Y3387875D01*
X-42283972Y3379467D01*
X-42408931Y3201007D01*
X-42414414Y3191511D01*
X-42506490Y2994053D01*
X-42510236Y2983761D01*
X-42556394Y2811497D01*
X-45252156Y2811497D01*
X-45265104Y2906638D01*
X-45276484Y2945683D01*
X-45296190Y3013288D01*
X-45338243Y3157567D01*
X-45447668Y3394928D01*
X-45541531Y3538093D01*
X-45588410Y3609596D01*
X-45588414Y3609601D01*
X-45590976Y3613509D01*
X-45765018Y3808506D01*
X-45965970Y3975637D01*
X-46142716Y4082889D01*
X-46185422Y4108804D01*
X-46185426Y4108806D01*
X-46189419Y4111229D01*
X-46430455Y4212303D01*
X-46683783Y4276641D01*
X-46688434Y4277109D01*
X-46688438Y4277110D01*
X-46897729Y4298184D01*
X-46900867Y4298500D01*
X-47056354Y4298500D01*
X-47058679Y4298327D01*
X-47058685Y4298327D01*
X-47246000Y4284407D01*
X-47246004Y4284406D01*
X-47250652Y4284061D01*
X-47255200Y4283032D01*
X-47255206Y4283031D01*
X-47441601Y4240853D01*
X-47505577Y4226377D01*
X-47509929Y4224685D01*
X-47509931Y4224684D01*
X-47744824Y4133340D01*
X-47744827Y4133339D01*
X-47749177Y4131647D01*
X-47976098Y4001951D01*
X-48181357Y3840138D01*
X-48360443Y3649763D01*
X-48442785Y3531068D01*
X-48504961Y3441442D01*
X-48509424Y3435009D01*
X-48511490Y3430819D01*
X-48511492Y3430816D01*
X-48611807Y3227396D01*
X-48625025Y3200593D01*
X-48626447Y3196150D01*
X-48626448Y3196148D01*
X-48666096Y3072287D01*
X-48704707Y2951665D01*
X-48746721Y2693693D01*
X-48747523Y2632441D01*
X-48750026Y2441178D01*
X-48750142Y2432345D01*
X-50291500Y2432345D01*
X-50291500Y5447034D01*
X-42621743Y5447034D01*
X-42591435Y5312554D01*
X-42588355Y5302725D01*
X-42508230Y5105397D01*
X-42503587Y5096206D01*
X-42392306Y4914612D01*
X-42386223Y4906301D01*
X-42246787Y4745333D01*
X-42239420Y4738117D01*
X-42075566Y4602084D01*
X-42067119Y4596169D01*
X-41883244Y4488721D01*
X-41873958Y4484271D01*
X-41674999Y4408297D01*
X-41665101Y4405421D01*
X-41561750Y4384394D01*
X-41547701Y4385590D01*
X-41544000Y4395935D01*
X-41544000Y5442885D01*
X-41548475Y5458124D01*
X-41549865Y5459329D01*
X-41557548Y5461000D01*
X-42606775Y5461000D01*
X-42620306Y5457027D01*
X-42621743Y5447034D01*
X-50291500Y5447034D01*
X-50291500Y7512345D01*
X-48750142Y7512345D01*
X-48714896Y7253362D01*
X-48713588Y7248876D01*
X-48713588Y7248874D01*
X-48699625Y7200968D01*
X-48641757Y7002433D01*
X-48639797Y6998180D01*
X-48639796Y6998179D01*
X-48627563Y6971643D01*
X-48532332Y6765072D01*
X-48529769Y6761163D01*
X-48391590Y6550404D01*
X-48391586Y6550399D01*
X-48389024Y6546491D01*
X-48214982Y6351494D01*
X-48014030Y6184363D01*
X-48010027Y6181934D01*
X-47794578Y6051196D01*
X-47794574Y6051194D01*
X-47790581Y6048771D01*
X-47549545Y5947697D01*
X-47296217Y5883359D01*
X-47291566Y5882891D01*
X-47291562Y5882890D01*
X-47098692Y5863469D01*
X-47079133Y5861500D01*
X-46923646Y5861500D01*
X-46921321Y5861673D01*
X-46921315Y5861673D01*
X-46734000Y5875593D01*
X-46733996Y5875594D01*
X-46729348Y5875939D01*
X-46724800Y5876968D01*
X-46724794Y5876969D01*
X-46509097Y5925777D01*
X-46474423Y5933623D01*
X-46438231Y5947697D01*
X-46353062Y5980817D01*
X-42625611Y5980817D01*
X-42624088Y5972393D01*
X-42611708Y5969000D01*
X-41562115Y5969000D01*
X-41546876Y5973475D01*
X-41545671Y5974865D01*
X-41544000Y5982548D01*
X-41544000Y7031898D01*
X-41547918Y7045242D01*
X-41562194Y7047229D01*
X-41600676Y7041340D01*
X-41610712Y7038949D01*
X-41813132Y6972788D01*
X-41822641Y6968791D01*
X-42011537Y6870458D01*
X-42020262Y6864964D01*
X-42190567Y6737095D01*
X-42198274Y6730252D01*
X-42345410Y6576283D01*
X-42351896Y6568273D01*
X-42471902Y6392351D01*
X-42477000Y6383377D01*
X-42566662Y6190217D01*
X-42570225Y6180530D01*
X-42625611Y5980817D01*
X-46353062Y5980817D01*
X-46235176Y6026660D01*
X-46235173Y6026661D01*
X-46230823Y6028353D01*
X-46226072Y6031068D01*
X-46120321Y6091510D01*
X-46003902Y6158049D01*
X-45798643Y6319862D01*
X-45619557Y6510237D01*
X-45499904Y6682715D01*
X-45473241Y6721149D01*
X-45473239Y6721152D01*
X-45470576Y6724991D01*
X-45468508Y6729184D01*
X-45357040Y6955219D01*
X-45357039Y6955222D01*
X-45354975Y6959407D01*
X-45346302Y6986500D01*
X-45276720Y7203877D01*
X-45275293Y7208335D01*
X-45233279Y7466307D01*
X-45231776Y7581166D01*
X-45229919Y7722978D01*
X-45229919Y7722981D01*
X-45229858Y7727655D01*
X-45265104Y7986638D01*
X-45267045Y7993299D01*
X-45312741Y8150073D01*
X-45338243Y8237567D01*
X-45346488Y8255453D01*
X-45384211Y8337280D01*
X-45447668Y8474928D01*
X-45556650Y8641153D01*
X-45588410Y8689596D01*
X-45588414Y8689601D01*
X-45590976Y8693509D01*
X-45765018Y8888506D01*
X-45965970Y9055637D01*
X-46017796Y9087086D01*
X-46185422Y9188804D01*
X-46185426Y9188806D01*
X-46189419Y9191229D01*
X-46430455Y9292303D01*
X-46683783Y9356641D01*
X-46688434Y9357109D01*
X-46688438Y9357110D01*
X-46897729Y9378184D01*
X-46900867Y9378500D01*
X-47056354Y9378500D01*
X-47058679Y9378327D01*
X-47058685Y9378327D01*
X-47246000Y9364407D01*
X-47246004Y9364406D01*
X-47250652Y9364061D01*
X-47255200Y9363032D01*
X-47255206Y9363031D01*
X-47441601Y9320853D01*
X-47505577Y9306377D01*
X-47509929Y9304685D01*
X-47509931Y9304684D01*
X-47744824Y9213340D01*
X-47744827Y9213339D01*
X-47749177Y9211647D01*
X-47976098Y9081951D01*
X-48181357Y8920138D01*
X-48360443Y8729763D01*
X-48509424Y8515009D01*
X-48625025Y8280593D01*
X-48626447Y8276150D01*
X-48626448Y8276148D01*
X-48674977Y8124542D01*
X-48704707Y8031665D01*
X-48746721Y7773693D01*
X-48747406Y7721331D01*
X-48749636Y7550975D01*
X-48750142Y7512345D01*
X-50291500Y7512345D01*
X-50291500Y12592345D01*
X-48750142Y12592345D01*
X-48714896Y12333362D01*
X-48713588Y12328876D01*
X-48713588Y12328874D01*
X-48699645Y12281039D01*
X-48641757Y12082433D01*
X-48532332Y11845072D01*
X-48529769Y11841163D01*
X-48391590Y11630404D01*
X-48391586Y11630399D01*
X-48389024Y11626491D01*
X-48214982Y11431494D01*
X-48014030Y11264363D01*
X-48010027Y11261934D01*
X-47794578Y11131196D01*
X-47794574Y11131194D01*
X-47790581Y11128771D01*
X-47549545Y11027697D01*
X-47296217Y10963359D01*
X-47291566Y10962891D01*
X-47291562Y10962890D01*
X-47098692Y10943469D01*
X-47079133Y10941500D01*
X-46923646Y10941500D01*
X-46921321Y10941673D01*
X-46921315Y10941673D01*
X-46734000Y10955593D01*
X-46733996Y10955594D01*
X-46729348Y10955939D01*
X-46724800Y10956968D01*
X-46724794Y10956969D01*
X-46538399Y10999147D01*
X-46474423Y11013623D01*
X-46438231Y11027697D01*
X-46235176Y11106660D01*
X-46235173Y11106661D01*
X-46230823Y11108353D01*
X-46003902Y11238049D01*
X-45798643Y11399862D01*
X-45619557Y11590237D01*
X-45470576Y11804991D01*
X-45354975Y12039407D01*
X-45300042Y12211017D01*
X-45276720Y12283877D01*
X-45275293Y12288335D01*
X-45233279Y12546307D01*
X-45229858Y12807655D01*
X-45265104Y13066638D01*
X-45279527Y13116123D01*
X-45336932Y13313068D01*
X-45338243Y13317567D01*
X-45447668Y13554928D01*
X-45545853Y13704685D01*
X-45588410Y13769596D01*
X-45588414Y13769601D01*
X-45590976Y13773509D01*
X-45765018Y13968506D01*
X-45965970Y14135637D01*
X-46013156Y14164270D01*
X-46185422Y14268804D01*
X-46185426Y14268806D01*
X-46189419Y14271229D01*
X-46430455Y14372303D01*
X-46683783Y14436641D01*
X-46688434Y14437109D01*
X-46688438Y14437110D01*
X-46897729Y14458184D01*
X-46900867Y14458500D01*
X-47056354Y14458500D01*
X-47058679Y14458327D01*
X-47058685Y14458327D01*
X-47246000Y14444407D01*
X-47246004Y14444406D01*
X-47250652Y14444061D01*
X-47255200Y14443032D01*
X-47255206Y14443031D01*
X-47441601Y14400853D01*
X-47505577Y14386377D01*
X-47509929Y14384685D01*
X-47509931Y14384684D01*
X-47744824Y14293340D01*
X-47744827Y14293339D01*
X-47749177Y14291647D01*
X-47976098Y14161951D01*
X-48181357Y14000138D01*
X-48360443Y13809763D01*
X-48509424Y13595009D01*
X-48511490Y13590819D01*
X-48511492Y13590816D01*
X-48581802Y13448240D01*
X-48625025Y13360593D01*
X-48704707Y13111665D01*
X-48746721Y12853693D01*
X-48750142Y12592345D01*
X-50291500Y12592345D01*
X-50291500Y17672345D01*
X-48750142Y17672345D01*
X-48714896Y17413362D01*
X-48713588Y17408876D01*
X-48713588Y17408874D01*
X-48693902Y17341336D01*
X-48641757Y17162433D01*
X-48639797Y17158180D01*
X-48639796Y17158179D01*
X-48620496Y17116315D01*
X-48532332Y16925072D01*
X-48525183Y16914168D01*
X-48391590Y16710404D01*
X-48391586Y16710399D01*
X-48389024Y16706491D01*
X-48214982Y16511494D01*
X-48014030Y16344363D01*
X-48010027Y16341934D01*
X-47794578Y16211196D01*
X-47794574Y16211194D01*
X-47790581Y16208771D01*
X-47549545Y16107697D01*
X-47296217Y16043359D01*
X-47291566Y16042891D01*
X-47291562Y16042890D01*
X-47098692Y16023469D01*
X-47079133Y16021500D01*
X-46923646Y16021500D01*
X-46921321Y16021673D01*
X-46921315Y16021673D01*
X-46734000Y16035593D01*
X-46733996Y16035594D01*
X-46729348Y16035939D01*
X-46724800Y16036968D01*
X-46724794Y16036969D01*
X-46538399Y16079147D01*
X-46474423Y16093623D01*
X-46438231Y16107697D01*
X-46235176Y16186660D01*
X-46235173Y16186661D01*
X-46230823Y16188353D01*
X-46003902Y16318049D01*
X-45798643Y16479862D01*
X-45619557Y16670237D01*
X-45510625Y16827261D01*
X-45473241Y16881149D01*
X-45473239Y16881152D01*
X-45470576Y16884991D01*
X-45457403Y16911703D01*
X-45357040Y17115219D01*
X-45357039Y17115222D01*
X-45354975Y17119407D01*
X-45348839Y17138574D01*
X-45309624Y17261082D01*
X-27173083Y17261082D01*
X-27157318Y16987680D01*
X-27156493Y16983475D01*
X-27156492Y16983467D01*
X-27136418Y16881149D01*
X-27104595Y16718947D01*
X-27103208Y16714897D01*
X-27103207Y16714892D01*
X-27022738Y16479862D01*
X-27015888Y16459856D01*
X-26892840Y16215201D01*
X-26890414Y16211672D01*
X-26890411Y16211666D01*
X-26759831Y16021673D01*
X-26737726Y15989510D01*
X-26734839Y15986337D01*
X-26734838Y15986336D01*
X-26713532Y15962921D01*
X-26553418Y15786957D01*
X-26343325Y15611293D01*
X-26339684Y15609009D01*
X-26114976Y15468049D01*
X-26114972Y15468047D01*
X-26111336Y15465766D01*
X-25999261Y15415162D01*
X-25865655Y15354836D01*
X-25865651Y15354834D01*
X-25861743Y15353070D01*
X-25798607Y15334368D01*
X-25603277Y15276509D01*
X-25603273Y15276508D01*
X-25599164Y15275291D01*
X-25594930Y15274643D01*
X-25594925Y15274642D01*
X-25332702Y15234517D01*
X-25332700Y15234517D01*
X-25328460Y15233868D01*
X-25189088Y15231678D01*
X-25058929Y15229633D01*
X-25058923Y15229633D01*
X-25054638Y15229566D01*
X-24782765Y15262466D01*
X-24517873Y15331959D01*
X-24513913Y15333599D01*
X-24513908Y15333601D01*
X-24300684Y15421922D01*
X-24264864Y15436759D01*
X-24146641Y15505843D01*
X-24032121Y15572763D01*
X-24032120Y15572764D01*
X-24028418Y15574927D01*
X-23812911Y15743906D01*
X-23771191Y15786957D01*
X-23625314Y15937491D01*
X-23622331Y15940569D01*
X-23619798Y15944017D01*
X-23619794Y15944022D01*
X-23462743Y16157822D01*
X-23460205Y16161277D01*
X-23458159Y16165045D01*
X-23331582Y16398170D01*
X-23331581Y16398172D01*
X-23329532Y16401946D01*
X-23262661Y16578915D01*
X-23234249Y16654105D01*
X-23234248Y16654109D01*
X-23232731Y16658123D01*
X-23192785Y16832536D01*
X-23172551Y16920883D01*
X-23172550Y16920887D01*
X-23171593Y16925067D01*
X-23170971Y16932028D01*
X-23147469Y17195373D01*
X-23147469Y17195375D01*
X-23147249Y17197839D01*
X-23146807Y17240000D01*
X-23148244Y17261082D01*
X-11933083Y17261082D01*
X-11917318Y16987680D01*
X-11916493Y16983475D01*
X-11916492Y16983467D01*
X-11896418Y16881149D01*
X-11864595Y16718947D01*
X-11863208Y16714897D01*
X-11863207Y16714892D01*
X-11782738Y16479862D01*
X-11775888Y16459856D01*
X-11652840Y16215201D01*
X-11650414Y16211672D01*
X-11650411Y16211666D01*
X-11519831Y16021673D01*
X-11497726Y15989510D01*
X-11494839Y15986337D01*
X-11494838Y15986336D01*
X-11473532Y15962921D01*
X-11313418Y15786957D01*
X-11103325Y15611293D01*
X-11099684Y15609009D01*
X-10874976Y15468049D01*
X-10874972Y15468047D01*
X-10871336Y15465766D01*
X-10759261Y15415162D01*
X-10625655Y15354836D01*
X-10625651Y15354834D01*
X-10621743Y15353070D01*
X-10558607Y15334368D01*
X-10363277Y15276509D01*
X-10363273Y15276508D01*
X-10359164Y15275291D01*
X-10354930Y15274643D01*
X-10354925Y15274642D01*
X-10092702Y15234517D01*
X-10092700Y15234517D01*
X-10088460Y15233868D01*
X-9949088Y15231678D01*
X-9818929Y15229633D01*
X-9818923Y15229633D01*
X-9814638Y15229566D01*
X-9542765Y15262466D01*
X-9277873Y15331959D01*
X-9273913Y15333599D01*
X-9273908Y15333601D01*
X-9060684Y15421922D01*
X-9024864Y15436759D01*
X-8906641Y15505843D01*
X-8792121Y15572763D01*
X-8792120Y15572764D01*
X-8788418Y15574927D01*
X-8572911Y15743906D01*
X-8531191Y15786957D01*
X-8385314Y15937491D01*
X-8382331Y15940569D01*
X-8379798Y15944017D01*
X-8379794Y15944022D01*
X-8222743Y16157822D01*
X-8220205Y16161277D01*
X-8218159Y16165045D01*
X-8091582Y16398170D01*
X-8091581Y16398172D01*
X-8089532Y16401946D01*
X-8022661Y16578915D01*
X-7994249Y16654105D01*
X-7994248Y16654109D01*
X-7992731Y16658123D01*
X-7952785Y16832536D01*
X-7932551Y16920883D01*
X-7932550Y16920887D01*
X-7931593Y16925067D01*
X-7930971Y16932028D01*
X-7907469Y17195373D01*
X-7907469Y17195375D01*
X-7907249Y17197839D01*
X-7906807Y17240000D01*
X-7924104Y17493733D01*
X-7925141Y17508945D01*
X-7925142Y17508951D01*
X-7925433Y17513222D01*
X-7980968Y17781388D01*
X-8072383Y18039535D01*
X-8197987Y18282888D01*
X-8207960Y18297079D01*
X-8276721Y18394916D01*
X-8355455Y18506943D01*
X-8478343Y18639186D01*
X-8538954Y18704412D01*
X-8538957Y18704415D01*
X-8541875Y18707555D01*
X-8545190Y18710269D01*
X-8545194Y18710272D01*
X-8715415Y18849596D01*
X-8753795Y18881010D01*
X-8987296Y19024099D01*
X-8991232Y19025827D01*
X-9234127Y19132451D01*
X-9234131Y19132452D01*
X-9238055Y19134175D01*
X-9501434Y19209200D01*
X-9505676Y19209804D01*
X-9505682Y19209805D01*
X-9747846Y19244270D01*
X-9772557Y19247787D01*
X-9916411Y19248540D01*
X-10042123Y19249198D01*
X-10042129Y19249198D01*
X-10046409Y19249220D01*
X-10050653Y19248661D01*
X-10050657Y19248661D01*
X-10169698Y19232989D01*
X-10317922Y19213475D01*
X-10322062Y19212342D01*
X-10322064Y19212342D01*
X-10344950Y19206081D01*
X-10582072Y19141212D01*
X-10586020Y19139528D01*
X-10830018Y19035454D01*
X-10830022Y19035452D01*
X-10833970Y19033768D01*
X-10928427Y18977237D01*
X-11065275Y18895336D01*
X-11065279Y18895333D01*
X-11068957Y18893132D01*
X-11282682Y18721906D01*
X-11471192Y18523258D01*
X-11630998Y18300864D01*
X-11759143Y18058839D01*
X-11760615Y18054816D01*
X-11760617Y18054812D01*
X-11820092Y17892289D01*
X-11853257Y17801663D01*
X-11911596Y17534093D01*
X-11933083Y17261082D01*
X-23148244Y17261082D01*
X-23164104Y17493733D01*
X-23165141Y17508945D01*
X-23165142Y17508951D01*
X-23165433Y17513222D01*
X-23220968Y17781388D01*
X-23312383Y18039535D01*
X-23437987Y18282888D01*
X-23447960Y18297079D01*
X-23516721Y18394916D01*
X-23595455Y18506943D01*
X-23718343Y18639186D01*
X-23778954Y18704412D01*
X-23778957Y18704415D01*
X-23781875Y18707555D01*
X-23785190Y18710269D01*
X-23785194Y18710272D01*
X-23955415Y18849596D01*
X-23993795Y18881010D01*
X-24227296Y19024099D01*
X-24231232Y19025827D01*
X-24474127Y19132451D01*
X-24474131Y19132452D01*
X-24478055Y19134175D01*
X-24741434Y19209200D01*
X-24745676Y19209804D01*
X-24745682Y19209805D01*
X-24987846Y19244270D01*
X-25012557Y19247787D01*
X-25156411Y19248540D01*
X-25282123Y19249198D01*
X-25282129Y19249198D01*
X-25286409Y19249220D01*
X-25290653Y19248661D01*
X-25290657Y19248661D01*
X-25409698Y19232989D01*
X-25557922Y19213475D01*
X-25562062Y19212342D01*
X-25562064Y19212342D01*
X-25584950Y19206081D01*
X-25822072Y19141212D01*
X-25826020Y19139528D01*
X-26070018Y19035454D01*
X-26070022Y19035452D01*
X-26073970Y19033768D01*
X-26168427Y18977237D01*
X-26305275Y18895336D01*
X-26305279Y18895333D01*
X-26308957Y18893132D01*
X-26522682Y18721906D01*
X-26711192Y18523258D01*
X-26870998Y18300864D01*
X-26999143Y18058839D01*
X-27000615Y18054816D01*
X-27000617Y18054812D01*
X-27060092Y17892289D01*
X-27093257Y17801663D01*
X-27151596Y17534093D01*
X-27173083Y17261082D01*
X-45309624Y17261082D01*
X-45276720Y17363877D01*
X-45275293Y17368335D01*
X-45233279Y17626307D01*
X-45229858Y17887655D01*
X-45265104Y18146638D01*
X-45279527Y18196123D01*
X-45305839Y18286393D01*
X-45338243Y18397567D01*
X-45447668Y18634928D01*
X-45579000Y18835243D01*
X-45588410Y18849596D01*
X-45588414Y18849601D01*
X-45590976Y18853509D01*
X-45765018Y19048506D01*
X-45965970Y19215637D01*
X-46035433Y19257788D01*
X-46185422Y19348804D01*
X-46185426Y19348806D01*
X-46189419Y19351229D01*
X-46430455Y19452303D01*
X-46683783Y19516641D01*
X-46688434Y19517109D01*
X-46688438Y19517110D01*
X-46897729Y19538184D01*
X-46900867Y19538500D01*
X-47056354Y19538500D01*
X-47058679Y19538327D01*
X-47058685Y19538327D01*
X-47246000Y19524407D01*
X-47246004Y19524406D01*
X-47250652Y19524061D01*
X-47255200Y19523032D01*
X-47255206Y19523031D01*
X-47441601Y19480853D01*
X-47505577Y19466377D01*
X-47509929Y19464685D01*
X-47509931Y19464684D01*
X-47744824Y19373340D01*
X-47744827Y19373339D01*
X-47749177Y19371647D01*
X-47753231Y19369330D01*
X-47753233Y19369329D01*
X-47772825Y19358131D01*
X-47976098Y19241951D01*
X-48181357Y19080138D01*
X-48360443Y18889763D01*
X-48509424Y18675009D01*
X-48511490Y18670819D01*
X-48511492Y18670816D01*
X-48594033Y18503438D01*
X-48625025Y18440593D01*
X-48626447Y18436150D01*
X-48626448Y18436148D01*
X-48676725Y18279081D01*
X-48704707Y18191665D01*
X-48746721Y17933693D01*
X-48746782Y17929020D01*
X-48749236Y17741525D01*
X-48750142Y17672345D01*
X-50291500Y17672345D01*
X-50291500Y21540633D01*
X-50290000Y21560018D01*
X-50287690Y21574852D01*
X-50287690Y21574855D01*
X-50286309Y21583724D01*
X-50287750Y21594746D01*
X-50288207Y21623435D01*
X-50287541Y21630191D01*
X-50278084Y21726213D01*
X-50273265Y21750439D01*
X-50237137Y21869537D01*
X-50227685Y21892357D01*
X-50169011Y22002128D01*
X-50155295Y22022655D01*
X-50076329Y22118876D01*
X-50058876Y22136329D01*
X-49962655Y22215295D01*
X-49942128Y22229011D01*
X-49832356Y22287686D01*
X-49809547Y22297134D01*
X-49690433Y22333267D01*
X-49666212Y22338084D01*
X-49570191Y22347541D01*
X-49554132Y22347091D01*
X-49554123Y22347800D01*
X-49545147Y22347690D01*
X-49536276Y22346309D01*
X-49527374Y22347473D01*
X-49527372Y22347473D01*
X-49510941Y22349622D01*
X-49504714Y22350436D01*
X-49488379Y22351500D01*
X3125633Y22351500D01*
X3145018Y22350000D01*
G37*
%TD.AperFunction*%
%TD*%
M02*
