M48
; DRILL file {KiCad 6.0.11-2627ca5db0~126~ubuntu22.04.1} date Sun 24 Mar 2024 01:09:02 PM PDT
; FORMAT={-:-/ absolute / inch / decimal}
; #@! TF.CreationDate,2024-03-24T13:09:02-07:00
; #@! TF.GenerationSoftware,Kicad,Pcbnew,6.0.11-2627ca5db0~126~ubuntu22.04.1
; #@! TF.FileFunction,Plated,1,2,PTH
FMAT,2
INCH
; #@! TA.AperFunction,Plated,PTH,ViaDrill
T1C0.0157
; #@! TA.AperFunction,Plated,PTH,ComponentDrill
T2C0.0280
; #@! TA.AperFunction,Plated,PTH,ComponentDrill
T3C0.0300
; #@! TA.AperFunction,Plated,PTH,ComponentDrill
T4C0.0315
; #@! TA.AperFunction,Plated,PTH,ComponentDrill
T5C0.0394
; #@! TA.AperFunction,Plated,PTH,ComponentDrill
T6C0.0510
; #@! TA.AperFunction,Plated,PTH,ComponentDrill
T7C0.0870
%
G90
G05
T1
X-0.425Y-0.225
X-0.275Y0.0
X-0.075Y0.0
X-0.075Y0.0
T2
X-1.5386Y0.6299
X-1.4386Y0.6299
X-1.3386Y0.6299
T3
X-0.9906Y0.0787
X-0.97Y0.259
X-0.9693Y-0.3394
X-0.8906Y0.0787
X-0.8693Y0.2606
X-0.8693Y-0.3394
X-0.7906Y0.0787
X-0.7693Y0.2606
X-0.7693Y-0.3394
X-0.6906Y0.0787
X-0.6717Y0.2602
X-0.6693Y-0.3394
X-0.5906Y0.0787
X-0.5693Y0.2606
X-0.5693Y-0.3394
X-0.4906Y0.0787
X-0.4693Y0.2606
X-0.4693Y-0.3394
X-0.3906Y0.0787
X-0.3693Y0.2606
X-0.3693Y-0.3394
T4
X-1.625Y0.1
X-1.625Y-0.3
X-1.5Y0.1
X-1.5Y-0.3
X-1.375Y0.1
X-1.375Y-0.3
X-1.25Y0.1
X-1.25Y-0.3
T5
X-1.6256Y0.225
X-1.5256Y0.225
X-1.4256Y0.225
X-0.15Y-0.325
X-0.1394Y0.7087
X-0.05Y-0.325
X-0.0394Y0.7087
T6
X-0.1024Y0.2953
X-0.1024Y0.0984
X0.0Y0.3937
X0.0Y0.1969
X0.0Y0.0
T7
X-0.1024Y0.5197
X-0.1024Y-0.126
T0
M30
