%TF.GenerationSoftware,KiCad,Pcbnew,6.0.10-86aedd382b~118~ubuntu22.04.1*%
%TF.CreationDate,2023-03-14T18:40:59-07:00*%
%TF.ProjectId,baro-temp-qwiic,6261726f-2d74-4656-9d70-2d7177696963,rev?*%
%TF.SameCoordinates,Original*%
%TF.FileFunction,Drillmap*%
%TF.FilePolarity,Positive*%
%FSLAX45Y45*%
G04 Gerber Fmt 4.5, Leading zero omitted, Abs format (unit mm)*
G04 Created by KiCad (PCBNEW 6.0.10-86aedd382b~118~ubuntu22.04.1) date 2023-03-14 18:40:59*
%MOMM*%
%LPD*%
G01*
G04 APERTURE LIST*
%ADD10C,0.100000*%
%ADD11C,0.200000*%
G04 APERTURE END LIST*
D10*
X408032Y2167012D02*
G75*
G03*
X-408032Y2167012I-408032J-2507010D01*
G01*
X-408032Y2167012D02*
G75*
G03*
X-450000Y2117662I8032J-49351D01*
G01*
X400000Y700000D02*
G75*
G03*
X450000Y750000I0J50000D01*
G01*
X-400000Y700000D02*
X400000Y700000D01*
X-450000Y750000D02*
G75*
G03*
X-400000Y700000I50000J0D01*
G01*
X-450000Y2117662D02*
X-450000Y750000D01*
X450000Y750000D02*
X450000Y2117662D01*
X450001Y2117662D02*
G75*
G03*
X408032Y2167012I-50001J-2D01*
G01*
D11*
X-197381Y384524D02*
X-197381Y584524D01*
X-149762Y584524D01*
X-121190Y575000D01*
X-102143Y555952D01*
X-92619Y536905D01*
X-83095Y498809D01*
X-83095Y470238D01*
X-92619Y432143D01*
X-102143Y413095D01*
X-121190Y394048D01*
X-149762Y384524D01*
X-197381Y384524D01*
X2619Y384524D02*
X2619Y517857D01*
X2619Y479762D02*
X12143Y498809D01*
X21667Y508333D01*
X40714Y517857D01*
X59762Y517857D01*
X126428Y384524D02*
X126428Y517857D01*
X126428Y584524D02*
X116905Y575000D01*
X126428Y565476D01*
X135952Y575000D01*
X126428Y584524D01*
X126428Y565476D01*
X250238Y384524D02*
X231190Y394048D01*
X221667Y413095D01*
X221667Y584524D01*
X355000Y384524D02*
X335952Y394048D01*
X326429Y413095D01*
X326429Y584524D01*
X583571Y384524D02*
X583571Y584524D01*
X650238Y441667D01*
X716905Y584524D01*
X716905Y384524D01*
X897857Y384524D02*
X897857Y489286D01*
X888333Y508333D01*
X869286Y517857D01*
X831190Y517857D01*
X812143Y508333D01*
X897857Y394048D02*
X878809Y384524D01*
X831190Y384524D01*
X812143Y394048D01*
X802619Y413095D01*
X802619Y432143D01*
X812143Y451190D01*
X831190Y460714D01*
X878809Y460714D01*
X897857Y470238D01*
X993095Y517857D02*
X993095Y317857D01*
X993095Y508333D02*
X1012143Y517857D01*
X1050238Y517857D01*
X1069286Y508333D01*
X1078810Y498809D01*
X1088333Y479762D01*
X1088333Y422619D01*
X1078810Y403571D01*
X1069286Y394048D01*
X1050238Y384524D01*
X1012143Y384524D01*
X993095Y394048D01*
X1174048Y403571D02*
X1183571Y394048D01*
X1174048Y384524D01*
X1164524Y394048D01*
X1174048Y403571D01*
X1174048Y384524D01*
X1174048Y508333D02*
X1183571Y498809D01*
X1174048Y489286D01*
X1164524Y498809D01*
X1174048Y508333D01*
X1174048Y489286D01*
M02*
