%TF.GenerationSoftware,KiCad,Pcbnew,6.0.10-86aedd382b~118~ubuntu22.04.1*%
%TF.CreationDate,2023-03-14T18:40:51-07:00*%
%TF.ProjectId,baro-temp-qwiic,6261726f-2d74-4656-9d70-2d7177696963,rev?*%
%TF.SameCoordinates,Original*%
%TF.FileFunction,Copper,L2,Bot*%
%TF.FilePolarity,Positive*%
%FSLAX46Y46*%
G04 Gerber Fmt 4.6, Leading zero omitted, Abs format (unit mm)*
G04 Created by KiCad (PCBNEW 6.0.10-86aedd382b~118~ubuntu22.04.1) date 2023-03-14 18:40:51*
%MOMM*%
%LPD*%
G01*
G04 APERTURE LIST*
G04 Aperture macros list*
%AMRoundRect*
0 Rectangle with rounded corners*
0 $1 Rounding radius*
0 $2 $3 $4 $5 $6 $7 $8 $9 X,Y pos of 4 corners*
0 Add a 4 corners polygon primitive as box body*
4,1,4,$2,$3,$4,$5,$6,$7,$8,$9,$2,$3,0*
0 Add four circle primitives for the rounded corners*
1,1,$1+$1,$2,$3*
1,1,$1+$1,$4,$5*
1,1,$1+$1,$6,$7*
1,1,$1+$1,$8,$9*
0 Add four rect primitives between the rounded corners*
20,1,$1+$1,$2,$3,$4,$5,0*
20,1,$1+$1,$4,$5,$6,$7,0*
20,1,$1+$1,$6,$7,$8,$9,0*
20,1,$1+$1,$8,$9,$2,$3,0*%
G04 Aperture macros list end*
%TA.AperFunction,SMDPad,CuDef*%
%ADD10RoundRect,0.225000X-0.225000X-0.250000X0.225000X-0.250000X0.225000X0.250000X-0.225000X0.250000X0*%
%TD*%
%TA.AperFunction,SMDPad,CuDef*%
%ADD11R,0.340000X0.700000*%
%TD*%
%TA.AperFunction,SMDPad,CuDef*%
%ADD12RoundRect,0.225000X-0.250000X0.225000X-0.250000X-0.225000X0.250000X-0.225000X0.250000X0.225000X0*%
%TD*%
%TA.AperFunction,SMDPad,CuDef*%
%ADD13RoundRect,0.007000X-0.168000X0.183000X-0.168000X-0.183000X0.168000X-0.183000X0.168000X0.183000X0*%
%TD*%
%TA.AperFunction,ViaPad*%
%ADD14C,0.800000*%
%TD*%
%TA.AperFunction,Conductor*%
%ADD15C,0.500000*%
%TD*%
%TA.AperFunction,Conductor*%
%ADD16C,0.250000*%
%TD*%
G04 APERTURE END LIST*
D10*
%TO.P,C3,1*%
%TO.N,+3V3*%
X-775000Y18250000D03*
%TO.P,C3,2*%
%TO.N,GND*%
X775000Y18250000D03*
%TD*%
D11*
%TO.P,U2,1,SCL*%
%TO.N,/SCL*%
X-500000Y21250000D03*
%TO.P,U2,2,GND*%
%TO.N,GND*%
X0Y21250000D03*
%TO.P,U2,3,ALERT*%
%TO.N,unconnected-(U2-Pad3)*%
X500000Y21250000D03*
%TO.P,U2,4,ADD0*%
%TO.N,GND*%
X500000Y19750000D03*
%TO.P,U2,5,V+*%
%TO.N,+3V3*%
X0Y19750000D03*
%TO.P,U2,6,SDA*%
%TO.N,/SDA*%
X-500000Y19750000D03*
%TD*%
D12*
%TO.P,C1,1*%
%TO.N,+3V3*%
X734808Y11275000D03*
%TO.P,C1,2*%
%TO.N,GND*%
X734808Y9725000D03*
%TD*%
D13*
%TO.P,U1,1,VDDIO*%
%TO.N,+3V3*%
X-780192Y13000000D03*
%TO.P,U1,2,SCK*%
%TO.N,/SCL*%
X-780192Y13500000D03*
%TO.P,U1,3,VSS*%
%TO.N,GND*%
X-515192Y14015000D03*
%TO.P,U1,4,SDI*%
%TO.N,/SDA*%
X-15192Y14015000D03*
%TO.P,U1,5,SDO*%
%TO.N,GND*%
X484808Y14015000D03*
%TO.P,U1,6,CSB*%
%TO.N,+3V3*%
X749808Y13500000D03*
%TO.P,U1,7,INT*%
%TO.N,unconnected-(U1-Pad7)*%
X749808Y13000000D03*
%TO.P,U1,8,VSS*%
%TO.N,GND*%
X484808Y12485000D03*
%TO.P,U1,9,VSS*%
X-15192Y12485000D03*
%TO.P,U1,10,VDD*%
%TO.N,+3V3*%
X-515192Y12485000D03*
%TD*%
D12*
%TO.P,C2,1*%
%TO.N,+3V3*%
X-765192Y11275000D03*
%TO.P,C2,2*%
%TO.N,GND*%
X-765192Y9725000D03*
%TD*%
D14*
%TO.N,GND*%
X-2200000Y19500000D03*
X-2250000Y15000000D03*
%TO.N,+3V3*%
X-3500000Y11500000D03*
X-1575500Y17586752D03*
%TO.N,GND*%
X-3500000Y20500000D03*
X-3500000Y8500000D03*
X3500000Y16500000D03*
X-2500000Y12500000D03*
X3500000Y8500000D03*
X2000000Y14500000D03*
X3500000Y20500000D03*
X0Y16500000D03*
%TO.N,/SDA*%
X3000000Y12500000D03*
%TO.N,/SCL*%
X-2500000Y13500000D03*
%TD*%
D15*
%TO.N,+3V3*%
X-1575500Y17586752D02*
X-912252Y18250000D01*
X-912252Y18250000D02*
X-775000Y18250000D01*
D16*
%TO.N,/SDA*%
X-500000Y19750000D02*
X-777817Y19750000D01*
X-777817Y19750000D02*
X-1800305Y18727512D01*
X-1800305Y18727512D02*
X-1800305Y18725000D01*
X-1800305Y18725000D02*
X-2250000Y18275305D01*
X-2250000Y18275305D02*
X-2250000Y17219616D01*
X-2250000Y17219616D02*
X-15192Y14984808D01*
%TO.N,/SCL*%
X-500000Y21250000D02*
X-1500000Y21250000D01*
X-1500000Y21250000D02*
X-3250000Y19500000D01*
X-3250000Y19500000D02*
X-3250000Y14250000D01*
X-3250000Y14250000D02*
X-2500000Y13500000D01*
%TO.N,+3V3*%
X-780192Y13000000D02*
X-780192Y12750000D01*
D15*
X-765192Y11275000D02*
X734808Y11275000D01*
D16*
X0Y19750000D02*
X0Y19080000D01*
X-780192Y12750000D02*
X-515192Y12485000D01*
X250000Y13500000D02*
X749808Y13500000D01*
X0Y19080000D02*
X-580000Y18500000D01*
D15*
X-990192Y11500000D02*
X-765192Y11275000D01*
D16*
X-515192Y11525000D02*
X-765192Y11275000D01*
X-515192Y12485000D02*
X-515192Y11525000D01*
X-515192Y12485000D02*
X-515192Y12734808D01*
D15*
X-3500000Y11500000D02*
X-990192Y11500000D01*
D16*
X-515192Y12734808D02*
X250000Y13500000D01*
%TO.N,GND*%
X0Y21250000D02*
X0Y20580000D01*
X500000Y19750000D02*
X500000Y18775000D01*
X500000Y18775000D02*
X775000Y18500000D01*
X5000Y20575000D02*
X500000Y20575000D01*
X500000Y19750000D02*
X500000Y20575000D01*
X0Y20580000D02*
X5000Y20575000D01*
%TO.N,/SDA*%
X-15192Y14984808D02*
X-15192Y14015000D01*
X3000000Y15000000D02*
X2500000Y15500000D01*
X500000Y15500000D02*
X-15192Y14984808D01*
X3000000Y12500000D02*
X3000000Y15000000D01*
X2500000Y15500000D02*
X500000Y15500000D01*
%TO.N,/SCL*%
X-780192Y13500000D02*
X-2500000Y13500000D01*
%TD*%
%TA.AperFunction,Conductor*%
%TO.N,GND*%
G36*
X1355934Y21813042D02*
G01*
X1358583Y21812900D01*
X2084882Y21760730D01*
X2258884Y21748231D01*
X2261522Y21747993D01*
X3158904Y21651096D01*
X3161485Y21650770D01*
X3845917Y21551934D01*
X4027446Y21525720D01*
X4045360Y21520506D01*
X4046409Y21520335D01*
X4055292Y21516335D01*
X4064985Y21517312D01*
X4069932Y21516507D01*
X4080073Y21514113D01*
X4139867Y21495467D01*
X4158647Y21486553D01*
X4216015Y21448624D01*
X4223044Y21443977D01*
X4238604Y21430189D01*
X4288618Y21371380D01*
X4299729Y21353806D01*
X4331408Y21283409D01*
X4337192Y21263439D01*
X4345978Y21201527D01*
X4346712Y21191132D01*
X4346712Y21186020D01*
X4344191Y21176610D01*
X4346978Y21166211D01*
X4349500Y21147056D01*
X4349500Y7529557D01*
X4346979Y7510406D01*
X4344191Y7500000D01*
X4346713Y7490589D01*
X4346713Y7483682D01*
X4346080Y7474020D01*
X4338862Y7419199D01*
X4333862Y7400541D01*
X4306404Y7334251D01*
X4296748Y7317524D01*
X4253060Y7260589D01*
X4239411Y7246940D01*
X4182476Y7203252D01*
X4165749Y7193596D01*
X4099459Y7166138D01*
X4080801Y7161138D01*
X4051756Y7157314D01*
X4025976Y7153920D01*
X4016318Y7153287D01*
X4009411Y7153287D01*
X4000000Y7155809D01*
X3990591Y7153288D01*
X3990429Y7153244D01*
X3989594Y7153021D01*
X3970443Y7150500D01*
X-3970443Y7150500D01*
X-3989594Y7153021D01*
X-3990429Y7153244D01*
X-3990591Y7153288D01*
X-4000000Y7155809D01*
X-4009411Y7153287D01*
X-4016318Y7153287D01*
X-4025976Y7153920D01*
X-4051756Y7157314D01*
X-4080801Y7161138D01*
X-4099459Y7166138D01*
X-4165749Y7193596D01*
X-4182476Y7203252D01*
X-4239411Y7246940D01*
X-4253060Y7260589D01*
X-4296748Y7317524D01*
X-4306404Y7334251D01*
X-4333862Y7400541D01*
X-4338862Y7419199D01*
X-4346080Y7474020D01*
X-4346713Y7483682D01*
X-4346713Y7490589D01*
X-4344191Y7500000D01*
X-4346979Y7510406D01*
X-4349500Y7529557D01*
X-4349500Y9466197D01*
X-1390122Y9466197D01*
X-1389799Y9461788D01*
X-1380179Y9396436D01*
X-1376810Y9385592D01*
X-1327016Y9284174D01*
X-1319993Y9274366D01*
X-1240293Y9194804D01*
X-1230475Y9187801D01*
X-1128966Y9138182D01*
X-1118122Y9134831D01*
X-1053387Y9125387D01*
X-1048053Y9125000D01*
X-1028240Y9125000D01*
X-1018244Y9128638D01*
X-1015192Y9133925D01*
X-1015192Y9138048D01*
X-515192Y9138048D01*
X-511554Y9128052D01*
X-506267Y9125000D01*
X-482349Y9125000D01*
X-476980Y9125393D01*
X-411628Y9135013D01*
X-400784Y9138382D01*
X-299366Y9188176D01*
X-289558Y9195199D01*
X-209996Y9274899D01*
X-202993Y9284717D01*
X-153374Y9386226D01*
X-150023Y9397070D01*
X-140579Y9461805D01*
X-140506Y9462814D01*
X-141737Y9466197D01*
X109878Y9466197D01*
X110201Y9461788D01*
X119821Y9396436D01*
X123190Y9385592D01*
X172984Y9284174D01*
X180007Y9274366D01*
X259707Y9194804D01*
X269525Y9187801D01*
X371034Y9138182D01*
X381878Y9134831D01*
X446613Y9125387D01*
X451947Y9125000D01*
X471760Y9125000D01*
X481756Y9128638D01*
X484808Y9133925D01*
X484808Y9138048D01*
X984808Y9138048D01*
X988446Y9128052D01*
X993733Y9125000D01*
X1017651Y9125000D01*
X1023020Y9125393D01*
X1088372Y9135013D01*
X1099216Y9138382D01*
X1200634Y9188176D01*
X1210442Y9195199D01*
X1290004Y9274899D01*
X1297007Y9284717D01*
X1346626Y9386226D01*
X1349977Y9397070D01*
X1359421Y9461805D01*
X1359494Y9462814D01*
X1356170Y9471948D01*
X1350883Y9475000D01*
X997856Y9475000D01*
X987860Y9471362D01*
X984808Y9466075D01*
X984808Y9138048D01*
X484808Y9138048D01*
X484808Y9461952D01*
X481170Y9471948D01*
X475883Y9475000D01*
X122856Y9475000D01*
X112860Y9471362D01*
X109878Y9466197D01*
X-141737Y9466197D01*
X-143830Y9471948D01*
X-149117Y9475000D01*
X-502144Y9475000D01*
X-512140Y9471362D01*
X-515192Y9466075D01*
X-515192Y9138048D01*
X-1015192Y9138048D01*
X-1015192Y9461952D01*
X-1018830Y9471948D01*
X-1024117Y9475000D01*
X-1377144Y9475000D01*
X-1387140Y9471362D01*
X-1390122Y9466197D01*
X-4349500Y9466197D01*
X-4349500Y9987186D01*
X-1389878Y9987186D01*
X-1386554Y9978052D01*
X-1381267Y9975000D01*
X-1028240Y9975000D01*
X-1018244Y9978638D01*
X-1015192Y9983925D01*
X-1015192Y9988048D01*
X-515192Y9988048D01*
X-511554Y9978052D01*
X-506267Y9975000D01*
X-153240Y9975000D01*
X-143244Y9978638D01*
X-140262Y9983803D01*
X-140510Y9987186D01*
X110122Y9987186D01*
X113446Y9978052D01*
X118733Y9975000D01*
X471760Y9975000D01*
X481756Y9978638D01*
X484808Y9983925D01*
X484808Y9988048D01*
X984808Y9988048D01*
X988446Y9978052D01*
X993733Y9975000D01*
X1346760Y9975000D01*
X1356756Y9978638D01*
X1359738Y9983803D01*
X1359415Y9988212D01*
X1349795Y10053564D01*
X1346426Y10064408D01*
X1296632Y10165826D01*
X1289609Y10175634D01*
X1209909Y10255196D01*
X1200091Y10262199D01*
X1098582Y10311818D01*
X1087738Y10315169D01*
X1023003Y10324613D01*
X1017669Y10325000D01*
X997856Y10325000D01*
X987860Y10321362D01*
X984808Y10316075D01*
X984808Y9988048D01*
X484808Y9988048D01*
X484808Y10311952D01*
X481170Y10321948D01*
X475883Y10325000D01*
X451965Y10325000D01*
X446596Y10324607D01*
X381244Y10314987D01*
X370400Y10311618D01*
X268982Y10261824D01*
X259174Y10254801D01*
X179612Y10175101D01*
X172609Y10165283D01*
X122990Y10063774D01*
X119639Y10052930D01*
X110195Y9988195D01*
X110122Y9987186D01*
X-140510Y9987186D01*
X-140585Y9988212D01*
X-150205Y10053564D01*
X-153574Y10064408D01*
X-203368Y10165826D01*
X-210391Y10175634D01*
X-290091Y10255196D01*
X-299909Y10262199D01*
X-401418Y10311818D01*
X-412262Y10315169D01*
X-476997Y10324613D01*
X-482331Y10325000D01*
X-502144Y10325000D01*
X-512140Y10321362D01*
X-515192Y10316075D01*
X-515192Y9988048D01*
X-1015192Y9988048D01*
X-1015192Y10311952D01*
X-1018830Y10321948D01*
X-1024117Y10325000D01*
X-1048035Y10325000D01*
X-1053404Y10324607D01*
X-1118756Y10314987D01*
X-1129600Y10311618D01*
X-1231018Y10261824D01*
X-1240826Y10254801D01*
X-1320388Y10175101D01*
X-1327391Y10165283D01*
X-1377010Y10063774D01*
X-1380361Y10052930D01*
X-1389805Y9988195D01*
X-1389878Y9987186D01*
X-4349500Y9987186D01*
X-4349500Y21147058D01*
X-4346979Y21166211D01*
X-4346713Y21167201D01*
X-4344191Y21176615D01*
X-4346712Y21186024D01*
X-4346712Y21191043D01*
X-4345978Y21201439D01*
X-4345965Y21201527D01*
X-4337181Y21263439D01*
X-4331398Y21283409D01*
X-4299720Y21353808D01*
X-4288609Y21371381D01*
X-4238598Y21430190D01*
X-4223038Y21443979D01*
X-4209886Y21452674D01*
X-4158647Y21486551D01*
X-4139866Y21495468D01*
X-4107812Y21505464D01*
X-4082817Y21513258D01*
X-4069813Y21514905D01*
X-4060640Y21516875D01*
X-4055292Y21516336D01*
X-4055291Y21516336D01*
X-4047255Y21519955D01*
X-4027451Y21525720D01*
X-3161485Y21650770D01*
X-3158904Y21651096D01*
X-2261522Y21747993D01*
X-2258884Y21748231D01*
X-2084882Y21760730D01*
X-1358583Y21812900D01*
X-1355934Y21813042D01*
X-834509Y21831745D01*
X-786352Y21816149D01*
X-759488Y21773247D01*
X-766485Y21723114D01*
X-776095Y21710113D01*
X-778504Y21708504D01*
X-811767Y21658722D01*
X-813188Y21651576D01*
X-813189Y21651575D01*
X-813877Y21648116D01*
X-820500Y21614820D01*
X-820500Y21599500D01*
X-837813Y21551934D01*
X-881650Y21526624D01*
X-894500Y21525500D01*
X-1465580Y21525500D01*
X-1480016Y21526922D01*
X-1492851Y21529475D01*
X-1500000Y21530897D01*
X-1527132Y21525500D01*
X-1527135Y21525500D01*
X-1562629Y21518439D01*
X-1607495Y21509515D01*
X-1633194Y21492343D01*
X-1675622Y21463994D01*
X-1675623Y21463993D01*
X-1698624Y21448624D01*
X-1709154Y21432864D01*
X-1709942Y21431685D01*
X-1719145Y21420471D01*
X-3420471Y19719145D01*
X-3431682Y19709944D01*
X-3448624Y19698624D01*
X-3509515Y19607495D01*
X-3509515Y19607494D01*
X-3511941Y19595296D01*
X-3511942Y19595295D01*
X-3529475Y19507149D01*
X-3530897Y19500000D01*
X-3529475Y19492851D01*
X-3526922Y19480017D01*
X-3525500Y19465580D01*
X-3525500Y14284420D01*
X-3526922Y14269984D01*
X-3530897Y14250000D01*
X-3529475Y14242851D01*
X-3525500Y14222868D01*
X-3525500Y14222867D01*
X-3518962Y14190000D01*
X-3509515Y14142505D01*
X-3448624Y14051376D01*
X-3431682Y14040056D01*
X-3420471Y14030855D01*
X-3061785Y13672169D01*
X-3040393Y13626293D01*
X-3040744Y13610184D01*
X-3055250Y13500000D01*
X-3036330Y13356291D01*
X-2980861Y13222375D01*
X-2892621Y13107379D01*
X-2777625Y13019139D01*
X-2643709Y12963670D01*
X-2638901Y12963037D01*
X-2571855Y12954210D01*
X-2500000Y12944750D01*
X-2495192Y12945383D01*
X-2361099Y12963037D01*
X-2356291Y12963670D01*
X-2222375Y13019139D01*
X-2107379Y13107379D01*
X-2039723Y13195550D01*
X-1997032Y13222746D01*
X-1981016Y13224500D01*
X-1179692Y13224500D01*
X-1132126Y13207187D01*
X-1106816Y13163350D01*
X-1105692Y13150500D01*
X-1105692Y12801486D01*
X-1096554Y12755546D01*
X-1065670Y12709326D01*
X-1061743Y12703449D01*
X-1062322Y12703062D01*
X-1045488Y12671568D01*
X-1039707Y12642505D01*
X-1017761Y12609661D01*
X-1006290Y12592494D01*
X-978816Y12551376D01*
X-961874Y12540056D01*
X-950663Y12530855D01*
X-862366Y12442558D01*
X-840974Y12396682D01*
X-840692Y12390232D01*
X-840692Y12286486D01*
X-831554Y12240546D01*
X-827503Y12234484D01*
X-827503Y12234483D01*
X-803164Y12198058D01*
X-790692Y12156945D01*
X-790692Y11960537D01*
X-808005Y11912971D01*
X-851842Y11887661D01*
X-876266Y11887448D01*
X-890659Y11889728D01*
X-901946Y11892438D01*
X-921218Y11898700D01*
X-921221Y11898700D01*
X-926759Y11900500D01*
X-3092528Y11900500D01*
X-3137575Y11915791D01*
X-3222375Y11980861D01*
X-3356291Y12036330D01*
X-3500000Y12055250D01*
X-3643709Y12036330D01*
X-3777625Y11980861D01*
X-3892621Y11892621D01*
X-3980861Y11777625D01*
X-4036330Y11643709D01*
X-4055250Y11500000D01*
X-4036330Y11356291D01*
X-3980861Y11222375D01*
X-3892621Y11107379D01*
X-3777625Y11019139D01*
X-3643709Y10963670D01*
X-3500000Y10944750D01*
X-3495192Y10945383D01*
X-3361099Y10963037D01*
X-3356291Y10963670D01*
X-3222375Y11019139D01*
X-3137575Y11084209D01*
X-3092528Y11099500D01*
X-1464692Y11099500D01*
X-1417126Y11082187D01*
X-1391816Y11038350D01*
X-1390692Y11025500D01*
X-1390692Y11014410D01*
X-1379827Y10940604D01*
X-1324733Y10828390D01*
X-1236261Y10740073D01*
X-1164158Y10704828D01*
X-1129111Y10687696D01*
X-1129109Y10687695D01*
X-1123951Y10685174D01*
X-1050782Y10674500D01*
X-479602Y10674500D01*
X-405796Y10685365D01*
X-293582Y10740459D01*
X-205265Y10828931D01*
X-202579Y10834426D01*
X-199028Y10839404D01*
X-197650Y10838421D01*
X-166835Y10868129D01*
X-136795Y10874500D01*
X106522Y10874500D01*
X154088Y10857187D01*
X168651Y10838597D01*
X169010Y10838854D01*
X172573Y10833878D01*
X175267Y10828390D01*
X179594Y10824071D01*
X179595Y10824069D01*
X219564Y10784171D01*
X263739Y10740073D01*
X335842Y10704828D01*
X370889Y10687696D01*
X370891Y10687695D01*
X376049Y10685174D01*
X449218Y10674500D01*
X1020398Y10674500D01*
X1094204Y10685365D01*
X1206418Y10740459D01*
X1294735Y10828931D01*
X1349634Y10941241D01*
X1356643Y10989288D01*
X1359921Y11011757D01*
X1360308Y11014410D01*
X1360308Y11535590D01*
X1349443Y11609396D01*
X1294349Y11721610D01*
X1205877Y11809927D01*
X1099142Y11862101D01*
X1098727Y11862304D01*
X1098725Y11862305D01*
X1093567Y11864826D01*
X1020398Y11875500D01*
X449218Y11875500D01*
X375412Y11864635D01*
X263198Y11809541D01*
X174881Y11721069D01*
X172195Y11715574D01*
X168644Y11710596D01*
X167266Y11711579D01*
X136451Y11681871D01*
X106411Y11675500D01*
X-136906Y11675500D01*
X-184472Y11692813D01*
X-199035Y11711403D01*
X-199394Y11711146D01*
X-202956Y11716121D01*
X-205651Y11721610D01*
X-217971Y11733909D01*
X-239405Y11779766D01*
X-239692Y11786281D01*
X-239692Y12079917D01*
X-222379Y12127483D01*
X-193975Y12147373D01*
X-190192Y12153925D01*
X-190192Y12158048D01*
X159808Y12158048D01*
X163446Y12148052D01*
X168135Y12145345D01*
X171842Y12145710D01*
X214066Y12154109D01*
X214316Y12152851D01*
X257057Y12154719D01*
X262571Y12152712D01*
X297774Y12145710D01*
X298511Y12145638D01*
X306756Y12148638D01*
X309808Y12153925D01*
X309808Y12158048D01*
X659808Y12158048D01*
X663446Y12148052D01*
X668135Y12145345D01*
X671842Y12145710D01*
X706919Y12152687D01*
X720125Y12158157D01*
X759939Y12184760D01*
X770048Y12194869D01*
X796651Y12234683D01*
X802121Y12247889D01*
X809098Y12282966D01*
X809808Y12290176D01*
X809808Y12296952D01*
X806170Y12306948D01*
X800883Y12310000D01*
X672856Y12310000D01*
X662860Y12306362D01*
X659808Y12301075D01*
X659808Y12158048D01*
X309808Y12158048D01*
X309808Y12296952D01*
X306170Y12306948D01*
X300883Y12310000D01*
X172856Y12310000D01*
X162860Y12306362D01*
X159808Y12301075D01*
X159808Y12158048D01*
X-190192Y12158048D01*
X-190192Y12281410D01*
X-190025Y12284812D01*
X-189692Y12286486D01*
X-189692Y12586000D01*
X-172379Y12633566D01*
X-128542Y12658876D01*
X-115692Y12660000D01*
X561218Y12660000D01*
X564620Y12659833D01*
X566294Y12659500D01*
X933322Y12659500D01*
X936891Y12660210D01*
X936892Y12660210D01*
X944479Y12661719D01*
X979262Y12668638D01*
X1031359Y12703449D01*
X1066170Y12755546D01*
X1075308Y12801486D01*
X1075308Y13198514D01*
X1074599Y13202080D01*
X1074598Y13202087D01*
X1067939Y13235564D01*
X1067939Y13264436D01*
X1074598Y13297913D01*
X1074599Y13297920D01*
X1075308Y13301486D01*
X1075308Y13698514D01*
X1066170Y13744454D01*
X1048736Y13770546D01*
X1035409Y13790490D01*
X1031359Y13796551D01*
X979262Y13831362D01*
X944479Y13838281D01*
X936892Y13839790D01*
X936891Y13839790D01*
X933322Y13840500D01*
X566294Y13840500D01*
X564620Y13840167D01*
X561218Y13840000D01*
X384308Y13840000D01*
X336742Y13857313D01*
X311432Y13901150D01*
X310308Y13914000D01*
X310308Y14203048D01*
X659808Y14203048D01*
X663446Y14193052D01*
X668733Y14190000D01*
X796760Y14190000D01*
X806756Y14193638D01*
X809808Y14198925D01*
X809808Y14209824D01*
X809098Y14217034D01*
X802121Y14252111D01*
X796651Y14265317D01*
X770048Y14305131D01*
X759939Y14315240D01*
X720125Y14341843D01*
X706919Y14347313D01*
X671842Y14354290D01*
X671105Y14354362D01*
X662860Y14351362D01*
X659808Y14346075D01*
X659808Y14203048D01*
X310308Y14203048D01*
X310308Y14213514D01*
X309975Y14215188D01*
X309808Y14218590D01*
X309808Y14341952D01*
X306170Y14351948D01*
X297307Y14357065D01*
X264770Y14395842D01*
X260308Y14421150D01*
X260308Y14840040D01*
X277621Y14887606D01*
X281982Y14892366D01*
X592442Y15202826D01*
X638318Y15224218D01*
X644768Y15224500D01*
X2355232Y15224500D01*
X2402798Y15207187D01*
X2407558Y15202826D01*
X2702826Y14907558D01*
X2724218Y14861682D01*
X2724500Y14855232D01*
X2724500Y13018984D01*
X2707187Y12971418D01*
X2695552Y12960279D01*
X2607379Y12892621D01*
X2519139Y12777625D01*
X2463670Y12643709D01*
X2444750Y12500000D01*
X2463670Y12356291D01*
X2519139Y12222375D01*
X2607379Y12107379D01*
X2722375Y12019139D01*
X2856291Y11963670D01*
X3000000Y11944750D01*
X3004808Y11945383D01*
X3138901Y11963037D01*
X3143709Y11963670D01*
X3277625Y12019139D01*
X3392621Y12107379D01*
X3480861Y12222375D01*
X3536330Y12356291D01*
X3555250Y12500000D01*
X3536330Y12643709D01*
X3480861Y12777625D01*
X3392621Y12892621D01*
X3304450Y12960277D01*
X3277254Y13002968D01*
X3275500Y13018984D01*
X3275500Y14965580D01*
X3276922Y14980016D01*
X3279475Y14992851D01*
X3280897Y15000000D01*
X3259515Y15107494D01*
X3259515Y15107495D01*
X3198624Y15198624D01*
X3181682Y15209944D01*
X3170471Y15219145D01*
X2719145Y15670471D01*
X2709942Y15681685D01*
X2702673Y15692564D01*
X2698624Y15698624D01*
X2675623Y15713993D01*
X2675622Y15713994D01*
X2649465Y15731471D01*
X2607495Y15759515D01*
X2562629Y15768439D01*
X2527135Y15775500D01*
X2527132Y15775500D01*
X2500000Y15780897D01*
X2492851Y15779475D01*
X2480017Y15776922D01*
X2465580Y15775500D01*
X534421Y15775500D01*
X519985Y15776922D01*
X507149Y15779475D01*
X500000Y15780897D01*
X392506Y15759516D01*
X324378Y15713994D01*
X324377Y15713993D01*
X301376Y15698624D01*
X297327Y15692564D01*
X290058Y15681685D01*
X280855Y15670471D01*
X37134Y15426750D01*
X-8742Y15405358D01*
X-57637Y15418459D01*
X-67518Y15426750D01*
X-1554906Y16914138D01*
X-1576298Y16960014D01*
X-1563197Y17008909D01*
X-1521733Y17037943D01*
X-1512245Y17039830D01*
X-1431791Y17050422D01*
X-1297875Y17105891D01*
X-1182879Y17194131D01*
X-1094639Y17309127D01*
X-1039170Y17443043D01*
X-1025218Y17549015D01*
X-1004177Y17591682D01*
X-993033Y17602826D01*
X-947157Y17624218D01*
X-940707Y17624500D01*
X-514410Y17624500D01*
X-508384Y17625387D01*
X-505402Y17625826D01*
X-440604Y17635365D01*
X-328390Y17690459D01*
X-240073Y17778931D01*
X-185174Y17891241D01*
X-174500Y17964410D01*
X-174500Y17967157D01*
X175000Y17967157D01*
X175393Y17961788D01*
X185013Y17896436D01*
X188382Y17885592D01*
X238176Y17784174D01*
X245199Y17774366D01*
X324899Y17694804D01*
X334717Y17687801D01*
X436226Y17638182D01*
X447070Y17634831D01*
X511805Y17625387D01*
X512814Y17625314D01*
X521948Y17628638D01*
X525000Y17633925D01*
X525000Y17638048D01*
X1025000Y17638048D01*
X1028638Y17628052D01*
X1033803Y17625070D01*
X1038212Y17625393D01*
X1103564Y17635013D01*
X1114408Y17638382D01*
X1215826Y17688176D01*
X1225634Y17695199D01*
X1305196Y17774899D01*
X1312199Y17784717D01*
X1361818Y17886226D01*
X1365169Y17897070D01*
X1374613Y17961805D01*
X1375000Y17967139D01*
X1375000Y17986952D01*
X1371362Y17996948D01*
X1366075Y18000000D01*
X1038048Y18000000D01*
X1028052Y17996362D01*
X1025000Y17991075D01*
X1025000Y17638048D01*
X525000Y17638048D01*
X525000Y17986952D01*
X521362Y17996948D01*
X516075Y18000000D01*
X188048Y18000000D01*
X178052Y17996362D01*
X175000Y17991075D01*
X175000Y17967157D01*
X-174500Y17967157D01*
X-174500Y18485232D01*
X-164376Y18513048D01*
X175000Y18513048D01*
X178638Y18503052D01*
X183925Y18500000D01*
X511952Y18500000D01*
X521948Y18503638D01*
X525000Y18508925D01*
X525000Y18513048D01*
X1025000Y18513048D01*
X1028638Y18503052D01*
X1033925Y18500000D01*
X1361952Y18500000D01*
X1371948Y18503638D01*
X1375000Y18508925D01*
X1375000Y18532843D01*
X1374607Y18538212D01*
X1364987Y18603564D01*
X1361618Y18614408D01*
X1311824Y18715826D01*
X1304801Y18725634D01*
X1225101Y18805196D01*
X1215283Y18812199D01*
X1113774Y18861818D01*
X1102930Y18865169D01*
X1038195Y18874613D01*
X1037186Y18874686D01*
X1028052Y18871362D01*
X1025000Y18866075D01*
X1025000Y18513048D01*
X525000Y18513048D01*
X525000Y18861952D01*
X521362Y18871948D01*
X516197Y18874930D01*
X511788Y18874607D01*
X446436Y18864987D01*
X435592Y18861618D01*
X334174Y18811824D01*
X324361Y18804797D01*
X322535Y18802969D01*
X320438Y18801989D01*
X319393Y18801241D01*
X319254Y18801436D01*
X291086Y18788273D01*
X284662Y18766235D01*
X277356Y18757710D01*
X244804Y18725101D01*
X237801Y18715283D01*
X188182Y18613774D01*
X184831Y18602930D01*
X175387Y18538195D01*
X175000Y18532861D01*
X175000Y18513048D01*
X-164376Y18513048D01*
X-157187Y18532798D01*
X-152826Y18537558D01*
X170471Y18860855D01*
X181684Y18870057D01*
X183872Y18871519D01*
X202167Y18875996D01*
X203075Y18886471D01*
X208632Y18896354D01*
X226854Y18923624D01*
X237123Y18938994D01*
X259515Y18972505D01*
X275500Y19052867D01*
X275500Y19052868D01*
X280897Y19080000D01*
X276922Y19099984D01*
X275500Y19114420D01*
X275500Y19183098D01*
X292813Y19230664D01*
X324191Y19252635D01*
X326948Y19253638D01*
X330000Y19258925D01*
X330000Y19263049D01*
X670000Y19263049D01*
X673638Y19253053D01*
X678925Y19250001D01*
X681133Y19250001D01*
X688347Y19250712D01*
X721378Y19257281D01*
X734587Y19262752D01*
X772084Y19287807D01*
X782193Y19297916D01*
X807249Y19335415D01*
X812719Y19348620D01*
X819290Y19381655D01*
X820000Y19388865D01*
X820000Y19566952D01*
X816362Y19576948D01*
X811075Y19580000D01*
X683048Y19580000D01*
X673052Y19576362D01*
X670000Y19571075D01*
X670000Y19263049D01*
X330000Y19263049D01*
X330000Y19933048D01*
X670000Y19933048D01*
X673638Y19923052D01*
X678925Y19920000D01*
X806951Y19920000D01*
X816947Y19923638D01*
X819999Y19928925D01*
X819999Y20111133D01*
X819288Y20118347D01*
X812719Y20151378D01*
X807248Y20164587D01*
X782193Y20202084D01*
X772084Y20212193D01*
X734585Y20237249D01*
X721380Y20242719D01*
X688345Y20249290D01*
X682641Y20249852D01*
X673052Y20246362D01*
X670000Y20241075D01*
X670000Y19933048D01*
X330000Y19933048D01*
X330000Y20236951D01*
X326362Y20246947D01*
X321075Y20249999D01*
X318867Y20249999D01*
X311653Y20249288D01*
X271473Y20241297D01*
X271228Y20242530D01*
X230255Y20240743D01*
X228722Y20241767D01*
X221575Y20243189D01*
X221574Y20243189D01*
X188390Y20249790D01*
X188389Y20249790D01*
X184820Y20250500D01*
X-184820Y20250500D01*
X-188389Y20249790D01*
X-188390Y20249790D01*
X-221570Y20243190D01*
X-221571Y20243189D01*
X-228722Y20241767D01*
X-228933Y20242828D01*
X-270169Y20241026D01*
X-271278Y20241767D01*
X-278429Y20243189D01*
X-278430Y20243190D01*
X-311610Y20249790D01*
X-311611Y20249790D01*
X-315180Y20250500D01*
X-684820Y20250500D01*
X-688389Y20249790D01*
X-688390Y20249790D01*
X-721575Y20243189D01*
X-721576Y20243188D01*
X-728722Y20241767D01*
X-778504Y20208504D01*
X-811767Y20158722D01*
X-820500Y20114820D01*
X-820500Y20083137D01*
X-837813Y20035571D01*
X-872078Y20015287D01*
X-871431Y20013726D01*
X-878165Y20010937D01*
X-885312Y20009515D01*
X-953439Y19963994D01*
X-953440Y19963993D01*
X-976441Y19948624D01*
X-986848Y19933048D01*
X-987759Y19931685D01*
X-996962Y19920471D01*
X-1970776Y18946657D01*
X-1981987Y18937456D01*
X-1998929Y18926136D01*
X-2002978Y18920076D01*
X-2015306Y18901626D01*
X-2024509Y18890412D01*
X-2420471Y18494450D01*
X-2431682Y18485249D01*
X-2448624Y18473929D01*
X-2463993Y18450928D01*
X-2463994Y18450927D01*
X-2481471Y18424770D01*
X-2509515Y18382800D01*
X-2509515Y18382799D01*
X-2530897Y18275305D01*
X-2529475Y18268156D01*
X-2526922Y18255322D01*
X-2525500Y18240885D01*
X-2525500Y17254036D01*
X-2526922Y17239600D01*
X-2530897Y17219616D01*
X-2525500Y17192484D01*
X-2525500Y17192483D01*
X-2509515Y17112121D01*
X-2448624Y17020992D01*
X-2431682Y17009672D01*
X-2420471Y17000471D01*
X-312366Y14892366D01*
X-290974Y14846490D01*
X-290692Y14840040D01*
X-290692Y14420083D01*
X-308005Y14372517D01*
X-336409Y14352627D01*
X-340192Y14346075D01*
X-340192Y14218590D01*
X-340359Y14215188D01*
X-340692Y14213514D01*
X-340692Y13914000D01*
X-358005Y13866434D01*
X-401842Y13841124D01*
X-414692Y13840000D01*
X-591602Y13840000D01*
X-595004Y13840167D01*
X-596678Y13840500D01*
X-963706Y13840500D01*
X-967275Y13839790D01*
X-967276Y13839790D01*
X-974863Y13838281D01*
X-1009646Y13831362D01*
X-1061743Y13796551D01*
X-1062330Y13795672D01*
X-1104985Y13775782D01*
X-1111435Y13775500D01*
X-1981016Y13775500D01*
X-2028582Y13792813D01*
X-2039721Y13804448D01*
X-2107379Y13892621D01*
X-2222375Y13980861D01*
X-2356291Y14036330D01*
X-2500000Y14055250D01*
X-2504808Y14054617D01*
X-2610184Y14040744D01*
X-2659603Y14051700D01*
X-2672169Y14061785D01*
X-2813432Y14203048D01*
X-840192Y14203048D01*
X-836554Y14193052D01*
X-831267Y14190000D01*
X-703240Y14190000D01*
X-693244Y14193638D01*
X-690192Y14198925D01*
X-690192Y14341952D01*
X-693830Y14351948D01*
X-698519Y14354655D01*
X-702226Y14354290D01*
X-737303Y14347313D01*
X-750509Y14341843D01*
X-790323Y14315240D01*
X-800432Y14305131D01*
X-827035Y14265317D01*
X-832505Y14252111D01*
X-839482Y14217034D01*
X-840192Y14209824D01*
X-840192Y14203048D01*
X-2813432Y14203048D01*
X-2952826Y14342442D01*
X-2974218Y14388318D01*
X-2974500Y14394768D01*
X-2974500Y19355232D01*
X-2957187Y19402798D01*
X-2952826Y19407558D01*
X-1407558Y20952826D01*
X-1361682Y20974218D01*
X-1355232Y20974500D01*
X-894500Y20974500D01*
X-846934Y20957187D01*
X-821624Y20913350D01*
X-820500Y20900500D01*
X-820500Y20885180D01*
X-811767Y20841278D01*
X-778504Y20791496D01*
X-728722Y20758233D01*
X-721576Y20756812D01*
X-721575Y20756811D01*
X-688390Y20750210D01*
X-688389Y20750210D01*
X-684820Y20749500D01*
X-315180Y20749500D01*
X-311611Y20750210D01*
X-311610Y20750210D01*
X-278425Y20756811D01*
X-278424Y20756812D01*
X-271278Y20758233D01*
X-271116Y20757416D01*
X-227082Y20759339D01*
X-221488Y20757303D01*
X-188345Y20750710D01*
X-182641Y20750148D01*
X-173052Y20753638D01*
X-170000Y20758925D01*
X-170000Y21346000D01*
X-152687Y21393566D01*
X-108850Y21418876D01*
X-96000Y21420000D01*
X96000Y21420000D01*
X143566Y21402687D01*
X168876Y21358850D01*
X170000Y21346000D01*
X170000Y20763049D01*
X173638Y20753053D01*
X178925Y20750001D01*
X181133Y20750001D01*
X188347Y20750712D01*
X228527Y20758703D01*
X228772Y20757470D01*
X269745Y20759257D01*
X271278Y20758233D01*
X278425Y20756811D01*
X278426Y20756811D01*
X311610Y20750210D01*
X311611Y20750210D01*
X315180Y20749500D01*
X684820Y20749500D01*
X688389Y20750210D01*
X688390Y20750210D01*
X721575Y20756811D01*
X721576Y20756812D01*
X728722Y20758233D01*
X778504Y20791496D01*
X811767Y20841278D01*
X820500Y20885180D01*
X820500Y21614820D01*
X813877Y21648116D01*
X813189Y21651575D01*
X813188Y21651576D01*
X811767Y21658722D01*
X778504Y21708504D01*
X777937Y21708883D01*
X758138Y21751343D01*
X771239Y21800238D01*
X812703Y21829272D01*
X834509Y21831745D01*
X1355934Y21813042D01*
G37*
%TD.AperFunction*%
%TD*%
M02*
