%TF.GenerationSoftware,KiCad,Pcbnew,6.0.10-86aedd382b~118~ubuntu22.04.1*%
%TF.CreationDate,2023-03-15T21:50:00-07:00*%
%TF.ProjectId,baro-temp-qwiic,6261726f-2d74-4656-9d70-2d7177696963,rev?*%
%TF.SameCoordinates,Original*%
%TF.FileFunction,Legend,Bot*%
%TF.FilePolarity,Positive*%
%FSLAX46Y46*%
G04 Gerber Fmt 4.6, Leading zero omitted, Abs format (unit mm)*
G04 Created by KiCad (PCBNEW 6.0.10-86aedd382b~118~ubuntu22.04.1) date 2023-03-15 21:50:00*
%MOMM*%
%LPD*%
G01*
G04 APERTURE LIST*
%ADD10C,0.062500*%
%ADD11C,0.150000*%
%ADD12C,0.080109*%
%ADD13C,0.127000*%
%ADD14C,0.200000*%
%ADD15C,0.120000*%
G04 APERTURE END LIST*
D10*
X-3319166Y17880952D02*
X-3319166Y17642857D01*
X-3176309Y17928571D02*
X-3676309Y17761904D01*
X-3176309Y17595238D01*
X-3176309Y17428571D02*
X-3509642Y17428571D01*
X-3676309Y17428571D02*
X-3652500Y17452380D01*
X-3628690Y17428571D01*
X-3652500Y17404761D01*
X-3676309Y17428571D01*
X-3628690Y17428571D01*
X-3176309Y17190476D02*
X-3509642Y17190476D01*
X-3414404Y17190476D02*
X-3462023Y17166666D01*
X-3485833Y17142857D01*
X-3509642Y17095238D01*
X-3509642Y17047619D01*
X-3176309Y16880952D02*
X-3676309Y16880952D01*
X-3485833Y16880952D02*
X-3509642Y16833333D01*
X-3509642Y16738095D01*
X-3485833Y16690476D01*
X-3462023Y16666666D01*
X-3414404Y16642857D01*
X-3271547Y16642857D01*
X-3223928Y16666666D01*
X-3200119Y16690476D01*
X-3176309Y16738095D01*
X-3176309Y16833333D01*
X-3200119Y16880952D01*
X-3176309Y16214285D02*
X-3438214Y16214285D01*
X-3485833Y16238095D01*
X-3509642Y16285714D01*
X-3509642Y16380952D01*
X-3485833Y16428571D01*
X-3200119Y16214285D02*
X-3176309Y16261904D01*
X-3176309Y16380952D01*
X-3200119Y16428571D01*
X-3247738Y16452380D01*
X-3295357Y16452380D01*
X-3342976Y16428571D01*
X-3366785Y16380952D01*
X-3366785Y16261904D01*
X-3390595Y16214285D01*
X-3176309Y15904761D02*
X-3200119Y15952380D01*
X-3247738Y15976190D01*
X-3676309Y15976190D01*
X-3176309Y15642857D02*
X-3200119Y15690476D01*
X-3247738Y15714285D01*
X-3676309Y15714285D01*
X-3676309Y15142857D02*
X-3676309Y14857142D01*
X-3176309Y15000000D02*
X-3676309Y15000000D01*
X-3200119Y14499999D02*
X-3176309Y14547619D01*
X-3176309Y14642857D01*
X-3200119Y14690476D01*
X-3247738Y14714285D01*
X-3438214Y14714285D01*
X-3485833Y14690476D01*
X-3509642Y14642857D01*
X-3509642Y14547619D01*
X-3485833Y14500000D01*
X-3438214Y14476190D01*
X-3390595Y14476190D01*
X-3342976Y14714285D01*
X-3176309Y14261904D02*
X-3509642Y14261904D01*
X-3462023Y14261904D02*
X-3485833Y14238095D01*
X-3509642Y14190476D01*
X-3509642Y14119047D01*
X-3485833Y14071428D01*
X-3438214Y14047619D01*
X-3176309Y14047619D01*
X-3438214Y14047619D02*
X-3485833Y14023809D01*
X-3509642Y13976190D01*
X-3509642Y13904761D01*
X-3485833Y13857142D01*
X-3438214Y13833333D01*
X-3176309Y13833333D01*
X-3509642Y13595238D02*
X-3009642Y13595238D01*
X-3485833Y13595238D02*
X-3509642Y13547619D01*
X-3509642Y13452380D01*
X-3485833Y13404761D01*
X-3462023Y13380952D01*
X-3414404Y13357142D01*
X-3271547Y13357142D01*
X-3223928Y13380952D01*
X-3200119Y13404761D01*
X-3176309Y13452380D01*
X-3176309Y13547619D01*
X-3200119Y13595238D01*
X-3700119Y12785714D02*
X-3057261Y13214285D01*
X-3438214Y12452380D02*
X-3414404Y12380952D01*
X-3390595Y12357142D01*
X-3342976Y12333333D01*
X-3271547Y12333333D01*
X-3223928Y12357142D01*
X-3200119Y12380952D01*
X-3176309Y12428571D01*
X-3176309Y12619047D01*
X-3676309Y12619047D01*
X-3676309Y12452380D01*
X-3652500Y12404761D01*
X-3628690Y12380952D01*
X-3581071Y12357142D01*
X-3533452Y12357142D01*
X-3485833Y12380952D01*
X-3462023Y12404761D01*
X-3438214Y12452380D01*
X-3438214Y12619047D01*
X-3176309Y11904761D02*
X-3438214Y11904761D01*
X-3485833Y11928571D01*
X-3509642Y11976190D01*
X-3509642Y12071428D01*
X-3485833Y12119047D01*
X-3200119Y11904761D02*
X-3176309Y11952380D01*
X-3176309Y12071428D01*
X-3200119Y12119047D01*
X-3247738Y12142857D01*
X-3295357Y12142857D01*
X-3342976Y12119047D01*
X-3366785Y12071428D01*
X-3366785Y11952380D01*
X-3390595Y11904761D01*
X-3176309Y11666666D02*
X-3509642Y11666666D01*
X-3414404Y11666666D02*
X-3462023Y11642857D01*
X-3485833Y11619047D01*
X-3509642Y11571428D01*
X-3509642Y11523809D01*
X-3176309Y11285714D02*
X-3200119Y11333333D01*
X-3223928Y11357142D01*
X-3271547Y11380952D01*
X-3414404Y11380952D01*
X-3462023Y11357142D01*
X-3485833Y11333333D01*
X-3509642Y11285714D01*
X-3509642Y11214285D01*
X-3485833Y11166666D01*
X-3462023Y11142857D01*
X-3414404Y11119047D01*
X-3271547Y11119047D01*
X-3223928Y11142857D01*
X-3200119Y11166666D01*
X-3176309Y11214285D01*
X-3176309Y11285714D01*
X-2823690Y16928571D02*
X-2847500Y16904761D01*
X-2871309Y16857142D01*
X-2871309Y16738095D01*
X-2847500Y16690476D01*
X-2823690Y16666666D01*
X-2776071Y16642857D01*
X-2728452Y16642857D01*
X-2657023Y16666666D01*
X-2371309Y16952380D01*
X-2371309Y16642857D01*
X-2871309Y16333333D02*
X-2871309Y16285714D01*
X-2847500Y16238095D01*
X-2823690Y16214285D01*
X-2776071Y16190476D01*
X-2680833Y16166666D01*
X-2561785Y16166666D01*
X-2466547Y16190476D01*
X-2418928Y16214285D01*
X-2395119Y16238095D01*
X-2371309Y16285714D01*
X-2371309Y16333333D01*
X-2395119Y16380952D01*
X-2418928Y16404761D01*
X-2466547Y16428571D01*
X-2561785Y16452380D01*
X-2680833Y16452380D01*
X-2776071Y16428571D01*
X-2823690Y16404761D01*
X-2847500Y16380952D01*
X-2871309Y16333333D01*
X-2823690Y15976190D02*
X-2847500Y15952380D01*
X-2871309Y15904761D01*
X-2871309Y15785714D01*
X-2847500Y15738095D01*
X-2823690Y15714285D01*
X-2776071Y15690476D01*
X-2728452Y15690476D01*
X-2657023Y15714285D01*
X-2371309Y16000000D01*
X-2371309Y15690476D01*
X-2871309Y15523809D02*
X-2871309Y15214285D01*
X-2680833Y15380952D01*
X-2680833Y15309523D01*
X-2657023Y15261904D01*
X-2633214Y15238095D01*
X-2585595Y15214285D01*
X-2466547Y15214285D01*
X-2418928Y15238095D01*
X-2395119Y15261904D01*
X-2371309Y15309523D01*
X-2371309Y15452380D01*
X-2395119Y15500000D01*
X-2418928Y15523809D01*
X-2561785Y15000000D02*
X-2561785Y14619047D01*
X-2871309Y14285714D02*
X-2871309Y14238095D01*
X-2847500Y14190476D01*
X-2823690Y14166666D01*
X-2776071Y14142857D01*
X-2680833Y14119047D01*
X-2561785Y14119047D01*
X-2466547Y14142857D01*
X-2418928Y14166666D01*
X-2395119Y14190476D01*
X-2371309Y14238095D01*
X-2371309Y14285714D01*
X-2395119Y14333333D01*
X-2418928Y14357142D01*
X-2466547Y14380952D01*
X-2561785Y14404761D01*
X-2680833Y14404761D01*
X-2776071Y14380952D01*
X-2823690Y14357142D01*
X-2847500Y14333333D01*
X-2871309Y14285714D01*
X-2871309Y13952380D02*
X-2871309Y13642857D01*
X-2680833Y13809523D01*
X-2680833Y13738095D01*
X-2657023Y13690476D01*
X-2633214Y13666666D01*
X-2585595Y13642857D01*
X-2466547Y13642857D01*
X-2418928Y13666666D01*
X-2395119Y13690476D01*
X-2371309Y13738095D01*
X-2371309Y13880952D01*
X-2395119Y13928571D01*
X-2418928Y13952380D01*
X-2561785Y13428571D02*
X-2561785Y13047619D01*
X-2371309Y12547619D02*
X-2371309Y12833333D01*
X-2371309Y12690476D02*
X-2871309Y12690476D01*
X-2799880Y12738095D01*
X-2752261Y12785714D01*
X-2728452Y12833333D01*
X-2704642Y12119047D02*
X-2371309Y12119047D01*
X-2895119Y12238095D02*
X-2537976Y12357142D01*
X-2537976Y12047619D01*
X2776071Y18238095D02*
X2799880Y18261904D01*
X2823690Y18333333D01*
X2823690Y18380952D01*
X2799880Y18452380D01*
X2752261Y18500000D01*
X2704642Y18523809D01*
X2609404Y18547619D01*
X2537976Y18547619D01*
X2442738Y18523809D01*
X2395119Y18500000D01*
X2347500Y18452380D01*
X2323690Y18380952D01*
X2323690Y18333333D01*
X2347500Y18261904D01*
X2371309Y18238095D01*
X2823690Y17952380D02*
X2799880Y18000000D01*
X2776071Y18023809D01*
X2728452Y18047619D01*
X2585595Y18047619D01*
X2537976Y18023809D01*
X2514166Y18000000D01*
X2490357Y17952380D01*
X2490357Y17880952D01*
X2514166Y17833333D01*
X2537976Y17809523D01*
X2585595Y17785714D01*
X2728452Y17785714D01*
X2776071Y17809523D01*
X2799880Y17833333D01*
X2823690Y17880952D01*
X2823690Y17952380D01*
X2490357Y17571428D02*
X2990357Y17571428D01*
X2514166Y17571428D02*
X2490357Y17523809D01*
X2490357Y17428571D01*
X2514166Y17380952D01*
X2537976Y17357142D01*
X2585595Y17333333D01*
X2728452Y17333333D01*
X2776071Y17357142D01*
X2799880Y17380952D01*
X2823690Y17428571D01*
X2823690Y17523809D01*
X2799880Y17571428D01*
X2490357Y17166666D02*
X2823690Y17047619D01*
X2490357Y16928571D02*
X2823690Y17047619D01*
X2942738Y17095238D01*
X2966547Y17119047D01*
X2990357Y17166666D01*
X2823690Y16738095D02*
X2490357Y16738095D01*
X2585595Y16738095D02*
X2537976Y16714285D01*
X2514166Y16690476D01*
X2490357Y16642857D01*
X2490357Y16595238D01*
X2823690Y16428571D02*
X2490357Y16428571D01*
X2323690Y16428571D02*
X2347500Y16452380D01*
X2371309Y16428571D01*
X2347500Y16404761D01*
X2323690Y16428571D01*
X2371309Y16428571D01*
X2490357Y15976190D02*
X2895119Y15976190D01*
X2942738Y16000000D01*
X2966547Y16023809D01*
X2990357Y16071428D01*
X2990357Y16142857D01*
X2966547Y16190476D01*
X2799880Y15976190D02*
X2823690Y16023809D01*
X2823690Y16119047D01*
X2799880Y16166666D01*
X2776071Y16190476D01*
X2728452Y16214285D01*
X2585595Y16214285D01*
X2537976Y16190476D01*
X2514166Y16166666D01*
X2490357Y16119047D01*
X2490357Y16023809D01*
X2514166Y15976190D01*
X2823690Y15738095D02*
X2323690Y15738095D01*
X2823690Y15523809D02*
X2561785Y15523809D01*
X2514166Y15547619D01*
X2490357Y15595238D01*
X2490357Y15666666D01*
X2514166Y15714285D01*
X2537976Y15738095D01*
X2490357Y15357142D02*
X2490357Y15166666D01*
X2323690Y15285714D02*
X2752261Y15285714D01*
X2799880Y15261904D01*
X2823690Y15214285D01*
X2823690Y15166666D01*
X2442738Y14214285D02*
X2418928Y14261904D01*
X2418928Y14357142D01*
X2442738Y14404761D01*
X2490357Y14452380D01*
X2537976Y14476190D01*
X2633214Y14476190D01*
X2680833Y14452380D01*
X2728452Y14404761D01*
X2752261Y14357142D01*
X2752261Y14261904D01*
X2728452Y14214285D01*
X2252261Y14309523D02*
X2276071Y14428571D01*
X2347500Y14547619D01*
X2466547Y14619047D01*
X2585595Y14642857D01*
X2704642Y14619047D01*
X2823690Y14547619D01*
X2895119Y14428571D01*
X2918928Y14309523D01*
X2895119Y14190476D01*
X2823690Y14071428D01*
X2704642Y14000000D01*
X2585595Y13976190D01*
X2466547Y14000000D01*
X2347500Y14071428D01*
X2276071Y14190476D01*
X2252261Y14309523D01*
X2371309Y13404761D02*
X2347500Y13380952D01*
X2323690Y13333333D01*
X2323690Y13214285D01*
X2347500Y13166666D01*
X2371309Y13142857D01*
X2418928Y13119047D01*
X2466547Y13119047D01*
X2537976Y13142857D01*
X2823690Y13428571D01*
X2823690Y13119047D01*
X2323690Y12809523D02*
X2323690Y12761904D01*
X2347500Y12714285D01*
X2371309Y12690476D01*
X2418928Y12666666D01*
X2514166Y12642857D01*
X2633214Y12642857D01*
X2728452Y12666666D01*
X2776071Y12690476D01*
X2799880Y12714285D01*
X2823690Y12761904D01*
X2823690Y12809523D01*
X2799880Y12857142D01*
X2776071Y12880952D01*
X2728452Y12904761D01*
X2633214Y12928571D01*
X2514166Y12928571D01*
X2418928Y12904761D01*
X2371309Y12880952D01*
X2347500Y12857142D01*
X2323690Y12809523D01*
X2371309Y12452380D02*
X2347500Y12428571D01*
X2323690Y12380952D01*
X2323690Y12261904D01*
X2347500Y12214285D01*
X2371309Y12190476D01*
X2418928Y12166666D01*
X2466547Y12166666D01*
X2537976Y12190476D01*
X2823690Y12476190D01*
X2823690Y12166666D01*
X2323690Y12000000D02*
X2323690Y11690476D01*
X2514166Y11857142D01*
X2514166Y11785714D01*
X2537976Y11738095D01*
X2561785Y11714285D01*
X2609404Y11690476D01*
X2728452Y11690476D01*
X2776071Y11714285D01*
X2799880Y11738095D01*
X2823690Y11785714D01*
X2823690Y11928571D01*
X2799880Y11976190D01*
X2776071Y12000000D01*
X2799880Y11452380D02*
X2823690Y11452380D01*
X2871309Y11476190D01*
X2895119Y11500000D01*
X3128690Y18571428D02*
X3128690Y18285714D01*
X3628690Y18428571D02*
X3128690Y18428571D01*
X3628690Y18119047D02*
X3128690Y18119047D01*
X3628690Y17904761D02*
X3366785Y17904761D01*
X3319166Y17928571D01*
X3295357Y17976190D01*
X3295357Y18047619D01*
X3319166Y18095238D01*
X3342976Y18119047D01*
X3604880Y17476190D02*
X3628690Y17523809D01*
X3628690Y17619047D01*
X3604880Y17666666D01*
X3557261Y17690476D01*
X3366785Y17690476D01*
X3319166Y17666666D01*
X3295357Y17619047D01*
X3295357Y17523809D01*
X3319166Y17476190D01*
X3366785Y17452380D01*
X3414404Y17452380D01*
X3462023Y17690476D01*
X3485833Y16880952D02*
X3485833Y16642857D01*
X3628690Y16928571D02*
X3128690Y16761904D01*
X3628690Y16595238D01*
X3628690Y16428571D02*
X3295357Y16428571D01*
X3128690Y16428571D02*
X3152500Y16452380D01*
X3176309Y16428571D01*
X3152500Y16404761D01*
X3128690Y16428571D01*
X3176309Y16428571D01*
X3628690Y16190476D02*
X3295357Y16190476D01*
X3390595Y16190476D02*
X3342976Y16166666D01*
X3319166Y16142857D01*
X3295357Y16095238D01*
X3295357Y16047619D01*
X3628690Y15880952D02*
X3128690Y15880952D01*
X3319166Y15880952D02*
X3295357Y15833333D01*
X3295357Y15738095D01*
X3319166Y15690476D01*
X3342976Y15666666D01*
X3390595Y15642857D01*
X3533452Y15642857D01*
X3581071Y15666666D01*
X3604880Y15690476D01*
X3628690Y15738095D01*
X3628690Y15833333D01*
X3604880Y15880952D01*
X3628690Y15214285D02*
X3366785Y15214285D01*
X3319166Y15238095D01*
X3295357Y15285714D01*
X3295357Y15380952D01*
X3319166Y15428571D01*
X3604880Y15214285D02*
X3628690Y15261904D01*
X3628690Y15380952D01*
X3604880Y15428571D01*
X3557261Y15452380D01*
X3509642Y15452380D01*
X3462023Y15428571D01*
X3438214Y15380952D01*
X3438214Y15261904D01*
X3414404Y15214285D01*
X3628690Y14904761D02*
X3604880Y14952380D01*
X3557261Y14976190D01*
X3128690Y14976190D01*
X3628690Y14642857D02*
X3604880Y14690476D01*
X3557261Y14714285D01*
X3128690Y14714285D01*
X3628690Y13857142D02*
X3366785Y13857142D01*
X3319166Y13880952D01*
X3295357Y13928571D01*
X3295357Y14023809D01*
X3319166Y14071428D01*
X3604880Y13857142D02*
X3628690Y13904761D01*
X3628690Y14023809D01*
X3604880Y14071428D01*
X3557261Y14095238D01*
X3509642Y14095238D01*
X3462023Y14071428D01*
X3438214Y14023809D01*
X3438214Y13904761D01*
X3414404Y13857142D01*
X3295357Y13404761D02*
X3628690Y13404761D01*
X3295357Y13619047D02*
X3557261Y13619047D01*
X3604880Y13595238D01*
X3628690Y13547619D01*
X3628690Y13476190D01*
X3604880Y13428571D01*
X3581071Y13404761D01*
X3295357Y13238095D02*
X3295357Y13047619D01*
X3128690Y13166666D02*
X3557261Y13166666D01*
X3604880Y13142857D01*
X3628690Y13095238D01*
X3628690Y13047619D01*
X3628690Y12880952D02*
X3128690Y12880952D01*
X3628690Y12666666D02*
X3366785Y12666666D01*
X3319166Y12690476D01*
X3295357Y12738095D01*
X3295357Y12809523D01*
X3319166Y12857142D01*
X3342976Y12880952D01*
X3628690Y12357142D02*
X3604880Y12404761D01*
X3581071Y12428571D01*
X3533452Y12452380D01*
X3390595Y12452380D01*
X3342976Y12428571D01*
X3319166Y12404761D01*
X3295357Y12357142D01*
X3295357Y12285714D01*
X3319166Y12238095D01*
X3342976Y12214285D01*
X3390595Y12190476D01*
X3533452Y12190476D01*
X3581071Y12214285D01*
X3604880Y12238095D01*
X3628690Y12285714D01*
X3628690Y12357142D01*
X3628690Y11976190D02*
X3295357Y11976190D01*
X3390595Y11976190D02*
X3342976Y11952380D01*
X3319166Y11928571D01*
X3295357Y11880952D01*
X3295357Y11833333D01*
X3604880Y11690476D02*
X3628690Y11642857D01*
X3628690Y11547619D01*
X3604880Y11500000D01*
X3557261Y11476190D01*
X3533452Y11476190D01*
X3485833Y11500000D01*
X3462023Y11547619D01*
X3462023Y11619047D01*
X3438214Y11666666D01*
X3390595Y11690476D01*
X3366785Y11690476D01*
X3319166Y11666666D01*
X3295357Y11619047D01*
X3295357Y11547619D01*
X3319166Y11500000D01*
D11*
%TO.C,U2*%
X-1856876Y20305619D02*
X-1338780Y20305619D01*
X-1277828Y20275142D01*
X-1247352Y20244666D01*
X-1216876Y20183714D01*
X-1216876Y20061809D01*
X-1247352Y20000857D01*
X-1277828Y19970380D01*
X-1338780Y19939904D01*
X-1856876Y19939904D01*
X-1795923Y19665619D02*
X-1826400Y19635142D01*
X-1856876Y19574190D01*
X-1856876Y19421809D01*
X-1826400Y19360857D01*
X-1795923Y19330380D01*
X-1734971Y19299904D01*
X-1674019Y19299904D01*
X-1582590Y19330380D01*
X-1216876Y19696095D01*
X-1216876Y19299904D01*
%TO.C,C1*%
X1151474Y7892857D02*
X1199093Y7845238D01*
X1341950Y7797619D01*
X1437188Y7797619D01*
X1580046Y7845238D01*
X1675284Y7940476D01*
X1722903Y8035714D01*
X1770522Y8226190D01*
X1770522Y8369047D01*
X1722903Y8559523D01*
X1675284Y8654761D01*
X1580046Y8750000D01*
X1437188Y8797619D01*
X1341950Y8797619D01*
X1199093Y8750000D01*
X1151474Y8702380D01*
X199093Y7797619D02*
X770522Y7797619D01*
X484808Y7797619D02*
X484808Y8797619D01*
X580046Y8654761D01*
X675284Y8559523D01*
X770522Y8511904D01*
D12*
%TO.C,U1*%
X228948Y14925475D02*
X228948Y14666076D01*
X213689Y14635559D01*
X198430Y14620300D01*
X167913Y14605041D01*
X106878Y14605041D01*
X76360Y14620300D01*
X61101Y14635559D01*
X45843Y14666076D01*
X45843Y14925475D01*
X-274590Y14605041D02*
X-91485Y14605041D01*
X-183038Y14605041D02*
X-183038Y14925475D01*
X-152520Y14879699D01*
X-122003Y14849181D01*
X-91485Y14833923D01*
D11*
%TO.C,C2*%
X-848525Y7892857D02*
X-800906Y7845238D01*
X-658049Y7797619D01*
X-562811Y7797619D01*
X-419953Y7845238D01*
X-324715Y7940476D01*
X-277096Y8035714D01*
X-229477Y8226190D01*
X-229477Y8369047D01*
X-277096Y8559523D01*
X-324715Y8654761D01*
X-419953Y8750000D01*
X-562811Y8797619D01*
X-658049Y8797619D01*
X-800906Y8750000D01*
X-848525Y8702380D01*
X-1229477Y8702380D02*
X-1277096Y8750000D01*
X-1372334Y8797619D01*
X-1610430Y8797619D01*
X-1705668Y8750000D01*
X-1753287Y8702380D01*
X-1800906Y8607142D01*
X-1800906Y8511904D01*
X-1753287Y8369047D01*
X-1181858Y7797619D01*
X-1800906Y7797619D01*
%TO.C,C3*%
X166666Y16462857D02*
X214285Y16415238D01*
X357142Y16367619D01*
X452380Y16367619D01*
X595238Y16415238D01*
X690476Y16510476D01*
X738095Y16605714D01*
X785714Y16796190D01*
X785714Y16939047D01*
X738095Y17129523D01*
X690476Y17224761D01*
X595238Y17320000D01*
X452380Y17367619D01*
X357142Y17367619D01*
X214285Y17320000D01*
X166666Y17272380D01*
X-166666Y17367619D02*
X-785714Y17367619D01*
X-452380Y16986666D01*
X-595238Y16986666D01*
X-690476Y16939047D01*
X-738095Y16891428D01*
X-785714Y16796190D01*
X-785714Y16558095D01*
X-738095Y16462857D01*
X-690476Y16415238D01*
X-595238Y16367619D01*
X-309523Y16367619D01*
X-214285Y16415238D01*
X-166666Y16462857D01*
D13*
%TO.C,U2*%
X-975000Y21100000D02*
X-975000Y19900000D01*
X975000Y21100000D02*
X975000Y19900000D01*
D14*
X-500000Y22100000D02*
G75*
G03*
X-500000Y22100000I-100000J0D01*
G01*
D15*
%TO.C,C1*%
X1244808Y10640580D02*
X1244808Y10359420D01*
X224808Y10640580D02*
X224808Y10359420D01*
D13*
%TO.C,U1*%
X834808Y14280000D02*
X1014808Y14280000D01*
X-1045192Y12620000D02*
X-1045192Y12220000D01*
X834808Y12220000D02*
X1014808Y12220000D01*
X-865192Y14280000D02*
X-1045192Y14280000D01*
X1014808Y14280000D02*
X1014808Y13880000D01*
X-1045192Y12220000D02*
X-865192Y12220000D01*
X1014808Y12220000D02*
X1014808Y12620000D01*
X-1045192Y14280000D02*
X-1045192Y13880000D01*
D14*
X-1415192Y12950000D02*
G75*
G03*
X-1415192Y12950000I-100000J0D01*
G01*
D15*
%TO.C,C2*%
X-255192Y10640580D02*
X-255192Y10359420D01*
X-1275192Y10640580D02*
X-1275192Y10359420D01*
%TO.C,C3*%
X-140580Y18760000D02*
X140580Y18760000D01*
X-140580Y17740000D02*
X140580Y17740000D01*
%TD*%
M02*
