%TF.GenerationSoftware,KiCad,Pcbnew,6.0.11-2627ca5db0~126~ubuntu22.04.1*%
%TF.CreationDate,2024-02-04T10:42:42-08:00*%
%TF.ProjectId,stick-switch,73746963-6b2d-4737-9769-7463682e6b69,rev?*%
%TF.SameCoordinates,Original*%
%TF.FileFunction,Legend,Top*%
%TF.FilePolarity,Positive*%
%FSLAX46Y46*%
G04 Gerber Fmt 4.6, Leading zero omitted, Abs format (unit mm)*
G04 Created by KiCad (PCBNEW 6.0.11-2627ca5db0~126~ubuntu22.04.1) date 2024-02-04 10:42:42*
%MOMM*%
%LPD*%
G01*
G04 APERTURE LIST*
%ADD10C,0.150000*%
%ADD11C,0.152400*%
%ADD12C,0.050800*%
%ADD13C,0.250000*%
%ADD14C,0.120000*%
%ADD15C,0.254000*%
G04 APERTURE END LIST*
D10*
X-5410714Y-9313750D02*
X-5053571Y-9313750D01*
X-5482142Y-9528035D02*
X-5232142Y-8778035D01*
X-4982142Y-9528035D01*
X-4732142Y-9528035D02*
X-4732142Y-9028035D01*
X-4732142Y-8778035D02*
X-4767857Y-8813750D01*
X-4732142Y-8849464D01*
X-4696428Y-8813750D01*
X-4732142Y-8778035D01*
X-4732142Y-8849464D01*
X-4375000Y-9528035D02*
X-4375000Y-9028035D01*
X-4375000Y-9170892D02*
X-4339285Y-9099464D01*
X-4303571Y-9063750D01*
X-4232142Y-9028035D01*
X-4160714Y-9028035D01*
X-3910714Y-9528035D02*
X-3910714Y-8778035D01*
X-3910714Y-9063750D02*
X-3839285Y-9028035D01*
X-3696428Y-9028035D01*
X-3625000Y-9063750D01*
X-3589285Y-9099464D01*
X-3553571Y-9170892D01*
X-3553571Y-9385178D01*
X-3589285Y-9456607D01*
X-3625000Y-9492321D01*
X-3696428Y-9528035D01*
X-3839285Y-9528035D01*
X-3910714Y-9492321D01*
X-2910714Y-9528035D02*
X-2910714Y-9135178D01*
X-2946428Y-9063750D01*
X-3017857Y-9028035D01*
X-3160714Y-9028035D01*
X-3232142Y-9063750D01*
X-2910714Y-9492321D02*
X-2982142Y-9528035D01*
X-3160714Y-9528035D01*
X-3232142Y-9492321D01*
X-3267857Y-9420892D01*
X-3267857Y-9349464D01*
X-3232142Y-9278035D01*
X-3160714Y-9242321D01*
X-2982142Y-9242321D01*
X-2910714Y-9206607D01*
X-2446428Y-9528035D02*
X-2517857Y-9492321D01*
X-2553571Y-9420892D01*
X-2553571Y-8778035D01*
X-2053571Y-9528035D02*
X-2125000Y-9492321D01*
X-2160714Y-9420892D01*
X-2160714Y-8778035D01*
X-1232142Y-9492321D02*
X-1125000Y-9528035D01*
X-946428Y-9528035D01*
X-875000Y-9492321D01*
X-839285Y-9456607D01*
X-803571Y-9385178D01*
X-803571Y-9313750D01*
X-839285Y-9242321D01*
X-875000Y-9206607D01*
X-946428Y-9170892D01*
X-1089285Y-9135178D01*
X-1160714Y-9099464D01*
X-1196428Y-9063750D01*
X-1232142Y-8992321D01*
X-1232142Y-8920892D01*
X-1196428Y-8849464D01*
X-1160714Y-8813750D01*
X-1089285Y-8778035D01*
X-910714Y-8778035D01*
X-803571Y-8813750D01*
X-589285Y-9028035D02*
X-303571Y-9028035D01*
X-482142Y-8778035D02*
X-482142Y-9420892D01*
X-446428Y-9492321D01*
X-375000Y-9528035D01*
X-303571Y-9528035D01*
X-53571Y-9528035D02*
X-53571Y-9028035D01*
X-53571Y-8778035D02*
X-89285Y-8813750D01*
X-53571Y-8849464D01*
X-17857Y-8813750D01*
X-53571Y-8778035D01*
X-53571Y-8849464D01*
X624999Y-9492321D02*
X553571Y-9528035D01*
X410714Y-9528035D01*
X339285Y-9492321D01*
X303571Y-9456607D01*
X267857Y-9385178D01*
X267857Y-9170892D01*
X303571Y-9099464D01*
X339285Y-9063750D01*
X410714Y-9028035D01*
X553571Y-9028035D01*
X624999Y-9063750D01*
X946428Y-9528035D02*
X946428Y-8778035D01*
X1017857Y-9242321D02*
X1232142Y-9528035D01*
X1232142Y-9028035D02*
X946428Y-9313750D01*
X2089285Y-9492321D02*
X2196428Y-9528035D01*
X2374999Y-9528035D01*
X2446428Y-9492321D01*
X2482142Y-9456607D01*
X2517857Y-9385178D01*
X2517857Y-9313750D01*
X2482142Y-9242321D01*
X2446428Y-9206607D01*
X2374999Y-9170892D01*
X2232142Y-9135178D01*
X2160714Y-9099464D01*
X2124999Y-9063750D01*
X2089285Y-8992321D01*
X2089285Y-8920892D01*
X2124999Y-8849464D01*
X2160714Y-8813750D01*
X2232142Y-8778035D01*
X2410714Y-8778035D01*
X2517857Y-8813750D01*
X2767857Y-9028035D02*
X2910714Y-9528035D01*
X3053571Y-9170892D01*
X3196428Y-9528035D01*
X3339285Y-9028035D01*
X3625000Y-9528035D02*
X3625000Y-9028035D01*
X3625000Y-8778035D02*
X3589285Y-8813750D01*
X3625000Y-8849464D01*
X3660714Y-8813750D01*
X3625000Y-8778035D01*
X3625000Y-8849464D01*
X3874999Y-9028035D02*
X4160714Y-9028035D01*
X3982142Y-8778035D02*
X3982142Y-9420892D01*
X4017857Y-9492321D01*
X4089285Y-9528035D01*
X4160714Y-9528035D01*
X4732142Y-9492321D02*
X4660714Y-9528035D01*
X4517857Y-9528035D01*
X4446428Y-9492321D01*
X4410714Y-9456607D01*
X4375000Y-9385178D01*
X4375000Y-9170892D01*
X4410714Y-9099464D01*
X4446428Y-9063750D01*
X4517857Y-9028035D01*
X4660714Y-9028035D01*
X4732142Y-9063750D01*
X5053571Y-9528035D02*
X5053571Y-8778035D01*
X5375000Y-9528035D02*
X5375000Y-9135178D01*
X5339285Y-9063750D01*
X5267857Y-9028035D01*
X5160714Y-9028035D01*
X5089285Y-9063750D01*
X5053571Y-9099464D01*
X-4857142Y-10664107D02*
X-4892857Y-10699821D01*
X-5000000Y-10735535D01*
X-5071428Y-10735535D01*
X-5178571Y-10699821D01*
X-5250000Y-10628392D01*
X-5285714Y-10556964D01*
X-5321428Y-10414107D01*
X-5321428Y-10306964D01*
X-5285714Y-10164107D01*
X-5250000Y-10092678D01*
X-5178571Y-10021250D01*
X-5071428Y-9985535D01*
X-5000000Y-9985535D01*
X-4892857Y-10021250D01*
X-4857142Y-10056964D01*
X-4428571Y-10735535D02*
X-4500000Y-10699821D01*
X-4535714Y-10664107D01*
X-4571428Y-10592678D01*
X-4571428Y-10378392D01*
X-4535714Y-10306964D01*
X-4500000Y-10271250D01*
X-4428571Y-10235535D01*
X-4321428Y-10235535D01*
X-4250000Y-10271250D01*
X-4214285Y-10306964D01*
X-4178571Y-10378392D01*
X-4178571Y-10592678D01*
X-4214285Y-10664107D01*
X-4250000Y-10699821D01*
X-4321428Y-10735535D01*
X-4428571Y-10735535D01*
X-3857142Y-10235535D02*
X-3857142Y-10985535D01*
X-3857142Y-10271250D02*
X-3785714Y-10235535D01*
X-3642857Y-10235535D01*
X-3571428Y-10271250D01*
X-3535714Y-10306964D01*
X-3500000Y-10378392D01*
X-3500000Y-10592678D01*
X-3535714Y-10664107D01*
X-3571428Y-10699821D01*
X-3642857Y-10735535D01*
X-3785714Y-10735535D01*
X-3857142Y-10699821D01*
X-3250000Y-10235535D02*
X-3071428Y-10735535D01*
X-2892857Y-10235535D02*
X-3071428Y-10735535D01*
X-3142857Y-10914107D01*
X-3178571Y-10949821D01*
X-3250000Y-10985535D01*
X-2607142Y-10735535D02*
X-2607142Y-10235535D01*
X-2607142Y-10378392D02*
X-2571428Y-10306964D01*
X-2535714Y-10271250D01*
X-2464285Y-10235535D01*
X-2392857Y-10235535D01*
X-2142857Y-10735535D02*
X-2142857Y-10235535D01*
X-2142857Y-9985535D02*
X-2178571Y-10021250D01*
X-2142857Y-10056964D01*
X-2107142Y-10021250D01*
X-2142857Y-9985535D01*
X-2142857Y-10056964D01*
X-1464285Y-10235535D02*
X-1464285Y-10842678D01*
X-1500000Y-10914107D01*
X-1535714Y-10949821D01*
X-1607142Y-10985535D01*
X-1714285Y-10985535D01*
X-1785714Y-10949821D01*
X-1464285Y-10699821D02*
X-1535714Y-10735535D01*
X-1678571Y-10735535D01*
X-1750000Y-10699821D01*
X-1785714Y-10664107D01*
X-1821428Y-10592678D01*
X-1821428Y-10378392D01*
X-1785714Y-10306964D01*
X-1750000Y-10271250D01*
X-1678571Y-10235535D01*
X-1535714Y-10235535D01*
X-1464285Y-10271250D01*
X-1107142Y-10735535D02*
X-1107142Y-9985535D01*
X-785714Y-10735535D02*
X-785714Y-10342678D01*
X-821428Y-10271250D01*
X-892857Y-10235535D01*
X-1000000Y-10235535D01*
X-1071428Y-10271250D01*
X-1107142Y-10306964D01*
X-535714Y-10235535D02*
X-250000Y-10235535D01*
X-428571Y-9985535D02*
X-428571Y-10628392D01*
X-392857Y-10699821D01*
X-321428Y-10735535D01*
X-250000Y-10735535D01*
X1178571Y-10164107D02*
X1107142Y-10128392D01*
X964285Y-10128392D01*
X892857Y-10164107D01*
X821428Y-10235535D01*
X785714Y-10306964D01*
X785714Y-10449821D01*
X821428Y-10521250D01*
X892857Y-10592678D01*
X964285Y-10628392D01*
X1107142Y-10628392D01*
X1178571Y-10592678D01*
X1035714Y-9878392D02*
X857142Y-9914107D01*
X678571Y-10021250D01*
X571428Y-10199821D01*
X535714Y-10378392D01*
X571428Y-10556964D01*
X678571Y-10735535D01*
X857142Y-10842678D01*
X1035714Y-10878392D01*
X1214285Y-10842678D01*
X1392857Y-10735535D01*
X1499999Y-10556964D01*
X1535714Y-10378392D01*
X1499999Y-10199821D01*
X1392857Y-10021250D01*
X1214285Y-9914107D01*
X1035714Y-9878392D01*
X2392857Y-10056964D02*
X2428571Y-10021250D01*
X2499999Y-9985535D01*
X2678571Y-9985535D01*
X2749999Y-10021250D01*
X2785714Y-10056964D01*
X2821428Y-10128392D01*
X2821428Y-10199821D01*
X2785714Y-10306964D01*
X2357142Y-10735535D01*
X2821428Y-10735535D01*
X3285714Y-9985535D02*
X3357142Y-9985535D01*
X3428571Y-10021250D01*
X3464285Y-10056964D01*
X3499999Y-10128392D01*
X3535714Y-10271250D01*
X3535714Y-10449821D01*
X3499999Y-10592678D01*
X3464285Y-10664107D01*
X3428571Y-10699821D01*
X3357142Y-10735535D01*
X3285714Y-10735535D01*
X3214285Y-10699821D01*
X3178571Y-10664107D01*
X3142857Y-10592678D01*
X3107142Y-10449821D01*
X3107142Y-10271250D01*
X3142857Y-10128392D01*
X3178571Y-10056964D01*
X3214285Y-10021250D01*
X3285714Y-9985535D01*
X3821428Y-10056964D02*
X3857142Y-10021250D01*
X3928571Y-9985535D01*
X4107142Y-9985535D01*
X4178571Y-10021250D01*
X4214285Y-10056964D01*
X4249999Y-10128392D01*
X4249999Y-10199821D01*
X4214285Y-10306964D01*
X3785714Y-10735535D01*
X4249999Y-10735535D01*
X4892857Y-10235535D02*
X4892857Y-10735535D01*
X4714285Y-9949821D02*
X4535714Y-10485535D01*
X4999999Y-10485535D01*
X5321428Y-10699821D02*
X5321428Y-10735535D01*
X5285714Y-10806964D01*
X5250000Y-10842678D01*
X-5357142Y-11193035D02*
X-4928571Y-11193035D01*
X-5142857Y-11943035D02*
X-5142857Y-11193035D01*
X-4678571Y-11943035D02*
X-4678571Y-11193035D01*
X-4357142Y-11943035D02*
X-4357142Y-11550178D01*
X-4392857Y-11478750D01*
X-4464285Y-11443035D01*
X-4571428Y-11443035D01*
X-4642857Y-11478750D01*
X-4678571Y-11514464D01*
X-3714285Y-11907321D02*
X-3785714Y-11943035D01*
X-3928571Y-11943035D01*
X-4000000Y-11907321D01*
X-4035714Y-11835892D01*
X-4035714Y-11550178D01*
X-4000000Y-11478750D01*
X-3928571Y-11443035D01*
X-3785714Y-11443035D01*
X-3714285Y-11478750D01*
X-3678571Y-11550178D01*
X-3678571Y-11621607D01*
X-4035714Y-11693035D01*
X-2821428Y-11728750D02*
X-2464285Y-11728750D01*
X-2892857Y-11943035D02*
X-2642857Y-11193035D01*
X-2392857Y-11943035D01*
X-2142857Y-11943035D02*
X-2142857Y-11443035D01*
X-2142857Y-11193035D02*
X-2178571Y-11228750D01*
X-2142857Y-11264464D01*
X-2107142Y-11228750D01*
X-2142857Y-11193035D01*
X-2142857Y-11264464D01*
X-1785714Y-11943035D02*
X-1785714Y-11443035D01*
X-1785714Y-11585892D02*
X-1750000Y-11514464D01*
X-1714285Y-11478750D01*
X-1642857Y-11443035D01*
X-1571428Y-11443035D01*
X-1321428Y-11943035D02*
X-1321428Y-11193035D01*
X-1321428Y-11478750D02*
X-1250000Y-11443035D01*
X-1107142Y-11443035D01*
X-1035714Y-11478750D01*
X-1000000Y-11514464D01*
X-964285Y-11585892D01*
X-964285Y-11800178D01*
X-1000000Y-11871607D01*
X-1035714Y-11907321D01*
X-1107142Y-11943035D01*
X-1250000Y-11943035D01*
X-1321428Y-11907321D01*
X-321428Y-11943035D02*
X-321428Y-11550178D01*
X-357142Y-11478750D01*
X-428571Y-11443035D01*
X-571428Y-11443035D01*
X-642857Y-11478750D01*
X-321428Y-11907321D02*
X-392857Y-11943035D01*
X-571428Y-11943035D01*
X-642857Y-11907321D01*
X-678571Y-11835892D01*
X-678571Y-11764464D01*
X-642857Y-11693035D01*
X-571428Y-11657321D01*
X-392857Y-11657321D01*
X-321428Y-11621607D01*
X142857Y-11943035D02*
X71428Y-11907321D01*
X35714Y-11835892D01*
X35714Y-11193035D01*
X535714Y-11943035D02*
X464285Y-11907321D01*
X428571Y-11835892D01*
X428571Y-11193035D01*
X1714285Y-11943035D02*
X1714285Y-11550178D01*
X1678571Y-11478750D01*
X1607142Y-11443035D01*
X1464285Y-11443035D01*
X1392857Y-11478750D01*
X1714285Y-11907321D02*
X1642857Y-11943035D01*
X1464285Y-11943035D01*
X1392857Y-11907321D01*
X1357142Y-11835892D01*
X1357142Y-11764464D01*
X1392857Y-11693035D01*
X1464285Y-11657321D01*
X1642857Y-11657321D01*
X1714285Y-11621607D01*
X2392857Y-11443035D02*
X2392857Y-11943035D01*
X2071428Y-11443035D02*
X2071428Y-11835892D01*
X2107142Y-11907321D01*
X2178571Y-11943035D01*
X2285714Y-11943035D01*
X2357142Y-11907321D01*
X2392857Y-11871607D01*
X2642857Y-11443035D02*
X2928571Y-11443035D01*
X2749999Y-11193035D02*
X2749999Y-11835892D01*
X2785714Y-11907321D01*
X2857142Y-11943035D01*
X2928571Y-11943035D01*
X3178571Y-11943035D02*
X3178571Y-11193035D01*
X3499999Y-11943035D02*
X3499999Y-11550178D01*
X3464285Y-11478750D01*
X3392857Y-11443035D01*
X3285714Y-11443035D01*
X3214285Y-11478750D01*
X3178571Y-11514464D01*
X3964285Y-11943035D02*
X3892857Y-11907321D01*
X3857142Y-11871607D01*
X3821428Y-11800178D01*
X3821428Y-11585892D01*
X3857142Y-11514464D01*
X3892857Y-11478750D01*
X3964285Y-11443035D01*
X4071428Y-11443035D01*
X4142857Y-11478750D01*
X4178571Y-11514464D01*
X4214285Y-11585892D01*
X4214285Y-11800178D01*
X4178571Y-11871607D01*
X4142857Y-11907321D01*
X4071428Y-11943035D01*
X3964285Y-11943035D01*
X4535714Y-11943035D02*
X4535714Y-11443035D01*
X4535714Y-11585892D02*
X4571428Y-11514464D01*
X4607142Y-11478750D01*
X4678571Y-11443035D01*
X4750000Y-11443035D01*
X4964285Y-11907321D02*
X5035714Y-11943035D01*
X5178571Y-11943035D01*
X5250000Y-11907321D01*
X5285714Y-11835892D01*
X5285714Y-11800178D01*
X5250000Y-11728750D01*
X5178571Y-11693035D01*
X5071428Y-11693035D01*
X5000000Y-11657321D01*
X4964285Y-11585892D01*
X4964285Y-11550178D01*
X5000000Y-11478750D01*
X5071428Y-11443035D01*
X5178571Y-11443035D01*
X5250000Y-11478750D01*
X-3642857Y-12471964D02*
X-3607142Y-12436250D01*
X-3535714Y-12400535D01*
X-3357142Y-12400535D01*
X-3285714Y-12436250D01*
X-3250000Y-12471964D01*
X-3214285Y-12543392D01*
X-3214285Y-12614821D01*
X-3250000Y-12721964D01*
X-3678571Y-13150535D01*
X-3214285Y-13150535D01*
X-2750000Y-12400535D02*
X-2678571Y-12400535D01*
X-2607142Y-12436250D01*
X-2571428Y-12471964D01*
X-2535714Y-12543392D01*
X-2500000Y-12686250D01*
X-2500000Y-12864821D01*
X-2535714Y-13007678D01*
X-2571428Y-13079107D01*
X-2607142Y-13114821D01*
X-2678571Y-13150535D01*
X-2750000Y-13150535D01*
X-2821428Y-13114821D01*
X-2857142Y-13079107D01*
X-2892857Y-13007678D01*
X-2928571Y-12864821D01*
X-2928571Y-12686250D01*
X-2892857Y-12543392D01*
X-2857142Y-12471964D01*
X-2821428Y-12436250D01*
X-2750000Y-12400535D01*
X-2214285Y-12471964D02*
X-2178571Y-12436250D01*
X-2107142Y-12400535D01*
X-1928571Y-12400535D01*
X-1857142Y-12436250D01*
X-1821428Y-12471964D01*
X-1785714Y-12543392D01*
X-1785714Y-12614821D01*
X-1821428Y-12721964D01*
X-2250000Y-13150535D01*
X-1785714Y-13150535D01*
X-1142857Y-12650535D02*
X-1142857Y-13150535D01*
X-1321428Y-12364821D02*
X-1500000Y-12900535D01*
X-1035714Y-12900535D01*
X-750000Y-12864821D02*
X-178571Y-12864821D01*
X321428Y-12400535D02*
X392857Y-12400535D01*
X464285Y-12436250D01*
X500000Y-12471964D01*
X535714Y-12543392D01*
X571428Y-12686250D01*
X571428Y-12864821D01*
X535714Y-13007678D01*
X500000Y-13079107D01*
X464285Y-13114821D01*
X392857Y-13150535D01*
X321428Y-13150535D01*
X250000Y-13114821D01*
X214285Y-13079107D01*
X178571Y-13007678D01*
X142857Y-12864821D01*
X142857Y-12686250D01*
X178571Y-12543392D01*
X214285Y-12471964D01*
X250000Y-12436250D01*
X321428Y-12400535D01*
X857142Y-12471964D02*
X892857Y-12436250D01*
X964285Y-12400535D01*
X1142857Y-12400535D01*
X1214285Y-12436250D01*
X1250000Y-12471964D01*
X1285714Y-12543392D01*
X1285714Y-12614821D01*
X1250000Y-12721964D01*
X821428Y-13150535D01*
X1285714Y-13150535D01*
X1607142Y-12864821D02*
X2178571Y-12864821D01*
X2678571Y-12400535D02*
X2750000Y-12400535D01*
X2821428Y-12436250D01*
X2857142Y-12471964D01*
X2892857Y-12543392D01*
X2928571Y-12686250D01*
X2928571Y-12864821D01*
X2892857Y-13007678D01*
X2857142Y-13079107D01*
X2821428Y-13114821D01*
X2750000Y-13150535D01*
X2678571Y-13150535D01*
X2607142Y-13114821D01*
X2571428Y-13079107D01*
X2535714Y-13007678D01*
X2500000Y-12864821D01*
X2500000Y-12686250D01*
X2535714Y-12543392D01*
X2571428Y-12471964D01*
X2607142Y-12436250D01*
X2678571Y-12400535D01*
X3571428Y-12650535D02*
X3571428Y-13150535D01*
X3392857Y-12364821D02*
X3214285Y-12900535D01*
X3678571Y-12900535D01*
%TO.C,REF\u002A\u002A*%
X11666666Y-11452380D02*
X11333333Y-10976190D01*
X11095238Y-11452380D02*
X11095238Y-10452380D01*
X11476190Y-10452380D01*
X11571428Y-10500000D01*
X11619047Y-10547619D01*
X11666666Y-10642857D01*
X11666666Y-10785714D01*
X11619047Y-10880952D01*
X11571428Y-10928571D01*
X11476190Y-10976190D01*
X11095238Y-10976190D01*
X12095238Y-10928571D02*
X12428571Y-10928571D01*
X12571428Y-11452380D02*
X12095238Y-11452380D01*
X12095238Y-10452380D01*
X12571428Y-10452380D01*
X13333333Y-10928571D02*
X13000000Y-10928571D01*
X13000000Y-11452380D02*
X13000000Y-10452380D01*
X13476190Y-10452380D01*
X14000000Y-10452380D02*
X14000000Y-10690476D01*
X13761904Y-10595238D02*
X14000000Y-10690476D01*
X14238095Y-10595238D01*
X13857142Y-10880952D02*
X14000000Y-10690476D01*
X14142857Y-10880952D01*
X14761904Y-10452380D02*
X14761904Y-10690476D01*
X14523809Y-10595238D02*
X14761904Y-10690476D01*
X15000000Y-10595238D01*
X14619047Y-10880952D02*
X14761904Y-10690476D01*
X14904761Y-10880952D01*
X12666666Y11047619D02*
X12333333Y11523809D01*
X12095238Y11047619D02*
X12095238Y12047619D01*
X12476190Y12047619D01*
X12571428Y12000000D01*
X12619047Y11952380D01*
X12666666Y11857142D01*
X12666666Y11714285D01*
X12619047Y11619047D01*
X12571428Y11571428D01*
X12476190Y11523809D01*
X12095238Y11523809D01*
X13095238Y11571428D02*
X13428571Y11571428D01*
X13571428Y11047619D02*
X13095238Y11047619D01*
X13095238Y12047619D01*
X13571428Y12047619D01*
X14333333Y11571428D02*
X14000000Y11571428D01*
X14000000Y11047619D02*
X14000000Y12047619D01*
X14476190Y12047619D01*
X15000000Y12047619D02*
X15000000Y11809523D01*
X14761904Y11904761D02*
X15000000Y11809523D01*
X15238095Y11904761D01*
X14857142Y11619047D02*
X15000000Y11809523D01*
X15142857Y11619047D01*
X15761904Y12047619D02*
X15761904Y11809523D01*
X15523809Y11904761D02*
X15761904Y11809523D01*
X16000000Y11904761D01*
X15619047Y11619047D02*
X15761904Y11809523D01*
X15904761Y11619047D01*
X-1333333Y-17452380D02*
X-1666666Y-16976190D01*
X-1904761Y-17452380D02*
X-1904761Y-16452380D01*
X-1523809Y-16452380D01*
X-1428571Y-16500000D01*
X-1380952Y-16547619D01*
X-1333333Y-16642857D01*
X-1333333Y-16785714D01*
X-1380952Y-16880952D01*
X-1428571Y-16928571D01*
X-1523809Y-16976190D01*
X-1904761Y-16976190D01*
X-904761Y-16928571D02*
X-571428Y-16928571D01*
X-428571Y-17452380D02*
X-904761Y-17452380D01*
X-904761Y-16452380D01*
X-428571Y-16452380D01*
X333333Y-16928571D02*
X0Y-16928571D01*
X0Y-17452380D02*
X0Y-16452380D01*
X476190Y-16452380D01*
X999999Y-16452380D02*
X999999Y-16690476D01*
X761904Y-16595238D02*
X999999Y-16690476D01*
X1238095Y-16595238D01*
X857142Y-16880952D02*
X999999Y-16690476D01*
X1142857Y-16880952D01*
X1761904Y-16452380D02*
X1761904Y-16690476D01*
X1523809Y-16595238D02*
X1761904Y-16690476D01*
X1999999Y-16595238D01*
X1619047Y-16880952D02*
X1761904Y-16690476D01*
X1904761Y-16880952D01*
X-12333333Y11547619D02*
X-12666666Y12023809D01*
X-12904761Y11547619D02*
X-12904761Y12547619D01*
X-12523809Y12547619D01*
X-12428571Y12500000D01*
X-12380952Y12452380D01*
X-12333333Y12357142D01*
X-12333333Y12214285D01*
X-12380952Y12119047D01*
X-12428571Y12071428D01*
X-12523809Y12023809D01*
X-12904761Y12023809D01*
X-11904761Y12071428D02*
X-11571428Y12071428D01*
X-11428571Y11547619D02*
X-11904761Y11547619D01*
X-11904761Y12547619D01*
X-11428571Y12547619D01*
X-10666666Y12071428D02*
X-11000000Y12071428D01*
X-11000000Y11547619D02*
X-11000000Y12547619D01*
X-10523809Y12547619D01*
X-10000000Y12547619D02*
X-10000000Y12309523D01*
X-10238095Y12404761D02*
X-10000000Y12309523D01*
X-9761904Y12404761D01*
X-10142857Y12119047D02*
X-10000000Y12309523D01*
X-9857142Y12119047D01*
X-9238095Y12547619D02*
X-9238095Y12309523D01*
X-9476190Y12404761D02*
X-9238095Y12309523D01*
X-9000000Y12404761D01*
X-9380952Y12119047D02*
X-9238095Y12309523D01*
X-9095238Y12119047D01*
X-1333333Y16547619D02*
X-1666666Y17023809D01*
X-1904761Y16547619D02*
X-1904761Y17547619D01*
X-1523809Y17547619D01*
X-1428571Y17500000D01*
X-1380952Y17452380D01*
X-1333333Y17357142D01*
X-1333333Y17214285D01*
X-1380952Y17119047D01*
X-1428571Y17071428D01*
X-1523809Y17023809D01*
X-1904761Y17023809D01*
X-904761Y17071428D02*
X-571428Y17071428D01*
X-428571Y16547619D02*
X-904761Y16547619D01*
X-904761Y17547619D01*
X-428571Y17547619D01*
X333333Y17071428D02*
X0Y17071428D01*
X0Y16547619D02*
X0Y17547619D01*
X476190Y17547619D01*
X999999Y17547619D02*
X999999Y17309523D01*
X761904Y17404761D02*
X999999Y17309523D01*
X1238095Y17404761D01*
X857142Y17119047D02*
X999999Y17309523D01*
X1142857Y17119047D01*
X1761904Y17547619D02*
X1761904Y17309523D01*
X1523809Y17404761D02*
X1761904Y17309523D01*
X1999999Y17404761D01*
X1619047Y17119047D02*
X1761904Y17309523D01*
X1904761Y17119047D01*
X-14333333Y-11452380D02*
X-14666666Y-10976190D01*
X-14904761Y-11452380D02*
X-14904761Y-10452380D01*
X-14523809Y-10452380D01*
X-14428571Y-10500000D01*
X-14380952Y-10547619D01*
X-14333333Y-10642857D01*
X-14333333Y-10785714D01*
X-14380952Y-10880952D01*
X-14428571Y-10928571D01*
X-14523809Y-10976190D01*
X-14904761Y-10976190D01*
X-13904761Y-10928571D02*
X-13571428Y-10928571D01*
X-13428571Y-11452380D02*
X-13904761Y-11452380D01*
X-13904761Y-10452380D01*
X-13428571Y-10452380D01*
X-12666666Y-10928571D02*
X-13000000Y-10928571D01*
X-13000000Y-11452380D02*
X-13000000Y-10452380D01*
X-12523809Y-10452380D01*
X-12000000Y-10452380D02*
X-12000000Y-10690476D01*
X-12238095Y-10595238D02*
X-12000000Y-10690476D01*
X-11761904Y-10595238D01*
X-12142857Y-10880952D02*
X-12000000Y-10690476D01*
X-11857142Y-10880952D01*
X-11238095Y-10452380D02*
X-11238095Y-10690476D01*
X-11476190Y-10595238D02*
X-11238095Y-10690476D01*
X-11000000Y-10595238D01*
X-11380952Y-10880952D02*
X-11238095Y-10690476D01*
X-11095238Y-10880952D01*
D11*
%TO.C,SW_DN1*%
X2048000Y1143000D02*
X2048000Y2159000D01*
D12*
X1794000Y-1270000D02*
X2048000Y-1270000D01*
D11*
X2048000Y-2159000D02*
X2048000Y-1270000D01*
D12*
X-3794000Y1270000D02*
X-3794000Y-1270000D01*
D11*
X-4048000Y2159000D02*
X-4048000Y1270000D01*
X-4048000Y1270000D02*
X-4048000Y-1270000D01*
X-238000Y3048000D02*
X16000Y3048000D01*
X-238000Y-3048000D02*
X16000Y-3048000D01*
D12*
X1794000Y1143000D02*
X2048000Y1143000D01*
X-4048000Y-1270000D02*
X-3794000Y-1270000D01*
D11*
X-1762000Y3048000D02*
X-2016000Y3048000D01*
X-1762000Y-3048000D02*
X-2016000Y-3048000D01*
D12*
X-3794000Y1270000D02*
X-4048000Y1270000D01*
X1794000Y1143000D02*
X1794000Y-1270000D01*
D11*
X2048000Y-1270000D02*
X2048000Y1143000D01*
X-4048000Y-1270000D02*
X-4048000Y-2159000D01*
D13*
X-4475000Y-3850000D02*
G75*
G03*
X-4475000Y-3850000I-125000J0D01*
G01*
D11*
X750000Y0D02*
G75*
G03*
X750000Y0I-1750000J0D01*
G01*
D14*
%TO.C,J1*%
X3140000Y-1780000D02*
X3140000Y3235000D01*
X3686529Y-1780000D02*
X3140000Y-1780000D01*
X3942470Y3235000D02*
X3140000Y3235000D01*
X5360000Y-2540000D02*
X5360000Y-3300000D01*
X5360000Y-1780000D02*
X4813471Y-1780000D01*
X5360000Y-3300000D02*
X4250000Y-3300000D01*
X5360000Y-1780000D02*
X5360000Y3235000D01*
X5360000Y3235000D02*
X4557530Y3235000D01*
D11*
%TO.C,SW_PTT1*%
X-11876940Y1877000D02*
X-11876940Y3777000D01*
X-11876940Y3777000D02*
X-8307788Y3777000D01*
X-15776941Y-1877001D02*
X-15776941Y1877000D01*
X-11876940Y-3777001D02*
X-11876940Y-1877001D01*
X-5372940Y-3777001D02*
X-5692212Y-3777001D01*
X-8307788Y-3777001D02*
X-11876940Y-3777001D01*
X-11876940Y-1877001D02*
X-15776941Y-1877001D01*
X-5692212Y3777000D02*
X-5372940Y3777000D01*
X-5372940Y3777000D02*
X-5372940Y-3777001D01*
X-15776941Y1877000D02*
X-11876940Y1877000D01*
D15*
X-13183000Y2250000D02*
G75*
G03*
X-13183000Y2250000I-127000J0D01*
G01*
D12*
%TO.C,SW_UP1*%
X12794000Y-1270000D02*
X13048000Y-1270000D01*
D11*
X10762000Y3048000D02*
X11016000Y3048000D01*
X10762000Y-3048000D02*
X11016000Y-3048000D01*
X6952000Y-1270000D02*
X6952000Y-2159000D01*
X9238000Y-3048000D02*
X8984000Y-3048000D01*
D12*
X12794000Y1143000D02*
X13048000Y1143000D01*
D11*
X13048000Y-1270000D02*
X13048000Y1143000D01*
X6952000Y1270000D02*
X6952000Y-1270000D01*
D12*
X6952000Y-1270000D02*
X7206000Y-1270000D01*
D11*
X9238000Y3048000D02*
X8984000Y3048000D01*
D12*
X7206000Y1270000D02*
X6952000Y1270000D01*
D11*
X6952000Y2159000D02*
X6952000Y1270000D01*
X13048000Y-2159000D02*
X13048000Y-1270000D01*
D12*
X7206000Y1270000D02*
X7206000Y-1270000D01*
X12794000Y1143000D02*
X12794000Y-1270000D01*
D11*
X13048000Y1143000D02*
X13048000Y2159000D01*
D13*
X6525000Y-3850000D02*
G75*
G03*
X6525000Y-3850000I-125000J0D01*
G01*
D11*
X11750000Y0D02*
G75*
G03*
X11750000Y0I-1750000J0D01*
G01*
%TO.C,G\u002A\u002A\u002A*%
G36*
X457393Y14458507D02*
G01*
X795243Y14371129D01*
X1122553Y14236779D01*
X1306838Y14136907D01*
X1470307Y14024633D01*
X1643251Y13879678D01*
X1813315Y13714395D01*
X1968145Y13541141D01*
X2095385Y13372270D01*
X2136906Y13306839D01*
X2205555Y13181269D01*
X2275779Y13036648D01*
X2334211Y12900781D01*
X2342694Y12878738D01*
X2375195Y12790116D01*
X2402973Y12707413D01*
X2426398Y12625961D01*
X2445839Y12541089D01*
X2461665Y12448128D01*
X2474246Y12342407D01*
X2483952Y12219256D01*
X2491150Y12074006D01*
X2496211Y11901987D01*
X2499503Y11698529D01*
X2501396Y11458961D01*
X2502260Y11178614D01*
X2502463Y10858102D01*
X2502463Y9497537D01*
X1376354Y9497537D01*
X1376354Y9900381D01*
X1215782Y9810584D01*
X918799Y9671966D01*
X598738Y9572847D01*
X265177Y9514799D01*
X-72308Y9499391D01*
X-404138Y9528196D01*
X-454218Y9536677D01*
X-785436Y9621416D01*
X-1098718Y9750570D01*
X-1390322Y9920561D01*
X-1656501Y10127808D01*
X-1893511Y10368731D01*
X-2097608Y10639750D01*
X-2265046Y10937286D01*
X-2392081Y11257759D01*
X-2442049Y11436946D01*
X-2469728Y11597245D01*
X-2486429Y11790143D01*
X-2488738Y11874877D01*
X-2257984Y11874877D01*
X-2240912Y11730986D01*
X-2226657Y11631207D01*
X-2209103Y11535250D01*
X-2199394Y11492757D01*
X-2174948Y11398420D01*
X-1373138Y11400121D01*
X-1150798Y11400457D01*
X-972669Y11400200D01*
X-832910Y11399023D01*
X-725684Y11396596D01*
X-645151Y11392591D01*
X-585473Y11386680D01*
X-540811Y11378535D01*
X-505327Y11367826D01*
X-473181Y11354226D01*
X-461936Y11348866D01*
X-341797Y11269114D01*
X-236001Y11159558D01*
X-161781Y11038202D01*
X-159530Y11032920D01*
X-140095Y10960418D01*
X-127878Y10864666D01*
X-125673Y10805878D01*
X-148040Y10640510D01*
X-209100Y10498230D01*
X-301803Y10381828D01*
X-419096Y10294089D01*
X-553926Y10237801D01*
X-699242Y10215751D01*
X-847991Y10230728D01*
X-993120Y10285517D01*
X-1127578Y10382907D01*
X-1147164Y10402152D01*
X-1219339Y10492606D01*
X-1244714Y10569664D01*
X-1223949Y10635817D01*
X-1212782Y10649679D01*
X-1153159Y10692271D01*
X-1092740Y10686586D01*
X-1028527Y10632080D01*
X-1013480Y10613334D01*
X-942903Y10546213D01*
X-849685Y10489488D01*
X-754712Y10454435D01*
X-708085Y10448473D01*
X-633991Y10465552D01*
X-547306Y10508824D01*
X-467846Y10566341D01*
X-416531Y10624249D01*
X-381349Y10719597D01*
X-371921Y10829079D01*
X-388131Y10932123D01*
X-418624Y10994964D01*
X-474493Y11057035D01*
X-535121Y11110080D01*
X-557366Y11124951D01*
X-583701Y11136768D01*
X-619971Y11145964D01*
X-672020Y11152978D01*
X-745695Y11158244D01*
X-846840Y11162200D01*
X-981301Y11165281D01*
X-1154923Y11167923D01*
X-1340619Y11170184D01*
X-1559338Y11172845D01*
X-1732580Y11174417D01*
X-1864916Y11173706D01*
X-1960920Y11169516D01*
X-2025162Y11160654D01*
X-2062216Y11145925D01*
X-2076652Y11124133D01*
X-2073044Y11094085D01*
X-2055963Y11054586D01*
X-2029980Y11004441D01*
X-2023473Y10991762D01*
X-1854289Y10712986D01*
X-1646091Y10460982D01*
X-1404404Y10240009D01*
X-1134754Y10054321D01*
X-842665Y9908175D01*
X-533663Y9805827D01*
X-462566Y9789312D01*
X-298845Y9764828D01*
X-105978Y9752543D01*
X96631Y9752494D01*
X289578Y9764720D01*
X445242Y9787529D01*
X767539Y9879308D01*
X1073003Y10017879D01*
X1251392Y10125955D01*
X1345240Y10186824D01*
X1425637Y10235453D01*
X1482461Y10265923D01*
X1503375Y10273301D01*
X1545303Y10257731D01*
X1580837Y10231885D01*
X1603685Y10202556D01*
X1617619Y10157661D01*
X1624602Y10085929D01*
X1626597Y9976090D01*
X1626601Y9969127D01*
X1626601Y9747784D01*
X2254655Y9747784D01*
X2246157Y11080345D01*
X2244232Y11373150D01*
X2242372Y11620432D01*
X2240385Y11826718D01*
X2238078Y11996536D01*
X2235260Y12134411D01*
X2231739Y12244869D01*
X2227321Y12332439D01*
X2221814Y12401645D01*
X2215027Y12457014D01*
X2206767Y12503074D01*
X2196841Y12544350D01*
X2185058Y12585368D01*
X2181759Y12596246D01*
X2057672Y12923310D01*
X1894957Y13220827D01*
X1695972Y13486436D01*
X1463077Y13717778D01*
X1198630Y13912493D01*
X904991Y14068221D01*
X600591Y14178060D01*
X421707Y14216324D01*
X213011Y14240270D01*
X-7157Y14249222D01*
X-220457Y14242506D01*
X-408547Y14219446D01*
X-426863Y14215892D01*
X-741122Y14128058D01*
X-1039389Y13997098D01*
X-1315952Y13827094D01*
X-1565099Y13622128D01*
X-1781119Y13386280D01*
X-1958300Y13123631D01*
X-1960240Y13120204D01*
X-2012561Y13028881D01*
X-2050937Y12958169D01*
X-2071108Y12905546D01*
X-2068813Y12868493D01*
X-2039793Y12844490D01*
X-1979788Y12831015D01*
X-1884537Y12825550D01*
X-1749780Y12825573D01*
X-1571258Y12828564D01*
X-1470197Y12830291D01*
X-1272792Y12833910D01*
X-1119050Y12838074D01*
X-1002585Y12843262D01*
X-917010Y12849952D01*
X-855938Y12858625D01*
X-812985Y12869758D01*
X-785736Y12881628D01*
X-690441Y12957330D01*
X-631139Y13055404D01*
X-606768Y13165598D01*
X-616263Y13277656D01*
X-658562Y13381326D01*
X-732601Y13466351D01*
X-837316Y13522479D01*
X-852665Y13526995D01*
X-984672Y13539383D01*
X-1106509Y13502788D01*
X-1217995Y13417271D01*
X-1232617Y13401566D01*
X-1295092Y13337110D01*
X-1341301Y13307683D01*
X-1384805Y13308121D01*
X-1428050Y13327186D01*
X-1469308Y13374035D01*
X-1474337Y13443515D01*
X-1444278Y13524967D01*
X-1400280Y13586494D01*
X-1279201Y13689526D01*
X-1136858Y13754586D01*
X-983149Y13781723D01*
X-827972Y13770987D01*
X-681224Y13722428D01*
X-552804Y13636096D01*
X-501161Y13581963D01*
X-435550Y13481304D01*
X-383652Y13362688D01*
X-354081Y13247857D01*
X-350345Y13201267D01*
X-369287Y13070093D01*
X-419805Y12934243D01*
X-492441Y12817105D01*
X-516994Y12789249D01*
X-569483Y12737098D01*
X-618741Y12695624D01*
X-671136Y12663600D01*
X-733040Y12639801D01*
X-810821Y12622999D01*
X-910850Y12611970D01*
X-1039498Y12605486D01*
X-1203135Y12602322D01*
X-1408130Y12601251D01*
X-1494258Y12601141D01*
X-2175214Y12600592D01*
X-2199527Y12506749D01*
X-2216584Y12426703D01*
X-2233319Y12325831D01*
X-2240912Y12269015D01*
X-2257984Y12125124D01*
X-852479Y12125124D01*
X-544317Y12125119D01*
X-282139Y12125331D01*
X-61880Y12126103D01*
X120528Y12127776D01*
X269148Y12130691D01*
X388047Y12135190D01*
X481290Y12141614D01*
X552943Y12150304D01*
X607071Y12161603D01*
X647740Y12175851D01*
X679016Y12193391D01*
X704963Y12214563D01*
X729648Y12239710D01*
X748077Y12259565D01*
X799462Y12347540D01*
X820864Y12458031D01*
X810669Y12572318D01*
X781626Y12648707D01*
X701379Y12746276D01*
X592808Y12804130D01*
X461232Y12819609D01*
X442451Y12818347D01*
X362756Y12805276D01*
X299314Y12775519D01*
X230914Y12718372D01*
X216282Y12704197D01*
X126202Y12630318D01*
X52343Y12602357D01*
X-7399Y12619658D01*
X-20020Y12630621D01*
X-48193Y12689020D01*
X-36616Y12759315D01*
X7858Y12835154D01*
X78374Y12910179D01*
X168081Y12978037D01*
X270126Y13032371D01*
X377655Y13066828D01*
X460052Y13075815D01*
X613275Y13058549D01*
X748045Y13002485D01*
X876208Y12902477D01*
X889759Y12889223D01*
X996918Y12751856D01*
X1059151Y12601425D01*
X1075209Y12444466D01*
X1043841Y12287515D01*
X1016933Y12224591D01*
X990184Y12169392D01*
X976446Y12137957D01*
X975960Y12135991D01*
X998050Y12128484D01*
X1053659Y12117197D01*
X1082315Y12112322D01*
X1266940Y12059482D01*
X1435336Y11961883D01*
X1522441Y11888767D01*
X1649868Y11737631D01*
X1735193Y11567107D01*
X1778415Y11384870D01*
X1779534Y11198592D01*
X1738549Y11015947D01*
X1655462Y10844608D01*
X1530272Y10692249D01*
X1522441Y10684830D01*
X1392267Y10577836D01*
X1265188Y10509204D01*
X1124862Y10472547D01*
X954946Y10461479D01*
X950936Y10461475D01*
X822757Y10465346D01*
X726653Y10478855D01*
X645114Y10504838D01*
X622552Y10514716D01*
X494833Y10590363D01*
X371601Y10692492D01*
X271915Y10804565D01*
X248345Y10839431D01*
X215862Y10897373D01*
X209874Y10935638D01*
X228556Y10975817D01*
X235863Y10987160D01*
X279335Y11033849D01*
X329430Y11044312D01*
X391906Y11016811D01*
X472519Y10949606D01*
X520943Y10901075D01*
X624684Y10803734D01*
X713127Y10745195D01*
X763251Y10726042D01*
X938656Y10700837D01*
X1102327Y10719221D01*
X1248307Y10776874D01*
X1370642Y10869480D01*
X1463377Y10992722D01*
X1520555Y11142283D01*
X1536753Y11286798D01*
X1516570Y11448204D01*
X1453609Y11589932D01*
X1347173Y11717409D01*
X1315715Y11747491D01*
X1286011Y11773476D01*
X1254343Y11795664D01*
X1216991Y11814355D01*
X1170236Y11829849D01*
X1110359Y11842445D01*
X1033642Y11852444D01*
X936365Y11860144D01*
X814809Y11865846D01*
X665255Y11869849D01*
X483984Y11872454D01*
X267277Y11873959D01*
X11415Y11874665D01*
X-287321Y11874871D01*
X-606621Y11874877D01*
X-2257984Y11874877D01*
X-2488738Y11874877D01*
X-2492131Y11999405D01*
X-2486815Y12208795D01*
X-2470460Y12402077D01*
X-2443478Y12561171D01*
X-2342544Y12885640D01*
X-2197779Y13193381D01*
X-2013396Y13479521D01*
X-1793608Y13739188D01*
X-1542626Y13967509D01*
X-1264663Y14159614D01*
X-963930Y14310628D01*
X-913618Y14330792D01*
X-576503Y14435054D01*
X-232770Y14490843D01*
X113292Y14498536D01*
X457393Y14458507D01*
G37*
%TD*%
M02*
