%TF.GenerationSoftware,KiCad,Pcbnew,6.0.11-2627ca5db0~126~ubuntu22.04.1*%
%TF.CreationDate,2024-02-04T10:42:42-08:00*%
%TF.ProjectId,stick-switch,73746963-6b2d-4737-9769-7463682e6b69,rev?*%
%TF.SameCoordinates,Original*%
%TF.FileFunction,Legend,Bot*%
%TF.FilePolarity,Positive*%
%FSLAX46Y46*%
G04 Gerber Fmt 4.6, Leading zero omitted, Abs format (unit mm)*
G04 Created by KiCad (PCBNEW 6.0.11-2627ca5db0~126~ubuntu22.04.1) date 2024-02-04 10:42:42*
%MOMM*%
%LPD*%
G01*
G04 APERTURE LIST*
%ADD10C,0.150000*%
%ADD11C,0.254000*%
G04 APERTURE END LIST*
D10*
X9525000Y0D02*
G75*
G03*
X9525000Y0I-9525000J0D01*
G01*
%TO.C,SW_DN1*%
X-2595234Y-5287977D02*
X-2547615Y-5430835D01*
X-2547615Y-5668933D01*
X-2595234Y-5764171D01*
X-2642854Y-5811791D01*
X-2738093Y-5859410D01*
X-2833332Y-5859410D01*
X-2928570Y-5811791D01*
X-2976190Y-5764171D01*
X-3023809Y-5668933D01*
X-3071429Y-5478455D01*
X-3119048Y-5383216D01*
X-3166668Y-5335597D01*
X-3261906Y-5287977D01*
X-3357145Y-5287977D01*
X-3452384Y-5335597D01*
X-3500004Y-5383216D01*
X-3547623Y-5478455D01*
X-3547623Y-5716552D01*
X-3500004Y-5859410D01*
X-3547623Y-6192746D02*
X-2547615Y-6430843D01*
X-3261906Y-6621321D01*
X-2547615Y-6811799D01*
X-3547623Y-7049896D01*
X-2452376Y-7192754D02*
X-2452376Y-7954665D01*
X-2547615Y-8192762D02*
X-3547623Y-8192762D01*
X-3547623Y-8430860D01*
X-3500004Y-8573718D01*
X-3404765Y-8668957D01*
X-3309526Y-8716576D01*
X-3119048Y-8764196D01*
X-2976190Y-8764196D01*
X-2785712Y-8716576D01*
X-2690473Y-8668957D01*
X-2595234Y-8573718D01*
X-2547615Y-8430860D01*
X-2547615Y-8192762D01*
X-2547615Y-9192770D02*
X-3547623Y-9192770D01*
X-2547615Y-9764204D01*
X-3547623Y-9764204D01*
X-2547615Y-10764212D02*
X-2547615Y-10192778D01*
X-2547615Y-10478495D02*
X-3547623Y-10478495D01*
X-3404765Y-10383256D01*
X-3309526Y-10288017D01*
X-3261906Y-10192778D01*
%TO.C,J1*%
X3452380Y-4666666D02*
X4166666Y-4666666D01*
X4309523Y-4619047D01*
X4404761Y-4523809D01*
X4452380Y-4380952D01*
X4452380Y-4285714D01*
X4452380Y-5666666D02*
X4452380Y-5095238D01*
X4452380Y-5380952D02*
X3452380Y-5380952D01*
X3595238Y-5285714D01*
X3690476Y-5190476D01*
X3738095Y-5095238D01*
%TO.C,SW_PTT1*%
X-5595238Y-5287976D02*
X-5547619Y-5430833D01*
X-5547619Y-5668928D01*
X-5595238Y-5764166D01*
X-5642857Y-5811785D01*
X-5738095Y-5859404D01*
X-5833333Y-5859404D01*
X-5928571Y-5811785D01*
X-5976190Y-5764166D01*
X-6023809Y-5668928D01*
X-6071428Y-5478452D01*
X-6119047Y-5383214D01*
X-6166666Y-5335595D01*
X-6261904Y-5287976D01*
X-6357142Y-5287976D01*
X-6452380Y-5335595D01*
X-6500000Y-5383214D01*
X-6547619Y-5478452D01*
X-6547619Y-5716547D01*
X-6500000Y-5859404D01*
X-6547619Y-6192738D02*
X-5547619Y-6430833D01*
X-6261904Y-6621309D01*
X-5547619Y-6811785D01*
X-6547619Y-7049880D01*
X-5452380Y-7192738D02*
X-5452380Y-7954642D01*
X-5547619Y-8192738D02*
X-6547619Y-8192738D01*
X-6547619Y-8573690D01*
X-6500000Y-8668928D01*
X-6452380Y-8716547D01*
X-6357142Y-8764166D01*
X-6214285Y-8764166D01*
X-6119047Y-8716547D01*
X-6071428Y-8668928D01*
X-6023809Y-8573690D01*
X-6023809Y-8192738D01*
X-6547619Y-9049880D02*
X-6547619Y-9621309D01*
X-5547619Y-9335595D02*
X-6547619Y-9335595D01*
X-6547619Y-9811785D02*
X-6547619Y-10383214D01*
X-5547619Y-10097500D02*
X-6547619Y-10097500D01*
X-5547619Y-11240357D02*
X-5547619Y-10668928D01*
X-5547619Y-10954642D02*
X-6547619Y-10954642D01*
X-6404761Y-10859404D01*
X-6309523Y-10764166D01*
X-6261904Y-10668928D01*
%TO.C,SW_UP1*%
X6404765Y-5287977D02*
X6452384Y-5430836D01*
X6452384Y-5668933D01*
X6404765Y-5764172D01*
X6357145Y-5811791D01*
X6261906Y-5859410D01*
X6166668Y-5859410D01*
X6071429Y-5811791D01*
X6023809Y-5764172D01*
X5976190Y-5668933D01*
X5928570Y-5478455D01*
X5880951Y-5383216D01*
X5833332Y-5335597D01*
X5738093Y-5287977D01*
X5642854Y-5287977D01*
X5547615Y-5335597D01*
X5499996Y-5383216D01*
X5452376Y-5478455D01*
X5452376Y-5716552D01*
X5499996Y-5859410D01*
X5452376Y-6192746D02*
X6452384Y-6430844D01*
X5738093Y-6621321D01*
X6452384Y-6811799D01*
X5452376Y-7049896D01*
X6547623Y-7192754D02*
X6547623Y-7954665D01*
X5452376Y-8192762D02*
X6261906Y-8192762D01*
X6357145Y-8240382D01*
X6404765Y-8288001D01*
X6452384Y-8383240D01*
X6452384Y-8573718D01*
X6404765Y-8668957D01*
X6357145Y-8716576D01*
X6261906Y-8764196D01*
X5452376Y-8764196D01*
X6452384Y-9240390D02*
X5452376Y-9240390D01*
X5452376Y-9621345D01*
X5499996Y-9716584D01*
X5547615Y-9764204D01*
X5642854Y-9811823D01*
X5785712Y-9811823D01*
X5880951Y-9764204D01*
X5928570Y-9716584D01*
X5976190Y-9621345D01*
X5976190Y-9240390D01*
X6452384Y-10764212D02*
X6452384Y-10192778D01*
X6452384Y-10478495D02*
X5452376Y-10478495D01*
X5595234Y-10383256D01*
X5690473Y-10288017D01*
X5738093Y-10192778D01*
D11*
%TO.C,SW_PTT1*%
X-13183000Y2250000D02*
G75*
G03*
X-13183000Y2250000I-127000J0D01*
G01*
%TD*%
M02*
