%TF.GenerationSoftware,KiCad,Pcbnew,6.0.11-2627ca5db0~126~ubuntu22.04.1*%
%TF.CreationDate,2024-02-04T10:42:47-08:00*%
%TF.ProjectId,stick-switch,73746963-6b2d-4737-9769-7463682e6b69,rev?*%
%TF.SameCoordinates,Original*%
%TF.FileFunction,Drillmap*%
%TF.FilePolarity,Positive*%
%FSLAX45Y45*%
G04 Gerber Fmt 4.5, Leading zero omitted, Abs format (unit mm)*
G04 Created by KiCad (PCBNEW 6.0.11-2627ca5db0~126~ubuntu22.04.1) date 2024-02-04 10:42:47*
%MOMM*%
%LPD*%
G01*
G04 APERTURE LIST*
%ADD10C,0.100000*%
%ADD11C,0.200000*%
%ADD12C,0.210000*%
G04 APERTURE END LIST*
D10*
X1500000Y0D02*
G75*
G03*
X1500000Y0I-1500000J0D01*
G01*
D11*
D12*
X-1005000Y905000D02*
X-795000Y695000D01*
X-795000Y905000D02*
X-1005000Y695000D01*
X-1005000Y-695000D02*
X-795000Y-905000D01*
X-795000Y-695000D02*
X-1005000Y-905000D01*
X-105000Y805000D02*
X105000Y595000D01*
X105000Y805000D02*
X-105000Y595000D01*
X-105000Y-595000D02*
X105000Y-805000D01*
X105000Y-595000D02*
X-105000Y-805000D01*
X795000Y905000D02*
X1005000Y695000D01*
X1005000Y905000D02*
X795000Y695000D01*
X795000Y-695000D02*
X1005000Y-905000D01*
X1005000Y-695000D02*
X795000Y-905000D01*
D11*
X-1247381Y-1815476D02*
X-1247381Y-1615476D01*
X-1199762Y-1615476D01*
X-1171190Y-1625000D01*
X-1152143Y-1644048D01*
X-1142619Y-1663095D01*
X-1133095Y-1701190D01*
X-1133095Y-1729762D01*
X-1142619Y-1767857D01*
X-1152143Y-1786905D01*
X-1171190Y-1805952D01*
X-1199762Y-1815476D01*
X-1247381Y-1815476D01*
X-1047381Y-1815476D02*
X-1047381Y-1682143D01*
X-1047381Y-1720238D02*
X-1037857Y-1701190D01*
X-1028333Y-1691667D01*
X-1009286Y-1682143D01*
X-990238Y-1682143D01*
X-923571Y-1815476D02*
X-923571Y-1682143D01*
X-923571Y-1615476D02*
X-933095Y-1625000D01*
X-923571Y-1634524D01*
X-914048Y-1625000D01*
X-923571Y-1615476D01*
X-923571Y-1634524D01*
X-799762Y-1815476D02*
X-818809Y-1805952D01*
X-828333Y-1786905D01*
X-828333Y-1615476D01*
X-695000Y-1815476D02*
X-714048Y-1805952D01*
X-723571Y-1786905D01*
X-723571Y-1615476D01*
X-466428Y-1815476D02*
X-466428Y-1615476D01*
X-399762Y-1758333D01*
X-333095Y-1615476D01*
X-333095Y-1815476D01*
X-152143Y-1815476D02*
X-152143Y-1710714D01*
X-161667Y-1691667D01*
X-180714Y-1682143D01*
X-218809Y-1682143D01*
X-237857Y-1691667D01*
X-152143Y-1805952D02*
X-171190Y-1815476D01*
X-218809Y-1815476D01*
X-237857Y-1805952D01*
X-247381Y-1786905D01*
X-247381Y-1767857D01*
X-237857Y-1748809D01*
X-218809Y-1739286D01*
X-171190Y-1739286D01*
X-152143Y-1729762D01*
X-56905Y-1682143D02*
X-56905Y-1882143D01*
X-56905Y-1691667D02*
X-37857Y-1682143D01*
X238Y-1682143D01*
X19286Y-1691667D01*
X28809Y-1701190D01*
X38333Y-1720238D01*
X38333Y-1777381D01*
X28809Y-1796428D01*
X19286Y-1805952D01*
X238Y-1815476D01*
X-37857Y-1815476D01*
X-56905Y-1805952D01*
X124048Y-1796428D02*
X133571Y-1805952D01*
X124048Y-1815476D01*
X114524Y-1805952D01*
X124048Y-1796428D01*
X124048Y-1815476D01*
X124048Y-1691667D02*
X133571Y-1701190D01*
X124048Y-1710714D01*
X114524Y-1701190D01*
X124048Y-1691667D01*
X124048Y-1710714D01*
X-1705000Y-2045000D02*
X-1505000Y-2245000D01*
X-1505000Y-2045000D02*
X-1705000Y-2245000D01*
X-1256905Y-2054524D02*
X-1247381Y-2045000D01*
X-1228333Y-2035476D01*
X-1180714Y-2035476D01*
X-1161667Y-2045000D01*
X-1152143Y-2054524D01*
X-1142619Y-2073571D01*
X-1142619Y-2092619D01*
X-1152143Y-2121190D01*
X-1266429Y-2235476D01*
X-1142619Y-2235476D01*
X-1056905Y-2216429D02*
X-1047381Y-2225952D01*
X-1056905Y-2235476D01*
X-1066429Y-2225952D01*
X-1056905Y-2216429D01*
X-1056905Y-2235476D01*
X-856905Y-2235476D02*
X-971190Y-2235476D01*
X-914048Y-2235476D02*
X-914048Y-2035476D01*
X-933095Y-2064048D01*
X-952143Y-2083095D01*
X-971190Y-2092619D01*
X-733095Y-2035476D02*
X-714048Y-2035476D01*
X-695000Y-2045000D01*
X-685476Y-2054524D01*
X-675952Y-2073571D01*
X-666429Y-2111667D01*
X-666429Y-2159286D01*
X-675952Y-2197381D01*
X-685476Y-2216429D01*
X-695000Y-2225952D01*
X-714048Y-2235476D01*
X-733095Y-2235476D01*
X-752143Y-2225952D01*
X-761667Y-2216429D01*
X-771190Y-2197381D01*
X-780714Y-2159286D01*
X-780714Y-2111667D01*
X-771190Y-2073571D01*
X-761667Y-2054524D01*
X-752143Y-2045000D01*
X-733095Y-2035476D01*
X-542619Y-2035476D02*
X-523571Y-2035476D01*
X-504524Y-2045000D01*
X-495000Y-2054524D01*
X-485476Y-2073571D01*
X-475952Y-2111667D01*
X-475952Y-2159286D01*
X-485476Y-2197381D01*
X-495000Y-2216429D01*
X-504524Y-2225952D01*
X-523571Y-2235476D01*
X-542619Y-2235476D01*
X-561667Y-2225952D01*
X-571190Y-2216429D01*
X-580714Y-2197381D01*
X-590238Y-2159286D01*
X-590238Y-2111667D01*
X-580714Y-2073571D01*
X-571190Y-2054524D01*
X-561667Y-2045000D01*
X-542619Y-2035476D01*
X-390238Y-2235476D02*
X-390238Y-2102143D01*
X-390238Y-2121190D02*
X-380714Y-2111667D01*
X-361667Y-2102143D01*
X-333095Y-2102143D01*
X-314048Y-2111667D01*
X-304524Y-2130714D01*
X-304524Y-2235476D01*
X-304524Y-2130714D02*
X-295000Y-2111667D01*
X-275952Y-2102143D01*
X-247381Y-2102143D01*
X-228333Y-2111667D01*
X-218809Y-2130714D01*
X-218809Y-2235476D01*
X-123571Y-2235476D02*
X-123571Y-2102143D01*
X-123571Y-2121190D02*
X-114048Y-2111667D01*
X-95000Y-2102143D01*
X-66429Y-2102143D01*
X-47381Y-2111667D01*
X-37857Y-2130714D01*
X-37857Y-2235476D01*
X-37857Y-2130714D02*
X-28333Y-2111667D01*
X-9286Y-2102143D01*
X19286Y-2102143D01*
X38333Y-2111667D01*
X47857Y-2130714D01*
X47857Y-2235476D01*
X438333Y-2025952D02*
X266905Y-2283095D01*
X695476Y-2035476D02*
X714524Y-2035476D01*
X733571Y-2045000D01*
X743095Y-2054524D01*
X752619Y-2073571D01*
X762143Y-2111667D01*
X762143Y-2159286D01*
X752619Y-2197381D01*
X743095Y-2216429D01*
X733571Y-2225952D01*
X714524Y-2235476D01*
X695476Y-2235476D01*
X676429Y-2225952D01*
X666905Y-2216429D01*
X657381Y-2197381D01*
X647857Y-2159286D01*
X647857Y-2111667D01*
X657381Y-2073571D01*
X666905Y-2054524D01*
X676429Y-2045000D01*
X695476Y-2035476D01*
X847857Y-2216429D02*
X857381Y-2225952D01*
X847857Y-2235476D01*
X838333Y-2225952D01*
X847857Y-2216429D01*
X847857Y-2235476D01*
X981190Y-2035476D02*
X1000238Y-2035476D01*
X1019286Y-2045000D01*
X1028809Y-2054524D01*
X1038333Y-2073571D01*
X1047857Y-2111667D01*
X1047857Y-2159286D01*
X1038333Y-2197381D01*
X1028809Y-2216429D01*
X1019286Y-2225952D01*
X1000238Y-2235476D01*
X981190Y-2235476D01*
X962143Y-2225952D01*
X952619Y-2216429D01*
X943095Y-2197381D01*
X933571Y-2159286D01*
X933571Y-2111667D01*
X943095Y-2073571D01*
X952619Y-2054524D01*
X962143Y-2045000D01*
X981190Y-2035476D01*
X1162143Y-2121190D02*
X1143095Y-2111667D01*
X1133571Y-2102143D01*
X1124048Y-2083095D01*
X1124048Y-2073571D01*
X1133571Y-2054524D01*
X1143095Y-2045000D01*
X1162143Y-2035476D01*
X1200238Y-2035476D01*
X1219286Y-2045000D01*
X1228810Y-2054524D01*
X1238333Y-2073571D01*
X1238333Y-2083095D01*
X1228810Y-2102143D01*
X1219286Y-2111667D01*
X1200238Y-2121190D01*
X1162143Y-2121190D01*
X1143095Y-2130714D01*
X1133571Y-2140238D01*
X1124048Y-2159286D01*
X1124048Y-2197381D01*
X1133571Y-2216429D01*
X1143095Y-2225952D01*
X1162143Y-2235476D01*
X1200238Y-2235476D01*
X1219286Y-2225952D01*
X1228810Y-2216429D01*
X1238333Y-2197381D01*
X1238333Y-2159286D01*
X1228810Y-2140238D01*
X1219286Y-2130714D01*
X1200238Y-2121190D01*
X1314524Y-2054524D02*
X1324048Y-2045000D01*
X1343095Y-2035476D01*
X1390714Y-2035476D01*
X1409762Y-2045000D01*
X1419286Y-2054524D01*
X1428809Y-2073571D01*
X1428809Y-2092619D01*
X1419286Y-2121190D01*
X1305000Y-2235476D01*
X1428809Y-2235476D01*
X1495476Y-2035476D02*
X1628809Y-2035476D01*
X1543095Y-2235476D01*
X1695476Y-2035476D02*
X1695476Y-2073571D01*
X1771667Y-2035476D02*
X1771667Y-2073571D01*
X2066905Y-2311667D02*
X2057381Y-2302143D01*
X2038333Y-2273571D01*
X2028809Y-2254524D01*
X2019286Y-2225952D01*
X2009762Y-2178333D01*
X2009762Y-2140238D01*
X2019286Y-2092619D01*
X2028809Y-2064048D01*
X2038333Y-2045000D01*
X2057381Y-2016428D01*
X2066905Y-2006905D01*
X2228810Y-2035476D02*
X2190714Y-2035476D01*
X2171667Y-2045000D01*
X2162143Y-2054524D01*
X2143095Y-2083095D01*
X2133571Y-2121190D01*
X2133571Y-2197381D01*
X2143095Y-2216429D01*
X2152619Y-2225952D01*
X2171667Y-2235476D01*
X2209762Y-2235476D01*
X2228810Y-2225952D01*
X2238333Y-2216429D01*
X2247857Y-2197381D01*
X2247857Y-2149762D01*
X2238333Y-2130714D01*
X2228810Y-2121190D01*
X2209762Y-2111667D01*
X2171667Y-2111667D01*
X2152619Y-2121190D01*
X2143095Y-2130714D01*
X2133571Y-2149762D01*
X2485952Y-2235476D02*
X2485952Y-2035476D01*
X2571667Y-2235476D02*
X2571667Y-2130714D01*
X2562143Y-2111667D01*
X2543095Y-2102143D01*
X2514524Y-2102143D01*
X2495476Y-2111667D01*
X2485952Y-2121190D01*
X2695476Y-2235476D02*
X2676429Y-2225952D01*
X2666905Y-2216429D01*
X2657381Y-2197381D01*
X2657381Y-2140238D01*
X2666905Y-2121190D01*
X2676429Y-2111667D01*
X2695476Y-2102143D01*
X2724048Y-2102143D01*
X2743095Y-2111667D01*
X2752619Y-2121190D01*
X2762143Y-2140238D01*
X2762143Y-2197381D01*
X2752619Y-2216429D01*
X2743095Y-2225952D01*
X2724048Y-2235476D01*
X2695476Y-2235476D01*
X2876428Y-2235476D02*
X2857381Y-2225952D01*
X2847857Y-2206905D01*
X2847857Y-2035476D01*
X3028809Y-2225952D02*
X3009762Y-2235476D01*
X2971667Y-2235476D01*
X2952619Y-2225952D01*
X2943095Y-2206905D01*
X2943095Y-2130714D01*
X2952619Y-2111667D01*
X2971667Y-2102143D01*
X3009762Y-2102143D01*
X3028809Y-2111667D01*
X3038333Y-2130714D01*
X3038333Y-2149762D01*
X2943095Y-2168810D01*
X3114524Y-2225952D02*
X3133571Y-2235476D01*
X3171667Y-2235476D01*
X3190714Y-2225952D01*
X3200238Y-2206905D01*
X3200238Y-2197381D01*
X3190714Y-2178333D01*
X3171667Y-2168810D01*
X3143095Y-2168810D01*
X3124048Y-2159286D01*
X3114524Y-2140238D01*
X3114524Y-2130714D01*
X3124048Y-2111667D01*
X3143095Y-2102143D01*
X3171667Y-2102143D01*
X3190714Y-2111667D01*
X3266905Y-2311667D02*
X3276428Y-2302143D01*
X3295476Y-2273571D01*
X3305000Y-2254524D01*
X3314524Y-2225952D01*
X3324048Y-2178333D01*
X3324048Y-2140238D01*
X3314524Y-2092619D01*
X3305000Y-2064048D01*
X3295476Y-2045000D01*
X3276428Y-2016428D01*
X3266905Y-2006905D01*
X3628809Y-2311667D02*
X3619286Y-2302143D01*
X3600238Y-2273571D01*
X3590714Y-2254524D01*
X3581190Y-2225952D01*
X3571667Y-2178333D01*
X3571667Y-2140238D01*
X3581190Y-2092619D01*
X3590714Y-2064048D01*
X3600238Y-2045000D01*
X3619286Y-2016428D01*
X3628809Y-2006905D01*
X3705000Y-2102143D02*
X3705000Y-2235476D01*
X3705000Y-2121190D02*
X3714524Y-2111667D01*
X3733571Y-2102143D01*
X3762143Y-2102143D01*
X3781190Y-2111667D01*
X3790714Y-2130714D01*
X3790714Y-2235476D01*
X3914524Y-2235476D02*
X3895476Y-2225952D01*
X3885952Y-2216429D01*
X3876428Y-2197381D01*
X3876428Y-2140238D01*
X3885952Y-2121190D01*
X3895476Y-2111667D01*
X3914524Y-2102143D01*
X3943095Y-2102143D01*
X3962143Y-2111667D01*
X3971667Y-2121190D01*
X3981190Y-2140238D01*
X3981190Y-2197381D01*
X3971667Y-2216429D01*
X3962143Y-2225952D01*
X3943095Y-2235476D01*
X3914524Y-2235476D01*
X4038333Y-2102143D02*
X4114524Y-2102143D01*
X4066905Y-2035476D02*
X4066905Y-2206905D01*
X4076428Y-2225952D01*
X4095476Y-2235476D01*
X4114524Y-2235476D01*
X4333571Y-2102143D02*
X4333571Y-2302143D01*
X4333571Y-2111667D02*
X4352619Y-2102143D01*
X4390714Y-2102143D01*
X4409762Y-2111667D01*
X4419286Y-2121190D01*
X4428810Y-2140238D01*
X4428810Y-2197381D01*
X4419286Y-2216429D01*
X4409762Y-2225952D01*
X4390714Y-2235476D01*
X4352619Y-2235476D01*
X4333571Y-2225952D01*
X4543095Y-2235476D02*
X4524048Y-2225952D01*
X4514524Y-2206905D01*
X4514524Y-2035476D01*
X4705000Y-2235476D02*
X4705000Y-2130714D01*
X4695476Y-2111667D01*
X4676429Y-2102143D01*
X4638333Y-2102143D01*
X4619286Y-2111667D01*
X4705000Y-2225952D02*
X4685952Y-2235476D01*
X4638333Y-2235476D01*
X4619286Y-2225952D01*
X4609762Y-2206905D01*
X4609762Y-2187857D01*
X4619286Y-2168810D01*
X4638333Y-2159286D01*
X4685952Y-2159286D01*
X4705000Y-2149762D01*
X4771667Y-2102143D02*
X4847857Y-2102143D01*
X4800238Y-2035476D02*
X4800238Y-2206905D01*
X4809762Y-2225952D01*
X4828810Y-2235476D01*
X4847857Y-2235476D01*
X4990714Y-2225952D02*
X4971667Y-2235476D01*
X4933571Y-2235476D01*
X4914524Y-2225952D01*
X4905000Y-2206905D01*
X4905000Y-2130714D01*
X4914524Y-2111667D01*
X4933571Y-2102143D01*
X4971667Y-2102143D01*
X4990714Y-2111667D01*
X5000238Y-2130714D01*
X5000238Y-2149762D01*
X4905000Y-2168810D01*
X5171667Y-2235476D02*
X5171667Y-2035476D01*
X5171667Y-2225952D02*
X5152619Y-2235476D01*
X5114524Y-2235476D01*
X5095476Y-2225952D01*
X5085952Y-2216429D01*
X5076429Y-2197381D01*
X5076429Y-2140238D01*
X5085952Y-2121190D01*
X5095476Y-2111667D01*
X5114524Y-2102143D01*
X5152619Y-2102143D01*
X5171667Y-2111667D01*
X5247857Y-2311667D02*
X5257381Y-2302143D01*
X5276429Y-2273571D01*
X5285952Y-2254524D01*
X5295476Y-2225952D01*
X5305000Y-2178333D01*
X5305000Y-2140238D01*
X5295476Y-2092619D01*
X5285952Y-2064048D01*
X5276429Y-2045000D01*
X5257381Y-2016428D01*
X5247857Y-2006905D01*
M02*
