%TF.GenerationSoftware,KiCad,Pcbnew,6.0.11-2627ca5db0~126~ubuntu22.04.1*%
%TF.CreationDate,2023-07-02T17:23:57-07:00*%
%TF.ProjectId,small-display,736d616c-6c2d-4646-9973-706c61792e6b,rev?*%
%TF.SameCoordinates,Original*%
%TF.FileFunction,Legend,Top*%
%TF.FilePolarity,Positive*%
%FSLAX46Y46*%
G04 Gerber Fmt 4.6, Leading zero omitted, Abs format (unit mm)*
G04 Created by KiCad (PCBNEW 6.0.11-2627ca5db0~126~ubuntu22.04.1) date 2023-07-02 17:23:57*
%MOMM*%
%LPD*%
G01*
G04 APERTURE LIST*
%ADD10C,0.254000*%
%ADD11C,0.050000*%
%ADD12C,0.150000*%
%ADD13C,0.200000*%
%ADD14C,0.100000*%
%ADD15C,0.127000*%
%ADD16C,0.300000*%
%ADD17C,0.120000*%
G04 APERTURE END LIST*
D10*
%TO.C,J1*%
X20163666Y-58304523D02*
X20163666Y-59211666D01*
X20103190Y-59393095D01*
X19982238Y-59514047D01*
X19800809Y-59574523D01*
X19679857Y-59574523D01*
X21433666Y-59574523D02*
X20707952Y-59574523D01*
X21070809Y-59574523D02*
X21070809Y-58304523D01*
X20949857Y-58485952D01*
X20828904Y-58606904D01*
X20707952Y-58667380D01*
D11*
%TO.C,L1*%
X9372965Y-54814927D02*
X8896493Y-54814927D01*
X8896493Y-53814337D01*
X10230613Y-54814927D02*
X9658847Y-54814927D01*
X9944730Y-54814927D02*
X9944730Y-53814337D01*
X9849436Y-53957279D01*
X9754142Y-54052573D01*
X9658847Y-54100220D01*
X3483941Y-63087771D02*
X3817304Y-64087861D01*
X4150668Y-63087771D01*
X4960264Y-64087861D02*
X4484031Y-64087861D01*
X4484031Y-63087771D01*
X5246004Y-64040238D02*
X5388874Y-64087861D01*
X5626991Y-64087861D01*
X5722238Y-64040238D01*
X5769861Y-63992615D01*
X5817484Y-63897368D01*
X5817484Y-63802121D01*
X5769861Y-63706875D01*
X5722238Y-63659251D01*
X5626991Y-63611628D01*
X5436498Y-63564005D01*
X5341251Y-63516381D01*
X5293628Y-63468758D01*
X5246004Y-63373511D01*
X5246004Y-63278265D01*
X5293628Y-63183018D01*
X5341251Y-63135395D01*
X5436498Y-63087771D01*
X5674614Y-63087771D01*
X5817484Y-63135395D01*
X6722328Y-63087771D02*
X6246094Y-63087771D01*
X6198471Y-63564005D01*
X6246094Y-63516381D01*
X6341341Y-63468758D01*
X6579458Y-63468758D01*
X6674704Y-63516381D01*
X6722328Y-63564005D01*
X6769951Y-63659251D01*
X6769951Y-63897368D01*
X6722328Y-63992615D01*
X6674704Y-64040238D01*
X6579458Y-64087861D01*
X6341341Y-64087861D01*
X6246094Y-64040238D01*
X6198471Y-63992615D01*
X7389054Y-63087771D02*
X7484301Y-63087771D01*
X7579548Y-63135395D01*
X7627171Y-63183018D01*
X7674794Y-63278265D01*
X7722418Y-63468758D01*
X7722418Y-63706875D01*
X7674794Y-63897368D01*
X7627171Y-63992615D01*
X7579548Y-64040238D01*
X7484301Y-64087861D01*
X7389054Y-64087861D01*
X7293808Y-64040238D01*
X7246184Y-63992615D01*
X7198561Y-63897368D01*
X7150938Y-63706875D01*
X7150938Y-63468758D01*
X7198561Y-63278265D01*
X7246184Y-63183018D01*
X7293808Y-63135395D01*
X7389054Y-63087771D01*
X8579638Y-63421135D02*
X8579638Y-64087861D01*
X8341521Y-63040148D02*
X8103404Y-63754498D01*
X8722508Y-63754498D01*
X9579728Y-63087771D02*
X9103495Y-63087771D01*
X9055871Y-63564005D01*
X9103495Y-63516381D01*
X9198741Y-63468758D01*
X9436858Y-63468758D01*
X9532105Y-63516381D01*
X9579728Y-63564005D01*
X9627351Y-63659251D01*
X9627351Y-63897368D01*
X9579728Y-63992615D01*
X9532105Y-64040238D01*
X9436858Y-64087861D01*
X9198741Y-64087861D01*
X9103495Y-64040238D01*
X9055871Y-63992615D01*
X10055961Y-63564005D02*
X10389325Y-63564005D01*
X10532195Y-64087861D02*
X10055961Y-64087861D01*
X10055961Y-63087771D01*
X10532195Y-63087771D01*
X10865558Y-63087771D02*
X11532285Y-64087861D01*
X11532285Y-63087771D02*
X10865558Y-64087861D01*
X11913271Y-63706875D02*
X12675245Y-63706875D01*
X13580088Y-63421135D02*
X13580088Y-64087861D01*
X13341971Y-63040148D02*
X13103855Y-63754498D01*
X13722958Y-63754498D01*
X14675424Y-64087861D02*
X14342061Y-63611628D01*
X14103944Y-64087861D02*
X14103944Y-63087771D01*
X14484931Y-63087771D01*
X14580178Y-63135395D01*
X14627801Y-63183018D01*
X14675424Y-63278265D01*
X14675424Y-63421135D01*
X14627801Y-63516381D01*
X14580178Y-63564005D01*
X14484931Y-63611628D01*
X14103944Y-63611628D01*
X15008788Y-63087771D02*
X15675514Y-63087771D01*
X15246904Y-64087861D01*
X16056501Y-64087861D02*
X16056501Y-63087771D01*
X16389864Y-63802121D01*
X16723228Y-63087771D01*
X16723228Y-64087861D01*
D12*
%TO.C,U4*%
X26238095Y-4452380D02*
X26238095Y-5261904D01*
X26285714Y-5357142D01*
X26333333Y-5404761D01*
X26428571Y-5452380D01*
X26619047Y-5452380D01*
X26714285Y-5404761D01*
X26761904Y-5357142D01*
X26809523Y-5261904D01*
X26809523Y-4452380D01*
X27714285Y-4785714D02*
X27714285Y-5452380D01*
X27476190Y-4404761D02*
X27238095Y-5119047D01*
X27857142Y-5119047D01*
X21047619Y-5452380D02*
X21047619Y-4452380D01*
X21428571Y-4452380D01*
X21523809Y-4500000D01*
X21571428Y-4547619D01*
X21619047Y-4642857D01*
X21619047Y-4785714D01*
X21571428Y-4880952D01*
X21523809Y-4928571D01*
X21428571Y-4976190D01*
X21047619Y-4976190D01*
X22000000Y-5166666D02*
X22476190Y-5166666D01*
X21904761Y-5452380D02*
X22238095Y-4452380D01*
X22571428Y-5452380D01*
X22904761Y-5452380D02*
X22904761Y-4452380D01*
X23238095Y-5166666D01*
X23571428Y-4452380D01*
X23571428Y-5452380D01*
X24000000Y-4547619D02*
X24047619Y-4500000D01*
X24142857Y-4452380D01*
X24380952Y-4452380D01*
X24476190Y-4500000D01*
X24523809Y-4547619D01*
X24571428Y-4642857D01*
X24571428Y-4738095D01*
X24523809Y-4880952D01*
X23952380Y-5452380D01*
X24571428Y-5452380D01*
X25142857Y-4880952D02*
X25047619Y-4833333D01*
X25000000Y-4785714D01*
X24952380Y-4690476D01*
X24952380Y-4642857D01*
X25000000Y-4547619D01*
X25047619Y-4500000D01*
X25142857Y-4452380D01*
X25333333Y-4452380D01*
X25428571Y-4500000D01*
X25476190Y-4547619D01*
X25523809Y-4642857D01*
X25523809Y-4690476D01*
X25476190Y-4785714D01*
X25428571Y-4833333D01*
X25333333Y-4880952D01*
X25142857Y-4880952D01*
X25047619Y-4928571D01*
X25000000Y-4976190D01*
X24952380Y-5071428D01*
X24952380Y-5261904D01*
X25000000Y-5357142D01*
X25047619Y-5404761D01*
X25142857Y-5452380D01*
X25333333Y-5452380D01*
X25428571Y-5404761D01*
X25476190Y-5357142D01*
X25523809Y-5261904D01*
X25523809Y-5071428D01*
X25476190Y-4976190D01*
X25428571Y-4928571D01*
X25333333Y-4880952D01*
X26142857Y-4452380D02*
X26238095Y-4452380D01*
X26333333Y-4500000D01*
X26380952Y-4547619D01*
X26428571Y-4642857D01*
X26476190Y-4833333D01*
X26476190Y-5071428D01*
X26428571Y-5261904D01*
X26380952Y-5357142D01*
X26333333Y-5404761D01*
X26238095Y-5452380D01*
X26142857Y-5452380D01*
X26047619Y-5404761D01*
X26000000Y-5357142D01*
X25952380Y-5261904D01*
X25904761Y-5071428D01*
X25904761Y-4833333D01*
X25952380Y-4642857D01*
X26000000Y-4547619D01*
X26047619Y-4500000D01*
X26142857Y-4452380D01*
X27333333Y-4785714D02*
X27333333Y-5452380D01*
X27095238Y-4404761D02*
X26857142Y-5119047D01*
X27476190Y-5119047D01*
X27809523Y-5166666D02*
X28285714Y-5166666D01*
X27714285Y-5452380D02*
X28047619Y-4452380D01*
X28380952Y-5452380D01*
X28666666Y-5166666D02*
X29142857Y-5166666D01*
X28571428Y-5452380D02*
X28904761Y-4452380D01*
X29238095Y-5452380D01*
X29904761Y-4928571D02*
X30047619Y-4976190D01*
X30095238Y-5023809D01*
X30142857Y-5119047D01*
X30142857Y-5261904D01*
X30095238Y-5357142D01*
X30047619Y-5404761D01*
X29952380Y-5452380D01*
X29571428Y-5452380D01*
X29571428Y-4452380D01*
X29904761Y-4452380D01*
X30000000Y-4500000D01*
X30047619Y-4547619D01*
X30095238Y-4642857D01*
X30095238Y-4738095D01*
X30047619Y-4833333D01*
X30000000Y-4880952D01*
X29904761Y-4928571D01*
X29571428Y-4928571D01*
X30761904Y-4452380D02*
X30857142Y-4452380D01*
X30952380Y-4500000D01*
X31000000Y-4547619D01*
X31047619Y-4642857D01*
X31095238Y-4833333D01*
X31095238Y-5071428D01*
X31047619Y-5261904D01*
X31000000Y-5357142D01*
X30952380Y-5404761D01*
X30857142Y-5452380D01*
X30761904Y-5452380D01*
X30666666Y-5404761D01*
X30619047Y-5357142D01*
X30571428Y-5261904D01*
X30523809Y-5071428D01*
X30523809Y-4833333D01*
X30571428Y-4642857D01*
X30619047Y-4547619D01*
X30666666Y-4500000D01*
X30761904Y-4452380D01*
X32047619Y-5452380D02*
X31476190Y-5452380D01*
X31761904Y-5452380D02*
X31761904Y-4452380D01*
X31666666Y-4595238D01*
X31571428Y-4690476D01*
X31476190Y-4738095D01*
X32666666Y-4452380D02*
X32761904Y-4452380D01*
X32857142Y-4500000D01*
X32904761Y-4547619D01*
X32952380Y-4642857D01*
X32999999Y-4833333D01*
X32999999Y-5071428D01*
X32952380Y-5261904D01*
X32904761Y-5357142D01*
X32857142Y-5404761D01*
X32761904Y-5452380D01*
X32666666Y-5452380D01*
X32571428Y-5404761D01*
X32523809Y-5357142D01*
X32476190Y-5261904D01*
X32428571Y-5071428D01*
X32428571Y-4833333D01*
X32476190Y-4642857D01*
X32523809Y-4547619D01*
X32571428Y-4500000D01*
X32666666Y-4452380D01*
X25469650Y-1912380D02*
X25469650Y-2150476D01*
X25231554Y-2055238D02*
X25469650Y-2150476D01*
X25707745Y-2055238D01*
X25326792Y-2340952D02*
X25469650Y-2150476D01*
X25612507Y-2340952D01*
X25469650Y-1912380D02*
X25469650Y-2150476D01*
X25231554Y-2055238D02*
X25469650Y-2150476D01*
X25707745Y-2055238D01*
X25326792Y-2340952D02*
X25469650Y-2150476D01*
X25612507Y-2340952D01*
%TO.C,R1*%
X20725833Y-29002380D02*
X20392500Y-28526190D01*
X20154404Y-29002380D02*
X20154404Y-28002380D01*
X20535357Y-28002380D01*
X20630595Y-28050000D01*
X20678214Y-28097619D01*
X20725833Y-28192857D01*
X20725833Y-28335714D01*
X20678214Y-28430952D01*
X20630595Y-28478571D01*
X20535357Y-28526190D01*
X20154404Y-28526190D01*
X21678214Y-29002380D02*
X21106785Y-29002380D01*
X21392500Y-29002380D02*
X21392500Y-28002380D01*
X21297261Y-28145238D01*
X21202023Y-28240476D01*
X21106785Y-28288095D01*
%TO.C,R4*%
X4803333Y-4022380D02*
X4470000Y-3546190D01*
X4231904Y-4022380D02*
X4231904Y-3022380D01*
X4612857Y-3022380D01*
X4708095Y-3070000D01*
X4755714Y-3117619D01*
X4803333Y-3212857D01*
X4803333Y-3355714D01*
X4755714Y-3450952D01*
X4708095Y-3498571D01*
X4612857Y-3546190D01*
X4231904Y-3546190D01*
X5660476Y-3355714D02*
X5660476Y-4022380D01*
X5422380Y-2974761D02*
X5184285Y-3689047D01*
X5803333Y-3689047D01*
%TO.C,C2*%
X16833333Y-3927142D02*
X16785714Y-3974761D01*
X16642857Y-4022380D01*
X16547619Y-4022380D01*
X16404761Y-3974761D01*
X16309523Y-3879523D01*
X16261904Y-3784285D01*
X16214285Y-3593809D01*
X16214285Y-3450952D01*
X16261904Y-3260476D01*
X16309523Y-3165238D01*
X16404761Y-3070000D01*
X16547619Y-3022380D01*
X16642857Y-3022380D01*
X16785714Y-3070000D01*
X16833333Y-3117619D01*
X17214285Y-3117619D02*
X17261904Y-3070000D01*
X17357142Y-3022380D01*
X17595238Y-3022380D01*
X17690476Y-3070000D01*
X17738095Y-3117619D01*
X17785714Y-3212857D01*
X17785714Y-3308095D01*
X17738095Y-3450952D01*
X17166666Y-4022380D01*
X17785714Y-4022380D01*
%TO.C,U3*%
X16100595Y-28002380D02*
X16100595Y-28811904D01*
X16148214Y-28907142D01*
X16195833Y-28954761D01*
X16291071Y-29002380D01*
X16481547Y-29002380D01*
X16576785Y-28954761D01*
X16624404Y-28907142D01*
X16672023Y-28811904D01*
X16672023Y-28002380D01*
X17052976Y-28002380D02*
X17672023Y-28002380D01*
X17338690Y-28383333D01*
X17481547Y-28383333D01*
X17576785Y-28430952D01*
X17624404Y-28478571D01*
X17672023Y-28573809D01*
X17672023Y-28811904D01*
X17624404Y-28907142D01*
X17576785Y-28954761D01*
X17481547Y-29002380D01*
X17195833Y-29002380D01*
X17100595Y-28954761D01*
X17052976Y-28907142D01*
%TO.C,U2*%
X19068095Y-13582380D02*
X19068095Y-14391904D01*
X19115714Y-14487142D01*
X19163333Y-14534761D01*
X19258571Y-14582380D01*
X19449047Y-14582380D01*
X19544285Y-14534761D01*
X19591904Y-14487142D01*
X19639523Y-14391904D01*
X19639523Y-13582380D01*
X20068095Y-13677619D02*
X20115714Y-13630000D01*
X20210952Y-13582380D01*
X20449047Y-13582380D01*
X20544285Y-13630000D01*
X20591904Y-13677619D01*
X20639523Y-13772857D01*
X20639523Y-13868095D01*
X20591904Y-14010952D01*
X20020476Y-14582380D01*
X20639523Y-14582380D01*
%TO.C,R3*%
X18993333Y-18332380D02*
X18660000Y-17856190D01*
X18421904Y-18332380D02*
X18421904Y-17332380D01*
X18802857Y-17332380D01*
X18898095Y-17380000D01*
X18945714Y-17427619D01*
X18993333Y-17522857D01*
X18993333Y-17665714D01*
X18945714Y-17760952D01*
X18898095Y-17808571D01*
X18802857Y-17856190D01*
X18421904Y-17856190D01*
X19326666Y-17332380D02*
X19945714Y-17332380D01*
X19612380Y-17713333D01*
X19755238Y-17713333D01*
X19850476Y-17760952D01*
X19898095Y-17808571D01*
X19945714Y-17903809D01*
X19945714Y-18141904D01*
X19898095Y-18237142D01*
X19850476Y-18284761D01*
X19755238Y-18332380D01*
X19469523Y-18332380D01*
X19374285Y-18284761D01*
X19326666Y-18237142D01*
%TO.C,U1*%
X24256385Y-30952380D02*
X24256385Y-31761904D01*
X24304004Y-31857142D01*
X24351623Y-31904761D01*
X24446861Y-31952380D01*
X24637337Y-31952380D01*
X24732575Y-31904761D01*
X24780194Y-31857142D01*
X24827813Y-31761904D01*
X24827813Y-30952380D01*
X25827813Y-31952380D02*
X25256385Y-31952380D01*
X25542099Y-31952380D02*
X25542099Y-30952380D01*
X25446861Y-31095238D01*
X25351623Y-31190476D01*
X25256385Y-31238095D01*
%TO.C,D2*%
X23261904Y-14522380D02*
X23261904Y-13522380D01*
X23500000Y-13522380D01*
X23642857Y-13570000D01*
X23738095Y-13665238D01*
X23785714Y-13760476D01*
X23833333Y-13950952D01*
X23833333Y-14093809D01*
X23785714Y-14284285D01*
X23738095Y-14379523D01*
X23642857Y-14474761D01*
X23500000Y-14522380D01*
X23261904Y-14522380D01*
X24214285Y-13617619D02*
X24261904Y-13570000D01*
X24357142Y-13522380D01*
X24595238Y-13522380D01*
X24690476Y-13570000D01*
X24738095Y-13617619D01*
X24785714Y-13712857D01*
X24785714Y-13808095D01*
X24738095Y-13950952D01*
X24166666Y-14522380D01*
X24785714Y-14522380D01*
%TO.C,C1*%
X29783333Y-9177142D02*
X29735714Y-9224761D01*
X29592857Y-9272380D01*
X29497619Y-9272380D01*
X29354761Y-9224761D01*
X29259523Y-9129523D01*
X29211904Y-9034285D01*
X29164285Y-8843809D01*
X29164285Y-8700952D01*
X29211904Y-8510476D01*
X29259523Y-8415238D01*
X29354761Y-8320000D01*
X29497619Y-8272380D01*
X29592857Y-8272380D01*
X29735714Y-8320000D01*
X29783333Y-8367619D01*
X30735714Y-9272380D02*
X30164285Y-9272380D01*
X30450000Y-9272380D02*
X30450000Y-8272380D01*
X30354761Y-8415238D01*
X30259523Y-8510476D01*
X30164285Y-8558095D01*
%TO.C,D1*%
X15594404Y-33492380D02*
X15594404Y-32492380D01*
X15832500Y-32492380D01*
X15975357Y-32540000D01*
X16070595Y-32635238D01*
X16118214Y-32730476D01*
X16165833Y-32920952D01*
X16165833Y-33063809D01*
X16118214Y-33254285D01*
X16070595Y-33349523D01*
X15975357Y-33444761D01*
X15832500Y-33492380D01*
X15594404Y-33492380D01*
X17118214Y-33492380D02*
X16546785Y-33492380D01*
X16832500Y-33492380D02*
X16832500Y-32492380D01*
X16737261Y-32635238D01*
X16642023Y-32730476D01*
X16546785Y-32778095D01*
%TO.C,Module1*%
X22832380Y-49777142D02*
X21832380Y-49777142D01*
X22546666Y-49443809D01*
X21832380Y-49110476D01*
X22832380Y-49110476D01*
X22832380Y-48491428D02*
X22784761Y-48586666D01*
X22737142Y-48634285D01*
X22641904Y-48681904D01*
X22356190Y-48681904D01*
X22260952Y-48634285D01*
X22213333Y-48586666D01*
X22165714Y-48491428D01*
X22165714Y-48348571D01*
X22213333Y-48253333D01*
X22260952Y-48205714D01*
X22356190Y-48158095D01*
X22641904Y-48158095D01*
X22737142Y-48205714D01*
X22784761Y-48253333D01*
X22832380Y-48348571D01*
X22832380Y-48491428D01*
X22832380Y-47300952D02*
X21832380Y-47300952D01*
X22784761Y-47300952D02*
X22832380Y-47396190D01*
X22832380Y-47586666D01*
X22784761Y-47681904D01*
X22737142Y-47729523D01*
X22641904Y-47777142D01*
X22356190Y-47777142D01*
X22260952Y-47729523D01*
X22213333Y-47681904D01*
X22165714Y-47586666D01*
X22165714Y-47396190D01*
X22213333Y-47300952D01*
X22165714Y-46396190D02*
X22832380Y-46396190D01*
X22165714Y-46824761D02*
X22689523Y-46824761D01*
X22784761Y-46777142D01*
X22832380Y-46681904D01*
X22832380Y-46539047D01*
X22784761Y-46443809D01*
X22737142Y-46396190D01*
X22832380Y-45777142D02*
X22784761Y-45872380D01*
X22689523Y-45920000D01*
X21832380Y-45920000D01*
X22784761Y-45015238D02*
X22832380Y-45110476D01*
X22832380Y-45300952D01*
X22784761Y-45396190D01*
X22689523Y-45443809D01*
X22308571Y-45443809D01*
X22213333Y-45396190D01*
X22165714Y-45300952D01*
X22165714Y-45110476D01*
X22213333Y-45015238D01*
X22308571Y-44967619D01*
X22403809Y-44967619D01*
X22499047Y-45443809D01*
X22832380Y-44015238D02*
X22832380Y-44586666D01*
X22832380Y-44300952D02*
X21832380Y-44300952D01*
X21975238Y-44396190D01*
X22070476Y-44491428D01*
X22118095Y-44586666D01*
%TO.C,J3*%
X-25263333Y-232380D02*
X-25263333Y-946666D01*
X-25310952Y-1089523D01*
X-25406190Y-1184761D01*
X-25549047Y-1232380D01*
X-25644285Y-1232380D01*
X-24882380Y-232380D02*
X-24263333Y-232380D01*
X-24596666Y-613333D01*
X-24453809Y-613333D01*
X-24358571Y-660952D01*
X-24310952Y-708571D01*
X-24263333Y-803809D01*
X-24263333Y-1041904D01*
X-24310952Y-1137142D01*
X-24358571Y-1184761D01*
X-24453809Y-1232380D01*
X-24739523Y-1232380D01*
X-24834761Y-1184761D01*
X-24882380Y-1137142D01*
%TO.C,C3*%
X8813333Y-3927142D02*
X8765714Y-3974761D01*
X8622857Y-4022380D01*
X8527619Y-4022380D01*
X8384761Y-3974761D01*
X8289523Y-3879523D01*
X8241904Y-3784285D01*
X8194285Y-3593809D01*
X8194285Y-3450952D01*
X8241904Y-3260476D01*
X8289523Y-3165238D01*
X8384761Y-3070000D01*
X8527619Y-3022380D01*
X8622857Y-3022380D01*
X8765714Y-3070000D01*
X8813333Y-3117619D01*
X9146666Y-3022380D02*
X9765714Y-3022380D01*
X9432380Y-3403333D01*
X9575238Y-3403333D01*
X9670476Y-3450952D01*
X9718095Y-3498571D01*
X9765714Y-3593809D01*
X9765714Y-3831904D01*
X9718095Y-3927142D01*
X9670476Y-3974761D01*
X9575238Y-4022380D01*
X9289523Y-4022380D01*
X9194285Y-3974761D01*
X9146666Y-3927142D01*
%TO.C,R2*%
X29013333Y-12282380D02*
X28680000Y-11806190D01*
X28441904Y-12282380D02*
X28441904Y-11282380D01*
X28822857Y-11282380D01*
X28918095Y-11330000D01*
X28965714Y-11377619D01*
X29013333Y-11472857D01*
X29013333Y-11615714D01*
X28965714Y-11710952D01*
X28918095Y-11758571D01*
X28822857Y-11806190D01*
X28441904Y-11806190D01*
X29394285Y-11377619D02*
X29441904Y-11330000D01*
X29537142Y-11282380D01*
X29775238Y-11282380D01*
X29870476Y-11330000D01*
X29918095Y-11377619D01*
X29965714Y-11472857D01*
X29965714Y-11568095D01*
X29918095Y-11710952D01*
X29346666Y-12282380D01*
X29965714Y-12282380D01*
%TO.C,R5*%
X12823333Y-4022380D02*
X12490000Y-3546190D01*
X12251904Y-4022380D02*
X12251904Y-3022380D01*
X12632857Y-3022380D01*
X12728095Y-3070000D01*
X12775714Y-3117619D01*
X12823333Y-3212857D01*
X12823333Y-3355714D01*
X12775714Y-3450952D01*
X12728095Y-3498571D01*
X12632857Y-3546190D01*
X12251904Y-3546190D01*
X13728095Y-3022380D02*
X13251904Y-3022380D01*
X13204285Y-3498571D01*
X13251904Y-3450952D01*
X13347142Y-3403333D01*
X13585238Y-3403333D01*
X13680476Y-3450952D01*
X13728095Y-3498571D01*
X13775714Y-3593809D01*
X13775714Y-3831904D01*
X13728095Y-3927142D01*
X13680476Y-3974761D01*
X13585238Y-4022380D01*
X13347142Y-4022380D01*
X13251904Y-3974761D01*
X13204285Y-3927142D01*
D13*
%TO.C,J1*%
X23700000Y-57100000D02*
X24650000Y-57100000D01*
X24650000Y-60900000D02*
X24650000Y-60000000D01*
D14*
X15900000Y-58165000D02*
X15900000Y-58165000D01*
X15800000Y-58165000D02*
X15800000Y-58165000D01*
D13*
X16350000Y-57100000D02*
X17100000Y-57100000D01*
X18900000Y-57100000D02*
X19300000Y-57100000D01*
X24650000Y-57100000D02*
X24650000Y-58200000D01*
X21700000Y-57100000D02*
X22100000Y-57100000D01*
X23700000Y-60900000D02*
X24650000Y-60900000D01*
X16350000Y-59600000D02*
X16350000Y-60900000D01*
X21750000Y-60900000D02*
X22100000Y-60900000D01*
X18900000Y-60900000D02*
X19300000Y-60900000D01*
X16350000Y-58400000D02*
X16350000Y-57100000D01*
X16350000Y-60900000D02*
X17300000Y-60900000D01*
D14*
X15900000Y-58165000D02*
G75*
G03*
X15800000Y-58165000I-50000J0D01*
G01*
X15800000Y-58165000D02*
G75*
G03*
X15900000Y-58165000I50000J0D01*
G01*
D15*
%TO.C,L1*%
X7500000Y-61500000D02*
X12500000Y-61500000D01*
X12500000Y-61500000D02*
X12500000Y-61200000D01*
X7500000Y-61500000D02*
X7500000Y-61200000D01*
X7500000Y-56500000D02*
X12500000Y-56500000D01*
X7500000Y-56500000D02*
X7500000Y-56800000D01*
X12500000Y-56500000D02*
X12500000Y-56800000D01*
D16*
X6900000Y-57000000D02*
G75*
G03*
X6900000Y-57000000I-150000J0D01*
G01*
D17*
%TO.C,U4*%
X27927100Y-3425200D02*
X26072900Y-3425200D01*
X27927100Y-5391160D02*
X27927100Y-4608840D01*
X26072900Y-6574800D02*
X27927100Y-6574800D01*
%TO.C,R1*%
X20738859Y-29340000D02*
X21046141Y-29340000D01*
X20738859Y-30100000D02*
X21046141Y-30100000D01*
%TO.C,R4*%
X4732742Y-5522500D02*
X5207258Y-5522500D01*
X4732742Y-4477500D02*
X5207258Y-4477500D01*
%TO.C,C2*%
X16859420Y-5510000D02*
X17140580Y-5510000D01*
X16859420Y-4490000D02*
X17140580Y-4490000D01*
%TO.C,U3*%
X16862500Y-32510000D02*
X16062500Y-32510000D01*
X16862500Y-29390000D02*
X15062500Y-29390000D01*
X16862500Y-29390000D02*
X17662500Y-29390000D01*
X16862500Y-32510000D02*
X17662500Y-32510000D01*
%TO.C,U2*%
X19130000Y-17290000D02*
X20530000Y-17290000D01*
X20530000Y-14970000D02*
X18630000Y-14970000D01*
%TO.C,R3*%
X19006359Y-18670000D02*
X19313641Y-18670000D01*
X19006359Y-19430000D02*
X19313641Y-19430000D01*
%TO.C,U1*%
X25500000Y-35400000D02*
X24500000Y-35400000D01*
X25500000Y-32600000D02*
X24200000Y-32600000D01*
%TO.C,D2*%
X22515000Y-16235000D02*
X24800000Y-16235000D01*
X22515000Y-14765000D02*
X22515000Y-16235000D01*
X24800000Y-14765000D02*
X22515000Y-14765000D01*
%TO.C,C1*%
X29688748Y-11235000D02*
X30211252Y-11235000D01*
X29688748Y-9765000D02*
X30211252Y-9765000D01*
%TO.C,D1*%
X14847500Y-35205000D02*
X17132500Y-35205000D01*
X14847500Y-33735000D02*
X14847500Y-35205000D01*
X17132500Y-33735000D02*
X14847500Y-33735000D01*
%TO.C,Module1*%
X4000000Y-55500000D02*
X37000000Y-55500000D01*
X40500000Y-52000000D02*
X40500000Y-4000000D01*
X500000Y-4000000D02*
X500000Y-52000000D01*
X1650000Y-41900000D02*
X1650000Y-40900000D01*
X35570000Y-19100000D02*
X39350000Y-19100000D01*
X39350000Y-41900000D02*
X39350000Y-40900000D01*
X35570000Y-41900000D02*
X35570000Y-40900000D01*
X37000000Y-500000D02*
X4000000Y-500000D01*
X35570000Y-41900000D02*
X39350000Y-41900000D01*
X39350000Y-19100000D02*
X39350000Y-20100000D01*
X5430000Y-41900000D02*
X5430000Y-40900000D01*
X35570000Y-19100000D02*
X35570000Y-20100000D01*
X1650000Y-41900000D02*
X5430000Y-41900000D01*
X1650000Y-19100000D02*
X5430000Y-19100000D01*
X40500000Y-4000000D02*
G75*
G03*
X37000000Y-500000I-3500000J0D01*
G01*
X37000000Y-55500000D02*
G75*
G03*
X40500000Y-52000000I0J3500000D01*
G01*
X500000Y-52000000D02*
G75*
G03*
X4000000Y-55500000I3499999J-1D01*
G01*
X4000000Y-500000D02*
G75*
G03*
X500000Y-4000000I-1J-3499999D01*
G01*
%TO.C,J3*%
X-27530000Y-2220000D02*
X-27530000Y-53140000D01*
X-22330000Y-4820000D02*
X-22330000Y-53140000D01*
X-27530000Y-2220000D02*
X-24930000Y-2220000D01*
X-27530000Y-53140000D02*
X-22330000Y-53140000D01*
X-24930000Y-2220000D02*
X-24930000Y-4820000D01*
X-24930000Y-4820000D02*
X-22330000Y-4820000D01*
X-23660000Y-2220000D02*
X-22330000Y-2220000D01*
X-22330000Y-2220000D02*
X-22330000Y-3550000D01*
%TO.C,C3*%
X8839420Y-5510000D02*
X9120580Y-5510000D01*
X8839420Y-4490000D02*
X9120580Y-4490000D01*
%TO.C,R2*%
X29026359Y-12620000D02*
X29333641Y-12620000D01*
X29026359Y-13380000D02*
X29333641Y-13380000D01*
%TO.C,R5*%
X12752742Y-5522500D02*
X13227258Y-5522500D01*
X12752742Y-4477500D02*
X13227258Y-4477500D01*
%TD*%
M02*
