M48
; DRILL file {KiCad 6.0.11-2627ca5db0~126~ubuntu22.04.1} date Sun 02 Jul 2023 05:24:02 PM PDT
; FORMAT={-:-/ absolute / inch / decimal}
; #@! TF.CreationDate,2023-07-02T17:24:02-07:00
; #@! TF.GenerationSoftware,Kicad,Pcbnew,6.0.11-2627ca5db0~126~ubuntu22.04.1
; #@! TF.FileFunction,Plated,1,2,PTH
FMAT,2
INCH
; #@! TA.AperFunction,Plated,PTH,ComponentDrill
T1C0.0276
; #@! TA.AperFunction,Plated,PTH,ComponentDrill
T2C0.0394
%
G90
G05
T1
X0.7126Y-2.2382
X0.7126Y-2.4075
X0.9016Y-2.2382
X0.9016Y-2.4075
T2
X-1.0315Y-0.1398
X-1.0315Y-0.2398
X-1.0315Y-0.3398
X-1.0315Y-0.4398
X-1.0315Y-0.5398
X-1.0315Y-0.6398
X-1.0315Y-0.7398
X-1.0315Y-0.8398
X-1.0315Y-0.9398
X-1.0315Y-1.0398
X-1.0315Y-1.1398
X-1.0315Y-1.2398
X-1.0315Y-1.3398
X-1.0315Y-1.4398
X-1.0315Y-1.5398
X-1.0315Y-1.6398
X-1.0315Y-1.7398
X-1.0315Y-1.8398
X-1.0315Y-1.9398
X-1.0315Y-2.0398
X-0.9315Y-0.1398
X-0.9315Y-0.2398
X-0.9315Y-0.3398
X-0.9315Y-0.4398
X-0.9315Y-0.5398
X-0.9315Y-0.6398
X-0.9315Y-0.7398
X-0.9315Y-0.8398
X-0.9315Y-0.9398
X-0.9315Y-1.0398
X-0.9315Y-1.1398
X-0.9315Y-1.2398
X-0.9315Y-1.3398
X-0.9315Y-1.4398
X-0.9315Y-1.5398
X-0.9315Y-1.6398
X-0.9315Y-1.7398
X-0.9315Y-1.8398
X-0.9315Y-1.9398
X-0.9315Y-2.0398
T0
M30
