%TF.GenerationSoftware,KiCad,Pcbnew,6.0.10-86aedd382b~118~ubuntu22.04.1*%
%TF.CreationDate,2023-03-14T18:26:24-07:00*%
%TF.ProjectId,pressure-spi-3,70726573-7375-4726-952d-7370692d332e,rev?*%
%TF.SameCoordinates,Original*%
%TF.FileFunction,Legend,Top*%
%TF.FilePolarity,Positive*%
%FSLAX46Y46*%
G04 Gerber Fmt 4.6, Leading zero omitted, Abs format (unit mm)*
G04 Created by KiCad (PCBNEW 6.0.10-86aedd382b~118~ubuntu22.04.1) date 2023-03-14 18:26:24*
%MOMM*%
%LPD*%
G01*
G04 APERTURE LIST*
%ADD10C,0.125000*%
%ADD11C,0.150000*%
%ADD12C,0.120000*%
G04 APERTURE END LIST*
D10*
X-18857142Y-3723333D02*
X-18619047Y-3723333D01*
X-18904761Y-3866190D02*
X-18738095Y-3366190D01*
X-18571428Y-3866190D01*
X-18404761Y-3866190D02*
X-18404761Y-3532857D01*
X-18404761Y-3366190D02*
X-18428571Y-3390000D01*
X-18404761Y-3413809D01*
X-18380952Y-3390000D01*
X-18404761Y-3366190D01*
X-18404761Y-3413809D01*
X-18166666Y-3866190D02*
X-18166666Y-3532857D01*
X-18166666Y-3628095D02*
X-18142857Y-3580476D01*
X-18119047Y-3556666D01*
X-18071428Y-3532857D01*
X-18023809Y-3532857D01*
X-17857142Y-3866190D02*
X-17857142Y-3366190D01*
X-17857142Y-3556666D02*
X-17809523Y-3532857D01*
X-17714285Y-3532857D01*
X-17666666Y-3556666D01*
X-17642857Y-3580476D01*
X-17619047Y-3628095D01*
X-17619047Y-3770952D01*
X-17642857Y-3818571D01*
X-17666666Y-3842380D01*
X-17714285Y-3866190D01*
X-17809523Y-3866190D01*
X-17857142Y-3842380D01*
X-17190476Y-3866190D02*
X-17190476Y-3604285D01*
X-17214285Y-3556666D01*
X-17261904Y-3532857D01*
X-17357142Y-3532857D01*
X-17404761Y-3556666D01*
X-17190476Y-3842380D02*
X-17238095Y-3866190D01*
X-17357142Y-3866190D01*
X-17404761Y-3842380D01*
X-17428571Y-3794761D01*
X-17428571Y-3747142D01*
X-17404761Y-3699523D01*
X-17357142Y-3675714D01*
X-17238095Y-3675714D01*
X-17190476Y-3651904D01*
X-16880952Y-3866190D02*
X-16928571Y-3842380D01*
X-16952380Y-3794761D01*
X-16952380Y-3366190D01*
X-16619047Y-3866190D02*
X-16666666Y-3842380D01*
X-16690476Y-3794761D01*
X-16690476Y-3366190D01*
X-20642857Y-4337857D02*
X-20642857Y-4837857D01*
X-20642857Y-4361666D02*
X-20595238Y-4337857D01*
X-20500000Y-4337857D01*
X-20452380Y-4361666D01*
X-20428571Y-4385476D01*
X-20404761Y-4433095D01*
X-20404761Y-4575952D01*
X-20428571Y-4623571D01*
X-20452380Y-4647380D01*
X-20500000Y-4671190D01*
X-20595238Y-4671190D01*
X-20642857Y-4647380D01*
X-20190476Y-4671190D02*
X-20190476Y-4337857D01*
X-20190476Y-4433095D02*
X-20166666Y-4385476D01*
X-20142857Y-4361666D01*
X-20095238Y-4337857D01*
X-20047619Y-4337857D01*
X-19690476Y-4647380D02*
X-19738095Y-4671190D01*
X-19833333Y-4671190D01*
X-19880952Y-4647380D01*
X-19904761Y-4599761D01*
X-19904761Y-4409285D01*
X-19880952Y-4361666D01*
X-19833333Y-4337857D01*
X-19738095Y-4337857D01*
X-19690476Y-4361666D01*
X-19666666Y-4409285D01*
X-19666666Y-4456904D01*
X-19904761Y-4504523D01*
X-19476190Y-4647380D02*
X-19428571Y-4671190D01*
X-19333333Y-4671190D01*
X-19285714Y-4647380D01*
X-19261904Y-4599761D01*
X-19261904Y-4575952D01*
X-19285714Y-4528333D01*
X-19333333Y-4504523D01*
X-19404761Y-4504523D01*
X-19452380Y-4480714D01*
X-19476190Y-4433095D01*
X-19476190Y-4409285D01*
X-19452380Y-4361666D01*
X-19404761Y-4337857D01*
X-19333333Y-4337857D01*
X-19285714Y-4361666D01*
X-19071428Y-4647380D02*
X-19023809Y-4671190D01*
X-18928571Y-4671190D01*
X-18880952Y-4647380D01*
X-18857142Y-4599761D01*
X-18857142Y-4575952D01*
X-18880952Y-4528333D01*
X-18928571Y-4504523D01*
X-19000000Y-4504523D01*
X-19047619Y-4480714D01*
X-19071428Y-4433095D01*
X-19071428Y-4409285D01*
X-19047619Y-4361666D01*
X-19000000Y-4337857D01*
X-18928571Y-4337857D01*
X-18880952Y-4361666D01*
X-18428571Y-4337857D02*
X-18428571Y-4671190D01*
X-18642857Y-4337857D02*
X-18642857Y-4599761D01*
X-18619047Y-4647380D01*
X-18571428Y-4671190D01*
X-18500000Y-4671190D01*
X-18452380Y-4647380D01*
X-18428571Y-4623571D01*
X-18190476Y-4671190D02*
X-18190476Y-4337857D01*
X-18190476Y-4433095D02*
X-18166666Y-4385476D01*
X-18142857Y-4361666D01*
X-18095238Y-4337857D01*
X-18047619Y-4337857D01*
X-17690476Y-4647380D02*
X-17738095Y-4671190D01*
X-17833333Y-4671190D01*
X-17880952Y-4647380D01*
X-17904761Y-4599761D01*
X-17904761Y-4409285D01*
X-17880952Y-4361666D01*
X-17833333Y-4337857D01*
X-17738095Y-4337857D01*
X-17690476Y-4361666D01*
X-17666666Y-4409285D01*
X-17666666Y-4456904D01*
X-17904761Y-4504523D01*
X-17095238Y-4647380D02*
X-17047619Y-4671190D01*
X-16952380Y-4671190D01*
X-16904761Y-4647380D01*
X-16880952Y-4599761D01*
X-16880952Y-4575952D01*
X-16904761Y-4528333D01*
X-16952380Y-4504523D01*
X-17023809Y-4504523D01*
X-17071428Y-4480714D01*
X-17095238Y-4433095D01*
X-17095238Y-4409285D01*
X-17071428Y-4361666D01*
X-17023809Y-4337857D01*
X-16952380Y-4337857D01*
X-16904761Y-4361666D01*
X-16476190Y-4647380D02*
X-16523809Y-4671190D01*
X-16619047Y-4671190D01*
X-16666666Y-4647380D01*
X-16690476Y-4599761D01*
X-16690476Y-4409285D01*
X-16666666Y-4361666D01*
X-16619047Y-4337857D01*
X-16523809Y-4337857D01*
X-16476190Y-4361666D01*
X-16452380Y-4409285D01*
X-16452380Y-4456904D01*
X-16690476Y-4504523D01*
X-16238095Y-4337857D02*
X-16238095Y-4671190D01*
X-16238095Y-4385476D02*
X-16214285Y-4361666D01*
X-16166666Y-4337857D01*
X-16095238Y-4337857D01*
X-16047619Y-4361666D01*
X-16023809Y-4409285D01*
X-16023809Y-4671190D01*
X-15809523Y-4647380D02*
X-15761904Y-4671190D01*
X-15666666Y-4671190D01*
X-15619047Y-4647380D01*
X-15595238Y-4599761D01*
X-15595238Y-4575952D01*
X-15619047Y-4528333D01*
X-15666666Y-4504523D01*
X-15738095Y-4504523D01*
X-15785714Y-4480714D01*
X-15809523Y-4433095D01*
X-15809523Y-4409285D01*
X-15785714Y-4361666D01*
X-15738095Y-4337857D01*
X-15666666Y-4337857D01*
X-15619047Y-4361666D01*
X-15309523Y-4671190D02*
X-15357142Y-4647380D01*
X-15380952Y-4623571D01*
X-15404761Y-4575952D01*
X-15404761Y-4433095D01*
X-15380952Y-4385476D01*
X-15357142Y-4361666D01*
X-15309523Y-4337857D01*
X-15238095Y-4337857D01*
X-15190476Y-4361666D01*
X-15166666Y-4385476D01*
X-15142857Y-4433095D01*
X-15142857Y-4575952D01*
X-15166666Y-4623571D01*
X-15190476Y-4647380D01*
X-15238095Y-4671190D01*
X-15309523Y-4671190D01*
X-14928571Y-4671190D02*
X-14928571Y-4337857D01*
X-14928571Y-4433095D02*
X-14904761Y-4385476D01*
X-14880952Y-4361666D01*
X-14833333Y-4337857D01*
X-14785714Y-4337857D01*
X-20988095Y-5428571D02*
X-21011904Y-5452380D01*
X-21083333Y-5476190D01*
X-21130952Y-5476190D01*
X-21202380Y-5452380D01*
X-21250000Y-5404761D01*
X-21273809Y-5357142D01*
X-21297619Y-5261904D01*
X-21297619Y-5190476D01*
X-21273809Y-5095238D01*
X-21250000Y-5047619D01*
X-21202380Y-5000000D01*
X-21130952Y-4976190D01*
X-21083333Y-4976190D01*
X-21011904Y-5000000D01*
X-20988095Y-5023809D01*
X-20702380Y-5476190D02*
X-20750000Y-5452380D01*
X-20773809Y-5428571D01*
X-20797619Y-5380952D01*
X-20797619Y-5238095D01*
X-20773809Y-5190476D01*
X-20750000Y-5166666D01*
X-20702380Y-5142857D01*
X-20630952Y-5142857D01*
X-20583333Y-5166666D01*
X-20559523Y-5190476D01*
X-20535714Y-5238095D01*
X-20535714Y-5380952D01*
X-20559523Y-5428571D01*
X-20583333Y-5452380D01*
X-20630952Y-5476190D01*
X-20702380Y-5476190D01*
X-20321428Y-5142857D02*
X-20321428Y-5642857D01*
X-20321428Y-5166666D02*
X-20273809Y-5142857D01*
X-20178571Y-5142857D01*
X-20130952Y-5166666D01*
X-20107142Y-5190476D01*
X-20083333Y-5238095D01*
X-20083333Y-5380952D01*
X-20107142Y-5428571D01*
X-20130952Y-5452380D01*
X-20178571Y-5476190D01*
X-20273809Y-5476190D01*
X-20321428Y-5452380D01*
X-19916666Y-5142857D02*
X-19797619Y-5476190D01*
X-19678571Y-5142857D02*
X-19797619Y-5476190D01*
X-19845238Y-5595238D01*
X-19869047Y-5619047D01*
X-19916666Y-5642857D01*
X-19488095Y-5476190D02*
X-19488095Y-5142857D01*
X-19488095Y-5238095D02*
X-19464285Y-5190476D01*
X-19440476Y-5166666D01*
X-19392857Y-5142857D01*
X-19345238Y-5142857D01*
X-19178571Y-5476190D02*
X-19178571Y-5142857D01*
X-19178571Y-4976190D02*
X-19202380Y-5000000D01*
X-19178571Y-5023809D01*
X-19154761Y-5000000D01*
X-19178571Y-4976190D01*
X-19178571Y-5023809D01*
X-18726190Y-5142857D02*
X-18726190Y-5547619D01*
X-18750000Y-5595238D01*
X-18773809Y-5619047D01*
X-18821428Y-5642857D01*
X-18892857Y-5642857D01*
X-18940476Y-5619047D01*
X-18726190Y-5452380D02*
X-18773809Y-5476190D01*
X-18869047Y-5476190D01*
X-18916666Y-5452380D01*
X-18940476Y-5428571D01*
X-18964285Y-5380952D01*
X-18964285Y-5238095D01*
X-18940476Y-5190476D01*
X-18916666Y-5166666D01*
X-18869047Y-5142857D01*
X-18773809Y-5142857D01*
X-18726190Y-5166666D01*
X-18488095Y-5476190D02*
X-18488095Y-4976190D01*
X-18273809Y-5476190D02*
X-18273809Y-5214285D01*
X-18297619Y-5166666D01*
X-18345238Y-5142857D01*
X-18416666Y-5142857D01*
X-18464285Y-5166666D01*
X-18488095Y-5190476D01*
X-18107142Y-5142857D02*
X-17916666Y-5142857D01*
X-18035714Y-4976190D02*
X-18035714Y-5404761D01*
X-18011904Y-5452380D01*
X-17964285Y-5476190D01*
X-17916666Y-5476190D01*
X-16964285Y-5095238D02*
X-17011904Y-5071428D01*
X-17107142Y-5071428D01*
X-17154761Y-5095238D01*
X-17202380Y-5142857D01*
X-17226190Y-5190476D01*
X-17226190Y-5285714D01*
X-17202380Y-5333333D01*
X-17154761Y-5380952D01*
X-17107142Y-5404761D01*
X-17011904Y-5404761D01*
X-16964285Y-5380952D01*
X-17059523Y-4904761D02*
X-17178571Y-4928571D01*
X-17297619Y-5000000D01*
X-17369047Y-5119047D01*
X-17392857Y-5238095D01*
X-17369047Y-5357142D01*
X-17297619Y-5476190D01*
X-17178571Y-5547619D01*
X-17059523Y-5571428D01*
X-16940476Y-5547619D01*
X-16821428Y-5476190D01*
X-16750000Y-5357142D01*
X-16726190Y-5238095D01*
X-16750000Y-5119047D01*
X-16821428Y-5000000D01*
X-16940476Y-4928571D01*
X-17059523Y-4904761D01*
X-16154761Y-5023809D02*
X-16130952Y-5000000D01*
X-16083333Y-4976190D01*
X-15964285Y-4976190D01*
X-15916666Y-5000000D01*
X-15892857Y-5023809D01*
X-15869047Y-5071428D01*
X-15869047Y-5119047D01*
X-15892857Y-5190476D01*
X-16178571Y-5476190D01*
X-15869047Y-5476190D01*
X-15559523Y-4976190D02*
X-15511904Y-4976190D01*
X-15464285Y-5000000D01*
X-15440476Y-5023809D01*
X-15416666Y-5071428D01*
X-15392857Y-5166666D01*
X-15392857Y-5285714D01*
X-15416666Y-5380952D01*
X-15440476Y-5428571D01*
X-15464285Y-5452380D01*
X-15511904Y-5476190D01*
X-15559523Y-5476190D01*
X-15607142Y-5452380D01*
X-15630952Y-5428571D01*
X-15654761Y-5380952D01*
X-15678571Y-5285714D01*
X-15678571Y-5166666D01*
X-15654761Y-5071428D01*
X-15630952Y-5023809D01*
X-15607142Y-5000000D01*
X-15559523Y-4976190D01*
X-15202380Y-5023809D02*
X-15178571Y-5000000D01*
X-15130952Y-4976190D01*
X-15011904Y-4976190D01*
X-14964285Y-5000000D01*
X-14940476Y-5023809D01*
X-14916666Y-5071428D01*
X-14916666Y-5119047D01*
X-14940476Y-5190476D01*
X-15226190Y-5476190D01*
X-14916666Y-5476190D01*
X-14750000Y-4976190D02*
X-14440476Y-4976190D01*
X-14607142Y-5166666D01*
X-14535714Y-5166666D01*
X-14488095Y-5190476D01*
X-14464285Y-5214285D01*
X-14440476Y-5261904D01*
X-14440476Y-5380952D01*
X-14464285Y-5428571D01*
X-14488095Y-5452380D01*
X-14535714Y-5476190D01*
X-14678571Y-5476190D01*
X-14726190Y-5452380D01*
X-14750000Y-5428571D01*
X-14202380Y-5452380D02*
X-14202380Y-5476190D01*
X-14226190Y-5523809D01*
X-14250000Y-5547619D01*
X-21321428Y-5781190D02*
X-21035714Y-5781190D01*
X-21178571Y-6281190D02*
X-21178571Y-5781190D01*
X-20869047Y-6281190D02*
X-20869047Y-5781190D01*
X-20654761Y-6281190D02*
X-20654761Y-6019285D01*
X-20678571Y-5971666D01*
X-20726190Y-5947857D01*
X-20797619Y-5947857D01*
X-20845238Y-5971666D01*
X-20869047Y-5995476D01*
X-20226190Y-6257380D02*
X-20273809Y-6281190D01*
X-20369047Y-6281190D01*
X-20416666Y-6257380D01*
X-20440476Y-6209761D01*
X-20440476Y-6019285D01*
X-20416666Y-5971666D01*
X-20369047Y-5947857D01*
X-20273809Y-5947857D01*
X-20226190Y-5971666D01*
X-20202380Y-6019285D01*
X-20202380Y-6066904D01*
X-20440476Y-6114523D01*
X-19630952Y-6138333D02*
X-19392857Y-6138333D01*
X-19678571Y-6281190D02*
X-19511904Y-5781190D01*
X-19345238Y-6281190D01*
X-19178571Y-6281190D02*
X-19178571Y-5947857D01*
X-19178571Y-5781190D02*
X-19202380Y-5805000D01*
X-19178571Y-5828809D01*
X-19154761Y-5805000D01*
X-19178571Y-5781190D01*
X-19178571Y-5828809D01*
X-18940476Y-6281190D02*
X-18940476Y-5947857D01*
X-18940476Y-6043095D02*
X-18916666Y-5995476D01*
X-18892857Y-5971666D01*
X-18845238Y-5947857D01*
X-18797619Y-5947857D01*
X-18630952Y-6281190D02*
X-18630952Y-5781190D01*
X-18630952Y-5971666D02*
X-18583333Y-5947857D01*
X-18488095Y-5947857D01*
X-18440476Y-5971666D01*
X-18416666Y-5995476D01*
X-18392857Y-6043095D01*
X-18392857Y-6185952D01*
X-18416666Y-6233571D01*
X-18440476Y-6257380D01*
X-18488095Y-6281190D01*
X-18583333Y-6281190D01*
X-18630952Y-6257380D01*
X-17964285Y-6281190D02*
X-17964285Y-6019285D01*
X-17988095Y-5971666D01*
X-18035714Y-5947857D01*
X-18130952Y-5947857D01*
X-18178571Y-5971666D01*
X-17964285Y-6257380D02*
X-18011904Y-6281190D01*
X-18130952Y-6281190D01*
X-18178571Y-6257380D01*
X-18202380Y-6209761D01*
X-18202380Y-6162142D01*
X-18178571Y-6114523D01*
X-18130952Y-6090714D01*
X-18011904Y-6090714D01*
X-17964285Y-6066904D01*
X-17654761Y-6281190D02*
X-17702380Y-6257380D01*
X-17726190Y-6209761D01*
X-17726190Y-5781190D01*
X-17392857Y-6281190D02*
X-17440476Y-6257380D01*
X-17464285Y-6209761D01*
X-17464285Y-5781190D01*
X-16607142Y-6281190D02*
X-16607142Y-6019285D01*
X-16630952Y-5971666D01*
X-16678571Y-5947857D01*
X-16773809Y-5947857D01*
X-16821428Y-5971666D01*
X-16607142Y-6257380D02*
X-16654761Y-6281190D01*
X-16773809Y-6281190D01*
X-16821428Y-6257380D01*
X-16845238Y-6209761D01*
X-16845238Y-6162142D01*
X-16821428Y-6114523D01*
X-16773809Y-6090714D01*
X-16654761Y-6090714D01*
X-16607142Y-6066904D01*
X-16154761Y-5947857D02*
X-16154761Y-6281190D01*
X-16369047Y-5947857D02*
X-16369047Y-6209761D01*
X-16345238Y-6257380D01*
X-16297619Y-6281190D01*
X-16226190Y-6281190D01*
X-16178571Y-6257380D01*
X-16154761Y-6233571D01*
X-15988095Y-5947857D02*
X-15797619Y-5947857D01*
X-15916666Y-5781190D02*
X-15916666Y-6209761D01*
X-15892857Y-6257380D01*
X-15845238Y-6281190D01*
X-15797619Y-6281190D01*
X-15630952Y-6281190D02*
X-15630952Y-5781190D01*
X-15416666Y-6281190D02*
X-15416666Y-6019285D01*
X-15440476Y-5971666D01*
X-15488095Y-5947857D01*
X-15559523Y-5947857D01*
X-15607142Y-5971666D01*
X-15630952Y-5995476D01*
X-15107142Y-6281190D02*
X-15154761Y-6257380D01*
X-15178571Y-6233571D01*
X-15202380Y-6185952D01*
X-15202380Y-6043095D01*
X-15178571Y-5995476D01*
X-15154761Y-5971666D01*
X-15107142Y-5947857D01*
X-15035714Y-5947857D01*
X-14988095Y-5971666D01*
X-14964285Y-5995476D01*
X-14940476Y-6043095D01*
X-14940476Y-6185952D01*
X-14964285Y-6233571D01*
X-14988095Y-6257380D01*
X-15035714Y-6281190D01*
X-15107142Y-6281190D01*
X-14726190Y-6281190D02*
X-14726190Y-5947857D01*
X-14726190Y-6043095D02*
X-14702380Y-5995476D01*
X-14678571Y-5971666D01*
X-14630952Y-5947857D01*
X-14583333Y-5947857D01*
X-14440476Y-6257380D02*
X-14392857Y-6281190D01*
X-14297619Y-6281190D01*
X-14250000Y-6257380D01*
X-14226190Y-6209761D01*
X-14226190Y-6185952D01*
X-14250000Y-6138333D01*
X-14297619Y-6114523D01*
X-14369047Y-6114523D01*
X-14416666Y-6090714D01*
X-14440476Y-6043095D01*
X-14440476Y-6019285D01*
X-14416666Y-5971666D01*
X-14369047Y-5947857D01*
X-14297619Y-5947857D01*
X-14250000Y-5971666D01*
X-20178571Y-6633809D02*
X-20154761Y-6610000D01*
X-20107142Y-6586190D01*
X-19988095Y-6586190D01*
X-19940476Y-6610000D01*
X-19916666Y-6633809D01*
X-19892857Y-6681428D01*
X-19892857Y-6729047D01*
X-19916666Y-6800476D01*
X-20202380Y-7086190D01*
X-19892857Y-7086190D01*
X-19583333Y-6586190D02*
X-19535714Y-6586190D01*
X-19488095Y-6610000D01*
X-19464285Y-6633809D01*
X-19440476Y-6681428D01*
X-19416666Y-6776666D01*
X-19416666Y-6895714D01*
X-19440476Y-6990952D01*
X-19464285Y-7038571D01*
X-19488095Y-7062380D01*
X-19535714Y-7086190D01*
X-19583333Y-7086190D01*
X-19630952Y-7062380D01*
X-19654761Y-7038571D01*
X-19678571Y-6990952D01*
X-19702380Y-6895714D01*
X-19702380Y-6776666D01*
X-19678571Y-6681428D01*
X-19654761Y-6633809D01*
X-19630952Y-6610000D01*
X-19583333Y-6586190D01*
X-19226190Y-6633809D02*
X-19202380Y-6610000D01*
X-19154761Y-6586190D01*
X-19035714Y-6586190D01*
X-18988095Y-6610000D01*
X-18964285Y-6633809D01*
X-18940476Y-6681428D01*
X-18940476Y-6729047D01*
X-18964285Y-6800476D01*
X-19250000Y-7086190D01*
X-18940476Y-7086190D01*
X-18773809Y-6586190D02*
X-18464285Y-6586190D01*
X-18630952Y-6776666D01*
X-18559523Y-6776666D01*
X-18511904Y-6800476D01*
X-18488095Y-6824285D01*
X-18464285Y-6871904D01*
X-18464285Y-6990952D01*
X-18488095Y-7038571D01*
X-18511904Y-7062380D01*
X-18559523Y-7086190D01*
X-18702380Y-7086190D01*
X-18750000Y-7062380D01*
X-18773809Y-7038571D01*
X-18250000Y-6895714D02*
X-17869047Y-6895714D01*
X-17535714Y-6586190D02*
X-17488095Y-6586190D01*
X-17440476Y-6610000D01*
X-17416666Y-6633809D01*
X-17392857Y-6681428D01*
X-17369047Y-6776666D01*
X-17369047Y-6895714D01*
X-17392857Y-6990952D01*
X-17416666Y-7038571D01*
X-17440476Y-7062380D01*
X-17488095Y-7086190D01*
X-17535714Y-7086190D01*
X-17583333Y-7062380D01*
X-17607142Y-7038571D01*
X-17630952Y-6990952D01*
X-17654761Y-6895714D01*
X-17654761Y-6776666D01*
X-17630952Y-6681428D01*
X-17607142Y-6633809D01*
X-17583333Y-6610000D01*
X-17535714Y-6586190D01*
X-17202380Y-6586190D02*
X-16892857Y-6586190D01*
X-17059523Y-6776666D01*
X-16988095Y-6776666D01*
X-16940476Y-6800476D01*
X-16916666Y-6824285D01*
X-16892857Y-6871904D01*
X-16892857Y-6990952D01*
X-16916666Y-7038571D01*
X-16940476Y-7062380D01*
X-16988095Y-7086190D01*
X-17130952Y-7086190D01*
X-17178571Y-7062380D01*
X-17202380Y-7038571D01*
X-16678571Y-6895714D02*
X-16297619Y-6895714D01*
X-15797619Y-7086190D02*
X-16083333Y-7086190D01*
X-15940476Y-7086190D02*
X-15940476Y-6586190D01*
X-15988095Y-6657619D01*
X-16035714Y-6705238D01*
X-16083333Y-6729047D01*
X-15369047Y-6752857D02*
X-15369047Y-7086190D01*
X-15488095Y-6562380D02*
X-15607142Y-6919523D01*
X-15297619Y-6919523D01*
D11*
%TO.C,J1*%
X-8333333Y-1152380D02*
X-8333333Y-1866666D01*
X-8380952Y-2009523D01*
X-8476190Y-2104761D01*
X-8619047Y-2152380D01*
X-8714285Y-2152380D01*
X-7333333Y-2152380D02*
X-7904761Y-2152380D01*
X-7619047Y-2152380D02*
X-7619047Y-1152380D01*
X-7714285Y-1295238D01*
X-7809523Y-1390476D01*
X-7904761Y-1438095D01*
%TO.C,U1*%
X3988095Y-7702380D02*
X3988095Y-8511904D01*
X4035714Y-8607142D01*
X4083333Y-8654761D01*
X4178571Y-8702380D01*
X4369047Y-8702380D01*
X4464285Y-8654761D01*
X4511904Y-8607142D01*
X4559523Y-8511904D01*
X4559523Y-7702380D01*
X5559523Y-8702380D02*
X4988095Y-8702380D01*
X5273809Y-8702380D02*
X5273809Y-7702380D01*
X5178571Y-7845238D01*
X5083333Y-7940476D01*
X4988095Y-7988095D01*
X11628571Y1678571D02*
X11700000Y1607142D01*
X11771428Y1464285D01*
X11771428Y1107142D01*
X11700000Y964285D01*
X11628571Y892857D01*
X11485714Y821428D01*
X11342857Y821428D01*
X11128571Y892857D01*
X10271428Y1750000D01*
X10271428Y821428D01*
X14371428Y821428D02*
X14371428Y1678571D01*
X14371428Y1250000D02*
X15871428Y1249999D01*
X15657142Y1392857D01*
X15514285Y1535714D01*
X15442857Y1678571D01*
D10*
%TO.C,C11*%
X4428571Y-5821428D02*
X4452380Y-5845238D01*
X4476190Y-5916666D01*
X4476190Y-5964285D01*
X4452380Y-6035714D01*
X4404761Y-6083333D01*
X4357142Y-6107142D01*
X4261904Y-6130952D01*
X4190476Y-6130952D01*
X4095238Y-6107142D01*
X4047619Y-6083333D01*
X4000000Y-6035714D01*
X3976190Y-5964285D01*
X3976190Y-5916666D01*
X4000000Y-5845238D01*
X4023809Y-5821428D01*
X4476190Y-5345238D02*
X4476190Y-5630952D01*
X4476190Y-5488095D02*
X3976190Y-5488095D01*
X4047619Y-5535714D01*
X4095238Y-5583333D01*
X4119047Y-5630952D01*
X4476190Y-4869047D02*
X4476190Y-5154761D01*
X4476190Y-5011904D02*
X3976190Y-5011904D01*
X4047619Y-5059523D01*
X4095238Y-5107142D01*
X4119047Y-5154761D01*
%TO.C,C12*%
X4428571Y-2821428D02*
X4452380Y-2845238D01*
X4476190Y-2916666D01*
X4476190Y-2964285D01*
X4452380Y-3035714D01*
X4404761Y-3083333D01*
X4357142Y-3107142D01*
X4261904Y-3130952D01*
X4190476Y-3130952D01*
X4095238Y-3107142D01*
X4047619Y-3083333D01*
X4000000Y-3035714D01*
X3976190Y-2964285D01*
X3976190Y-2916666D01*
X4000000Y-2845238D01*
X4023809Y-2821428D01*
X4476190Y-2345238D02*
X4476190Y-2630952D01*
X4476190Y-2488095D02*
X3976190Y-2488095D01*
X4047619Y-2535714D01*
X4095238Y-2583333D01*
X4119047Y-2630952D01*
X4023809Y-2154761D02*
X4000000Y-2130952D01*
X3976190Y-2083333D01*
X3976190Y-1964285D01*
X4000000Y-1916666D01*
X4023809Y-1892857D01*
X4071428Y-1869047D01*
X4119047Y-1869047D01*
X4190476Y-1892857D01*
X4476190Y-2178571D01*
X4476190Y-1869047D01*
D12*
%TO.C,J1*%
X-13110000Y-6110000D02*
X-12060000Y-6110000D01*
X-13110000Y-4960000D02*
X-13110000Y-6110000D01*
X-11940000Y-2990000D02*
X-4060000Y-2990000D01*
X-12060000Y-6110000D02*
X-12060000Y-7100000D01*
X-2890000Y-4960000D02*
X-2890000Y-6110000D01*
X-2890000Y-6110000D02*
X-3940000Y-6110000D01*
%TO.C,U1*%
X19650000Y-250000D02*
X6350000Y-250000D01*
X6350000Y-250000D02*
X6350000Y-10250000D01*
X6350000Y-10250000D02*
X19650000Y-10250000D01*
X19650000Y-10250000D02*
X19650000Y-250000D01*
X16411249Y1250000D02*
G75*
G03*
X16411249Y1250000I-1361249J0D01*
G01*
X12311249Y1250000D02*
G75*
G03*
X12311249Y1250000I-1361249J0D01*
G01*
%TO.C,C11*%
X4740000Y-5359420D02*
X4740000Y-5640580D01*
X5760000Y-5359420D02*
X5760000Y-5640580D01*
%TO.C,C12*%
X4740000Y-2640580D02*
X4740000Y-2359420D01*
X5760000Y-2640580D02*
X5760000Y-2359420D01*
%TO.C,G\u002A\u002A\u002A*%
G36*
X1207393Y-2541493D02*
G01*
X1545243Y-2628871D01*
X1872553Y-2763221D01*
X2056838Y-2863093D01*
X2220307Y-2975367D01*
X2393251Y-3120322D01*
X2563315Y-3285605D01*
X2718145Y-3458859D01*
X2845385Y-3627730D01*
X2886906Y-3693161D01*
X2955555Y-3818731D01*
X3025779Y-3963352D01*
X3084211Y-4099219D01*
X3092694Y-4121262D01*
X3125195Y-4209884D01*
X3152973Y-4292587D01*
X3176398Y-4374039D01*
X3195839Y-4458911D01*
X3211665Y-4551872D01*
X3224246Y-4657593D01*
X3233952Y-4780744D01*
X3241150Y-4925994D01*
X3246211Y-5098013D01*
X3249503Y-5301471D01*
X3251396Y-5541039D01*
X3252260Y-5821386D01*
X3252463Y-6141898D01*
X3252463Y-7502463D01*
X2126354Y-7502463D01*
X2126354Y-7099619D01*
X1965782Y-7189416D01*
X1668799Y-7328034D01*
X1348738Y-7427153D01*
X1015177Y-7485201D01*
X677692Y-7500609D01*
X345862Y-7471804D01*
X295782Y-7463323D01*
X-35436Y-7378584D01*
X-348718Y-7249430D01*
X-640322Y-7079439D01*
X-906501Y-6872192D01*
X-1143511Y-6631269D01*
X-1347608Y-6360250D01*
X-1515046Y-6062714D01*
X-1642081Y-5742241D01*
X-1692049Y-5563054D01*
X-1719728Y-5402755D01*
X-1736429Y-5209857D01*
X-1738738Y-5125123D01*
X-1507984Y-5125123D01*
X-1490912Y-5269014D01*
X-1476657Y-5368793D01*
X-1459103Y-5464750D01*
X-1449394Y-5507243D01*
X-1424948Y-5601580D01*
X-623138Y-5599879D01*
X-400798Y-5599543D01*
X-222669Y-5599800D01*
X-82910Y-5600977D01*
X24316Y-5603404D01*
X104849Y-5607409D01*
X164527Y-5613320D01*
X209189Y-5621465D01*
X244673Y-5632174D01*
X276819Y-5645774D01*
X288064Y-5651134D01*
X408203Y-5730886D01*
X513999Y-5840442D01*
X588219Y-5961798D01*
X590470Y-5967080D01*
X609905Y-6039582D01*
X622122Y-6135334D01*
X624327Y-6194122D01*
X601960Y-6359490D01*
X540900Y-6501770D01*
X448197Y-6618172D01*
X330904Y-6705911D01*
X196074Y-6762199D01*
X50758Y-6784249D01*
X-97991Y-6769272D01*
X-243120Y-6714483D01*
X-377578Y-6617093D01*
X-397164Y-6597848D01*
X-469339Y-6507394D01*
X-494714Y-6430336D01*
X-473949Y-6364183D01*
X-462782Y-6350321D01*
X-403159Y-6307729D01*
X-342740Y-6313414D01*
X-278527Y-6367920D01*
X-263480Y-6386666D01*
X-192903Y-6453787D01*
X-99685Y-6510512D01*
X-4712Y-6545565D01*
X41915Y-6551527D01*
X116009Y-6534448D01*
X202694Y-6491176D01*
X282154Y-6433659D01*
X333469Y-6375751D01*
X368651Y-6280403D01*
X378079Y-6170921D01*
X361869Y-6067877D01*
X331376Y-6005036D01*
X275507Y-5942965D01*
X214879Y-5889920D01*
X192634Y-5875049D01*
X166299Y-5863232D01*
X130029Y-5854036D01*
X77980Y-5847022D01*
X4305Y-5841756D01*
X-96840Y-5837800D01*
X-231301Y-5834719D01*
X-404923Y-5832077D01*
X-590619Y-5829816D01*
X-809338Y-5827155D01*
X-982580Y-5825583D01*
X-1114916Y-5826294D01*
X-1210920Y-5830484D01*
X-1275162Y-5839346D01*
X-1312216Y-5854075D01*
X-1326652Y-5875867D01*
X-1323044Y-5905915D01*
X-1305963Y-5945414D01*
X-1279980Y-5995559D01*
X-1273473Y-6008238D01*
X-1104289Y-6287014D01*
X-896091Y-6539018D01*
X-654404Y-6759991D01*
X-384754Y-6945679D01*
X-92665Y-7091825D01*
X216337Y-7194173D01*
X287434Y-7210688D01*
X451155Y-7235172D01*
X644022Y-7247457D01*
X846631Y-7247506D01*
X1039578Y-7235280D01*
X1195242Y-7212471D01*
X1517539Y-7120692D01*
X1823003Y-6982121D01*
X2001392Y-6874045D01*
X2095240Y-6813176D01*
X2175637Y-6764547D01*
X2232461Y-6734077D01*
X2253375Y-6726699D01*
X2295303Y-6742269D01*
X2330837Y-6768115D01*
X2353685Y-6797444D01*
X2367619Y-6842339D01*
X2374602Y-6914071D01*
X2376597Y-7023910D01*
X2376601Y-7030873D01*
X2376601Y-7252216D01*
X3004655Y-7252216D01*
X2996157Y-5919655D01*
X2994232Y-5626850D01*
X2992372Y-5379568D01*
X2990385Y-5173282D01*
X2988078Y-5003464D01*
X2985260Y-4865589D01*
X2981739Y-4755131D01*
X2977321Y-4667561D01*
X2971814Y-4598355D01*
X2965027Y-4542986D01*
X2956767Y-4496926D01*
X2946841Y-4455650D01*
X2935058Y-4414632D01*
X2931759Y-4403754D01*
X2807672Y-4076690D01*
X2644957Y-3779173D01*
X2445972Y-3513564D01*
X2213077Y-3282222D01*
X1948630Y-3087507D01*
X1654991Y-2931779D01*
X1350591Y-2821940D01*
X1171707Y-2783676D01*
X963011Y-2759730D01*
X742843Y-2750778D01*
X529543Y-2757494D01*
X341453Y-2780554D01*
X323137Y-2784108D01*
X8878Y-2871942D01*
X-289389Y-3002902D01*
X-565952Y-3172906D01*
X-815099Y-3377872D01*
X-1031119Y-3613720D01*
X-1208300Y-3876369D01*
X-1210240Y-3879796D01*
X-1262561Y-3971119D01*
X-1300937Y-4041831D01*
X-1321108Y-4094454D01*
X-1318813Y-4131507D01*
X-1289793Y-4155510D01*
X-1229788Y-4168985D01*
X-1134537Y-4174450D01*
X-999780Y-4174427D01*
X-821258Y-4171436D01*
X-720197Y-4169709D01*
X-522792Y-4166090D01*
X-369050Y-4161926D01*
X-252585Y-4156738D01*
X-167010Y-4150048D01*
X-105938Y-4141375D01*
X-62985Y-4130242D01*
X-35736Y-4118372D01*
X59559Y-4042670D01*
X118861Y-3944596D01*
X143232Y-3834402D01*
X133737Y-3722344D01*
X91438Y-3618674D01*
X17399Y-3533649D01*
X-87316Y-3477521D01*
X-102665Y-3473005D01*
X-234672Y-3460617D01*
X-356509Y-3497212D01*
X-467995Y-3582729D01*
X-482617Y-3598434D01*
X-545092Y-3662890D01*
X-591301Y-3692317D01*
X-634805Y-3691879D01*
X-678050Y-3672814D01*
X-719308Y-3625965D01*
X-724337Y-3556485D01*
X-694278Y-3475033D01*
X-650280Y-3413506D01*
X-529201Y-3310474D01*
X-386858Y-3245414D01*
X-233149Y-3218277D01*
X-77972Y-3229013D01*
X68776Y-3277572D01*
X197196Y-3363904D01*
X248839Y-3418037D01*
X314450Y-3518696D01*
X366348Y-3637312D01*
X395919Y-3752143D01*
X399655Y-3798733D01*
X380713Y-3929907D01*
X330195Y-4065757D01*
X257559Y-4182895D01*
X233006Y-4210751D01*
X180517Y-4262902D01*
X131259Y-4304376D01*
X78864Y-4336400D01*
X16960Y-4360199D01*
X-60821Y-4377001D01*
X-160850Y-4388030D01*
X-289498Y-4394514D01*
X-453135Y-4397678D01*
X-658130Y-4398749D01*
X-744258Y-4398859D01*
X-1425214Y-4399408D01*
X-1449527Y-4493251D01*
X-1466584Y-4573297D01*
X-1483319Y-4674169D01*
X-1490912Y-4730985D01*
X-1507984Y-4874876D01*
X-102479Y-4874876D01*
X205683Y-4874881D01*
X467861Y-4874669D01*
X688120Y-4873897D01*
X870528Y-4872224D01*
X1019148Y-4869309D01*
X1138047Y-4864810D01*
X1231290Y-4858386D01*
X1302943Y-4849696D01*
X1357071Y-4838397D01*
X1397740Y-4824149D01*
X1429016Y-4806609D01*
X1454963Y-4785437D01*
X1479648Y-4760290D01*
X1498077Y-4740435D01*
X1549462Y-4652460D01*
X1570864Y-4541969D01*
X1560669Y-4427682D01*
X1531626Y-4351293D01*
X1451379Y-4253724D01*
X1342808Y-4195870D01*
X1211232Y-4180391D01*
X1192451Y-4181653D01*
X1112756Y-4194724D01*
X1049314Y-4224481D01*
X980914Y-4281628D01*
X966282Y-4295803D01*
X876202Y-4369682D01*
X802343Y-4397643D01*
X742601Y-4380342D01*
X729980Y-4369379D01*
X701807Y-4310980D01*
X713384Y-4240685D01*
X757858Y-4164846D01*
X828374Y-4089821D01*
X918081Y-4021963D01*
X1020126Y-3967629D01*
X1127655Y-3933172D01*
X1210052Y-3924185D01*
X1363275Y-3941451D01*
X1498045Y-3997515D01*
X1626208Y-4097523D01*
X1639759Y-4110777D01*
X1746918Y-4248144D01*
X1809151Y-4398575D01*
X1825209Y-4555534D01*
X1793841Y-4712485D01*
X1766933Y-4775409D01*
X1740184Y-4830608D01*
X1726446Y-4862043D01*
X1725960Y-4864009D01*
X1748050Y-4871516D01*
X1803659Y-4882803D01*
X1832315Y-4887678D01*
X2016940Y-4940518D01*
X2185336Y-5038117D01*
X2272441Y-5111233D01*
X2399868Y-5262369D01*
X2485193Y-5432893D01*
X2528415Y-5615130D01*
X2529534Y-5801408D01*
X2488549Y-5984053D01*
X2405462Y-6155392D01*
X2280272Y-6307751D01*
X2272441Y-6315170D01*
X2142267Y-6422164D01*
X2015188Y-6490796D01*
X1874862Y-6527453D01*
X1704946Y-6538521D01*
X1700936Y-6538525D01*
X1572757Y-6534654D01*
X1476653Y-6521145D01*
X1395114Y-6495162D01*
X1372552Y-6485284D01*
X1244833Y-6409637D01*
X1121601Y-6307508D01*
X1021915Y-6195435D01*
X998345Y-6160569D01*
X965862Y-6102627D01*
X959874Y-6064362D01*
X978556Y-6024183D01*
X985863Y-6012840D01*
X1029335Y-5966151D01*
X1079430Y-5955688D01*
X1141906Y-5983189D01*
X1222519Y-6050394D01*
X1270943Y-6098925D01*
X1374684Y-6196266D01*
X1463127Y-6254805D01*
X1513251Y-6273958D01*
X1688656Y-6299163D01*
X1852327Y-6280779D01*
X1998307Y-6223126D01*
X2120642Y-6130520D01*
X2213377Y-6007278D01*
X2270555Y-5857717D01*
X2286753Y-5713202D01*
X2266570Y-5551796D01*
X2203609Y-5410068D01*
X2097173Y-5282591D01*
X2065715Y-5252509D01*
X2036011Y-5226524D01*
X2004343Y-5204336D01*
X1966991Y-5185645D01*
X1920236Y-5170151D01*
X1860359Y-5157555D01*
X1783642Y-5147556D01*
X1686365Y-5139856D01*
X1564809Y-5134154D01*
X1415255Y-5130151D01*
X1233984Y-5127546D01*
X1017277Y-5126041D01*
X761415Y-5125335D01*
X462679Y-5125129D01*
X143379Y-5125123D01*
X-1507984Y-5125123D01*
X-1738738Y-5125123D01*
X-1742131Y-5000595D01*
X-1736815Y-4791205D01*
X-1720460Y-4597923D01*
X-1693478Y-4438829D01*
X-1592544Y-4114360D01*
X-1447779Y-3806619D01*
X-1263396Y-3520479D01*
X-1043608Y-3260812D01*
X-792626Y-3032491D01*
X-514663Y-2840386D01*
X-213930Y-2689372D01*
X-163618Y-2669208D01*
X173497Y-2564946D01*
X517230Y-2509157D01*
X863292Y-2501464D01*
X1207393Y-2541493D01*
G37*
%TD*%
M02*
