M48
; DRILL file {KiCad 6.0.10-86aedd382b~118~ubuntu22.04.1} date Tue 14 Mar 2023 06:26:26 PM PDT
; FORMAT={-:-/ absolute / inch / decimal}
; #@! TF.CreationDate,2023-03-14T18:26:26-07:00
; #@! TF.GenerationSoftware,Kicad,Pcbnew,6.0.10-86aedd382b~118~ubuntu22.04.1
; #@! TF.FileFunction,Plated,1,2,PTH
FMAT,2
INCH
; #@! TA.AperFunction,Plated,PTH,ViaDrill
T1C0.0157
%
G90
G05
T1
X-0.8563Y-0.0689
X-0.8563Y-0.374
X-0.6815Y-0.3567
X-0.5118Y-0.0689
X-0.5118Y-0.3445
X-0.4232Y-0.2953
X-0.374Y-0.2953
X-0.3445Y-0.3543
X0.0Y-0.0689
X0.0Y-0.2461
X0.0Y-0.3445
X0.2067Y-0.1575
X0.2165Y-0.3543
X0.3642Y-0.2559
X0.3642Y-0.3567
X0.5118Y-0.0689
X0.5118Y-0.2461
X0.5118Y-0.3543
X0.8465Y-0.0689
X0.8465Y-0.374
T0
M30
