%TF.GenerationSoftware,KiCad,Pcbnew,6.0.10-86aedd382b~118~ubuntu22.04.1*%
%TF.CreationDate,2023-03-14T18:26:23-07:00*%
%TF.ProjectId,pressure-spi-3,70726573-7375-4726-952d-7370692d332e,rev?*%
%TF.SameCoordinates,Original*%
%TF.FileFunction,Copper,L1,Top*%
%TF.FilePolarity,Positive*%
%FSLAX46Y46*%
G04 Gerber Fmt 4.6, Leading zero omitted, Abs format (unit mm)*
G04 Created by KiCad (PCBNEW 6.0.10-86aedd382b~118~ubuntu22.04.1) date 2023-03-14 18:26:23*
%MOMM*%
%LPD*%
G01*
G04 APERTURE LIST*
G04 Aperture macros list*
%AMRoundRect*
0 Rectangle with rounded corners*
0 $1 Rounding radius*
0 $2 $3 $4 $5 $6 $7 $8 $9 X,Y pos of 4 corners*
0 Add a 4 corners polygon primitive as box body*
4,1,4,$2,$3,$4,$5,$6,$7,$8,$9,$2,$3,0*
0 Add four circle primitives for the rounded corners*
1,1,$1+$1,$2,$3*
1,1,$1+$1,$4,$5*
1,1,$1+$1,$6,$7*
1,1,$1+$1,$8,$9*
0 Add four rect primitives between the rounded corners*
20,1,$1+$1,$2,$3,$4,$5,0*
20,1,$1+$1,$4,$5,$6,$7,0*
20,1,$1+$1,$6,$7,$8,$9,0*
20,1,$1+$1,$8,$9,$2,$3,0*%
G04 Aperture macros list end*
%TA.AperFunction,SMDPad,CuDef*%
%ADD10RoundRect,0.150000X-0.150000X-0.625000X0.150000X-0.625000X0.150000X0.625000X-0.150000X0.625000X0*%
%TD*%
%TA.AperFunction,SMDPad,CuDef*%
%ADD11RoundRect,0.250000X-0.350000X-0.650000X0.350000X-0.650000X0.350000X0.650000X-0.350000X0.650000X0*%
%TD*%
%TA.AperFunction,SMDPad,CuDef*%
%ADD12R,2.032000X1.143000*%
%TD*%
%TA.AperFunction,SMDPad,CuDef*%
%ADD13RoundRect,0.225000X-0.250000X0.225000X-0.250000X-0.225000X0.250000X-0.225000X0.250000X0.225000X0*%
%TD*%
%TA.AperFunction,SMDPad,CuDef*%
%ADD14RoundRect,0.225000X0.250000X-0.225000X0.250000X0.225000X-0.250000X0.225000X-0.250000X-0.225000X0*%
%TD*%
%TA.AperFunction,ViaPad*%
%ADD15C,0.800000*%
%TD*%
%TA.AperFunction,Conductor*%
%ADD16C,0.500000*%
%TD*%
%TA.AperFunction,Conductor*%
%ADD17C,0.250000*%
%TD*%
G04 APERTURE END LIST*
D10*
%TO.P,J1,1,Pin_1*%
%TO.N,GND*%
X-11500000Y-6325000D03*
%TO.P,J1,2,Pin_2*%
%TO.N,+3V3*%
X-10500000Y-6325000D03*
%TO.P,J1,3,Pin_3*%
%TO.N,/MISO*%
X-9500000Y-6325000D03*
%TO.P,J1,4,Pin_4*%
%TO.N,/SCLK*%
X-8500000Y-6325000D03*
%TO.P,J1,5,Pin_5*%
%TO.N,/!CS0*%
X-7500000Y-6325000D03*
%TO.P,J1,6,Pin_6*%
%TO.N,/!CS1*%
X-6500000Y-6325000D03*
%TO.P,J1,7,Pin_7*%
%TO.N,/!CS2*%
X-5500000Y-6325000D03*
%TO.P,J1,8,Pin_8*%
%TO.N,unconnected-(J1-Pad8)*%
X-4500000Y-6325000D03*
D11*
%TO.P,J1,MP*%
%TO.N,GND*%
X-12800000Y-3800000D03*
X-3200000Y-3800000D03*
%TD*%
D12*
%TO.P,U1,1,GND*%
%TO.N,GND*%
X7284000Y-1440000D03*
%TO.P,U1,2,VCC*%
%TO.N,+3V3*%
X7284000Y-3980000D03*
%TO.P,U1,3,MISO*%
%TO.N,/MISO*%
X7284000Y-6520000D03*
%TO.P,U1,4,SCLK*%
%TO.N,/SCLK*%
X7284000Y-9060000D03*
%TO.P,U1,5,SS*%
%TO.N,/!CS0*%
X18716000Y-9060000D03*
%TO.P,U1,6*%
%TO.N,N/C*%
X18716000Y-6520000D03*
%TO.P,U1,7*%
X18716000Y-3980000D03*
%TO.P,U1,8*%
X18716000Y-1440000D03*
%TD*%
D13*
%TO.P,C11,1*%
%TO.N,+3V3*%
X5250000Y-4725000D03*
%TO.P,C11,2*%
%TO.N,GND*%
X5250000Y-6275000D03*
%TD*%
D14*
%TO.P,C12,1*%
%TO.N,+3V3*%
X5250000Y-3275000D03*
%TO.P,C12,2*%
%TO.N,GND*%
X5250000Y-1725000D03*
%TD*%
D15*
%TO.N,+3V3*%
X5250000Y-4000000D03*
X-10750000Y-7500000D03*
%TO.N,GND*%
X-13000000Y-8750000D03*
X-13000000Y-1750000D03*
X21500000Y-1750000D03*
X-21750000Y-9500000D03*
X0Y-6250000D03*
X13000000Y-1750000D03*
X-21750000Y-1750000D03*
X0Y-1750000D03*
X21500000Y-9500000D03*
X13000000Y-9000000D03*
X0Y-8750000D03*
X13000000Y-6250000D03*
%TO.N,/!CS1*%
X5500000Y-9000000D03*
%TO.N,/MISO*%
X-9500000Y-7500000D03*
X9250000Y-6500000D03*
%TO.N,/SCLK*%
X9250000Y-9060000D03*
X-8750000Y-9000000D03*
%TO.N,/!CS2*%
X-17310000Y-9060000D03*
%TD*%
D16*
%TO.N,+3V3*%
X5250000Y-4000000D02*
X5250000Y-4725000D01*
X5250000Y-4000000D02*
X5270000Y-3980000D01*
X5270000Y-3980000D02*
X7284000Y-3980000D01*
X5250000Y-3275000D02*
X5250000Y-4000000D01*
X-10500000Y-7250000D02*
X-10750000Y-7500000D01*
X-10500000Y-6325000D02*
X-10500000Y-7250000D01*
D17*
%TO.N,/!CS1*%
X4700000Y-9800000D02*
X5500000Y-9000000D01*
X-6500000Y-8363604D02*
X-5063604Y-9800000D01*
X-6500000Y-6325000D02*
X-6500000Y-8363604D01*
X-5063604Y-9800000D02*
X4700000Y-9800000D01*
%TO.N,/MISO*%
X-9500000Y-6325000D02*
X-9500000Y-7500000D01*
X9230000Y-6520000D02*
X7284000Y-6520000D01*
X9250000Y-6500000D02*
X9230000Y-6520000D01*
%TO.N,/SCLK*%
X9250000Y-9060000D02*
X7284000Y-9060000D01*
X-8500000Y-8750000D02*
X-8750000Y-9000000D01*
X-8500000Y-6325000D02*
X-8500000Y-8750000D01*
%TO.N,/!CS0*%
X17526000Y-10250000D02*
X18716000Y-9060000D01*
X-5250000Y-10250000D02*
X17526000Y-10250000D01*
X-7500000Y-8000000D02*
X-5250000Y-10250000D01*
X-7500000Y-6325000D02*
X-7500000Y-8000000D01*
%TO.N,/!CS2*%
X-17310000Y-8810000D02*
X-13725000Y-5225000D01*
X-13725000Y-5225000D02*
X-6153249Y-5225000D01*
X-5500000Y-5878249D02*
X-5500000Y-6325000D01*
X-6153249Y-5225000D02*
X-5500000Y-5878249D01*
X-17310000Y-9060000D02*
X-17310000Y-8810000D01*
%TD*%
%TA.AperFunction,Conductor*%
%TO.N,GND*%
G36*
X21471315Y-151516D02*
G01*
X21483978Y-151516D01*
X21500000Y-155809D01*
X21514178Y-152010D01*
X21516478Y-152123D01*
X21653379Y-165607D01*
X21677596Y-170423D01*
X21813219Y-211563D01*
X21836033Y-221013D01*
X21961017Y-287820D01*
X21981549Y-301539D01*
X22019781Y-332916D01*
X22091094Y-391441D01*
X22108559Y-408906D01*
X22198459Y-518448D01*
X22212180Y-538983D01*
X22278985Y-663964D01*
X22278986Y-663965D01*
X22288437Y-686781D01*
X22329577Y-822404D01*
X22334393Y-846621D01*
X22335703Y-859914D01*
X22347877Y-983522D01*
X22347990Y-985822D01*
X22344191Y-1000000D01*
X22348484Y-1016022D01*
X22348484Y-1028685D01*
X22349500Y-1036402D01*
X22349500Y-9963598D01*
X22348484Y-9971315D01*
X22348484Y-9983978D01*
X22344191Y-10000000D01*
X22347990Y-10014178D01*
X22347877Y-10016478D01*
X22334394Y-10153376D01*
X22329577Y-10177596D01*
X22288438Y-10313216D01*
X22278987Y-10336033D01*
X22212184Y-10461012D01*
X22212182Y-10461015D01*
X22198461Y-10481549D01*
X22176173Y-10508707D01*
X22108559Y-10591094D01*
X22091094Y-10608559D01*
X22019781Y-10667084D01*
X21981549Y-10698461D01*
X21961017Y-10712180D01*
X21836033Y-10778987D01*
X21813219Y-10788437D01*
X21677596Y-10829577D01*
X21653379Y-10834393D01*
X21517012Y-10847824D01*
X21516478Y-10847877D01*
X21514178Y-10847990D01*
X21500000Y-10844191D01*
X21483978Y-10848484D01*
X21471315Y-10848484D01*
X21463598Y-10849500D01*
X-21463598Y-10849500D01*
X-21471315Y-10848484D01*
X-21483978Y-10848484D01*
X-21500000Y-10844191D01*
X-21514178Y-10847990D01*
X-21516478Y-10847877D01*
X-21517012Y-10847824D01*
X-21653379Y-10834393D01*
X-21677602Y-10829575D01*
X-21813216Y-10788437D01*
X-21836036Y-10778985D01*
X-21961012Y-10712184D01*
X-21981549Y-10698461D01*
X-22091094Y-10608560D01*
X-22108560Y-10591094D01*
X-22198461Y-10481549D01*
X-22212184Y-10461012D01*
X-22278985Y-10336036D01*
X-22288437Y-10313216D01*
X-22329575Y-10177602D01*
X-22334394Y-10153376D01*
X-22347877Y-10016478D01*
X-22347990Y-10014178D01*
X-22344191Y-10000000D01*
X-22348484Y-9983978D01*
X-22348484Y-9971315D01*
X-22349500Y-9963598D01*
X-22349500Y-9060000D01*
X-17915682Y-9060000D01*
X-17895044Y-9216762D01*
X-17834536Y-9362841D01*
X-17738282Y-9488282D01*
X-17612841Y-9584536D01*
X-17466762Y-9645044D01*
X-17310000Y-9665682D01*
X-17301812Y-9664604D01*
X-17161426Y-9646122D01*
X-17153238Y-9645044D01*
X-17007159Y-9584536D01*
X-16881718Y-9488282D01*
X-16785464Y-9362841D01*
X-16724956Y-9216762D01*
X-16704318Y-9060000D01*
X-16724956Y-8903238D01*
X-16756576Y-8826901D01*
X-16764165Y-8756312D01*
X-16729262Y-8689588D01*
X-15030514Y-6990840D01*
X-11950000Y-6990840D01*
X-11949558Y-6998286D01*
X-11948006Y-7011336D01*
X-11943048Y-7029374D01*
X-11906245Y-7112231D01*
X-11893287Y-7131085D01*
X-11830658Y-7193604D01*
X-11811787Y-7206526D01*
X-11770570Y-7224747D01*
X-11756587Y-7226585D01*
X-11754000Y-7222449D01*
X-11754000Y-6597115D01*
X-11758475Y-6581876D01*
X-11759865Y-6580671D01*
X-11767548Y-6579000D01*
X-11931885Y-6579000D01*
X-11947124Y-6583475D01*
X-11948329Y-6584865D01*
X-11950000Y-6592548D01*
X-11950000Y-6990840D01*
X-15030514Y-6990840D01*
X-13627079Y-5587405D01*
X-13564767Y-5553379D01*
X-13537984Y-5550500D01*
X-12076000Y-5550500D01*
X-12007879Y-5570502D01*
X-11961386Y-5624158D01*
X-11950000Y-5676500D01*
X-11950000Y-6052885D01*
X-11945525Y-6068124D01*
X-11944135Y-6069329D01*
X-11936452Y-6071000D01*
X-11372000Y-6071000D01*
X-11303879Y-6091002D01*
X-11257386Y-6144658D01*
X-11246000Y-6197000D01*
X-11246000Y-7117198D01*
X-11265443Y-7183417D01*
X-11265379Y-7183454D01*
X-11265532Y-7183720D01*
X-11266002Y-7185319D01*
X-11268537Y-7188923D01*
X-11269511Y-7190610D01*
X-11274536Y-7197159D01*
X-11335044Y-7343238D01*
X-11355682Y-7500000D01*
X-11335044Y-7656762D01*
X-11274536Y-7802841D01*
X-11178282Y-7928282D01*
X-11052841Y-8024536D01*
X-10906762Y-8085044D01*
X-10750000Y-8105682D01*
X-10741812Y-8104604D01*
X-10601426Y-8086122D01*
X-10593238Y-8085044D01*
X-10447159Y-8024536D01*
X-10321718Y-7928282D01*
X-10225464Y-7802841D01*
X-10222799Y-7804886D01*
X-10182750Y-7766691D01*
X-10113038Y-7753246D01*
X-10047124Y-7779625D01*
X-10026020Y-7803980D01*
X-10024536Y-7802841D01*
X-9928282Y-7928282D01*
X-9802841Y-8024536D01*
X-9656762Y-8085044D01*
X-9500000Y-8105682D01*
X-9491812Y-8104604D01*
X-9351426Y-8086122D01*
X-9343238Y-8085044D01*
X-9197159Y-8024536D01*
X-9071718Y-7928282D01*
X-9051463Y-7901885D01*
X-8994125Y-7860018D01*
X-8923254Y-7855796D01*
X-8861351Y-7890560D01*
X-8828070Y-7953272D01*
X-8825500Y-7978589D01*
X-8825500Y-8297615D01*
X-8845502Y-8365736D01*
X-8899158Y-8412229D01*
X-8906736Y-8414953D01*
X-8906762Y-8414956D01*
X-9052841Y-8475464D01*
X-9178282Y-8571718D01*
X-9274536Y-8697159D01*
X-9335044Y-8843238D01*
X-9355682Y-9000000D01*
X-9335044Y-9156762D01*
X-9274536Y-9302841D01*
X-9178282Y-9428282D01*
X-9052841Y-9524536D01*
X-8906762Y-9585044D01*
X-8750000Y-9605682D01*
X-8741812Y-9604604D01*
X-8601426Y-9586122D01*
X-8593238Y-9585044D01*
X-8447159Y-9524536D01*
X-8321718Y-9428282D01*
X-8225464Y-9302841D01*
X-8164956Y-9156762D01*
X-8144318Y-9000000D01*
X-8164956Y-8843238D01*
X-8168116Y-8835609D01*
X-8169536Y-8830310D01*
X-8173228Y-8788105D01*
X-8170737Y-8778807D01*
X-8174021Y-8741269D01*
X-8174500Y-8730288D01*
X-8174500Y-7322468D01*
X-8154498Y-7254347D01*
X-8137673Y-7233450D01*
X-8136160Y-7231935D01*
X-8089197Y-7184889D01*
X-8026913Y-7150810D01*
X-7956093Y-7155813D01*
X-7911006Y-7184733D01*
X-7862483Y-7233171D01*
X-7828403Y-7295454D01*
X-7825500Y-7322345D01*
X-7825500Y-7980290D01*
X-7825980Y-7991272D01*
X-7829264Y-8028807D01*
X-7826410Y-8039456D01*
X-7819509Y-8065210D01*
X-7817130Y-8075942D01*
X-7810588Y-8113045D01*
X-7805077Y-8122590D01*
X-7803885Y-8125866D01*
X-7802408Y-8129034D01*
X-7799554Y-8139684D01*
X-7793230Y-8148715D01*
X-7777945Y-8170544D01*
X-7772039Y-8179815D01*
X-7758707Y-8202906D01*
X-7753194Y-8212455D01*
X-7744749Y-8219541D01*
X-7724318Y-8236685D01*
X-7716215Y-8244111D01*
X-5494111Y-10466215D01*
X-5486685Y-10474318D01*
X-5462455Y-10503194D01*
X-5452906Y-10508707D01*
X-5429815Y-10522039D01*
X-5420544Y-10527945D01*
X-5389684Y-10549554D01*
X-5379031Y-10552409D01*
X-5375869Y-10553883D01*
X-5372593Y-10555075D01*
X-5363045Y-10560588D01*
X-5352190Y-10562502D01*
X-5352185Y-10562504D01*
X-5325935Y-10567133D01*
X-5315208Y-10569511D01*
X-5289452Y-10576412D01*
X-5289449Y-10576412D01*
X-5278806Y-10579264D01*
X-5267831Y-10578304D01*
X-5267829Y-10578304D01*
X-5241256Y-10575979D01*
X-5230275Y-10575500D01*
X17506290Y-10575500D01*
X17517272Y-10575980D01*
X17543820Y-10578303D01*
X17543822Y-10578303D01*
X17554807Y-10579264D01*
X17591215Y-10569508D01*
X17601942Y-10567130D01*
X17605301Y-10566538D01*
X17639045Y-10560588D01*
X17648590Y-10555077D01*
X17651866Y-10553885D01*
X17655034Y-10552408D01*
X17665684Y-10549554D01*
X17696544Y-10527945D01*
X17705815Y-10522039D01*
X17728906Y-10508707D01*
X17738455Y-10503194D01*
X17762685Y-10474317D01*
X17770111Y-10466215D01*
X18367421Y-9868905D01*
X18429733Y-9834879D01*
X18456516Y-9832000D01*
X19751748Y-9832000D01*
X19757816Y-9830793D01*
X19798061Y-9822788D01*
X19798062Y-9822788D01*
X19810231Y-9820367D01*
X19876552Y-9776052D01*
X19920867Y-9709731D01*
X19932500Y-9651248D01*
X19932500Y-8468752D01*
X19929174Y-8452031D01*
X19923288Y-8422439D01*
X19923288Y-8422438D01*
X19920867Y-8410269D01*
X19876552Y-8343948D01*
X19810231Y-8299633D01*
X19798062Y-8297212D01*
X19798061Y-8297212D01*
X19757816Y-8289207D01*
X19751748Y-8288000D01*
X17680252Y-8288000D01*
X17674184Y-8289207D01*
X17633939Y-8297212D01*
X17633938Y-8297212D01*
X17621769Y-8299633D01*
X17555448Y-8343948D01*
X17511133Y-8410269D01*
X17508712Y-8422438D01*
X17508712Y-8422439D01*
X17502826Y-8452031D01*
X17499500Y-8468752D01*
X17499500Y-9651248D01*
X17500707Y-9657316D01*
X17511133Y-9709731D01*
X17509918Y-9709973D01*
X17516125Y-9767733D01*
X17481223Y-9834451D01*
X17428079Y-9887595D01*
X17365767Y-9921621D01*
X17338984Y-9924500D01*
X8581093Y-9924500D01*
X8512972Y-9904498D01*
X8466479Y-9850842D01*
X8456375Y-9780568D01*
X8476328Y-9728498D01*
X8481973Y-9720050D01*
X8481975Y-9720046D01*
X8488867Y-9709731D01*
X8500500Y-9651248D01*
X8500500Y-9511500D01*
X8520502Y-9443379D01*
X8574158Y-9396886D01*
X8626500Y-9385500D01*
X8680714Y-9385500D01*
X8748835Y-9405502D01*
X8780677Y-9434796D01*
X8821718Y-9488282D01*
X8947159Y-9584536D01*
X9093238Y-9645044D01*
X9250000Y-9665682D01*
X9258188Y-9664604D01*
X9398574Y-9646122D01*
X9406762Y-9645044D01*
X9552841Y-9584536D01*
X9678282Y-9488282D01*
X9774536Y-9362841D01*
X9835044Y-9216762D01*
X9855682Y-9060000D01*
X9835044Y-8903238D01*
X9774536Y-8757159D01*
X9678282Y-8631718D01*
X9552841Y-8535464D01*
X9425053Y-8482532D01*
X9414391Y-8478116D01*
X9406762Y-8474956D01*
X9397192Y-8473696D01*
X9258188Y-8455396D01*
X9250000Y-8454318D01*
X9241812Y-8455396D01*
X9102809Y-8473696D01*
X9093238Y-8474956D01*
X9085609Y-8478116D01*
X9074947Y-8482532D01*
X8947159Y-8535464D01*
X8821718Y-8631718D01*
X8816695Y-8638264D01*
X8780677Y-8685204D01*
X8723339Y-8727071D01*
X8680714Y-8734500D01*
X8626500Y-8734500D01*
X8558379Y-8714498D01*
X8511886Y-8660842D01*
X8500500Y-8608500D01*
X8500500Y-8468752D01*
X8497174Y-8452031D01*
X8491288Y-8422439D01*
X8491288Y-8422438D01*
X8488867Y-8410269D01*
X8444552Y-8343948D01*
X8378231Y-8299633D01*
X8366062Y-8297212D01*
X8366061Y-8297212D01*
X8325816Y-8289207D01*
X8319748Y-8288000D01*
X6248252Y-8288000D01*
X6242184Y-8289207D01*
X6201939Y-8297212D01*
X6201938Y-8297212D01*
X6189769Y-8299633D01*
X6123448Y-8343948D01*
X6079133Y-8410269D01*
X6076712Y-8422438D01*
X6076712Y-8422439D01*
X6070826Y-8452031D01*
X6037918Y-8514941D01*
X5976223Y-8550073D01*
X5905329Y-8546273D01*
X5870544Y-8527413D01*
X5809396Y-8480493D01*
X5809392Y-8480491D01*
X5802841Y-8475464D01*
X5656762Y-8414956D01*
X5500000Y-8394318D01*
X5343238Y-8414956D01*
X5197159Y-8475464D01*
X5071718Y-8571718D01*
X4975464Y-8697159D01*
X4914956Y-8843238D01*
X4894318Y-9000000D01*
X4895396Y-9008188D01*
X4903118Y-9066842D01*
X4892179Y-9136990D01*
X4867291Y-9172383D01*
X4602079Y-9437595D01*
X4539767Y-9471621D01*
X4512984Y-9474500D01*
X-4876588Y-9474500D01*
X-4944709Y-9454498D01*
X-4965683Y-9437595D01*
X-6137595Y-8265683D01*
X-6171621Y-8203371D01*
X-6174500Y-8176588D01*
X-6174500Y-7322468D01*
X-6154498Y-7254347D01*
X-6137673Y-7233450D01*
X-6136160Y-7231935D01*
X-6089197Y-7184889D01*
X-6026913Y-7150810D01*
X-5956093Y-7155813D01*
X-5911006Y-7184733D01*
X-5869928Y-7225739D01*
X-5856350Y-7239293D01*
X-5751518Y-7290536D01*
X-5721027Y-7294984D01*
X-5687744Y-7299840D01*
X-5687740Y-7299840D01*
X-5683218Y-7300500D01*
X-5316782Y-7300500D01*
X-5312232Y-7299830D01*
X-5312229Y-7299830D01*
X-5257574Y-7291784D01*
X-5257573Y-7291784D01*
X-5247888Y-7290358D01*
X-5180373Y-7257210D01*
X-5152493Y-7243522D01*
X-5152491Y-7243521D01*
X-5143145Y-7238932D01*
X-5117770Y-7213513D01*
X-5089196Y-7184889D01*
X-5026913Y-7150810D01*
X-4956093Y-7155813D01*
X-4911006Y-7184733D01*
X-4869928Y-7225739D01*
X-4856350Y-7239293D01*
X-4751518Y-7290536D01*
X-4721027Y-7294984D01*
X-4687744Y-7299840D01*
X-4687740Y-7299840D01*
X-4683218Y-7300500D01*
X-4316782Y-7300500D01*
X-4312232Y-7299830D01*
X-4312229Y-7299830D01*
X-4257574Y-7291784D01*
X-4257573Y-7291784D01*
X-4247888Y-7290358D01*
X-4180373Y-7257210D01*
X-4152493Y-7243522D01*
X-4152491Y-7243521D01*
X-4143145Y-7238932D01*
X-4089196Y-7184889D01*
X-4068065Y-7163721D01*
X-4068065Y-7163720D01*
X-4060707Y-7156350D01*
X-4009464Y-7051518D01*
X-3999500Y-6983218D01*
X-3999500Y-6539625D01*
X4625636Y-6539625D01*
X4625670Y-6540097D01*
X4634424Y-6599565D01*
X4640165Y-6618039D01*
X4686281Y-6711966D01*
X4698241Y-6728671D01*
X4771855Y-6802157D01*
X4788582Y-6814089D01*
X4882598Y-6860044D01*
X4901065Y-6865752D01*
X4959931Y-6874340D01*
X4969031Y-6875000D01*
X4977885Y-6875000D01*
X4993124Y-6870525D01*
X4994329Y-6869135D01*
X4996000Y-6861452D01*
X4996000Y-6856885D01*
X5504000Y-6856885D01*
X5508475Y-6872124D01*
X5509865Y-6873329D01*
X5517548Y-6875000D01*
X5530936Y-6875000D01*
X5540097Y-6874330D01*
X5599565Y-6865576D01*
X5618039Y-6859835D01*
X5711966Y-6813719D01*
X5728671Y-6801759D01*
X5802157Y-6728145D01*
X5814089Y-6711418D01*
X5828300Y-6682345D01*
X5876186Y-6629928D01*
X5944808Y-6611721D01*
X6012380Y-6633505D01*
X6057448Y-6688363D01*
X6067500Y-6737678D01*
X6067500Y-7111248D01*
X6068707Y-7117316D01*
X6076365Y-7155813D01*
X6079133Y-7169731D01*
X6123448Y-7236052D01*
X6189769Y-7280367D01*
X6201938Y-7282788D01*
X6201939Y-7282788D01*
X6239997Y-7290358D01*
X6248252Y-7292000D01*
X8319748Y-7292000D01*
X8328003Y-7290358D01*
X8366061Y-7282788D01*
X8366062Y-7282788D01*
X8378231Y-7280367D01*
X8444552Y-7236052D01*
X8488867Y-7169731D01*
X8491636Y-7155813D01*
X8499293Y-7117316D01*
X8500500Y-7111248D01*
X17499500Y-7111248D01*
X17500707Y-7117316D01*
X17508365Y-7155813D01*
X17511133Y-7169731D01*
X17555448Y-7236052D01*
X17621769Y-7280367D01*
X17633938Y-7282788D01*
X17633939Y-7282788D01*
X17671997Y-7290358D01*
X17680252Y-7292000D01*
X19751748Y-7292000D01*
X19760003Y-7290358D01*
X19798061Y-7282788D01*
X19798062Y-7282788D01*
X19810231Y-7280367D01*
X19876552Y-7236052D01*
X19920867Y-7169731D01*
X19923636Y-7155813D01*
X19931293Y-7117316D01*
X19932500Y-7111248D01*
X19932500Y-5928752D01*
X19920867Y-5870269D01*
X19876552Y-5803948D01*
X19810231Y-5759633D01*
X19798062Y-5757212D01*
X19798061Y-5757212D01*
X19757816Y-5749207D01*
X19751748Y-5748000D01*
X17680252Y-5748000D01*
X17674184Y-5749207D01*
X17633939Y-5757212D01*
X17633938Y-5757212D01*
X17621769Y-5759633D01*
X17555448Y-5803948D01*
X17511133Y-5870269D01*
X17499500Y-5928752D01*
X17499500Y-7111248D01*
X8500500Y-7111248D01*
X8500500Y-6971500D01*
X8520502Y-6903379D01*
X8574158Y-6856886D01*
X8626500Y-6845500D01*
X8696061Y-6845500D01*
X8764182Y-6865502D01*
X8796023Y-6894796D01*
X8816689Y-6921729D01*
X8816692Y-6921732D01*
X8821718Y-6928282D01*
X8947159Y-7024536D01*
X9093238Y-7085044D01*
X9250000Y-7105682D01*
X9258188Y-7104604D01*
X9398574Y-7086122D01*
X9406762Y-7085044D01*
X9552841Y-7024536D01*
X9678282Y-6928282D01*
X9774536Y-6802841D01*
X9835044Y-6656762D01*
X9855682Y-6500000D01*
X9835044Y-6343238D01*
X9774536Y-6197159D01*
X9678282Y-6071718D01*
X9552841Y-5975464D01*
X9406762Y-5914956D01*
X9250000Y-5894318D01*
X9093238Y-5914956D01*
X8947159Y-5975464D01*
X8905471Y-6007452D01*
X8846262Y-6052885D01*
X8821718Y-6071718D01*
X8816692Y-6078268D01*
X8816689Y-6078271D01*
X8765330Y-6145204D01*
X8707992Y-6187071D01*
X8665368Y-6194500D01*
X8626500Y-6194500D01*
X8558379Y-6174498D01*
X8511886Y-6120842D01*
X8500500Y-6068500D01*
X8500500Y-5928752D01*
X8488867Y-5870269D01*
X8444552Y-5803948D01*
X8378231Y-5759633D01*
X8366062Y-5757212D01*
X8366061Y-5757212D01*
X8325816Y-5749207D01*
X8319748Y-5748000D01*
X6248252Y-5748000D01*
X6242184Y-5749207D01*
X6201939Y-5757212D01*
X6201938Y-5757212D01*
X6189769Y-5759633D01*
X6123448Y-5803948D01*
X6079133Y-5870269D01*
X6076712Y-5882439D01*
X6073011Y-5891375D01*
X6028464Y-5946656D01*
X5961100Y-5969078D01*
X5892309Y-5951520D01*
X5843499Y-5898689D01*
X5813719Y-5838034D01*
X5801759Y-5821329D01*
X5728145Y-5747843D01*
X5711418Y-5735911D01*
X5617402Y-5689956D01*
X5598935Y-5684248D01*
X5540069Y-5675660D01*
X5530969Y-5675000D01*
X5522115Y-5675000D01*
X5506876Y-5679475D01*
X5505671Y-5680865D01*
X5504000Y-5688548D01*
X5504000Y-6856885D01*
X4996000Y-6856885D01*
X4996000Y-6547115D01*
X4991525Y-6531876D01*
X4990135Y-6530671D01*
X4982452Y-6529000D01*
X4643115Y-6529000D01*
X4627876Y-6533475D01*
X4626671Y-6534865D01*
X4625636Y-6539625D01*
X-3999500Y-6539625D01*
X-3999500Y-6006726D01*
X4626128Y-6006726D01*
X4629475Y-6018124D01*
X4630865Y-6019329D01*
X4638548Y-6021000D01*
X4977885Y-6021000D01*
X4993124Y-6016525D01*
X4994329Y-6015135D01*
X4996000Y-6007452D01*
X4996000Y-5693115D01*
X4991525Y-5677876D01*
X4990135Y-5676671D01*
X4982452Y-5675000D01*
X4969064Y-5675000D01*
X4959903Y-5675670D01*
X4900435Y-5684424D01*
X4881961Y-5690165D01*
X4788034Y-5736281D01*
X4771329Y-5748241D01*
X4697843Y-5821855D01*
X4685911Y-5838582D01*
X4639956Y-5932598D01*
X4634248Y-5951065D01*
X4626128Y-6006726D01*
X-3999500Y-6006726D01*
X-3999500Y-5666782D01*
X-4009642Y-5597888D01*
X-4061068Y-5493145D01*
X-4143650Y-5410707D01*
X-4248482Y-5359464D01*
X-4278973Y-5355016D01*
X-4312256Y-5350160D01*
X-4312260Y-5350160D01*
X-4316782Y-5349500D01*
X-4683218Y-5349500D01*
X-4687768Y-5350170D01*
X-4687771Y-5350170D01*
X-4742426Y-5358216D01*
X-4742427Y-5358216D01*
X-4752112Y-5359642D01*
X-4784411Y-5375500D01*
X-4847507Y-5406478D01*
X-4847509Y-5406479D01*
X-4856855Y-5411068D01*
X-4864213Y-5418438D01*
X-4864212Y-5418438D01*
X-4910804Y-5465111D01*
X-4973087Y-5499190D01*
X-5043907Y-5494187D01*
X-5088994Y-5465267D01*
X-5136279Y-5418065D01*
X-5136280Y-5418065D01*
X-5143650Y-5410707D01*
X-5248482Y-5359464D01*
X-5278973Y-5355016D01*
X-5312256Y-5350160D01*
X-5312260Y-5350160D01*
X-5316782Y-5349500D01*
X-5516233Y-5349500D01*
X-5584354Y-5329498D01*
X-5605328Y-5312595D01*
X-5909138Y-5008785D01*
X-5916565Y-5000681D01*
X-5922008Y-4994195D01*
X-5930992Y-4983488D01*
X4574500Y-4983488D01*
X4590281Y-5083126D01*
X4651472Y-5203220D01*
X4746780Y-5298528D01*
X4866874Y-5359719D01*
X4876663Y-5361269D01*
X4876665Y-5361270D01*
X4906149Y-5365940D01*
X4966512Y-5375500D01*
X5533488Y-5375500D01*
X5593851Y-5365940D01*
X5623335Y-5361270D01*
X5623337Y-5361269D01*
X5633126Y-5359719D01*
X5753220Y-5298528D01*
X5848528Y-5203220D01*
X5909719Y-5083126D01*
X5925500Y-4983488D01*
X5925500Y-4798872D01*
X5945502Y-4730751D01*
X5999158Y-4684258D01*
X6069432Y-4674154D01*
X6122029Y-4698175D01*
X6123448Y-4696052D01*
X6189769Y-4740367D01*
X6201938Y-4742788D01*
X6201939Y-4742788D01*
X6242184Y-4750793D01*
X6248252Y-4752000D01*
X8319748Y-4752000D01*
X8325816Y-4750793D01*
X8366061Y-4742788D01*
X8366062Y-4742788D01*
X8378231Y-4740367D01*
X8444552Y-4696052D01*
X8488867Y-4629731D01*
X8500500Y-4571248D01*
X17499500Y-4571248D01*
X17511133Y-4629731D01*
X17555448Y-4696052D01*
X17621769Y-4740367D01*
X17633938Y-4742788D01*
X17633939Y-4742788D01*
X17674184Y-4750793D01*
X17680252Y-4752000D01*
X19751748Y-4752000D01*
X19757816Y-4750793D01*
X19798061Y-4742788D01*
X19798062Y-4742788D01*
X19810231Y-4740367D01*
X19876552Y-4696052D01*
X19920867Y-4629731D01*
X19932500Y-4571248D01*
X19932500Y-3388752D01*
X19920867Y-3330269D01*
X19876552Y-3263948D01*
X19810231Y-3219633D01*
X19798062Y-3217212D01*
X19798061Y-3217212D01*
X19757816Y-3209207D01*
X19751748Y-3208000D01*
X17680252Y-3208000D01*
X17674184Y-3209207D01*
X17633939Y-3217212D01*
X17633938Y-3217212D01*
X17621769Y-3219633D01*
X17555448Y-3263948D01*
X17511133Y-3330269D01*
X17499500Y-3388752D01*
X17499500Y-4571248D01*
X8500500Y-4571248D01*
X8500500Y-3388752D01*
X8488867Y-3330269D01*
X8444552Y-3263948D01*
X8378231Y-3219633D01*
X8366062Y-3217212D01*
X8366061Y-3217212D01*
X8325816Y-3209207D01*
X8319748Y-3208000D01*
X6248252Y-3208000D01*
X6242184Y-3209207D01*
X6201939Y-3217212D01*
X6201938Y-3217212D01*
X6189769Y-3219633D01*
X6123448Y-3263948D01*
X6121313Y-3260752D01*
X6078283Y-3284249D01*
X6007468Y-3279184D01*
X5950632Y-3236637D01*
X5925821Y-3170117D01*
X5925500Y-3161128D01*
X5925500Y-3016512D01*
X5909719Y-2916874D01*
X5848528Y-2796780D01*
X5753220Y-2701472D01*
X5633126Y-2640281D01*
X5623337Y-2638731D01*
X5623335Y-2638730D01*
X5593851Y-2634060D01*
X5533488Y-2624500D01*
X4966512Y-2624500D01*
X4906149Y-2634060D01*
X4876665Y-2638730D01*
X4876663Y-2638731D01*
X4866874Y-2640281D01*
X4746780Y-2701472D01*
X4651472Y-2796780D01*
X4590281Y-2916874D01*
X4574500Y-3016512D01*
X4574500Y-3533488D01*
X4590281Y-3633126D01*
X4594782Y-3641959D01*
X4651472Y-3753220D01*
X4649460Y-3754245D01*
X4668809Y-3808474D01*
X4665332Y-3842330D01*
X4664956Y-3843238D01*
X4644318Y-4000000D01*
X4664655Y-4154476D01*
X4664655Y-4154479D01*
X4664956Y-4156762D01*
X4664600Y-4156809D01*
X4663032Y-4222698D01*
X4650965Y-4246522D01*
X4651472Y-4246780D01*
X4590281Y-4366874D01*
X4574500Y-4466512D01*
X4574500Y-4983488D01*
X-5930992Y-4983488D01*
X-5940794Y-4971806D01*
X-5950343Y-4966293D01*
X-5973434Y-4952961D01*
X-5982705Y-4947055D01*
X-6004534Y-4931770D01*
X-6013565Y-4925446D01*
X-6024215Y-4922592D01*
X-6027383Y-4921115D01*
X-6030659Y-4919923D01*
X-6040204Y-4914412D01*
X-6073948Y-4908462D01*
X-6077307Y-4907870D01*
X-6088034Y-4905492D01*
X-6124442Y-4895736D01*
X-6135427Y-4896697D01*
X-6135429Y-4896697D01*
X-6161977Y-4899020D01*
X-6172959Y-4899500D01*
X-12030619Y-4899500D01*
X-12098740Y-4879498D01*
X-12145233Y-4825842D01*
X-12155337Y-4755568D01*
X-12132554Y-4699437D01*
X-12117856Y-4679208D01*
X-12069336Y-4583982D01*
X-12063284Y-4565355D01*
X-12050775Y-4486373D01*
X-12050000Y-4476527D01*
X-12050000Y-4476525D01*
X-3949999Y-4476525D01*
X-3949224Y-4486374D01*
X-3936717Y-4565351D01*
X-3930662Y-4583986D01*
X-3882141Y-4679213D01*
X-3870630Y-4695056D01*
X-3795056Y-4770630D01*
X-3779213Y-4782141D01*
X-3683982Y-4830664D01*
X-3665355Y-4836716D01*
X-3586373Y-4849225D01*
X-3576527Y-4850000D01*
X-3472115Y-4850000D01*
X-3456876Y-4845525D01*
X-3455671Y-4844135D01*
X-3454000Y-4836452D01*
X-3454000Y-4831884D01*
X-2946000Y-4831884D01*
X-2941525Y-4847123D01*
X-2940135Y-4848328D01*
X-2932452Y-4849999D01*
X-2823475Y-4849999D01*
X-2813626Y-4849224D01*
X-2734649Y-4836717D01*
X-2716014Y-4830662D01*
X-2620787Y-4782141D01*
X-2604944Y-4770630D01*
X-2529370Y-4695056D01*
X-2517859Y-4679213D01*
X-2469336Y-4583982D01*
X-2463284Y-4565355D01*
X-2450775Y-4486373D01*
X-2450000Y-4476527D01*
X-2450000Y-4072115D01*
X-2454475Y-4056876D01*
X-2455865Y-4055671D01*
X-2463548Y-4054000D01*
X-2927885Y-4054000D01*
X-2943124Y-4058475D01*
X-2944329Y-4059865D01*
X-2946000Y-4067548D01*
X-2946000Y-4831884D01*
X-3454000Y-4831884D01*
X-3454000Y-4072115D01*
X-3458475Y-4056876D01*
X-3459865Y-4055671D01*
X-3467548Y-4054000D01*
X-3931884Y-4054000D01*
X-3947123Y-4058475D01*
X-3948328Y-4059865D01*
X-3949999Y-4067548D01*
X-3949999Y-4476525D01*
X-12050000Y-4476525D01*
X-12050000Y-4072115D01*
X-12054475Y-4056876D01*
X-12055865Y-4055671D01*
X-12063548Y-4054000D01*
X-13531884Y-4054000D01*
X-13547123Y-4058475D01*
X-13548328Y-4059865D01*
X-13549999Y-4067548D01*
X-13549999Y-4476525D01*
X-13549224Y-4486374D01*
X-13536717Y-4565351D01*
X-13530662Y-4583986D01*
X-13482144Y-4679208D01*
X-13467446Y-4699437D01*
X-13443587Y-4766305D01*
X-13459666Y-4835457D01*
X-13510579Y-4884938D01*
X-13569381Y-4899500D01*
X-13705290Y-4899500D01*
X-13716272Y-4899020D01*
X-13742820Y-4896697D01*
X-13742822Y-4896697D01*
X-13753807Y-4895736D01*
X-13790215Y-4905492D01*
X-13800942Y-4907870D01*
X-13804301Y-4908462D01*
X-13838045Y-4914412D01*
X-13847590Y-4919923D01*
X-13850866Y-4921115D01*
X-13854034Y-4922592D01*
X-13864684Y-4925446D01*
X-13873715Y-4931770D01*
X-13895544Y-4947055D01*
X-13904815Y-4952961D01*
X-13927906Y-4966293D01*
X-13937455Y-4971806D01*
X-13944541Y-4980251D01*
X-13961685Y-5000682D01*
X-13969111Y-5008785D01*
X-17401410Y-8441084D01*
X-17457894Y-8473696D01*
X-17458572Y-8473878D01*
X-17466762Y-8474956D01*
X-17612841Y-8535464D01*
X-17738282Y-8631718D01*
X-17834536Y-8757159D01*
X-17895044Y-8903238D01*
X-17915682Y-9060000D01*
X-22349500Y-9060000D01*
X-22349500Y-3527885D01*
X-13550000Y-3527885D01*
X-13545525Y-3543124D01*
X-13544135Y-3544329D01*
X-13536452Y-3546000D01*
X-13072115Y-3546000D01*
X-13056876Y-3541525D01*
X-13055671Y-3540135D01*
X-13054000Y-3532452D01*
X-13054000Y-3527885D01*
X-12546000Y-3527885D01*
X-12541525Y-3543124D01*
X-12540135Y-3544329D01*
X-12532452Y-3546000D01*
X-12068116Y-3546000D01*
X-12052877Y-3541525D01*
X-12051672Y-3540135D01*
X-12050001Y-3532452D01*
X-12050001Y-3527885D01*
X-3950000Y-3527885D01*
X-3945525Y-3543124D01*
X-3944135Y-3544329D01*
X-3936452Y-3546000D01*
X-3472115Y-3546000D01*
X-3456876Y-3541525D01*
X-3455671Y-3540135D01*
X-3454000Y-3532452D01*
X-3454000Y-3527885D01*
X-2946000Y-3527885D01*
X-2941525Y-3543124D01*
X-2940135Y-3544329D01*
X-2932452Y-3546000D01*
X-2468116Y-3546000D01*
X-2452877Y-3541525D01*
X-2451672Y-3540135D01*
X-2450001Y-3532452D01*
X-2450001Y-3123475D01*
X-2450776Y-3113626D01*
X-2463283Y-3034649D01*
X-2469338Y-3016014D01*
X-2517859Y-2920787D01*
X-2529370Y-2904944D01*
X-2604944Y-2829370D01*
X-2620787Y-2817859D01*
X-2716018Y-2769336D01*
X-2734645Y-2763284D01*
X-2813627Y-2750775D01*
X-2823473Y-2750000D01*
X-2927885Y-2750000D01*
X-2943124Y-2754475D01*
X-2944329Y-2755865D01*
X-2946000Y-2763548D01*
X-2946000Y-3527885D01*
X-3454000Y-3527885D01*
X-3454000Y-2768116D01*
X-3458475Y-2752877D01*
X-3459865Y-2751672D01*
X-3467548Y-2750001D01*
X-3576525Y-2750001D01*
X-3586374Y-2750776D01*
X-3665351Y-2763283D01*
X-3683986Y-2769338D01*
X-3779213Y-2817859D01*
X-3795056Y-2829370D01*
X-3870630Y-2904944D01*
X-3882141Y-2920787D01*
X-3930664Y-3016018D01*
X-3936716Y-3034645D01*
X-3949225Y-3113627D01*
X-3950000Y-3123473D01*
X-3950000Y-3527885D01*
X-12050001Y-3527885D01*
X-12050001Y-3123475D01*
X-12050776Y-3113626D01*
X-12063283Y-3034649D01*
X-12069338Y-3016014D01*
X-12117859Y-2920787D01*
X-12129370Y-2904944D01*
X-12204944Y-2829370D01*
X-12220787Y-2817859D01*
X-12316018Y-2769336D01*
X-12334645Y-2763284D01*
X-12413627Y-2750775D01*
X-12423473Y-2750000D01*
X-12527885Y-2750000D01*
X-12543124Y-2754475D01*
X-12544329Y-2755865D01*
X-12546000Y-2763548D01*
X-12546000Y-3527885D01*
X-13054000Y-3527885D01*
X-13054000Y-2768116D01*
X-13058475Y-2752877D01*
X-13059865Y-2751672D01*
X-13067548Y-2750001D01*
X-13176525Y-2750001D01*
X-13186374Y-2750776D01*
X-13265351Y-2763283D01*
X-13283986Y-2769338D01*
X-13379213Y-2817859D01*
X-13395056Y-2829370D01*
X-13470630Y-2904944D01*
X-13482141Y-2920787D01*
X-13530664Y-3016018D01*
X-13536716Y-3034645D01*
X-13549225Y-3113627D01*
X-13550000Y-3123473D01*
X-13550000Y-3527885D01*
X-22349500Y-3527885D01*
X-22349500Y-1989625D01*
X4625636Y-1989625D01*
X4625670Y-1990097D01*
X4634424Y-2049565D01*
X4640165Y-2068039D01*
X4686281Y-2161966D01*
X4698241Y-2178671D01*
X4771855Y-2252157D01*
X4788582Y-2264089D01*
X4882598Y-2310044D01*
X4901065Y-2315752D01*
X4959931Y-2324340D01*
X4969031Y-2325000D01*
X4977885Y-2325000D01*
X4993124Y-2320525D01*
X4994329Y-2319135D01*
X4996000Y-2311452D01*
X4996000Y-2306885D01*
X5504000Y-2306885D01*
X5508475Y-2322124D01*
X5509865Y-2323329D01*
X5517548Y-2325000D01*
X5530936Y-2325000D01*
X5540097Y-2324330D01*
X5599565Y-2315576D01*
X5618039Y-2309835D01*
X5711966Y-2263719D01*
X5728671Y-2251759D01*
X5802157Y-2178145D01*
X5814089Y-2161418D01*
X5860044Y-2067402D01*
X5865752Y-2048935D01*
X5869091Y-2026049D01*
X5898718Y-1961529D01*
X5958524Y-1923269D01*
X6029520Y-1923417D01*
X6089166Y-1961924D01*
X6116852Y-2026502D01*
X6118001Y-2026274D01*
X6119080Y-2031698D01*
X6119165Y-2031897D01*
X6119210Y-2032351D01*
X6124282Y-2057852D01*
X6133599Y-2080348D01*
X6152963Y-2109328D01*
X6170172Y-2126537D01*
X6199156Y-2145904D01*
X6221642Y-2155218D01*
X6247158Y-2160293D01*
X6259412Y-2161500D01*
X7011885Y-2161500D01*
X7027124Y-2157025D01*
X7028329Y-2155635D01*
X7030000Y-2147952D01*
X7030000Y-2143384D01*
X7538000Y-2143384D01*
X7542475Y-2158623D01*
X7543865Y-2159828D01*
X7551548Y-2161499D01*
X8308586Y-2161499D01*
X8320846Y-2160291D01*
X8346352Y-2155218D01*
X8368848Y-2145901D01*
X8397828Y-2126537D01*
X8415037Y-2109328D01*
X8434404Y-2080344D01*
X8443718Y-2057858D01*
X8448793Y-2032342D01*
X8448901Y-2031248D01*
X17499500Y-2031248D01*
X17511133Y-2089731D01*
X17518026Y-2100047D01*
X17534137Y-2124158D01*
X17555448Y-2156052D01*
X17621769Y-2200367D01*
X17633938Y-2202788D01*
X17633939Y-2202788D01*
X17674184Y-2210793D01*
X17680252Y-2212000D01*
X19751748Y-2212000D01*
X19757816Y-2210793D01*
X19798061Y-2202788D01*
X19798062Y-2202788D01*
X19810231Y-2200367D01*
X19876552Y-2156052D01*
X19897863Y-2124158D01*
X19913974Y-2100047D01*
X19920867Y-2089731D01*
X19932500Y-2031248D01*
X19932500Y-848752D01*
X19920867Y-790269D01*
X19907773Y-770672D01*
X19883443Y-734261D01*
X19876552Y-723948D01*
X19810231Y-679633D01*
X19798062Y-677212D01*
X19798061Y-677212D01*
X19757816Y-669207D01*
X19751748Y-668000D01*
X17680252Y-668000D01*
X17674184Y-669207D01*
X17633939Y-677212D01*
X17633938Y-677212D01*
X17621769Y-679633D01*
X17555448Y-723948D01*
X17548557Y-734261D01*
X17524228Y-770672D01*
X17511133Y-790269D01*
X17499500Y-848752D01*
X17499500Y-2031248D01*
X8448901Y-2031248D01*
X8450000Y-2020088D01*
X8450000Y-1712115D01*
X8445525Y-1696876D01*
X8444135Y-1695671D01*
X8436452Y-1694000D01*
X7556115Y-1694000D01*
X7540876Y-1698475D01*
X7539671Y-1699865D01*
X7538000Y-1707548D01*
X7538000Y-2143384D01*
X7030000Y-2143384D01*
X7030000Y-1712115D01*
X7025525Y-1696876D01*
X7024135Y-1695671D01*
X7016452Y-1694000D01*
X6136116Y-1694000D01*
X6120877Y-1698475D01*
X6101506Y-1720830D01*
X6090096Y-1741726D01*
X6027784Y-1775751D01*
X5956968Y-1770687D01*
X5900132Y-1728140D01*
X5875321Y-1661620D01*
X5875000Y-1652631D01*
X5875000Y-1469064D01*
X5874330Y-1459903D01*
X5865576Y-1400435D01*
X5859835Y-1381961D01*
X5813719Y-1288034D01*
X5801759Y-1271329D01*
X5728145Y-1197843D01*
X5711418Y-1185911D01*
X5674540Y-1167885D01*
X6118000Y-1167885D01*
X6122475Y-1183124D01*
X6123865Y-1184329D01*
X6131548Y-1186000D01*
X7011885Y-1186000D01*
X7027124Y-1181525D01*
X7028329Y-1180135D01*
X7030000Y-1172452D01*
X7030000Y-1167885D01*
X7538000Y-1167885D01*
X7542475Y-1183124D01*
X7543865Y-1184329D01*
X7551548Y-1186000D01*
X8431884Y-1186000D01*
X8447123Y-1181525D01*
X8448328Y-1180135D01*
X8449999Y-1172452D01*
X8449999Y-859914D01*
X8448791Y-847654D01*
X8443718Y-822148D01*
X8434401Y-799652D01*
X8415037Y-770672D01*
X8397828Y-753463D01*
X8368844Y-734096D01*
X8346358Y-724782D01*
X8320842Y-719707D01*
X8308588Y-718500D01*
X7556115Y-718500D01*
X7540876Y-722975D01*
X7539671Y-724365D01*
X7538000Y-732048D01*
X7538000Y-1167885D01*
X7030000Y-1167885D01*
X7030000Y-736616D01*
X7025525Y-721377D01*
X7024135Y-720172D01*
X7016452Y-718501D01*
X6259414Y-718501D01*
X6247154Y-719709D01*
X6221648Y-724782D01*
X6199152Y-734099D01*
X6170172Y-753463D01*
X6152963Y-770672D01*
X6133596Y-799656D01*
X6124282Y-822142D01*
X6119207Y-847658D01*
X6118000Y-859912D01*
X6118000Y-1167885D01*
X5674540Y-1167885D01*
X5617402Y-1139956D01*
X5598935Y-1134248D01*
X5540069Y-1125660D01*
X5530969Y-1125000D01*
X5522115Y-1125000D01*
X5506876Y-1129475D01*
X5505671Y-1130865D01*
X5504000Y-1138548D01*
X5504000Y-2306885D01*
X4996000Y-2306885D01*
X4996000Y-1997115D01*
X4991525Y-1981876D01*
X4990135Y-1980671D01*
X4982452Y-1979000D01*
X4643115Y-1979000D01*
X4627876Y-1983475D01*
X4626671Y-1984865D01*
X4625636Y-1989625D01*
X-22349500Y-1989625D01*
X-22349500Y-1456726D01*
X4626128Y-1456726D01*
X4629475Y-1468124D01*
X4630865Y-1469329D01*
X4638548Y-1471000D01*
X4977885Y-1471000D01*
X4993124Y-1466525D01*
X4994329Y-1465135D01*
X4996000Y-1457452D01*
X4996000Y-1143115D01*
X4991525Y-1127876D01*
X4990135Y-1126671D01*
X4982452Y-1125000D01*
X4969064Y-1125000D01*
X4959903Y-1125670D01*
X4900435Y-1134424D01*
X4881961Y-1140165D01*
X4788034Y-1186281D01*
X4771329Y-1198241D01*
X4697843Y-1271855D01*
X4685911Y-1288582D01*
X4639956Y-1382598D01*
X4634248Y-1401065D01*
X4626128Y-1456726D01*
X-22349500Y-1456726D01*
X-22349500Y-1036402D01*
X-22348484Y-1028685D01*
X-22348484Y-1016022D01*
X-22344191Y-1000000D01*
X-22347990Y-985822D01*
X-22347877Y-983522D01*
X-22335703Y-859914D01*
X-22334393Y-846621D01*
X-22329575Y-822398D01*
X-22288437Y-686784D01*
X-22278985Y-663964D01*
X-22212184Y-538988D01*
X-22198461Y-518451D01*
X-22108560Y-408906D01*
X-22091094Y-391440D01*
X-21981549Y-301539D01*
X-21961012Y-287816D01*
X-21836036Y-221015D01*
X-21813216Y-211563D01*
X-21677602Y-170425D01*
X-21653379Y-165607D01*
X-21516478Y-152123D01*
X-21514178Y-152010D01*
X-21500000Y-155809D01*
X-21483978Y-151516D01*
X-21471315Y-151516D01*
X-21463598Y-150500D01*
X21463598Y-150500D01*
X21471315Y-151516D01*
G37*
%TD.AperFunction*%
%TD*%
M02*
