%TF.GenerationSoftware,KiCad,Pcbnew,6.0.10-86aedd382b~118~ubuntu22.04.1*%
%TF.CreationDate,2023-03-14T18:26:24-07:00*%
%TF.ProjectId,pressure-spi-3,70726573-7375-4726-952d-7370692d332e,rev?*%
%TF.SameCoordinates,Original*%
%TF.FileFunction,Legend,Bot*%
%TF.FilePolarity,Positive*%
%FSLAX46Y46*%
G04 Gerber Fmt 4.6, Leading zero omitted, Abs format (unit mm)*
G04 Created by KiCad (PCBNEW 6.0.10-86aedd382b~118~ubuntu22.04.1) date 2023-03-14 18:26:24*
%MOMM*%
%LPD*%
G01*
G04 APERTURE LIST*
%ADD10C,0.150000*%
%ADD11C,0.125000*%
%ADD12C,0.120000*%
G04 APERTURE END LIST*
D10*
X12000000Y0D02*
X12000000Y-12000000D01*
X-12000000Y0D02*
X-12000000Y-12000000D01*
D11*
%TO.C,C31*%
X-3821428Y-4928571D02*
X-3797619Y-4904761D01*
X-3773809Y-4833333D01*
X-3773809Y-4785714D01*
X-3797619Y-4714285D01*
X-3845238Y-4666666D01*
X-3892857Y-4642857D01*
X-3988095Y-4619047D01*
X-4059523Y-4619047D01*
X-4154761Y-4642857D01*
X-4202380Y-4666666D01*
X-4250000Y-4714285D01*
X-4273809Y-4785714D01*
X-4273809Y-4833333D01*
X-4250000Y-4904761D01*
X-4226190Y-4928571D01*
X-4273809Y-5095238D02*
X-4273809Y-5404761D01*
X-4083333Y-5238095D01*
X-4083333Y-5309523D01*
X-4059523Y-5357142D01*
X-4035714Y-5380952D01*
X-3988095Y-5404761D01*
X-3869047Y-5404761D01*
X-3821428Y-5380952D01*
X-3797619Y-5357142D01*
X-3773809Y-5309523D01*
X-3773809Y-5166666D01*
X-3797619Y-5119047D01*
X-3821428Y-5095238D01*
X-3773809Y-5880952D02*
X-3773809Y-5595238D01*
X-3773809Y-5738095D02*
X-4273809Y-5738095D01*
X-4202380Y-5690476D01*
X-4154761Y-5642857D01*
X-4130952Y-5595238D01*
%TO.C,C21*%
X22178571Y-4678571D02*
X22202380Y-4654761D01*
X22226190Y-4583333D01*
X22226190Y-4535714D01*
X22202380Y-4464285D01*
X22154761Y-4416666D01*
X22107142Y-4392857D01*
X22011904Y-4369047D01*
X21940476Y-4369047D01*
X21845238Y-4392857D01*
X21797619Y-4416666D01*
X21750000Y-4464285D01*
X21726190Y-4535714D01*
X21726190Y-4583333D01*
X21750000Y-4654761D01*
X21773809Y-4678571D01*
X21773809Y-4869047D02*
X21750000Y-4892857D01*
X21726190Y-4940476D01*
X21726190Y-5059523D01*
X21750000Y-5107142D01*
X21773809Y-5130952D01*
X21821428Y-5154761D01*
X21869047Y-5154761D01*
X21940476Y-5130952D01*
X22226190Y-4845238D01*
X22226190Y-5154761D01*
X22226190Y-5630952D02*
X22226190Y-5345238D01*
X22226190Y-5488095D02*
X21726190Y-5488095D01*
X21797619Y-5440476D01*
X21845238Y-5392857D01*
X21869047Y-5345238D01*
%TO.C,C32*%
X-3821428Y-2319151D02*
X-3797619Y-2295341D01*
X-3773809Y-2223913D01*
X-3773809Y-2176294D01*
X-3797619Y-2104865D01*
X-3845238Y-2057246D01*
X-3892857Y-2033437D01*
X-3988095Y-2009627D01*
X-4059523Y-2009627D01*
X-4154761Y-2033437D01*
X-4202380Y-2057246D01*
X-4250000Y-2104865D01*
X-4273809Y-2176294D01*
X-4273809Y-2223913D01*
X-4250000Y-2295341D01*
X-4226190Y-2319151D01*
X-4273809Y-2485818D02*
X-4273809Y-2795341D01*
X-4083333Y-2628675D01*
X-4083333Y-2700103D01*
X-4059523Y-2747722D01*
X-4035714Y-2771532D01*
X-3988095Y-2795341D01*
X-3869047Y-2795341D01*
X-3821428Y-2771532D01*
X-3797619Y-2747722D01*
X-3773809Y-2700103D01*
X-3773809Y-2557246D01*
X-3797619Y-2509627D01*
X-3821428Y-2485818D01*
X-4226190Y-2985818D02*
X-4250000Y-3009627D01*
X-4273809Y-3057246D01*
X-4273809Y-3176294D01*
X-4250000Y-3223913D01*
X-4226190Y-3247722D01*
X-4178571Y-3271532D01*
X-4130952Y-3271532D01*
X-4059523Y-3247722D01*
X-3773809Y-2962008D01*
X-3773809Y-3271532D01*
D10*
%TO.C,U2*%
X5511904Y-7702380D02*
X5511904Y-8511904D01*
X5464285Y-8607142D01*
X5416666Y-8654761D01*
X5321428Y-8702380D01*
X5130952Y-8702380D01*
X5035714Y-8654761D01*
X4988095Y-8607142D01*
X4940476Y-8511904D01*
X4940476Y-7702380D01*
X4511904Y-7797619D02*
X4464285Y-7750000D01*
X4369047Y-7702380D01*
X4130952Y-7702380D01*
X4035714Y-7750000D01*
X3988095Y-7797619D01*
X3940476Y-7892857D01*
X3940476Y-7988095D01*
X3988095Y-8130952D01*
X4559523Y-8702380D01*
X3940476Y-8702380D01*
X11628571Y821428D02*
X11628571Y1678571D01*
X11628571Y1250000D02*
X10128571Y1250000D01*
X10342857Y1392857D01*
X10485714Y1535714D01*
X10557142Y1678571D01*
X14371428Y1678571D02*
X14300000Y1607142D01*
X14228571Y1464285D01*
X14228571Y1107142D01*
X14300000Y964285D01*
X14371428Y892857D01*
X14514285Y821428D01*
X14657142Y821428D01*
X14871428Y892857D01*
X15728571Y1750000D01*
X15728571Y821428D01*
D11*
%TO.C,C22*%
X22178571Y-1928571D02*
X22202380Y-1904761D01*
X22226190Y-1833333D01*
X22226190Y-1785714D01*
X22202380Y-1714285D01*
X22154761Y-1666666D01*
X22107142Y-1642857D01*
X22011904Y-1619047D01*
X21940476Y-1619047D01*
X21845238Y-1642857D01*
X21797619Y-1666666D01*
X21750000Y-1714285D01*
X21726190Y-1785714D01*
X21726190Y-1833333D01*
X21750000Y-1904761D01*
X21773809Y-1928571D01*
X21773809Y-2119047D02*
X21750000Y-2142857D01*
X21726190Y-2190476D01*
X21726190Y-2309523D01*
X21750000Y-2357142D01*
X21773809Y-2380952D01*
X21821428Y-2404761D01*
X21869047Y-2404761D01*
X21940476Y-2380952D01*
X22226190Y-2095238D01*
X22226190Y-2404761D01*
X21773809Y-2595238D02*
X21750000Y-2619047D01*
X21726190Y-2666666D01*
X21726190Y-2785714D01*
X21750000Y-2833333D01*
X21773809Y-2857142D01*
X21821428Y-2880952D01*
X21869047Y-2880952D01*
X21940476Y-2857142D01*
X22226190Y-2571428D01*
X22226190Y-2880952D01*
D10*
%TO.C,U3*%
X-20488095Y-7702380D02*
X-20488095Y-8511904D01*
X-20535714Y-8607142D01*
X-20583333Y-8654761D01*
X-20678571Y-8702380D01*
X-20869047Y-8702380D01*
X-20964285Y-8654761D01*
X-21011904Y-8607142D01*
X-21059523Y-8511904D01*
X-21059523Y-7702380D01*
X-21440476Y-7702380D02*
X-22059523Y-7702380D01*
X-21726190Y-8083333D01*
X-21869047Y-8083333D01*
X-21964285Y-8130952D01*
X-22011904Y-8178571D01*
X-22059523Y-8273809D01*
X-22059523Y-8511904D01*
X-22011904Y-8607142D01*
X-21964285Y-8654761D01*
X-21869047Y-8702380D01*
X-21583333Y-8702380D01*
X-21488095Y-8654761D01*
X-21440476Y-8607142D01*
X-14371428Y821428D02*
X-14371428Y1678571D01*
X-14371428Y1250000D02*
X-15871428Y1250000D01*
X-15657142Y1392857D01*
X-15514285Y1535714D01*
X-15442857Y1678571D01*
X-11628571Y1678571D02*
X-11700000Y1607142D01*
X-11771428Y1464285D01*
X-11771428Y1107142D01*
X-11700000Y964285D01*
X-11628571Y892857D01*
X-11485714Y821428D01*
X-11342857Y821428D01*
X-11128571Y892857D01*
X-10271428Y1750000D01*
X-10271428Y821428D01*
D12*
%TO.C,C31*%
X-4740000Y-5359420D02*
X-4740000Y-5640580D01*
X-5760000Y-5359420D02*
X-5760000Y-5640580D01*
%TO.C,C21*%
X20240000Y-5134420D02*
X20240000Y-5415580D01*
X21260000Y-5134420D02*
X21260000Y-5415580D01*
%TO.C,C32*%
X-5760000Y-2640580D02*
X-5760000Y-2359420D01*
X-4740000Y-2640580D02*
X-4740000Y-2359420D01*
%TO.C,U2*%
X6350000Y-250000D02*
X19650000Y-250000D01*
X19650000Y-250000D02*
X19650000Y-10250000D01*
X19650000Y-10250000D02*
X6350000Y-10250000D01*
X6350000Y-10250000D02*
X6350000Y-250000D01*
X12311249Y1250000D02*
G75*
G03*
X12311249Y1250000I-1361249J0D01*
G01*
X16411249Y1250000D02*
G75*
G03*
X16411249Y1250000I-1361249J0D01*
G01*
%TO.C,C22*%
X20240000Y-2415580D02*
X20240000Y-2134420D01*
X21260000Y-2415580D02*
X21260000Y-2134420D01*
%TO.C,U3*%
X-19650000Y-250000D02*
X-6350000Y-250000D01*
X-6350000Y-250000D02*
X-6350000Y-10250000D01*
X-6350000Y-10250000D02*
X-19650000Y-10250000D01*
X-19650000Y-10250000D02*
X-19650000Y-250000D01*
X-13688751Y1250000D02*
G75*
G03*
X-13688751Y1250000I-1361249J0D01*
G01*
X-9588751Y1250000D02*
G75*
G03*
X-9588751Y1250000I-1361249J0D01*
G01*
%TD*%
M02*
