%TF.GenerationSoftware,KiCad,Pcbnew,6.0.11-2627ca5db0~126~ubuntu22.04.1*%
%TF.CreationDate,2023-07-02T17:24:57-07:00*%
%TF.ProjectId,small-display,736d616c-6c2d-4646-9973-706c61792e6b,rev?*%
%TF.SameCoordinates,Original*%
%TF.FileFunction,Copper,L1,Top*%
%TF.FilePolarity,Positive*%
%FSLAX46Y46*%
G04 Gerber Fmt 4.6, Leading zero omitted, Abs format (unit mm)*
G04 Created by KiCad (PCBNEW 6.0.11-2627ca5db0~126~ubuntu22.04.1) date 2023-07-02 17:24:57*
%MOMM*%
%LPD*%
G01*
G04 APERTURE LIST*
G04 Aperture macros list*
%AMRoundRect*
0 Rectangle with rounded corners*
0 $1 Rounding radius*
0 $2 $3 $4 $5 $6 $7 $8 $9 X,Y pos of 4 corners*
0 Add a 4 corners polygon primitive as box body*
4,1,4,$2,$3,$4,$5,$6,$7,$8,$9,$2,$3,0*
0 Add four circle primitives for the rounded corners*
1,1,$1+$1,$2,$3*
1,1,$1+$1,$4,$5*
1,1,$1+$1,$6,$7*
1,1,$1+$1,$8,$9*
0 Add four rect primitives between the rounded corners*
20,1,$1+$1,$2,$3,$4,$5,0*
20,1,$1+$1,$4,$5,$6,$7,0*
20,1,$1+$1,$6,$7,$8,$9,0*
20,1,$1+$1,$8,$9,$2,$3,0*%
G04 Aperture macros list end*
%TA.AperFunction,SMDPad,CuDef*%
%ADD10R,0.300000X0.850000*%
%TD*%
%TA.AperFunction,ComponentPad*%
%ADD11C,1.100000*%
%TD*%
%TA.AperFunction,SMDPad,CuDef*%
%ADD12R,1.600000X0.700000*%
%TD*%
%TA.AperFunction,SMDPad,CuDef*%
%ADD13R,1.500000X4.000000*%
%TD*%
%TA.AperFunction,SMDPad,CuDef*%
%ADD14R,0.952500X0.457200*%
%TD*%
%TA.AperFunction,SMDPad,CuDef*%
%ADD15RoundRect,0.135000X-0.135000X-0.185000X0.135000X-0.185000X0.135000X0.185000X-0.135000X0.185000X0*%
%TD*%
%TA.AperFunction,SMDPad,CuDef*%
%ADD16RoundRect,0.200000X-0.200000X-0.275000X0.200000X-0.275000X0.200000X0.275000X-0.200000X0.275000X0*%
%TD*%
%TA.AperFunction,SMDPad,CuDef*%
%ADD17RoundRect,0.225000X-0.225000X-0.250000X0.225000X-0.250000X0.225000X0.250000X-0.225000X0.250000X0*%
%TD*%
%TA.AperFunction,SMDPad,CuDef*%
%ADD18RoundRect,0.150000X-0.512500X-0.150000X0.512500X-0.150000X0.512500X0.150000X-0.512500X0.150000X0*%
%TD*%
%TA.AperFunction,SMDPad,CuDef*%
%ADD19R,0.650000X0.400000*%
%TD*%
%TA.AperFunction,SMDPad,CuDef*%
%ADD20R,0.550000X0.300000*%
%TD*%
%TA.AperFunction,SMDPad,CuDef*%
%ADD21R,0.550000X0.400000*%
%TD*%
%TA.AperFunction,SMDPad,CuDef*%
%ADD22RoundRect,0.218750X-0.218750X-0.256250X0.218750X-0.256250X0.218750X0.256250X-0.218750X0.256250X0*%
%TD*%
%TA.AperFunction,SMDPad,CuDef*%
%ADD23RoundRect,0.250000X-0.250000X-0.475000X0.250000X-0.475000X0.250000X0.475000X-0.250000X0.475000X0*%
%TD*%
%TA.AperFunction,SMDPad,CuDef*%
%ADD24R,0.700000X0.200000*%
%TD*%
%TA.AperFunction,ComponentPad*%
%ADD25R,1.700000X1.700000*%
%TD*%
%TA.AperFunction,ComponentPad*%
%ADD26O,1.700000X1.700000*%
%TD*%
G04 APERTURE END LIST*
D10*
%TO.P,J1,A1,GND*%
%TO.N,GND*%
X17750000Y-58165000D03*
%TO.P,J1,A2*%
%TO.N,N/C*%
X18250000Y-58165000D03*
%TO.P,J1,A3*%
X18750000Y-58165000D03*
%TO.P,J1,A4,VBUS*%
%TO.N,+5V*%
X19250000Y-58165000D03*
%TO.P,J1,A5,CC1*%
%TO.N,Net-(J1-PadA5)*%
X19750000Y-58165000D03*
%TO.P,J1,A6,D+*%
%TO.N,/USBD_P*%
X20250000Y-58165000D03*
%TO.P,J1,A7,D-*%
%TO.N,/USBD_N*%
X20750000Y-58165000D03*
%TO.P,J1,A8,SBU1*%
%TO.N,unconnected-(J1-PadA8)*%
X21250000Y-58165000D03*
%TO.P,J1,A9,VBUS*%
%TO.N,+5V*%
X21750000Y-58165000D03*
%TO.P,J1,A10*%
%TO.N,N/C*%
X22250000Y-58165000D03*
%TO.P,J1,A11*%
X22750000Y-58165000D03*
%TO.P,J1,A12,GND*%
%TO.N,GND*%
X23250000Y-58165000D03*
%TO.P,J1,B1,GND*%
X23250000Y-59835000D03*
%TO.P,J1,B2*%
%TO.N,N/C*%
X22750000Y-59835000D03*
%TO.P,J1,B3*%
X22250000Y-59835000D03*
%TO.P,J1,B4,VBUS*%
%TO.N,+5V*%
X21750000Y-59835000D03*
%TO.P,J1,B5,CC2*%
%TO.N,Net-(J1-PadB5)*%
X21250000Y-59835000D03*
%TO.P,J1,B6,D+*%
%TO.N,/USBD_P*%
X20750000Y-59835000D03*
%TO.P,J1,B7,D-*%
%TO.N,/USBD_N*%
X20250000Y-59835000D03*
%TO.P,J1,B8,SBU2*%
%TO.N,unconnected-(J1-PadB8)*%
X19750000Y-59835000D03*
%TO.P,J1,B9,VBUS*%
%TO.N,+5V*%
X19250000Y-59835000D03*
%TO.P,J1,B10*%
%TO.N,N/C*%
X18750000Y-59835000D03*
%TO.P,J1,B11*%
X18250000Y-59835000D03*
%TO.P,J1,B12,GND*%
%TO.N,GND*%
X17750000Y-59835000D03*
D11*
%TO.P,J1,MH1*%
%TO.N,N/C*%
X18100000Y-56850000D03*
%TO.P,J1,MH2*%
X22900000Y-56850000D03*
%TO.P,J1,MH3*%
X22900000Y-61150000D03*
%TO.P,J1,MH4*%
X18100000Y-61150000D03*
D12*
%TO.P,J1,MP1*%
X20500000Y-56850000D03*
%TO.P,J1,MP2*%
X20500000Y-61150000D03*
%TD*%
D13*
%TO.P,L1,1*%
%TO.N,Net-(L1-Pad1)*%
X8200000Y-59000000D03*
%TO.P,L1,2*%
%TO.N,/LED_A*%
X11800000Y-59000000D03*
%TD*%
D14*
%TO.P,U4,1,EN*%
%TO.N,/PWM*%
X25723650Y-4060200D03*
%TO.P,U4,2,GND*%
%TO.N,GND*%
X25723650Y-5000000D03*
%TO.P,U4,3,SW*%
%TO.N,Net-(L1-Pad1)*%
X25723650Y-5939800D03*
%TO.P,U4,4,VIN*%
%TO.N,+5V*%
X28276350Y-5952500D03*
%TO.P,U4,5,FB*%
%TO.N,/LED_K*%
X28276350Y-4047500D03*
%TD*%
D15*
%TO.P,R1,1*%
%TO.N,Net-(D1-Pad1)*%
X20382500Y-29720000D03*
%TO.P,R1,2*%
%TO.N,PI_nLED_Activity*%
X21402500Y-29720000D03*
%TD*%
D16*
%TO.P,R4,1*%
%TO.N,/PWM*%
X4145000Y-5000000D03*
%TO.P,R4,2*%
%TO.N,GND*%
X5795000Y-5000000D03*
%TD*%
D17*
%TO.P,C2,1*%
%TO.N,+5V*%
X16225000Y-5000000D03*
%TO.P,C2,2*%
%TO.N,GND*%
X17775000Y-5000000D03*
%TD*%
D18*
%TO.P,U3,1,OUT*%
%TO.N,/SD_PWR*%
X15725000Y-30000000D03*
%TO.P,U3,2,GND*%
%TO.N,GND*%
X15725000Y-30950000D03*
%TO.P,U3,3,nFLG*%
%TO.N,unconnected-(U3-Pad3)*%
X15725000Y-31900000D03*
%TO.P,U3,4,EN*%
%TO.N,/SD_PWR_ON*%
X18000000Y-31900000D03*
%TO.P,U3,5,IN*%
%TO.N,/+3.3v*%
X18000000Y-30000000D03*
%TD*%
D19*
%TO.P,U2,1*%
%TO.N,N/C*%
X18880000Y-15480000D03*
%TO.P,U2,2*%
%TO.N,/nPWR_LED*%
X18880000Y-16130000D03*
%TO.P,U2,3,GND*%
%TO.N,GND*%
X18880000Y-16780000D03*
%TO.P,U2,4*%
%TO.N,Net-(R2-Pad2)*%
X20780000Y-16780000D03*
%TO.P,U2,5,VCC*%
%TO.N,/+3.3v*%
X20780000Y-15480000D03*
%TD*%
D15*
%TO.P,R3,1*%
%TO.N,/+3.3v*%
X18650000Y-19050000D03*
%TO.P,R3,2*%
%TO.N,/SD_PWR_ON*%
X19670000Y-19050000D03*
%TD*%
D20*
%TO.P,U1,1,D1+*%
%TO.N,/USBD_P*%
X24615000Y-33000000D03*
%TO.P,U1,2,D1-*%
%TO.N,/USBD_N*%
X24615000Y-33500000D03*
D21*
%TO.P,U1,3,GND*%
%TO.N,GND*%
X24615000Y-34000000D03*
D20*
%TO.P,U1,4,D2+*%
%TO.N,Net-(U1-Pad4)*%
X24615000Y-34500000D03*
%TO.P,U1,5,D2-*%
%TO.N,Net-(U1-Pad5)*%
X24615000Y-35000000D03*
%TO.P,U1,6*%
X25385000Y-35000000D03*
%TO.P,U1,7*%
%TO.N,Net-(U1-Pad4)*%
X25385000Y-34500000D03*
D21*
%TO.P,U1,8,GND*%
%TO.N,GND*%
X25385000Y-34000000D03*
D20*
%TO.P,U1,9*%
%TO.N,/USBD_N*%
X25385000Y-33500000D03*
%TO.P,U1,10*%
%TO.N,/USBD_P*%
X25385000Y-33000000D03*
%TD*%
D22*
%TO.P,D2,1,K*%
%TO.N,Net-(D2-Pad1)*%
X23212500Y-15500000D03*
%TO.P,D2,2,A*%
%TO.N,/+3.3v*%
X24787500Y-15500000D03*
%TD*%
D23*
%TO.P,C1,1*%
%TO.N,/SD_PWR*%
X29000000Y-10500000D03*
%TO.P,C1,2*%
%TO.N,GND*%
X30900000Y-10500000D03*
%TD*%
D22*
%TO.P,D1,1,K*%
%TO.N,Net-(D1-Pad1)*%
X15545000Y-34470000D03*
%TO.P,D1,2,A*%
%TO.N,/+3.3v*%
X17120000Y-34470000D03*
%TD*%
D24*
%TO.P,Module1,1,GND*%
%TO.N,GND*%
X2000000Y-20700000D03*
%TO.P,Module1,2,GND*%
X5080000Y-20700000D03*
%TO.P,Module1,3,Ethernet_Pair3_P*%
%TO.N,/TRD3_P*%
X2000000Y-21100000D03*
%TO.P,Module1,4,Ethernet_Pair1_P*%
%TO.N,/TRD1_P*%
X5080000Y-21100000D03*
%TO.P,Module1,5,Ethernet_Pair3_N*%
%TO.N,/TRD3_N*%
X2000000Y-21500000D03*
%TO.P,Module1,6,Ethernet_Pair1_N*%
%TO.N,/TRD1_N*%
X5080000Y-21500000D03*
%TO.P,Module1,7,GND*%
%TO.N,GND*%
X2000000Y-21900000D03*
%TO.P,Module1,8,GND*%
X5080000Y-21900000D03*
%TO.P,Module1,9,Ethernet_Pair2_N*%
%TO.N,/TRD2_N*%
X2000000Y-22300000D03*
%TO.P,Module1,10,Ethernet_Pair0_N*%
%TO.N,/TRD0_N*%
X5080000Y-22300000D03*
%TO.P,Module1,11,Ethernet_Pair2_P*%
%TO.N,/TRD2_P*%
X2000000Y-22700000D03*
%TO.P,Module1,12,Ethernet_Pair0_P*%
%TO.N,/TRD0_P*%
X5080000Y-22700000D03*
%TO.P,Module1,13,GND*%
%TO.N,GND*%
X2000000Y-23100000D03*
%TO.P,Module1,14,GND*%
X5080000Y-23100000D03*
%TO.P,Module1,15,Ethernet_nLED3(3.3v)*%
%TO.N,/ETH_LEDY*%
X2000000Y-23500000D03*
%TO.P,Module1,16,Ethernet_SYNC_IN(1.8v)*%
%TO.N,/SYNC_IN*%
X5080000Y-23500000D03*
%TO.P,Module1,17,Ethernet_nLED2(3.3v)*%
%TO.N,/ETH_LEDG*%
X2000000Y-23900000D03*
%TO.P,Module1,18,Ethernet_SYNC_OUT(1.8v)*%
%TO.N,/SYNC_OUT*%
X5080000Y-23900000D03*
%TO.P,Module1,19,Ethernet_nLED1(3.3v)*%
%TO.N,unconnected-(Module1-Pad19)*%
X2000000Y-24300000D03*
%TO.P,Module1,20,EEPROM_nWP*%
%TO.N,/EEPROM_nWP*%
X5080000Y-24300000D03*
%TO.P,Module1,21,PI_nLED_Activity*%
%TO.N,PI_nLED_Activity*%
X2000000Y-24700000D03*
%TO.P,Module1,22,GND*%
%TO.N,GND*%
X5080000Y-24700000D03*
%TO.P,Module1,23,GND*%
X2000000Y-25100000D03*
%TO.P,Module1,24,GPIO26*%
%TO.N,/GPIO26*%
X5080000Y-25100000D03*
%TO.P,Module1,25,GPIO21*%
%TO.N,/GPIO21*%
X2000000Y-25500000D03*
%TO.P,Module1,26,GPIO19*%
%TO.N,/GPIO19*%
X5080000Y-25500000D03*
%TO.P,Module1,27,GPIO20*%
%TO.N,/GPIO20*%
X2000000Y-25900000D03*
%TO.P,Module1,28,GPIO13*%
%TO.N,/GPIO13*%
X5080000Y-25900000D03*
%TO.P,Module1,29,GPIO16*%
%TO.N,/GPIO16*%
X2000000Y-26300000D03*
%TO.P,Module1,30,GPIO6*%
%TO.N,/GPIO6*%
X5080000Y-26300000D03*
%TO.P,Module1,31,GPIO12*%
%TO.N,/GPIO12*%
X2000000Y-26700000D03*
%TO.P,Module1,32,GND*%
%TO.N,GND*%
X5080000Y-26700000D03*
%TO.P,Module1,33,GND*%
X2000000Y-27100000D03*
%TO.P,Module1,34,GPIO5*%
%TO.N,/GPIO5*%
X5080000Y-27100000D03*
%TO.P,Module1,35,ID_SC*%
%TO.N,/ID_SC*%
X2000000Y-27500000D03*
%TO.P,Module1,36,ID_SD*%
%TO.N,/ID_SD*%
X5080000Y-27500000D03*
%TO.P,Module1,37,GPIO7*%
%TO.N,/GPIO7*%
X2000000Y-27900000D03*
%TO.P,Module1,38,GPIO11*%
%TO.N,/GPIO11*%
X5080000Y-27900000D03*
%TO.P,Module1,39,GPIO8*%
%TO.N,/GPIO8*%
X2000000Y-28300000D03*
%TO.P,Module1,40,GPIO9*%
%TO.N,/GPIO9*%
X5080000Y-28300000D03*
%TO.P,Module1,41,GPIO25*%
%TO.N,/GPIO25*%
X2000000Y-28700000D03*
%TO.P,Module1,42,GND*%
%TO.N,GND*%
X5080000Y-28700000D03*
%TO.P,Module1,43,GND*%
X2000000Y-29100000D03*
%TO.P,Module1,44,GPIO10*%
%TO.N,/GPIO10*%
X5080000Y-29100000D03*
%TO.P,Module1,45,GPIO24*%
%TO.N,/GPIO24*%
X2000000Y-29500000D03*
%TO.P,Module1,46,GPIO22*%
%TO.N,/GPIO22*%
X5080000Y-29500000D03*
%TO.P,Module1,47,GPIO23*%
%TO.N,/GPIO23*%
X2000000Y-29900000D03*
%TO.P,Module1,48,GPIO27*%
%TO.N,/GPIO27*%
X5080000Y-29900000D03*
%TO.P,Module1,49,GPIO18*%
%TO.N,/GPIO18*%
X2000000Y-30300000D03*
%TO.P,Module1,50,GPIO17*%
%TO.N,/GPIO17*%
X5080000Y-30300000D03*
%TO.P,Module1,51,GPIO15*%
%TO.N,/GPIO15*%
X2000000Y-30700000D03*
%TO.P,Module1,52,GND*%
%TO.N,GND*%
X5080000Y-30700000D03*
%TO.P,Module1,53,GND*%
X2000000Y-31100000D03*
%TO.P,Module1,54,GPIO4*%
%TO.N,/GPIO4*%
X5080000Y-31100000D03*
%TO.P,Module1,55,GPIO14*%
%TO.N,/GPIO14*%
X2000000Y-31500000D03*
%TO.P,Module1,56,GPIO3*%
%TO.N,/GPIO3*%
X5080000Y-31500000D03*
%TO.P,Module1,57,SD_CLK*%
%TO.N,/SD_CLK*%
X2000000Y-31900000D03*
%TO.P,Module1,58,GPIO2*%
%TO.N,/GPIO2*%
X5080000Y-31900000D03*
%TO.P,Module1,59,GND*%
%TO.N,GND*%
X2000000Y-32300000D03*
%TO.P,Module1,60,GND*%
X5080000Y-32300000D03*
%TO.P,Module1,61,SD_DAT3*%
%TO.N,/SD_DAT3*%
X2000000Y-32700000D03*
%TO.P,Module1,62,SD_CMD*%
%TO.N,/SD_CMD*%
X5080000Y-32700000D03*
%TO.P,Module1,63,SD_DAT0*%
%TO.N,/SD_DAT0*%
X2000000Y-33100000D03*
%TO.P,Module1,64,SD_DAT5*%
%TO.N,unconnected-(Module1-Pad64)*%
X5080000Y-33100000D03*
%TO.P,Module1,65,GND*%
%TO.N,GND*%
X2000000Y-33500000D03*
%TO.P,Module1,66,GND*%
X5080000Y-33500000D03*
%TO.P,Module1,67,SD_DAT1*%
%TO.N,/SD_DAT1*%
X2000000Y-33900000D03*
%TO.P,Module1,68,SD_DAT4*%
%TO.N,unconnected-(Module1-Pad68)*%
X5080000Y-33900000D03*
%TO.P,Module1,69,SD_DAT2*%
%TO.N,/SD_DAT2*%
X2000000Y-34300000D03*
%TO.P,Module1,70,SD_DAT7*%
%TO.N,unconnected-(Module1-Pad70)*%
X5080000Y-34300000D03*
%TO.P,Module1,71,GND*%
%TO.N,GND*%
X2000000Y-34700000D03*
%TO.P,Module1,72,SD_DAT6*%
%TO.N,unconnected-(Module1-Pad72)*%
X5080000Y-34700000D03*
%TO.P,Module1,73,SD_VDD_Override*%
%TO.N,unconnected-(Module1-Pad73)*%
X2000000Y-35100000D03*
%TO.P,Module1,74,GND*%
%TO.N,GND*%
X5080000Y-35100000D03*
%TO.P,Module1,75,SD_PWR_ON*%
%TO.N,/SD_PWR_ON*%
X2000000Y-35500000D03*
%TO.P,Module1,76,Reserved*%
%TO.N,/Reserved*%
X5080000Y-35500000D03*
%TO.P,Module1,77,+5v_(Input)*%
%TO.N,/+5v*%
X2000000Y-35900000D03*
%TO.P,Module1,78,GPIO_VREF(1.8v/3.3v_Input)*%
%TO.N,/+3.3v*%
X5080000Y-35900000D03*
%TO.P,Module1,79,+5v_(Input)*%
%TO.N,/+5v*%
X2000000Y-36300000D03*
%TO.P,Module1,80,SCL0*%
%TO.N,/SCL0*%
X5080000Y-36300000D03*
%TO.P,Module1,81,+5v_(Input)*%
%TO.N,/+5v*%
X2000000Y-36700000D03*
%TO.P,Module1,82,SDA0*%
%TO.N,/SDA0*%
X5080000Y-36700000D03*
%TO.P,Module1,83,+5v_(Input)*%
%TO.N,/+5v*%
X2000000Y-37100000D03*
%TO.P,Module1,84,+3.3v_(Output)*%
%TO.N,/+3.3v*%
X5080000Y-37100000D03*
%TO.P,Module1,85,+5v_(Input)*%
%TO.N,/+5v*%
X2000000Y-37500000D03*
%TO.P,Module1,86,+3.3v_(Output)*%
%TO.N,/+3.3v*%
X5080000Y-37500000D03*
%TO.P,Module1,87,+5v_(Input)*%
%TO.N,/+5v*%
X2000000Y-37900000D03*
%TO.P,Module1,88,+1.8v_(Output)*%
%TO.N,/+1.8v*%
X5080000Y-37900000D03*
%TO.P,Module1,89,WiFi_nDisable*%
%TO.N,unconnected-(Module1-Pad89)*%
X2000000Y-38300000D03*
%TO.P,Module1,90,+1.8v_(Output)*%
%TO.N,/+1.8v*%
X5080000Y-38300000D03*
%TO.P,Module1,91,BT_nDisable*%
%TO.N,unconnected-(Module1-Pad91)*%
X2000000Y-38700000D03*
%TO.P,Module1,92,RUN_PG*%
%TO.N,/RUN_PG*%
X5080000Y-38700000D03*
%TO.P,Module1,93,nRPIBOOT*%
%TO.N,unconnected-(Module1-Pad93)*%
X2000000Y-39100000D03*
%TO.P,Module1,94,AnalogIP1*%
%TO.N,/AIN1*%
X5080000Y-39100000D03*
%TO.P,Module1,95,nPI_LED_PWR*%
%TO.N,unconnected-(Module1-Pad95)*%
X2000000Y-39500000D03*
%TO.P,Module1,96,AnalogIP0*%
%TO.N,/AIN0*%
X5080000Y-39500000D03*
%TO.P,Module1,97,Camera_GPIO*%
%TO.N,/CAM_GPIO*%
X2000000Y-39900000D03*
%TO.P,Module1,98,GND*%
%TO.N,GND*%
X5080000Y-39900000D03*
%TO.P,Module1,99,Global_EN*%
%TO.N,/GLOBAL_EN*%
X2000000Y-40300000D03*
%TO.P,Module1,100,nEXTRST*%
%TO.N,/nEXTRST*%
X5080000Y-40300000D03*
%TO.P,Module1,101,USB_OTG_ID*%
%TO.N,/USBOTG_ID*%
X35920000Y-20700000D03*
%TO.P,Module1,102,PCIe_CLK_nREQ*%
%TO.N,/PCIE_CLK_nREQ*%
X39000000Y-20700000D03*
%TO.P,Module1,103,USB2_N*%
%TO.N,/USB2_N*%
X35920000Y-21100000D03*
%TO.P,Module1,104,Reserved*%
%TO.N,unconnected-(Module1-Pad104)*%
X39000000Y-21100000D03*
%TO.P,Module1,105,USB2_P*%
%TO.N,/USB2_P*%
X35920000Y-21500000D03*
%TO.P,Module1,106,Reserved*%
%TO.N,unconnected-(Module1-Pad106)*%
X39000000Y-21500000D03*
%TO.P,Module1,107,GND*%
%TO.N,GND*%
X35920000Y-21900000D03*
%TO.P,Module1,108,GND*%
X39000000Y-21900000D03*
%TO.P,Module1,109,PCIe_nRST*%
%TO.N,/PCIE_nRST*%
X35920000Y-22300000D03*
%TO.P,Module1,110,PCIe_CLK_P*%
%TO.N,/PCIE_CLK_P*%
X39000000Y-22300000D03*
%TO.P,Module1,111,VDAC_COMP*%
%TO.N,/TV_OUT*%
X35920000Y-22700000D03*
%TO.P,Module1,112,PCIe_CLK_N*%
%TO.N,/PCIE_CLK_N*%
X39000000Y-22700000D03*
%TO.P,Module1,113,GND*%
%TO.N,GND*%
X35920000Y-23100000D03*
%TO.P,Module1,114,GND*%
X39000000Y-23100000D03*
%TO.P,Module1,115,CAM1_D0_N*%
%TO.N,/CAM1_D0_N*%
X35920000Y-23500000D03*
%TO.P,Module1,116,PCIe_RX_P*%
%TO.N,/PCIE_RX_P*%
X39000000Y-23500000D03*
%TO.P,Module1,117,CAM1_D0_P*%
%TO.N,/CAM1_D0_P*%
X35920000Y-23900000D03*
%TO.P,Module1,118,PCIe_RX_N*%
%TO.N,/PCIE_RX_N*%
X39000000Y-23900000D03*
%TO.P,Module1,119,GND*%
%TO.N,GND*%
X35920000Y-24300000D03*
%TO.P,Module1,120,GND*%
X39000000Y-24300000D03*
%TO.P,Module1,121,CAM1_D1_N*%
%TO.N,/CAM1_D1_N*%
X35920000Y-24700000D03*
%TO.P,Module1,122,PCIe_TX_P*%
%TO.N,/PCIE_TX_P*%
X39000000Y-24700000D03*
%TO.P,Module1,123,CAM1_D1_P*%
%TO.N,/CAM1_D1_P*%
X35920000Y-25100000D03*
%TO.P,Module1,124,PCIe_TX_N*%
%TO.N,/PCIE_TX_N*%
X39000000Y-25100000D03*
%TO.P,Module1,125,GND*%
%TO.N,GND*%
X35920000Y-25500000D03*
%TO.P,Module1,126,GND*%
X39000000Y-25500000D03*
%TO.P,Module1,127,CAM1_C_N*%
%TO.N,/CAM1_C_N*%
X35920000Y-25900000D03*
%TO.P,Module1,128,CAM0_D0_N*%
%TO.N,/CAM0_D0_N*%
X39000000Y-25900000D03*
%TO.P,Module1,129,CAM1_C_P*%
%TO.N,/CAM1_C_P*%
X35920000Y-26300000D03*
%TO.P,Module1,130,CAM0_D0_P*%
%TO.N,/CAM0_D0_P*%
X39000000Y-26300000D03*
%TO.P,Module1,131,GND*%
%TO.N,GND*%
X35920000Y-26700000D03*
%TO.P,Module1,132,GND*%
X39000000Y-26700000D03*
%TO.P,Module1,133,CAM1_D2_N*%
%TO.N,/CAM1_D2_N*%
X35920000Y-27100000D03*
%TO.P,Module1,134,CAM0_D1_N*%
%TO.N,/CAM0_D1_N*%
X39000000Y-27100000D03*
%TO.P,Module1,135,CAM1_D2_P*%
%TO.N,/CAM1_D2_P*%
X35920000Y-27500000D03*
%TO.P,Module1,136,CAM0_D1_P*%
%TO.N,/CAM0_D1_P*%
X39000000Y-27500000D03*
%TO.P,Module1,137,GND*%
%TO.N,GND*%
X35920000Y-27900000D03*
%TO.P,Module1,138,GND*%
X39000000Y-27900000D03*
%TO.P,Module1,139,CAM1_D3_N*%
%TO.N,/CAM1_D3_N*%
X35920000Y-28300000D03*
%TO.P,Module1,140,CAM0_C_N*%
%TO.N,/CAM0_C_N*%
X39000000Y-28300000D03*
%TO.P,Module1,141,CAM1_D3_P*%
%TO.N,/CAM1_D3_P*%
X35920000Y-28700000D03*
%TO.P,Module1,142,CAM0_C_P*%
%TO.N,/CAM0_C_P*%
X39000000Y-28700000D03*
%TO.P,Module1,143,HDMI1_HOTPLUG*%
%TO.N,/HDMI1_HOTPLUG*%
X35920000Y-29100000D03*
%TO.P,Module1,144,GND*%
%TO.N,GND*%
X39000000Y-29100000D03*
%TO.P,Module1,145,HDMI1_SDA*%
%TO.N,/HDMI1_SDA*%
X35920000Y-29500000D03*
%TO.P,Module1,146,HDMI1_TX2_P*%
%TO.N,/HDMI1_D2_P*%
X39000000Y-29500000D03*
%TO.P,Module1,147,HDMI1_SCL*%
%TO.N,/HDMI1_SCL*%
X35920000Y-29900000D03*
%TO.P,Module1,148,HDMI1_TX2_N*%
%TO.N,/HDMI1_D2_N*%
X39000000Y-29900000D03*
%TO.P,Module1,149,HDMI1_CEC*%
%TO.N,/HDMI1_CEC*%
X35920000Y-30300000D03*
%TO.P,Module1,150,GND*%
%TO.N,GND*%
X39000000Y-30300000D03*
%TO.P,Module1,151,HDMI0_CEC*%
%TO.N,/HDMI0_CEC*%
X35920000Y-30700000D03*
%TO.P,Module1,152,HDMI1_TX1_P*%
%TO.N,/HDMI1_D1_P*%
X39000000Y-30700000D03*
%TO.P,Module1,153,HDMI0_HOTPLUG*%
%TO.N,/HDMI0_HOTPLUG*%
X35920000Y-31100000D03*
%TO.P,Module1,154,HDMI1_TX1_N*%
%TO.N,/HDMI1_D1_N*%
X39000000Y-31100000D03*
%TO.P,Module1,155,GND*%
%TO.N,GND*%
X35920000Y-31500000D03*
%TO.P,Module1,156,GND*%
X39000000Y-31500000D03*
%TO.P,Module1,157,DSI0_D0_N*%
%TO.N,/DSI0_D0_N*%
X35920000Y-31900000D03*
%TO.P,Module1,158,HDMI1_TX0_P*%
%TO.N,/HDMI1_D0_P*%
X39000000Y-31900000D03*
%TO.P,Module1,159,DSI0_D0_P*%
%TO.N,/DSI0_D0_P*%
X35920000Y-32300000D03*
%TO.P,Module1,160,HDMI1_TX0_N*%
%TO.N,/HDMI1_D0_N*%
X39000000Y-32300000D03*
%TO.P,Module1,161,GND*%
%TO.N,GND*%
X35920000Y-32700000D03*
%TO.P,Module1,162,GND*%
X39000000Y-32700000D03*
%TO.P,Module1,163,DSI0_D1_N*%
%TO.N,/DSI0_D1_N*%
X35920000Y-33100000D03*
%TO.P,Module1,164,HDMI1_CLK_P*%
%TO.N,/HDMI1_CK_P*%
X39000000Y-33100000D03*
%TO.P,Module1,165,DSI0_D1_P*%
%TO.N,/DSI0_D1_P*%
X35920000Y-33500000D03*
%TO.P,Module1,166,HDMI1_CLK_N*%
%TO.N,/HDMI1_CK_N*%
X39000000Y-33500000D03*
%TO.P,Module1,167,GND*%
%TO.N,GND*%
X35920000Y-33900000D03*
%TO.P,Module1,168,GND*%
X39000000Y-33900000D03*
%TO.P,Module1,169,DSI0_C_N*%
%TO.N,/DSI0_C_N*%
X35920000Y-34300000D03*
%TO.P,Module1,170,HDMI0_TX2_P*%
%TO.N,/HDMI0_D2_P*%
X39000000Y-34300000D03*
%TO.P,Module1,171,DSI0_C_P*%
%TO.N,/DSI0_C_P*%
X35920000Y-34700000D03*
%TO.P,Module1,172,HDMI0_TX2_N*%
%TO.N,/HDMI0_D2_N*%
X39000000Y-34700000D03*
%TO.P,Module1,173,GND*%
%TO.N,GND*%
X35920000Y-35100000D03*
%TO.P,Module1,174,GND*%
X39000000Y-35100000D03*
%TO.P,Module1,175,DSI1_D0_N*%
%TO.N,/DSI1_D0_N*%
X35920000Y-35500000D03*
%TO.P,Module1,176,HDMI0_TX1_P*%
%TO.N,/HDMI0_D1_P*%
X39000000Y-35500000D03*
%TO.P,Module1,177,DSI1_D0_P*%
%TO.N,/DSI1_D0_P*%
X35920000Y-35900000D03*
%TO.P,Module1,178,HDMI0_TX1_N*%
%TO.N,/HDMI0_D1_N*%
X39000000Y-35900000D03*
%TO.P,Module1,179,GND*%
%TO.N,GND*%
X35920000Y-36300000D03*
%TO.P,Module1,180,GND*%
X39000000Y-36300000D03*
%TO.P,Module1,181,DSI1_D1_N*%
%TO.N,/DSI1_D1_N*%
X35920000Y-36700000D03*
%TO.P,Module1,182,HDMI0_TX0_P*%
%TO.N,/HDMI0_D0_P*%
X39000000Y-36700000D03*
%TO.P,Module1,183,DSI1_D1_P*%
%TO.N,/DSI1_D1_P*%
X35920000Y-37100000D03*
%TO.P,Module1,184,HDMI0_TX0_N*%
%TO.N,/HDMI0_D0_N*%
X39000000Y-37100000D03*
%TO.P,Module1,185,GND*%
%TO.N,GND*%
X35920000Y-37500000D03*
%TO.P,Module1,186,GND*%
X39000000Y-37500000D03*
%TO.P,Module1,187,DSI1_C_N*%
%TO.N,/DSI1_C_N*%
X35920000Y-37900000D03*
%TO.P,Module1,188,HDMI0_CLK_P*%
%TO.N,/HDMI0_CK_P*%
X39000000Y-37900000D03*
%TO.P,Module1,189,DSI1_C_P*%
%TO.N,/DSI1_C_P*%
X35920000Y-38300000D03*
%TO.P,Module1,190,HDMI0_CLK_N*%
%TO.N,/HDMI0_CK_N*%
X39000000Y-38300000D03*
%TO.P,Module1,191,GND*%
%TO.N,GND*%
X35920000Y-38700000D03*
%TO.P,Module1,192,GND*%
X39000000Y-38700000D03*
%TO.P,Module1,193,DSI1_D2_N*%
%TO.N,/DSI1_D2_N*%
X35920000Y-39100000D03*
%TO.P,Module1,194,DSI1_D3_N*%
%TO.N,/DSI1_D3_N*%
X39000000Y-39100000D03*
%TO.P,Module1,195,DSI1_D2_P*%
%TO.N,/DSI1_D2_P*%
X35920000Y-39500000D03*
%TO.P,Module1,196,DSI1_D3_P*%
%TO.N,/DSI1_D3_P*%
X39000000Y-39500000D03*
%TO.P,Module1,197,GND*%
%TO.N,GND*%
X35920000Y-39900000D03*
%TO.P,Module1,198,GND*%
X39000000Y-39900000D03*
%TO.P,Module1,199,HDMI0_SDA*%
%TO.N,/HDMI0_SDA*%
X35920000Y-40300000D03*
%TO.P,Module1,200,HDMI0_SCL*%
%TO.N,/HDMI0_SCL*%
X39000000Y-40300000D03*
%TD*%
D25*
%TO.P,J3,1,Pin_1*%
%TO.N,+3V3*%
X-23660000Y-3550000D03*
D26*
%TO.P,J3,2,Pin_2*%
%TO.N,+5V*%
X-26200000Y-3550000D03*
%TO.P,J3,3,Pin_3*%
%TO.N,/PWM*%
X-23660000Y-6090000D03*
%TO.P,J3,4,Pin_4*%
%TO.N,+5V*%
X-26200000Y-6090000D03*
%TO.P,J3,5,Pin_5*%
%TO.N,unconnected-(J3-Pad5)*%
X-23660000Y-8630000D03*
%TO.P,J3,6,Pin_6*%
%TO.N,GND*%
X-26200000Y-8630000D03*
%TO.P,J3,7,Pin_7*%
%TO.N,unconnected-(J3-Pad7)*%
X-23660000Y-11170000D03*
%TO.P,J3,8,Pin_8*%
%TO.N,/DB6*%
X-26200000Y-11170000D03*
%TO.P,J3,9,Pin_9*%
%TO.N,GND*%
X-23660000Y-13710000D03*
%TO.P,J3,10,Pin_10*%
%TO.N,/DB7*%
X-26200000Y-13710000D03*
%TO.P,J3,11,Pin_11*%
%TO.N,/DB9*%
X-23660000Y-16250000D03*
%TO.P,J3,12,Pin_12*%
%TO.N,/DB10*%
X-26200000Y-16250000D03*
%TO.P,J3,13,Pin_13*%
%TO.N,/!RESET*%
X-23660000Y-18790000D03*
%TO.P,J3,14,Pin_14*%
%TO.N,GND*%
X-26200000Y-18790000D03*
%TO.P,J3,15,Pin_15*%
%TO.N,/DB14*%
X-23660000Y-21330000D03*
%TO.P,J3,16,Pin_16*%
%TO.N,/DB15*%
X-26200000Y-21330000D03*
%TO.P,J3,17,Pin_17*%
%TO.N,unconnected-(J3-Pad17)*%
X-23660000Y-23870000D03*
%TO.P,J3,18,Pin_18*%
%TO.N,unconnected-(J3-Pad18)*%
X-26200000Y-23870000D03*
%TO.P,J3,19,Pin_19*%
%TO.N,/DB2*%
X-23660000Y-26410000D03*
%TO.P,J3,20,Pin_20*%
%TO.N,GND*%
X-26200000Y-26410000D03*
%TO.P,J3,21,Pin_21*%
%TO.N,/DB1*%
X-23660000Y-28950000D03*
%TO.P,J3,22,Pin_22*%
%TO.N,unconnected-(J3-Pad22)*%
X-26200000Y-28950000D03*
%TO.P,J3,23,Pin_23*%
%TO.N,/DB3*%
X-23660000Y-31490000D03*
%TO.P,J3,24,Pin_24*%
%TO.N,/DB0*%
X-26200000Y-31490000D03*
%TO.P,J3,25,Pin_25*%
%TO.N,GND*%
X-23660000Y-34030000D03*
%TO.P,J3,26,Pin_26*%
%TO.N,/!WRITE*%
X-26200000Y-34030000D03*
%TO.P,J3,27,Pin_27*%
%TO.N,unconnected-(J3-Pad27)*%
X-23660000Y-36570000D03*
%TO.P,J3,28,Pin_28*%
%TO.N,unconnected-(J3-Pad28)*%
X-26200000Y-36570000D03*
%TO.P,J3,29,Pin_29*%
%TO.N,unconnected-(J3-Pad29)*%
X-23660000Y-39110000D03*
%TO.P,J3,30,Pin_30*%
%TO.N,GND*%
X-26200000Y-39110000D03*
%TO.P,J3,31,Pin_31*%
%TO.N,unconnected-(J3-Pad31)*%
X-23660000Y-41650000D03*
%TO.P,J3,32,Pin_32*%
%TO.N,/DB4*%
X-26200000Y-41650000D03*
%TO.P,J3,33,Pin_33*%
%TO.N,/DB5*%
X-23660000Y-44190000D03*
%TO.P,J3,34,Pin_34*%
%TO.N,GND*%
X-26200000Y-44190000D03*
%TO.P,J3,35,Pin_35*%
%TO.N,/DB11*%
X-23660000Y-46730000D03*
%TO.P,J3,36,Pin_36*%
%TO.N,/DB8*%
X-26200000Y-46730000D03*
%TO.P,J3,37,Pin_37*%
%TO.N,/DAT_CMD*%
X-23660000Y-49270000D03*
%TO.P,J3,38,Pin_38*%
%TO.N,/DB12*%
X-26200000Y-49270000D03*
%TO.P,J3,39,Pin_39*%
%TO.N,GND*%
X-23660000Y-51810000D03*
%TO.P,J3,40,Pin_40*%
%TO.N,/DB13*%
X-26200000Y-51810000D03*
%TD*%
D17*
%TO.P,C3,1*%
%TO.N,/LED_A*%
X8205000Y-5000000D03*
%TO.P,C3,2*%
%TO.N,GND*%
X9755000Y-5000000D03*
%TD*%
D15*
%TO.P,R2,1*%
%TO.N,Net-(D2-Pad1)*%
X28670000Y-13000000D03*
%TO.P,R2,2*%
%TO.N,Net-(R2-Pad2)*%
X29690000Y-13000000D03*
%TD*%
D16*
%TO.P,R5,1*%
%TO.N,/LED_K*%
X12165000Y-5000000D03*
%TO.P,R5,2*%
%TO.N,GND*%
X13815000Y-5000000D03*
%TD*%
M02*
