%TF.GenerationSoftware,KiCad,Pcbnew,6.0.11-2627ca5db0~126~ubuntu22.04.1*%
%TF.CreationDate,2023-07-14T19:34:09-07:00*%
%TF.ProjectId,small-display,736d616c-6c2d-4646-9973-706c61792e6b,rev?*%
%TF.SameCoordinates,Original*%
%TF.FileFunction,Legend,Bot*%
%TF.FilePolarity,Positive*%
%FSLAX46Y46*%
G04 Gerber Fmt 4.6, Leading zero omitted, Abs format (unit mm)*
G04 Created by KiCad (PCBNEW 6.0.11-2627ca5db0~126~ubuntu22.04.1) date 2023-07-14 19:34:09*
%MOMM*%
%LPD*%
G01*
G04 APERTURE LIST*
%ADD10C,0.120000*%
%ADD11C,0.150000*%
%ADD12C,0.254000*%
%ADD13C,0.125000*%
%ADD14C,0.200000*%
%ADD15C,0.127000*%
%ADD16C,0.152400*%
G04 APERTURE END LIST*
D10*
X11500000Y-30000000D02*
X31500000Y-30000000D01*
X41000000Y-47000000D02*
X41000000Y-62000000D01*
X5750000Y-21500000D02*
X6400000Y-22000000D01*
X2000000Y-47000000D02*
X11500000Y-47000000D01*
X2250000Y-21500000D02*
X5750000Y-21500000D01*
X11500000Y-30000000D02*
X11500000Y-47000000D01*
X2000000Y-47000000D02*
X2000000Y-62000000D01*
X9457106Y-11500000D02*
G75*
G03*
X9457106Y-11500000I-353553J0D01*
G01*
X31500000Y-47000000D02*
X41000000Y-47000000D01*
X31500000Y-30000000D02*
X31500000Y-47000000D01*
D11*
X39773809Y-48178571D02*
X40107142Y-48178571D01*
X40107142Y-48702380D02*
X40107142Y-47702380D01*
X39630952Y-47702380D01*
X39250000Y-48702380D02*
X39250000Y-47702380D01*
X38869047Y-47702380D01*
X38773809Y-47750000D01*
X38726190Y-47797619D01*
X38678571Y-47892857D01*
X38678571Y-48035714D01*
X38726190Y-48130952D01*
X38773809Y-48178571D01*
X38869047Y-48226190D01*
X39250000Y-48226190D01*
X37678571Y-48607142D02*
X37726190Y-48654761D01*
X37869047Y-48702380D01*
X37964285Y-48702380D01*
X38107142Y-48654761D01*
X38202380Y-48559523D01*
X38250000Y-48464285D01*
X38297619Y-48273809D01*
X38297619Y-48130952D01*
X38250000Y-47940476D01*
X38202380Y-47845238D01*
X38107142Y-47750000D01*
X37964285Y-47702380D01*
X37869047Y-47702380D01*
X37726190Y-47750000D01*
X37678571Y-47797619D01*
X36107142Y-48654761D02*
X36202380Y-48702380D01*
X36392857Y-48702380D01*
X36488095Y-48654761D01*
X36535714Y-48559523D01*
X36535714Y-48178571D01*
X36488095Y-48083333D01*
X36392857Y-48035714D01*
X36202380Y-48035714D01*
X36107142Y-48083333D01*
X36059523Y-48178571D01*
X36059523Y-48273809D01*
X36535714Y-48369047D01*
X35726190Y-48702380D02*
X35202380Y-48035714D01*
X35726190Y-48035714D02*
X35202380Y-48702380D01*
X34964285Y-48035714D02*
X34583333Y-48035714D01*
X34821428Y-47702380D02*
X34821428Y-48559523D01*
X34773809Y-48654761D01*
X34678571Y-48702380D01*
X34583333Y-48702380D01*
X33869047Y-48654761D02*
X33964285Y-48702380D01*
X34154761Y-48702380D01*
X34250000Y-48654761D01*
X34297619Y-48559523D01*
X34297619Y-48178571D01*
X34250000Y-48083333D01*
X34154761Y-48035714D01*
X33964285Y-48035714D01*
X33869047Y-48083333D01*
X33821428Y-48178571D01*
X33821428Y-48273809D01*
X34297619Y-48369047D01*
X33392857Y-48035714D02*
X33392857Y-48702380D01*
X33392857Y-48130952D02*
X33345238Y-48083333D01*
X33250000Y-48035714D01*
X33107142Y-48035714D01*
X33011904Y-48083333D01*
X32964285Y-48178571D01*
X32964285Y-48702380D01*
X32630952Y-48035714D02*
X32250000Y-48035714D01*
X32488095Y-47702380D02*
X32488095Y-48559523D01*
X32440476Y-48654761D01*
X32345238Y-48702380D01*
X32250000Y-48702380D01*
%TO.C,TP4*%
X14761904Y-13202380D02*
X14190476Y-13202380D01*
X14476190Y-14202380D02*
X14476190Y-13202380D01*
X13857142Y-14202380D02*
X13857142Y-13202380D01*
X13476190Y-13202380D01*
X13380952Y-13250000D01*
X13333333Y-13297619D01*
X13285714Y-13392857D01*
X13285714Y-13535714D01*
X13333333Y-13630952D01*
X13380952Y-13678571D01*
X13476190Y-13726190D01*
X13857142Y-13726190D01*
X12428571Y-13535714D02*
X12428571Y-14202380D01*
X12666666Y-13154761D02*
X12904761Y-13869047D01*
X12285714Y-13869047D01*
%TO.C,R4*%
X14666666Y-20202380D02*
X15000000Y-19726190D01*
X15238095Y-20202380D02*
X15238095Y-19202380D01*
X14857142Y-19202380D01*
X14761904Y-19250000D01*
X14714285Y-19297619D01*
X14666666Y-19392857D01*
X14666666Y-19535714D01*
X14714285Y-19630952D01*
X14761904Y-19678571D01*
X14857142Y-19726190D01*
X15238095Y-19726190D01*
X13809523Y-19535714D02*
X13809523Y-20202380D01*
X14047619Y-19154761D02*
X14285714Y-19869047D01*
X13666666Y-19869047D01*
%TO.C,TP1*%
X27261904Y-5952380D02*
X26690476Y-5952380D01*
X26976190Y-6952380D02*
X26976190Y-5952380D01*
X26357142Y-6952380D02*
X26357142Y-5952380D01*
X25976190Y-5952380D01*
X25880952Y-6000000D01*
X25833333Y-6047619D01*
X25785714Y-6142857D01*
X25785714Y-6285714D01*
X25833333Y-6380952D01*
X25880952Y-6428571D01*
X25976190Y-6476190D01*
X26357142Y-6476190D01*
X24833333Y-6952380D02*
X25404761Y-6952380D01*
X25119047Y-6952380D02*
X25119047Y-5952380D01*
X25214285Y-6095238D01*
X25309523Y-6190476D01*
X25404761Y-6238095D01*
%TO.C,C4*%
X4416666Y-12427142D02*
X4464285Y-12474761D01*
X4607142Y-12522380D01*
X4702380Y-12522380D01*
X4845238Y-12474761D01*
X4940476Y-12379523D01*
X4988095Y-12284285D01*
X5035714Y-12093809D01*
X5035714Y-11950952D01*
X4988095Y-11760476D01*
X4940476Y-11665238D01*
X4845238Y-11570000D01*
X4702380Y-11522380D01*
X4607142Y-11522380D01*
X4464285Y-11570000D01*
X4416666Y-11617619D01*
X3559523Y-11855714D02*
X3559523Y-12522380D01*
X3797619Y-11474761D02*
X4035714Y-12189047D01*
X3416666Y-12189047D01*
D12*
%TO.C,U6*%
X8217619Y-10304523D02*
X8217619Y-11332619D01*
X8157142Y-11453571D01*
X8096666Y-11514047D01*
X7975714Y-11574523D01*
X7733809Y-11574523D01*
X7612857Y-11514047D01*
X7552380Y-11453571D01*
X7491904Y-11332619D01*
X7491904Y-10304523D01*
X6342857Y-10304523D02*
X6584761Y-10304523D01*
X6705714Y-10365000D01*
X6766190Y-10425476D01*
X6887142Y-10606904D01*
X6947619Y-10848809D01*
X6947619Y-11332619D01*
X6887142Y-11453571D01*
X6826666Y-11514047D01*
X6705714Y-11574523D01*
X6463809Y-11574523D01*
X6342857Y-11514047D01*
X6282380Y-11453571D01*
X6221904Y-11332619D01*
X6221904Y-11030238D01*
X6282380Y-10909285D01*
X6342857Y-10848809D01*
X6463809Y-10788333D01*
X6705714Y-10788333D01*
X6826666Y-10848809D01*
X6887142Y-10909285D01*
X6947619Y-11030238D01*
D11*
%TO.C,C2*%
X22416666Y-26107142D02*
X22464285Y-26154761D01*
X22607142Y-26202380D01*
X22702380Y-26202380D01*
X22845238Y-26154761D01*
X22940476Y-26059523D01*
X22988095Y-25964285D01*
X23035714Y-25773809D01*
X23035714Y-25630952D01*
X22988095Y-25440476D01*
X22940476Y-25345238D01*
X22845238Y-25250000D01*
X22702380Y-25202380D01*
X22607142Y-25202380D01*
X22464285Y-25250000D01*
X22416666Y-25297619D01*
X22035714Y-25297619D02*
X21988095Y-25250000D01*
X21892857Y-25202380D01*
X21654761Y-25202380D01*
X21559523Y-25250000D01*
X21511904Y-25297619D01*
X21464285Y-25392857D01*
X21464285Y-25488095D01*
X21511904Y-25630952D01*
X22083333Y-26202380D01*
X21464285Y-26202380D01*
%TO.C,C5*%
X1666666Y-23684642D02*
X1714285Y-23732261D01*
X1857142Y-23779880D01*
X1952380Y-23779880D01*
X2095238Y-23732261D01*
X2190476Y-23637023D01*
X2238095Y-23541785D01*
X2285714Y-23351309D01*
X2285714Y-23208452D01*
X2238095Y-23017976D01*
X2190476Y-22922738D01*
X2095238Y-22827500D01*
X1952380Y-22779880D01*
X1857142Y-22779880D01*
X1714285Y-22827500D01*
X1666666Y-22875119D01*
X761904Y-22779880D02*
X1238095Y-22779880D01*
X1285714Y-23256071D01*
X1238095Y-23208452D01*
X1142857Y-23160833D01*
X904761Y-23160833D01*
X809523Y-23208452D01*
X761904Y-23256071D01*
X714285Y-23351309D01*
X714285Y-23589404D01*
X761904Y-23684642D01*
X809523Y-23732261D01*
X904761Y-23779880D01*
X1142857Y-23779880D01*
X1238095Y-23732261D01*
X1285714Y-23684642D01*
D13*
%TO.C,CX2*%
X5017857Y-29517857D02*
X5053571Y-29482142D01*
X5089285Y-29375000D01*
X5089285Y-29303571D01*
X5053571Y-29196428D01*
X4982142Y-29125000D01*
X4910714Y-29089285D01*
X4767857Y-29053571D01*
X4660714Y-29053571D01*
X4517857Y-29089285D01*
X4446428Y-29125000D01*
X4375000Y-29196428D01*
X4339285Y-29303571D01*
X4339285Y-29375000D01*
X4375000Y-29482142D01*
X4410714Y-29517857D01*
X4339285Y-29767857D02*
X5089285Y-30267857D01*
X4339285Y-30267857D02*
X5089285Y-29767857D01*
X4410714Y-30517857D02*
X4375000Y-30553571D01*
X4339285Y-30625000D01*
X4339285Y-30803571D01*
X4375000Y-30875000D01*
X4410714Y-30910714D01*
X4482142Y-30946428D01*
X4553571Y-30946428D01*
X4660714Y-30910714D01*
X5089285Y-30482142D01*
X5089285Y-30946428D01*
D11*
%TO.C,U5*%
X2515918Y-15699496D02*
X2515918Y-16513284D01*
X2468048Y-16609024D01*
X2420178Y-16656894D01*
X2324438Y-16704764D01*
X2132959Y-16704764D01*
X2037219Y-16656894D01*
X1989349Y-16609024D01*
X1941479Y-16513284D01*
X1941479Y-15699496D01*
X984081Y-15699496D02*
X1462780Y-15699496D01*
X1510650Y-16178195D01*
X1462780Y-16130325D01*
X1367040Y-16082455D01*
X1127691Y-16082455D01*
X1031951Y-16130325D01*
X984081Y-16178195D01*
X936211Y-16273934D01*
X936211Y-16513284D01*
X984081Y-16609024D01*
X1031951Y-16656894D01*
X1127691Y-16704764D01*
X1367040Y-16704764D01*
X1462780Y-16656894D01*
X1510650Y-16609024D01*
%TO.C,TP5*%
X22011904Y-14702380D02*
X21440476Y-14702380D01*
X21726190Y-15702380D02*
X21726190Y-14702380D01*
X21107142Y-15702380D02*
X21107142Y-14702380D01*
X20726190Y-14702380D01*
X20630952Y-14750000D01*
X20583333Y-14797619D01*
X20535714Y-14892857D01*
X20535714Y-15035714D01*
X20583333Y-15130952D01*
X20630952Y-15178571D01*
X20726190Y-15226190D01*
X21107142Y-15226190D01*
X19630952Y-14702380D02*
X20107142Y-14702380D01*
X20154761Y-15178571D01*
X20107142Y-15130952D01*
X20011904Y-15083333D01*
X19773809Y-15083333D01*
X19678571Y-15130952D01*
X19630952Y-15178571D01*
X19583333Y-15273809D01*
X19583333Y-15511904D01*
X19630952Y-15607142D01*
X19678571Y-15654761D01*
X19773809Y-15702380D01*
X20011904Y-15702380D01*
X20107142Y-15654761D01*
X20154761Y-15607142D01*
%TO.C,R8*%
X6732926Y-30875000D02*
X6375783Y-30625000D01*
X6732926Y-30446428D02*
X5982926Y-30446428D01*
X5982926Y-30732142D01*
X6018641Y-30803571D01*
X6054355Y-30839285D01*
X6125783Y-30875000D01*
X6232926Y-30875000D01*
X6304355Y-30839285D01*
X6340069Y-30803571D01*
X6375783Y-30732142D01*
X6375783Y-30446428D01*
X6304355Y-31303571D02*
X6268641Y-31232142D01*
X6232926Y-31196428D01*
X6161498Y-31160714D01*
X6125783Y-31160714D01*
X6054355Y-31196428D01*
X6018641Y-31232142D01*
X5982926Y-31303571D01*
X5982926Y-31446428D01*
X6018641Y-31517857D01*
X6054355Y-31553571D01*
X6125783Y-31589285D01*
X6161498Y-31589285D01*
X6232926Y-31553571D01*
X6268641Y-31517857D01*
X6304355Y-31446428D01*
X6304355Y-31303571D01*
X6340069Y-31232142D01*
X6375783Y-31196428D01*
X6447212Y-31160714D01*
X6590069Y-31160714D01*
X6661498Y-31196428D01*
X6697212Y-31232142D01*
X6732926Y-31303571D01*
X6732926Y-31446428D01*
X6697212Y-31517857D01*
X6661498Y-31553571D01*
X6590069Y-31589285D01*
X6447212Y-31589285D01*
X6375783Y-31553571D01*
X6340069Y-31517857D01*
X6304355Y-31446428D01*
%TO.C,TP10*%
X5488095Y-34702380D02*
X4916666Y-34702380D01*
X5202380Y-35702380D02*
X5202380Y-34702380D01*
X4583333Y-35702380D02*
X4583333Y-34702380D01*
X4202380Y-34702380D01*
X4107142Y-34750000D01*
X4059523Y-34797619D01*
X4011904Y-34892857D01*
X4011904Y-35035714D01*
X4059523Y-35130952D01*
X4107142Y-35178571D01*
X4202380Y-35226190D01*
X4583333Y-35226190D01*
X3059523Y-35702380D02*
X3630952Y-35702380D01*
X3345238Y-35702380D02*
X3345238Y-34702380D01*
X3440476Y-34845238D01*
X3535714Y-34940476D01*
X3630952Y-34988095D01*
X2440476Y-34702380D02*
X2345238Y-34702380D01*
X2250000Y-34750000D01*
X2202380Y-34797619D01*
X2154761Y-34892857D01*
X2107142Y-35083333D01*
X2107142Y-35321428D01*
X2154761Y-35511904D01*
X2202380Y-35607142D01*
X2250000Y-35654761D01*
X2345238Y-35702380D01*
X2440476Y-35702380D01*
X2535714Y-35654761D01*
X2583333Y-35607142D01*
X2630952Y-35511904D01*
X2678571Y-35321428D01*
X2678571Y-35083333D01*
X2630952Y-34892857D01*
X2583333Y-34797619D01*
X2535714Y-34750000D01*
X2440476Y-34702380D01*
%TO.C,U4*%
X19261904Y-23952380D02*
X19261904Y-24761904D01*
X19214285Y-24857142D01*
X19166666Y-24904761D01*
X19071428Y-24952380D01*
X18880952Y-24952380D01*
X18785714Y-24904761D01*
X18738095Y-24857142D01*
X18690476Y-24761904D01*
X18690476Y-23952380D01*
X17785714Y-24285714D02*
X17785714Y-24952380D01*
X18023809Y-23904761D02*
X18261904Y-24619047D01*
X17642857Y-24619047D01*
%TO.C,U3*%
X23511904Y-7952380D02*
X23511904Y-8761904D01*
X23464285Y-8857142D01*
X23416666Y-8904761D01*
X23321428Y-8952380D01*
X23130952Y-8952380D01*
X23035714Y-8904761D01*
X22988095Y-8857142D01*
X22940476Y-8761904D01*
X22940476Y-7952380D01*
X22559523Y-7952380D02*
X21940476Y-7952380D01*
X22273809Y-8333333D01*
X22130952Y-8333333D01*
X22035714Y-8380952D01*
X21988095Y-8428571D01*
X21940476Y-8523809D01*
X21940476Y-8761904D01*
X21988095Y-8857142D01*
X22035714Y-8904761D01*
X22130952Y-8952380D01*
X22416666Y-8952380D01*
X22511904Y-8904761D01*
X22559523Y-8857142D01*
%TO.C,R3*%
X19666666Y-11452380D02*
X20000000Y-10976190D01*
X20238095Y-11452380D02*
X20238095Y-10452380D01*
X19857142Y-10452380D01*
X19761904Y-10500000D01*
X19714285Y-10547619D01*
X19666666Y-10642857D01*
X19666666Y-10785714D01*
X19714285Y-10880952D01*
X19761904Y-10928571D01*
X19857142Y-10976190D01*
X20238095Y-10976190D01*
X19333333Y-10452380D02*
X18714285Y-10452380D01*
X19047619Y-10833333D01*
X18904761Y-10833333D01*
X18809523Y-10880952D01*
X18761904Y-10928571D01*
X18714285Y-11023809D01*
X18714285Y-11261904D01*
X18761904Y-11357142D01*
X18809523Y-11404761D01*
X18904761Y-11452380D01*
X19190476Y-11452380D01*
X19285714Y-11404761D01*
X19333333Y-11357142D01*
D13*
%TO.C,CX1*%
X8267857Y-29517857D02*
X8303571Y-29482142D01*
X8339285Y-29375000D01*
X8339285Y-29303571D01*
X8303571Y-29196428D01*
X8232142Y-29125000D01*
X8160714Y-29089285D01*
X8017857Y-29053571D01*
X7910714Y-29053571D01*
X7767857Y-29089285D01*
X7696428Y-29125000D01*
X7625000Y-29196428D01*
X7589285Y-29303571D01*
X7589285Y-29375000D01*
X7625000Y-29482142D01*
X7660714Y-29517857D01*
X7589285Y-29767857D02*
X8339285Y-30267857D01*
X7589285Y-30267857D02*
X8339285Y-29767857D01*
X8339285Y-30946428D02*
X8339285Y-30517857D01*
X8339285Y-30732142D02*
X7589285Y-30732142D01*
X7696428Y-30660714D01*
X7767857Y-30589285D01*
X7803571Y-30517857D01*
D11*
%TO.C,TP11*%
X9488095Y-38452380D02*
X8916666Y-38452380D01*
X9202380Y-39452380D02*
X9202380Y-38452380D01*
X8583333Y-39452380D02*
X8583333Y-38452380D01*
X8202380Y-38452380D01*
X8107142Y-38500000D01*
X8059523Y-38547619D01*
X8011904Y-38642857D01*
X8011904Y-38785714D01*
X8059523Y-38880952D01*
X8107142Y-38928571D01*
X8202380Y-38976190D01*
X8583333Y-38976190D01*
X7059523Y-39452380D02*
X7630952Y-39452380D01*
X7345238Y-39452380D02*
X7345238Y-38452380D01*
X7440476Y-38595238D01*
X7535714Y-38690476D01*
X7630952Y-38738095D01*
X6107142Y-39452380D02*
X6678571Y-39452380D01*
X6392857Y-39452380D02*
X6392857Y-38452380D01*
X6488095Y-38595238D01*
X6583333Y-38690476D01*
X6678571Y-38738095D01*
%TO.C,TP8*%
X13511904Y-18202380D02*
X12940476Y-18202380D01*
X13226190Y-19202380D02*
X13226190Y-18202380D01*
X12607142Y-19202380D02*
X12607142Y-18202380D01*
X12226190Y-18202380D01*
X12130952Y-18250000D01*
X12083333Y-18297619D01*
X12035714Y-18392857D01*
X12035714Y-18535714D01*
X12083333Y-18630952D01*
X12130952Y-18678571D01*
X12226190Y-18726190D01*
X12607142Y-18726190D01*
X11464285Y-18630952D02*
X11559523Y-18583333D01*
X11607142Y-18535714D01*
X11654761Y-18440476D01*
X11654761Y-18392857D01*
X11607142Y-18297619D01*
X11559523Y-18250000D01*
X11464285Y-18202380D01*
X11273809Y-18202380D01*
X11178571Y-18250000D01*
X11130952Y-18297619D01*
X11083333Y-18392857D01*
X11083333Y-18440476D01*
X11130952Y-18535714D01*
X11178571Y-18583333D01*
X11273809Y-18630952D01*
X11464285Y-18630952D01*
X11559523Y-18678571D01*
X11607142Y-18726190D01*
X11654761Y-18821428D01*
X11654761Y-19011904D01*
X11607142Y-19107142D01*
X11559523Y-19154761D01*
X11464285Y-19202380D01*
X11273809Y-19202380D01*
X11178571Y-19154761D01*
X11130952Y-19107142D01*
X11083333Y-19011904D01*
X11083333Y-18821428D01*
X11130952Y-18726190D01*
X11178571Y-18678571D01*
X11273809Y-18630952D01*
%TO.C,C1*%
X27416666Y-14107142D02*
X27464285Y-14154761D01*
X27607142Y-14202380D01*
X27702380Y-14202380D01*
X27845238Y-14154761D01*
X27940476Y-14059523D01*
X27988095Y-13964285D01*
X28035714Y-13773809D01*
X28035714Y-13630952D01*
X27988095Y-13440476D01*
X27940476Y-13345238D01*
X27845238Y-13250000D01*
X27702380Y-13202380D01*
X27607142Y-13202380D01*
X27464285Y-13250000D01*
X27416666Y-13297619D01*
X26464285Y-14202380D02*
X27035714Y-14202380D01*
X26750000Y-14202380D02*
X26750000Y-13202380D01*
X26845238Y-13345238D01*
X26940476Y-13440476D01*
X27035714Y-13488095D01*
%TO.C,TP2*%
X20261904Y-20952380D02*
X19690476Y-20952380D01*
X19976190Y-21952380D02*
X19976190Y-20952380D01*
X19357142Y-21952380D02*
X19357142Y-20952380D01*
X18976190Y-20952380D01*
X18880952Y-21000000D01*
X18833333Y-21047619D01*
X18785714Y-21142857D01*
X18785714Y-21285714D01*
X18833333Y-21380952D01*
X18880952Y-21428571D01*
X18976190Y-21476190D01*
X19357142Y-21476190D01*
X18404761Y-21047619D02*
X18357142Y-21000000D01*
X18261904Y-20952380D01*
X18023809Y-20952380D01*
X17928571Y-21000000D01*
X17880952Y-21047619D01*
X17833333Y-21142857D01*
X17833333Y-21238095D01*
X17880952Y-21380952D01*
X18452380Y-21952380D01*
X17833333Y-21952380D01*
%TO.C,R10*%
X25892857Y-16622380D02*
X26226190Y-16146190D01*
X26464285Y-16622380D02*
X26464285Y-15622380D01*
X26083333Y-15622380D01*
X25988095Y-15670000D01*
X25940476Y-15717619D01*
X25892857Y-15812857D01*
X25892857Y-15955714D01*
X25940476Y-16050952D01*
X25988095Y-16098571D01*
X26083333Y-16146190D01*
X26464285Y-16146190D01*
X24940476Y-16622380D02*
X25511904Y-16622380D01*
X25226190Y-16622380D02*
X25226190Y-15622380D01*
X25321428Y-15765238D01*
X25416666Y-15860476D01*
X25511904Y-15908095D01*
X24321428Y-15622380D02*
X24226190Y-15622380D01*
X24130952Y-15670000D01*
X24083333Y-15717619D01*
X24035714Y-15812857D01*
X23988095Y-16003333D01*
X23988095Y-16241428D01*
X24035714Y-16431904D01*
X24083333Y-16527142D01*
X24130952Y-16574761D01*
X24226190Y-16622380D01*
X24321428Y-16622380D01*
X24416666Y-16574761D01*
X24464285Y-16527142D01*
X24511904Y-16431904D01*
X24559523Y-16241428D01*
X24559523Y-16003333D01*
X24511904Y-15812857D01*
X24464285Y-15717619D01*
X24416666Y-15670000D01*
X24321428Y-15622380D01*
D13*
%TO.C,TP7*%
X10696428Y-23839285D02*
X10267857Y-23839285D01*
X10482142Y-24589285D02*
X10482142Y-23839285D01*
X10017857Y-24589285D02*
X10017857Y-23839285D01*
X9732142Y-23839285D01*
X9660714Y-23875000D01*
X9625000Y-23910714D01*
X9589285Y-23982142D01*
X9589285Y-24089285D01*
X9625000Y-24160714D01*
X9660714Y-24196428D01*
X9732142Y-24232142D01*
X10017857Y-24232142D01*
X9339285Y-23839285D02*
X8839285Y-23839285D01*
X9160714Y-24589285D01*
D11*
%TO.C,J2*%
X39333561Y-1452005D02*
X39333561Y-2166780D01*
X39381213Y-2309735D01*
X39476516Y-2405039D01*
X39619471Y-2452690D01*
X39714775Y-2452690D01*
X38904696Y-1547309D02*
X38857045Y-1499657D01*
X38761741Y-1452005D01*
X38523483Y-1452005D01*
X38428180Y-1499657D01*
X38380528Y-1547309D01*
X38332876Y-1642612D01*
X38332876Y-1737915D01*
X38380528Y-1880870D01*
X38952348Y-2452690D01*
X38332876Y-2452690D01*
%TO.C,Y1*%
X1726190Y-21476190D02*
X1726190Y-21952380D01*
X2059523Y-20952380D02*
X1726190Y-21476190D01*
X1392857Y-20952380D01*
X535714Y-21952380D02*
X1107142Y-21952380D01*
X821428Y-21952380D02*
X821428Y-20952380D01*
X916666Y-21095238D01*
X1011904Y-21190476D01*
X1107142Y-21238095D01*
%TO.C,TP13*%
X5488095Y-42202380D02*
X4916666Y-42202380D01*
X5202380Y-43202380D02*
X5202380Y-42202380D01*
X4583333Y-43202380D02*
X4583333Y-42202380D01*
X4202380Y-42202380D01*
X4107142Y-42250000D01*
X4059523Y-42297619D01*
X4011904Y-42392857D01*
X4011904Y-42535714D01*
X4059523Y-42630952D01*
X4107142Y-42678571D01*
X4202380Y-42726190D01*
X4583333Y-42726190D01*
X3059523Y-43202380D02*
X3630952Y-43202380D01*
X3345238Y-43202380D02*
X3345238Y-42202380D01*
X3440476Y-42345238D01*
X3535714Y-42440476D01*
X3630952Y-42488095D01*
X2726190Y-42202380D02*
X2107142Y-42202380D01*
X2440476Y-42583333D01*
X2297619Y-42583333D01*
X2202380Y-42630952D01*
X2154761Y-42678571D01*
X2107142Y-42773809D01*
X2107142Y-43011904D01*
X2154761Y-43107142D01*
X2202380Y-43154761D01*
X2297619Y-43202380D01*
X2583333Y-43202380D01*
X2678571Y-43154761D01*
X2726190Y-43107142D01*
%TO.C,R9*%
X1916666Y-26769880D02*
X2250000Y-26293690D01*
X2488095Y-26769880D02*
X2488095Y-25769880D01*
X2107142Y-25769880D01*
X2011904Y-25817500D01*
X1964285Y-25865119D01*
X1916666Y-25960357D01*
X1916666Y-26103214D01*
X1964285Y-26198452D01*
X2011904Y-26246071D01*
X2107142Y-26293690D01*
X2488095Y-26293690D01*
X1440476Y-26769880D02*
X1250000Y-26769880D01*
X1154761Y-26722261D01*
X1107142Y-26674642D01*
X1011904Y-26531785D01*
X964285Y-26341309D01*
X964285Y-25960357D01*
X1011904Y-25865119D01*
X1059523Y-25817500D01*
X1154761Y-25769880D01*
X1345238Y-25769880D01*
X1440476Y-25817500D01*
X1488095Y-25865119D01*
X1535714Y-25960357D01*
X1535714Y-26198452D01*
X1488095Y-26293690D01*
X1440476Y-26341309D01*
X1345238Y-26388928D01*
X1154761Y-26388928D01*
X1059523Y-26341309D01*
X1011904Y-26293690D01*
X964285Y-26198452D01*
%TO.C,TP12*%
X5488095Y-38452380D02*
X4916666Y-38452380D01*
X5202380Y-39452380D02*
X5202380Y-38452380D01*
X4583333Y-39452380D02*
X4583333Y-38452380D01*
X4202380Y-38452380D01*
X4107142Y-38500000D01*
X4059523Y-38547619D01*
X4011904Y-38642857D01*
X4011904Y-38785714D01*
X4059523Y-38880952D01*
X4107142Y-38928571D01*
X4202380Y-38976190D01*
X4583333Y-38976190D01*
X3059523Y-39452380D02*
X3630952Y-39452380D01*
X3345238Y-39452380D02*
X3345238Y-38452380D01*
X3440476Y-38595238D01*
X3535714Y-38690476D01*
X3630952Y-38738095D01*
X2678571Y-38547619D02*
X2630952Y-38500000D01*
X2535714Y-38452380D01*
X2297619Y-38452380D01*
X2202380Y-38500000D01*
X2154761Y-38547619D01*
X2107142Y-38642857D01*
X2107142Y-38738095D01*
X2154761Y-38880952D01*
X2726190Y-39452380D01*
X2107142Y-39452380D01*
%TO.C,TP6*%
X14761904Y-15702380D02*
X14190476Y-15702380D01*
X14476190Y-16702380D02*
X14476190Y-15702380D01*
X13857142Y-16702380D02*
X13857142Y-15702380D01*
X13476190Y-15702380D01*
X13380952Y-15750000D01*
X13333333Y-15797619D01*
X13285714Y-15892857D01*
X13285714Y-16035714D01*
X13333333Y-16130952D01*
X13380952Y-16178571D01*
X13476190Y-16226190D01*
X13857142Y-16226190D01*
X12428571Y-15702380D02*
X12619047Y-15702380D01*
X12714285Y-15750000D01*
X12761904Y-15797619D01*
X12857142Y-15940476D01*
X12904761Y-16130952D01*
X12904761Y-16511904D01*
X12857142Y-16607142D01*
X12809523Y-16654761D01*
X12714285Y-16702380D01*
X12523809Y-16702380D01*
X12428571Y-16654761D01*
X12380952Y-16607142D01*
X12333333Y-16511904D01*
X12333333Y-16273809D01*
X12380952Y-16178571D01*
X12428571Y-16130952D01*
X12523809Y-16083333D01*
X12714285Y-16083333D01*
X12809523Y-16130952D01*
X12857142Y-16178571D01*
X12904761Y-16273809D01*
%TO.C,C6*%
X33416666Y-24857142D02*
X33464285Y-24904761D01*
X33607142Y-24952380D01*
X33702380Y-24952380D01*
X33845238Y-24904761D01*
X33940476Y-24809523D01*
X33988095Y-24714285D01*
X34035714Y-24523809D01*
X34035714Y-24380952D01*
X33988095Y-24190476D01*
X33940476Y-24095238D01*
X33845238Y-24000000D01*
X33702380Y-23952380D01*
X33607142Y-23952380D01*
X33464285Y-24000000D01*
X33416666Y-24047619D01*
X32559523Y-23952380D02*
X32750000Y-23952380D01*
X32845238Y-24000000D01*
X32892857Y-24047619D01*
X32988095Y-24190476D01*
X33035714Y-24380952D01*
X33035714Y-24761904D01*
X32988095Y-24857142D01*
X32940476Y-24904761D01*
X32845238Y-24952380D01*
X32654761Y-24952380D01*
X32559523Y-24904761D01*
X32511904Y-24857142D01*
X32464285Y-24761904D01*
X32464285Y-24523809D01*
X32511904Y-24428571D01*
X32559523Y-24380952D01*
X32654761Y-24333333D01*
X32845238Y-24333333D01*
X32940476Y-24380952D01*
X32988095Y-24428571D01*
X33035714Y-24523809D01*
%TO.C,U7*%
X30761904Y-22452380D02*
X30761904Y-23261904D01*
X30714285Y-23357142D01*
X30666666Y-23404761D01*
X30571428Y-23452380D01*
X30380952Y-23452380D01*
X30285714Y-23404761D01*
X30238095Y-23357142D01*
X30190476Y-23261904D01*
X30190476Y-22452380D01*
X29809523Y-22452380D02*
X29142857Y-22452380D01*
X29571428Y-23452380D01*
X27575000Y-22175959D02*
X27575000Y-22414055D01*
X27813095Y-22318817D02*
X27575000Y-22414055D01*
X27336904Y-22318817D01*
X27717857Y-22604531D02*
X27575000Y-22414055D01*
X27432142Y-22604531D01*
X27575000Y-23271198D02*
X27575000Y-23033102D01*
X27336904Y-23128340D02*
X27575000Y-23033102D01*
X27813095Y-23128340D01*
X27432142Y-22842626D02*
X27575000Y-23033102D01*
X27717857Y-22842626D01*
D13*
%TO.C,C3*%
X9875000Y-27017857D02*
X9910714Y-27053571D01*
X10017857Y-27089285D01*
X10089285Y-27089285D01*
X10196428Y-27053571D01*
X10267857Y-26982142D01*
X10303571Y-26910714D01*
X10339285Y-26767857D01*
X10339285Y-26660714D01*
X10303571Y-26517857D01*
X10267857Y-26446428D01*
X10196428Y-26375000D01*
X10089285Y-26339285D01*
X10017857Y-26339285D01*
X9910714Y-26375000D01*
X9875000Y-26410714D01*
X9625000Y-26339285D02*
X9160714Y-26339285D01*
X9410714Y-26625000D01*
X9303571Y-26625000D01*
X9232142Y-26660714D01*
X9196428Y-26696428D01*
X9160714Y-26767857D01*
X9160714Y-26946428D01*
X9196428Y-27017857D01*
X9232142Y-27053571D01*
X9303571Y-27089285D01*
X9517857Y-27089285D01*
X9589285Y-27053571D01*
X9625000Y-27017857D01*
%TO.C,R5*%
X10125000Y-22839285D02*
X10375000Y-22482142D01*
X10553571Y-22839285D02*
X10553571Y-22089285D01*
X10267857Y-22089285D01*
X10196428Y-22125000D01*
X10160714Y-22160714D01*
X10125000Y-22232142D01*
X10125000Y-22339285D01*
X10160714Y-22410714D01*
X10196428Y-22446428D01*
X10267857Y-22482142D01*
X10553571Y-22482142D01*
X9446428Y-22089285D02*
X9803571Y-22089285D01*
X9839285Y-22446428D01*
X9803571Y-22410714D01*
X9732142Y-22375000D01*
X9553571Y-22375000D01*
X9482142Y-22410714D01*
X9446428Y-22446428D01*
X9410714Y-22517857D01*
X9410714Y-22696428D01*
X9446428Y-22767857D01*
X9482142Y-22803571D01*
X9553571Y-22839285D01*
X9732142Y-22839285D01*
X9803571Y-22803571D01*
X9839285Y-22767857D01*
D11*
%TO.C,J5*%
X32833333Y-26452380D02*
X32833333Y-27166666D01*
X32880952Y-27309523D01*
X32976190Y-27404761D01*
X33119047Y-27452380D01*
X33214285Y-27452380D01*
X31880952Y-26452380D02*
X32357142Y-26452380D01*
X32404761Y-26928571D01*
X32357142Y-26880952D01*
X32261904Y-26833333D01*
X32023809Y-26833333D01*
X31928571Y-26880952D01*
X31880952Y-26928571D01*
X31833333Y-27023809D01*
X31833333Y-27261904D01*
X31880952Y-27357142D01*
X31928571Y-27404761D01*
X32023809Y-27452380D01*
X32261904Y-27452380D01*
X32357142Y-27404761D01*
X32404761Y-27357142D01*
X21500000Y-30452380D02*
X21500000Y-30690476D01*
X21738095Y-30595238D02*
X21500000Y-30690476D01*
X21261904Y-30595238D01*
X21642857Y-30880952D02*
X21500000Y-30690476D01*
X21357142Y-30880952D01*
%TO.C,TP3*%
X9511904Y-42202380D02*
X8940476Y-42202380D01*
X9226190Y-43202380D02*
X9226190Y-42202380D01*
X8607142Y-43202380D02*
X8607142Y-42202380D01*
X8226190Y-42202380D01*
X8130952Y-42250000D01*
X8083333Y-42297619D01*
X8035714Y-42392857D01*
X8035714Y-42535714D01*
X8083333Y-42630952D01*
X8130952Y-42678571D01*
X8226190Y-42726190D01*
X8607142Y-42726190D01*
X7702380Y-42202380D02*
X7083333Y-42202380D01*
X7416666Y-42583333D01*
X7273809Y-42583333D01*
X7178571Y-42630952D01*
X7130952Y-42678571D01*
X7083333Y-42773809D01*
X7083333Y-43011904D01*
X7130952Y-43107142D01*
X7178571Y-43154761D01*
X7273809Y-43202380D01*
X7559523Y-43202380D01*
X7654761Y-43154761D01*
X7702380Y-43107142D01*
%TO.C,TP9*%
X9511904Y-34702380D02*
X8940476Y-34702380D01*
X9226190Y-35702380D02*
X9226190Y-34702380D01*
X8607142Y-35702380D02*
X8607142Y-34702380D01*
X8226190Y-34702380D01*
X8130952Y-34750000D01*
X8083333Y-34797619D01*
X8035714Y-34892857D01*
X8035714Y-35035714D01*
X8083333Y-35130952D01*
X8130952Y-35178571D01*
X8226190Y-35226190D01*
X8607142Y-35226190D01*
X7559523Y-35702380D02*
X7369047Y-35702380D01*
X7273809Y-35654761D01*
X7226190Y-35607142D01*
X7130952Y-35464285D01*
X7083333Y-35273809D01*
X7083333Y-34892857D01*
X7130952Y-34797619D01*
X7178571Y-34750000D01*
X7273809Y-34702380D01*
X7464285Y-34702380D01*
X7559523Y-34750000D01*
X7607142Y-34797619D01*
X7654761Y-34892857D01*
X7654761Y-35130952D01*
X7607142Y-35226190D01*
X7559523Y-35273809D01*
X7464285Y-35321428D01*
X7273809Y-35321428D01*
X7178571Y-35273809D01*
X7130952Y-35226190D01*
X7083333Y-35130952D01*
D10*
%TO.C,TP4*%
X11700000Y-13750000D02*
G75*
G03*
X11700000Y-13750000I-700000J0D01*
G01*
%TO.C,R4*%
X14120000Y-21653641D02*
X14120000Y-21346359D01*
X14880000Y-21653641D02*
X14880000Y-21346359D01*
%TO.C,TP1*%
X26700000Y-8250000D02*
G75*
G03*
X26700000Y-8250000I-700000J0D01*
G01*
%TO.C,C4*%
X4390580Y-14010000D02*
X4109420Y-14010000D01*
X4390580Y-12990000D02*
X4109420Y-12990000D01*
D14*
%TO.C,U6*%
X8000000Y-14250000D02*
X8000000Y-12250000D01*
X7450000Y-12250000D02*
X7450000Y-14250000D01*
X7450000Y-14250000D02*
X8000000Y-14250000D01*
X9200000Y-12150000D02*
X8350000Y-12150000D01*
X8000000Y-12250000D02*
X7450000Y-12250000D01*
D10*
%TO.C,C2*%
X19609420Y-26260000D02*
X19890580Y-26260000D01*
X19609420Y-25240000D02*
X19890580Y-25240000D01*
%TO.C,C5*%
X3760000Y-23186920D02*
X3760000Y-23468080D01*
X2740000Y-23186920D02*
X2740000Y-23468080D01*
%TO.C,CX2*%
X4740000Y-26936920D02*
X4740000Y-27218080D01*
X5760000Y-26936920D02*
X5760000Y-27218080D01*
D15*
%TO.C,U5*%
X3500000Y-20500000D02*
X3850000Y-20500000D01*
X8500000Y-15500000D02*
X8500000Y-15850000D01*
X8500000Y-20500000D02*
X8150000Y-20500000D01*
X3500000Y-15500000D02*
X3500000Y-15850000D01*
X8500000Y-15500000D02*
X8150000Y-15500000D01*
X8500000Y-20500000D02*
X8500000Y-20150000D01*
X3500000Y-15500000D02*
X3850000Y-15500000D01*
X3500000Y-20500000D02*
X3500000Y-20150000D01*
D14*
X2805000Y-19760000D02*
G75*
G03*
X2805000Y-19760000I-100000J0D01*
G01*
D10*
%TO.C,TP5*%
X21450000Y-13250000D02*
G75*
G03*
X21450000Y-13250000I-700000J0D01*
G01*
%TO.C,R8*%
X6240000Y-28947500D02*
X6547282Y-28947500D01*
X6240000Y-29707500D02*
X6547282Y-29707500D01*
%TO.C,TP10*%
X5200000Y-37000000D02*
G75*
G03*
X5200000Y-37000000I-700000J0D01*
G01*
%TO.C,U4*%
X17074800Y-23822900D02*
X17074800Y-25677100D01*
X15891160Y-25677100D02*
X15108840Y-25677100D01*
X13925200Y-25677100D02*
X13925200Y-23822900D01*
%TO.C,U3*%
X23750000Y-9440000D02*
X25550000Y-9440000D01*
X23750000Y-9440000D02*
X22950000Y-9440000D01*
X23750000Y-12560000D02*
X24550000Y-12560000D01*
X23750000Y-12560000D02*
X22950000Y-12560000D01*
%TO.C,R3*%
X20620000Y-10846359D02*
X20620000Y-11153641D01*
X21380000Y-10846359D02*
X21380000Y-11153641D01*
%TO.C,CX1*%
X7240000Y-26936920D02*
X7240000Y-27218080D01*
X8260000Y-26936920D02*
X8260000Y-27218080D01*
%TO.C,TP11*%
X7950000Y-40750000D02*
G75*
G03*
X7950000Y-40750000I-700000J0D01*
G01*
%TO.C,TP8*%
X12700000Y-20500000D02*
G75*
G03*
X12700000Y-20500000I-700000J0D01*
G01*
%TO.C,C1*%
X26515000Y-10738748D02*
X26515000Y-11261252D01*
X27985000Y-10738748D02*
X27985000Y-11261252D01*
%TO.C,TP2*%
X17200000Y-21500000D02*
G75*
G03*
X17200000Y-21500000I-700000J0D01*
G01*
%TO.C,R10*%
X25096359Y-14620000D02*
X25403641Y-14620000D01*
X25096359Y-15380000D02*
X25403641Y-15380000D01*
%TO.C,TP7*%
X12700000Y-24250000D02*
G75*
G03*
X12700000Y-24250000I-700000J0D01*
G01*
D15*
%TO.C,J2*%
X28725000Y-15876000D02*
X28725000Y-14874000D01*
X40075000Y-16550000D02*
X37175000Y-16550000D01*
X34175000Y-16550000D02*
X32075000Y-16550000D01*
X28725000Y-9126000D02*
X28725000Y-4124000D01*
X42775000Y-16550000D02*
X42775000Y-3450000D01*
D14*
X43325000Y-12380000D02*
G75*
G03*
X43325000Y-12380000I-100000J0D01*
G01*
D15*
%TO.C,Y1*%
X6130000Y-22227500D02*
X6670000Y-22227500D01*
X6670000Y-24727500D02*
X6130000Y-24727500D01*
D14*
X4150000Y-22507500D02*
G75*
G03*
X4150000Y-22507500I-100000J0D01*
G01*
D10*
%TO.C,TP13*%
X5200000Y-44250000D02*
G75*
G03*
X5200000Y-44250000I-700000J0D01*
G01*
%TO.C,R9*%
X2870000Y-26163859D02*
X2870000Y-26471141D01*
X3630000Y-26163859D02*
X3630000Y-26471141D01*
%TO.C,TP12*%
X5200000Y-40750000D02*
G75*
G03*
X5200000Y-40750000I-700000J0D01*
G01*
%TO.C,TP6*%
X11700000Y-16250000D02*
G75*
G03*
X11700000Y-16250000I-700000J0D01*
G01*
%TO.C,C6*%
X33390580Y-23510000D02*
X33109420Y-23510000D01*
X33390580Y-22490000D02*
X33109420Y-22490000D01*
D16*
%TO.C,U7*%
X33124900Y-18573600D02*
X33124900Y-18764481D01*
X33124900Y-21735519D02*
X33124900Y-21926400D01*
X33124900Y-21926400D02*
X28375100Y-21926400D01*
X28375100Y-18764481D02*
X28375100Y-18573600D01*
X28375100Y-18573600D02*
X33124900Y-18573600D01*
X28375100Y-21926400D02*
X28375100Y-21735519D01*
D10*
%TO.C,C3*%
X12140580Y-26140000D02*
X11859420Y-26140000D01*
X12140580Y-27160000D02*
X11859420Y-27160000D01*
%TO.C,R5*%
X12153641Y-22900000D02*
X11846359Y-22900000D01*
X12153641Y-22140000D02*
X11846359Y-22140000D01*
%TO.C,J5*%
X33679300Y-34162299D02*
X9320700Y-34162299D01*
X9320700Y-30254959D02*
X9320700Y-27837700D01*
X33679300Y-27837700D02*
X33679300Y-30254959D01*
X33679300Y-33714439D02*
X33679300Y-34162299D01*
X9320700Y-34162299D02*
X9320700Y-33714439D01*
X9320700Y-27837700D02*
X33679300Y-27837700D01*
X35838300Y-28904700D02*
G75*
G03*
X35838300Y-28904700I-381000J0D01*
G01*
%TO.C,TP3*%
X7950000Y-44250000D02*
G75*
G03*
X7950000Y-44250000I-700000J0D01*
G01*
%TO.C,TP9*%
X7950000Y-37000000D02*
G75*
G03*
X7950000Y-37000000I-700000J0D01*
G01*
%TD*%
M02*
