M48
; DRILL file {KiCad 6.0.11-2627ca5db0~126~ubuntu22.04.1} date Fri 14 Jul 2023 06:04:02 PM PDT
; FORMAT={-:-/ absolute / inch / decimal}
; #@! TF.CreationDate,2023-07-14T18:04:02-07:00
; #@! TF.GenerationSoftware,Kicad,Pcbnew,6.0.11-2627ca5db0~126~ubuntu22.04.1
; #@! TF.FileFunction,Plated,1,4,PTH
FMAT,2
INCH
; #@! TA.AperFunction,Plated,PTH,ViaDrill
T1C0.0079
; #@! TA.AperFunction,Plated,PTH,ComponentDrill
T2C0.0157
; #@! TA.AperFunction,Plated,PTH,ComponentDrill
T3C0.0256
%
G90
G05
T1
X0.0886Y-0.7087
X0.1476Y-0.8268
X0.1772Y-1.7913
X0.1969Y-0.1969
X0.1969Y-0.3937
X0.1969Y-1.7717
X0.1969Y-1.9685
X0.1969Y-2.1654
X0.1969Y-2.3622
X0.2067Y-1.3583
X0.2165Y-0.5807
X0.2264Y-1.6043
X0.2657Y-0.4724
X0.2657Y-0.5807
X0.2756Y-1.3681
X0.2854Y-1.7913
X0.2854Y-2.3917
X0.2953Y-0.5807
X0.3642Y-0.7087
X0.3642Y-0.748
X0.374Y-0.5217
X0.3937Y-0.1969
X0.3937Y-0.3937
X0.3937Y-1.5748
X0.3937Y-2.3622
X0.4043Y-2.245
X0.4232Y-2.3917
X0.5118Y-1.1811
X0.5118Y-1.2008
X0.5118Y-1.2205
X0.5906Y-0.1969
X0.5906Y-0.3937
X0.5906Y-0.5906
X0.5906Y-0.7874
X0.5906Y-1.7717
X0.5906Y-2.3622
X0.5913Y-2.2638
X0.6102Y-0.8661
X0.6594Y-1.2894
X0.6693Y-0.9154
X0.6693Y-1.0138
X0.6791Y-1.3091
X0.689Y-0.9154
X0.689Y-1.0138
X0.6988Y-1.3287
X0.7087Y-0.9154
X0.7087Y-1.0138
X0.7185Y-1.565
X0.7382Y-1.5256
X0.7579Y-1.5453
X0.7776Y-1.2303
X0.7874Y-0.1969
X0.7874Y-0.3937
X0.7874Y-0.5906
X0.7874Y-0.7874
X0.7874Y-1.9685
X0.7972Y-1.2598
X0.7972Y-2.2441
X0.7972Y-2.3622
X0.8169Y-1.4862
X0.8177Y-2.2244
X0.8366Y-1.2106
X0.8366Y-2.372
X0.8432Y-2.2341
X0.8563Y-1.1909
X0.8661Y-2.372
X0.8687Y-2.2269
X0.876Y-1.5059
X0.8858Y-0.3642
X0.8957Y-0.502
X0.8957Y-1.4665
X0.8957Y-2.2441
X0.8957Y-2.3622
X0.9154Y-1.4469
X0.935Y-1.3484
X0.9449Y-0.5906
X0.9547Y-1.4272
X0.9646Y-1.8701
X0.9744Y-1.378
X0.9843Y-0.1969
X0.9843Y-0.7874
X0.9843Y-1.7717
X0.9843Y-1.8898
X0.9941Y-1.0925
X1.0138Y-1.4075
X1.0335Y-1.5846
X1.0433Y-0.5906
X1.0728Y-0.3642
X1.0925Y-1.0925
X1.1008Y-2.2835
X1.1122Y-1.0925
X1.1811Y-0.1969
X1.1811Y-0.3937
X1.1811Y-0.7874
X1.1811Y-1.7717
X1.1811Y-1.9685
X1.1811Y-2.3622
X1.3256Y-0.8594
X1.3583Y-1.0081
X1.378Y-0.1969
X1.378Y-0.3937
X1.378Y-1.5748
X1.378Y-1.7717
X1.378Y-1.9685
X1.3868Y-0.7844
X1.4049Y-1.1195
X1.4173Y-0.7087
X1.4173Y-0.7283
X1.4173Y-0.7579
X1.4173Y-0.8071
X1.4173Y-0.935
X1.4173Y-2.185
X1.4173Y-2.2047
X1.4173Y-2.2244
X1.4174Y-1.0531
X1.4248Y-1.25
X1.4567Y-0.5413
X1.4862Y-0.4035
X1.4862Y-0.9154
X1.4862Y-1.0335
X1.4862Y-1.0728
X1.4862Y-1.1811
X1.4961Y-2.185
X1.4961Y-2.2047
X1.4961Y-2.2244
X1.5059Y-1.2402
X1.5157Y-0.4331
X1.5157Y-0.502
X1.5157Y-0.8563
X1.5157Y-0.9941
X1.5157Y-1.1319
X1.5354Y-0.6398
X1.5354Y-1.2205
X1.5453Y-0.3543
X1.5453Y-0.4724
X1.5453Y-0.7087
X1.5453Y-0.748
X1.5453Y-0.7776
X1.5453Y-0.8071
X1.5453Y-0.8465
X1.5453Y-0.8957
X1.5453Y-0.9252
X1.5453Y-1.0335
X1.5453Y-1.0827
X1.5453Y-1.1713
X1.565Y-0.4035
X1.5748Y-1.5748
X1.5748Y-1.7717
X1.5748Y-1.9685
X1.5748Y-2.1654
X1.5748Y-2.3622
X1.5839Y-0.5118
X1.5846Y-0.4528
X1.5945Y-0.374
X1.6039Y-0.9748
X1.6043Y-0.7185
X1.6043Y-0.7579
X1.6043Y-0.7972
X1.6043Y-1.0138
X1.6043Y-1.0728
X1.6043Y-1.1071
X1.6043Y-1.1516
X1.6043Y-1.1909
X1.6043Y-1.2303
X1.6075Y-0.8661
X1.6535Y-0.9484
T2
G00X0.6909Y-2.3031
M15
G01X0.7067Y-2.3031
M16
G05
G00X0.9862Y-2.3031
M15
G01X1.002Y-2.3031
M16
G05
T3
G00X0.7165Y-2.2185
M15
G01X0.7323Y-2.2185
M16
G05
G00X0.7165Y-2.3878
M15
G01X0.7323Y-2.3878
M16
G05
G00X0.9606Y-2.2185
M15
G01X0.9764Y-2.2185
M16
G05
G00X0.9606Y-2.3878
M15
G01X0.9764Y-2.3878
M16
G05
T0
M30
