%TF.GenerationSoftware,KiCad,Pcbnew,6.0.11-2627ca5db0~126~ubuntu22.04.1*%
%TF.CreationDate,2023-07-14T18:54:46-07:00*%
%TF.ProjectId,small-display,736d616c-6c2d-4646-9973-706c61792e6b,rev?*%
%TF.SameCoordinates,Original*%
%TF.FileFunction,Legend,Top*%
%TF.FilePolarity,Positive*%
%FSLAX46Y46*%
G04 Gerber Fmt 4.6, Leading zero omitted, Abs format (unit mm)*
G04 Created by KiCad (PCBNEW 6.0.11-2627ca5db0~126~ubuntu22.04.1) date 2023-07-14 18:54:46*
%MOMM*%
%LPD*%
G01*
G04 APERTURE LIST*
%ADD10C,0.120000*%
%ADD11C,0.150000*%
%ADD12C,0.050000*%
%ADD13C,0.127000*%
%ADD14C,0.200000*%
%ADD15C,0.300000*%
G04 APERTURE END LIST*
D10*
X8000000Y-56000000D02*
G75*
G03*
X8000000Y-56000000I-250000J0D01*
G01*
X30750000Y-56000000D02*
G75*
G03*
X30750000Y-56000000I-250000J0D01*
G01*
D11*
%TO.C,R1*%
X4583333Y-57716130D02*
X4250000Y-57239940D01*
X4011904Y-57716130D02*
X4011904Y-56716130D01*
X4392857Y-56716130D01*
X4488095Y-56763750D01*
X4535714Y-56811369D01*
X4583333Y-56906607D01*
X4583333Y-57049464D01*
X4535714Y-57144702D01*
X4488095Y-57192321D01*
X4392857Y-57239940D01*
X4011904Y-57239940D01*
X5535714Y-57716130D02*
X4964285Y-57716130D01*
X5250000Y-57716130D02*
X5250000Y-56716130D01*
X5154761Y-56858988D01*
X5059523Y-56954226D01*
X4964285Y-57001845D01*
%TO.C,R6*%
X27833333Y-61202380D02*
X27500000Y-60726190D01*
X27261904Y-61202380D02*
X27261904Y-60202380D01*
X27642857Y-60202380D01*
X27738095Y-60250000D01*
X27785714Y-60297619D01*
X27833333Y-60392857D01*
X27833333Y-60535714D01*
X27785714Y-60630952D01*
X27738095Y-60678571D01*
X27642857Y-60726190D01*
X27261904Y-60726190D01*
X28690476Y-60202380D02*
X28500000Y-60202380D01*
X28404761Y-60250000D01*
X28357142Y-60297619D01*
X28261904Y-60440476D01*
X28214285Y-60630952D01*
X28214285Y-61011904D01*
X28261904Y-61107142D01*
X28309523Y-61154761D01*
X28404761Y-61202380D01*
X28595238Y-61202380D01*
X28690476Y-61154761D01*
X28738095Y-61107142D01*
X28785714Y-61011904D01*
X28785714Y-60773809D01*
X28738095Y-60678571D01*
X28690476Y-60630952D01*
X28595238Y-60583333D01*
X28404761Y-60583333D01*
X28309523Y-60630952D01*
X28261904Y-60678571D01*
X28214285Y-60773809D01*
%TO.C,J1*%
X21166666Y-54202380D02*
X21166666Y-54916666D01*
X21119047Y-55059523D01*
X21023809Y-55154761D01*
X20880952Y-55202380D01*
X20785714Y-55202380D01*
X22166666Y-55202380D02*
X21595238Y-55202380D01*
X21880952Y-55202380D02*
X21880952Y-54202380D01*
X21785714Y-54345238D01*
X21690476Y-54440476D01*
X21595238Y-54488095D01*
%TO.C,U2*%
X7988095Y-54202380D02*
X7988095Y-55011904D01*
X8035714Y-55107142D01*
X8083333Y-55154761D01*
X8178571Y-55202380D01*
X8369047Y-55202380D01*
X8464285Y-55154761D01*
X8511904Y-55107142D01*
X8559523Y-55011904D01*
X8559523Y-54202380D01*
X8988095Y-54297619D02*
X9035714Y-54250000D01*
X9130952Y-54202380D01*
X9369047Y-54202380D01*
X9464285Y-54250000D01*
X9511904Y-54297619D01*
X9559523Y-54392857D01*
X9559523Y-54488095D01*
X9511904Y-54630952D01*
X8940476Y-55202380D01*
X9559523Y-55202380D01*
%TO.C,R7*%
X14833333Y-60702380D02*
X14500000Y-60226190D01*
X14261904Y-60702380D02*
X14261904Y-59702380D01*
X14642857Y-59702380D01*
X14738095Y-59750000D01*
X14785714Y-59797619D01*
X14833333Y-59892857D01*
X14833333Y-60035714D01*
X14785714Y-60130952D01*
X14738095Y-60178571D01*
X14642857Y-60226190D01*
X14261904Y-60226190D01*
X15166666Y-59702380D02*
X15833333Y-59702380D01*
X15404761Y-60702380D01*
%TO.C,U1*%
X30988095Y-56220670D02*
X30988095Y-57030194D01*
X31035714Y-57125432D01*
X31083333Y-57173051D01*
X31178571Y-57220670D01*
X31369047Y-57220670D01*
X31464285Y-57173051D01*
X31511904Y-57125432D01*
X31559523Y-57030194D01*
X31559523Y-56220670D01*
X32559523Y-57220670D02*
X31988095Y-57220670D01*
X32273809Y-57220670D02*
X32273809Y-56220670D01*
X32178571Y-56363528D01*
X32083333Y-56458766D01*
X31988095Y-56506385D01*
%TO.C,D2*%
X9011904Y-60476130D02*
X9011904Y-59476130D01*
X9250000Y-59476130D01*
X9392857Y-59523750D01*
X9488095Y-59618988D01*
X9535714Y-59714226D01*
X9583333Y-59904702D01*
X9583333Y-60047559D01*
X9535714Y-60238035D01*
X9488095Y-60333273D01*
X9392857Y-60428511D01*
X9250000Y-60476130D01*
X9011904Y-60476130D01*
X9964285Y-59571369D02*
X10011904Y-59523750D01*
X10107142Y-59476130D01*
X10345238Y-59476130D01*
X10440476Y-59523750D01*
X10488095Y-59571369D01*
X10535714Y-59666607D01*
X10535714Y-59761845D01*
X10488095Y-59904702D01*
X9916666Y-60476130D01*
X10535714Y-60476130D01*
D12*
%TO.C,L1*%
X40583235Y-59452647D02*
X40106763Y-59452647D01*
X40106763Y-58452057D01*
X41440883Y-59452647D02*
X40869117Y-59452647D01*
X41155000Y-59452647D02*
X41155000Y-58452057D01*
X41059706Y-58594999D01*
X40964412Y-58690293D01*
X40869117Y-58737940D01*
D11*
%TO.C,D1*%
X3761904Y-60466130D02*
X3761904Y-59466130D01*
X4000000Y-59466130D01*
X4142857Y-59513750D01*
X4238095Y-59608988D01*
X4285714Y-59704226D01*
X4333333Y-59894702D01*
X4333333Y-60037559D01*
X4285714Y-60228035D01*
X4238095Y-60323273D01*
X4142857Y-60418511D01*
X4000000Y-60466130D01*
X3761904Y-60466130D01*
X5285714Y-60466130D02*
X4714285Y-60466130D01*
X5000000Y-60466130D02*
X5000000Y-59466130D01*
X4904761Y-59608988D01*
X4809523Y-59704226D01*
X4714285Y-59751845D01*
%TO.C,Module1*%
X6642857Y-2452380D02*
X6642857Y-1452380D01*
X6976190Y-2166666D01*
X7309523Y-1452380D01*
X7309523Y-2452380D01*
X7928571Y-2452380D02*
X7833333Y-2404761D01*
X7785714Y-2357142D01*
X7738095Y-2261904D01*
X7738095Y-1976190D01*
X7785714Y-1880952D01*
X7833333Y-1833333D01*
X7928571Y-1785714D01*
X8071428Y-1785714D01*
X8166666Y-1833333D01*
X8214285Y-1880952D01*
X8261904Y-1976190D01*
X8261904Y-2261904D01*
X8214285Y-2357142D01*
X8166666Y-2404761D01*
X8071428Y-2452380D01*
X7928571Y-2452380D01*
X9119047Y-2452380D02*
X9119047Y-1452380D01*
X9119047Y-2404761D02*
X9023809Y-2452380D01*
X8833333Y-2452380D01*
X8738095Y-2404761D01*
X8690476Y-2357142D01*
X8642857Y-2261904D01*
X8642857Y-1976190D01*
X8690476Y-1880952D01*
X8738095Y-1833333D01*
X8833333Y-1785714D01*
X9023809Y-1785714D01*
X9119047Y-1833333D01*
X10023809Y-1785714D02*
X10023809Y-2452380D01*
X9595238Y-1785714D02*
X9595238Y-2309523D01*
X9642857Y-2404761D01*
X9738095Y-2452380D01*
X9880952Y-2452380D01*
X9976190Y-2404761D01*
X10023809Y-2357142D01*
X10642857Y-2452380D02*
X10547619Y-2404761D01*
X10500000Y-2309523D01*
X10500000Y-1452380D01*
X11404761Y-2404761D02*
X11309523Y-2452380D01*
X11119047Y-2452380D01*
X11023809Y-2404761D01*
X10976190Y-2309523D01*
X10976190Y-1928571D01*
X11023809Y-1833333D01*
X11119047Y-1785714D01*
X11309523Y-1785714D01*
X11404761Y-1833333D01*
X11452380Y-1928571D01*
X11452380Y-2023809D01*
X10976190Y-2119047D01*
X12404761Y-2452380D02*
X11833333Y-2452380D01*
X12119047Y-2452380D02*
X12119047Y-1452380D01*
X12023809Y-1595238D01*
X11928571Y-1690476D01*
X11833333Y-1738095D01*
%TO.C,R2*%
X13083333Y-57726130D02*
X12750000Y-57249940D01*
X12511904Y-57726130D02*
X12511904Y-56726130D01*
X12892857Y-56726130D01*
X12988095Y-56773750D01*
X13035714Y-56821369D01*
X13083333Y-56916607D01*
X13083333Y-57059464D01*
X13035714Y-57154702D01*
X12988095Y-57202321D01*
X12892857Y-57249940D01*
X12511904Y-57249940D01*
X13464285Y-56821369D02*
X13511904Y-56773750D01*
X13607142Y-56726130D01*
X13845238Y-56726130D01*
X13940476Y-56773750D01*
X13988095Y-56821369D01*
X14035714Y-56916607D01*
X14035714Y-57011845D01*
X13988095Y-57154702D01*
X13416666Y-57726130D01*
X14035714Y-57726130D01*
D10*
%TO.C,R1*%
X5890000Y-57417391D02*
X5890000Y-57110109D01*
X6650000Y-57417391D02*
X6650000Y-57110109D01*
%TO.C,R6*%
X28340000Y-59153641D02*
X28340000Y-58846359D01*
X27580000Y-59153641D02*
X27580000Y-58846359D01*
D13*
%TO.C,J1*%
X26470000Y-56420000D02*
X26470000Y-60580000D01*
X16950000Y-60580000D02*
X16530000Y-60580000D01*
X26470000Y-60580000D02*
X26050000Y-60580000D01*
X26050000Y-56420000D02*
X26470000Y-56420000D01*
X23150000Y-60580000D02*
X19850000Y-60580000D01*
X16530000Y-56420000D02*
X16950000Y-56420000D01*
X16530000Y-60580000D02*
X16530000Y-56420000D01*
X19850000Y-56420000D02*
X23150000Y-56420000D01*
D14*
X16100000Y-57700000D02*
G75*
G03*
X16100000Y-57700000I-100000J0D01*
G01*
D10*
%TO.C,U2*%
X9470000Y-56613750D02*
X7570000Y-56613750D01*
X8070000Y-58933750D02*
X9470000Y-58933750D01*
%TO.C,R7*%
X14640000Y-58653641D02*
X14640000Y-58346359D01*
X15400000Y-58653641D02*
X15400000Y-58346359D01*
%TO.C,U1*%
X29900000Y-57250000D02*
X29900000Y-55950000D01*
X27100000Y-57250000D02*
X27100000Y-56250000D01*
%TO.C,D2*%
X12505000Y-58538750D02*
X11035000Y-58538750D01*
X12505000Y-60823750D02*
X12505000Y-58538750D01*
X11035000Y-58538750D02*
X11035000Y-60823750D01*
D13*
%TO.C,L1*%
X39500000Y-56500000D02*
X34500000Y-56500000D01*
X39500000Y-56500000D02*
X39500000Y-56800000D01*
X39500000Y-61500000D02*
X39500000Y-61200000D01*
X34500000Y-61500000D02*
X34500000Y-61200000D01*
X34500000Y-56500000D02*
X34500000Y-56800000D01*
X39500000Y-61500000D02*
X34500000Y-61500000D01*
D15*
X40400000Y-61000000D02*
G75*
G03*
X40400000Y-61000000I-150000J0D01*
G01*
D10*
%TO.C,D1*%
X7005000Y-60813750D02*
X7005000Y-58528750D01*
X5535000Y-58528750D02*
X5535000Y-60813750D01*
X7005000Y-58528750D02*
X5535000Y-58528750D01*
%TO.C,Module1*%
X2650000Y-14100000D02*
X2650000Y-15100000D01*
X41500000Y-52000000D02*
X41500000Y-4000000D01*
X2650000Y-36900000D02*
X2650000Y-35900000D01*
X40350000Y-14100000D02*
X36570000Y-14100000D01*
X6430000Y-14100000D02*
X2650000Y-14100000D01*
X6430000Y-36900000D02*
X6430000Y-35900000D01*
X5000000Y-55500000D02*
X38000000Y-55500000D01*
X36570000Y-14100000D02*
X36570000Y-15100000D01*
X6430000Y-36900000D02*
X2650000Y-36900000D01*
X6430000Y-14100000D02*
X6430000Y-15100000D01*
X40350000Y-36900000D02*
X36570000Y-36900000D01*
X40350000Y-14100000D02*
X40350000Y-15100000D01*
X38000000Y-500000D02*
X5000000Y-500000D01*
X1500000Y-4000000D02*
X1500000Y-52000000D01*
X1500000Y-52000000D02*
G75*
G03*
X5000000Y-55500000I3500000J0D01*
G01*
X38000000Y-55500000D02*
G75*
G03*
X41500000Y-52000000I1J3499999D01*
G01*
X41500000Y-4000000D02*
G75*
G03*
X38000000Y-500000I-3499999J1D01*
G01*
X5000000Y-500000D02*
G75*
G03*
X1500000Y-4000000I0J-3500000D01*
G01*
%TO.C,R2*%
X12130000Y-57427391D02*
X12130000Y-57120109D01*
X11370000Y-57427391D02*
X11370000Y-57120109D01*
%TO.C,J5*%
X35838300Y-28904700D02*
G75*
G03*
X35838300Y-28904700I-381000J0D01*
G01*
%TD*%
M02*
