%TF.GenerationSoftware,KiCad,Pcbnew,6.0.11-2627ca5db0~126~ubuntu22.04.1*%
%TF.CreationDate,2023-07-14T18:04:02-07:00*%
%TF.ProjectId,small-display,736d616c-6c2d-4646-9973-706c61792e6b,rev?*%
%TF.SameCoordinates,Original*%
%TF.FileFunction,Drillmap*%
%TF.FilePolarity,Positive*%
%FSLAX45Y45*%
G04 Gerber Fmt 4.5, Leading zero omitted, Abs format (unit mm)*
G04 Created by KiCad (PCBNEW 6.0.11-2627ca5db0~126~ubuntu22.04.1) date 2023-07-14 18:04:02*
%MOMM*%
%LPD*%
G01*
G04 APERTURE LIST*
%ADD10C,0.050000*%
%ADD11C,0.200000*%
G04 APERTURE END LIST*
D10*
X4300000Y-200000D02*
G75*
G03*
X4100000Y0I-200000J0D01*
G01*
X300000Y0D02*
G75*
G03*
X0Y-300000I0J-300000D01*
G01*
X4100000Y-6200000D02*
X200000Y-6200000D01*
X300000Y0D02*
X4100000Y0D01*
X0Y-6000000D02*
X0Y-300000D01*
X4100000Y-6200000D02*
G75*
G03*
X4300000Y-6000000I0J200000D01*
G01*
X0Y-6000000D02*
G75*
G03*
X200000Y-6200000I200000J0D01*
G01*
X4300000Y-200000D02*
X4300000Y-6000000D01*
D11*
X255119Y-6512976D02*
X255119Y-6312976D01*
X302738Y-6312976D01*
X331310Y-6322500D01*
X350357Y-6341548D01*
X359881Y-6360595D01*
X369405Y-6398690D01*
X369405Y-6427262D01*
X359881Y-6465357D01*
X350357Y-6484405D01*
X331310Y-6503452D01*
X302738Y-6512976D01*
X255119Y-6512976D01*
X455119Y-6512976D02*
X455119Y-6379643D01*
X455119Y-6417738D02*
X464643Y-6398690D01*
X474167Y-6389167D01*
X493214Y-6379643D01*
X512262Y-6379643D01*
X578929Y-6512976D02*
X578929Y-6379643D01*
X578929Y-6312976D02*
X569405Y-6322500D01*
X578929Y-6332024D01*
X588452Y-6322500D01*
X578929Y-6312976D01*
X578929Y-6332024D01*
X702738Y-6512976D02*
X683690Y-6503452D01*
X674167Y-6484405D01*
X674167Y-6312976D01*
X807500Y-6512976D02*
X788452Y-6503452D01*
X778928Y-6484405D01*
X778928Y-6312976D01*
X1036071Y-6512976D02*
X1036071Y-6312976D01*
X1102738Y-6455833D01*
X1169405Y-6312976D01*
X1169405Y-6512976D01*
X1350357Y-6512976D02*
X1350357Y-6408214D01*
X1340833Y-6389167D01*
X1321786Y-6379643D01*
X1283690Y-6379643D01*
X1264643Y-6389167D01*
X1350357Y-6503452D02*
X1331310Y-6512976D01*
X1283690Y-6512976D01*
X1264643Y-6503452D01*
X1255119Y-6484405D01*
X1255119Y-6465357D01*
X1264643Y-6446309D01*
X1283690Y-6436786D01*
X1331310Y-6436786D01*
X1350357Y-6427262D01*
X1445595Y-6379643D02*
X1445595Y-6579643D01*
X1445595Y-6389167D02*
X1464643Y-6379643D01*
X1502738Y-6379643D01*
X1521786Y-6389167D01*
X1531309Y-6398690D01*
X1540833Y-6417738D01*
X1540833Y-6474881D01*
X1531309Y-6493928D01*
X1521786Y-6503452D01*
X1502738Y-6512976D01*
X1464643Y-6512976D01*
X1445595Y-6503452D01*
X1626548Y-6493928D02*
X1636071Y-6503452D01*
X1626548Y-6512976D01*
X1617024Y-6503452D01*
X1626548Y-6493928D01*
X1626548Y-6512976D01*
X1626548Y-6389167D02*
X1636071Y-6398690D01*
X1626548Y-6408214D01*
X1617024Y-6398690D01*
X1626548Y-6389167D01*
X1626548Y-6408214D01*
M02*
