%TF.GenerationSoftware,KiCad,Pcbnew,6.0.11-2627ca5db0~126~ubuntu22.04.1*%
%TF.CreationDate,2023-07-13T21:44:08-07:00*%
%TF.ProjectId,small-display,736d616c-6c2d-4646-9973-706c61792e6b,rev?*%
%TF.SameCoordinates,Original*%
%TF.FileFunction,Copper,L2,Inr*%
%TF.FilePolarity,Positive*%
%FSLAX46Y46*%
G04 Gerber Fmt 4.6, Leading zero omitted, Abs format (unit mm)*
G04 Created by KiCad (PCBNEW 6.0.11-2627ca5db0~126~ubuntu22.04.1) date 2023-07-13 21:44:08*
%MOMM*%
%LPD*%
G01*
G04 APERTURE LIST*
%TA.AperFunction,ComponentPad*%
%ADD10O,2.200000X1.100000*%
%TD*%
%TA.AperFunction,ComponentPad*%
%ADD11O,1.400000X0.700000*%
%TD*%
%TA.AperFunction,ViaPad*%
%ADD12C,0.450000*%
%TD*%
%TA.AperFunction,Conductor*%
%ADD13C,0.130000*%
%TD*%
G04 APERTURE END LIST*
D10*
%TO.N,GND*%
%TO.C,J1*%
X18400000Y-56350000D03*
X24600000Y-56350000D03*
D11*
X25250000Y-58500000D03*
D10*
X24600000Y-60650000D03*
X18400000Y-60650000D03*
D11*
X17750000Y-58500000D03*
%TD*%
D12*
%TO.N,PI_nLED_Activity*%
X24500000Y-47500000D03*
X40750000Y-31250000D03*
%TO.N,nPWR_LED*%
X39000000Y-16250000D03*
X25000000Y-48000000D03*
%TO.N,USBD_P*%
X21416586Y-56745411D03*
%TO.N,USBD_N*%
X22000000Y-56750000D03*
X21250000Y-60250000D03*
%TO.N,/SD_PWR*%
X27250000Y-9250000D03*
X40500000Y-9500000D03*
%TO.N,SCL0*%
X35450000Y-19700000D03*
%TO.N,SDA0*%
X36000000Y-19250000D03*
%TO.N,GND*%
X6750000Y-14750000D03*
X37750000Y-10250000D03*
X5750000Y-40750000D03*
X38500000Y-21750000D03*
X39750000Y-10250000D03*
%TO.N,Net-(J1-PadA5)*%
X15020000Y-57500000D03*
X20768323Y-56740838D03*
%TO.N,Net-(J1-PadB5)*%
X22000000Y-60250000D03*
X27960000Y-58000000D03*
%TO.N,SD_DAT2*%
X39250000Y-21500000D03*
%TO.N,SD_DAT3*%
X39250000Y-23500000D03*
X40250000Y-11500000D03*
X40230868Y-12730868D03*
%TO.N,SD_CMD*%
X37750000Y-23250000D03*
%TO.N,SD_CLK*%
X42000000Y-24089380D03*
X38500000Y-13000000D03*
X38500000Y-11500000D03*
%TO.N,SD_DAT0*%
X39250000Y-12250000D03*
X39250000Y-9000000D03*
X39250000Y-22750000D03*
%TO.N,SD_DAT1*%
X40830500Y-22000000D03*
X37000000Y-13750000D03*
%TO.N,SD_PWR_ON*%
X39250000Y-20500000D03*
X22750000Y-12750000D03*
%TO.N,USB2_N*%
X7000000Y-34750000D03*
%TO.N,USB2_P*%
X5250000Y-34500000D03*
%TO.N,+5V*%
X17500000Y-25750000D03*
X40750000Y-19250000D03*
X20250000Y-60000000D03*
X22750000Y-60000000D03*
X39250000Y-19750000D03*
X40750000Y-18250000D03*
X7250000Y-45500000D03*
X20250000Y-57000000D03*
X39250000Y-18000000D03*
X18000000Y-25750000D03*
X17000000Y-25750000D03*
X22750000Y-57000000D03*
X40750000Y-20250000D03*
X39250000Y-19000000D03*
%TO.N,/LED_A*%
X36000000Y-56000000D03*
X36000000Y-55500000D03*
X13000000Y-30500000D03*
X13000000Y-31000000D03*
X13000000Y-30000000D03*
X36000000Y-56500000D03*
%TO.N,GPIO_26_DAT_CMD*%
X37750000Y-31169500D03*
X26250000Y-40250000D03*
%TO.N,GPIO_07_!WRITE*%
X40750000Y-28119500D03*
X25750000Y-35750000D03*
%TO.N,GPIO_08_DB0*%
X24750000Y-35000000D03*
X39250000Y-27500000D03*
%TO.N,GPIO_09_DB1*%
X24250000Y-36250000D03*
X36000000Y-28250000D03*
%TO.N,GPIO_10_DB2*%
X37750000Y-27250000D03*
X23750000Y-34250000D03*
%TO.N,GPIO_11_DB3*%
X23250000Y-36750000D03*
X37750000Y-28750000D03*
%TO.N,GPIO_12_DB4*%
X22750000Y-37250000D03*
X40750000Y-29250000D03*
%TO.N,GPIO_13_DB5*%
X22250000Y-38250000D03*
X37750000Y-30000000D03*
%TO.N,GPIO_14_DB6*%
X21750000Y-30250000D03*
X40740000Y-24760000D03*
%TO.N,GPIO_15_DB7*%
X39250000Y-25250000D03*
X21250000Y-30750000D03*
%TO.N,GPIO_16_DB8*%
X39250000Y-29750000D03*
X20750000Y-37750000D03*
%TO.N,GPIO_17_DB9*%
X20250000Y-32000000D03*
X36000000Y-25580500D03*
%TO.N,GPIO_18_DB10*%
X40750000Y-25750000D03*
X19750000Y-31250000D03*
%TO.N,GPIO_19_DB11*%
X36000000Y-31000000D03*
X19250000Y-39250000D03*
%TO.N,GPIO_20_DB12*%
X40750000Y-30250000D03*
X18750000Y-38750000D03*
%TO.N,GPIO_21_DB13*%
X18250000Y-39750000D03*
X39250000Y-30750000D03*
%TO.N,GPIO_22_DB14*%
X17750000Y-33750000D03*
X36002315Y-26750000D03*
%TO.N,GPIO_23_DB15*%
X17250000Y-33250000D03*
X39250000Y-26250000D03*
%TO.N,GPIO_27_!RESET*%
X37750000Y-26000000D03*
X16750000Y-32750000D03*
%TO.N,GPIO_25_PWM*%
X15500000Y-22000000D03*
X40750000Y-27250000D03*
%TO.N,GPIO_02_USB_!RESET*%
X9500000Y-13250000D03*
X36236607Y-23920500D03*
%TO.N,Net-(L1-Pad1)*%
X17000000Y-23250000D03*
X38000000Y-56000000D03*
X38000000Y-55500000D03*
X38000000Y-56500000D03*
X17500000Y-23250000D03*
X18000000Y-23250000D03*
%TO.N,+3.3V*%
X10750000Y-60750000D03*
X3750000Y-21000000D03*
X4500000Y-45500000D03*
X10270000Y-57023750D03*
X22500000Y-9250000D03*
X36000000Y-20500000D03*
X33671000Y-21829000D03*
X7250000Y-60750000D03*
X28250000Y-27750000D03*
X27750000Y-27750000D03*
X25250000Y-27750000D03*
X7500000Y-14750000D03*
X9250000Y-18000000D03*
X24000000Y-15000000D03*
X6750000Y-12000000D03*
X5500000Y-14750000D03*
X36000000Y-18000000D03*
X2250000Y-18000000D03*
X9250000Y-19000000D03*
X36000000Y-18500000D03*
%TO.N,/nRPIBOOT*%
X26500000Y-15000000D03*
%TD*%
D13*
%TO.N,SD_DAT3*%
X40250000Y-11500000D02*
X40250000Y-12711736D01*
X40250000Y-12711736D02*
X40230868Y-12730868D01*
%TO.N,SD_CLK*%
X38500000Y-11500000D02*
X38500000Y-13000000D01*
%TO.N,SD_DAT0*%
X39250000Y-9000000D02*
X39250000Y-12250000D01*
%TO.N,SD_DAT1*%
X37000000Y-19000000D02*
X37000000Y-13750000D01*
X38920000Y-20920000D02*
X37000000Y-19000000D01*
X40830500Y-22000000D02*
X39750500Y-20920000D01*
X39750500Y-20920000D02*
X38920000Y-20920000D01*
%TO.N,GPIO_26_DAT_CMD*%
X37750000Y-31169500D02*
X37705500Y-31169500D01*
X28625000Y-40250000D02*
X26250000Y-40250000D01*
X37705500Y-31169500D02*
X28625000Y-40250000D01*
%TO.N,GPIO_07_!WRITE*%
X27750000Y-35750000D02*
X35671985Y-27828015D01*
X36171985Y-27828015D02*
X36463470Y-28119500D01*
X36463470Y-28119500D02*
X40750000Y-28119500D01*
X35671985Y-27828015D02*
X36171985Y-27828015D01*
X25750000Y-35750000D02*
X27750000Y-35750000D01*
%TO.N,GPIO_08_DB0*%
X36211666Y-27500000D02*
X35632304Y-27500000D01*
X36381666Y-27670000D02*
X36211666Y-27500000D01*
X39250000Y-27500000D02*
X39080000Y-27670000D01*
X28132304Y-35000000D02*
X24750000Y-35000000D01*
X35632304Y-27500000D02*
X28132304Y-35000000D01*
X39080000Y-27670000D02*
X36381666Y-27670000D01*
%TO.N,GPIO_09_DB1*%
X28000000Y-36250000D02*
X36000000Y-28250000D01*
X24250000Y-36250000D02*
X28000000Y-36250000D01*
%TO.N,GPIO_10_DB2*%
X28514608Y-34250000D02*
X35594608Y-27170000D01*
X37670000Y-27170000D02*
X37750000Y-27250000D01*
X23750000Y-34250000D02*
X28514608Y-34250000D01*
X35594608Y-27170000D02*
X37670000Y-27170000D01*
%TO.N,GPIO_11_DB3*%
X35867696Y-28750000D02*
X37750000Y-28750000D01*
X27867696Y-36750000D02*
X35867696Y-28750000D01*
X23250000Y-36750000D02*
X27867696Y-36750000D01*
%TO.N,GPIO_12_DB4*%
X38093970Y-29000000D02*
X40500000Y-29000000D01*
X37923970Y-29170000D02*
X38093970Y-29000000D01*
X35815392Y-29170000D02*
X37923970Y-29170000D01*
X27735392Y-37250000D02*
X35815392Y-29170000D01*
X40500000Y-29000000D02*
X40750000Y-29250000D01*
X22750000Y-37250000D02*
X27735392Y-37250000D01*
%TO.N,GPIO_13_DB5*%
X22250000Y-38250000D02*
X27470784Y-38250000D01*
X35720784Y-30000000D02*
X37750000Y-30000000D01*
X27470784Y-38250000D02*
X35720784Y-30000000D01*
%TO.N,GPIO_14_DB6*%
X35550236Y-24640500D02*
X29940736Y-30250000D01*
X40740000Y-24760000D02*
X40620500Y-24640500D01*
X29940736Y-30250000D02*
X21750000Y-30250000D01*
X40620500Y-24640500D02*
X35550236Y-24640500D01*
%TO.N,GPIO_15_DB7*%
X21330000Y-30670000D02*
X29888432Y-30670000D01*
X35657932Y-24900500D02*
X38900500Y-24900500D01*
X21250000Y-30750000D02*
X21330000Y-30670000D01*
X29888432Y-30670000D02*
X35657932Y-24900500D01*
X38900500Y-24900500D02*
X39250000Y-25250000D01*
%TO.N,GPIO_16_DB8*%
X20750000Y-37750000D02*
X27603088Y-37750000D01*
X27603088Y-37750000D02*
X35853088Y-29500000D01*
X35853088Y-29500000D02*
X39000000Y-29500000D01*
X39000000Y-29500000D02*
X39250000Y-29750000D01*
%TO.N,GPIO_17_DB9*%
X29293824Y-32000000D02*
X20250000Y-32000000D01*
X36000000Y-25580500D02*
X35713324Y-25580500D01*
X35713324Y-25580500D02*
X29293824Y-32000000D01*
%TO.N,GPIO_18_DB10*%
X37504470Y-25160500D02*
X38093970Y-25750000D01*
X38093970Y-25750000D02*
X40750000Y-25750000D01*
X35765628Y-25160500D02*
X37504470Y-25160500D01*
X29676128Y-31250000D02*
X35765628Y-25160500D01*
X19750000Y-31250000D02*
X29676128Y-31250000D01*
%TO.N,GPIO_19_DB11*%
X19250000Y-39250000D02*
X27750000Y-39250000D01*
X27750000Y-39250000D02*
X36000000Y-31000000D01*
%TO.N,GPIO_20_DB12*%
X38093970Y-30250000D02*
X40750000Y-30250000D01*
X37923970Y-30420000D02*
X38093970Y-30250000D01*
X35668480Y-30420000D02*
X37923970Y-30420000D01*
X27338480Y-38750000D02*
X35668480Y-30420000D01*
X18750000Y-38750000D02*
X27338480Y-38750000D01*
%TO.N,GPIO_21_DB13*%
X37250000Y-30750000D02*
X39250000Y-30750000D01*
X18250000Y-39750000D02*
X28250000Y-39750000D01*
X28250000Y-39750000D02*
X37250000Y-30750000D01*
%TO.N,GPIO_22_DB14*%
X35646912Y-26750000D02*
X28646912Y-33750000D01*
X28646912Y-33750000D02*
X17750000Y-33750000D01*
X36002315Y-26750000D02*
X35646912Y-26750000D01*
X35802942Y-26750000D02*
X36002315Y-26750000D01*
%TO.N,GPIO_23_DB15*%
X17250000Y-33250000D02*
X28779216Y-33250000D01*
X35769216Y-26260000D02*
X37416030Y-26260000D01*
X28779216Y-33250000D02*
X35769216Y-26260000D01*
X37416030Y-26260000D02*
X37576030Y-26420000D01*
X39080000Y-26420000D02*
X39250000Y-26250000D01*
X37576030Y-26420000D02*
X39080000Y-26420000D01*
%TO.N,GPIO_27_!RESET*%
X16750000Y-32750000D02*
X28911520Y-32750000D01*
X35661520Y-26000000D02*
X37750000Y-26000000D01*
X28911520Y-32750000D02*
X35661520Y-26000000D01*
%TO.N,GPIO_25_PWM*%
X40913970Y-24340000D02*
X20840000Y-24340000D01*
X18500000Y-22000000D02*
X15500000Y-22000000D01*
X40750000Y-27250000D02*
X41250000Y-26750000D01*
X41250000Y-26750000D02*
X41250000Y-24676030D01*
X41250000Y-24676030D02*
X40913970Y-24340000D01*
X20840000Y-24340000D02*
X18500000Y-22000000D01*
%TO.N,GPIO_02_USB_!RESET*%
X36236607Y-23920500D02*
X36157107Y-24000000D01*
X21000000Y-24000000D02*
X10250000Y-13250000D01*
X36157107Y-24000000D02*
X21000000Y-24000000D01*
X10250000Y-13250000D02*
X9500000Y-13250000D01*
%TD*%
%TO.N,+3.3V*%
X40983435Y-196923D02*
X41016564Y-196923D01*
X41020162Y-195959D01*
X41235649Y-210083D01*
X41467258Y-256153D01*
X41690883Y-332063D01*
X41902686Y-436513D01*
X42099032Y-567708D01*
X42276584Y-723416D01*
X42432292Y-900968D01*
X42563487Y-1097314D01*
X42667937Y-1309117D01*
X42743847Y-1532742D01*
X42789917Y-1764351D01*
X42804041Y-1979838D01*
X42803077Y-1983436D01*
X42803077Y-2016565D01*
X42805500Y-2025608D01*
X42805500Y-59974392D01*
X42803077Y-59983435D01*
X42803077Y-60016564D01*
X42804041Y-60020162D01*
X42789917Y-60235649D01*
X42743847Y-60467258D01*
X42667937Y-60690883D01*
X42563487Y-60902686D01*
X42432292Y-61099032D01*
X42276584Y-61276584D01*
X42099032Y-61432292D01*
X41902686Y-61563487D01*
X41690883Y-61667937D01*
X41467258Y-61743847D01*
X41235649Y-61789917D01*
X41020162Y-61804041D01*
X41016564Y-61803077D01*
X40983435Y-61803077D01*
X40974392Y-61805500D01*
X2025608Y-61805500D01*
X2016565Y-61803077D01*
X1983436Y-61803077D01*
X1979838Y-61804041D01*
X1764351Y-61789917D01*
X1532742Y-61743847D01*
X1309117Y-61667937D01*
X1097314Y-61563487D01*
X900968Y-61432292D01*
X723416Y-61276584D01*
X567708Y-61099032D01*
X436513Y-60902686D01*
X350591Y-60728454D01*
X17105046Y-60728454D01*
X17106813Y-60743729D01*
X17145263Y-60903885D01*
X17150623Y-60918299D01*
X17226166Y-61064661D01*
X17234810Y-61077379D01*
X17343084Y-61201496D01*
X17354512Y-61211785D01*
X17489267Y-61306493D01*
X17502819Y-61313760D01*
X17656276Y-61373590D01*
X17671171Y-61377415D01*
X17796793Y-61393953D01*
X17805146Y-61394500D01*
X18991302Y-61394500D01*
X18998991Y-61394036D01*
X19121203Y-61379247D01*
X19136136Y-61375579D01*
X19290211Y-61317359D01*
X19303839Y-61310235D01*
X19439578Y-61216944D01*
X19451113Y-61206775D01*
X19560681Y-61083798D01*
X19569457Y-61071171D01*
X19646529Y-60925609D01*
X19652040Y-60911252D01*
X19692165Y-60751507D01*
X19694092Y-60736251D01*
X19694133Y-60728454D01*
X23305046Y-60728454D01*
X23306813Y-60743729D01*
X23345263Y-60903885D01*
X23350623Y-60918299D01*
X23426166Y-61064661D01*
X23434810Y-61077379D01*
X23543084Y-61201496D01*
X23554512Y-61211785D01*
X23689267Y-61306493D01*
X23702819Y-61313760D01*
X23856276Y-61373590D01*
X23871171Y-61377415D01*
X23996793Y-61393953D01*
X24005146Y-61394500D01*
X25191302Y-61394500D01*
X25198991Y-61394036D01*
X25321203Y-61379247D01*
X25336136Y-61375579D01*
X25490211Y-61317359D01*
X25503839Y-61310235D01*
X25639578Y-61216944D01*
X25651113Y-61206775D01*
X25760681Y-61083798D01*
X25769457Y-61071171D01*
X25846529Y-60925609D01*
X25852040Y-60911252D01*
X25892165Y-60751507D01*
X25894092Y-60736251D01*
X25894954Y-60571546D01*
X25893187Y-60556271D01*
X25854737Y-60396115D01*
X25849377Y-60381701D01*
X25773834Y-60235339D01*
X25765190Y-60222621D01*
X25656916Y-60098504D01*
X25645488Y-60088215D01*
X25510733Y-59993507D01*
X25497181Y-59986240D01*
X25343724Y-59926410D01*
X25328829Y-59922585D01*
X25203207Y-59906047D01*
X25194854Y-59905500D01*
X24008698Y-59905500D01*
X24001009Y-59905964D01*
X23878797Y-59920753D01*
X23863864Y-59924421D01*
X23709789Y-59982641D01*
X23696161Y-59989765D01*
X23560422Y-60083056D01*
X23548887Y-60093225D01*
X23439319Y-60216202D01*
X23430543Y-60228829D01*
X23353471Y-60374391D01*
X23347960Y-60388748D01*
X23307835Y-60548493D01*
X23305908Y-60563749D01*
X23305046Y-60728454D01*
X19694133Y-60728454D01*
X19694954Y-60571546D01*
X19693187Y-60556271D01*
X19654737Y-60396115D01*
X19649377Y-60381701D01*
X19573834Y-60235339D01*
X19565190Y-60222621D01*
X19456916Y-60098504D01*
X19445488Y-60088215D01*
X19334217Y-60010012D01*
X19826857Y-60010012D01*
X19844473Y-60121237D01*
X19850661Y-60140281D01*
X19901786Y-60240618D01*
X19913555Y-60256817D01*
X19993183Y-60336445D01*
X20009382Y-60348214D01*
X20109719Y-60399339D01*
X20128763Y-60405527D01*
X20239988Y-60423143D01*
X20260012Y-60423143D01*
X20371237Y-60405527D01*
X20390281Y-60399339D01*
X20490618Y-60348214D01*
X20506817Y-60336445D01*
X20583250Y-60260012D01*
X20826857Y-60260012D01*
X20844473Y-60371237D01*
X20850661Y-60390281D01*
X20901786Y-60490618D01*
X20913555Y-60506817D01*
X20993183Y-60586445D01*
X21009382Y-60598214D01*
X21109719Y-60649339D01*
X21128763Y-60655527D01*
X21239988Y-60673143D01*
X21260012Y-60673143D01*
X21371237Y-60655527D01*
X21390281Y-60649339D01*
X21490618Y-60598214D01*
X21506817Y-60586445D01*
X21586445Y-60506817D01*
X21598214Y-60490618D01*
X21625000Y-60438048D01*
X21651786Y-60490618D01*
X21663555Y-60506817D01*
X21743183Y-60586445D01*
X21759382Y-60598214D01*
X21859719Y-60649339D01*
X21878763Y-60655527D01*
X21989988Y-60673143D01*
X22010012Y-60673143D01*
X22121237Y-60655527D01*
X22140281Y-60649339D01*
X22240618Y-60598214D01*
X22256817Y-60586445D01*
X22336445Y-60506817D01*
X22348214Y-60490618D01*
X22399339Y-60390281D01*
X22405527Y-60371237D01*
X22422269Y-60265531D01*
X22493183Y-60336445D01*
X22509382Y-60348214D01*
X22609719Y-60399339D01*
X22628763Y-60405527D01*
X22739988Y-60423143D01*
X22760012Y-60423143D01*
X22871237Y-60405527D01*
X22890281Y-60399339D01*
X22990618Y-60348214D01*
X23006817Y-60336445D01*
X23086445Y-60256817D01*
X23098214Y-60240618D01*
X23149339Y-60140281D01*
X23155527Y-60121237D01*
X23173143Y-60010012D01*
X23173143Y-59989988D01*
X23155527Y-59878763D01*
X23149339Y-59859719D01*
X23098214Y-59759382D01*
X23086445Y-59743183D01*
X23006817Y-59663555D01*
X22990618Y-59651786D01*
X22890281Y-59600661D01*
X22871237Y-59594473D01*
X22760012Y-59576857D01*
X22739988Y-59576857D01*
X22628763Y-59594473D01*
X22609719Y-59600661D01*
X22509382Y-59651786D01*
X22493183Y-59663555D01*
X22413555Y-59743183D01*
X22401786Y-59759382D01*
X22350661Y-59859719D01*
X22344473Y-59878763D01*
X22327731Y-59984469D01*
X22256817Y-59913555D01*
X22240618Y-59901786D01*
X22140281Y-59850661D01*
X22121237Y-59844473D01*
X22010012Y-59826857D01*
X21989988Y-59826857D01*
X21878763Y-59844473D01*
X21859719Y-59850661D01*
X21759382Y-59901786D01*
X21743183Y-59913555D01*
X21663555Y-59993183D01*
X21651786Y-60009382D01*
X21625000Y-60061952D01*
X21598214Y-60009382D01*
X21586445Y-59993183D01*
X21506817Y-59913555D01*
X21490618Y-59901786D01*
X21390281Y-59850661D01*
X21371237Y-59844473D01*
X21260012Y-59826857D01*
X21239988Y-59826857D01*
X21128763Y-59844473D01*
X21109719Y-59850661D01*
X21009382Y-59901786D01*
X20993183Y-59913555D01*
X20913555Y-59993183D01*
X20901786Y-60009382D01*
X20850661Y-60109719D01*
X20844473Y-60128763D01*
X20826857Y-60239988D01*
X20826857Y-60260012D01*
X20583250Y-60260012D01*
X20586445Y-60256817D01*
X20598214Y-60240618D01*
X20649339Y-60140281D01*
X20655527Y-60121237D01*
X20673143Y-60010012D01*
X20673143Y-59989988D01*
X20655527Y-59878763D01*
X20649339Y-59859719D01*
X20598214Y-59759382D01*
X20586445Y-59743183D01*
X20506817Y-59663555D01*
X20490618Y-59651786D01*
X20390281Y-59600661D01*
X20371237Y-59594473D01*
X20260012Y-59576857D01*
X20239988Y-59576857D01*
X20128763Y-59594473D01*
X20109719Y-59600661D01*
X20009382Y-59651786D01*
X19993183Y-59663555D01*
X19913555Y-59743183D01*
X19901786Y-59759382D01*
X19850661Y-59859719D01*
X19844473Y-59878763D01*
X19826857Y-59989988D01*
X19826857Y-60010012D01*
X19334217Y-60010012D01*
X19310733Y-59993507D01*
X19297181Y-59986240D01*
X19143724Y-59926410D01*
X19128829Y-59922585D01*
X19003207Y-59906047D01*
X18994854Y-59905500D01*
X17808698Y-59905500D01*
X17801009Y-59905964D01*
X17678797Y-59920753D01*
X17663864Y-59924421D01*
X17509789Y-59982641D01*
X17496161Y-59989765D01*
X17360422Y-60083056D01*
X17348887Y-60093225D01*
X17239319Y-60216202D01*
X17230543Y-60228829D01*
X17153471Y-60374391D01*
X17147960Y-60388748D01*
X17107835Y-60548493D01*
X17105908Y-60563749D01*
X17105046Y-60728454D01*
X350591Y-60728454D01*
X332063Y-60690883D01*
X256153Y-60467258D01*
X210083Y-60235649D01*
X195959Y-60020162D01*
X196923Y-60016564D01*
X196923Y-59983435D01*
X194500Y-59974392D01*
X194500Y-58565491D01*
X16855051Y-58565491D01*
X16857514Y-58583469D01*
X16895337Y-58715807D01*
X16902746Y-58732371D01*
X16976191Y-58848775D01*
X16987952Y-58862594D01*
X17091116Y-58953705D01*
X17106282Y-58963668D01*
X17230871Y-59022163D01*
X17248225Y-59027468D01*
X17352720Y-59043738D01*
X17362566Y-59044500D01*
X18134502Y-59044500D01*
X18143575Y-59043854D01*
X18245320Y-59029283D01*
X18262737Y-59024190D01*
X18388031Y-58967222D01*
X18403317Y-58957445D01*
X18507587Y-58867601D01*
X18519517Y-58853927D01*
X18594378Y-58738429D01*
X18601989Y-58721957D01*
X18641426Y-58590091D01*
X18644108Y-58572144D01*
X18644149Y-58565491D01*
X24355051Y-58565491D01*
X24357514Y-58583469D01*
X24395337Y-58715807D01*
X24402746Y-58732371D01*
X24476191Y-58848775D01*
X24487952Y-58862594D01*
X24591116Y-58953705D01*
X24606282Y-58963668D01*
X24730871Y-59022163D01*
X24748225Y-59027468D01*
X24852720Y-59043738D01*
X24862566Y-59044500D01*
X25634502Y-59044500D01*
X25643575Y-59043854D01*
X25745320Y-59029283D01*
X25762737Y-59024190D01*
X25888031Y-58967222D01*
X25903317Y-58957445D01*
X26007587Y-58867601D01*
X26019517Y-58853927D01*
X26094378Y-58738429D01*
X26101989Y-58721957D01*
X26141426Y-58590091D01*
X26144108Y-58572144D01*
X26144949Y-58434509D01*
X26142486Y-58416531D01*
X26104663Y-58284193D01*
X26097254Y-58267629D01*
X26023809Y-58151225D01*
X26012048Y-58137406D01*
X25908884Y-58046295D01*
X25893718Y-58036332D01*
X25837659Y-58010012D01*
X27536857Y-58010012D01*
X27554473Y-58121237D01*
X27560661Y-58140281D01*
X27611786Y-58240618D01*
X27623555Y-58256817D01*
X27703183Y-58336445D01*
X27719382Y-58348214D01*
X27819719Y-58399339D01*
X27838763Y-58405527D01*
X27949988Y-58423143D01*
X27970012Y-58423143D01*
X28081237Y-58405527D01*
X28100281Y-58399339D01*
X28200618Y-58348214D01*
X28216817Y-58336445D01*
X28296445Y-58256817D01*
X28308214Y-58240618D01*
X28359339Y-58140281D01*
X28365527Y-58121237D01*
X28383143Y-58010012D01*
X28383143Y-57989988D01*
X28365527Y-57878763D01*
X28359339Y-57859719D01*
X28308214Y-57759382D01*
X28296445Y-57743183D01*
X28216817Y-57663555D01*
X28200618Y-57651786D01*
X28100281Y-57600661D01*
X28081237Y-57594473D01*
X27970012Y-57576857D01*
X27949988Y-57576857D01*
X27838763Y-57594473D01*
X27819719Y-57600661D01*
X27719382Y-57651786D01*
X27703183Y-57663555D01*
X27623555Y-57743183D01*
X27611786Y-57759382D01*
X27560661Y-57859719D01*
X27554473Y-57878763D01*
X27536857Y-57989988D01*
X27536857Y-58010012D01*
X25837659Y-58010012D01*
X25769129Y-57977837D01*
X25751775Y-57972532D01*
X25647280Y-57956262D01*
X25637434Y-57955500D01*
X24865498Y-57955500D01*
X24856425Y-57956146D01*
X24754680Y-57970717D01*
X24737263Y-57975810D01*
X24611969Y-58032778D01*
X24596683Y-58042555D01*
X24492413Y-58132399D01*
X24480483Y-58146073D01*
X24405622Y-58261571D01*
X24398011Y-58278043D01*
X24358574Y-58409909D01*
X24355892Y-58427856D01*
X24355051Y-58565491D01*
X18644149Y-58565491D01*
X18644949Y-58434509D01*
X18642486Y-58416531D01*
X18604663Y-58284193D01*
X18597254Y-58267629D01*
X18523809Y-58151225D01*
X18512048Y-58137406D01*
X18408884Y-58046295D01*
X18393718Y-58036332D01*
X18269129Y-57977837D01*
X18251775Y-57972532D01*
X18147280Y-57956262D01*
X18137434Y-57955500D01*
X17365498Y-57955500D01*
X17356425Y-57956146D01*
X17254680Y-57970717D01*
X17237263Y-57975810D01*
X17111969Y-58032778D01*
X17096683Y-58042555D01*
X16992413Y-58132399D01*
X16980483Y-58146073D01*
X16905622Y-58261571D01*
X16898011Y-58278043D01*
X16858574Y-58409909D01*
X16855892Y-58427856D01*
X16855051Y-58565491D01*
X194500Y-58565491D01*
X194500Y-57510012D01*
X14596857Y-57510012D01*
X14614473Y-57621237D01*
X14620661Y-57640281D01*
X14671786Y-57740618D01*
X14683555Y-57756817D01*
X14763183Y-57836445D01*
X14779382Y-57848214D01*
X14879719Y-57899339D01*
X14898763Y-57905527D01*
X15009988Y-57923143D01*
X15030012Y-57923143D01*
X15141237Y-57905527D01*
X15160281Y-57899339D01*
X15260618Y-57848214D01*
X15276817Y-57836445D01*
X15356445Y-57756817D01*
X15368214Y-57740618D01*
X15419339Y-57640281D01*
X15425527Y-57621237D01*
X15443143Y-57510012D01*
X15443143Y-57489988D01*
X15425527Y-57378763D01*
X15419339Y-57359719D01*
X15368214Y-57259382D01*
X15356445Y-57243183D01*
X15276817Y-57163555D01*
X15260618Y-57151786D01*
X15160281Y-57100661D01*
X15141237Y-57094473D01*
X15030012Y-57076857D01*
X15009988Y-57076857D01*
X14898763Y-57094473D01*
X14879719Y-57100661D01*
X14779382Y-57151786D01*
X14763183Y-57163555D01*
X14683555Y-57243183D01*
X14671786Y-57259382D01*
X14620661Y-57359719D01*
X14614473Y-57378763D01*
X14596857Y-57489988D01*
X14596857Y-57510012D01*
X194500Y-57510012D01*
X194500Y-56428454D01*
X17105046Y-56428454D01*
X17106813Y-56443729D01*
X17145263Y-56603885D01*
X17150623Y-56618299D01*
X17226166Y-56764661D01*
X17234810Y-56777379D01*
X17343084Y-56901496D01*
X17354512Y-56911785D01*
X17489267Y-57006493D01*
X17502819Y-57013760D01*
X17656276Y-57073590D01*
X17671171Y-57077415D01*
X17796793Y-57093953D01*
X17805146Y-57094500D01*
X18991302Y-57094500D01*
X18998991Y-57094036D01*
X19121203Y-57079247D01*
X19136136Y-57075579D01*
X19290211Y-57017359D01*
X19303839Y-57010235D01*
X19304163Y-57010012D01*
X19826857Y-57010012D01*
X19844473Y-57121237D01*
X19850661Y-57140281D01*
X19901786Y-57240618D01*
X19913555Y-57256817D01*
X19993183Y-57336445D01*
X20009382Y-57348214D01*
X20109719Y-57399339D01*
X20128763Y-57405527D01*
X20239988Y-57423143D01*
X20260012Y-57423143D01*
X20371237Y-57405527D01*
X20390281Y-57399339D01*
X20490618Y-57348214D01*
X20506817Y-57336445D01*
X20586445Y-57256817D01*
X20598214Y-57240618D01*
X20646359Y-57146129D01*
X20647086Y-57146365D01*
X20758311Y-57163981D01*
X20778335Y-57163981D01*
X20889560Y-57146365D01*
X20908604Y-57140177D01*
X21008941Y-57089052D01*
X21025140Y-57077283D01*
X21090168Y-57012255D01*
X21159769Y-57081856D01*
X21175968Y-57093625D01*
X21276305Y-57144750D01*
X21295349Y-57150938D01*
X21406574Y-57168554D01*
X21426598Y-57168554D01*
X21537823Y-57150938D01*
X21556867Y-57144750D01*
X21657204Y-57093625D01*
X21673403Y-57081856D01*
X21705999Y-57049261D01*
X21743183Y-57086445D01*
X21759382Y-57098214D01*
X21859719Y-57149339D01*
X21878763Y-57155527D01*
X21989988Y-57173143D01*
X22010012Y-57173143D01*
X22121237Y-57155527D01*
X22140281Y-57149339D01*
X22240618Y-57098214D01*
X22256817Y-57086445D01*
X22327731Y-57015531D01*
X22344473Y-57121237D01*
X22350661Y-57140281D01*
X22401786Y-57240618D01*
X22413555Y-57256817D01*
X22493183Y-57336445D01*
X22509382Y-57348214D01*
X22609719Y-57399339D01*
X22628763Y-57405527D01*
X22739988Y-57423143D01*
X22760012Y-57423143D01*
X22871237Y-57405527D01*
X22890281Y-57399339D01*
X22990618Y-57348214D01*
X23006817Y-57336445D01*
X23086445Y-57256817D01*
X23098214Y-57240618D01*
X23149339Y-57140281D01*
X23155527Y-57121237D01*
X23173143Y-57010012D01*
X23173143Y-56989988D01*
X23155527Y-56878763D01*
X23149339Y-56859719D01*
X23098214Y-56759382D01*
X23086445Y-56743183D01*
X23006817Y-56663555D01*
X22990618Y-56651786D01*
X22890281Y-56600661D01*
X22871237Y-56594473D01*
X22760012Y-56576857D01*
X22739988Y-56576857D01*
X22628763Y-56594473D01*
X22609719Y-56600661D01*
X22509382Y-56651786D01*
X22493183Y-56663555D01*
X22422269Y-56734469D01*
X22405527Y-56628763D01*
X22399339Y-56609719D01*
X22348214Y-56509382D01*
X22336445Y-56493183D01*
X22271716Y-56428454D01*
X23305046Y-56428454D01*
X23306813Y-56443729D01*
X23345263Y-56603885D01*
X23350623Y-56618299D01*
X23426166Y-56764661D01*
X23434810Y-56777379D01*
X23543084Y-56901496D01*
X23554512Y-56911785D01*
X23689267Y-57006493D01*
X23702819Y-57013760D01*
X23856276Y-57073590D01*
X23871171Y-57077415D01*
X23996793Y-57093953D01*
X24005146Y-57094500D01*
X25191302Y-57094500D01*
X25198991Y-57094036D01*
X25321203Y-57079247D01*
X25336136Y-57075579D01*
X25490211Y-57017359D01*
X25503839Y-57010235D01*
X25639578Y-56916944D01*
X25651113Y-56906775D01*
X25760681Y-56783798D01*
X25769457Y-56771171D01*
X25846529Y-56625609D01*
X25852040Y-56611252D01*
X25877470Y-56510012D01*
X35576857Y-56510012D01*
X35594473Y-56621237D01*
X35600661Y-56640281D01*
X35651786Y-56740618D01*
X35663555Y-56756817D01*
X35743183Y-56836445D01*
X35759382Y-56848214D01*
X35859719Y-56899339D01*
X35878763Y-56905527D01*
X35989988Y-56923143D01*
X36010012Y-56923143D01*
X36121237Y-56905527D01*
X36140281Y-56899339D01*
X36240618Y-56848214D01*
X36256817Y-56836445D01*
X36336445Y-56756817D01*
X36348214Y-56740618D01*
X36399339Y-56640281D01*
X36405527Y-56621237D01*
X36423143Y-56510012D01*
X37576857Y-56510012D01*
X37594473Y-56621237D01*
X37600661Y-56640281D01*
X37651786Y-56740618D01*
X37663555Y-56756817D01*
X37743183Y-56836445D01*
X37759382Y-56848214D01*
X37859719Y-56899339D01*
X37878763Y-56905527D01*
X37989988Y-56923143D01*
X38010012Y-56923143D01*
X38121237Y-56905527D01*
X38140281Y-56899339D01*
X38240618Y-56848214D01*
X38256817Y-56836445D01*
X38336445Y-56756817D01*
X38348214Y-56740618D01*
X38399339Y-56640281D01*
X38405527Y-56621237D01*
X38423143Y-56510012D01*
X38423143Y-56489988D01*
X38405527Y-56378763D01*
X38399339Y-56359719D01*
X38348214Y-56259382D01*
X38341398Y-56250000D01*
X38348214Y-56240618D01*
X38399339Y-56140281D01*
X38405527Y-56121237D01*
X38423143Y-56010012D01*
X38423143Y-55989988D01*
X38405527Y-55878763D01*
X38399339Y-55859719D01*
X38348214Y-55759382D01*
X38341398Y-55750000D01*
X38348214Y-55740618D01*
X38399339Y-55640281D01*
X38405527Y-55621237D01*
X38423143Y-55510012D01*
X38423143Y-55489988D01*
X38405527Y-55378763D01*
X38399339Y-55359719D01*
X38348214Y-55259382D01*
X38336445Y-55243183D01*
X38256817Y-55163555D01*
X38240618Y-55151786D01*
X38140281Y-55100661D01*
X38121237Y-55094473D01*
X38010012Y-55076857D01*
X37989988Y-55076857D01*
X37878763Y-55094473D01*
X37859719Y-55100661D01*
X37759382Y-55151786D01*
X37743183Y-55163555D01*
X37663555Y-55243183D01*
X37651786Y-55259382D01*
X37600661Y-55359719D01*
X37594473Y-55378763D01*
X37576857Y-55489988D01*
X37576857Y-55510012D01*
X37594473Y-55621237D01*
X37600661Y-55640281D01*
X37651786Y-55740618D01*
X37658602Y-55750000D01*
X37651786Y-55759382D01*
X37600661Y-55859719D01*
X37594473Y-55878763D01*
X37576857Y-55989988D01*
X37576857Y-56010012D01*
X37594473Y-56121237D01*
X37600661Y-56140281D01*
X37651786Y-56240618D01*
X37658602Y-56250000D01*
X37651786Y-56259382D01*
X37600661Y-56359719D01*
X37594473Y-56378763D01*
X37576857Y-56489988D01*
X37576857Y-56510012D01*
X36423143Y-56510012D01*
X36423143Y-56489988D01*
X36405527Y-56378763D01*
X36399339Y-56359719D01*
X36348214Y-56259382D01*
X36341398Y-56250000D01*
X36348214Y-56240618D01*
X36399339Y-56140281D01*
X36405527Y-56121237D01*
X36423143Y-56010012D01*
X36423143Y-55989988D01*
X36405527Y-55878763D01*
X36399339Y-55859719D01*
X36348214Y-55759382D01*
X36341398Y-55750000D01*
X36348214Y-55740618D01*
X36399339Y-55640281D01*
X36405527Y-55621237D01*
X36423143Y-55510012D01*
X36423143Y-55489988D01*
X36405527Y-55378763D01*
X36399339Y-55359719D01*
X36348214Y-55259382D01*
X36336445Y-55243183D01*
X36256817Y-55163555D01*
X36240618Y-55151786D01*
X36140281Y-55100661D01*
X36121237Y-55094473D01*
X36010012Y-55076857D01*
X35989988Y-55076857D01*
X35878763Y-55094473D01*
X35859719Y-55100661D01*
X35759382Y-55151786D01*
X35743183Y-55163555D01*
X35663555Y-55243183D01*
X35651786Y-55259382D01*
X35600661Y-55359719D01*
X35594473Y-55378763D01*
X35576857Y-55489988D01*
X35576857Y-55510012D01*
X35594473Y-55621237D01*
X35600661Y-55640281D01*
X35651786Y-55740618D01*
X35658602Y-55750000D01*
X35651786Y-55759382D01*
X35600661Y-55859719D01*
X35594473Y-55878763D01*
X35576857Y-55989988D01*
X35576857Y-56010012D01*
X35594473Y-56121237D01*
X35600661Y-56140281D01*
X35651786Y-56240618D01*
X35658602Y-56250000D01*
X35651786Y-56259382D01*
X35600661Y-56359719D01*
X35594473Y-56378763D01*
X35576857Y-56489988D01*
X35576857Y-56510012D01*
X25877470Y-56510012D01*
X25892165Y-56451507D01*
X25894092Y-56436251D01*
X25894954Y-56271546D01*
X25893187Y-56256271D01*
X25854737Y-56096115D01*
X25849377Y-56081701D01*
X25773834Y-55935339D01*
X25765190Y-55922621D01*
X25656916Y-55798504D01*
X25645488Y-55788215D01*
X25510733Y-55693507D01*
X25497181Y-55686240D01*
X25343724Y-55626410D01*
X25328829Y-55622585D01*
X25203207Y-55606047D01*
X25194854Y-55605500D01*
X24008698Y-55605500D01*
X24001009Y-55605964D01*
X23878797Y-55620753D01*
X23863864Y-55624421D01*
X23709789Y-55682641D01*
X23696161Y-55689765D01*
X23560422Y-55783056D01*
X23548887Y-55793225D01*
X23439319Y-55916202D01*
X23430543Y-55928829D01*
X23353471Y-56074391D01*
X23347960Y-56088748D01*
X23307835Y-56248493D01*
X23305908Y-56263749D01*
X23305046Y-56428454D01*
X22271716Y-56428454D01*
X22256817Y-56413555D01*
X22240618Y-56401786D01*
X22140281Y-56350661D01*
X22121237Y-56344473D01*
X22010012Y-56326857D01*
X21989988Y-56326857D01*
X21878763Y-56344473D01*
X21859719Y-56350661D01*
X21759382Y-56401786D01*
X21743183Y-56413555D01*
X21710588Y-56446151D01*
X21673403Y-56408966D01*
X21657204Y-56397197D01*
X21556867Y-56346072D01*
X21537823Y-56339884D01*
X21426598Y-56322268D01*
X21406574Y-56322268D01*
X21295349Y-56339884D01*
X21276305Y-56346072D01*
X21175968Y-56397197D01*
X21159769Y-56408966D01*
X21094741Y-56473994D01*
X21025140Y-56404393D01*
X21008941Y-56392624D01*
X20908604Y-56341499D01*
X20889560Y-56335311D01*
X20778335Y-56317695D01*
X20758311Y-56317695D01*
X20647086Y-56335311D01*
X20628042Y-56341499D01*
X20527705Y-56392624D01*
X20511506Y-56404393D01*
X20431878Y-56484021D01*
X20420109Y-56500220D01*
X20371964Y-56594709D01*
X20371237Y-56594473D01*
X20260012Y-56576857D01*
X20239988Y-56576857D01*
X20128763Y-56594473D01*
X20109719Y-56600661D01*
X20009382Y-56651786D01*
X19993183Y-56663555D01*
X19913555Y-56743183D01*
X19901786Y-56759382D01*
X19850661Y-56859719D01*
X19844473Y-56878763D01*
X19826857Y-56989988D01*
X19826857Y-57010012D01*
X19304163Y-57010012D01*
X19439578Y-56916944D01*
X19451113Y-56906775D01*
X19560681Y-56783798D01*
X19569457Y-56771171D01*
X19646529Y-56625609D01*
X19652040Y-56611252D01*
X19692165Y-56451507D01*
X19694092Y-56436251D01*
X19694954Y-56271546D01*
X19693187Y-56256271D01*
X19654737Y-56096115D01*
X19649377Y-56081701D01*
X19573834Y-55935339D01*
X19565190Y-55922621D01*
X19456916Y-55798504D01*
X19445488Y-55788215D01*
X19310733Y-55693507D01*
X19297181Y-55686240D01*
X19143724Y-55626410D01*
X19128829Y-55622585D01*
X19003207Y-55606047D01*
X18994854Y-55605500D01*
X17808698Y-55605500D01*
X17801009Y-55605964D01*
X17678797Y-55620753D01*
X17663864Y-55624421D01*
X17509789Y-55682641D01*
X17496161Y-55689765D01*
X17360422Y-55783056D01*
X17348887Y-55793225D01*
X17239319Y-55916202D01*
X17230543Y-55928829D01*
X17153471Y-56074391D01*
X17147960Y-56088748D01*
X17107835Y-56248493D01*
X17105908Y-56263749D01*
X17105046Y-56428454D01*
X194500Y-56428454D01*
X194500Y-47510012D01*
X24076857Y-47510012D01*
X24094473Y-47621237D01*
X24100661Y-47640281D01*
X24151786Y-47740618D01*
X24163555Y-47756817D01*
X24243183Y-47836445D01*
X24259382Y-47848214D01*
X24359719Y-47899339D01*
X24378763Y-47905527D01*
X24489988Y-47923143D01*
X24510012Y-47923143D01*
X24589436Y-47910564D01*
X24576857Y-47989988D01*
X24576857Y-48010012D01*
X24594473Y-48121237D01*
X24600661Y-48140281D01*
X24651786Y-48240618D01*
X24663555Y-48256817D01*
X24743183Y-48336445D01*
X24759382Y-48348214D01*
X24859719Y-48399339D01*
X24878763Y-48405527D01*
X24989988Y-48423143D01*
X25010012Y-48423143D01*
X25121237Y-48405527D01*
X25140281Y-48399339D01*
X25240618Y-48348214D01*
X25256817Y-48336445D01*
X25336445Y-48256817D01*
X25348214Y-48240618D01*
X25399339Y-48140281D01*
X25405527Y-48121237D01*
X25423143Y-48010012D01*
X25423143Y-47989988D01*
X25405527Y-47878763D01*
X25399339Y-47859719D01*
X25348214Y-47759382D01*
X25336445Y-47743183D01*
X25256817Y-47663555D01*
X25240618Y-47651786D01*
X25140281Y-47600661D01*
X25121237Y-47594473D01*
X25010012Y-47576857D01*
X24989988Y-47576857D01*
X24910564Y-47589436D01*
X24923143Y-47510012D01*
X24923143Y-47489988D01*
X24905527Y-47378763D01*
X24899339Y-47359719D01*
X24848214Y-47259382D01*
X24836445Y-47243183D01*
X24756817Y-47163555D01*
X24740618Y-47151786D01*
X24640281Y-47100661D01*
X24621237Y-47094473D01*
X24510012Y-47076857D01*
X24489988Y-47076857D01*
X24378763Y-47094473D01*
X24359719Y-47100661D01*
X24259382Y-47151786D01*
X24243183Y-47163555D01*
X24163555Y-47243183D01*
X24151786Y-47259382D01*
X24100661Y-47359719D01*
X24094473Y-47378763D01*
X24076857Y-47489988D01*
X24076857Y-47510012D01*
X194500Y-47510012D01*
X194500Y-45510012D01*
X6826857Y-45510012D01*
X6844473Y-45621237D01*
X6850661Y-45640281D01*
X6901786Y-45740618D01*
X6913555Y-45756817D01*
X6993183Y-45836445D01*
X7009382Y-45848214D01*
X7109719Y-45899339D01*
X7128763Y-45905527D01*
X7239988Y-45923143D01*
X7260012Y-45923143D01*
X7371237Y-45905527D01*
X7390281Y-45899339D01*
X7490618Y-45848214D01*
X7506817Y-45836445D01*
X7586445Y-45756817D01*
X7598214Y-45740618D01*
X7649339Y-45640281D01*
X7655527Y-45621237D01*
X7673143Y-45510012D01*
X7673143Y-45489988D01*
X7655527Y-45378763D01*
X7649339Y-45359719D01*
X7598214Y-45259382D01*
X7586445Y-45243183D01*
X7506817Y-45163555D01*
X7490618Y-45151786D01*
X7390281Y-45100661D01*
X7371237Y-45094473D01*
X7260012Y-45076857D01*
X7239988Y-45076857D01*
X7128763Y-45094473D01*
X7109719Y-45100661D01*
X7009382Y-45151786D01*
X6993183Y-45163555D01*
X6913555Y-45243183D01*
X6901786Y-45259382D01*
X6850661Y-45359719D01*
X6844473Y-45378763D01*
X6826857Y-45489988D01*
X6826857Y-45510012D01*
X194500Y-45510012D01*
X194500Y-40760012D01*
X5326857Y-40760012D01*
X5344473Y-40871237D01*
X5350661Y-40890281D01*
X5401786Y-40990618D01*
X5413555Y-41006817D01*
X5493183Y-41086445D01*
X5509382Y-41098214D01*
X5609719Y-41149339D01*
X5628763Y-41155527D01*
X5739988Y-41173143D01*
X5760012Y-41173143D01*
X5871237Y-41155527D01*
X5890281Y-41149339D01*
X5990618Y-41098214D01*
X6006817Y-41086445D01*
X6086445Y-41006817D01*
X6098214Y-40990618D01*
X6149339Y-40890281D01*
X6155527Y-40871237D01*
X6173143Y-40760012D01*
X6173143Y-40739988D01*
X6155527Y-40628763D01*
X6149339Y-40609719D01*
X6098214Y-40509382D01*
X6086445Y-40493183D01*
X6006817Y-40413555D01*
X5990618Y-40401786D01*
X5890281Y-40350661D01*
X5871237Y-40344473D01*
X5760012Y-40326857D01*
X5739988Y-40326857D01*
X5628763Y-40344473D01*
X5609719Y-40350661D01*
X5509382Y-40401786D01*
X5493183Y-40413555D01*
X5413555Y-40493183D01*
X5401786Y-40509382D01*
X5350661Y-40609719D01*
X5344473Y-40628763D01*
X5326857Y-40739988D01*
X5326857Y-40760012D01*
X194500Y-40760012D01*
X194500Y-34510012D01*
X4826857Y-34510012D01*
X4844473Y-34621237D01*
X4850661Y-34640281D01*
X4901786Y-34740618D01*
X4913555Y-34756817D01*
X4993183Y-34836445D01*
X5009382Y-34848214D01*
X5109719Y-34899339D01*
X5128763Y-34905527D01*
X5239988Y-34923143D01*
X5260012Y-34923143D01*
X5371237Y-34905527D01*
X5390281Y-34899339D01*
X5490618Y-34848214D01*
X5506817Y-34836445D01*
X5583250Y-34760012D01*
X6576857Y-34760012D01*
X6594473Y-34871237D01*
X6600661Y-34890281D01*
X6651786Y-34990618D01*
X6663555Y-35006817D01*
X6743183Y-35086445D01*
X6759382Y-35098214D01*
X6859719Y-35149339D01*
X6878763Y-35155527D01*
X6989988Y-35173143D01*
X7010012Y-35173143D01*
X7121237Y-35155527D01*
X7140281Y-35149339D01*
X7240618Y-35098214D01*
X7256817Y-35086445D01*
X7336445Y-35006817D01*
X7348214Y-34990618D01*
X7399339Y-34890281D01*
X7405527Y-34871237D01*
X7423143Y-34760012D01*
X7423143Y-34739988D01*
X7405527Y-34628763D01*
X7399339Y-34609719D01*
X7348214Y-34509382D01*
X7336445Y-34493183D01*
X7256817Y-34413555D01*
X7240618Y-34401786D01*
X7140281Y-34350661D01*
X7121237Y-34344473D01*
X7010012Y-34326857D01*
X6989988Y-34326857D01*
X6878763Y-34344473D01*
X6859719Y-34350661D01*
X6759382Y-34401786D01*
X6743183Y-34413555D01*
X6663555Y-34493183D01*
X6651786Y-34509382D01*
X6600661Y-34609719D01*
X6594473Y-34628763D01*
X6576857Y-34739988D01*
X6576857Y-34760012D01*
X5583250Y-34760012D01*
X5586445Y-34756817D01*
X5598214Y-34740618D01*
X5649339Y-34640281D01*
X5655527Y-34621237D01*
X5673143Y-34510012D01*
X5673143Y-34489988D01*
X5655527Y-34378763D01*
X5649339Y-34359719D01*
X5598214Y-34259382D01*
X5586445Y-34243183D01*
X5506817Y-34163555D01*
X5490618Y-34151786D01*
X5390281Y-34100661D01*
X5371237Y-34094473D01*
X5260012Y-34076857D01*
X5239988Y-34076857D01*
X5128763Y-34094473D01*
X5109719Y-34100661D01*
X5009382Y-34151786D01*
X4993183Y-34163555D01*
X4913555Y-34243183D01*
X4901786Y-34259382D01*
X4850661Y-34359719D01*
X4844473Y-34378763D01*
X4826857Y-34489988D01*
X4826857Y-34510012D01*
X194500Y-34510012D01*
X194500Y-31010012D01*
X12576857Y-31010012D01*
X12594473Y-31121237D01*
X12600661Y-31140281D01*
X12651786Y-31240618D01*
X12663555Y-31256817D01*
X12743183Y-31336445D01*
X12759382Y-31348214D01*
X12859719Y-31399339D01*
X12878763Y-31405527D01*
X12989988Y-31423143D01*
X13010012Y-31423143D01*
X13121237Y-31405527D01*
X13140281Y-31399339D01*
X13240618Y-31348214D01*
X13256817Y-31336445D01*
X13336445Y-31256817D01*
X13348214Y-31240618D01*
X13399339Y-31140281D01*
X13405527Y-31121237D01*
X13423143Y-31010012D01*
X13423143Y-30989988D01*
X13405527Y-30878763D01*
X13399339Y-30859719D01*
X13348214Y-30759382D01*
X13341398Y-30750000D01*
X13348214Y-30740618D01*
X13399339Y-30640281D01*
X13405527Y-30621237D01*
X13423143Y-30510012D01*
X13423143Y-30489988D01*
X13405527Y-30378763D01*
X13399339Y-30359719D01*
X13348214Y-30259382D01*
X13341398Y-30250000D01*
X13348214Y-30240618D01*
X13399339Y-30140281D01*
X13405527Y-30121237D01*
X13423143Y-30010012D01*
X13423143Y-29989988D01*
X13405527Y-29878763D01*
X13399339Y-29859719D01*
X13348214Y-29759382D01*
X13336445Y-29743183D01*
X13256817Y-29663555D01*
X13240618Y-29651786D01*
X13140281Y-29600661D01*
X13121237Y-29594473D01*
X13010012Y-29576857D01*
X12989988Y-29576857D01*
X12878763Y-29594473D01*
X12859719Y-29600661D01*
X12759382Y-29651786D01*
X12743183Y-29663555D01*
X12663555Y-29743183D01*
X12651786Y-29759382D01*
X12600661Y-29859719D01*
X12594473Y-29878763D01*
X12576857Y-29989988D01*
X12576857Y-30010012D01*
X12594473Y-30121237D01*
X12600661Y-30140281D01*
X12651786Y-30240618D01*
X12658602Y-30250000D01*
X12651786Y-30259382D01*
X12600661Y-30359719D01*
X12594473Y-30378763D01*
X12576857Y-30489988D01*
X12576857Y-30510012D01*
X12594473Y-30621237D01*
X12600661Y-30640281D01*
X12651786Y-30740618D01*
X12658602Y-30750000D01*
X12651786Y-30759382D01*
X12600661Y-30859719D01*
X12594473Y-30878763D01*
X12576857Y-30989988D01*
X12576857Y-31010012D01*
X194500Y-31010012D01*
X194500Y-25760012D01*
X16576857Y-25760012D01*
X16594473Y-25871237D01*
X16600661Y-25890281D01*
X16651786Y-25990618D01*
X16663555Y-26006817D01*
X16743183Y-26086445D01*
X16759382Y-26098214D01*
X16859719Y-26149339D01*
X16878763Y-26155527D01*
X16989988Y-26173143D01*
X17010012Y-26173143D01*
X17121237Y-26155527D01*
X17140281Y-26149339D01*
X17240618Y-26098214D01*
X17250000Y-26091398D01*
X17259382Y-26098214D01*
X17359719Y-26149339D01*
X17378763Y-26155527D01*
X17489988Y-26173143D01*
X17510012Y-26173143D01*
X17621237Y-26155527D01*
X17640281Y-26149339D01*
X17740618Y-26098214D01*
X17750000Y-26091398D01*
X17759382Y-26098214D01*
X17859719Y-26149339D01*
X17878763Y-26155527D01*
X17989988Y-26173143D01*
X18010012Y-26173143D01*
X18121237Y-26155527D01*
X18140281Y-26149339D01*
X18240618Y-26098214D01*
X18256817Y-26086445D01*
X18336445Y-26006817D01*
X18348214Y-25990618D01*
X18399339Y-25890281D01*
X18405527Y-25871237D01*
X18423143Y-25760012D01*
X18423143Y-25739988D01*
X18405527Y-25628763D01*
X18399339Y-25609719D01*
X18348214Y-25509382D01*
X18336445Y-25493183D01*
X18256817Y-25413555D01*
X18240618Y-25401786D01*
X18140281Y-25350661D01*
X18121237Y-25344473D01*
X18010012Y-25326857D01*
X17989988Y-25326857D01*
X17878763Y-25344473D01*
X17859719Y-25350661D01*
X17759382Y-25401786D01*
X17750000Y-25408602D01*
X17740618Y-25401786D01*
X17640281Y-25350661D01*
X17621237Y-25344473D01*
X17510012Y-25326857D01*
X17489988Y-25326857D01*
X17378763Y-25344473D01*
X17359719Y-25350661D01*
X17259382Y-25401786D01*
X17250000Y-25408602D01*
X17240618Y-25401786D01*
X17140281Y-25350661D01*
X17121237Y-25344473D01*
X17010012Y-25326857D01*
X16989988Y-25326857D01*
X16878763Y-25344473D01*
X16859719Y-25350661D01*
X16759382Y-25401786D01*
X16743183Y-25413555D01*
X16663555Y-25493183D01*
X16651786Y-25509382D01*
X16600661Y-25609719D01*
X16594473Y-25628763D01*
X16576857Y-25739988D01*
X16576857Y-25760012D01*
X194500Y-25760012D01*
X194500Y-23260012D01*
X16576857Y-23260012D01*
X16594473Y-23371237D01*
X16600661Y-23390281D01*
X16651786Y-23490618D01*
X16663555Y-23506817D01*
X16743183Y-23586445D01*
X16759382Y-23598214D01*
X16859719Y-23649339D01*
X16878763Y-23655527D01*
X16989988Y-23673143D01*
X17010012Y-23673143D01*
X17121237Y-23655527D01*
X17140281Y-23649339D01*
X17240618Y-23598214D01*
X17250000Y-23591398D01*
X17259382Y-23598214D01*
X17359719Y-23649339D01*
X17378763Y-23655527D01*
X17489988Y-23673143D01*
X17510012Y-23673143D01*
X17621237Y-23655527D01*
X17640281Y-23649339D01*
X17740618Y-23598214D01*
X17750000Y-23591398D01*
X17759382Y-23598214D01*
X17859719Y-23649339D01*
X17878763Y-23655527D01*
X17989988Y-23673143D01*
X18010012Y-23673143D01*
X18121237Y-23655527D01*
X18140281Y-23649339D01*
X18240618Y-23598214D01*
X18256817Y-23586445D01*
X18336445Y-23506817D01*
X18348214Y-23490618D01*
X18399339Y-23390281D01*
X18405527Y-23371237D01*
X18423143Y-23260012D01*
X18423143Y-23239988D01*
X18405527Y-23128763D01*
X18399339Y-23109719D01*
X18348214Y-23009382D01*
X18336445Y-22993183D01*
X18256817Y-22913555D01*
X18240618Y-22901786D01*
X18140281Y-22850661D01*
X18121237Y-22844473D01*
X18010012Y-22826857D01*
X17989988Y-22826857D01*
X17878763Y-22844473D01*
X17859719Y-22850661D01*
X17759382Y-22901786D01*
X17750000Y-22908602D01*
X17740618Y-22901786D01*
X17640281Y-22850661D01*
X17621237Y-22844473D01*
X17510012Y-22826857D01*
X17489988Y-22826857D01*
X17378763Y-22844473D01*
X17359719Y-22850661D01*
X17259382Y-22901786D01*
X17250000Y-22908602D01*
X17240618Y-22901786D01*
X17140281Y-22850661D01*
X17121237Y-22844473D01*
X17010012Y-22826857D01*
X16989988Y-22826857D01*
X16878763Y-22844473D01*
X16859719Y-22850661D01*
X16759382Y-22901786D01*
X16743183Y-22913555D01*
X16663555Y-22993183D01*
X16651786Y-23009382D01*
X16600661Y-23109719D01*
X16594473Y-23128763D01*
X16576857Y-23239988D01*
X16576857Y-23260012D01*
X194500Y-23260012D01*
X194500Y-14760012D01*
X6326857Y-14760012D01*
X6344473Y-14871237D01*
X6350661Y-14890281D01*
X6401786Y-14990618D01*
X6413555Y-15006817D01*
X6493183Y-15086445D01*
X6509382Y-15098214D01*
X6609719Y-15149339D01*
X6628763Y-15155527D01*
X6739988Y-15173143D01*
X6760012Y-15173143D01*
X6871237Y-15155527D01*
X6890281Y-15149339D01*
X6990618Y-15098214D01*
X7006817Y-15086445D01*
X7086445Y-15006817D01*
X7098214Y-14990618D01*
X7149339Y-14890281D01*
X7155527Y-14871237D01*
X7173143Y-14760012D01*
X7173143Y-14739988D01*
X7155527Y-14628763D01*
X7149339Y-14609719D01*
X7098214Y-14509382D01*
X7086445Y-14493183D01*
X7006817Y-14413555D01*
X6990618Y-14401786D01*
X6890281Y-14350661D01*
X6871237Y-14344473D01*
X6760012Y-14326857D01*
X6739988Y-14326857D01*
X6628763Y-14344473D01*
X6609719Y-14350661D01*
X6509382Y-14401786D01*
X6493183Y-14413555D01*
X6413555Y-14493183D01*
X6401786Y-14509382D01*
X6350661Y-14609719D01*
X6344473Y-14628763D01*
X6326857Y-14739988D01*
X6326857Y-14760012D01*
X194500Y-14760012D01*
X194500Y-13260012D01*
X9076857Y-13260012D01*
X9094473Y-13371237D01*
X9100661Y-13390281D01*
X9151786Y-13490618D01*
X9163555Y-13506817D01*
X9243183Y-13586445D01*
X9259382Y-13598214D01*
X9359719Y-13649339D01*
X9378763Y-13655527D01*
X9489988Y-13673143D01*
X9510012Y-13673143D01*
X9621237Y-13655527D01*
X9640281Y-13649339D01*
X9740618Y-13598214D01*
X9756817Y-13586445D01*
X9833762Y-13509500D01*
X10142511Y-13509500D01*
X18373511Y-21740500D01*
X15833762Y-21740500D01*
X15756817Y-21663555D01*
X15740618Y-21651786D01*
X15640281Y-21600661D01*
X15621237Y-21594473D01*
X15510012Y-21576857D01*
X15489988Y-21576857D01*
X15378763Y-21594473D01*
X15359719Y-21600661D01*
X15259382Y-21651786D01*
X15243183Y-21663555D01*
X15163555Y-21743183D01*
X15151786Y-21759382D01*
X15100661Y-21859719D01*
X15094473Y-21878763D01*
X15076857Y-21989988D01*
X15076857Y-22010012D01*
X15094473Y-22121237D01*
X15100661Y-22140281D01*
X15151786Y-22240618D01*
X15163555Y-22256817D01*
X15243183Y-22336445D01*
X15259382Y-22348214D01*
X15359719Y-22399339D01*
X15378763Y-22405527D01*
X15489988Y-22423143D01*
X15510012Y-22423143D01*
X15621237Y-22405527D01*
X15640281Y-22399339D01*
X15740618Y-22348214D01*
X15756817Y-22336445D01*
X15833762Y-22259500D01*
X18392511Y-22259500D01*
X20625210Y-24492199D01*
X20625372Y-24492536D01*
X20643093Y-24514815D01*
X20666724Y-24533713D01*
X20672092Y-24539081D01*
X20683287Y-24548010D01*
X20689432Y-24551873D01*
X20712753Y-24570522D01*
X20738380Y-24582911D01*
X20739067Y-24583069D01*
X20739667Y-24583446D01*
X20766535Y-24592854D01*
X20796208Y-24596208D01*
X20803439Y-24597871D01*
X20817785Y-24599500D01*
X20825326Y-24599500D01*
X20855164Y-24602873D01*
X20883452Y-24599700D01*
X20884025Y-24599500D01*
X35224247Y-24599500D01*
X29833248Y-29990500D01*
X22083762Y-29990500D01*
X22006817Y-29913555D01*
X21990618Y-29901786D01*
X21890281Y-29850661D01*
X21871237Y-29844473D01*
X21760012Y-29826857D01*
X21739988Y-29826857D01*
X21628763Y-29844473D01*
X21609719Y-29850661D01*
X21509382Y-29901786D01*
X21493183Y-29913555D01*
X21413555Y-29993183D01*
X21401786Y-30009382D01*
X21350661Y-30109719D01*
X21344473Y-30128763D01*
X21326857Y-30239988D01*
X21326857Y-30260012D01*
X21339436Y-30339436D01*
X21260012Y-30326857D01*
X21239988Y-30326857D01*
X21128763Y-30344473D01*
X21109719Y-30350661D01*
X21009382Y-30401786D01*
X20993183Y-30413555D01*
X20913555Y-30493183D01*
X20901786Y-30509382D01*
X20850661Y-30609719D01*
X20844473Y-30628763D01*
X20826857Y-30739988D01*
X20826857Y-30760012D01*
X20844473Y-30871237D01*
X20850661Y-30890281D01*
X20901726Y-30990500D01*
X20083762Y-30990500D01*
X20006817Y-30913555D01*
X19990618Y-30901786D01*
X19890281Y-30850661D01*
X19871237Y-30844473D01*
X19760012Y-30826857D01*
X19739988Y-30826857D01*
X19628763Y-30844473D01*
X19609719Y-30850661D01*
X19509382Y-30901786D01*
X19493183Y-30913555D01*
X19413555Y-30993183D01*
X19401786Y-31009382D01*
X19350661Y-31109719D01*
X19344473Y-31128763D01*
X19326857Y-31239988D01*
X19326857Y-31260012D01*
X19344473Y-31371237D01*
X19350661Y-31390281D01*
X19401786Y-31490618D01*
X19413555Y-31506817D01*
X19493183Y-31586445D01*
X19509382Y-31598214D01*
X19609719Y-31649339D01*
X19628763Y-31655527D01*
X19739988Y-31673143D01*
X19760012Y-31673143D01*
X19871237Y-31655527D01*
X19890281Y-31649339D01*
X19990618Y-31598214D01*
X20006817Y-31586445D01*
X20083762Y-31509500D01*
X29417336Y-31509500D01*
X29186336Y-31740500D01*
X20583762Y-31740500D01*
X20506817Y-31663555D01*
X20490618Y-31651786D01*
X20390281Y-31600661D01*
X20371237Y-31594473D01*
X20260012Y-31576857D01*
X20239988Y-31576857D01*
X20128763Y-31594473D01*
X20109719Y-31600661D01*
X20009382Y-31651786D01*
X19993183Y-31663555D01*
X19913555Y-31743183D01*
X19901786Y-31759382D01*
X19850661Y-31859719D01*
X19844473Y-31878763D01*
X19826857Y-31989988D01*
X19826857Y-32010012D01*
X19844473Y-32121237D01*
X19850661Y-32140281D01*
X19901786Y-32240618D01*
X19913555Y-32256817D01*
X19993183Y-32336445D01*
X20009382Y-32348214D01*
X20109719Y-32399339D01*
X20128763Y-32405527D01*
X20239988Y-32423143D01*
X20260012Y-32423143D01*
X20371237Y-32405527D01*
X20390281Y-32399339D01*
X20490618Y-32348214D01*
X20506817Y-32336445D01*
X20583762Y-32259500D01*
X29035032Y-32259500D01*
X28804032Y-32490500D01*
X17083762Y-32490500D01*
X17006817Y-32413555D01*
X16990618Y-32401786D01*
X16890281Y-32350661D01*
X16871237Y-32344473D01*
X16760012Y-32326857D01*
X16739988Y-32326857D01*
X16628763Y-32344473D01*
X16609719Y-32350661D01*
X16509382Y-32401786D01*
X16493183Y-32413555D01*
X16413555Y-32493183D01*
X16401786Y-32509382D01*
X16350661Y-32609719D01*
X16344473Y-32628763D01*
X16326857Y-32739988D01*
X16326857Y-32760012D01*
X16344473Y-32871237D01*
X16350661Y-32890281D01*
X16401786Y-32990618D01*
X16413555Y-33006817D01*
X16493183Y-33086445D01*
X16509382Y-33098214D01*
X16609719Y-33149339D01*
X16628763Y-33155527D01*
X16739988Y-33173143D01*
X16760012Y-33173143D01*
X16839436Y-33160564D01*
X16826857Y-33239988D01*
X16826857Y-33260012D01*
X16844473Y-33371237D01*
X16850661Y-33390281D01*
X16901786Y-33490618D01*
X16913555Y-33506817D01*
X16993183Y-33586445D01*
X17009382Y-33598214D01*
X17109719Y-33649339D01*
X17128763Y-33655527D01*
X17239988Y-33673143D01*
X17260012Y-33673143D01*
X17339436Y-33660564D01*
X17326857Y-33739988D01*
X17326857Y-33760012D01*
X17344473Y-33871237D01*
X17350661Y-33890281D01*
X17401786Y-33990618D01*
X17413555Y-34006817D01*
X17493183Y-34086445D01*
X17509382Y-34098214D01*
X17609719Y-34149339D01*
X17628763Y-34155527D01*
X17739988Y-34173143D01*
X17760012Y-34173143D01*
X17871237Y-34155527D01*
X17890281Y-34149339D01*
X17990618Y-34098214D01*
X18006817Y-34086445D01*
X18083762Y-34009500D01*
X23401726Y-34009500D01*
X23350661Y-34109719D01*
X23344473Y-34128763D01*
X23326857Y-34239988D01*
X23326857Y-34260012D01*
X23344473Y-34371237D01*
X23350661Y-34390281D01*
X23401786Y-34490618D01*
X23413555Y-34506817D01*
X23493183Y-34586445D01*
X23509382Y-34598214D01*
X23609719Y-34649339D01*
X23628763Y-34655527D01*
X23739988Y-34673143D01*
X23760012Y-34673143D01*
X23871237Y-34655527D01*
X23890281Y-34649339D01*
X23990618Y-34598214D01*
X24006817Y-34586445D01*
X24083762Y-34509500D01*
X28255816Y-34509500D01*
X28024816Y-34740500D01*
X25083762Y-34740500D01*
X25006817Y-34663555D01*
X24990618Y-34651786D01*
X24890281Y-34600661D01*
X24871237Y-34594473D01*
X24760012Y-34576857D01*
X24739988Y-34576857D01*
X24628763Y-34594473D01*
X24609719Y-34600661D01*
X24509382Y-34651786D01*
X24493183Y-34663555D01*
X24413555Y-34743183D01*
X24401786Y-34759382D01*
X24350661Y-34859719D01*
X24344473Y-34878763D01*
X24326857Y-34989988D01*
X24326857Y-35010012D01*
X24344473Y-35121237D01*
X24350661Y-35140281D01*
X24401786Y-35240618D01*
X24413555Y-35256817D01*
X24493183Y-35336445D01*
X24509382Y-35348214D01*
X24609719Y-35399339D01*
X24628763Y-35405527D01*
X24739988Y-35423143D01*
X24760012Y-35423143D01*
X24871237Y-35405527D01*
X24890281Y-35399339D01*
X24990618Y-35348214D01*
X25006817Y-35336445D01*
X25083762Y-35259500D01*
X27873512Y-35259500D01*
X27642512Y-35490500D01*
X26083762Y-35490500D01*
X26006817Y-35413555D01*
X25990618Y-35401786D01*
X25890281Y-35350661D01*
X25871237Y-35344473D01*
X25760012Y-35326857D01*
X25739988Y-35326857D01*
X25628763Y-35344473D01*
X25609719Y-35350661D01*
X25509382Y-35401786D01*
X25493183Y-35413555D01*
X25413555Y-35493183D01*
X25401786Y-35509382D01*
X25350661Y-35609719D01*
X25344473Y-35628763D01*
X25326857Y-35739988D01*
X25326857Y-35760012D01*
X25344473Y-35871237D01*
X25350661Y-35890281D01*
X25401726Y-35990500D01*
X24583762Y-35990500D01*
X24506817Y-35913555D01*
X24490618Y-35901786D01*
X24390281Y-35850661D01*
X24371237Y-35844473D01*
X24260012Y-35826857D01*
X24239988Y-35826857D01*
X24128763Y-35844473D01*
X24109719Y-35850661D01*
X24009382Y-35901786D01*
X23993183Y-35913555D01*
X23913555Y-35993183D01*
X23901786Y-36009382D01*
X23850661Y-36109719D01*
X23844473Y-36128763D01*
X23826857Y-36239988D01*
X23826857Y-36260012D01*
X23844473Y-36371237D01*
X23850661Y-36390281D01*
X23901726Y-36490500D01*
X23583762Y-36490500D01*
X23506817Y-36413555D01*
X23490618Y-36401786D01*
X23390281Y-36350661D01*
X23371237Y-36344473D01*
X23260012Y-36326857D01*
X23239988Y-36326857D01*
X23128763Y-36344473D01*
X23109719Y-36350661D01*
X23009382Y-36401786D01*
X22993183Y-36413555D01*
X22913555Y-36493183D01*
X22901786Y-36509382D01*
X22850661Y-36609719D01*
X22844473Y-36628763D01*
X22826857Y-36739988D01*
X22826857Y-36760012D01*
X22839436Y-36839436D01*
X22760012Y-36826857D01*
X22739988Y-36826857D01*
X22628763Y-36844473D01*
X22609719Y-36850661D01*
X22509382Y-36901786D01*
X22493183Y-36913555D01*
X22413555Y-36993183D01*
X22401786Y-37009382D01*
X22350661Y-37109719D01*
X22344473Y-37128763D01*
X22326857Y-37239988D01*
X22326857Y-37260012D01*
X22344473Y-37371237D01*
X22350661Y-37390281D01*
X22401726Y-37490500D01*
X21083762Y-37490500D01*
X21006817Y-37413555D01*
X20990618Y-37401786D01*
X20890281Y-37350661D01*
X20871237Y-37344473D01*
X20760012Y-37326857D01*
X20739988Y-37326857D01*
X20628763Y-37344473D01*
X20609719Y-37350661D01*
X20509382Y-37401786D01*
X20493183Y-37413555D01*
X20413555Y-37493183D01*
X20401786Y-37509382D01*
X20350661Y-37609719D01*
X20344473Y-37628763D01*
X20326857Y-37739988D01*
X20326857Y-37760012D01*
X20344473Y-37871237D01*
X20350661Y-37890281D01*
X20401786Y-37990618D01*
X20413555Y-38006817D01*
X20493183Y-38086445D01*
X20509382Y-38098214D01*
X20609719Y-38149339D01*
X20628763Y-38155527D01*
X20739988Y-38173143D01*
X20760012Y-38173143D01*
X20871237Y-38155527D01*
X20890281Y-38149339D01*
X20990618Y-38098214D01*
X21006817Y-38086445D01*
X21083762Y-38009500D01*
X21901726Y-38009500D01*
X21850661Y-38109719D01*
X21844473Y-38128763D01*
X21826857Y-38239988D01*
X21826857Y-38260012D01*
X21844473Y-38371237D01*
X21850661Y-38390281D01*
X21901726Y-38490500D01*
X19083762Y-38490500D01*
X19006817Y-38413555D01*
X18990618Y-38401786D01*
X18890281Y-38350661D01*
X18871237Y-38344473D01*
X18760012Y-38326857D01*
X18739988Y-38326857D01*
X18628763Y-38344473D01*
X18609719Y-38350661D01*
X18509382Y-38401786D01*
X18493183Y-38413555D01*
X18413555Y-38493183D01*
X18401786Y-38509382D01*
X18350661Y-38609719D01*
X18344473Y-38628763D01*
X18326857Y-38739988D01*
X18326857Y-38760012D01*
X18344473Y-38871237D01*
X18350661Y-38890281D01*
X18401786Y-38990618D01*
X18413555Y-39006817D01*
X18493183Y-39086445D01*
X18509382Y-39098214D01*
X18609719Y-39149339D01*
X18628763Y-39155527D01*
X18739988Y-39173143D01*
X18760012Y-39173143D01*
X18839436Y-39160564D01*
X18826857Y-39239988D01*
X18826857Y-39260012D01*
X18844473Y-39371237D01*
X18850661Y-39390281D01*
X18901726Y-39490500D01*
X18583762Y-39490500D01*
X18506817Y-39413555D01*
X18490618Y-39401786D01*
X18390281Y-39350661D01*
X18371237Y-39344473D01*
X18260012Y-39326857D01*
X18239988Y-39326857D01*
X18128763Y-39344473D01*
X18109719Y-39350661D01*
X18009382Y-39401786D01*
X17993183Y-39413555D01*
X17913555Y-39493183D01*
X17901786Y-39509382D01*
X17850661Y-39609719D01*
X17844473Y-39628763D01*
X17826857Y-39739988D01*
X17826857Y-39760012D01*
X17844473Y-39871237D01*
X17850661Y-39890281D01*
X17901786Y-39990618D01*
X17913555Y-40006817D01*
X17993183Y-40086445D01*
X18009382Y-40098214D01*
X18109719Y-40149339D01*
X18128763Y-40155527D01*
X18239988Y-40173143D01*
X18260012Y-40173143D01*
X18371237Y-40155527D01*
X18390281Y-40149339D01*
X18490618Y-40098214D01*
X18506817Y-40086445D01*
X18583762Y-40009500D01*
X25901726Y-40009500D01*
X25850661Y-40109719D01*
X25844473Y-40128763D01*
X25826857Y-40239988D01*
X25826857Y-40260012D01*
X25844473Y-40371237D01*
X25850661Y-40390281D01*
X25901786Y-40490618D01*
X25913555Y-40506817D01*
X25993183Y-40586445D01*
X26009382Y-40598214D01*
X26109719Y-40649339D01*
X26128763Y-40655527D01*
X26239988Y-40673143D01*
X26260012Y-40673143D01*
X26371237Y-40655527D01*
X26390281Y-40649339D01*
X26490618Y-40598214D01*
X26506817Y-40586445D01*
X26583762Y-40509500D01*
X28580741Y-40509500D01*
X28581094Y-40509624D01*
X28609378Y-40512846D01*
X28639445Y-40509500D01*
X28647042Y-40509500D01*
X28661275Y-40507897D01*
X28668346Y-40506284D01*
X28698026Y-40502981D01*
X28724910Y-40493619D01*
X28725509Y-40493244D01*
X28726193Y-40493088D01*
X28751845Y-40480743D01*
X28775193Y-40462138D01*
X28781494Y-40458193D01*
X28792786Y-40449203D01*
X28798121Y-40443868D01*
X28821602Y-40425157D01*
X28839361Y-40402911D01*
X28839625Y-40402364D01*
X37661739Y-31580250D01*
X37739989Y-31592643D01*
X37760012Y-31592643D01*
X37871237Y-31575027D01*
X37890281Y-31568839D01*
X37990618Y-31517714D01*
X38006817Y-31505945D01*
X38086445Y-31426317D01*
X38098214Y-31410118D01*
X38149339Y-31309781D01*
X38155527Y-31290737D01*
X38160393Y-31260012D01*
X40326857Y-31260012D01*
X40344473Y-31371237D01*
X40350661Y-31390281D01*
X40401786Y-31490618D01*
X40413555Y-31506817D01*
X40493183Y-31586445D01*
X40509382Y-31598214D01*
X40609719Y-31649339D01*
X40628763Y-31655527D01*
X40739988Y-31673143D01*
X40760012Y-31673143D01*
X40871237Y-31655527D01*
X40890281Y-31649339D01*
X40990618Y-31598214D01*
X41006817Y-31586445D01*
X41086445Y-31506817D01*
X41098214Y-31490618D01*
X41149339Y-31390281D01*
X41155527Y-31371237D01*
X41173143Y-31260012D01*
X41173143Y-31239988D01*
X41155527Y-31128763D01*
X41149339Y-31109719D01*
X41098214Y-31009382D01*
X41086445Y-30993183D01*
X41006817Y-30913555D01*
X40990618Y-30901786D01*
X40890281Y-30850661D01*
X40871237Y-30844473D01*
X40760012Y-30826857D01*
X40739988Y-30826857D01*
X40628763Y-30844473D01*
X40609719Y-30850661D01*
X40509382Y-30901786D01*
X40493183Y-30913555D01*
X40413555Y-30993183D01*
X40401786Y-31009382D01*
X40350661Y-31109719D01*
X40344473Y-31128763D01*
X40326857Y-31239988D01*
X40326857Y-31260012D01*
X38160393Y-31260012D01*
X38173143Y-31179512D01*
X38173143Y-31159488D01*
X38155527Y-31048263D01*
X38149339Y-31029219D01*
X38139292Y-31009500D01*
X38916238Y-31009500D01*
X38993183Y-31086445D01*
X39009382Y-31098214D01*
X39109719Y-31149339D01*
X39128763Y-31155527D01*
X39239988Y-31173143D01*
X39260012Y-31173143D01*
X39371237Y-31155527D01*
X39390281Y-31149339D01*
X39490618Y-31098214D01*
X39506817Y-31086445D01*
X39586445Y-31006817D01*
X39598214Y-30990618D01*
X39649339Y-30890281D01*
X39655527Y-30871237D01*
X39673143Y-30760012D01*
X39673143Y-30739988D01*
X39655527Y-30628763D01*
X39649339Y-30609719D01*
X39598274Y-30509500D01*
X40416238Y-30509500D01*
X40493183Y-30586445D01*
X40509382Y-30598214D01*
X40609719Y-30649339D01*
X40628763Y-30655527D01*
X40739988Y-30673143D01*
X40760012Y-30673143D01*
X40871237Y-30655527D01*
X40890281Y-30649339D01*
X40990618Y-30598214D01*
X41006817Y-30586445D01*
X41086445Y-30506817D01*
X41098214Y-30490618D01*
X41149339Y-30390281D01*
X41155527Y-30371237D01*
X41173143Y-30260012D01*
X41173143Y-30239988D01*
X41155527Y-30128763D01*
X41149339Y-30109719D01*
X41098214Y-30009382D01*
X41086445Y-29993183D01*
X41006817Y-29913555D01*
X40990618Y-29901786D01*
X40890281Y-29850661D01*
X40871237Y-29844473D01*
X40760012Y-29826857D01*
X40739988Y-29826857D01*
X40628763Y-29844473D01*
X40609719Y-29850661D01*
X40509382Y-29901786D01*
X40493183Y-29913555D01*
X40416238Y-29990500D01*
X39598274Y-29990500D01*
X39649339Y-29890281D01*
X39655527Y-29871237D01*
X39673143Y-29760012D01*
X39673143Y-29739988D01*
X39655527Y-29628763D01*
X39649339Y-29609719D01*
X39598214Y-29509382D01*
X39586445Y-29493183D01*
X39506817Y-29413555D01*
X39490618Y-29401786D01*
X39390281Y-29350661D01*
X39371237Y-29344473D01*
X39260012Y-29326857D01*
X39239989Y-29326857D01*
X39202908Y-29332730D01*
X39196907Y-29325185D01*
X39173271Y-29306283D01*
X39167908Y-29300920D01*
X39156711Y-29291990D01*
X39150578Y-29288135D01*
X39127248Y-29269478D01*
X39106607Y-29259500D01*
X40326857Y-29259500D01*
X40326857Y-29260012D01*
X40344473Y-29371237D01*
X40350661Y-29390281D01*
X40401786Y-29490618D01*
X40413555Y-29506817D01*
X40493183Y-29586445D01*
X40509382Y-29598214D01*
X40609719Y-29649339D01*
X40628763Y-29655527D01*
X40739988Y-29673143D01*
X40760012Y-29673143D01*
X40871237Y-29655527D01*
X40890281Y-29649339D01*
X40990618Y-29598214D01*
X41006817Y-29586445D01*
X41086445Y-29506817D01*
X41098214Y-29490618D01*
X41149339Y-29390281D01*
X41155527Y-29371237D01*
X41173143Y-29260012D01*
X41173143Y-29239988D01*
X41155527Y-29128763D01*
X41149339Y-29109719D01*
X41098214Y-29009382D01*
X41086445Y-28993183D01*
X41006817Y-28913555D01*
X40990618Y-28901786D01*
X40890281Y-28850661D01*
X40871237Y-28844473D01*
X40760012Y-28826857D01*
X40739989Y-28826857D01*
X40702908Y-28832730D01*
X40696907Y-28825185D01*
X40673271Y-28806283D01*
X40667908Y-28800920D01*
X40656711Y-28791990D01*
X40650578Y-28788135D01*
X40627248Y-28769478D01*
X40601620Y-28757089D01*
X40600933Y-28756931D01*
X40600333Y-28756554D01*
X40573465Y-28747146D01*
X40543792Y-28743792D01*
X40536561Y-28742129D01*
X40522215Y-28740500D01*
X40514674Y-28740500D01*
X40484836Y-28737127D01*
X40456548Y-28740300D01*
X40455975Y-28740500D01*
X38173143Y-28740500D01*
X38173143Y-28739988D01*
X38155527Y-28628763D01*
X38149339Y-28609719D01*
X38098214Y-28509382D01*
X38086445Y-28493183D01*
X38006817Y-28413555D01*
X37990618Y-28401786D01*
X37945899Y-28379000D01*
X40416238Y-28379000D01*
X40493183Y-28455945D01*
X40509382Y-28467714D01*
X40609719Y-28518839D01*
X40628763Y-28525027D01*
X40739988Y-28542643D01*
X40760012Y-28542643D01*
X40871237Y-28525027D01*
X40890281Y-28518839D01*
X40990618Y-28467714D01*
X41006817Y-28455945D01*
X41086445Y-28376317D01*
X41098214Y-28360118D01*
X41149339Y-28259781D01*
X41155527Y-28240737D01*
X41173143Y-28129512D01*
X41173143Y-28109488D01*
X41155527Y-27998263D01*
X41149339Y-27979219D01*
X41098214Y-27878882D01*
X41086445Y-27862683D01*
X41006817Y-27783055D01*
X40990618Y-27771286D01*
X40890281Y-27720161D01*
X40871237Y-27713973D01*
X40760012Y-27696357D01*
X40739988Y-27696357D01*
X40628763Y-27713973D01*
X40609719Y-27720161D01*
X40509382Y-27771286D01*
X40493183Y-27783055D01*
X40416238Y-27860000D01*
X39467487Y-27860000D01*
X39490618Y-27848214D01*
X39506817Y-27836445D01*
X39586445Y-27756817D01*
X39598214Y-27740618D01*
X39649339Y-27640281D01*
X39655527Y-27621237D01*
X39673143Y-27510012D01*
X39673143Y-27489988D01*
X39655527Y-27378763D01*
X39649339Y-27359719D01*
X39598214Y-27259382D01*
X39586445Y-27243183D01*
X39506817Y-27163555D01*
X39490618Y-27151786D01*
X39390281Y-27100661D01*
X39371237Y-27094473D01*
X39260012Y-27076857D01*
X39239988Y-27076857D01*
X39128763Y-27094473D01*
X39109719Y-27100661D01*
X39009382Y-27151786D01*
X38993183Y-27163555D01*
X38913555Y-27243183D01*
X38901786Y-27259382D01*
X38850661Y-27359719D01*
X38844473Y-27378764D01*
X38839447Y-27410500D01*
X38139037Y-27410500D01*
X38149339Y-27390281D01*
X38155527Y-27371237D01*
X38173143Y-27260012D01*
X38173143Y-27239988D01*
X38155527Y-27128763D01*
X38149339Y-27109719D01*
X38098214Y-27009382D01*
X38086445Y-26993183D01*
X38006817Y-26913555D01*
X37990618Y-26901786D01*
X37890281Y-26850661D01*
X37871237Y-26844473D01*
X37760012Y-26826857D01*
X37739988Y-26826857D01*
X37628763Y-26844473D01*
X37609719Y-26850661D01*
X37509382Y-26901786D01*
X37497388Y-26910500D01*
X36391352Y-26910500D01*
X36401654Y-26890281D01*
X36407842Y-26871237D01*
X36425458Y-26760012D01*
X36425458Y-26739988D01*
X36407842Y-26628763D01*
X36401654Y-26609719D01*
X36355684Y-26519500D01*
X37308541Y-26519500D01*
X37361240Y-26572198D01*
X37361402Y-26572536D01*
X37379123Y-26594815D01*
X37402759Y-26613717D01*
X37408122Y-26619080D01*
X37419321Y-26628011D01*
X37425456Y-26631867D01*
X37448782Y-26650521D01*
X37474412Y-26662911D01*
X37475099Y-26663069D01*
X37475696Y-26663444D01*
X37502564Y-26672853D01*
X37532229Y-26676207D01*
X37539471Y-26677872D01*
X37553815Y-26679500D01*
X37561357Y-26679500D01*
X37591193Y-26682873D01*
X37619482Y-26679700D01*
X37620055Y-26679500D01*
X39035741Y-26679500D01*
X39036094Y-26679624D01*
X39064378Y-26682846D01*
X39094445Y-26679500D01*
X39102042Y-26679500D01*
X39116275Y-26677897D01*
X39123346Y-26676284D01*
X39153026Y-26672981D01*
X39179893Y-26663625D01*
X39239989Y-26673143D01*
X39260012Y-26673143D01*
X39371237Y-26655527D01*
X39390281Y-26649339D01*
X39490618Y-26598214D01*
X39506817Y-26586445D01*
X39586445Y-26506817D01*
X39598214Y-26490618D01*
X39649339Y-26390281D01*
X39655527Y-26371237D01*
X39673143Y-26260012D01*
X39673143Y-26239988D01*
X39655527Y-26128763D01*
X39649339Y-26109719D01*
X39598274Y-26009500D01*
X40416238Y-26009500D01*
X40493183Y-26086445D01*
X40509382Y-26098214D01*
X40609719Y-26149339D01*
X40628763Y-26155527D01*
X40739988Y-26173143D01*
X40760012Y-26173143D01*
X40871237Y-26155527D01*
X40890281Y-26149339D01*
X40990500Y-26098274D01*
X40990500Y-26642511D01*
X40799845Y-26833166D01*
X40760012Y-26826857D01*
X40739988Y-26826857D01*
X40628763Y-26844473D01*
X40609719Y-26850661D01*
X40509382Y-26901786D01*
X40493183Y-26913555D01*
X40413555Y-26993183D01*
X40401786Y-27009382D01*
X40350661Y-27109719D01*
X40344473Y-27128763D01*
X40326857Y-27239988D01*
X40326857Y-27260012D01*
X40344473Y-27371237D01*
X40350661Y-27390281D01*
X40401786Y-27490618D01*
X40413555Y-27506817D01*
X40493183Y-27586445D01*
X40509382Y-27598214D01*
X40609719Y-27649339D01*
X40628763Y-27655527D01*
X40739988Y-27673143D01*
X40760012Y-27673143D01*
X40871237Y-27655527D01*
X40890281Y-27649339D01*
X40990618Y-27598214D01*
X41006817Y-27586445D01*
X41086445Y-27506817D01*
X41098214Y-27490618D01*
X41149339Y-27390281D01*
X41155527Y-27371237D01*
X41173143Y-27260012D01*
X41173143Y-27239988D01*
X41166834Y-27200155D01*
X41402199Y-26964790D01*
X41402536Y-26964628D01*
X41424815Y-26946907D01*
X41443713Y-26923276D01*
X41449081Y-26917908D01*
X41458010Y-26906713D01*
X41461873Y-26900568D01*
X41480522Y-26877247D01*
X41492911Y-26851620D01*
X41493069Y-26850933D01*
X41493446Y-26850333D01*
X41502854Y-26823465D01*
X41506208Y-26793792D01*
X41507871Y-26786561D01*
X41509500Y-26772215D01*
X41509500Y-26764674D01*
X41512873Y-26734836D01*
X41509700Y-26706548D01*
X41509500Y-26705975D01*
X41509500Y-24720289D01*
X41509624Y-24719936D01*
X41512846Y-24691652D01*
X41509500Y-24661585D01*
X41509500Y-24653988D01*
X41507897Y-24639755D01*
X41506284Y-24632684D01*
X41502981Y-24603004D01*
X41493619Y-24576120D01*
X41493244Y-24575521D01*
X41493088Y-24574837D01*
X41480743Y-24549185D01*
X41462138Y-24525837D01*
X41458193Y-24519536D01*
X41449203Y-24508244D01*
X41443869Y-24502910D01*
X41425157Y-24479428D01*
X41402911Y-24461669D01*
X41402364Y-24461405D01*
X41128761Y-24187803D01*
X41128598Y-24187464D01*
X41110877Y-24165185D01*
X41087241Y-24146283D01*
X41081878Y-24140920D01*
X41070681Y-24131990D01*
X41064548Y-24128135D01*
X41041218Y-24109478D01*
X41020354Y-24099392D01*
X41576857Y-24099392D01*
X41594473Y-24210617D01*
X41600661Y-24229661D01*
X41651786Y-24329998D01*
X41663555Y-24346197D01*
X41743183Y-24425825D01*
X41759382Y-24437594D01*
X41859719Y-24488719D01*
X41878763Y-24494907D01*
X41989988Y-24512523D01*
X42010012Y-24512523D01*
X42121237Y-24494907D01*
X42140281Y-24488719D01*
X42240618Y-24437594D01*
X42256817Y-24425825D01*
X42336445Y-24346197D01*
X42348214Y-24329998D01*
X42399339Y-24229661D01*
X42405527Y-24210617D01*
X42423143Y-24099392D01*
X42423143Y-24079368D01*
X42405527Y-23968143D01*
X42399339Y-23949099D01*
X42348214Y-23848762D01*
X42336445Y-23832563D01*
X42256817Y-23752935D01*
X42240618Y-23741166D01*
X42140281Y-23690041D01*
X42121237Y-23683853D01*
X42010012Y-23666237D01*
X41989988Y-23666237D01*
X41878763Y-23683853D01*
X41859719Y-23690041D01*
X41759382Y-23741166D01*
X41743183Y-23752935D01*
X41663555Y-23832563D01*
X41651786Y-23848762D01*
X41600661Y-23949099D01*
X41594473Y-23968143D01*
X41576857Y-24079368D01*
X41576857Y-24099392D01*
X41020354Y-24099392D01*
X41015590Y-24097089D01*
X41014903Y-24096931D01*
X41014303Y-24096554D01*
X40987435Y-24087146D01*
X40957762Y-24083792D01*
X40950531Y-24082129D01*
X40936185Y-24080500D01*
X40928644Y-24080500D01*
X40898806Y-24077127D01*
X40870518Y-24080300D01*
X40869945Y-24080500D01*
X36625899Y-24080500D01*
X36635946Y-24060781D01*
X36642134Y-24041737D01*
X36659750Y-23930512D01*
X36659750Y-23910488D01*
X36642134Y-23799263D01*
X36635946Y-23780219D01*
X36584821Y-23679882D01*
X36573052Y-23663683D01*
X36493424Y-23584055D01*
X36477225Y-23572286D01*
X36376888Y-23521161D01*
X36357844Y-23514973D01*
X36246619Y-23497357D01*
X36226595Y-23497357D01*
X36115370Y-23514973D01*
X36096326Y-23521161D01*
X35995989Y-23572286D01*
X35979790Y-23584055D01*
X35900162Y-23663683D01*
X35888393Y-23679882D01*
X35857506Y-23740500D01*
X21107489Y-23740500D01*
X20627001Y-23260012D01*
X37326857Y-23260012D01*
X37344473Y-23371237D01*
X37350661Y-23390281D01*
X37401786Y-23490618D01*
X37413555Y-23506817D01*
X37493183Y-23586445D01*
X37509382Y-23598214D01*
X37609719Y-23649339D01*
X37628763Y-23655527D01*
X37739988Y-23673143D01*
X37760012Y-23673143D01*
X37871237Y-23655527D01*
X37890281Y-23649339D01*
X37990618Y-23598214D01*
X38006817Y-23586445D01*
X38083250Y-23510012D01*
X38826857Y-23510012D01*
X38844473Y-23621237D01*
X38850661Y-23640281D01*
X38901786Y-23740618D01*
X38913555Y-23756817D01*
X38993183Y-23836445D01*
X39009382Y-23848214D01*
X39109719Y-23899339D01*
X39128763Y-23905527D01*
X39239988Y-23923143D01*
X39260012Y-23923143D01*
X39371237Y-23905527D01*
X39390281Y-23899339D01*
X39490618Y-23848214D01*
X39506817Y-23836445D01*
X39586445Y-23756817D01*
X39598214Y-23740618D01*
X39649339Y-23640281D01*
X39655527Y-23621237D01*
X39673143Y-23510012D01*
X39673143Y-23489988D01*
X39655527Y-23378763D01*
X39649339Y-23359719D01*
X39598214Y-23259382D01*
X39586445Y-23243183D01*
X39506817Y-23163555D01*
X39490618Y-23151786D01*
X39438048Y-23125000D01*
X39490618Y-23098214D01*
X39506817Y-23086445D01*
X39586445Y-23006817D01*
X39598214Y-22990618D01*
X39649339Y-22890281D01*
X39655527Y-22871237D01*
X39673143Y-22760012D01*
X39673143Y-22739988D01*
X39655527Y-22628763D01*
X39649339Y-22609719D01*
X39598214Y-22509382D01*
X39586445Y-22493183D01*
X39506817Y-22413555D01*
X39490618Y-22401786D01*
X39390281Y-22350661D01*
X39371237Y-22344473D01*
X39260012Y-22326857D01*
X39239988Y-22326857D01*
X39128763Y-22344473D01*
X39109719Y-22350661D01*
X39009382Y-22401786D01*
X38993183Y-22413555D01*
X38913555Y-22493183D01*
X38901786Y-22509382D01*
X38850661Y-22609719D01*
X38844473Y-22628763D01*
X38826857Y-22739988D01*
X38826857Y-22760012D01*
X38844473Y-22871237D01*
X38850661Y-22890281D01*
X38901786Y-22990618D01*
X38913555Y-23006817D01*
X38993183Y-23086445D01*
X39009382Y-23098214D01*
X39061952Y-23125000D01*
X39009382Y-23151786D01*
X38993183Y-23163555D01*
X38913555Y-23243183D01*
X38901786Y-23259382D01*
X38850661Y-23359719D01*
X38844473Y-23378763D01*
X38826857Y-23489988D01*
X38826857Y-23510012D01*
X38083250Y-23510012D01*
X38086445Y-23506817D01*
X38098214Y-23490618D01*
X38149339Y-23390281D01*
X38155527Y-23371237D01*
X38173143Y-23260012D01*
X38173143Y-23239988D01*
X38155527Y-23128763D01*
X38149339Y-23109719D01*
X38098214Y-23009382D01*
X38086445Y-22993183D01*
X38006817Y-22913555D01*
X37990618Y-22901786D01*
X37890281Y-22850661D01*
X37871237Y-22844473D01*
X37760012Y-22826857D01*
X37739988Y-22826857D01*
X37628763Y-22844473D01*
X37609719Y-22850661D01*
X37509382Y-22901786D01*
X37493183Y-22913555D01*
X37413555Y-22993183D01*
X37401786Y-23009382D01*
X37350661Y-23109719D01*
X37344473Y-23128763D01*
X37326857Y-23239988D01*
X37326857Y-23260012D01*
X20627001Y-23260012D01*
X17077001Y-19710012D01*
X35026857Y-19710012D01*
X35044473Y-19821237D01*
X35050661Y-19840281D01*
X35101786Y-19940618D01*
X35113555Y-19956817D01*
X35193183Y-20036445D01*
X35209382Y-20048214D01*
X35309719Y-20099339D01*
X35328763Y-20105527D01*
X35439988Y-20123143D01*
X35460012Y-20123143D01*
X35571237Y-20105527D01*
X35590281Y-20099339D01*
X35690618Y-20048214D01*
X35706817Y-20036445D01*
X35786445Y-19956817D01*
X35798214Y-19940618D01*
X35849339Y-19840281D01*
X35855527Y-19821237D01*
X35873143Y-19710012D01*
X35873143Y-19689988D01*
X35867084Y-19651732D01*
X35878763Y-19655527D01*
X35989988Y-19673143D01*
X36010012Y-19673143D01*
X36121237Y-19655527D01*
X36140281Y-19649339D01*
X36240618Y-19598214D01*
X36256817Y-19586445D01*
X36336445Y-19506817D01*
X36348214Y-19490618D01*
X36399339Y-19390281D01*
X36405527Y-19371237D01*
X36423143Y-19260012D01*
X36423143Y-19239988D01*
X36405527Y-19128763D01*
X36399339Y-19109719D01*
X36348214Y-19009382D01*
X36336445Y-18993183D01*
X36256817Y-18913555D01*
X36240618Y-18901786D01*
X36140281Y-18850661D01*
X36121237Y-18844473D01*
X36010012Y-18826857D01*
X35989988Y-18826857D01*
X35878763Y-18844473D01*
X35859719Y-18850661D01*
X35759382Y-18901786D01*
X35743183Y-18913555D01*
X35663555Y-18993183D01*
X35651786Y-19009382D01*
X35600661Y-19109719D01*
X35594473Y-19128763D01*
X35576857Y-19239988D01*
X35576857Y-19260012D01*
X35582916Y-19298268D01*
X35571237Y-19294473D01*
X35460012Y-19276857D01*
X35439988Y-19276857D01*
X35328763Y-19294473D01*
X35309719Y-19300661D01*
X35209382Y-19351786D01*
X35193183Y-19363555D01*
X35113555Y-19443183D01*
X35101786Y-19459382D01*
X35050661Y-19559719D01*
X35044473Y-19578763D01*
X35026857Y-19689988D01*
X35026857Y-19710012D01*
X17077001Y-19710012D01*
X12377000Y-15010012D01*
X26076857Y-15010012D01*
X26094473Y-15121237D01*
X26100661Y-15140281D01*
X26151786Y-15240618D01*
X26163555Y-15256817D01*
X26243183Y-15336445D01*
X26259382Y-15348214D01*
X26359719Y-15399339D01*
X26378763Y-15405527D01*
X26489988Y-15423143D01*
X26510012Y-15423143D01*
X26621237Y-15405527D01*
X26640281Y-15399339D01*
X26740618Y-15348214D01*
X26756817Y-15336445D01*
X26836445Y-15256817D01*
X26848214Y-15240618D01*
X26899339Y-15140281D01*
X26905527Y-15121237D01*
X26923143Y-15010012D01*
X26923143Y-14989988D01*
X26905527Y-14878763D01*
X26899339Y-14859719D01*
X26848214Y-14759382D01*
X26836445Y-14743183D01*
X26756817Y-14663555D01*
X26740618Y-14651786D01*
X26640281Y-14600661D01*
X26621237Y-14594473D01*
X26510012Y-14576857D01*
X26489988Y-14576857D01*
X26378763Y-14594473D01*
X26359719Y-14600661D01*
X26259382Y-14651786D01*
X26243183Y-14663555D01*
X26163555Y-14743183D01*
X26151786Y-14759382D01*
X26100661Y-14859719D01*
X26094473Y-14878763D01*
X26076857Y-14989988D01*
X26076857Y-15010012D01*
X12377000Y-15010012D01*
X11127000Y-13760012D01*
X36576857Y-13760012D01*
X36594473Y-13871237D01*
X36600661Y-13890281D01*
X36651786Y-13990618D01*
X36663555Y-14006817D01*
X36740500Y-14083762D01*
X36740500Y-18955741D01*
X36740376Y-18956094D01*
X36737154Y-18984378D01*
X36740500Y-19014445D01*
X36740500Y-19022042D01*
X36742103Y-19036275D01*
X36743716Y-19043346D01*
X36747019Y-19073026D01*
X36756381Y-19099910D01*
X36756756Y-19100509D01*
X36756912Y-19101193D01*
X36769257Y-19126845D01*
X36787862Y-19150193D01*
X36791807Y-19156494D01*
X36800797Y-19167786D01*
X36806131Y-19173120D01*
X36824843Y-19196602D01*
X36847089Y-19214361D01*
X36847636Y-19214625D01*
X38705209Y-21072197D01*
X38705372Y-21072536D01*
X38723093Y-21094815D01*
X38746729Y-21113717D01*
X38752092Y-21119080D01*
X38763289Y-21128010D01*
X38769422Y-21131865D01*
X38792752Y-21150522D01*
X38818380Y-21162911D01*
X38819067Y-21163069D01*
X38819667Y-21163446D01*
X38846535Y-21172854D01*
X38876208Y-21176208D01*
X38883439Y-21177871D01*
X38897785Y-21179500D01*
X38905326Y-21179500D01*
X38935164Y-21182873D01*
X38963452Y-21179700D01*
X38964025Y-21179500D01*
X38977238Y-21179500D01*
X38913555Y-21243183D01*
X38901786Y-21259382D01*
X38850661Y-21359719D01*
X38844473Y-21378763D01*
X38827731Y-21484469D01*
X38756817Y-21413555D01*
X38740618Y-21401786D01*
X38640281Y-21350661D01*
X38621237Y-21344473D01*
X38510012Y-21326857D01*
X38489988Y-21326857D01*
X38378763Y-21344473D01*
X38359719Y-21350661D01*
X38259382Y-21401786D01*
X38243183Y-21413555D01*
X38163555Y-21493183D01*
X38151786Y-21509382D01*
X38100661Y-21609719D01*
X38094473Y-21628763D01*
X38076857Y-21739988D01*
X38076857Y-21760012D01*
X38094473Y-21871237D01*
X38100661Y-21890281D01*
X38151786Y-21990618D01*
X38163555Y-22006817D01*
X38243183Y-22086445D01*
X38259382Y-22098214D01*
X38359719Y-22149339D01*
X38378763Y-22155527D01*
X38489988Y-22173143D01*
X38510012Y-22173143D01*
X38621237Y-22155527D01*
X38640281Y-22149339D01*
X38740618Y-22098214D01*
X38756817Y-22086445D01*
X38836445Y-22006817D01*
X38848214Y-21990618D01*
X38899339Y-21890281D01*
X38905527Y-21871237D01*
X38922269Y-21765531D01*
X38993183Y-21836445D01*
X39009382Y-21848214D01*
X39109719Y-21899339D01*
X39128763Y-21905527D01*
X39239988Y-21923143D01*
X39260012Y-21923143D01*
X39371237Y-21905527D01*
X39390281Y-21899339D01*
X39490618Y-21848214D01*
X39506817Y-21836445D01*
X39586445Y-21756817D01*
X39598214Y-21740618D01*
X39649339Y-21640281D01*
X39655527Y-21621237D01*
X39673143Y-21510012D01*
X39673143Y-21489988D01*
X39655527Y-21378763D01*
X39649339Y-21359719D01*
X39598214Y-21259382D01*
X39586445Y-21243183D01*
X39522762Y-21179500D01*
X39643011Y-21179500D01*
X40413666Y-21950155D01*
X40407357Y-21989988D01*
X40407357Y-22010012D01*
X40424973Y-22121237D01*
X40431161Y-22140281D01*
X40482286Y-22240618D01*
X40494055Y-22256817D01*
X40573683Y-22336445D01*
X40589882Y-22348214D01*
X40690219Y-22399339D01*
X40709263Y-22405527D01*
X40820488Y-22423143D01*
X40840512Y-22423143D01*
X40951737Y-22405527D01*
X40970781Y-22399339D01*
X41071118Y-22348214D01*
X41087317Y-22336445D01*
X41166945Y-22256817D01*
X41178714Y-22240618D01*
X41229839Y-22140281D01*
X41236027Y-22121237D01*
X41253643Y-22010012D01*
X41253643Y-21989988D01*
X41236027Y-21878763D01*
X41229839Y-21859719D01*
X41178714Y-21759382D01*
X41166945Y-21743183D01*
X41087317Y-21663555D01*
X41071118Y-21651786D01*
X40970781Y-21600661D01*
X40951737Y-21594473D01*
X40840512Y-21576857D01*
X40820488Y-21576857D01*
X40780655Y-21583166D01*
X39965291Y-20767803D01*
X39965128Y-20767464D01*
X39947407Y-20745185D01*
X39923771Y-20726283D01*
X39918408Y-20720920D01*
X39907211Y-20711990D01*
X39901078Y-20708135D01*
X39877748Y-20689478D01*
X39852120Y-20677089D01*
X39851433Y-20676931D01*
X39850833Y-20676554D01*
X39823965Y-20667146D01*
X39794292Y-20663792D01*
X39787061Y-20662129D01*
X39772715Y-20660500D01*
X39765174Y-20660500D01*
X39735336Y-20657127D01*
X39707048Y-20660300D01*
X39706475Y-20660500D01*
X39639037Y-20660500D01*
X39649339Y-20640281D01*
X39655527Y-20621237D01*
X39673143Y-20510012D01*
X39673143Y-20489988D01*
X39655527Y-20378763D01*
X39649339Y-20359719D01*
X39598535Y-20260012D01*
X40326857Y-20260012D01*
X40344473Y-20371237D01*
X40350661Y-20390281D01*
X40401786Y-20490618D01*
X40413555Y-20506817D01*
X40493183Y-20586445D01*
X40509382Y-20598214D01*
X40609719Y-20649339D01*
X40628763Y-20655527D01*
X40739988Y-20673143D01*
X40760012Y-20673143D01*
X40871237Y-20655527D01*
X40890281Y-20649339D01*
X40990618Y-20598214D01*
X41006817Y-20586445D01*
X41086445Y-20506817D01*
X41098214Y-20490618D01*
X41149339Y-20390281D01*
X41155527Y-20371237D01*
X41173143Y-20260012D01*
X41173143Y-20239988D01*
X41155527Y-20128763D01*
X41149339Y-20109719D01*
X41098214Y-20009382D01*
X41086445Y-19993183D01*
X41006817Y-19913555D01*
X40990618Y-19901786D01*
X40890281Y-19850661D01*
X40871237Y-19844473D01*
X40760012Y-19826857D01*
X40739988Y-19826857D01*
X40628763Y-19844473D01*
X40609719Y-19850661D01*
X40509382Y-19901786D01*
X40493183Y-19913555D01*
X40413555Y-19993183D01*
X40401786Y-20009382D01*
X40350661Y-20109719D01*
X40344473Y-20128763D01*
X40326857Y-20239988D01*
X40326857Y-20260012D01*
X39598535Y-20260012D01*
X39598214Y-20259382D01*
X39586445Y-20243183D01*
X39506817Y-20163555D01*
X39490618Y-20151786D01*
X39438048Y-20125000D01*
X39490618Y-20098214D01*
X39506817Y-20086445D01*
X39586445Y-20006817D01*
X39598214Y-19990618D01*
X39649339Y-19890281D01*
X39655527Y-19871237D01*
X39673143Y-19760012D01*
X39673143Y-19739988D01*
X39655527Y-19628763D01*
X39649339Y-19609719D01*
X39598214Y-19509382D01*
X39586445Y-19493183D01*
X39506817Y-19413555D01*
X39490618Y-19401786D01*
X39438048Y-19375000D01*
X39490618Y-19348214D01*
X39506817Y-19336445D01*
X39583250Y-19260012D01*
X40326857Y-19260012D01*
X40344473Y-19371237D01*
X40350661Y-19390281D01*
X40401786Y-19490618D01*
X40413555Y-19506817D01*
X40493183Y-19586445D01*
X40509382Y-19598214D01*
X40609719Y-19649339D01*
X40628763Y-19655527D01*
X40739988Y-19673143D01*
X40760012Y-19673143D01*
X40871237Y-19655527D01*
X40890281Y-19649339D01*
X40990618Y-19598214D01*
X41006817Y-19586445D01*
X41086445Y-19506817D01*
X41098214Y-19490618D01*
X41149339Y-19390281D01*
X41155527Y-19371237D01*
X41173143Y-19260012D01*
X41173143Y-19239988D01*
X41155527Y-19128763D01*
X41149339Y-19109719D01*
X41098214Y-19009382D01*
X41086445Y-18993183D01*
X41006817Y-18913555D01*
X40990618Y-18901786D01*
X40890281Y-18850661D01*
X40871237Y-18844473D01*
X40760012Y-18826857D01*
X40739988Y-18826857D01*
X40628763Y-18844473D01*
X40609719Y-18850661D01*
X40509382Y-18901786D01*
X40493183Y-18913555D01*
X40413555Y-18993183D01*
X40401786Y-19009382D01*
X40350661Y-19109719D01*
X40344473Y-19128763D01*
X40326857Y-19239988D01*
X40326857Y-19260012D01*
X39583250Y-19260012D01*
X39586445Y-19256817D01*
X39598214Y-19240618D01*
X39649339Y-19140281D01*
X39655527Y-19121237D01*
X39673143Y-19010012D01*
X39673143Y-18989988D01*
X39655527Y-18878763D01*
X39649339Y-18859719D01*
X39598214Y-18759382D01*
X39586445Y-18743183D01*
X39506817Y-18663555D01*
X39490618Y-18651786D01*
X39390281Y-18600661D01*
X39371237Y-18594473D01*
X39260012Y-18576857D01*
X39239988Y-18576857D01*
X39128763Y-18594473D01*
X39109719Y-18600661D01*
X39009382Y-18651786D01*
X38993183Y-18663555D01*
X38913555Y-18743183D01*
X38901786Y-18759382D01*
X38850661Y-18859719D01*
X38844473Y-18878763D01*
X38826857Y-18989988D01*
X38826857Y-19010012D01*
X38844473Y-19121237D01*
X38850661Y-19140281D01*
X38901786Y-19240618D01*
X38913555Y-19256817D01*
X38993183Y-19336445D01*
X39009382Y-19348214D01*
X39061952Y-19375000D01*
X39009382Y-19401786D01*
X38993183Y-19413555D01*
X38913555Y-19493183D01*
X38901786Y-19509382D01*
X38850661Y-19609719D01*
X38844473Y-19628763D01*
X38826857Y-19739988D01*
X38826857Y-19760012D01*
X38844473Y-19871237D01*
X38850661Y-19890281D01*
X38901786Y-19990618D01*
X38913555Y-20006817D01*
X38993183Y-20086445D01*
X39009382Y-20098214D01*
X39061952Y-20125000D01*
X39009382Y-20151786D01*
X38993183Y-20163555D01*
X38913555Y-20243183D01*
X38901786Y-20259382D01*
X38850661Y-20359719D01*
X38844473Y-20378763D01*
X38830975Y-20463986D01*
X37259500Y-18892512D01*
X37259500Y-18010012D01*
X38826857Y-18010012D01*
X38844473Y-18121237D01*
X38850661Y-18140281D01*
X38901786Y-18240618D01*
X38913555Y-18256817D01*
X38993183Y-18336445D01*
X39009382Y-18348214D01*
X39109719Y-18399339D01*
X39128763Y-18405527D01*
X39239988Y-18423143D01*
X39260012Y-18423143D01*
X39371237Y-18405527D01*
X39390281Y-18399339D01*
X39490618Y-18348214D01*
X39506817Y-18336445D01*
X39583250Y-18260012D01*
X40326857Y-18260012D01*
X40344473Y-18371237D01*
X40350661Y-18390281D01*
X40401786Y-18490618D01*
X40413555Y-18506817D01*
X40493183Y-18586445D01*
X40509382Y-18598214D01*
X40609719Y-18649339D01*
X40628763Y-18655527D01*
X40739988Y-18673143D01*
X40760012Y-18673143D01*
X40871237Y-18655527D01*
X40890281Y-18649339D01*
X40990618Y-18598214D01*
X41006817Y-18586445D01*
X41086445Y-18506817D01*
X41098214Y-18490618D01*
X41149339Y-18390281D01*
X41155527Y-18371237D01*
X41173143Y-18260012D01*
X41173143Y-18239988D01*
X41155527Y-18128763D01*
X41149339Y-18109719D01*
X41098214Y-18009382D01*
X41086445Y-17993183D01*
X41006817Y-17913555D01*
X40990618Y-17901786D01*
X40890281Y-17850661D01*
X40871237Y-17844473D01*
X40760012Y-17826857D01*
X40739988Y-17826857D01*
X40628763Y-17844473D01*
X40609719Y-17850661D01*
X40509382Y-17901786D01*
X40493183Y-17913555D01*
X40413555Y-17993183D01*
X40401786Y-18009382D01*
X40350661Y-18109719D01*
X40344473Y-18128763D01*
X40326857Y-18239988D01*
X40326857Y-18260012D01*
X39583250Y-18260012D01*
X39586445Y-18256817D01*
X39598214Y-18240618D01*
X39649339Y-18140281D01*
X39655527Y-18121237D01*
X39673143Y-18010012D01*
X39673143Y-17989988D01*
X39655527Y-17878763D01*
X39649339Y-17859719D01*
X39598214Y-17759382D01*
X39586445Y-17743183D01*
X39506817Y-17663555D01*
X39490618Y-17651786D01*
X39390281Y-17600661D01*
X39371237Y-17594473D01*
X39260012Y-17576857D01*
X39239988Y-17576857D01*
X39128763Y-17594473D01*
X39109719Y-17600661D01*
X39009382Y-17651786D01*
X38993183Y-17663555D01*
X38913555Y-17743183D01*
X38901786Y-17759382D01*
X38850661Y-17859719D01*
X38844473Y-17878763D01*
X38826857Y-17989988D01*
X38826857Y-18010012D01*
X37259500Y-18010012D01*
X37259500Y-16260012D01*
X38576857Y-16260012D01*
X38594473Y-16371237D01*
X38600661Y-16390281D01*
X38651786Y-16490618D01*
X38663555Y-16506817D01*
X38743183Y-16586445D01*
X38759382Y-16598214D01*
X38859719Y-16649339D01*
X38878763Y-16655527D01*
X38989988Y-16673143D01*
X39010012Y-16673143D01*
X39121237Y-16655527D01*
X39140281Y-16649339D01*
X39240618Y-16598214D01*
X39256817Y-16586445D01*
X39336445Y-16506817D01*
X39348214Y-16490618D01*
X39399339Y-16390281D01*
X39405527Y-16371237D01*
X39423143Y-16260012D01*
X39423143Y-16239988D01*
X39405527Y-16128763D01*
X39399339Y-16109719D01*
X39348214Y-16009382D01*
X39336445Y-15993183D01*
X39256817Y-15913555D01*
X39240618Y-15901786D01*
X39140281Y-15850661D01*
X39121237Y-15844473D01*
X39010012Y-15826857D01*
X38989988Y-15826857D01*
X38878763Y-15844473D01*
X38859719Y-15850661D01*
X38759382Y-15901786D01*
X38743183Y-15913555D01*
X38663555Y-15993183D01*
X38651786Y-16009382D01*
X38600661Y-16109719D01*
X38594473Y-16128763D01*
X38576857Y-16239988D01*
X38576857Y-16260012D01*
X37259500Y-16260012D01*
X37259500Y-14083762D01*
X37336445Y-14006817D01*
X37348214Y-13990618D01*
X37399339Y-13890281D01*
X37405527Y-13871237D01*
X37423143Y-13760012D01*
X37423143Y-13739988D01*
X37405527Y-13628763D01*
X37399339Y-13609719D01*
X37348214Y-13509382D01*
X37336445Y-13493183D01*
X37256817Y-13413555D01*
X37240618Y-13401786D01*
X37140281Y-13350661D01*
X37121237Y-13344473D01*
X37010012Y-13326857D01*
X36989988Y-13326857D01*
X36878763Y-13344473D01*
X36859719Y-13350661D01*
X36759382Y-13401786D01*
X36743183Y-13413555D01*
X36663555Y-13493183D01*
X36651786Y-13509382D01*
X36600661Y-13609719D01*
X36594473Y-13628763D01*
X36576857Y-13739988D01*
X36576857Y-13760012D01*
X11127000Y-13760012D01*
X10464791Y-13097803D01*
X10464628Y-13097464D01*
X10446907Y-13075185D01*
X10423271Y-13056283D01*
X10417908Y-13050920D01*
X10406711Y-13041990D01*
X10400578Y-13038135D01*
X10377248Y-13019478D01*
X10351620Y-13007089D01*
X10350933Y-13006931D01*
X10350333Y-13006554D01*
X10323465Y-12997146D01*
X10293792Y-12993792D01*
X10286561Y-12992129D01*
X10272215Y-12990500D01*
X10264674Y-12990500D01*
X10234836Y-12987127D01*
X10206548Y-12990300D01*
X10205975Y-12990500D01*
X9833762Y-12990500D01*
X9756817Y-12913555D01*
X9740618Y-12901786D01*
X9640281Y-12850661D01*
X9621237Y-12844473D01*
X9510012Y-12826857D01*
X9489988Y-12826857D01*
X9378763Y-12844473D01*
X9359719Y-12850661D01*
X9259382Y-12901786D01*
X9243183Y-12913555D01*
X9163555Y-12993183D01*
X9151786Y-13009382D01*
X9100661Y-13109719D01*
X9094473Y-13128763D01*
X9076857Y-13239988D01*
X9076857Y-13260012D01*
X194500Y-13260012D01*
X194500Y-12760012D01*
X22326857Y-12760012D01*
X22344473Y-12871237D01*
X22350661Y-12890281D01*
X22401786Y-12990618D01*
X22413555Y-13006817D01*
X22493183Y-13086445D01*
X22509382Y-13098214D01*
X22609719Y-13149339D01*
X22628763Y-13155527D01*
X22739988Y-13173143D01*
X22760012Y-13173143D01*
X22871237Y-13155527D01*
X22890281Y-13149339D01*
X22990618Y-13098214D01*
X23006817Y-13086445D01*
X23083250Y-13010012D01*
X38076857Y-13010012D01*
X38094473Y-13121237D01*
X38100661Y-13140281D01*
X38151786Y-13240618D01*
X38163555Y-13256817D01*
X38243183Y-13336445D01*
X38259382Y-13348214D01*
X38359719Y-13399339D01*
X38378763Y-13405527D01*
X38489988Y-13423143D01*
X38510012Y-13423143D01*
X38621237Y-13405527D01*
X38640281Y-13399339D01*
X38740618Y-13348214D01*
X38756817Y-13336445D01*
X38836445Y-13256817D01*
X38848214Y-13240618D01*
X38899339Y-13140281D01*
X38905527Y-13121237D01*
X38923143Y-13010012D01*
X38923143Y-12989988D01*
X38905527Y-12878763D01*
X38899339Y-12859719D01*
X38848214Y-12759382D01*
X38836445Y-12743183D01*
X38834142Y-12740880D01*
X39807725Y-12740880D01*
X39825341Y-12852105D01*
X39831529Y-12871149D01*
X39882654Y-12971486D01*
X39894423Y-12987685D01*
X39974051Y-13067313D01*
X39990250Y-13079082D01*
X40090587Y-13130207D01*
X40109631Y-13136395D01*
X40220856Y-13154011D01*
X40240880Y-13154011D01*
X40352105Y-13136395D01*
X40371149Y-13130207D01*
X40471486Y-13079082D01*
X40487685Y-13067313D01*
X40567313Y-12987685D01*
X40579082Y-12971486D01*
X40630207Y-12871149D01*
X40636395Y-12852105D01*
X40654011Y-12740880D01*
X40654011Y-12720856D01*
X40636395Y-12609631D01*
X40630207Y-12590587D01*
X40579082Y-12490250D01*
X40567313Y-12474051D01*
X40509500Y-12416238D01*
X40509500Y-11833762D01*
X40586445Y-11756817D01*
X40598214Y-11740618D01*
X40649339Y-11640281D01*
X40655527Y-11621237D01*
X40673143Y-11510012D01*
X40673143Y-11489988D01*
X40655527Y-11378763D01*
X40649339Y-11359719D01*
X40598214Y-11259382D01*
X40586445Y-11243183D01*
X40506817Y-11163555D01*
X40490618Y-11151786D01*
X40390281Y-11100661D01*
X40371237Y-11094473D01*
X40260012Y-11076857D01*
X40239988Y-11076857D01*
X40128763Y-11094473D01*
X40109719Y-11100661D01*
X40009382Y-11151786D01*
X39993183Y-11163555D01*
X39913555Y-11243183D01*
X39901786Y-11259382D01*
X39850661Y-11359719D01*
X39844473Y-11378763D01*
X39826857Y-11489988D01*
X39826857Y-11510012D01*
X39844473Y-11621237D01*
X39850661Y-11640281D01*
X39901786Y-11740618D01*
X39913555Y-11756817D01*
X39990500Y-11833762D01*
X39990500Y-12382526D01*
X39990251Y-12382653D01*
X39974051Y-12394423D01*
X39894423Y-12474051D01*
X39882654Y-12490250D01*
X39831529Y-12590587D01*
X39825341Y-12609631D01*
X39807725Y-12720856D01*
X39807725Y-12740880D01*
X38834142Y-12740880D01*
X38759500Y-12666238D01*
X38759500Y-12260012D01*
X38826857Y-12260012D01*
X38844473Y-12371237D01*
X38850661Y-12390281D01*
X38901786Y-12490618D01*
X38913555Y-12506817D01*
X38993183Y-12586445D01*
X39009382Y-12598214D01*
X39109719Y-12649339D01*
X39128763Y-12655527D01*
X39239988Y-12673143D01*
X39260012Y-12673143D01*
X39371237Y-12655527D01*
X39390281Y-12649339D01*
X39490618Y-12598214D01*
X39506817Y-12586445D01*
X39586445Y-12506817D01*
X39598214Y-12490618D01*
X39649339Y-12390281D01*
X39655527Y-12371237D01*
X39673143Y-12260012D01*
X39673143Y-12239988D01*
X39655527Y-12128763D01*
X39649339Y-12109719D01*
X39598214Y-12009382D01*
X39586445Y-11993183D01*
X39509500Y-11916238D01*
X39509500Y-10598274D01*
X39609719Y-10649339D01*
X39628763Y-10655527D01*
X39739988Y-10673143D01*
X39760012Y-10673143D01*
X39871237Y-10655527D01*
X39890281Y-10649339D01*
X39990618Y-10598214D01*
X40006817Y-10586445D01*
X40086445Y-10506817D01*
X40098214Y-10490618D01*
X40149339Y-10390281D01*
X40155527Y-10371237D01*
X40173143Y-10260012D01*
X40173143Y-10239988D01*
X40155527Y-10128763D01*
X40149339Y-10109719D01*
X40098214Y-10009382D01*
X40086445Y-9993183D01*
X40006817Y-9913555D01*
X39990618Y-9901786D01*
X39890281Y-9850661D01*
X39871237Y-9844473D01*
X39760012Y-9826857D01*
X39739988Y-9826857D01*
X39628763Y-9844473D01*
X39609719Y-9850661D01*
X39509500Y-9901726D01*
X39509500Y-9510012D01*
X40076857Y-9510012D01*
X40094473Y-9621237D01*
X40100661Y-9640281D01*
X40151786Y-9740618D01*
X40163555Y-9756817D01*
X40243183Y-9836445D01*
X40259382Y-9848214D01*
X40359719Y-9899339D01*
X40378763Y-9905527D01*
X40489988Y-9923143D01*
X40510012Y-9923143D01*
X40621237Y-9905527D01*
X40640281Y-9899339D01*
X40740618Y-9848214D01*
X40756817Y-9836445D01*
X40836445Y-9756817D01*
X40848214Y-9740618D01*
X40899339Y-9640281D01*
X40905527Y-9621237D01*
X40923143Y-9510012D01*
X40923143Y-9489988D01*
X40905527Y-9378763D01*
X40899339Y-9359719D01*
X40848214Y-9259382D01*
X40836445Y-9243183D01*
X40756817Y-9163555D01*
X40740618Y-9151786D01*
X40640281Y-9100661D01*
X40621237Y-9094473D01*
X40510012Y-9076857D01*
X40489988Y-9076857D01*
X40378763Y-9094473D01*
X40359719Y-9100661D01*
X40259382Y-9151786D01*
X40243183Y-9163555D01*
X40163555Y-9243183D01*
X40151786Y-9259382D01*
X40100661Y-9359719D01*
X40094473Y-9378763D01*
X40076857Y-9489988D01*
X40076857Y-9510012D01*
X39509500Y-9510012D01*
X39509500Y-9333762D01*
X39586445Y-9256817D01*
X39598214Y-9240618D01*
X39649339Y-9140281D01*
X39655527Y-9121237D01*
X39673143Y-9010012D01*
X39673143Y-8989988D01*
X39655527Y-8878763D01*
X39649339Y-8859719D01*
X39598214Y-8759382D01*
X39586445Y-8743183D01*
X39506817Y-8663555D01*
X39490618Y-8651786D01*
X39390281Y-8600661D01*
X39371237Y-8594473D01*
X39260012Y-8576857D01*
X39239988Y-8576857D01*
X39128763Y-8594473D01*
X39109719Y-8600661D01*
X39009382Y-8651786D01*
X38993183Y-8663555D01*
X38913555Y-8743183D01*
X38901786Y-8759382D01*
X38850661Y-8859719D01*
X38844473Y-8878763D01*
X38826857Y-8989988D01*
X38826857Y-9010012D01*
X38844473Y-9121237D01*
X38850661Y-9140281D01*
X38901786Y-9240618D01*
X38913555Y-9256817D01*
X38990500Y-9333762D01*
X38990500Y-11916238D01*
X38913555Y-11993183D01*
X38901786Y-12009382D01*
X38850661Y-12109719D01*
X38844473Y-12128763D01*
X38826857Y-12239988D01*
X38826857Y-12260012D01*
X38759500Y-12260012D01*
X38759500Y-11833762D01*
X38836445Y-11756817D01*
X38848214Y-11740618D01*
X38899339Y-11640281D01*
X38905527Y-11621237D01*
X38923143Y-11510012D01*
X38923143Y-11489988D01*
X38905527Y-11378763D01*
X38899339Y-11359719D01*
X38848214Y-11259382D01*
X38836445Y-11243183D01*
X38756817Y-11163555D01*
X38740618Y-11151786D01*
X38640281Y-11100661D01*
X38621237Y-11094473D01*
X38510012Y-11076857D01*
X38489988Y-11076857D01*
X38378763Y-11094473D01*
X38359719Y-11100661D01*
X38259382Y-11151786D01*
X38243183Y-11163555D01*
X38163555Y-11243183D01*
X38151786Y-11259382D01*
X38100661Y-11359719D01*
X38094473Y-11378763D01*
X38076857Y-11489988D01*
X38076857Y-11510012D01*
X38094473Y-11621237D01*
X38100661Y-11640281D01*
X38151786Y-11740618D01*
X38163555Y-11756817D01*
X38240500Y-11833762D01*
X38240500Y-12666238D01*
X38163555Y-12743183D01*
X38151786Y-12759382D01*
X38100661Y-12859719D01*
X38094473Y-12878763D01*
X38076857Y-12989988D01*
X38076857Y-13010012D01*
X23083250Y-13010012D01*
X23086445Y-13006817D01*
X23098214Y-12990618D01*
X23149339Y-12890281D01*
X23155527Y-12871237D01*
X23173143Y-12760012D01*
X23173143Y-12739988D01*
X23155527Y-12628763D01*
X23149339Y-12609719D01*
X23098214Y-12509382D01*
X23086445Y-12493183D01*
X23006817Y-12413555D01*
X22990618Y-12401786D01*
X22890281Y-12350661D01*
X22871237Y-12344473D01*
X22760012Y-12326857D01*
X22739988Y-12326857D01*
X22628763Y-12344473D01*
X22609719Y-12350661D01*
X22509382Y-12401786D01*
X22493183Y-12413555D01*
X22413555Y-12493183D01*
X22401786Y-12509382D01*
X22350661Y-12609719D01*
X22344473Y-12628763D01*
X22326857Y-12739988D01*
X22326857Y-12760012D01*
X194500Y-12760012D01*
X194500Y-10260012D01*
X37326857Y-10260012D01*
X37344473Y-10371237D01*
X37350661Y-10390281D01*
X37401786Y-10490618D01*
X37413555Y-10506817D01*
X37493183Y-10586445D01*
X37509382Y-10598214D01*
X37609719Y-10649339D01*
X37628763Y-10655527D01*
X37739988Y-10673143D01*
X37760012Y-10673143D01*
X37871237Y-10655527D01*
X37890281Y-10649339D01*
X37990618Y-10598214D01*
X38006817Y-10586445D01*
X38086445Y-10506817D01*
X38098214Y-10490618D01*
X38149339Y-10390281D01*
X38155527Y-10371237D01*
X38173143Y-10260012D01*
X38173143Y-10239988D01*
X38155527Y-10128763D01*
X38149339Y-10109719D01*
X38098214Y-10009382D01*
X38086445Y-9993183D01*
X38006817Y-9913555D01*
X37990618Y-9901786D01*
X37890281Y-9850661D01*
X37871237Y-9844473D01*
X37760012Y-9826857D01*
X37739988Y-9826857D01*
X37628763Y-9844473D01*
X37609719Y-9850661D01*
X37509382Y-9901786D01*
X37493183Y-9913555D01*
X37413555Y-9993183D01*
X37401786Y-10009382D01*
X37350661Y-10109719D01*
X37344473Y-10128763D01*
X37326857Y-10239988D01*
X37326857Y-10260012D01*
X194500Y-10260012D01*
X194500Y-9260012D01*
X26826857Y-9260012D01*
X26844473Y-9371237D01*
X26850661Y-9390281D01*
X26901786Y-9490618D01*
X26913555Y-9506817D01*
X26993183Y-9586445D01*
X27009382Y-9598214D01*
X27109719Y-9649339D01*
X27128763Y-9655527D01*
X27239988Y-9673143D01*
X27260012Y-9673143D01*
X27371237Y-9655527D01*
X27390281Y-9649339D01*
X27490618Y-9598214D01*
X27506817Y-9586445D01*
X27586445Y-9506817D01*
X27598214Y-9490618D01*
X27649339Y-9390281D01*
X27655527Y-9371237D01*
X27673143Y-9260012D01*
X27673143Y-9239988D01*
X27655527Y-9128763D01*
X27649339Y-9109719D01*
X27598214Y-9009382D01*
X27586445Y-8993183D01*
X27506817Y-8913555D01*
X27490618Y-8901786D01*
X27390281Y-8850661D01*
X27371237Y-8844473D01*
X27260012Y-8826857D01*
X27239988Y-8826857D01*
X27128763Y-8844473D01*
X27109719Y-8850661D01*
X27009382Y-8901786D01*
X26993183Y-8913555D01*
X26913555Y-8993183D01*
X26901786Y-9009382D01*
X26850661Y-9109719D01*
X26844473Y-9128763D01*
X26826857Y-9239988D01*
X26826857Y-9260012D01*
X194500Y-9260012D01*
X194500Y-3025608D01*
X196923Y-3016565D01*
X196923Y-2983436D01*
X195772Y-2979141D01*
X212240Y-2685900D01*
X264938Y-2375742D01*
X352033Y-2073430D01*
X472423Y-1782782D01*
X624599Y-1507440D01*
X806653Y-1250860D01*
X1016283Y-1016283D01*
X1250860Y-806653D01*
X1507440Y-624599D01*
X1782782Y-472423D01*
X2073430Y-352033D01*
X2375742Y-264938D01*
X2685900Y-212240D01*
X2979141Y-195772D01*
X2983436Y-196923D01*
X3016565Y-196923D01*
X3025608Y-194500D01*
X40974392Y-194500D01*
X40983435Y-196923D01*
X40983435Y-196923D02*
X40974392Y-194500D01*
%TA.AperFunction,Conductor*%
G36*
X40983435Y-196923D02*
G01*
X41016564Y-196923D01*
X41020162Y-195959D01*
X41235649Y-210083D01*
X41467258Y-256153D01*
X41690883Y-332063D01*
X41902686Y-436513D01*
X42099032Y-567708D01*
X42276584Y-723416D01*
X42432292Y-900968D01*
X42563487Y-1097314D01*
X42667937Y-1309117D01*
X42743847Y-1532742D01*
X42789917Y-1764351D01*
X42804041Y-1979838D01*
X42803077Y-1983436D01*
X42803077Y-2016565D01*
X42805500Y-2025608D01*
X42805500Y-59974392D01*
X42803077Y-59983435D01*
X42803077Y-60016564D01*
X42804041Y-60020162D01*
X42789917Y-60235649D01*
X42743847Y-60467258D01*
X42667937Y-60690883D01*
X42563487Y-60902686D01*
X42432292Y-61099032D01*
X42276584Y-61276584D01*
X42099032Y-61432292D01*
X41902686Y-61563487D01*
X41690883Y-61667937D01*
X41467258Y-61743847D01*
X41235649Y-61789917D01*
X41020162Y-61804041D01*
X41016564Y-61803077D01*
X40983435Y-61803077D01*
X40974392Y-61805500D01*
X2025608Y-61805500D01*
X2016565Y-61803077D01*
X1983436Y-61803077D01*
X1979838Y-61804041D01*
X1764351Y-61789917D01*
X1532742Y-61743847D01*
X1309117Y-61667937D01*
X1097314Y-61563487D01*
X900968Y-61432292D01*
X723416Y-61276584D01*
X567708Y-61099032D01*
X436513Y-60902686D01*
X350591Y-60728454D01*
X17105046Y-60728454D01*
X17106813Y-60743729D01*
X17145263Y-60903885D01*
X17150623Y-60918299D01*
X17226166Y-61064661D01*
X17234810Y-61077379D01*
X17343084Y-61201496D01*
X17354512Y-61211785D01*
X17489267Y-61306493D01*
X17502819Y-61313760D01*
X17656276Y-61373590D01*
X17671171Y-61377415D01*
X17796793Y-61393953D01*
X17805146Y-61394500D01*
X18991302Y-61394500D01*
X18998991Y-61394036D01*
X19121203Y-61379247D01*
X19136136Y-61375579D01*
X19290211Y-61317359D01*
X19303839Y-61310235D01*
X19439578Y-61216944D01*
X19451113Y-61206775D01*
X19560681Y-61083798D01*
X19569457Y-61071171D01*
X19646529Y-60925609D01*
X19652040Y-60911252D01*
X19692165Y-60751507D01*
X19694092Y-60736251D01*
X19694133Y-60728454D01*
X23305046Y-60728454D01*
X23306813Y-60743729D01*
X23345263Y-60903885D01*
X23350623Y-60918299D01*
X23426166Y-61064661D01*
X23434810Y-61077379D01*
X23543084Y-61201496D01*
X23554512Y-61211785D01*
X23689267Y-61306493D01*
X23702819Y-61313760D01*
X23856276Y-61373590D01*
X23871171Y-61377415D01*
X23996793Y-61393953D01*
X24005146Y-61394500D01*
X25191302Y-61394500D01*
X25198991Y-61394036D01*
X25321203Y-61379247D01*
X25336136Y-61375579D01*
X25490211Y-61317359D01*
X25503839Y-61310235D01*
X25639578Y-61216944D01*
X25651113Y-61206775D01*
X25760681Y-61083798D01*
X25769457Y-61071171D01*
X25846529Y-60925609D01*
X25852040Y-60911252D01*
X25892165Y-60751507D01*
X25894092Y-60736251D01*
X25894954Y-60571546D01*
X25893187Y-60556271D01*
X25854737Y-60396115D01*
X25849377Y-60381701D01*
X25773834Y-60235339D01*
X25765190Y-60222621D01*
X25656916Y-60098504D01*
X25645488Y-60088215D01*
X25510733Y-59993507D01*
X25497181Y-59986240D01*
X25343724Y-59926410D01*
X25328829Y-59922585D01*
X25203207Y-59906047D01*
X25194854Y-59905500D01*
X24008698Y-59905500D01*
X24001009Y-59905964D01*
X23878797Y-59920753D01*
X23863864Y-59924421D01*
X23709789Y-59982641D01*
X23696161Y-59989765D01*
X23560422Y-60083056D01*
X23548887Y-60093225D01*
X23439319Y-60216202D01*
X23430543Y-60228829D01*
X23353471Y-60374391D01*
X23347960Y-60388748D01*
X23307835Y-60548493D01*
X23305908Y-60563749D01*
X23305046Y-60728454D01*
X19694133Y-60728454D01*
X19694954Y-60571546D01*
X19693187Y-60556271D01*
X19654737Y-60396115D01*
X19649377Y-60381701D01*
X19573834Y-60235339D01*
X19565190Y-60222621D01*
X19456916Y-60098504D01*
X19445488Y-60088215D01*
X19334217Y-60010012D01*
X19826857Y-60010012D01*
X19844473Y-60121237D01*
X19850661Y-60140281D01*
X19901786Y-60240618D01*
X19913555Y-60256817D01*
X19993183Y-60336445D01*
X20009382Y-60348214D01*
X20109719Y-60399339D01*
X20128763Y-60405527D01*
X20239988Y-60423143D01*
X20260012Y-60423143D01*
X20371237Y-60405527D01*
X20390281Y-60399339D01*
X20490618Y-60348214D01*
X20506817Y-60336445D01*
X20583250Y-60260012D01*
X20826857Y-60260012D01*
X20844473Y-60371237D01*
X20850661Y-60390281D01*
X20901786Y-60490618D01*
X20913555Y-60506817D01*
X20993183Y-60586445D01*
X21009382Y-60598214D01*
X21109719Y-60649339D01*
X21128763Y-60655527D01*
X21239988Y-60673143D01*
X21260012Y-60673143D01*
X21371237Y-60655527D01*
X21390281Y-60649339D01*
X21490618Y-60598214D01*
X21506817Y-60586445D01*
X21586445Y-60506817D01*
X21598214Y-60490618D01*
X21625000Y-60438048D01*
X21651786Y-60490618D01*
X21663555Y-60506817D01*
X21743183Y-60586445D01*
X21759382Y-60598214D01*
X21859719Y-60649339D01*
X21878763Y-60655527D01*
X21989988Y-60673143D01*
X22010012Y-60673143D01*
X22121237Y-60655527D01*
X22140281Y-60649339D01*
X22240618Y-60598214D01*
X22256817Y-60586445D01*
X22336445Y-60506817D01*
X22348214Y-60490618D01*
X22399339Y-60390281D01*
X22405527Y-60371237D01*
X22422269Y-60265531D01*
X22493183Y-60336445D01*
X22509382Y-60348214D01*
X22609719Y-60399339D01*
X22628763Y-60405527D01*
X22739988Y-60423143D01*
X22760012Y-60423143D01*
X22871237Y-60405527D01*
X22890281Y-60399339D01*
X22990618Y-60348214D01*
X23006817Y-60336445D01*
X23086445Y-60256817D01*
X23098214Y-60240618D01*
X23149339Y-60140281D01*
X23155527Y-60121237D01*
X23173143Y-60010012D01*
X23173143Y-59989988D01*
X23155527Y-59878763D01*
X23149339Y-59859719D01*
X23098214Y-59759382D01*
X23086445Y-59743183D01*
X23006817Y-59663555D01*
X22990618Y-59651786D01*
X22890281Y-59600661D01*
X22871237Y-59594473D01*
X22760012Y-59576857D01*
X22739988Y-59576857D01*
X22628763Y-59594473D01*
X22609719Y-59600661D01*
X22509382Y-59651786D01*
X22493183Y-59663555D01*
X22413555Y-59743183D01*
X22401786Y-59759382D01*
X22350661Y-59859719D01*
X22344473Y-59878763D01*
X22327731Y-59984469D01*
X22256817Y-59913555D01*
X22240618Y-59901786D01*
X22140281Y-59850661D01*
X22121237Y-59844473D01*
X22010012Y-59826857D01*
X21989988Y-59826857D01*
X21878763Y-59844473D01*
X21859719Y-59850661D01*
X21759382Y-59901786D01*
X21743183Y-59913555D01*
X21663555Y-59993183D01*
X21651786Y-60009382D01*
X21625000Y-60061952D01*
X21598214Y-60009382D01*
X21586445Y-59993183D01*
X21506817Y-59913555D01*
X21490618Y-59901786D01*
X21390281Y-59850661D01*
X21371237Y-59844473D01*
X21260012Y-59826857D01*
X21239988Y-59826857D01*
X21128763Y-59844473D01*
X21109719Y-59850661D01*
X21009382Y-59901786D01*
X20993183Y-59913555D01*
X20913555Y-59993183D01*
X20901786Y-60009382D01*
X20850661Y-60109719D01*
X20844473Y-60128763D01*
X20826857Y-60239988D01*
X20826857Y-60260012D01*
X20583250Y-60260012D01*
X20586445Y-60256817D01*
X20598214Y-60240618D01*
X20649339Y-60140281D01*
X20655527Y-60121237D01*
X20673143Y-60010012D01*
X20673143Y-59989988D01*
X20655527Y-59878763D01*
X20649339Y-59859719D01*
X20598214Y-59759382D01*
X20586445Y-59743183D01*
X20506817Y-59663555D01*
X20490618Y-59651786D01*
X20390281Y-59600661D01*
X20371237Y-59594473D01*
X20260012Y-59576857D01*
X20239988Y-59576857D01*
X20128763Y-59594473D01*
X20109719Y-59600661D01*
X20009382Y-59651786D01*
X19993183Y-59663555D01*
X19913555Y-59743183D01*
X19901786Y-59759382D01*
X19850661Y-59859719D01*
X19844473Y-59878763D01*
X19826857Y-59989988D01*
X19826857Y-60010012D01*
X19334217Y-60010012D01*
X19310733Y-59993507D01*
X19297181Y-59986240D01*
X19143724Y-59926410D01*
X19128829Y-59922585D01*
X19003207Y-59906047D01*
X18994854Y-59905500D01*
X17808698Y-59905500D01*
X17801009Y-59905964D01*
X17678797Y-59920753D01*
X17663864Y-59924421D01*
X17509789Y-59982641D01*
X17496161Y-59989765D01*
X17360422Y-60083056D01*
X17348887Y-60093225D01*
X17239319Y-60216202D01*
X17230543Y-60228829D01*
X17153471Y-60374391D01*
X17147960Y-60388748D01*
X17107835Y-60548493D01*
X17105908Y-60563749D01*
X17105046Y-60728454D01*
X350591Y-60728454D01*
X332063Y-60690883D01*
X256153Y-60467258D01*
X210083Y-60235649D01*
X195959Y-60020162D01*
X196923Y-60016564D01*
X196923Y-59983435D01*
X194500Y-59974392D01*
X194500Y-58565491D01*
X16855051Y-58565491D01*
X16857514Y-58583469D01*
X16895337Y-58715807D01*
X16902746Y-58732371D01*
X16976191Y-58848775D01*
X16987952Y-58862594D01*
X17091116Y-58953705D01*
X17106282Y-58963668D01*
X17230871Y-59022163D01*
X17248225Y-59027468D01*
X17352720Y-59043738D01*
X17362566Y-59044500D01*
X18134502Y-59044500D01*
X18143575Y-59043854D01*
X18245320Y-59029283D01*
X18262737Y-59024190D01*
X18388031Y-58967222D01*
X18403317Y-58957445D01*
X18507587Y-58867601D01*
X18519517Y-58853927D01*
X18594378Y-58738429D01*
X18601989Y-58721957D01*
X18641426Y-58590091D01*
X18644108Y-58572144D01*
X18644149Y-58565491D01*
X24355051Y-58565491D01*
X24357514Y-58583469D01*
X24395337Y-58715807D01*
X24402746Y-58732371D01*
X24476191Y-58848775D01*
X24487952Y-58862594D01*
X24591116Y-58953705D01*
X24606282Y-58963668D01*
X24730871Y-59022163D01*
X24748225Y-59027468D01*
X24852720Y-59043738D01*
X24862566Y-59044500D01*
X25634502Y-59044500D01*
X25643575Y-59043854D01*
X25745320Y-59029283D01*
X25762737Y-59024190D01*
X25888031Y-58967222D01*
X25903317Y-58957445D01*
X26007587Y-58867601D01*
X26019517Y-58853927D01*
X26094378Y-58738429D01*
X26101989Y-58721957D01*
X26141426Y-58590091D01*
X26144108Y-58572144D01*
X26144949Y-58434509D01*
X26142486Y-58416531D01*
X26104663Y-58284193D01*
X26097254Y-58267629D01*
X26023809Y-58151225D01*
X26012048Y-58137406D01*
X25908884Y-58046295D01*
X25893718Y-58036332D01*
X25837659Y-58010012D01*
X27536857Y-58010012D01*
X27554473Y-58121237D01*
X27560661Y-58140281D01*
X27611786Y-58240618D01*
X27623555Y-58256817D01*
X27703183Y-58336445D01*
X27719382Y-58348214D01*
X27819719Y-58399339D01*
X27838763Y-58405527D01*
X27949988Y-58423143D01*
X27970012Y-58423143D01*
X28081237Y-58405527D01*
X28100281Y-58399339D01*
X28200618Y-58348214D01*
X28216817Y-58336445D01*
X28296445Y-58256817D01*
X28308214Y-58240618D01*
X28359339Y-58140281D01*
X28365527Y-58121237D01*
X28383143Y-58010012D01*
X28383143Y-57989988D01*
X28365527Y-57878763D01*
X28359339Y-57859719D01*
X28308214Y-57759382D01*
X28296445Y-57743183D01*
X28216817Y-57663555D01*
X28200618Y-57651786D01*
X28100281Y-57600661D01*
X28081237Y-57594473D01*
X27970012Y-57576857D01*
X27949988Y-57576857D01*
X27838763Y-57594473D01*
X27819719Y-57600661D01*
X27719382Y-57651786D01*
X27703183Y-57663555D01*
X27623555Y-57743183D01*
X27611786Y-57759382D01*
X27560661Y-57859719D01*
X27554473Y-57878763D01*
X27536857Y-57989988D01*
X27536857Y-58010012D01*
X25837659Y-58010012D01*
X25769129Y-57977837D01*
X25751775Y-57972532D01*
X25647280Y-57956262D01*
X25637434Y-57955500D01*
X24865498Y-57955500D01*
X24856425Y-57956146D01*
X24754680Y-57970717D01*
X24737263Y-57975810D01*
X24611969Y-58032778D01*
X24596683Y-58042555D01*
X24492413Y-58132399D01*
X24480483Y-58146073D01*
X24405622Y-58261571D01*
X24398011Y-58278043D01*
X24358574Y-58409909D01*
X24355892Y-58427856D01*
X24355051Y-58565491D01*
X18644149Y-58565491D01*
X18644949Y-58434509D01*
X18642486Y-58416531D01*
X18604663Y-58284193D01*
X18597254Y-58267629D01*
X18523809Y-58151225D01*
X18512048Y-58137406D01*
X18408884Y-58046295D01*
X18393718Y-58036332D01*
X18269129Y-57977837D01*
X18251775Y-57972532D01*
X18147280Y-57956262D01*
X18137434Y-57955500D01*
X17365498Y-57955500D01*
X17356425Y-57956146D01*
X17254680Y-57970717D01*
X17237263Y-57975810D01*
X17111969Y-58032778D01*
X17096683Y-58042555D01*
X16992413Y-58132399D01*
X16980483Y-58146073D01*
X16905622Y-58261571D01*
X16898011Y-58278043D01*
X16858574Y-58409909D01*
X16855892Y-58427856D01*
X16855051Y-58565491D01*
X194500Y-58565491D01*
X194500Y-57510012D01*
X14596857Y-57510012D01*
X14614473Y-57621237D01*
X14620661Y-57640281D01*
X14671786Y-57740618D01*
X14683555Y-57756817D01*
X14763183Y-57836445D01*
X14779382Y-57848214D01*
X14879719Y-57899339D01*
X14898763Y-57905527D01*
X15009988Y-57923143D01*
X15030012Y-57923143D01*
X15141237Y-57905527D01*
X15160281Y-57899339D01*
X15260618Y-57848214D01*
X15276817Y-57836445D01*
X15356445Y-57756817D01*
X15368214Y-57740618D01*
X15419339Y-57640281D01*
X15425527Y-57621237D01*
X15443143Y-57510012D01*
X15443143Y-57489988D01*
X15425527Y-57378763D01*
X15419339Y-57359719D01*
X15368214Y-57259382D01*
X15356445Y-57243183D01*
X15276817Y-57163555D01*
X15260618Y-57151786D01*
X15160281Y-57100661D01*
X15141237Y-57094473D01*
X15030012Y-57076857D01*
X15009988Y-57076857D01*
X14898763Y-57094473D01*
X14879719Y-57100661D01*
X14779382Y-57151786D01*
X14763183Y-57163555D01*
X14683555Y-57243183D01*
X14671786Y-57259382D01*
X14620661Y-57359719D01*
X14614473Y-57378763D01*
X14596857Y-57489988D01*
X14596857Y-57510012D01*
X194500Y-57510012D01*
X194500Y-56428454D01*
X17105046Y-56428454D01*
X17106813Y-56443729D01*
X17145263Y-56603885D01*
X17150623Y-56618299D01*
X17226166Y-56764661D01*
X17234810Y-56777379D01*
X17343084Y-56901496D01*
X17354512Y-56911785D01*
X17489267Y-57006493D01*
X17502819Y-57013760D01*
X17656276Y-57073590D01*
X17671171Y-57077415D01*
X17796793Y-57093953D01*
X17805146Y-57094500D01*
X18991302Y-57094500D01*
X18998991Y-57094036D01*
X19121203Y-57079247D01*
X19136136Y-57075579D01*
X19290211Y-57017359D01*
X19303839Y-57010235D01*
X19304163Y-57010012D01*
X19826857Y-57010012D01*
X19844473Y-57121237D01*
X19850661Y-57140281D01*
X19901786Y-57240618D01*
X19913555Y-57256817D01*
X19993183Y-57336445D01*
X20009382Y-57348214D01*
X20109719Y-57399339D01*
X20128763Y-57405527D01*
X20239988Y-57423143D01*
X20260012Y-57423143D01*
X20371237Y-57405527D01*
X20390281Y-57399339D01*
X20490618Y-57348214D01*
X20506817Y-57336445D01*
X20586445Y-57256817D01*
X20598214Y-57240618D01*
X20646359Y-57146129D01*
X20647086Y-57146365D01*
X20758311Y-57163981D01*
X20778335Y-57163981D01*
X20889560Y-57146365D01*
X20908604Y-57140177D01*
X21008941Y-57089052D01*
X21025140Y-57077283D01*
X21090168Y-57012255D01*
X21159769Y-57081856D01*
X21175968Y-57093625D01*
X21276305Y-57144750D01*
X21295349Y-57150938D01*
X21406574Y-57168554D01*
X21426598Y-57168554D01*
X21537823Y-57150938D01*
X21556867Y-57144750D01*
X21657204Y-57093625D01*
X21673403Y-57081856D01*
X21705999Y-57049261D01*
X21743183Y-57086445D01*
X21759382Y-57098214D01*
X21859719Y-57149339D01*
X21878763Y-57155527D01*
X21989988Y-57173143D01*
X22010012Y-57173143D01*
X22121237Y-57155527D01*
X22140281Y-57149339D01*
X22240618Y-57098214D01*
X22256817Y-57086445D01*
X22327731Y-57015531D01*
X22344473Y-57121237D01*
X22350661Y-57140281D01*
X22401786Y-57240618D01*
X22413555Y-57256817D01*
X22493183Y-57336445D01*
X22509382Y-57348214D01*
X22609719Y-57399339D01*
X22628763Y-57405527D01*
X22739988Y-57423143D01*
X22760012Y-57423143D01*
X22871237Y-57405527D01*
X22890281Y-57399339D01*
X22990618Y-57348214D01*
X23006817Y-57336445D01*
X23086445Y-57256817D01*
X23098214Y-57240618D01*
X23149339Y-57140281D01*
X23155527Y-57121237D01*
X23173143Y-57010012D01*
X23173143Y-56989988D01*
X23155527Y-56878763D01*
X23149339Y-56859719D01*
X23098214Y-56759382D01*
X23086445Y-56743183D01*
X23006817Y-56663555D01*
X22990618Y-56651786D01*
X22890281Y-56600661D01*
X22871237Y-56594473D01*
X22760012Y-56576857D01*
X22739988Y-56576857D01*
X22628763Y-56594473D01*
X22609719Y-56600661D01*
X22509382Y-56651786D01*
X22493183Y-56663555D01*
X22422269Y-56734469D01*
X22405527Y-56628763D01*
X22399339Y-56609719D01*
X22348214Y-56509382D01*
X22336445Y-56493183D01*
X22271716Y-56428454D01*
X23305046Y-56428454D01*
X23306813Y-56443729D01*
X23345263Y-56603885D01*
X23350623Y-56618299D01*
X23426166Y-56764661D01*
X23434810Y-56777379D01*
X23543084Y-56901496D01*
X23554512Y-56911785D01*
X23689267Y-57006493D01*
X23702819Y-57013760D01*
X23856276Y-57073590D01*
X23871171Y-57077415D01*
X23996793Y-57093953D01*
X24005146Y-57094500D01*
X25191302Y-57094500D01*
X25198991Y-57094036D01*
X25321203Y-57079247D01*
X25336136Y-57075579D01*
X25490211Y-57017359D01*
X25503839Y-57010235D01*
X25639578Y-56916944D01*
X25651113Y-56906775D01*
X25760681Y-56783798D01*
X25769457Y-56771171D01*
X25846529Y-56625609D01*
X25852040Y-56611252D01*
X25877470Y-56510012D01*
X35576857Y-56510012D01*
X35594473Y-56621237D01*
X35600661Y-56640281D01*
X35651786Y-56740618D01*
X35663555Y-56756817D01*
X35743183Y-56836445D01*
X35759382Y-56848214D01*
X35859719Y-56899339D01*
X35878763Y-56905527D01*
X35989988Y-56923143D01*
X36010012Y-56923143D01*
X36121237Y-56905527D01*
X36140281Y-56899339D01*
X36240618Y-56848214D01*
X36256817Y-56836445D01*
X36336445Y-56756817D01*
X36348214Y-56740618D01*
X36399339Y-56640281D01*
X36405527Y-56621237D01*
X36423143Y-56510012D01*
X37576857Y-56510012D01*
X37594473Y-56621237D01*
X37600661Y-56640281D01*
X37651786Y-56740618D01*
X37663555Y-56756817D01*
X37743183Y-56836445D01*
X37759382Y-56848214D01*
X37859719Y-56899339D01*
X37878763Y-56905527D01*
X37989988Y-56923143D01*
X38010012Y-56923143D01*
X38121237Y-56905527D01*
X38140281Y-56899339D01*
X38240618Y-56848214D01*
X38256817Y-56836445D01*
X38336445Y-56756817D01*
X38348214Y-56740618D01*
X38399339Y-56640281D01*
X38405527Y-56621237D01*
X38423143Y-56510012D01*
X38423143Y-56489988D01*
X38405527Y-56378763D01*
X38399339Y-56359719D01*
X38348214Y-56259382D01*
X38341398Y-56250000D01*
X38348214Y-56240618D01*
X38399339Y-56140281D01*
X38405527Y-56121237D01*
X38423143Y-56010012D01*
X38423143Y-55989988D01*
X38405527Y-55878763D01*
X38399339Y-55859719D01*
X38348214Y-55759382D01*
X38341398Y-55750000D01*
X38348214Y-55740618D01*
X38399339Y-55640281D01*
X38405527Y-55621237D01*
X38423143Y-55510012D01*
X38423143Y-55489988D01*
X38405527Y-55378763D01*
X38399339Y-55359719D01*
X38348214Y-55259382D01*
X38336445Y-55243183D01*
X38256817Y-55163555D01*
X38240618Y-55151786D01*
X38140281Y-55100661D01*
X38121237Y-55094473D01*
X38010012Y-55076857D01*
X37989988Y-55076857D01*
X37878763Y-55094473D01*
X37859719Y-55100661D01*
X37759382Y-55151786D01*
X37743183Y-55163555D01*
X37663555Y-55243183D01*
X37651786Y-55259382D01*
X37600661Y-55359719D01*
X37594473Y-55378763D01*
X37576857Y-55489988D01*
X37576857Y-55510012D01*
X37594473Y-55621237D01*
X37600661Y-55640281D01*
X37651786Y-55740618D01*
X37658602Y-55750000D01*
X37651786Y-55759382D01*
X37600661Y-55859719D01*
X37594473Y-55878763D01*
X37576857Y-55989988D01*
X37576857Y-56010012D01*
X37594473Y-56121237D01*
X37600661Y-56140281D01*
X37651786Y-56240618D01*
X37658602Y-56250000D01*
X37651786Y-56259382D01*
X37600661Y-56359719D01*
X37594473Y-56378763D01*
X37576857Y-56489988D01*
X37576857Y-56510012D01*
X36423143Y-56510012D01*
X36423143Y-56489988D01*
X36405527Y-56378763D01*
X36399339Y-56359719D01*
X36348214Y-56259382D01*
X36341398Y-56250000D01*
X36348214Y-56240618D01*
X36399339Y-56140281D01*
X36405527Y-56121237D01*
X36423143Y-56010012D01*
X36423143Y-55989988D01*
X36405527Y-55878763D01*
X36399339Y-55859719D01*
X36348214Y-55759382D01*
X36341398Y-55750000D01*
X36348214Y-55740618D01*
X36399339Y-55640281D01*
X36405527Y-55621237D01*
X36423143Y-55510012D01*
X36423143Y-55489988D01*
X36405527Y-55378763D01*
X36399339Y-55359719D01*
X36348214Y-55259382D01*
X36336445Y-55243183D01*
X36256817Y-55163555D01*
X36240618Y-55151786D01*
X36140281Y-55100661D01*
X36121237Y-55094473D01*
X36010012Y-55076857D01*
X35989988Y-55076857D01*
X35878763Y-55094473D01*
X35859719Y-55100661D01*
X35759382Y-55151786D01*
X35743183Y-55163555D01*
X35663555Y-55243183D01*
X35651786Y-55259382D01*
X35600661Y-55359719D01*
X35594473Y-55378763D01*
X35576857Y-55489988D01*
X35576857Y-55510012D01*
X35594473Y-55621237D01*
X35600661Y-55640281D01*
X35651786Y-55740618D01*
X35658602Y-55750000D01*
X35651786Y-55759382D01*
X35600661Y-55859719D01*
X35594473Y-55878763D01*
X35576857Y-55989988D01*
X35576857Y-56010012D01*
X35594473Y-56121237D01*
X35600661Y-56140281D01*
X35651786Y-56240618D01*
X35658602Y-56250000D01*
X35651786Y-56259382D01*
X35600661Y-56359719D01*
X35594473Y-56378763D01*
X35576857Y-56489988D01*
X35576857Y-56510012D01*
X25877470Y-56510012D01*
X25892165Y-56451507D01*
X25894092Y-56436251D01*
X25894954Y-56271546D01*
X25893187Y-56256271D01*
X25854737Y-56096115D01*
X25849377Y-56081701D01*
X25773834Y-55935339D01*
X25765190Y-55922621D01*
X25656916Y-55798504D01*
X25645488Y-55788215D01*
X25510733Y-55693507D01*
X25497181Y-55686240D01*
X25343724Y-55626410D01*
X25328829Y-55622585D01*
X25203207Y-55606047D01*
X25194854Y-55605500D01*
X24008698Y-55605500D01*
X24001009Y-55605964D01*
X23878797Y-55620753D01*
X23863864Y-55624421D01*
X23709789Y-55682641D01*
X23696161Y-55689765D01*
X23560422Y-55783056D01*
X23548887Y-55793225D01*
X23439319Y-55916202D01*
X23430543Y-55928829D01*
X23353471Y-56074391D01*
X23347960Y-56088748D01*
X23307835Y-56248493D01*
X23305908Y-56263749D01*
X23305046Y-56428454D01*
X22271716Y-56428454D01*
X22256817Y-56413555D01*
X22240618Y-56401786D01*
X22140281Y-56350661D01*
X22121237Y-56344473D01*
X22010012Y-56326857D01*
X21989988Y-56326857D01*
X21878763Y-56344473D01*
X21859719Y-56350661D01*
X21759382Y-56401786D01*
X21743183Y-56413555D01*
X21710588Y-56446151D01*
X21673403Y-56408966D01*
X21657204Y-56397197D01*
X21556867Y-56346072D01*
X21537823Y-56339884D01*
X21426598Y-56322268D01*
X21406574Y-56322268D01*
X21295349Y-56339884D01*
X21276305Y-56346072D01*
X21175968Y-56397197D01*
X21159769Y-56408966D01*
X21094741Y-56473994D01*
X21025140Y-56404393D01*
X21008941Y-56392624D01*
X20908604Y-56341499D01*
X20889560Y-56335311D01*
X20778335Y-56317695D01*
X20758311Y-56317695D01*
X20647086Y-56335311D01*
X20628042Y-56341499D01*
X20527705Y-56392624D01*
X20511506Y-56404393D01*
X20431878Y-56484021D01*
X20420109Y-56500220D01*
X20371964Y-56594709D01*
X20371237Y-56594473D01*
X20260012Y-56576857D01*
X20239988Y-56576857D01*
X20128763Y-56594473D01*
X20109719Y-56600661D01*
X20009382Y-56651786D01*
X19993183Y-56663555D01*
X19913555Y-56743183D01*
X19901786Y-56759382D01*
X19850661Y-56859719D01*
X19844473Y-56878763D01*
X19826857Y-56989988D01*
X19826857Y-57010012D01*
X19304163Y-57010012D01*
X19439578Y-56916944D01*
X19451113Y-56906775D01*
X19560681Y-56783798D01*
X19569457Y-56771171D01*
X19646529Y-56625609D01*
X19652040Y-56611252D01*
X19692165Y-56451507D01*
X19694092Y-56436251D01*
X19694954Y-56271546D01*
X19693187Y-56256271D01*
X19654737Y-56096115D01*
X19649377Y-56081701D01*
X19573834Y-55935339D01*
X19565190Y-55922621D01*
X19456916Y-55798504D01*
X19445488Y-55788215D01*
X19310733Y-55693507D01*
X19297181Y-55686240D01*
X19143724Y-55626410D01*
X19128829Y-55622585D01*
X19003207Y-55606047D01*
X18994854Y-55605500D01*
X17808698Y-55605500D01*
X17801009Y-55605964D01*
X17678797Y-55620753D01*
X17663864Y-55624421D01*
X17509789Y-55682641D01*
X17496161Y-55689765D01*
X17360422Y-55783056D01*
X17348887Y-55793225D01*
X17239319Y-55916202D01*
X17230543Y-55928829D01*
X17153471Y-56074391D01*
X17147960Y-56088748D01*
X17107835Y-56248493D01*
X17105908Y-56263749D01*
X17105046Y-56428454D01*
X194500Y-56428454D01*
X194500Y-47510012D01*
X24076857Y-47510012D01*
X24094473Y-47621237D01*
X24100661Y-47640281D01*
X24151786Y-47740618D01*
X24163555Y-47756817D01*
X24243183Y-47836445D01*
X24259382Y-47848214D01*
X24359719Y-47899339D01*
X24378763Y-47905527D01*
X24489988Y-47923143D01*
X24510012Y-47923143D01*
X24589436Y-47910564D01*
X24576857Y-47989988D01*
X24576857Y-48010012D01*
X24594473Y-48121237D01*
X24600661Y-48140281D01*
X24651786Y-48240618D01*
X24663555Y-48256817D01*
X24743183Y-48336445D01*
X24759382Y-48348214D01*
X24859719Y-48399339D01*
X24878763Y-48405527D01*
X24989988Y-48423143D01*
X25010012Y-48423143D01*
X25121237Y-48405527D01*
X25140281Y-48399339D01*
X25240618Y-48348214D01*
X25256817Y-48336445D01*
X25336445Y-48256817D01*
X25348214Y-48240618D01*
X25399339Y-48140281D01*
X25405527Y-48121237D01*
X25423143Y-48010012D01*
X25423143Y-47989988D01*
X25405527Y-47878763D01*
X25399339Y-47859719D01*
X25348214Y-47759382D01*
X25336445Y-47743183D01*
X25256817Y-47663555D01*
X25240618Y-47651786D01*
X25140281Y-47600661D01*
X25121237Y-47594473D01*
X25010012Y-47576857D01*
X24989988Y-47576857D01*
X24910564Y-47589436D01*
X24923143Y-47510012D01*
X24923143Y-47489988D01*
X24905527Y-47378763D01*
X24899339Y-47359719D01*
X24848214Y-47259382D01*
X24836445Y-47243183D01*
X24756817Y-47163555D01*
X24740618Y-47151786D01*
X24640281Y-47100661D01*
X24621237Y-47094473D01*
X24510012Y-47076857D01*
X24489988Y-47076857D01*
X24378763Y-47094473D01*
X24359719Y-47100661D01*
X24259382Y-47151786D01*
X24243183Y-47163555D01*
X24163555Y-47243183D01*
X24151786Y-47259382D01*
X24100661Y-47359719D01*
X24094473Y-47378763D01*
X24076857Y-47489988D01*
X24076857Y-47510012D01*
X194500Y-47510012D01*
X194500Y-45510012D01*
X6826857Y-45510012D01*
X6844473Y-45621237D01*
X6850661Y-45640281D01*
X6901786Y-45740618D01*
X6913555Y-45756817D01*
X6993183Y-45836445D01*
X7009382Y-45848214D01*
X7109719Y-45899339D01*
X7128763Y-45905527D01*
X7239988Y-45923143D01*
X7260012Y-45923143D01*
X7371237Y-45905527D01*
X7390281Y-45899339D01*
X7490618Y-45848214D01*
X7506817Y-45836445D01*
X7586445Y-45756817D01*
X7598214Y-45740618D01*
X7649339Y-45640281D01*
X7655527Y-45621237D01*
X7673143Y-45510012D01*
X7673143Y-45489988D01*
X7655527Y-45378763D01*
X7649339Y-45359719D01*
X7598214Y-45259382D01*
X7586445Y-45243183D01*
X7506817Y-45163555D01*
X7490618Y-45151786D01*
X7390281Y-45100661D01*
X7371237Y-45094473D01*
X7260012Y-45076857D01*
X7239988Y-45076857D01*
X7128763Y-45094473D01*
X7109719Y-45100661D01*
X7009382Y-45151786D01*
X6993183Y-45163555D01*
X6913555Y-45243183D01*
X6901786Y-45259382D01*
X6850661Y-45359719D01*
X6844473Y-45378763D01*
X6826857Y-45489988D01*
X6826857Y-45510012D01*
X194500Y-45510012D01*
X194500Y-40760012D01*
X5326857Y-40760012D01*
X5344473Y-40871237D01*
X5350661Y-40890281D01*
X5401786Y-40990618D01*
X5413555Y-41006817D01*
X5493183Y-41086445D01*
X5509382Y-41098214D01*
X5609719Y-41149339D01*
X5628763Y-41155527D01*
X5739988Y-41173143D01*
X5760012Y-41173143D01*
X5871237Y-41155527D01*
X5890281Y-41149339D01*
X5990618Y-41098214D01*
X6006817Y-41086445D01*
X6086445Y-41006817D01*
X6098214Y-40990618D01*
X6149339Y-40890281D01*
X6155527Y-40871237D01*
X6173143Y-40760012D01*
X6173143Y-40739988D01*
X6155527Y-40628763D01*
X6149339Y-40609719D01*
X6098214Y-40509382D01*
X6086445Y-40493183D01*
X6006817Y-40413555D01*
X5990618Y-40401786D01*
X5890281Y-40350661D01*
X5871237Y-40344473D01*
X5760012Y-40326857D01*
X5739988Y-40326857D01*
X5628763Y-40344473D01*
X5609719Y-40350661D01*
X5509382Y-40401786D01*
X5493183Y-40413555D01*
X5413555Y-40493183D01*
X5401786Y-40509382D01*
X5350661Y-40609719D01*
X5344473Y-40628763D01*
X5326857Y-40739988D01*
X5326857Y-40760012D01*
X194500Y-40760012D01*
X194500Y-34510012D01*
X4826857Y-34510012D01*
X4844473Y-34621237D01*
X4850661Y-34640281D01*
X4901786Y-34740618D01*
X4913555Y-34756817D01*
X4993183Y-34836445D01*
X5009382Y-34848214D01*
X5109719Y-34899339D01*
X5128763Y-34905527D01*
X5239988Y-34923143D01*
X5260012Y-34923143D01*
X5371237Y-34905527D01*
X5390281Y-34899339D01*
X5490618Y-34848214D01*
X5506817Y-34836445D01*
X5583250Y-34760012D01*
X6576857Y-34760012D01*
X6594473Y-34871237D01*
X6600661Y-34890281D01*
X6651786Y-34990618D01*
X6663555Y-35006817D01*
X6743183Y-35086445D01*
X6759382Y-35098214D01*
X6859719Y-35149339D01*
X6878763Y-35155527D01*
X6989988Y-35173143D01*
X7010012Y-35173143D01*
X7121237Y-35155527D01*
X7140281Y-35149339D01*
X7240618Y-35098214D01*
X7256817Y-35086445D01*
X7336445Y-35006817D01*
X7348214Y-34990618D01*
X7399339Y-34890281D01*
X7405527Y-34871237D01*
X7423143Y-34760012D01*
X7423143Y-34739988D01*
X7405527Y-34628763D01*
X7399339Y-34609719D01*
X7348214Y-34509382D01*
X7336445Y-34493183D01*
X7256817Y-34413555D01*
X7240618Y-34401786D01*
X7140281Y-34350661D01*
X7121237Y-34344473D01*
X7010012Y-34326857D01*
X6989988Y-34326857D01*
X6878763Y-34344473D01*
X6859719Y-34350661D01*
X6759382Y-34401786D01*
X6743183Y-34413555D01*
X6663555Y-34493183D01*
X6651786Y-34509382D01*
X6600661Y-34609719D01*
X6594473Y-34628763D01*
X6576857Y-34739988D01*
X6576857Y-34760012D01*
X5583250Y-34760012D01*
X5586445Y-34756817D01*
X5598214Y-34740618D01*
X5649339Y-34640281D01*
X5655527Y-34621237D01*
X5673143Y-34510012D01*
X5673143Y-34489988D01*
X5655527Y-34378763D01*
X5649339Y-34359719D01*
X5598214Y-34259382D01*
X5586445Y-34243183D01*
X5506817Y-34163555D01*
X5490618Y-34151786D01*
X5390281Y-34100661D01*
X5371237Y-34094473D01*
X5260012Y-34076857D01*
X5239988Y-34076857D01*
X5128763Y-34094473D01*
X5109719Y-34100661D01*
X5009382Y-34151786D01*
X4993183Y-34163555D01*
X4913555Y-34243183D01*
X4901786Y-34259382D01*
X4850661Y-34359719D01*
X4844473Y-34378763D01*
X4826857Y-34489988D01*
X4826857Y-34510012D01*
X194500Y-34510012D01*
X194500Y-31010012D01*
X12576857Y-31010012D01*
X12594473Y-31121237D01*
X12600661Y-31140281D01*
X12651786Y-31240618D01*
X12663555Y-31256817D01*
X12743183Y-31336445D01*
X12759382Y-31348214D01*
X12859719Y-31399339D01*
X12878763Y-31405527D01*
X12989988Y-31423143D01*
X13010012Y-31423143D01*
X13121237Y-31405527D01*
X13140281Y-31399339D01*
X13240618Y-31348214D01*
X13256817Y-31336445D01*
X13336445Y-31256817D01*
X13348214Y-31240618D01*
X13399339Y-31140281D01*
X13405527Y-31121237D01*
X13423143Y-31010012D01*
X13423143Y-30989988D01*
X13405527Y-30878763D01*
X13399339Y-30859719D01*
X13348214Y-30759382D01*
X13341398Y-30750000D01*
X13348214Y-30740618D01*
X13399339Y-30640281D01*
X13405527Y-30621237D01*
X13423143Y-30510012D01*
X13423143Y-30489988D01*
X13405527Y-30378763D01*
X13399339Y-30359719D01*
X13348214Y-30259382D01*
X13341398Y-30250000D01*
X13348214Y-30240618D01*
X13399339Y-30140281D01*
X13405527Y-30121237D01*
X13423143Y-30010012D01*
X13423143Y-29989988D01*
X13405527Y-29878763D01*
X13399339Y-29859719D01*
X13348214Y-29759382D01*
X13336445Y-29743183D01*
X13256817Y-29663555D01*
X13240618Y-29651786D01*
X13140281Y-29600661D01*
X13121237Y-29594473D01*
X13010012Y-29576857D01*
X12989988Y-29576857D01*
X12878763Y-29594473D01*
X12859719Y-29600661D01*
X12759382Y-29651786D01*
X12743183Y-29663555D01*
X12663555Y-29743183D01*
X12651786Y-29759382D01*
X12600661Y-29859719D01*
X12594473Y-29878763D01*
X12576857Y-29989988D01*
X12576857Y-30010012D01*
X12594473Y-30121237D01*
X12600661Y-30140281D01*
X12651786Y-30240618D01*
X12658602Y-30250000D01*
X12651786Y-30259382D01*
X12600661Y-30359719D01*
X12594473Y-30378763D01*
X12576857Y-30489988D01*
X12576857Y-30510012D01*
X12594473Y-30621237D01*
X12600661Y-30640281D01*
X12651786Y-30740618D01*
X12658602Y-30750000D01*
X12651786Y-30759382D01*
X12600661Y-30859719D01*
X12594473Y-30878763D01*
X12576857Y-30989988D01*
X12576857Y-31010012D01*
X194500Y-31010012D01*
X194500Y-25760012D01*
X16576857Y-25760012D01*
X16594473Y-25871237D01*
X16600661Y-25890281D01*
X16651786Y-25990618D01*
X16663555Y-26006817D01*
X16743183Y-26086445D01*
X16759382Y-26098214D01*
X16859719Y-26149339D01*
X16878763Y-26155527D01*
X16989988Y-26173143D01*
X17010012Y-26173143D01*
X17121237Y-26155527D01*
X17140281Y-26149339D01*
X17240618Y-26098214D01*
X17250000Y-26091398D01*
X17259382Y-26098214D01*
X17359719Y-26149339D01*
X17378763Y-26155527D01*
X17489988Y-26173143D01*
X17510012Y-26173143D01*
X17621237Y-26155527D01*
X17640281Y-26149339D01*
X17740618Y-26098214D01*
X17750000Y-26091398D01*
X17759382Y-26098214D01*
X17859719Y-26149339D01*
X17878763Y-26155527D01*
X17989988Y-26173143D01*
X18010012Y-26173143D01*
X18121237Y-26155527D01*
X18140281Y-26149339D01*
X18240618Y-26098214D01*
X18256817Y-26086445D01*
X18336445Y-26006817D01*
X18348214Y-25990618D01*
X18399339Y-25890281D01*
X18405527Y-25871237D01*
X18423143Y-25760012D01*
X18423143Y-25739988D01*
X18405527Y-25628763D01*
X18399339Y-25609719D01*
X18348214Y-25509382D01*
X18336445Y-25493183D01*
X18256817Y-25413555D01*
X18240618Y-25401786D01*
X18140281Y-25350661D01*
X18121237Y-25344473D01*
X18010012Y-25326857D01*
X17989988Y-25326857D01*
X17878763Y-25344473D01*
X17859719Y-25350661D01*
X17759382Y-25401786D01*
X17750000Y-25408602D01*
X17740618Y-25401786D01*
X17640281Y-25350661D01*
X17621237Y-25344473D01*
X17510012Y-25326857D01*
X17489988Y-25326857D01*
X17378763Y-25344473D01*
X17359719Y-25350661D01*
X17259382Y-25401786D01*
X17250000Y-25408602D01*
X17240618Y-25401786D01*
X17140281Y-25350661D01*
X17121237Y-25344473D01*
X17010012Y-25326857D01*
X16989988Y-25326857D01*
X16878763Y-25344473D01*
X16859719Y-25350661D01*
X16759382Y-25401786D01*
X16743183Y-25413555D01*
X16663555Y-25493183D01*
X16651786Y-25509382D01*
X16600661Y-25609719D01*
X16594473Y-25628763D01*
X16576857Y-25739988D01*
X16576857Y-25760012D01*
X194500Y-25760012D01*
X194500Y-23260012D01*
X16576857Y-23260012D01*
X16594473Y-23371237D01*
X16600661Y-23390281D01*
X16651786Y-23490618D01*
X16663555Y-23506817D01*
X16743183Y-23586445D01*
X16759382Y-23598214D01*
X16859719Y-23649339D01*
X16878763Y-23655527D01*
X16989988Y-23673143D01*
X17010012Y-23673143D01*
X17121237Y-23655527D01*
X17140281Y-23649339D01*
X17240618Y-23598214D01*
X17250000Y-23591398D01*
X17259382Y-23598214D01*
X17359719Y-23649339D01*
X17378763Y-23655527D01*
X17489988Y-23673143D01*
X17510012Y-23673143D01*
X17621237Y-23655527D01*
X17640281Y-23649339D01*
X17740618Y-23598214D01*
X17750000Y-23591398D01*
X17759382Y-23598214D01*
X17859719Y-23649339D01*
X17878763Y-23655527D01*
X17989988Y-23673143D01*
X18010012Y-23673143D01*
X18121237Y-23655527D01*
X18140281Y-23649339D01*
X18240618Y-23598214D01*
X18256817Y-23586445D01*
X18336445Y-23506817D01*
X18348214Y-23490618D01*
X18399339Y-23390281D01*
X18405527Y-23371237D01*
X18423143Y-23260012D01*
X18423143Y-23239988D01*
X18405527Y-23128763D01*
X18399339Y-23109719D01*
X18348214Y-23009382D01*
X18336445Y-22993183D01*
X18256817Y-22913555D01*
X18240618Y-22901786D01*
X18140281Y-22850661D01*
X18121237Y-22844473D01*
X18010012Y-22826857D01*
X17989988Y-22826857D01*
X17878763Y-22844473D01*
X17859719Y-22850661D01*
X17759382Y-22901786D01*
X17750000Y-22908602D01*
X17740618Y-22901786D01*
X17640281Y-22850661D01*
X17621237Y-22844473D01*
X17510012Y-22826857D01*
X17489988Y-22826857D01*
X17378763Y-22844473D01*
X17359719Y-22850661D01*
X17259382Y-22901786D01*
X17250000Y-22908602D01*
X17240618Y-22901786D01*
X17140281Y-22850661D01*
X17121237Y-22844473D01*
X17010012Y-22826857D01*
X16989988Y-22826857D01*
X16878763Y-22844473D01*
X16859719Y-22850661D01*
X16759382Y-22901786D01*
X16743183Y-22913555D01*
X16663555Y-22993183D01*
X16651786Y-23009382D01*
X16600661Y-23109719D01*
X16594473Y-23128763D01*
X16576857Y-23239988D01*
X16576857Y-23260012D01*
X194500Y-23260012D01*
X194500Y-14760012D01*
X6326857Y-14760012D01*
X6344473Y-14871237D01*
X6350661Y-14890281D01*
X6401786Y-14990618D01*
X6413555Y-15006817D01*
X6493183Y-15086445D01*
X6509382Y-15098214D01*
X6609719Y-15149339D01*
X6628763Y-15155527D01*
X6739988Y-15173143D01*
X6760012Y-15173143D01*
X6871237Y-15155527D01*
X6890281Y-15149339D01*
X6990618Y-15098214D01*
X7006817Y-15086445D01*
X7086445Y-15006817D01*
X7098214Y-14990618D01*
X7149339Y-14890281D01*
X7155527Y-14871237D01*
X7173143Y-14760012D01*
X7173143Y-14739988D01*
X7155527Y-14628763D01*
X7149339Y-14609719D01*
X7098214Y-14509382D01*
X7086445Y-14493183D01*
X7006817Y-14413555D01*
X6990618Y-14401786D01*
X6890281Y-14350661D01*
X6871237Y-14344473D01*
X6760012Y-14326857D01*
X6739988Y-14326857D01*
X6628763Y-14344473D01*
X6609719Y-14350661D01*
X6509382Y-14401786D01*
X6493183Y-14413555D01*
X6413555Y-14493183D01*
X6401786Y-14509382D01*
X6350661Y-14609719D01*
X6344473Y-14628763D01*
X6326857Y-14739988D01*
X6326857Y-14760012D01*
X194500Y-14760012D01*
X194500Y-13260012D01*
X9076857Y-13260012D01*
X9094473Y-13371237D01*
X9100661Y-13390281D01*
X9151786Y-13490618D01*
X9163555Y-13506817D01*
X9243183Y-13586445D01*
X9259382Y-13598214D01*
X9359719Y-13649339D01*
X9378763Y-13655527D01*
X9489988Y-13673143D01*
X9510012Y-13673143D01*
X9621237Y-13655527D01*
X9640281Y-13649339D01*
X9740618Y-13598214D01*
X9756817Y-13586445D01*
X9833762Y-13509500D01*
X10142511Y-13509500D01*
X18373511Y-21740500D01*
X15833762Y-21740500D01*
X15756817Y-21663555D01*
X15740618Y-21651786D01*
X15640281Y-21600661D01*
X15621237Y-21594473D01*
X15510012Y-21576857D01*
X15489988Y-21576857D01*
X15378763Y-21594473D01*
X15359719Y-21600661D01*
X15259382Y-21651786D01*
X15243183Y-21663555D01*
X15163555Y-21743183D01*
X15151786Y-21759382D01*
X15100661Y-21859719D01*
X15094473Y-21878763D01*
X15076857Y-21989988D01*
X15076857Y-22010012D01*
X15094473Y-22121237D01*
X15100661Y-22140281D01*
X15151786Y-22240618D01*
X15163555Y-22256817D01*
X15243183Y-22336445D01*
X15259382Y-22348214D01*
X15359719Y-22399339D01*
X15378763Y-22405527D01*
X15489988Y-22423143D01*
X15510012Y-22423143D01*
X15621237Y-22405527D01*
X15640281Y-22399339D01*
X15740618Y-22348214D01*
X15756817Y-22336445D01*
X15833762Y-22259500D01*
X18392511Y-22259500D01*
X20625210Y-24492199D01*
X20625372Y-24492536D01*
X20643093Y-24514815D01*
X20666724Y-24533713D01*
X20672092Y-24539081D01*
X20683287Y-24548010D01*
X20689432Y-24551873D01*
X20712753Y-24570522D01*
X20738380Y-24582911D01*
X20739067Y-24583069D01*
X20739667Y-24583446D01*
X20766535Y-24592854D01*
X20796208Y-24596208D01*
X20803439Y-24597871D01*
X20817785Y-24599500D01*
X20825326Y-24599500D01*
X20855164Y-24602873D01*
X20883452Y-24599700D01*
X20884025Y-24599500D01*
X35224247Y-24599500D01*
X29833248Y-29990500D01*
X22083762Y-29990500D01*
X22006817Y-29913555D01*
X21990618Y-29901786D01*
X21890281Y-29850661D01*
X21871237Y-29844473D01*
X21760012Y-29826857D01*
X21739988Y-29826857D01*
X21628763Y-29844473D01*
X21609719Y-29850661D01*
X21509382Y-29901786D01*
X21493183Y-29913555D01*
X21413555Y-29993183D01*
X21401786Y-30009382D01*
X21350661Y-30109719D01*
X21344473Y-30128763D01*
X21326857Y-30239988D01*
X21326857Y-30260012D01*
X21339436Y-30339436D01*
X21260012Y-30326857D01*
X21239988Y-30326857D01*
X21128763Y-30344473D01*
X21109719Y-30350661D01*
X21009382Y-30401786D01*
X20993183Y-30413555D01*
X20913555Y-30493183D01*
X20901786Y-30509382D01*
X20850661Y-30609719D01*
X20844473Y-30628763D01*
X20826857Y-30739988D01*
X20826857Y-30760012D01*
X20844473Y-30871237D01*
X20850661Y-30890281D01*
X20901726Y-30990500D01*
X20083762Y-30990500D01*
X20006817Y-30913555D01*
X19990618Y-30901786D01*
X19890281Y-30850661D01*
X19871237Y-30844473D01*
X19760012Y-30826857D01*
X19739988Y-30826857D01*
X19628763Y-30844473D01*
X19609719Y-30850661D01*
X19509382Y-30901786D01*
X19493183Y-30913555D01*
X19413555Y-30993183D01*
X19401786Y-31009382D01*
X19350661Y-31109719D01*
X19344473Y-31128763D01*
X19326857Y-31239988D01*
X19326857Y-31260012D01*
X19344473Y-31371237D01*
X19350661Y-31390281D01*
X19401786Y-31490618D01*
X19413555Y-31506817D01*
X19493183Y-31586445D01*
X19509382Y-31598214D01*
X19609719Y-31649339D01*
X19628763Y-31655527D01*
X19739988Y-31673143D01*
X19760012Y-31673143D01*
X19871237Y-31655527D01*
X19890281Y-31649339D01*
X19990618Y-31598214D01*
X20006817Y-31586445D01*
X20083762Y-31509500D01*
X29417336Y-31509500D01*
X29186336Y-31740500D01*
X20583762Y-31740500D01*
X20506817Y-31663555D01*
X20490618Y-31651786D01*
X20390281Y-31600661D01*
X20371237Y-31594473D01*
X20260012Y-31576857D01*
X20239988Y-31576857D01*
X20128763Y-31594473D01*
X20109719Y-31600661D01*
X20009382Y-31651786D01*
X19993183Y-31663555D01*
X19913555Y-31743183D01*
X19901786Y-31759382D01*
X19850661Y-31859719D01*
X19844473Y-31878763D01*
X19826857Y-31989988D01*
X19826857Y-32010012D01*
X19844473Y-32121237D01*
X19850661Y-32140281D01*
X19901786Y-32240618D01*
X19913555Y-32256817D01*
X19993183Y-32336445D01*
X20009382Y-32348214D01*
X20109719Y-32399339D01*
X20128763Y-32405527D01*
X20239988Y-32423143D01*
X20260012Y-32423143D01*
X20371237Y-32405527D01*
X20390281Y-32399339D01*
X20490618Y-32348214D01*
X20506817Y-32336445D01*
X20583762Y-32259500D01*
X29035032Y-32259500D01*
X28804032Y-32490500D01*
X17083762Y-32490500D01*
X17006817Y-32413555D01*
X16990618Y-32401786D01*
X16890281Y-32350661D01*
X16871237Y-32344473D01*
X16760012Y-32326857D01*
X16739988Y-32326857D01*
X16628763Y-32344473D01*
X16609719Y-32350661D01*
X16509382Y-32401786D01*
X16493183Y-32413555D01*
X16413555Y-32493183D01*
X16401786Y-32509382D01*
X16350661Y-32609719D01*
X16344473Y-32628763D01*
X16326857Y-32739988D01*
X16326857Y-32760012D01*
X16344473Y-32871237D01*
X16350661Y-32890281D01*
X16401786Y-32990618D01*
X16413555Y-33006817D01*
X16493183Y-33086445D01*
X16509382Y-33098214D01*
X16609719Y-33149339D01*
X16628763Y-33155527D01*
X16739988Y-33173143D01*
X16760012Y-33173143D01*
X16839436Y-33160564D01*
X16826857Y-33239988D01*
X16826857Y-33260012D01*
X16844473Y-33371237D01*
X16850661Y-33390281D01*
X16901786Y-33490618D01*
X16913555Y-33506817D01*
X16993183Y-33586445D01*
X17009382Y-33598214D01*
X17109719Y-33649339D01*
X17128763Y-33655527D01*
X17239988Y-33673143D01*
X17260012Y-33673143D01*
X17339436Y-33660564D01*
X17326857Y-33739988D01*
X17326857Y-33760012D01*
X17344473Y-33871237D01*
X17350661Y-33890281D01*
X17401786Y-33990618D01*
X17413555Y-34006817D01*
X17493183Y-34086445D01*
X17509382Y-34098214D01*
X17609719Y-34149339D01*
X17628763Y-34155527D01*
X17739988Y-34173143D01*
X17760012Y-34173143D01*
X17871237Y-34155527D01*
X17890281Y-34149339D01*
X17990618Y-34098214D01*
X18006817Y-34086445D01*
X18083762Y-34009500D01*
X23401726Y-34009500D01*
X23350661Y-34109719D01*
X23344473Y-34128763D01*
X23326857Y-34239988D01*
X23326857Y-34260012D01*
X23344473Y-34371237D01*
X23350661Y-34390281D01*
X23401786Y-34490618D01*
X23413555Y-34506817D01*
X23493183Y-34586445D01*
X23509382Y-34598214D01*
X23609719Y-34649339D01*
X23628763Y-34655527D01*
X23739988Y-34673143D01*
X23760012Y-34673143D01*
X23871237Y-34655527D01*
X23890281Y-34649339D01*
X23990618Y-34598214D01*
X24006817Y-34586445D01*
X24083762Y-34509500D01*
X28255816Y-34509500D01*
X28024816Y-34740500D01*
X25083762Y-34740500D01*
X25006817Y-34663555D01*
X24990618Y-34651786D01*
X24890281Y-34600661D01*
X24871237Y-34594473D01*
X24760012Y-34576857D01*
X24739988Y-34576857D01*
X24628763Y-34594473D01*
X24609719Y-34600661D01*
X24509382Y-34651786D01*
X24493183Y-34663555D01*
X24413555Y-34743183D01*
X24401786Y-34759382D01*
X24350661Y-34859719D01*
X24344473Y-34878763D01*
X24326857Y-34989988D01*
X24326857Y-35010012D01*
X24344473Y-35121237D01*
X24350661Y-35140281D01*
X24401786Y-35240618D01*
X24413555Y-35256817D01*
X24493183Y-35336445D01*
X24509382Y-35348214D01*
X24609719Y-35399339D01*
X24628763Y-35405527D01*
X24739988Y-35423143D01*
X24760012Y-35423143D01*
X24871237Y-35405527D01*
X24890281Y-35399339D01*
X24990618Y-35348214D01*
X25006817Y-35336445D01*
X25083762Y-35259500D01*
X27873512Y-35259500D01*
X27642512Y-35490500D01*
X26083762Y-35490500D01*
X26006817Y-35413555D01*
X25990618Y-35401786D01*
X25890281Y-35350661D01*
X25871237Y-35344473D01*
X25760012Y-35326857D01*
X25739988Y-35326857D01*
X25628763Y-35344473D01*
X25609719Y-35350661D01*
X25509382Y-35401786D01*
X25493183Y-35413555D01*
X25413555Y-35493183D01*
X25401786Y-35509382D01*
X25350661Y-35609719D01*
X25344473Y-35628763D01*
X25326857Y-35739988D01*
X25326857Y-35760012D01*
X25344473Y-35871237D01*
X25350661Y-35890281D01*
X25401726Y-35990500D01*
X24583762Y-35990500D01*
X24506817Y-35913555D01*
X24490618Y-35901786D01*
X24390281Y-35850661D01*
X24371237Y-35844473D01*
X24260012Y-35826857D01*
X24239988Y-35826857D01*
X24128763Y-35844473D01*
X24109719Y-35850661D01*
X24009382Y-35901786D01*
X23993183Y-35913555D01*
X23913555Y-35993183D01*
X23901786Y-36009382D01*
X23850661Y-36109719D01*
X23844473Y-36128763D01*
X23826857Y-36239988D01*
X23826857Y-36260012D01*
X23844473Y-36371237D01*
X23850661Y-36390281D01*
X23901726Y-36490500D01*
X23583762Y-36490500D01*
X23506817Y-36413555D01*
X23490618Y-36401786D01*
X23390281Y-36350661D01*
X23371237Y-36344473D01*
X23260012Y-36326857D01*
X23239988Y-36326857D01*
X23128763Y-36344473D01*
X23109719Y-36350661D01*
X23009382Y-36401786D01*
X22993183Y-36413555D01*
X22913555Y-36493183D01*
X22901786Y-36509382D01*
X22850661Y-36609719D01*
X22844473Y-36628763D01*
X22826857Y-36739988D01*
X22826857Y-36760012D01*
X22839436Y-36839436D01*
X22760012Y-36826857D01*
X22739988Y-36826857D01*
X22628763Y-36844473D01*
X22609719Y-36850661D01*
X22509382Y-36901786D01*
X22493183Y-36913555D01*
X22413555Y-36993183D01*
X22401786Y-37009382D01*
X22350661Y-37109719D01*
X22344473Y-37128763D01*
X22326857Y-37239988D01*
X22326857Y-37260012D01*
X22344473Y-37371237D01*
X22350661Y-37390281D01*
X22401726Y-37490500D01*
X21083762Y-37490500D01*
X21006817Y-37413555D01*
X20990618Y-37401786D01*
X20890281Y-37350661D01*
X20871237Y-37344473D01*
X20760012Y-37326857D01*
X20739988Y-37326857D01*
X20628763Y-37344473D01*
X20609719Y-37350661D01*
X20509382Y-37401786D01*
X20493183Y-37413555D01*
X20413555Y-37493183D01*
X20401786Y-37509382D01*
X20350661Y-37609719D01*
X20344473Y-37628763D01*
X20326857Y-37739988D01*
X20326857Y-37760012D01*
X20344473Y-37871237D01*
X20350661Y-37890281D01*
X20401786Y-37990618D01*
X20413555Y-38006817D01*
X20493183Y-38086445D01*
X20509382Y-38098214D01*
X20609719Y-38149339D01*
X20628763Y-38155527D01*
X20739988Y-38173143D01*
X20760012Y-38173143D01*
X20871237Y-38155527D01*
X20890281Y-38149339D01*
X20990618Y-38098214D01*
X21006817Y-38086445D01*
X21083762Y-38009500D01*
X21901726Y-38009500D01*
X21850661Y-38109719D01*
X21844473Y-38128763D01*
X21826857Y-38239988D01*
X21826857Y-38260012D01*
X21844473Y-38371237D01*
X21850661Y-38390281D01*
X21901726Y-38490500D01*
X19083762Y-38490500D01*
X19006817Y-38413555D01*
X18990618Y-38401786D01*
X18890281Y-38350661D01*
X18871237Y-38344473D01*
X18760012Y-38326857D01*
X18739988Y-38326857D01*
X18628763Y-38344473D01*
X18609719Y-38350661D01*
X18509382Y-38401786D01*
X18493183Y-38413555D01*
X18413555Y-38493183D01*
X18401786Y-38509382D01*
X18350661Y-38609719D01*
X18344473Y-38628763D01*
X18326857Y-38739988D01*
X18326857Y-38760012D01*
X18344473Y-38871237D01*
X18350661Y-38890281D01*
X18401786Y-38990618D01*
X18413555Y-39006817D01*
X18493183Y-39086445D01*
X18509382Y-39098214D01*
X18609719Y-39149339D01*
X18628763Y-39155527D01*
X18739988Y-39173143D01*
X18760012Y-39173143D01*
X18839436Y-39160564D01*
X18826857Y-39239988D01*
X18826857Y-39260012D01*
X18844473Y-39371237D01*
X18850661Y-39390281D01*
X18901726Y-39490500D01*
X18583762Y-39490500D01*
X18506817Y-39413555D01*
X18490618Y-39401786D01*
X18390281Y-39350661D01*
X18371237Y-39344473D01*
X18260012Y-39326857D01*
X18239988Y-39326857D01*
X18128763Y-39344473D01*
X18109719Y-39350661D01*
X18009382Y-39401786D01*
X17993183Y-39413555D01*
X17913555Y-39493183D01*
X17901786Y-39509382D01*
X17850661Y-39609719D01*
X17844473Y-39628763D01*
X17826857Y-39739988D01*
X17826857Y-39760012D01*
X17844473Y-39871237D01*
X17850661Y-39890281D01*
X17901786Y-39990618D01*
X17913555Y-40006817D01*
X17993183Y-40086445D01*
X18009382Y-40098214D01*
X18109719Y-40149339D01*
X18128763Y-40155527D01*
X18239988Y-40173143D01*
X18260012Y-40173143D01*
X18371237Y-40155527D01*
X18390281Y-40149339D01*
X18490618Y-40098214D01*
X18506817Y-40086445D01*
X18583762Y-40009500D01*
X25901726Y-40009500D01*
X25850661Y-40109719D01*
X25844473Y-40128763D01*
X25826857Y-40239988D01*
X25826857Y-40260012D01*
X25844473Y-40371237D01*
X25850661Y-40390281D01*
X25901786Y-40490618D01*
X25913555Y-40506817D01*
X25993183Y-40586445D01*
X26009382Y-40598214D01*
X26109719Y-40649339D01*
X26128763Y-40655527D01*
X26239988Y-40673143D01*
X26260012Y-40673143D01*
X26371237Y-40655527D01*
X26390281Y-40649339D01*
X26490618Y-40598214D01*
X26506817Y-40586445D01*
X26583762Y-40509500D01*
X28580741Y-40509500D01*
X28581094Y-40509624D01*
X28609378Y-40512846D01*
X28639445Y-40509500D01*
X28647042Y-40509500D01*
X28661275Y-40507897D01*
X28668346Y-40506284D01*
X28698026Y-40502981D01*
X28724910Y-40493619D01*
X28725509Y-40493244D01*
X28726193Y-40493088D01*
X28751845Y-40480743D01*
X28775193Y-40462138D01*
X28781494Y-40458193D01*
X28792786Y-40449203D01*
X28798121Y-40443868D01*
X28821602Y-40425157D01*
X28839361Y-40402911D01*
X28839625Y-40402364D01*
X37661739Y-31580250D01*
X37739989Y-31592643D01*
X37760012Y-31592643D01*
X37871237Y-31575027D01*
X37890281Y-31568839D01*
X37990618Y-31517714D01*
X38006817Y-31505945D01*
X38086445Y-31426317D01*
X38098214Y-31410118D01*
X38149339Y-31309781D01*
X38155527Y-31290737D01*
X38160393Y-31260012D01*
X40326857Y-31260012D01*
X40344473Y-31371237D01*
X40350661Y-31390281D01*
X40401786Y-31490618D01*
X40413555Y-31506817D01*
X40493183Y-31586445D01*
X40509382Y-31598214D01*
X40609719Y-31649339D01*
X40628763Y-31655527D01*
X40739988Y-31673143D01*
X40760012Y-31673143D01*
X40871237Y-31655527D01*
X40890281Y-31649339D01*
X40990618Y-31598214D01*
X41006817Y-31586445D01*
X41086445Y-31506817D01*
X41098214Y-31490618D01*
X41149339Y-31390281D01*
X41155527Y-31371237D01*
X41173143Y-31260012D01*
X41173143Y-31239988D01*
X41155527Y-31128763D01*
X41149339Y-31109719D01*
X41098214Y-31009382D01*
X41086445Y-30993183D01*
X41006817Y-30913555D01*
X40990618Y-30901786D01*
X40890281Y-30850661D01*
X40871237Y-30844473D01*
X40760012Y-30826857D01*
X40739988Y-30826857D01*
X40628763Y-30844473D01*
X40609719Y-30850661D01*
X40509382Y-30901786D01*
X40493183Y-30913555D01*
X40413555Y-30993183D01*
X40401786Y-31009382D01*
X40350661Y-31109719D01*
X40344473Y-31128763D01*
X40326857Y-31239988D01*
X40326857Y-31260012D01*
X38160393Y-31260012D01*
X38173143Y-31179512D01*
X38173143Y-31159488D01*
X38155527Y-31048263D01*
X38149339Y-31029219D01*
X38139292Y-31009500D01*
X38916238Y-31009500D01*
X38993183Y-31086445D01*
X39009382Y-31098214D01*
X39109719Y-31149339D01*
X39128763Y-31155527D01*
X39239988Y-31173143D01*
X39260012Y-31173143D01*
X39371237Y-31155527D01*
X39390281Y-31149339D01*
X39490618Y-31098214D01*
X39506817Y-31086445D01*
X39586445Y-31006817D01*
X39598214Y-30990618D01*
X39649339Y-30890281D01*
X39655527Y-30871237D01*
X39673143Y-30760012D01*
X39673143Y-30739988D01*
X39655527Y-30628763D01*
X39649339Y-30609719D01*
X39598274Y-30509500D01*
X40416238Y-30509500D01*
X40493183Y-30586445D01*
X40509382Y-30598214D01*
X40609719Y-30649339D01*
X40628763Y-30655527D01*
X40739988Y-30673143D01*
X40760012Y-30673143D01*
X40871237Y-30655527D01*
X40890281Y-30649339D01*
X40990618Y-30598214D01*
X41006817Y-30586445D01*
X41086445Y-30506817D01*
X41098214Y-30490618D01*
X41149339Y-30390281D01*
X41155527Y-30371237D01*
X41173143Y-30260012D01*
X41173143Y-30239988D01*
X41155527Y-30128763D01*
X41149339Y-30109719D01*
X41098214Y-30009382D01*
X41086445Y-29993183D01*
X41006817Y-29913555D01*
X40990618Y-29901786D01*
X40890281Y-29850661D01*
X40871237Y-29844473D01*
X40760012Y-29826857D01*
X40739988Y-29826857D01*
X40628763Y-29844473D01*
X40609719Y-29850661D01*
X40509382Y-29901786D01*
X40493183Y-29913555D01*
X40416238Y-29990500D01*
X39598274Y-29990500D01*
X39649339Y-29890281D01*
X39655527Y-29871237D01*
X39673143Y-29760012D01*
X39673143Y-29739988D01*
X39655527Y-29628763D01*
X39649339Y-29609719D01*
X39598214Y-29509382D01*
X39586445Y-29493183D01*
X39506817Y-29413555D01*
X39490618Y-29401786D01*
X39390281Y-29350661D01*
X39371237Y-29344473D01*
X39260012Y-29326857D01*
X39239989Y-29326857D01*
X39202908Y-29332730D01*
X39196907Y-29325185D01*
X39173271Y-29306283D01*
X39167908Y-29300920D01*
X39156711Y-29291990D01*
X39150578Y-29288135D01*
X39127248Y-29269478D01*
X39106607Y-29259500D01*
X40326857Y-29259500D01*
X40326857Y-29260012D01*
X40344473Y-29371237D01*
X40350661Y-29390281D01*
X40401786Y-29490618D01*
X40413555Y-29506817D01*
X40493183Y-29586445D01*
X40509382Y-29598214D01*
X40609719Y-29649339D01*
X40628763Y-29655527D01*
X40739988Y-29673143D01*
X40760012Y-29673143D01*
X40871237Y-29655527D01*
X40890281Y-29649339D01*
X40990618Y-29598214D01*
X41006817Y-29586445D01*
X41086445Y-29506817D01*
X41098214Y-29490618D01*
X41149339Y-29390281D01*
X41155527Y-29371237D01*
X41173143Y-29260012D01*
X41173143Y-29239988D01*
X41155527Y-29128763D01*
X41149339Y-29109719D01*
X41098214Y-29009382D01*
X41086445Y-28993183D01*
X41006817Y-28913555D01*
X40990618Y-28901786D01*
X40890281Y-28850661D01*
X40871237Y-28844473D01*
X40760012Y-28826857D01*
X40739989Y-28826857D01*
X40702908Y-28832730D01*
X40696907Y-28825185D01*
X40673271Y-28806283D01*
X40667908Y-28800920D01*
X40656711Y-28791990D01*
X40650578Y-28788135D01*
X40627248Y-28769478D01*
X40601620Y-28757089D01*
X40600933Y-28756931D01*
X40600333Y-28756554D01*
X40573465Y-28747146D01*
X40543792Y-28743792D01*
X40536561Y-28742129D01*
X40522215Y-28740500D01*
X40514674Y-28740500D01*
X40484836Y-28737127D01*
X40456548Y-28740300D01*
X40455975Y-28740500D01*
X38173143Y-28740500D01*
X38173143Y-28739988D01*
X38155527Y-28628763D01*
X38149339Y-28609719D01*
X38098214Y-28509382D01*
X38086445Y-28493183D01*
X38006817Y-28413555D01*
X37990618Y-28401786D01*
X37945899Y-28379000D01*
X40416238Y-28379000D01*
X40493183Y-28455945D01*
X40509382Y-28467714D01*
X40609719Y-28518839D01*
X40628763Y-28525027D01*
X40739988Y-28542643D01*
X40760012Y-28542643D01*
X40871237Y-28525027D01*
X40890281Y-28518839D01*
X40990618Y-28467714D01*
X41006817Y-28455945D01*
X41086445Y-28376317D01*
X41098214Y-28360118D01*
X41149339Y-28259781D01*
X41155527Y-28240737D01*
X41173143Y-28129512D01*
X41173143Y-28109488D01*
X41155527Y-27998263D01*
X41149339Y-27979219D01*
X41098214Y-27878882D01*
X41086445Y-27862683D01*
X41006817Y-27783055D01*
X40990618Y-27771286D01*
X40890281Y-27720161D01*
X40871237Y-27713973D01*
X40760012Y-27696357D01*
X40739988Y-27696357D01*
X40628763Y-27713973D01*
X40609719Y-27720161D01*
X40509382Y-27771286D01*
X40493183Y-27783055D01*
X40416238Y-27860000D01*
X39467487Y-27860000D01*
X39490618Y-27848214D01*
X39506817Y-27836445D01*
X39586445Y-27756817D01*
X39598214Y-27740618D01*
X39649339Y-27640281D01*
X39655527Y-27621237D01*
X39673143Y-27510012D01*
X39673143Y-27489988D01*
X39655527Y-27378763D01*
X39649339Y-27359719D01*
X39598214Y-27259382D01*
X39586445Y-27243183D01*
X39506817Y-27163555D01*
X39490618Y-27151786D01*
X39390281Y-27100661D01*
X39371237Y-27094473D01*
X39260012Y-27076857D01*
X39239988Y-27076857D01*
X39128763Y-27094473D01*
X39109719Y-27100661D01*
X39009382Y-27151786D01*
X38993183Y-27163555D01*
X38913555Y-27243183D01*
X38901786Y-27259382D01*
X38850661Y-27359719D01*
X38844473Y-27378764D01*
X38839447Y-27410500D01*
X38139037Y-27410500D01*
X38149339Y-27390281D01*
X38155527Y-27371237D01*
X38173143Y-27260012D01*
X38173143Y-27239988D01*
X38155527Y-27128763D01*
X38149339Y-27109719D01*
X38098214Y-27009382D01*
X38086445Y-26993183D01*
X38006817Y-26913555D01*
X37990618Y-26901786D01*
X37890281Y-26850661D01*
X37871237Y-26844473D01*
X37760012Y-26826857D01*
X37739988Y-26826857D01*
X37628763Y-26844473D01*
X37609719Y-26850661D01*
X37509382Y-26901786D01*
X37497388Y-26910500D01*
X36391352Y-26910500D01*
X36401654Y-26890281D01*
X36407842Y-26871237D01*
X36425458Y-26760012D01*
X36425458Y-26739988D01*
X36407842Y-26628763D01*
X36401654Y-26609719D01*
X36355684Y-26519500D01*
X37308541Y-26519500D01*
X37361240Y-26572198D01*
X37361402Y-26572536D01*
X37379123Y-26594815D01*
X37402759Y-26613717D01*
X37408122Y-26619080D01*
X37419321Y-26628011D01*
X37425456Y-26631867D01*
X37448782Y-26650521D01*
X37474412Y-26662911D01*
X37475099Y-26663069D01*
X37475696Y-26663444D01*
X37502564Y-26672853D01*
X37532229Y-26676207D01*
X37539471Y-26677872D01*
X37553815Y-26679500D01*
X37561357Y-26679500D01*
X37591193Y-26682873D01*
X37619482Y-26679700D01*
X37620055Y-26679500D01*
X39035741Y-26679500D01*
X39036094Y-26679624D01*
X39064378Y-26682846D01*
X39094445Y-26679500D01*
X39102042Y-26679500D01*
X39116275Y-26677897D01*
X39123346Y-26676284D01*
X39153026Y-26672981D01*
X39179893Y-26663625D01*
X39239989Y-26673143D01*
X39260012Y-26673143D01*
X39371237Y-26655527D01*
X39390281Y-26649339D01*
X39490618Y-26598214D01*
X39506817Y-26586445D01*
X39586445Y-26506817D01*
X39598214Y-26490618D01*
X39649339Y-26390281D01*
X39655527Y-26371237D01*
X39673143Y-26260012D01*
X39673143Y-26239988D01*
X39655527Y-26128763D01*
X39649339Y-26109719D01*
X39598274Y-26009500D01*
X40416238Y-26009500D01*
X40493183Y-26086445D01*
X40509382Y-26098214D01*
X40609719Y-26149339D01*
X40628763Y-26155527D01*
X40739988Y-26173143D01*
X40760012Y-26173143D01*
X40871237Y-26155527D01*
X40890281Y-26149339D01*
X40990500Y-26098274D01*
X40990500Y-26642511D01*
X40799845Y-26833166D01*
X40760012Y-26826857D01*
X40739988Y-26826857D01*
X40628763Y-26844473D01*
X40609719Y-26850661D01*
X40509382Y-26901786D01*
X40493183Y-26913555D01*
X40413555Y-26993183D01*
X40401786Y-27009382D01*
X40350661Y-27109719D01*
X40344473Y-27128763D01*
X40326857Y-27239988D01*
X40326857Y-27260012D01*
X40344473Y-27371237D01*
X40350661Y-27390281D01*
X40401786Y-27490618D01*
X40413555Y-27506817D01*
X40493183Y-27586445D01*
X40509382Y-27598214D01*
X40609719Y-27649339D01*
X40628763Y-27655527D01*
X40739988Y-27673143D01*
X40760012Y-27673143D01*
X40871237Y-27655527D01*
X40890281Y-27649339D01*
X40990618Y-27598214D01*
X41006817Y-27586445D01*
X41086445Y-27506817D01*
X41098214Y-27490618D01*
X41149339Y-27390281D01*
X41155527Y-27371237D01*
X41173143Y-27260012D01*
X41173143Y-27239988D01*
X41166834Y-27200155D01*
X41402199Y-26964790D01*
X41402536Y-26964628D01*
X41424815Y-26946907D01*
X41443713Y-26923276D01*
X41449081Y-26917908D01*
X41458010Y-26906713D01*
X41461873Y-26900568D01*
X41480522Y-26877247D01*
X41492911Y-26851620D01*
X41493069Y-26850933D01*
X41493446Y-26850333D01*
X41502854Y-26823465D01*
X41506208Y-26793792D01*
X41507871Y-26786561D01*
X41509500Y-26772215D01*
X41509500Y-26764674D01*
X41512873Y-26734836D01*
X41509700Y-26706548D01*
X41509500Y-26705975D01*
X41509500Y-24720289D01*
X41509624Y-24719936D01*
X41512846Y-24691652D01*
X41509500Y-24661585D01*
X41509500Y-24653988D01*
X41507897Y-24639755D01*
X41506284Y-24632684D01*
X41502981Y-24603004D01*
X41493619Y-24576120D01*
X41493244Y-24575521D01*
X41493088Y-24574837D01*
X41480743Y-24549185D01*
X41462138Y-24525837D01*
X41458193Y-24519536D01*
X41449203Y-24508244D01*
X41443869Y-24502910D01*
X41425157Y-24479428D01*
X41402911Y-24461669D01*
X41402364Y-24461405D01*
X41128761Y-24187803D01*
X41128598Y-24187464D01*
X41110877Y-24165185D01*
X41087241Y-24146283D01*
X41081878Y-24140920D01*
X41070681Y-24131990D01*
X41064548Y-24128135D01*
X41041218Y-24109478D01*
X41020354Y-24099392D01*
X41576857Y-24099392D01*
X41594473Y-24210617D01*
X41600661Y-24229661D01*
X41651786Y-24329998D01*
X41663555Y-24346197D01*
X41743183Y-24425825D01*
X41759382Y-24437594D01*
X41859719Y-24488719D01*
X41878763Y-24494907D01*
X41989988Y-24512523D01*
X42010012Y-24512523D01*
X42121237Y-24494907D01*
X42140281Y-24488719D01*
X42240618Y-24437594D01*
X42256817Y-24425825D01*
X42336445Y-24346197D01*
X42348214Y-24329998D01*
X42399339Y-24229661D01*
X42405527Y-24210617D01*
X42423143Y-24099392D01*
X42423143Y-24079368D01*
X42405527Y-23968143D01*
X42399339Y-23949099D01*
X42348214Y-23848762D01*
X42336445Y-23832563D01*
X42256817Y-23752935D01*
X42240618Y-23741166D01*
X42140281Y-23690041D01*
X42121237Y-23683853D01*
X42010012Y-23666237D01*
X41989988Y-23666237D01*
X41878763Y-23683853D01*
X41859719Y-23690041D01*
X41759382Y-23741166D01*
X41743183Y-23752935D01*
X41663555Y-23832563D01*
X41651786Y-23848762D01*
X41600661Y-23949099D01*
X41594473Y-23968143D01*
X41576857Y-24079368D01*
X41576857Y-24099392D01*
X41020354Y-24099392D01*
X41015590Y-24097089D01*
X41014903Y-24096931D01*
X41014303Y-24096554D01*
X40987435Y-24087146D01*
X40957762Y-24083792D01*
X40950531Y-24082129D01*
X40936185Y-24080500D01*
X40928644Y-24080500D01*
X40898806Y-24077127D01*
X40870518Y-24080300D01*
X40869945Y-24080500D01*
X36625899Y-24080500D01*
X36635946Y-24060781D01*
X36642134Y-24041737D01*
X36659750Y-23930512D01*
X36659750Y-23910488D01*
X36642134Y-23799263D01*
X36635946Y-23780219D01*
X36584821Y-23679882D01*
X36573052Y-23663683D01*
X36493424Y-23584055D01*
X36477225Y-23572286D01*
X36376888Y-23521161D01*
X36357844Y-23514973D01*
X36246619Y-23497357D01*
X36226595Y-23497357D01*
X36115370Y-23514973D01*
X36096326Y-23521161D01*
X35995989Y-23572286D01*
X35979790Y-23584055D01*
X35900162Y-23663683D01*
X35888393Y-23679882D01*
X35857506Y-23740500D01*
X21107489Y-23740500D01*
X20627001Y-23260012D01*
X37326857Y-23260012D01*
X37344473Y-23371237D01*
X37350661Y-23390281D01*
X37401786Y-23490618D01*
X37413555Y-23506817D01*
X37493183Y-23586445D01*
X37509382Y-23598214D01*
X37609719Y-23649339D01*
X37628763Y-23655527D01*
X37739988Y-23673143D01*
X37760012Y-23673143D01*
X37871237Y-23655527D01*
X37890281Y-23649339D01*
X37990618Y-23598214D01*
X38006817Y-23586445D01*
X38083250Y-23510012D01*
X38826857Y-23510012D01*
X38844473Y-23621237D01*
X38850661Y-23640281D01*
X38901786Y-23740618D01*
X38913555Y-23756817D01*
X38993183Y-23836445D01*
X39009382Y-23848214D01*
X39109719Y-23899339D01*
X39128763Y-23905527D01*
X39239988Y-23923143D01*
X39260012Y-23923143D01*
X39371237Y-23905527D01*
X39390281Y-23899339D01*
X39490618Y-23848214D01*
X39506817Y-23836445D01*
X39586445Y-23756817D01*
X39598214Y-23740618D01*
X39649339Y-23640281D01*
X39655527Y-23621237D01*
X39673143Y-23510012D01*
X39673143Y-23489988D01*
X39655527Y-23378763D01*
X39649339Y-23359719D01*
X39598214Y-23259382D01*
X39586445Y-23243183D01*
X39506817Y-23163555D01*
X39490618Y-23151786D01*
X39438048Y-23125000D01*
X39490618Y-23098214D01*
X39506817Y-23086445D01*
X39586445Y-23006817D01*
X39598214Y-22990618D01*
X39649339Y-22890281D01*
X39655527Y-22871237D01*
X39673143Y-22760012D01*
X39673143Y-22739988D01*
X39655527Y-22628763D01*
X39649339Y-22609719D01*
X39598214Y-22509382D01*
X39586445Y-22493183D01*
X39506817Y-22413555D01*
X39490618Y-22401786D01*
X39390281Y-22350661D01*
X39371237Y-22344473D01*
X39260012Y-22326857D01*
X39239988Y-22326857D01*
X39128763Y-22344473D01*
X39109719Y-22350661D01*
X39009382Y-22401786D01*
X38993183Y-22413555D01*
X38913555Y-22493183D01*
X38901786Y-22509382D01*
X38850661Y-22609719D01*
X38844473Y-22628763D01*
X38826857Y-22739988D01*
X38826857Y-22760012D01*
X38844473Y-22871237D01*
X38850661Y-22890281D01*
X38901786Y-22990618D01*
X38913555Y-23006817D01*
X38993183Y-23086445D01*
X39009382Y-23098214D01*
X39061952Y-23125000D01*
X39009382Y-23151786D01*
X38993183Y-23163555D01*
X38913555Y-23243183D01*
X38901786Y-23259382D01*
X38850661Y-23359719D01*
X38844473Y-23378763D01*
X38826857Y-23489988D01*
X38826857Y-23510012D01*
X38083250Y-23510012D01*
X38086445Y-23506817D01*
X38098214Y-23490618D01*
X38149339Y-23390281D01*
X38155527Y-23371237D01*
X38173143Y-23260012D01*
X38173143Y-23239988D01*
X38155527Y-23128763D01*
X38149339Y-23109719D01*
X38098214Y-23009382D01*
X38086445Y-22993183D01*
X38006817Y-22913555D01*
X37990618Y-22901786D01*
X37890281Y-22850661D01*
X37871237Y-22844473D01*
X37760012Y-22826857D01*
X37739988Y-22826857D01*
X37628763Y-22844473D01*
X37609719Y-22850661D01*
X37509382Y-22901786D01*
X37493183Y-22913555D01*
X37413555Y-22993183D01*
X37401786Y-23009382D01*
X37350661Y-23109719D01*
X37344473Y-23128763D01*
X37326857Y-23239988D01*
X37326857Y-23260012D01*
X20627001Y-23260012D01*
X17077001Y-19710012D01*
X35026857Y-19710012D01*
X35044473Y-19821237D01*
X35050661Y-19840281D01*
X35101786Y-19940618D01*
X35113555Y-19956817D01*
X35193183Y-20036445D01*
X35209382Y-20048214D01*
X35309719Y-20099339D01*
X35328763Y-20105527D01*
X35439988Y-20123143D01*
X35460012Y-20123143D01*
X35571237Y-20105527D01*
X35590281Y-20099339D01*
X35690618Y-20048214D01*
X35706817Y-20036445D01*
X35786445Y-19956817D01*
X35798214Y-19940618D01*
X35849339Y-19840281D01*
X35855527Y-19821237D01*
X35873143Y-19710012D01*
X35873143Y-19689988D01*
X35867084Y-19651732D01*
X35878763Y-19655527D01*
X35989988Y-19673143D01*
X36010012Y-19673143D01*
X36121237Y-19655527D01*
X36140281Y-19649339D01*
X36240618Y-19598214D01*
X36256817Y-19586445D01*
X36336445Y-19506817D01*
X36348214Y-19490618D01*
X36399339Y-19390281D01*
X36405527Y-19371237D01*
X36423143Y-19260012D01*
X36423143Y-19239988D01*
X36405527Y-19128763D01*
X36399339Y-19109719D01*
X36348214Y-19009382D01*
X36336445Y-18993183D01*
X36256817Y-18913555D01*
X36240618Y-18901786D01*
X36140281Y-18850661D01*
X36121237Y-18844473D01*
X36010012Y-18826857D01*
X35989988Y-18826857D01*
X35878763Y-18844473D01*
X35859719Y-18850661D01*
X35759382Y-18901786D01*
X35743183Y-18913555D01*
X35663555Y-18993183D01*
X35651786Y-19009382D01*
X35600661Y-19109719D01*
X35594473Y-19128763D01*
X35576857Y-19239988D01*
X35576857Y-19260012D01*
X35582916Y-19298268D01*
X35571237Y-19294473D01*
X35460012Y-19276857D01*
X35439988Y-19276857D01*
X35328763Y-19294473D01*
X35309719Y-19300661D01*
X35209382Y-19351786D01*
X35193183Y-19363555D01*
X35113555Y-19443183D01*
X35101786Y-19459382D01*
X35050661Y-19559719D01*
X35044473Y-19578763D01*
X35026857Y-19689988D01*
X35026857Y-19710012D01*
X17077001Y-19710012D01*
X12377000Y-15010012D01*
X26076857Y-15010012D01*
X26094473Y-15121237D01*
X26100661Y-15140281D01*
X26151786Y-15240618D01*
X26163555Y-15256817D01*
X26243183Y-15336445D01*
X26259382Y-15348214D01*
X26359719Y-15399339D01*
X26378763Y-15405527D01*
X26489988Y-15423143D01*
X26510012Y-15423143D01*
X26621237Y-15405527D01*
X26640281Y-15399339D01*
X26740618Y-15348214D01*
X26756817Y-15336445D01*
X26836445Y-15256817D01*
X26848214Y-15240618D01*
X26899339Y-15140281D01*
X26905527Y-15121237D01*
X26923143Y-15010012D01*
X26923143Y-14989988D01*
X26905527Y-14878763D01*
X26899339Y-14859719D01*
X26848214Y-14759382D01*
X26836445Y-14743183D01*
X26756817Y-14663555D01*
X26740618Y-14651786D01*
X26640281Y-14600661D01*
X26621237Y-14594473D01*
X26510012Y-14576857D01*
X26489988Y-14576857D01*
X26378763Y-14594473D01*
X26359719Y-14600661D01*
X26259382Y-14651786D01*
X26243183Y-14663555D01*
X26163555Y-14743183D01*
X26151786Y-14759382D01*
X26100661Y-14859719D01*
X26094473Y-14878763D01*
X26076857Y-14989988D01*
X26076857Y-15010012D01*
X12377000Y-15010012D01*
X11127000Y-13760012D01*
X36576857Y-13760012D01*
X36594473Y-13871237D01*
X36600661Y-13890281D01*
X36651786Y-13990618D01*
X36663555Y-14006817D01*
X36740500Y-14083762D01*
X36740500Y-18955741D01*
X36740376Y-18956094D01*
X36737154Y-18984378D01*
X36740500Y-19014445D01*
X36740500Y-19022042D01*
X36742103Y-19036275D01*
X36743716Y-19043346D01*
X36747019Y-19073026D01*
X36756381Y-19099910D01*
X36756756Y-19100509D01*
X36756912Y-19101193D01*
X36769257Y-19126845D01*
X36787862Y-19150193D01*
X36791807Y-19156494D01*
X36800797Y-19167786D01*
X36806131Y-19173120D01*
X36824843Y-19196602D01*
X36847089Y-19214361D01*
X36847636Y-19214625D01*
X38705209Y-21072197D01*
X38705372Y-21072536D01*
X38723093Y-21094815D01*
X38746729Y-21113717D01*
X38752092Y-21119080D01*
X38763289Y-21128010D01*
X38769422Y-21131865D01*
X38792752Y-21150522D01*
X38818380Y-21162911D01*
X38819067Y-21163069D01*
X38819667Y-21163446D01*
X38846535Y-21172854D01*
X38876208Y-21176208D01*
X38883439Y-21177871D01*
X38897785Y-21179500D01*
X38905326Y-21179500D01*
X38935164Y-21182873D01*
X38963452Y-21179700D01*
X38964025Y-21179500D01*
X38977238Y-21179500D01*
X38913555Y-21243183D01*
X38901786Y-21259382D01*
X38850661Y-21359719D01*
X38844473Y-21378763D01*
X38827731Y-21484469D01*
X38756817Y-21413555D01*
X38740618Y-21401786D01*
X38640281Y-21350661D01*
X38621237Y-21344473D01*
X38510012Y-21326857D01*
X38489988Y-21326857D01*
X38378763Y-21344473D01*
X38359719Y-21350661D01*
X38259382Y-21401786D01*
X38243183Y-21413555D01*
X38163555Y-21493183D01*
X38151786Y-21509382D01*
X38100661Y-21609719D01*
X38094473Y-21628763D01*
X38076857Y-21739988D01*
X38076857Y-21760012D01*
X38094473Y-21871237D01*
X38100661Y-21890281D01*
X38151786Y-21990618D01*
X38163555Y-22006817D01*
X38243183Y-22086445D01*
X38259382Y-22098214D01*
X38359719Y-22149339D01*
X38378763Y-22155527D01*
X38489988Y-22173143D01*
X38510012Y-22173143D01*
X38621237Y-22155527D01*
X38640281Y-22149339D01*
X38740618Y-22098214D01*
X38756817Y-22086445D01*
X38836445Y-22006817D01*
X38848214Y-21990618D01*
X38899339Y-21890281D01*
X38905527Y-21871237D01*
X38922269Y-21765531D01*
X38993183Y-21836445D01*
X39009382Y-21848214D01*
X39109719Y-21899339D01*
X39128763Y-21905527D01*
X39239988Y-21923143D01*
X39260012Y-21923143D01*
X39371237Y-21905527D01*
X39390281Y-21899339D01*
X39490618Y-21848214D01*
X39506817Y-21836445D01*
X39586445Y-21756817D01*
X39598214Y-21740618D01*
X39649339Y-21640281D01*
X39655527Y-21621237D01*
X39673143Y-21510012D01*
X39673143Y-21489988D01*
X39655527Y-21378763D01*
X39649339Y-21359719D01*
X39598214Y-21259382D01*
X39586445Y-21243183D01*
X39522762Y-21179500D01*
X39643011Y-21179500D01*
X40413666Y-21950155D01*
X40407357Y-21989988D01*
X40407357Y-22010012D01*
X40424973Y-22121237D01*
X40431161Y-22140281D01*
X40482286Y-22240618D01*
X40494055Y-22256817D01*
X40573683Y-22336445D01*
X40589882Y-22348214D01*
X40690219Y-22399339D01*
X40709263Y-22405527D01*
X40820488Y-22423143D01*
X40840512Y-22423143D01*
X40951737Y-22405527D01*
X40970781Y-22399339D01*
X41071118Y-22348214D01*
X41087317Y-22336445D01*
X41166945Y-22256817D01*
X41178714Y-22240618D01*
X41229839Y-22140281D01*
X41236027Y-22121237D01*
X41253643Y-22010012D01*
X41253643Y-21989988D01*
X41236027Y-21878763D01*
X41229839Y-21859719D01*
X41178714Y-21759382D01*
X41166945Y-21743183D01*
X41087317Y-21663555D01*
X41071118Y-21651786D01*
X40970781Y-21600661D01*
X40951737Y-21594473D01*
X40840512Y-21576857D01*
X40820488Y-21576857D01*
X40780655Y-21583166D01*
X39965291Y-20767803D01*
X39965128Y-20767464D01*
X39947407Y-20745185D01*
X39923771Y-20726283D01*
X39918408Y-20720920D01*
X39907211Y-20711990D01*
X39901078Y-20708135D01*
X39877748Y-20689478D01*
X39852120Y-20677089D01*
X39851433Y-20676931D01*
X39850833Y-20676554D01*
X39823965Y-20667146D01*
X39794292Y-20663792D01*
X39787061Y-20662129D01*
X39772715Y-20660500D01*
X39765174Y-20660500D01*
X39735336Y-20657127D01*
X39707048Y-20660300D01*
X39706475Y-20660500D01*
X39639037Y-20660500D01*
X39649339Y-20640281D01*
X39655527Y-20621237D01*
X39673143Y-20510012D01*
X39673143Y-20489988D01*
X39655527Y-20378763D01*
X39649339Y-20359719D01*
X39598535Y-20260012D01*
X40326857Y-20260012D01*
X40344473Y-20371237D01*
X40350661Y-20390281D01*
X40401786Y-20490618D01*
X40413555Y-20506817D01*
X40493183Y-20586445D01*
X40509382Y-20598214D01*
X40609719Y-20649339D01*
X40628763Y-20655527D01*
X40739988Y-20673143D01*
X40760012Y-20673143D01*
X40871237Y-20655527D01*
X40890281Y-20649339D01*
X40990618Y-20598214D01*
X41006817Y-20586445D01*
X41086445Y-20506817D01*
X41098214Y-20490618D01*
X41149339Y-20390281D01*
X41155527Y-20371237D01*
X41173143Y-20260012D01*
X41173143Y-20239988D01*
X41155527Y-20128763D01*
X41149339Y-20109719D01*
X41098214Y-20009382D01*
X41086445Y-19993183D01*
X41006817Y-19913555D01*
X40990618Y-19901786D01*
X40890281Y-19850661D01*
X40871237Y-19844473D01*
X40760012Y-19826857D01*
X40739988Y-19826857D01*
X40628763Y-19844473D01*
X40609719Y-19850661D01*
X40509382Y-19901786D01*
X40493183Y-19913555D01*
X40413555Y-19993183D01*
X40401786Y-20009382D01*
X40350661Y-20109719D01*
X40344473Y-20128763D01*
X40326857Y-20239988D01*
X40326857Y-20260012D01*
X39598535Y-20260012D01*
X39598214Y-20259382D01*
X39586445Y-20243183D01*
X39506817Y-20163555D01*
X39490618Y-20151786D01*
X39438048Y-20125000D01*
X39490618Y-20098214D01*
X39506817Y-20086445D01*
X39586445Y-20006817D01*
X39598214Y-19990618D01*
X39649339Y-19890281D01*
X39655527Y-19871237D01*
X39673143Y-19760012D01*
X39673143Y-19739988D01*
X39655527Y-19628763D01*
X39649339Y-19609719D01*
X39598214Y-19509382D01*
X39586445Y-19493183D01*
X39506817Y-19413555D01*
X39490618Y-19401786D01*
X39438048Y-19375000D01*
X39490618Y-19348214D01*
X39506817Y-19336445D01*
X39583250Y-19260012D01*
X40326857Y-19260012D01*
X40344473Y-19371237D01*
X40350661Y-19390281D01*
X40401786Y-19490618D01*
X40413555Y-19506817D01*
X40493183Y-19586445D01*
X40509382Y-19598214D01*
X40609719Y-19649339D01*
X40628763Y-19655527D01*
X40739988Y-19673143D01*
X40760012Y-19673143D01*
X40871237Y-19655527D01*
X40890281Y-19649339D01*
X40990618Y-19598214D01*
X41006817Y-19586445D01*
X41086445Y-19506817D01*
X41098214Y-19490618D01*
X41149339Y-19390281D01*
X41155527Y-19371237D01*
X41173143Y-19260012D01*
X41173143Y-19239988D01*
X41155527Y-19128763D01*
X41149339Y-19109719D01*
X41098214Y-19009382D01*
X41086445Y-18993183D01*
X41006817Y-18913555D01*
X40990618Y-18901786D01*
X40890281Y-18850661D01*
X40871237Y-18844473D01*
X40760012Y-18826857D01*
X40739988Y-18826857D01*
X40628763Y-18844473D01*
X40609719Y-18850661D01*
X40509382Y-18901786D01*
X40493183Y-18913555D01*
X40413555Y-18993183D01*
X40401786Y-19009382D01*
X40350661Y-19109719D01*
X40344473Y-19128763D01*
X40326857Y-19239988D01*
X40326857Y-19260012D01*
X39583250Y-19260012D01*
X39586445Y-19256817D01*
X39598214Y-19240618D01*
X39649339Y-19140281D01*
X39655527Y-19121237D01*
X39673143Y-19010012D01*
X39673143Y-18989988D01*
X39655527Y-18878763D01*
X39649339Y-18859719D01*
X39598214Y-18759382D01*
X39586445Y-18743183D01*
X39506817Y-18663555D01*
X39490618Y-18651786D01*
X39390281Y-18600661D01*
X39371237Y-18594473D01*
X39260012Y-18576857D01*
X39239988Y-18576857D01*
X39128763Y-18594473D01*
X39109719Y-18600661D01*
X39009382Y-18651786D01*
X38993183Y-18663555D01*
X38913555Y-18743183D01*
X38901786Y-18759382D01*
X38850661Y-18859719D01*
X38844473Y-18878763D01*
X38826857Y-18989988D01*
X38826857Y-19010012D01*
X38844473Y-19121237D01*
X38850661Y-19140281D01*
X38901786Y-19240618D01*
X38913555Y-19256817D01*
X38993183Y-19336445D01*
X39009382Y-19348214D01*
X39061952Y-19375000D01*
X39009382Y-19401786D01*
X38993183Y-19413555D01*
X38913555Y-19493183D01*
X38901786Y-19509382D01*
X38850661Y-19609719D01*
X38844473Y-19628763D01*
X38826857Y-19739988D01*
X38826857Y-19760012D01*
X38844473Y-19871237D01*
X38850661Y-19890281D01*
X38901786Y-19990618D01*
X38913555Y-20006817D01*
X38993183Y-20086445D01*
X39009382Y-20098214D01*
X39061952Y-20125000D01*
X39009382Y-20151786D01*
X38993183Y-20163555D01*
X38913555Y-20243183D01*
X38901786Y-20259382D01*
X38850661Y-20359719D01*
X38844473Y-20378763D01*
X38830975Y-20463986D01*
X37259500Y-18892512D01*
X37259500Y-18010012D01*
X38826857Y-18010012D01*
X38844473Y-18121237D01*
X38850661Y-18140281D01*
X38901786Y-18240618D01*
X38913555Y-18256817D01*
X38993183Y-18336445D01*
X39009382Y-18348214D01*
X39109719Y-18399339D01*
X39128763Y-18405527D01*
X39239988Y-18423143D01*
X39260012Y-18423143D01*
X39371237Y-18405527D01*
X39390281Y-18399339D01*
X39490618Y-18348214D01*
X39506817Y-18336445D01*
X39583250Y-18260012D01*
X40326857Y-18260012D01*
X40344473Y-18371237D01*
X40350661Y-18390281D01*
X40401786Y-18490618D01*
X40413555Y-18506817D01*
X40493183Y-18586445D01*
X40509382Y-18598214D01*
X40609719Y-18649339D01*
X40628763Y-18655527D01*
X40739988Y-18673143D01*
X40760012Y-18673143D01*
X40871237Y-18655527D01*
X40890281Y-18649339D01*
X40990618Y-18598214D01*
X41006817Y-18586445D01*
X41086445Y-18506817D01*
X41098214Y-18490618D01*
X41149339Y-18390281D01*
X41155527Y-18371237D01*
X41173143Y-18260012D01*
X41173143Y-18239988D01*
X41155527Y-18128763D01*
X41149339Y-18109719D01*
X41098214Y-18009382D01*
X41086445Y-17993183D01*
X41006817Y-17913555D01*
X40990618Y-17901786D01*
X40890281Y-17850661D01*
X40871237Y-17844473D01*
X40760012Y-17826857D01*
X40739988Y-17826857D01*
X40628763Y-17844473D01*
X40609719Y-17850661D01*
X40509382Y-17901786D01*
X40493183Y-17913555D01*
X40413555Y-17993183D01*
X40401786Y-18009382D01*
X40350661Y-18109719D01*
X40344473Y-18128763D01*
X40326857Y-18239988D01*
X40326857Y-18260012D01*
X39583250Y-18260012D01*
X39586445Y-18256817D01*
X39598214Y-18240618D01*
X39649339Y-18140281D01*
X39655527Y-18121237D01*
X39673143Y-18010012D01*
X39673143Y-17989988D01*
X39655527Y-17878763D01*
X39649339Y-17859719D01*
X39598214Y-17759382D01*
X39586445Y-17743183D01*
X39506817Y-17663555D01*
X39490618Y-17651786D01*
X39390281Y-17600661D01*
X39371237Y-17594473D01*
X39260012Y-17576857D01*
X39239988Y-17576857D01*
X39128763Y-17594473D01*
X39109719Y-17600661D01*
X39009382Y-17651786D01*
X38993183Y-17663555D01*
X38913555Y-17743183D01*
X38901786Y-17759382D01*
X38850661Y-17859719D01*
X38844473Y-17878763D01*
X38826857Y-17989988D01*
X38826857Y-18010012D01*
X37259500Y-18010012D01*
X37259500Y-16260012D01*
X38576857Y-16260012D01*
X38594473Y-16371237D01*
X38600661Y-16390281D01*
X38651786Y-16490618D01*
X38663555Y-16506817D01*
X38743183Y-16586445D01*
X38759382Y-16598214D01*
X38859719Y-16649339D01*
X38878763Y-16655527D01*
X38989988Y-16673143D01*
X39010012Y-16673143D01*
X39121237Y-16655527D01*
X39140281Y-16649339D01*
X39240618Y-16598214D01*
X39256817Y-16586445D01*
X39336445Y-16506817D01*
X39348214Y-16490618D01*
X39399339Y-16390281D01*
X39405527Y-16371237D01*
X39423143Y-16260012D01*
X39423143Y-16239988D01*
X39405527Y-16128763D01*
X39399339Y-16109719D01*
X39348214Y-16009382D01*
X39336445Y-15993183D01*
X39256817Y-15913555D01*
X39240618Y-15901786D01*
X39140281Y-15850661D01*
X39121237Y-15844473D01*
X39010012Y-15826857D01*
X38989988Y-15826857D01*
X38878763Y-15844473D01*
X38859719Y-15850661D01*
X38759382Y-15901786D01*
X38743183Y-15913555D01*
X38663555Y-15993183D01*
X38651786Y-16009382D01*
X38600661Y-16109719D01*
X38594473Y-16128763D01*
X38576857Y-16239988D01*
X38576857Y-16260012D01*
X37259500Y-16260012D01*
X37259500Y-14083762D01*
X37336445Y-14006817D01*
X37348214Y-13990618D01*
X37399339Y-13890281D01*
X37405527Y-13871237D01*
X37423143Y-13760012D01*
X37423143Y-13739988D01*
X37405527Y-13628763D01*
X37399339Y-13609719D01*
X37348214Y-13509382D01*
X37336445Y-13493183D01*
X37256817Y-13413555D01*
X37240618Y-13401786D01*
X37140281Y-13350661D01*
X37121237Y-13344473D01*
X37010012Y-13326857D01*
X36989988Y-13326857D01*
X36878763Y-13344473D01*
X36859719Y-13350661D01*
X36759382Y-13401786D01*
X36743183Y-13413555D01*
X36663555Y-13493183D01*
X36651786Y-13509382D01*
X36600661Y-13609719D01*
X36594473Y-13628763D01*
X36576857Y-13739988D01*
X36576857Y-13760012D01*
X11127000Y-13760012D01*
X10464791Y-13097803D01*
X10464628Y-13097464D01*
X10446907Y-13075185D01*
X10423271Y-13056283D01*
X10417908Y-13050920D01*
X10406711Y-13041990D01*
X10400578Y-13038135D01*
X10377248Y-13019478D01*
X10351620Y-13007089D01*
X10350933Y-13006931D01*
X10350333Y-13006554D01*
X10323465Y-12997146D01*
X10293792Y-12993792D01*
X10286561Y-12992129D01*
X10272215Y-12990500D01*
X10264674Y-12990500D01*
X10234836Y-12987127D01*
X10206548Y-12990300D01*
X10205975Y-12990500D01*
X9833762Y-12990500D01*
X9756817Y-12913555D01*
X9740618Y-12901786D01*
X9640281Y-12850661D01*
X9621237Y-12844473D01*
X9510012Y-12826857D01*
X9489988Y-12826857D01*
X9378763Y-12844473D01*
X9359719Y-12850661D01*
X9259382Y-12901786D01*
X9243183Y-12913555D01*
X9163555Y-12993183D01*
X9151786Y-13009382D01*
X9100661Y-13109719D01*
X9094473Y-13128763D01*
X9076857Y-13239988D01*
X9076857Y-13260012D01*
X194500Y-13260012D01*
X194500Y-12760012D01*
X22326857Y-12760012D01*
X22344473Y-12871237D01*
X22350661Y-12890281D01*
X22401786Y-12990618D01*
X22413555Y-13006817D01*
X22493183Y-13086445D01*
X22509382Y-13098214D01*
X22609719Y-13149339D01*
X22628763Y-13155527D01*
X22739988Y-13173143D01*
X22760012Y-13173143D01*
X22871237Y-13155527D01*
X22890281Y-13149339D01*
X22990618Y-13098214D01*
X23006817Y-13086445D01*
X23083250Y-13010012D01*
X38076857Y-13010012D01*
X38094473Y-13121237D01*
X38100661Y-13140281D01*
X38151786Y-13240618D01*
X38163555Y-13256817D01*
X38243183Y-13336445D01*
X38259382Y-13348214D01*
X38359719Y-13399339D01*
X38378763Y-13405527D01*
X38489988Y-13423143D01*
X38510012Y-13423143D01*
X38621237Y-13405527D01*
X38640281Y-13399339D01*
X38740618Y-13348214D01*
X38756817Y-13336445D01*
X38836445Y-13256817D01*
X38848214Y-13240618D01*
X38899339Y-13140281D01*
X38905527Y-13121237D01*
X38923143Y-13010012D01*
X38923143Y-12989988D01*
X38905527Y-12878763D01*
X38899339Y-12859719D01*
X38848214Y-12759382D01*
X38836445Y-12743183D01*
X38834142Y-12740880D01*
X39807725Y-12740880D01*
X39825341Y-12852105D01*
X39831529Y-12871149D01*
X39882654Y-12971486D01*
X39894423Y-12987685D01*
X39974051Y-13067313D01*
X39990250Y-13079082D01*
X40090587Y-13130207D01*
X40109631Y-13136395D01*
X40220856Y-13154011D01*
X40240880Y-13154011D01*
X40352105Y-13136395D01*
X40371149Y-13130207D01*
X40471486Y-13079082D01*
X40487685Y-13067313D01*
X40567313Y-12987685D01*
X40579082Y-12971486D01*
X40630207Y-12871149D01*
X40636395Y-12852105D01*
X40654011Y-12740880D01*
X40654011Y-12720856D01*
X40636395Y-12609631D01*
X40630207Y-12590587D01*
X40579082Y-12490250D01*
X40567313Y-12474051D01*
X40509500Y-12416238D01*
X40509500Y-11833762D01*
X40586445Y-11756817D01*
X40598214Y-11740618D01*
X40649339Y-11640281D01*
X40655527Y-11621237D01*
X40673143Y-11510012D01*
X40673143Y-11489988D01*
X40655527Y-11378763D01*
X40649339Y-11359719D01*
X40598214Y-11259382D01*
X40586445Y-11243183D01*
X40506817Y-11163555D01*
X40490618Y-11151786D01*
X40390281Y-11100661D01*
X40371237Y-11094473D01*
X40260012Y-11076857D01*
X40239988Y-11076857D01*
X40128763Y-11094473D01*
X40109719Y-11100661D01*
X40009382Y-11151786D01*
X39993183Y-11163555D01*
X39913555Y-11243183D01*
X39901786Y-11259382D01*
X39850661Y-11359719D01*
X39844473Y-11378763D01*
X39826857Y-11489988D01*
X39826857Y-11510012D01*
X39844473Y-11621237D01*
X39850661Y-11640281D01*
X39901786Y-11740618D01*
X39913555Y-11756817D01*
X39990500Y-11833762D01*
X39990500Y-12382526D01*
X39990251Y-12382653D01*
X39974051Y-12394423D01*
X39894423Y-12474051D01*
X39882654Y-12490250D01*
X39831529Y-12590587D01*
X39825341Y-12609631D01*
X39807725Y-12720856D01*
X39807725Y-12740880D01*
X38834142Y-12740880D01*
X38759500Y-12666238D01*
X38759500Y-12260012D01*
X38826857Y-12260012D01*
X38844473Y-12371237D01*
X38850661Y-12390281D01*
X38901786Y-12490618D01*
X38913555Y-12506817D01*
X38993183Y-12586445D01*
X39009382Y-12598214D01*
X39109719Y-12649339D01*
X39128763Y-12655527D01*
X39239988Y-12673143D01*
X39260012Y-12673143D01*
X39371237Y-12655527D01*
X39390281Y-12649339D01*
X39490618Y-12598214D01*
X39506817Y-12586445D01*
X39586445Y-12506817D01*
X39598214Y-12490618D01*
X39649339Y-12390281D01*
X39655527Y-12371237D01*
X39673143Y-12260012D01*
X39673143Y-12239988D01*
X39655527Y-12128763D01*
X39649339Y-12109719D01*
X39598214Y-12009382D01*
X39586445Y-11993183D01*
X39509500Y-11916238D01*
X39509500Y-10598274D01*
X39609719Y-10649339D01*
X39628763Y-10655527D01*
X39739988Y-10673143D01*
X39760012Y-10673143D01*
X39871237Y-10655527D01*
X39890281Y-10649339D01*
X39990618Y-10598214D01*
X40006817Y-10586445D01*
X40086445Y-10506817D01*
X40098214Y-10490618D01*
X40149339Y-10390281D01*
X40155527Y-10371237D01*
X40173143Y-10260012D01*
X40173143Y-10239988D01*
X40155527Y-10128763D01*
X40149339Y-10109719D01*
X40098214Y-10009382D01*
X40086445Y-9993183D01*
X40006817Y-9913555D01*
X39990618Y-9901786D01*
X39890281Y-9850661D01*
X39871237Y-9844473D01*
X39760012Y-9826857D01*
X39739988Y-9826857D01*
X39628763Y-9844473D01*
X39609719Y-9850661D01*
X39509500Y-9901726D01*
X39509500Y-9510012D01*
X40076857Y-9510012D01*
X40094473Y-9621237D01*
X40100661Y-9640281D01*
X40151786Y-9740618D01*
X40163555Y-9756817D01*
X40243183Y-9836445D01*
X40259382Y-9848214D01*
X40359719Y-9899339D01*
X40378763Y-9905527D01*
X40489988Y-9923143D01*
X40510012Y-9923143D01*
X40621237Y-9905527D01*
X40640281Y-9899339D01*
X40740618Y-9848214D01*
X40756817Y-9836445D01*
X40836445Y-9756817D01*
X40848214Y-9740618D01*
X40899339Y-9640281D01*
X40905527Y-9621237D01*
X40923143Y-9510012D01*
X40923143Y-9489988D01*
X40905527Y-9378763D01*
X40899339Y-9359719D01*
X40848214Y-9259382D01*
X40836445Y-9243183D01*
X40756817Y-9163555D01*
X40740618Y-9151786D01*
X40640281Y-9100661D01*
X40621237Y-9094473D01*
X40510012Y-9076857D01*
X40489988Y-9076857D01*
X40378763Y-9094473D01*
X40359719Y-9100661D01*
X40259382Y-9151786D01*
X40243183Y-9163555D01*
X40163555Y-9243183D01*
X40151786Y-9259382D01*
X40100661Y-9359719D01*
X40094473Y-9378763D01*
X40076857Y-9489988D01*
X40076857Y-9510012D01*
X39509500Y-9510012D01*
X39509500Y-9333762D01*
X39586445Y-9256817D01*
X39598214Y-9240618D01*
X39649339Y-9140281D01*
X39655527Y-9121237D01*
X39673143Y-9010012D01*
X39673143Y-8989988D01*
X39655527Y-8878763D01*
X39649339Y-8859719D01*
X39598214Y-8759382D01*
X39586445Y-8743183D01*
X39506817Y-8663555D01*
X39490618Y-8651786D01*
X39390281Y-8600661D01*
X39371237Y-8594473D01*
X39260012Y-8576857D01*
X39239988Y-8576857D01*
X39128763Y-8594473D01*
X39109719Y-8600661D01*
X39009382Y-8651786D01*
X38993183Y-8663555D01*
X38913555Y-8743183D01*
X38901786Y-8759382D01*
X38850661Y-8859719D01*
X38844473Y-8878763D01*
X38826857Y-8989988D01*
X38826857Y-9010012D01*
X38844473Y-9121237D01*
X38850661Y-9140281D01*
X38901786Y-9240618D01*
X38913555Y-9256817D01*
X38990500Y-9333762D01*
X38990500Y-11916238D01*
X38913555Y-11993183D01*
X38901786Y-12009382D01*
X38850661Y-12109719D01*
X38844473Y-12128763D01*
X38826857Y-12239988D01*
X38826857Y-12260012D01*
X38759500Y-12260012D01*
X38759500Y-11833762D01*
X38836445Y-11756817D01*
X38848214Y-11740618D01*
X38899339Y-11640281D01*
X38905527Y-11621237D01*
X38923143Y-11510012D01*
X38923143Y-11489988D01*
X38905527Y-11378763D01*
X38899339Y-11359719D01*
X38848214Y-11259382D01*
X38836445Y-11243183D01*
X38756817Y-11163555D01*
X38740618Y-11151786D01*
X38640281Y-11100661D01*
X38621237Y-11094473D01*
X38510012Y-11076857D01*
X38489988Y-11076857D01*
X38378763Y-11094473D01*
X38359719Y-11100661D01*
X38259382Y-11151786D01*
X38243183Y-11163555D01*
X38163555Y-11243183D01*
X38151786Y-11259382D01*
X38100661Y-11359719D01*
X38094473Y-11378763D01*
X38076857Y-11489988D01*
X38076857Y-11510012D01*
X38094473Y-11621237D01*
X38100661Y-11640281D01*
X38151786Y-11740618D01*
X38163555Y-11756817D01*
X38240500Y-11833762D01*
X38240500Y-12666238D01*
X38163555Y-12743183D01*
X38151786Y-12759382D01*
X38100661Y-12859719D01*
X38094473Y-12878763D01*
X38076857Y-12989988D01*
X38076857Y-13010012D01*
X23083250Y-13010012D01*
X23086445Y-13006817D01*
X23098214Y-12990618D01*
X23149339Y-12890281D01*
X23155527Y-12871237D01*
X23173143Y-12760012D01*
X23173143Y-12739988D01*
X23155527Y-12628763D01*
X23149339Y-12609719D01*
X23098214Y-12509382D01*
X23086445Y-12493183D01*
X23006817Y-12413555D01*
X22990618Y-12401786D01*
X22890281Y-12350661D01*
X22871237Y-12344473D01*
X22760012Y-12326857D01*
X22739988Y-12326857D01*
X22628763Y-12344473D01*
X22609719Y-12350661D01*
X22509382Y-12401786D01*
X22493183Y-12413555D01*
X22413555Y-12493183D01*
X22401786Y-12509382D01*
X22350661Y-12609719D01*
X22344473Y-12628763D01*
X22326857Y-12739988D01*
X22326857Y-12760012D01*
X194500Y-12760012D01*
X194500Y-10260012D01*
X37326857Y-10260012D01*
X37344473Y-10371237D01*
X37350661Y-10390281D01*
X37401786Y-10490618D01*
X37413555Y-10506817D01*
X37493183Y-10586445D01*
X37509382Y-10598214D01*
X37609719Y-10649339D01*
X37628763Y-10655527D01*
X37739988Y-10673143D01*
X37760012Y-10673143D01*
X37871237Y-10655527D01*
X37890281Y-10649339D01*
X37990618Y-10598214D01*
X38006817Y-10586445D01*
X38086445Y-10506817D01*
X38098214Y-10490618D01*
X38149339Y-10390281D01*
X38155527Y-10371237D01*
X38173143Y-10260012D01*
X38173143Y-10239988D01*
X38155527Y-10128763D01*
X38149339Y-10109719D01*
X38098214Y-10009382D01*
X38086445Y-9993183D01*
X38006817Y-9913555D01*
X37990618Y-9901786D01*
X37890281Y-9850661D01*
X37871237Y-9844473D01*
X37760012Y-9826857D01*
X37739988Y-9826857D01*
X37628763Y-9844473D01*
X37609719Y-9850661D01*
X37509382Y-9901786D01*
X37493183Y-9913555D01*
X37413555Y-9993183D01*
X37401786Y-10009382D01*
X37350661Y-10109719D01*
X37344473Y-10128763D01*
X37326857Y-10239988D01*
X37326857Y-10260012D01*
X194500Y-10260012D01*
X194500Y-9260012D01*
X26826857Y-9260012D01*
X26844473Y-9371237D01*
X26850661Y-9390281D01*
X26901786Y-9490618D01*
X26913555Y-9506817D01*
X26993183Y-9586445D01*
X27009382Y-9598214D01*
X27109719Y-9649339D01*
X27128763Y-9655527D01*
X27239988Y-9673143D01*
X27260012Y-9673143D01*
X27371237Y-9655527D01*
X27390281Y-9649339D01*
X27490618Y-9598214D01*
X27506817Y-9586445D01*
X27586445Y-9506817D01*
X27598214Y-9490618D01*
X27649339Y-9390281D01*
X27655527Y-9371237D01*
X27673143Y-9260012D01*
X27673143Y-9239988D01*
X27655527Y-9128763D01*
X27649339Y-9109719D01*
X27598214Y-9009382D01*
X27586445Y-8993183D01*
X27506817Y-8913555D01*
X27490618Y-8901786D01*
X27390281Y-8850661D01*
X27371237Y-8844473D01*
X27260012Y-8826857D01*
X27239988Y-8826857D01*
X27128763Y-8844473D01*
X27109719Y-8850661D01*
X27009382Y-8901786D01*
X26993183Y-8913555D01*
X26913555Y-8993183D01*
X26901786Y-9009382D01*
X26850661Y-9109719D01*
X26844473Y-9128763D01*
X26826857Y-9239988D01*
X26826857Y-9260012D01*
X194500Y-9260012D01*
X194500Y-3025608D01*
X196923Y-3016565D01*
X196923Y-2983436D01*
X195772Y-2979141D01*
X212240Y-2685900D01*
X264938Y-2375742D01*
X352033Y-2073430D01*
X472423Y-1782782D01*
X624599Y-1507440D01*
X806653Y-1250860D01*
X1016283Y-1016283D01*
X1250860Y-806653D01*
X1507440Y-624599D01*
X1782782Y-472423D01*
X2073430Y-352033D01*
X2375742Y-264938D01*
X2685900Y-212240D01*
X2979141Y-195772D01*
X2983436Y-196923D01*
X3016565Y-196923D01*
X3025608Y-194500D01*
X40974392Y-194500D01*
X40983435Y-196923D01*
G37*
%TD.AperFunction*%
%TD*%
M02*
