%TF.GenerationSoftware,KiCad,Pcbnew,6.0.11-2627ca5db0~126~ubuntu22.04.1*%
%TF.CreationDate,2023-07-14T18:54:51-07:00*%
%TF.ProjectId,small-display,736d616c-6c2d-4646-9973-706c61792e6b,rev?*%
%TF.SameCoordinates,Original*%
%TF.FileFunction,Drillmap*%
%TF.FilePolarity,Positive*%
%FSLAX45Y45*%
G04 Gerber Fmt 4.5, Leading zero omitted, Abs format (unit mm)*
G04 Created by KiCad (PCBNEW 6.0.11-2627ca5db0~126~ubuntu22.04.1) date 2023-07-14 18:54:51*
%MOMM*%
%LPD*%
G01*
G04 APERTURE LIST*
%ADD10C,0.050000*%
%ADD11C,0.200000*%
%ADD12C,0.020000*%
%ADD13C,0.040000*%
%ADD14C,0.065000*%
G04 APERTURE END LIST*
D10*
X4300000Y-200000D02*
G75*
G03*
X4100000Y0I-200000J0D01*
G01*
X300000Y0D02*
G75*
G03*
X0Y-300000I0J-300000D01*
G01*
X4100000Y-6200000D02*
X200000Y-6200000D01*
X300000Y0D02*
X4100000Y0D01*
X0Y-6000000D02*
X0Y-300000D01*
X4100000Y-6200000D02*
G75*
G03*
X4300000Y-6000000I0J200000D01*
G01*
X0Y-6000000D02*
G75*
G03*
X200000Y-6200000I200000J0D01*
G01*
X4300000Y-200000D02*
X4300000Y-6000000D01*
D11*
D12*
X215000Y-1790000D02*
X235000Y-1810000D01*
X235000Y-1790000D02*
X215000Y-1810000D01*
X365000Y-2090000D02*
X385000Y-2110000D01*
X385000Y-2090000D02*
X365000Y-2110000D01*
X440000Y-4540000D02*
X460000Y-4560000D01*
X460000Y-4540000D02*
X440000Y-4560000D01*
X490000Y-490000D02*
X510000Y-510000D01*
X510000Y-490000D02*
X490000Y-510000D01*
X490000Y-990000D02*
X510000Y-1010000D01*
X510000Y-990000D02*
X490000Y-1010000D01*
X490000Y-4490000D02*
X510000Y-4510000D01*
X510000Y-4490000D02*
X490000Y-4510000D01*
X490000Y-4990000D02*
X510000Y-5010000D01*
X510000Y-4990000D02*
X490000Y-5010000D01*
X490000Y-5490000D02*
X510000Y-5510000D01*
X510000Y-5490000D02*
X490000Y-5510000D01*
X490000Y-5990000D02*
X510000Y-6010000D01*
X510000Y-5990000D02*
X490000Y-6010000D01*
X515000Y-3440000D02*
X535000Y-3460000D01*
X535000Y-3440000D02*
X515000Y-3460000D01*
X540000Y-1465000D02*
X560000Y-1485000D01*
X560000Y-1465000D02*
X540000Y-1485000D01*
X565000Y-4065000D02*
X585000Y-4085000D01*
X585000Y-4065000D02*
X565000Y-4085000D01*
X665000Y-1190000D02*
X685000Y-1210000D01*
X685000Y-1190000D02*
X665000Y-1210000D01*
X665000Y-1465000D02*
X685000Y-1485000D01*
X685000Y-1465000D02*
X665000Y-1485000D01*
X690000Y-3465000D02*
X710000Y-3485000D01*
X710000Y-3465000D02*
X690000Y-3485000D01*
X715000Y-4540000D02*
X735000Y-4560000D01*
X735000Y-4540000D02*
X715000Y-4560000D01*
X715000Y-6065000D02*
X735000Y-6085000D01*
X735000Y-6065000D02*
X715000Y-6085000D01*
X740000Y-1465000D02*
X760000Y-1485000D01*
X760000Y-1465000D02*
X740000Y-1485000D01*
X915000Y-1790000D02*
X935000Y-1810000D01*
X935000Y-1790000D02*
X915000Y-1810000D01*
X915000Y-1890000D02*
X935000Y-1910000D01*
X935000Y-1890000D02*
X915000Y-1910000D01*
X940000Y-1315000D02*
X960000Y-1335000D01*
X960000Y-1315000D02*
X940000Y-1335000D01*
X990000Y-490000D02*
X1010000Y-510000D01*
X1010000Y-490000D02*
X990000Y-510000D01*
X990000Y-990000D02*
X1010000Y-1010000D01*
X1010000Y-990000D02*
X990000Y-1010000D01*
X990000Y-3990000D02*
X1010000Y-4010000D01*
X1010000Y-3990000D02*
X990000Y-4010000D01*
X990000Y-5990000D02*
X1010000Y-6010000D01*
X1010000Y-5990000D02*
X990000Y-6010000D01*
X1017000Y-5692375D02*
X1037000Y-5712375D01*
X1037000Y-5692375D02*
X1017000Y-5712375D01*
X1065000Y-6065000D02*
X1085000Y-6085000D01*
X1085000Y-6065000D02*
X1065000Y-6085000D01*
X1290000Y-2990000D02*
X1310000Y-3010000D01*
X1310000Y-2990000D02*
X1290000Y-3010000D01*
X1290000Y-3040000D02*
X1310000Y-3060000D01*
X1310000Y-3040000D02*
X1290000Y-3060000D01*
X1290000Y-3090000D02*
X1310000Y-3110000D01*
X1310000Y-3090000D02*
X1290000Y-3110000D01*
X1490000Y-490000D02*
X1510000Y-510000D01*
X1510000Y-490000D02*
X1490000Y-510000D01*
X1490000Y-990000D02*
X1510000Y-1010000D01*
X1510000Y-990000D02*
X1490000Y-1010000D01*
X1490000Y-1490000D02*
X1510000Y-1510000D01*
X1510000Y-1490000D02*
X1490000Y-1510000D01*
X1490000Y-1990000D02*
X1510000Y-2010000D01*
X1510000Y-1990000D02*
X1490000Y-2010000D01*
X1490000Y-4490000D02*
X1510000Y-4510000D01*
X1510000Y-4490000D02*
X1490000Y-4510000D01*
X1490000Y-5990000D02*
X1510000Y-6010000D01*
X1510000Y-5990000D02*
X1490000Y-6010000D01*
X1492000Y-5740000D02*
X1512000Y-5760000D01*
X1512000Y-5740000D02*
X1492000Y-5760000D01*
X1540000Y-2190000D02*
X1560000Y-2210000D01*
X1560000Y-2190000D02*
X1540000Y-2210000D01*
X1665000Y-3265000D02*
X1685000Y-3285000D01*
X1685000Y-3265000D02*
X1665000Y-3285000D01*
X1690000Y-2315000D02*
X1710000Y-2335000D01*
X1710000Y-2315000D02*
X1690000Y-2335000D01*
X1690000Y-2565000D02*
X1710000Y-2585000D01*
X1710000Y-2565000D02*
X1690000Y-2585000D01*
X1715000Y-3315000D02*
X1735000Y-3335000D01*
X1735000Y-3315000D02*
X1715000Y-3335000D01*
X1740000Y-2315000D02*
X1760000Y-2335000D01*
X1760000Y-2315000D02*
X1740000Y-2335000D01*
X1740000Y-2565000D02*
X1760000Y-2585000D01*
X1760000Y-2565000D02*
X1740000Y-2585000D01*
X1765000Y-3365000D02*
X1785000Y-3385000D01*
X1785000Y-3365000D02*
X1765000Y-3385000D01*
X1790000Y-2315000D02*
X1810000Y-2335000D01*
X1810000Y-2315000D02*
X1790000Y-2335000D01*
X1790000Y-2565000D02*
X1810000Y-2585000D01*
X1810000Y-2565000D02*
X1790000Y-2585000D01*
X1815000Y-3965000D02*
X1835000Y-3985000D01*
X1835000Y-3965000D02*
X1815000Y-3985000D01*
X1865000Y-3865000D02*
X1885000Y-3885000D01*
X1885000Y-3865000D02*
X1865000Y-3885000D01*
X1915000Y-3915000D02*
X1935000Y-3935000D01*
X1935000Y-3915000D02*
X1915000Y-3935000D01*
X1965000Y-3115000D02*
X1985000Y-3135000D01*
X1985000Y-3115000D02*
X1965000Y-3135000D01*
X1990000Y-490000D02*
X2010000Y-510000D01*
X2010000Y-490000D02*
X1990000Y-510000D01*
X1990000Y-990000D02*
X2010000Y-1010000D01*
X2010000Y-990000D02*
X1990000Y-1010000D01*
X1990000Y-1490000D02*
X2010000Y-1510000D01*
X2010000Y-1490000D02*
X1990000Y-1510000D01*
X1990000Y-1990000D02*
X2010000Y-2010000D01*
X2010000Y-1990000D02*
X1990000Y-2010000D01*
X1990000Y-4990000D02*
X2010000Y-5010000D01*
X2010000Y-4990000D02*
X1990000Y-5010000D01*
X2015000Y-3190000D02*
X2035000Y-3210000D01*
X2035000Y-3190000D02*
X2015000Y-3210000D01*
X2015000Y-5690000D02*
X2035000Y-5710000D01*
X2035000Y-5690000D02*
X2015000Y-5710000D01*
X2015000Y-5990000D02*
X2035000Y-6010000D01*
X2035000Y-5990000D02*
X2015000Y-6010000D01*
X2065000Y-3765000D02*
X2085000Y-3785000D01*
X2085000Y-3765000D02*
X2065000Y-3785000D01*
X2066832Y-5640000D02*
X2086832Y-5660000D01*
X2086832Y-5640000D02*
X2066832Y-5660000D01*
X2115000Y-3065000D02*
X2135000Y-3085000D01*
X2135000Y-3065000D02*
X2115000Y-3085000D01*
X2115000Y-6015000D02*
X2135000Y-6035000D01*
X2135000Y-6015000D02*
X2115000Y-6035000D01*
X2131659Y-5664541D02*
X2151659Y-5684541D01*
X2151659Y-5664541D02*
X2131659Y-5684541D01*
X2165000Y-3015000D02*
X2185000Y-3035000D01*
X2185000Y-3015000D02*
X2165000Y-3035000D01*
X2190000Y-6015000D02*
X2210000Y-6035000D01*
X2210000Y-6015000D02*
X2190000Y-6035000D01*
X2196431Y-5646431D02*
X2216431Y-5666431D01*
X2216431Y-5646431D02*
X2196431Y-5666431D01*
X2215000Y-3815000D02*
X2235000Y-3835000D01*
X2235000Y-3815000D02*
X2215000Y-3835000D01*
X2240000Y-915000D02*
X2260000Y-935000D01*
X2260000Y-915000D02*
X2240000Y-935000D01*
X2265000Y-1265000D02*
X2285000Y-1285000D01*
X2285000Y-1265000D02*
X2265000Y-1285000D01*
X2265000Y-3715000D02*
X2285000Y-3735000D01*
X2285000Y-3715000D02*
X2265000Y-3735000D01*
X2265000Y-5690000D02*
X2285000Y-5710000D01*
X2285000Y-5690000D02*
X2265000Y-5710000D01*
X2265000Y-5990000D02*
X2285000Y-6010000D01*
X2285000Y-5990000D02*
X2265000Y-6010000D01*
X2315000Y-3665000D02*
X2335000Y-3685000D01*
X2335000Y-3665000D02*
X2315000Y-3685000D01*
X2365000Y-3415000D02*
X2385000Y-3435000D01*
X2385000Y-3415000D02*
X2365000Y-3435000D01*
X2390000Y-1490000D02*
X2410000Y-1510000D01*
X2410000Y-1490000D02*
X2390000Y-1510000D01*
X2415000Y-3615000D02*
X2435000Y-3635000D01*
X2435000Y-3615000D02*
X2415000Y-3635000D01*
X2440000Y-4740000D02*
X2460000Y-4760000D01*
X2460000Y-4740000D02*
X2440000Y-4760000D01*
X2465000Y-3490000D02*
X2485000Y-3510000D01*
X2485000Y-3490000D02*
X2465000Y-3510000D01*
X2490000Y-490000D02*
X2510000Y-510000D01*
X2510000Y-490000D02*
X2490000Y-510000D01*
X2490000Y-1990000D02*
X2510000Y-2010000D01*
X2510000Y-1990000D02*
X2490000Y-2010000D01*
X2490000Y-4490000D02*
X2510000Y-4510000D01*
X2510000Y-4490000D02*
X2490000Y-4510000D01*
X2490000Y-4790000D02*
X2510000Y-4810000D01*
X2510000Y-4790000D02*
X2490000Y-4810000D01*
X2515000Y-2765000D02*
X2535000Y-2785000D01*
X2535000Y-2765000D02*
X2515000Y-2785000D01*
X2565000Y-3565000D02*
X2585000Y-3585000D01*
X2585000Y-3565000D02*
X2565000Y-3585000D01*
X2615000Y-4015000D02*
X2635000Y-4035000D01*
X2635000Y-4015000D02*
X2615000Y-4035000D01*
X2640000Y-1490000D02*
X2660000Y-1510000D01*
X2660000Y-1490000D02*
X2640000Y-1510000D01*
X2715000Y-915000D02*
X2735000Y-935000D01*
X2735000Y-915000D02*
X2715000Y-935000D01*
X2765000Y-2765000D02*
X2785000Y-2785000D01*
X2785000Y-2765000D02*
X2765000Y-2785000D01*
X2786000Y-5790000D02*
X2806000Y-5810000D01*
X2806000Y-5790000D02*
X2786000Y-5810000D01*
X2815000Y-2765000D02*
X2835000Y-2785000D01*
X2835000Y-2765000D02*
X2815000Y-2785000D01*
X2990000Y-490000D02*
X3010000Y-510000D01*
X3010000Y-490000D02*
X2990000Y-510000D01*
X2990000Y-990000D02*
X3010000Y-1010000D01*
X3010000Y-990000D02*
X2990000Y-1010000D01*
X2990000Y-1990000D02*
X3010000Y-2010000D01*
X3010000Y-1990000D02*
X2990000Y-2010000D01*
X2990000Y-4490000D02*
X3010000Y-4510000D01*
X3010000Y-4490000D02*
X2990000Y-4510000D01*
X2990000Y-4990000D02*
X3010000Y-5010000D01*
X3010000Y-4990000D02*
X2990000Y-5010000D01*
X2990000Y-5990000D02*
X3010000Y-6010000D01*
X3010000Y-5990000D02*
X2990000Y-6010000D01*
X3357100Y-2172900D02*
X3377100Y-2192900D01*
X3377100Y-2172900D02*
X3357100Y-2192900D01*
X3440000Y-2550500D02*
X3460000Y-2570500D01*
X3460000Y-2550500D02*
X3440000Y-2570500D01*
X3490000Y-490000D02*
X3510000Y-510000D01*
X3510000Y-490000D02*
X3490000Y-510000D01*
X3490000Y-990000D02*
X3510000Y-1010000D01*
X3510000Y-990000D02*
X3490000Y-1010000D01*
X3490000Y-3990000D02*
X3510000Y-4010000D01*
X3510000Y-3990000D02*
X3490000Y-4010000D01*
X3490000Y-4490000D02*
X3510000Y-4510000D01*
X3510000Y-4490000D02*
X3490000Y-4510000D01*
X3490000Y-4990000D02*
X3510000Y-5010000D01*
X3510000Y-4990000D02*
X3490000Y-5010000D01*
X3512499Y-1982501D02*
X3532499Y-2002501D01*
X3532499Y-1982501D02*
X3512499Y-2002501D01*
X3558569Y-2833569D02*
X3578569Y-2853569D01*
X3578569Y-2833569D02*
X3558569Y-2853569D01*
X3590000Y-1790000D02*
X3610000Y-1810000D01*
X3610000Y-1790000D02*
X3590000Y-1810000D01*
X3590000Y-1840000D02*
X3610000Y-1860000D01*
X3610000Y-1840000D02*
X3590000Y-1860000D01*
X3590000Y-1915000D02*
X3610000Y-1935000D01*
X3610000Y-1915000D02*
X3590000Y-1935000D01*
X3590000Y-2040000D02*
X3610000Y-2060000D01*
X3610000Y-2040000D02*
X3590000Y-2060000D01*
X3590000Y-2365000D02*
X3610000Y-2385000D01*
X3610000Y-2365000D02*
X3590000Y-2385000D01*
X3590000Y-5540000D02*
X3610000Y-5560000D01*
X3610000Y-5540000D02*
X3590000Y-5560000D01*
X3590000Y-5590000D02*
X3610000Y-5610000D01*
X3610000Y-5590000D02*
X3590000Y-5610000D01*
X3590000Y-5640000D02*
X3610000Y-5660000D01*
X3610000Y-5640000D02*
X3590000Y-5660000D01*
X3590231Y-2665000D02*
X3610231Y-2685000D01*
X3610231Y-2665000D02*
X3590231Y-2685000D01*
X3609050Y-3165000D02*
X3629050Y-3185000D01*
X3629050Y-3165000D02*
X3609050Y-3185000D01*
X3690000Y-1365000D02*
X3710000Y-1385000D01*
X3710000Y-1365000D02*
X3690000Y-1385000D01*
X3765000Y-1015000D02*
X3785000Y-1035000D01*
X3785000Y-1015000D02*
X3765000Y-1035000D01*
X3765000Y-2315000D02*
X3785000Y-2335000D01*
X3785000Y-2315000D02*
X3765000Y-2335000D01*
X3765000Y-2615000D02*
X3785000Y-2635000D01*
X3785000Y-2615000D02*
X3765000Y-2635000D01*
X3765000Y-2715000D02*
X3785000Y-2735000D01*
X3785000Y-2715000D02*
X3765000Y-2735000D01*
X3765000Y-2990000D02*
X3785000Y-3010000D01*
X3785000Y-2990000D02*
X3765000Y-3010000D01*
X3790000Y-5540000D02*
X3810000Y-5560000D01*
X3810000Y-5540000D02*
X3790000Y-5560000D01*
X3790000Y-5590000D02*
X3810000Y-5610000D01*
X3810000Y-5590000D02*
X3790000Y-5610000D01*
X3790000Y-5640000D02*
X3810000Y-5660000D01*
X3810000Y-5640000D02*
X3790000Y-5660000D01*
X3815000Y-3140000D02*
X3835000Y-3160000D01*
X3835000Y-3140000D02*
X3815000Y-3160000D01*
X3840000Y-1065000D02*
X3860000Y-1085000D01*
X3860000Y-1065000D02*
X3840000Y-1085000D01*
X3840000Y-1265000D02*
X3860000Y-1285000D01*
X3860000Y-1265000D02*
X3840000Y-1285000D01*
X3840000Y-2165000D02*
X3860000Y-2185000D01*
X3860000Y-2165000D02*
X3840000Y-2185000D01*
X3840000Y-2515000D02*
X3860000Y-2535000D01*
X3860000Y-2515000D02*
X3840000Y-2535000D01*
X3840000Y-2865000D02*
X3860000Y-2885000D01*
X3860000Y-2865000D02*
X3840000Y-2885000D01*
X3890000Y-1615000D02*
X3910000Y-1635000D01*
X3910000Y-1615000D02*
X3890000Y-1635000D01*
X3890000Y-3090000D02*
X3910000Y-3110000D01*
X3910000Y-3090000D02*
X3890000Y-3110000D01*
X3915000Y-890000D02*
X3935000Y-910000D01*
X3935000Y-890000D02*
X3915000Y-910000D01*
X3915000Y-1190000D02*
X3935000Y-1210000D01*
X3935000Y-1190000D02*
X3915000Y-1210000D01*
X3915000Y-1790000D02*
X3935000Y-1810000D01*
X3935000Y-1790000D02*
X3915000Y-1810000D01*
X3915000Y-1890000D02*
X3935000Y-1910000D01*
X3935000Y-1890000D02*
X3915000Y-1910000D01*
X3915000Y-1965000D02*
X3935000Y-1985000D01*
X3935000Y-1965000D02*
X3915000Y-1985000D01*
X3915000Y-2040000D02*
X3935000Y-2060000D01*
X3935000Y-2040000D02*
X3915000Y-2060000D01*
X3915000Y-2140000D02*
X3935000Y-2160000D01*
X3935000Y-2140000D02*
X3915000Y-2160000D01*
X3915000Y-2265000D02*
X3935000Y-2285000D01*
X3935000Y-2265000D02*
X3915000Y-2285000D01*
X3915000Y-2340000D02*
X3935000Y-2360000D01*
X3935000Y-2340000D02*
X3915000Y-2360000D01*
X3915000Y-2615000D02*
X3935000Y-2635000D01*
X3935000Y-2615000D02*
X3915000Y-2635000D01*
X3915000Y-2740000D02*
X3935000Y-2760000D01*
X3935000Y-2740000D02*
X3915000Y-2760000D01*
X3915000Y-2965000D02*
X3935000Y-2985000D01*
X3935000Y-2965000D02*
X3915000Y-2985000D01*
X3965000Y-1015000D02*
X3985000Y-1035000D01*
X3985000Y-1015000D02*
X3965000Y-1035000D01*
X3990000Y-3990000D02*
X4010000Y-4010000D01*
X4010000Y-3990000D02*
X3990000Y-4010000D01*
X3990000Y-4490000D02*
X4010000Y-4510000D01*
X4010000Y-4490000D02*
X3990000Y-4510000D01*
X3990000Y-4990000D02*
X4010000Y-5010000D01*
X4010000Y-4990000D02*
X3990000Y-5010000D01*
X3990000Y-5490000D02*
X4010000Y-5510000D01*
X4010000Y-5490000D02*
X3990000Y-5510000D01*
X3990000Y-5990000D02*
X4010000Y-6010000D01*
X4010000Y-5990000D02*
X3990000Y-6010000D01*
X4013087Y-1290000D02*
X4033087Y-1310000D01*
X4033087Y-1290000D02*
X4013087Y-1310000D01*
X4015000Y-1140000D02*
X4035000Y-1160000D01*
X4035000Y-1140000D02*
X4015000Y-1160000D01*
X4040000Y-940000D02*
X4060000Y-960000D01*
X4060000Y-940000D02*
X4040000Y-960000D01*
X4064000Y-2466000D02*
X4084000Y-2486000D01*
X4084000Y-2466000D02*
X4064000Y-2486000D01*
X4065000Y-1815000D02*
X4085000Y-1835000D01*
X4085000Y-1815000D02*
X4065000Y-1835000D01*
X4065000Y-1915000D02*
X4085000Y-1935000D01*
X4085000Y-1915000D02*
X4065000Y-1935000D01*
X4065000Y-2015000D02*
X4085000Y-2035000D01*
X4085000Y-2015000D02*
X4065000Y-2035000D01*
X4065000Y-2565000D02*
X4085000Y-2585000D01*
X4085000Y-2565000D02*
X4065000Y-2585000D01*
X4065000Y-2715000D02*
X4085000Y-2735000D01*
X4085000Y-2715000D02*
X4065000Y-2735000D01*
X4065000Y-2801950D02*
X4085000Y-2821950D01*
X4085000Y-2801950D02*
X4065000Y-2821950D01*
X4065000Y-2915000D02*
X4085000Y-2935000D01*
X4085000Y-2915000D02*
X4065000Y-2935000D01*
X4065000Y-3015000D02*
X4085000Y-3035000D01*
X4085000Y-3015000D02*
X4065000Y-3035000D01*
X4065000Y-3115000D02*
X4085000Y-3135000D01*
X4085000Y-3115000D02*
X4065000Y-3135000D01*
X4073050Y-2190000D02*
X4093050Y-2210000D01*
X4093050Y-2190000D02*
X4073050Y-2210000D01*
X4190000Y-2398938D02*
X4210000Y-2418938D01*
X4210000Y-2398938D02*
X4190000Y-2418938D01*
D13*
X1795000Y-5850000D02*
G75*
G03*
X1795000Y-5850000I-20000J0D01*
G01*
D11*
X1755000Y-5870000D02*
X1795000Y-5870000D01*
X1755000Y-5830000D02*
X1795000Y-5830000D01*
X1795000Y-5870000D02*
G75*
G03*
X1795000Y-5830000I0J20000D01*
G01*
X1755000Y-5830000D02*
G75*
G03*
X1755000Y-5870000I0J-20000D01*
G01*
D13*
X2545000Y-5850000D02*
G75*
G03*
X2545000Y-5850000I-20000J0D01*
G01*
D11*
X2505000Y-5870000D02*
X2545000Y-5870000D01*
X2505000Y-5830000D02*
X2545000Y-5830000D01*
X2545000Y-5870000D02*
G75*
G03*
X2545000Y-5830000I0J20000D01*
G01*
X2505000Y-5830000D02*
G75*
G03*
X2505000Y-5870000I0J-20000D01*
G01*
D14*
X1840000Y-5602500D02*
X1840000Y-5667500D01*
X1807500Y-5635000D02*
X1872500Y-5635000D01*
D11*
X1820000Y-5667500D02*
X1860000Y-5667500D01*
X1820000Y-5602500D02*
X1860000Y-5602500D01*
X1860000Y-5667500D02*
G75*
G03*
X1860000Y-5602500I0J32500D01*
G01*
X1820000Y-5602500D02*
G75*
G03*
X1820000Y-5667500I0J-32500D01*
G01*
D14*
X1840000Y-6032500D02*
X1840000Y-6097500D01*
X1807500Y-6065000D02*
X1872500Y-6065000D01*
D11*
X1820000Y-6097500D02*
X1860000Y-6097500D01*
X1820000Y-6032500D02*
X1860000Y-6032500D01*
X1860000Y-6097500D02*
G75*
G03*
X1860000Y-6032500I0J32500D01*
G01*
X1820000Y-6032500D02*
G75*
G03*
X1820000Y-6097500I0J-32500D01*
G01*
D14*
X2460000Y-5602500D02*
X2460000Y-5667500D01*
X2427500Y-5635000D02*
X2492500Y-5635000D01*
D11*
X2440000Y-5667500D02*
X2480000Y-5667500D01*
X2440000Y-5602500D02*
X2480000Y-5602500D01*
X2480000Y-5667500D02*
G75*
G03*
X2480000Y-5602500I0J32500D01*
G01*
X2440000Y-5602500D02*
G75*
G03*
X2440000Y-5667500I0J-32500D01*
G01*
D14*
X2460000Y-6032500D02*
X2460000Y-6097500D01*
X2427500Y-6065000D02*
X2492500Y-6065000D01*
D11*
X2440000Y-6097500D02*
X2480000Y-6097500D01*
X2440000Y-6032500D02*
X2480000Y-6032500D01*
X2480000Y-6097500D02*
G75*
G03*
X2480000Y-6032500I0J32500D01*
G01*
X2440000Y-6032500D02*
G75*
G03*
X2440000Y-6097500I0J-32500D01*
G01*
X255119Y-6512976D02*
X255119Y-6312976D01*
X302738Y-6312976D01*
X331310Y-6322500D01*
X350357Y-6341548D01*
X359881Y-6360595D01*
X369405Y-6398690D01*
X369405Y-6427262D01*
X359881Y-6465357D01*
X350357Y-6484405D01*
X331310Y-6503452D01*
X302738Y-6512976D01*
X255119Y-6512976D01*
X455119Y-6512976D02*
X455119Y-6379643D01*
X455119Y-6417738D02*
X464643Y-6398690D01*
X474167Y-6389167D01*
X493214Y-6379643D01*
X512262Y-6379643D01*
X578929Y-6512976D02*
X578929Y-6379643D01*
X578929Y-6312976D02*
X569405Y-6322500D01*
X578929Y-6332024D01*
X588452Y-6322500D01*
X578929Y-6312976D01*
X578929Y-6332024D01*
X702738Y-6512976D02*
X683690Y-6503452D01*
X674167Y-6484405D01*
X674167Y-6312976D01*
X807500Y-6512976D02*
X788452Y-6503452D01*
X778928Y-6484405D01*
X778928Y-6312976D01*
X1036071Y-6512976D02*
X1036071Y-6312976D01*
X1102738Y-6455833D01*
X1169405Y-6312976D01*
X1169405Y-6512976D01*
X1350357Y-6512976D02*
X1350357Y-6408214D01*
X1340833Y-6389167D01*
X1321786Y-6379643D01*
X1283690Y-6379643D01*
X1264643Y-6389167D01*
X1350357Y-6503452D02*
X1331310Y-6512976D01*
X1283690Y-6512976D01*
X1264643Y-6503452D01*
X1255119Y-6484405D01*
X1255119Y-6465357D01*
X1264643Y-6446309D01*
X1283690Y-6436786D01*
X1331310Y-6436786D01*
X1350357Y-6427262D01*
X1445595Y-6379643D02*
X1445595Y-6579643D01*
X1445595Y-6389167D02*
X1464643Y-6379643D01*
X1502738Y-6379643D01*
X1521786Y-6389167D01*
X1531309Y-6398690D01*
X1540833Y-6417738D01*
X1540833Y-6474881D01*
X1531309Y-6493928D01*
X1521786Y-6503452D01*
X1502738Y-6512976D01*
X1464643Y-6512976D01*
X1445595Y-6503452D01*
X1626548Y-6493928D02*
X1636071Y-6503452D01*
X1626548Y-6512976D01*
X1617024Y-6503452D01*
X1626548Y-6493928D01*
X1626548Y-6512976D01*
X1626548Y-6389167D02*
X1636071Y-6398690D01*
X1626548Y-6408214D01*
X1617024Y-6398690D01*
X1626548Y-6389167D01*
X1626548Y-6408214D01*
D12*
X-22500Y-6832500D02*
X-2500Y-6852500D01*
X-2500Y-6832500D02*
X-22500Y-6852500D01*
D11*
X293214Y-6732976D02*
X312262Y-6732976D01*
X331310Y-6742500D01*
X340833Y-6752024D01*
X350357Y-6771071D01*
X359881Y-6809167D01*
X359881Y-6856786D01*
X350357Y-6894881D01*
X340833Y-6913928D01*
X331310Y-6923452D01*
X312262Y-6932976D01*
X293214Y-6932976D01*
X274167Y-6923452D01*
X264643Y-6913928D01*
X255119Y-6894881D01*
X245595Y-6856786D01*
X245595Y-6809167D01*
X255119Y-6771071D01*
X264643Y-6752024D01*
X274167Y-6742500D01*
X293214Y-6732976D01*
X445595Y-6913928D02*
X455119Y-6923452D01*
X445595Y-6932976D01*
X436071Y-6923452D01*
X445595Y-6913928D01*
X445595Y-6932976D01*
X531310Y-6752024D02*
X540833Y-6742500D01*
X559881Y-6732976D01*
X607500Y-6732976D01*
X626548Y-6742500D01*
X636071Y-6752024D01*
X645595Y-6771071D01*
X645595Y-6790119D01*
X636071Y-6818690D01*
X521786Y-6932976D01*
X645595Y-6932976D01*
X769405Y-6732976D02*
X788452Y-6732976D01*
X807500Y-6742500D01*
X817024Y-6752024D01*
X826548Y-6771071D01*
X836071Y-6809167D01*
X836071Y-6856786D01*
X826548Y-6894881D01*
X817024Y-6913928D01*
X807500Y-6923452D01*
X788452Y-6932976D01*
X769405Y-6932976D01*
X750357Y-6923452D01*
X740833Y-6913928D01*
X731309Y-6894881D01*
X721786Y-6856786D01*
X721786Y-6809167D01*
X731309Y-6771071D01*
X740833Y-6752024D01*
X750357Y-6742500D01*
X769405Y-6732976D01*
X959881Y-6732976D02*
X978928Y-6732976D01*
X997976Y-6742500D01*
X1007500Y-6752024D01*
X1017024Y-6771071D01*
X1026548Y-6809167D01*
X1026548Y-6856786D01*
X1017024Y-6894881D01*
X1007500Y-6913928D01*
X997976Y-6923452D01*
X978928Y-6932976D01*
X959881Y-6932976D01*
X940833Y-6923452D01*
X931309Y-6913928D01*
X921786Y-6894881D01*
X912262Y-6856786D01*
X912262Y-6809167D01*
X921786Y-6771071D01*
X931309Y-6752024D01*
X940833Y-6742500D01*
X959881Y-6732976D01*
X1112262Y-6932976D02*
X1112262Y-6799643D01*
X1112262Y-6818690D02*
X1121786Y-6809167D01*
X1140833Y-6799643D01*
X1169405Y-6799643D01*
X1188452Y-6809167D01*
X1197976Y-6828214D01*
X1197976Y-6932976D01*
X1197976Y-6828214D02*
X1207500Y-6809167D01*
X1226548Y-6799643D01*
X1255119Y-6799643D01*
X1274167Y-6809167D01*
X1283690Y-6828214D01*
X1283690Y-6932976D01*
X1378929Y-6932976D02*
X1378929Y-6799643D01*
X1378929Y-6818690D02*
X1388452Y-6809167D01*
X1407500Y-6799643D01*
X1436071Y-6799643D01*
X1455119Y-6809167D01*
X1464643Y-6828214D01*
X1464643Y-6932976D01*
X1464643Y-6828214D02*
X1474167Y-6809167D01*
X1493214Y-6799643D01*
X1521786Y-6799643D01*
X1540833Y-6809167D01*
X1550357Y-6828214D01*
X1550357Y-6932976D01*
X1940833Y-6723452D02*
X1769405Y-6980595D01*
X2197976Y-6732976D02*
X2217024Y-6732976D01*
X2236071Y-6742500D01*
X2245595Y-6752024D01*
X2255119Y-6771071D01*
X2264643Y-6809167D01*
X2264643Y-6856786D01*
X2255119Y-6894881D01*
X2245595Y-6913928D01*
X2236071Y-6923452D01*
X2217024Y-6932976D01*
X2197976Y-6932976D01*
X2178929Y-6923452D01*
X2169405Y-6913928D01*
X2159881Y-6894881D01*
X2150357Y-6856786D01*
X2150357Y-6809167D01*
X2159881Y-6771071D01*
X2169405Y-6752024D01*
X2178929Y-6742500D01*
X2197976Y-6732976D01*
X2350357Y-6913928D02*
X2359881Y-6923452D01*
X2350357Y-6932976D01*
X2340833Y-6923452D01*
X2350357Y-6913928D01*
X2350357Y-6932976D01*
X2483690Y-6732976D02*
X2502738Y-6732976D01*
X2521786Y-6742500D01*
X2531310Y-6752024D01*
X2540833Y-6771071D01*
X2550357Y-6809167D01*
X2550357Y-6856786D01*
X2540833Y-6894881D01*
X2531310Y-6913928D01*
X2521786Y-6923452D01*
X2502738Y-6932976D01*
X2483690Y-6932976D01*
X2464643Y-6923452D01*
X2455119Y-6913928D01*
X2445595Y-6894881D01*
X2436071Y-6856786D01*
X2436071Y-6809167D01*
X2445595Y-6771071D01*
X2455119Y-6752024D01*
X2464643Y-6742500D01*
X2483690Y-6732976D01*
X2674167Y-6732976D02*
X2693214Y-6732976D01*
X2712262Y-6742500D01*
X2721786Y-6752024D01*
X2731310Y-6771071D01*
X2740833Y-6809167D01*
X2740833Y-6856786D01*
X2731310Y-6894881D01*
X2721786Y-6913928D01*
X2712262Y-6923452D01*
X2693214Y-6932976D01*
X2674167Y-6932976D01*
X2655119Y-6923452D01*
X2645595Y-6913928D01*
X2636071Y-6894881D01*
X2626548Y-6856786D01*
X2626548Y-6809167D01*
X2636071Y-6771071D01*
X2645595Y-6752024D01*
X2655119Y-6742500D01*
X2674167Y-6732976D01*
X2807500Y-6732976D02*
X2940833Y-6732976D01*
X2855119Y-6932976D01*
X3026548Y-6932976D02*
X3064643Y-6932976D01*
X3083690Y-6923452D01*
X3093214Y-6913928D01*
X3112262Y-6885357D01*
X3121786Y-6847262D01*
X3121786Y-6771071D01*
X3112262Y-6752024D01*
X3102738Y-6742500D01*
X3083690Y-6732976D01*
X3045595Y-6732976D01*
X3026548Y-6742500D01*
X3017024Y-6752024D01*
X3007500Y-6771071D01*
X3007500Y-6818690D01*
X3017024Y-6837738D01*
X3026548Y-6847262D01*
X3045595Y-6856786D01*
X3083690Y-6856786D01*
X3102738Y-6847262D01*
X3112262Y-6837738D01*
X3121786Y-6818690D01*
X3197976Y-6732976D02*
X3197976Y-6771071D01*
X3274167Y-6732976D02*
X3274167Y-6771071D01*
X3569405Y-7009167D02*
X3559881Y-6999643D01*
X3540833Y-6971071D01*
X3531309Y-6952024D01*
X3521786Y-6923452D01*
X3512262Y-6875833D01*
X3512262Y-6837738D01*
X3521786Y-6790119D01*
X3531309Y-6761548D01*
X3540833Y-6742500D01*
X3559881Y-6713928D01*
X3569405Y-6704405D01*
X3750357Y-6932976D02*
X3636071Y-6932976D01*
X3693214Y-6932976D02*
X3693214Y-6732976D01*
X3674167Y-6761548D01*
X3655119Y-6780595D01*
X3636071Y-6790119D01*
X3921786Y-6732976D02*
X3883690Y-6732976D01*
X3864643Y-6742500D01*
X3855119Y-6752024D01*
X3836071Y-6780595D01*
X3826548Y-6818690D01*
X3826548Y-6894881D01*
X3836071Y-6913928D01*
X3845595Y-6923452D01*
X3864643Y-6932976D01*
X3902738Y-6932976D01*
X3921786Y-6923452D01*
X3931309Y-6913928D01*
X3940833Y-6894881D01*
X3940833Y-6847262D01*
X3931309Y-6828214D01*
X3921786Y-6818690D01*
X3902738Y-6809167D01*
X3864643Y-6809167D01*
X3845595Y-6818690D01*
X3836071Y-6828214D01*
X3826548Y-6847262D01*
X4112262Y-6732976D02*
X4074167Y-6732976D01*
X4055119Y-6742500D01*
X4045595Y-6752024D01*
X4026548Y-6780595D01*
X4017024Y-6818690D01*
X4017024Y-6894881D01*
X4026548Y-6913928D01*
X4036071Y-6923452D01*
X4055119Y-6932976D01*
X4093214Y-6932976D01*
X4112262Y-6923452D01*
X4121786Y-6913928D01*
X4131309Y-6894881D01*
X4131309Y-6847262D01*
X4121786Y-6828214D01*
X4112262Y-6818690D01*
X4093214Y-6809167D01*
X4055119Y-6809167D01*
X4036071Y-6818690D01*
X4026548Y-6828214D01*
X4017024Y-6847262D01*
X4369405Y-6932976D02*
X4369405Y-6732976D01*
X4455119Y-6932976D02*
X4455119Y-6828214D01*
X4445595Y-6809167D01*
X4426548Y-6799643D01*
X4397976Y-6799643D01*
X4378929Y-6809167D01*
X4369405Y-6818690D01*
X4578929Y-6932976D02*
X4559881Y-6923452D01*
X4550357Y-6913928D01*
X4540833Y-6894881D01*
X4540833Y-6837738D01*
X4550357Y-6818690D01*
X4559881Y-6809167D01*
X4578929Y-6799643D01*
X4607500Y-6799643D01*
X4626548Y-6809167D01*
X4636071Y-6818690D01*
X4645595Y-6837738D01*
X4645595Y-6894881D01*
X4636071Y-6913928D01*
X4626548Y-6923452D01*
X4607500Y-6932976D01*
X4578929Y-6932976D01*
X4759881Y-6932976D02*
X4740833Y-6923452D01*
X4731310Y-6904405D01*
X4731310Y-6732976D01*
X4912262Y-6923452D02*
X4893214Y-6932976D01*
X4855119Y-6932976D01*
X4836071Y-6923452D01*
X4826548Y-6904405D01*
X4826548Y-6828214D01*
X4836071Y-6809167D01*
X4855119Y-6799643D01*
X4893214Y-6799643D01*
X4912262Y-6809167D01*
X4921786Y-6828214D01*
X4921786Y-6847262D01*
X4826548Y-6866309D01*
X4997976Y-6923452D02*
X5017024Y-6932976D01*
X5055119Y-6932976D01*
X5074167Y-6923452D01*
X5083690Y-6904405D01*
X5083690Y-6894881D01*
X5074167Y-6875833D01*
X5055119Y-6866309D01*
X5026548Y-6866309D01*
X5007500Y-6856786D01*
X4997976Y-6837738D01*
X4997976Y-6828214D01*
X5007500Y-6809167D01*
X5026548Y-6799643D01*
X5055119Y-6799643D01*
X5074167Y-6809167D01*
X5150357Y-7009167D02*
X5159881Y-6999643D01*
X5178929Y-6971071D01*
X5188452Y-6952024D01*
X5197976Y-6923452D01*
X5207500Y-6875833D01*
X5207500Y-6837738D01*
X5197976Y-6790119D01*
X5188452Y-6761548D01*
X5178929Y-6742500D01*
X5159881Y-6713928D01*
X5150357Y-6704405D01*
D13*
X-2500Y-7106500D02*
G75*
G03*
X-2500Y-7106500I-20000J0D01*
G01*
D11*
X293214Y-6996976D02*
X312262Y-6996976D01*
X331310Y-7006500D01*
X340833Y-7016024D01*
X350357Y-7035071D01*
X359881Y-7073167D01*
X359881Y-7120786D01*
X350357Y-7158881D01*
X340833Y-7177928D01*
X331310Y-7187452D01*
X312262Y-7196976D01*
X293214Y-7196976D01*
X274167Y-7187452D01*
X264643Y-7177928D01*
X255119Y-7158881D01*
X245595Y-7120786D01*
X245595Y-7073167D01*
X255119Y-7035071D01*
X264643Y-7016024D01*
X274167Y-7006500D01*
X293214Y-6996976D01*
X445595Y-7177928D02*
X455119Y-7187452D01*
X445595Y-7196976D01*
X436071Y-7187452D01*
X445595Y-7177928D01*
X445595Y-7196976D01*
X626548Y-7063643D02*
X626548Y-7196976D01*
X578929Y-6987452D02*
X531310Y-7130309D01*
X655119Y-7130309D01*
X769405Y-6996976D02*
X788452Y-6996976D01*
X807500Y-7006500D01*
X817024Y-7016024D01*
X826548Y-7035071D01*
X836071Y-7073167D01*
X836071Y-7120786D01*
X826548Y-7158881D01*
X817024Y-7177928D01*
X807500Y-7187452D01*
X788452Y-7196976D01*
X769405Y-7196976D01*
X750357Y-7187452D01*
X740833Y-7177928D01*
X731309Y-7158881D01*
X721786Y-7120786D01*
X721786Y-7073167D01*
X731309Y-7035071D01*
X740833Y-7016024D01*
X750357Y-7006500D01*
X769405Y-6996976D01*
X959881Y-6996976D02*
X978928Y-6996976D01*
X997976Y-7006500D01*
X1007500Y-7016024D01*
X1017024Y-7035071D01*
X1026548Y-7073167D01*
X1026548Y-7120786D01*
X1017024Y-7158881D01*
X1007500Y-7177928D01*
X997976Y-7187452D01*
X978928Y-7196976D01*
X959881Y-7196976D01*
X940833Y-7187452D01*
X931309Y-7177928D01*
X921786Y-7158881D01*
X912262Y-7120786D01*
X912262Y-7073167D01*
X921786Y-7035071D01*
X931309Y-7016024D01*
X940833Y-7006500D01*
X959881Y-6996976D01*
X1112262Y-7196976D02*
X1112262Y-7063643D01*
X1112262Y-7082690D02*
X1121786Y-7073167D01*
X1140833Y-7063643D01*
X1169405Y-7063643D01*
X1188452Y-7073167D01*
X1197976Y-7092214D01*
X1197976Y-7196976D01*
X1197976Y-7092214D02*
X1207500Y-7073167D01*
X1226548Y-7063643D01*
X1255119Y-7063643D01*
X1274167Y-7073167D01*
X1283690Y-7092214D01*
X1283690Y-7196976D01*
X1378929Y-7196976D02*
X1378929Y-7063643D01*
X1378929Y-7082690D02*
X1388452Y-7073167D01*
X1407500Y-7063643D01*
X1436071Y-7063643D01*
X1455119Y-7073167D01*
X1464643Y-7092214D01*
X1464643Y-7196976D01*
X1464643Y-7092214D02*
X1474167Y-7073167D01*
X1493214Y-7063643D01*
X1521786Y-7063643D01*
X1540833Y-7073167D01*
X1550357Y-7092214D01*
X1550357Y-7196976D01*
X1940833Y-6987452D02*
X1769405Y-7244595D01*
X2197976Y-6996976D02*
X2217024Y-6996976D01*
X2236071Y-7006500D01*
X2245595Y-7016024D01*
X2255119Y-7035071D01*
X2264643Y-7073167D01*
X2264643Y-7120786D01*
X2255119Y-7158881D01*
X2245595Y-7177928D01*
X2236071Y-7187452D01*
X2217024Y-7196976D01*
X2197976Y-7196976D01*
X2178929Y-7187452D01*
X2169405Y-7177928D01*
X2159881Y-7158881D01*
X2150357Y-7120786D01*
X2150357Y-7073167D01*
X2159881Y-7035071D01*
X2169405Y-7016024D01*
X2178929Y-7006500D01*
X2197976Y-6996976D01*
X2350357Y-7177928D02*
X2359881Y-7187452D01*
X2350357Y-7196976D01*
X2340833Y-7187452D01*
X2350357Y-7177928D01*
X2350357Y-7196976D01*
X2483690Y-6996976D02*
X2502738Y-6996976D01*
X2521786Y-7006500D01*
X2531310Y-7016024D01*
X2540833Y-7035071D01*
X2550357Y-7073167D01*
X2550357Y-7120786D01*
X2540833Y-7158881D01*
X2531310Y-7177928D01*
X2521786Y-7187452D01*
X2502738Y-7196976D01*
X2483690Y-7196976D01*
X2464643Y-7187452D01*
X2455119Y-7177928D01*
X2445595Y-7158881D01*
X2436071Y-7120786D01*
X2436071Y-7073167D01*
X2445595Y-7035071D01*
X2455119Y-7016024D01*
X2464643Y-7006500D01*
X2483690Y-6996976D01*
X2740833Y-7196976D02*
X2626548Y-7196976D01*
X2683690Y-7196976D02*
X2683690Y-6996976D01*
X2664643Y-7025548D01*
X2645595Y-7044595D01*
X2626548Y-7054119D01*
X2921786Y-6996976D02*
X2826548Y-6996976D01*
X2817024Y-7092214D01*
X2826548Y-7082690D01*
X2845595Y-7073167D01*
X2893214Y-7073167D01*
X2912262Y-7082690D01*
X2921786Y-7092214D01*
X2931309Y-7111262D01*
X2931309Y-7158881D01*
X2921786Y-7177928D01*
X2912262Y-7187452D01*
X2893214Y-7196976D01*
X2845595Y-7196976D01*
X2826548Y-7187452D01*
X2817024Y-7177928D01*
X2997976Y-6996976D02*
X3131309Y-6996976D01*
X3045595Y-7196976D01*
X3197976Y-6996976D02*
X3197976Y-7035071D01*
X3274167Y-6996976D02*
X3274167Y-7035071D01*
X3569405Y-7273167D02*
X3559881Y-7263643D01*
X3540833Y-7235071D01*
X3531309Y-7216024D01*
X3521786Y-7187452D01*
X3512262Y-7139833D01*
X3512262Y-7101738D01*
X3521786Y-7054119D01*
X3531309Y-7025548D01*
X3540833Y-7006500D01*
X3559881Y-6977928D01*
X3569405Y-6968405D01*
X3683690Y-6996976D02*
X3702738Y-6996976D01*
X3721786Y-7006500D01*
X3731309Y-7016024D01*
X3740833Y-7035071D01*
X3750357Y-7073167D01*
X3750357Y-7120786D01*
X3740833Y-7158881D01*
X3731309Y-7177928D01*
X3721786Y-7187452D01*
X3702738Y-7196976D01*
X3683690Y-7196976D01*
X3664643Y-7187452D01*
X3655119Y-7177928D01*
X3645595Y-7158881D01*
X3636071Y-7120786D01*
X3636071Y-7073167D01*
X3645595Y-7035071D01*
X3655119Y-7016024D01*
X3664643Y-7006500D01*
X3683690Y-6996976D01*
X3988452Y-7196976D02*
X3988452Y-6996976D01*
X4074167Y-7196976D02*
X4074167Y-7092214D01*
X4064643Y-7073167D01*
X4045595Y-7063643D01*
X4017024Y-7063643D01*
X3997976Y-7073167D01*
X3988452Y-7082690D01*
X4197976Y-7196976D02*
X4178928Y-7187452D01*
X4169405Y-7177928D01*
X4159881Y-7158881D01*
X4159881Y-7101738D01*
X4169405Y-7082690D01*
X4178928Y-7073167D01*
X4197976Y-7063643D01*
X4226548Y-7063643D01*
X4245595Y-7073167D01*
X4255119Y-7082690D01*
X4264643Y-7101738D01*
X4264643Y-7158881D01*
X4255119Y-7177928D01*
X4245595Y-7187452D01*
X4226548Y-7196976D01*
X4197976Y-7196976D01*
X4378929Y-7196976D02*
X4359881Y-7187452D01*
X4350357Y-7168405D01*
X4350357Y-6996976D01*
X4531310Y-7187452D02*
X4512262Y-7196976D01*
X4474167Y-7196976D01*
X4455119Y-7187452D01*
X4445595Y-7168405D01*
X4445595Y-7092214D01*
X4455119Y-7073167D01*
X4474167Y-7063643D01*
X4512262Y-7063643D01*
X4531310Y-7073167D01*
X4540833Y-7092214D01*
X4540833Y-7111262D01*
X4445595Y-7130309D01*
X4617024Y-7187452D02*
X4636071Y-7196976D01*
X4674167Y-7196976D01*
X4693214Y-7187452D01*
X4702738Y-7168405D01*
X4702738Y-7158881D01*
X4693214Y-7139833D01*
X4674167Y-7130309D01*
X4645595Y-7130309D01*
X4626548Y-7120786D01*
X4617024Y-7101738D01*
X4617024Y-7092214D01*
X4626548Y-7073167D01*
X4645595Y-7063643D01*
X4674167Y-7063643D01*
X4693214Y-7073167D01*
X4940833Y-7120786D02*
X5093214Y-7120786D01*
X5017024Y-7196976D02*
X5017024Y-7044595D01*
X5331310Y-7016024D02*
X5340833Y-7006500D01*
X5359881Y-6996976D01*
X5407500Y-6996976D01*
X5426548Y-7006500D01*
X5436071Y-7016024D01*
X5445595Y-7035071D01*
X5445595Y-7054119D01*
X5436071Y-7082690D01*
X5321786Y-7196976D01*
X5445595Y-7196976D01*
X5674167Y-7187452D02*
X5693214Y-7196976D01*
X5731309Y-7196976D01*
X5750357Y-7187452D01*
X5759881Y-7168405D01*
X5759881Y-7158881D01*
X5750357Y-7139833D01*
X5731309Y-7130309D01*
X5702738Y-7130309D01*
X5683690Y-7120786D01*
X5674167Y-7101738D01*
X5674167Y-7092214D01*
X5683690Y-7073167D01*
X5702738Y-7063643D01*
X5731309Y-7063643D01*
X5750357Y-7073167D01*
X5874167Y-7196976D02*
X5855119Y-7187452D01*
X5845595Y-7168405D01*
X5845595Y-6996976D01*
X5978928Y-7196976D02*
X5959881Y-7187452D01*
X5950357Y-7177928D01*
X5940833Y-7158881D01*
X5940833Y-7101738D01*
X5950357Y-7082690D01*
X5959881Y-7073167D01*
X5978928Y-7063643D01*
X6007500Y-7063643D01*
X6026548Y-7073167D01*
X6036071Y-7082690D01*
X6045595Y-7101738D01*
X6045595Y-7158881D01*
X6036071Y-7177928D01*
X6026548Y-7187452D01*
X6007500Y-7196976D01*
X5978928Y-7196976D01*
X6102738Y-7063643D02*
X6178928Y-7063643D01*
X6131309Y-6996976D02*
X6131309Y-7168405D01*
X6140833Y-7187452D01*
X6159881Y-7196976D01*
X6178928Y-7196976D01*
X6236071Y-7187452D02*
X6255119Y-7196976D01*
X6293214Y-7196976D01*
X6312262Y-7187452D01*
X6321786Y-7168405D01*
X6321786Y-7158881D01*
X6312262Y-7139833D01*
X6293214Y-7130309D01*
X6264643Y-7130309D01*
X6245595Y-7120786D01*
X6236071Y-7101738D01*
X6236071Y-7092214D01*
X6245595Y-7073167D01*
X6264643Y-7063643D01*
X6293214Y-7063643D01*
X6312262Y-7073167D01*
X6388452Y-7273167D02*
X6397976Y-7263643D01*
X6417024Y-7235071D01*
X6426548Y-7216024D01*
X6436071Y-7187452D01*
X6445595Y-7139833D01*
X6445595Y-7101738D01*
X6436071Y-7054119D01*
X6426548Y-7025548D01*
X6417024Y-7006500D01*
X6397976Y-6977928D01*
X6388452Y-6968405D01*
D14*
X-35000Y-7338000D02*
X-35000Y-7403000D01*
X-67500Y-7370500D02*
X-2500Y-7370500D01*
D11*
X293214Y-7260976D02*
X312262Y-7260976D01*
X331310Y-7270500D01*
X340833Y-7280024D01*
X350357Y-7299071D01*
X359881Y-7337167D01*
X359881Y-7384786D01*
X350357Y-7422881D01*
X340833Y-7441928D01*
X331310Y-7451452D01*
X312262Y-7460976D01*
X293214Y-7460976D01*
X274167Y-7451452D01*
X264643Y-7441928D01*
X255119Y-7422881D01*
X245595Y-7384786D01*
X245595Y-7337167D01*
X255119Y-7299071D01*
X264643Y-7280024D01*
X274167Y-7270500D01*
X293214Y-7260976D01*
X445595Y-7441928D02*
X455119Y-7451452D01*
X445595Y-7460976D01*
X436071Y-7451452D01*
X445595Y-7441928D01*
X445595Y-7460976D01*
X626548Y-7260976D02*
X588452Y-7260976D01*
X569405Y-7270500D01*
X559881Y-7280024D01*
X540833Y-7308595D01*
X531310Y-7346690D01*
X531310Y-7422881D01*
X540833Y-7441928D01*
X550357Y-7451452D01*
X569405Y-7460976D01*
X607500Y-7460976D01*
X626548Y-7451452D01*
X636071Y-7441928D01*
X645595Y-7422881D01*
X645595Y-7375262D01*
X636071Y-7356214D01*
X626548Y-7346690D01*
X607500Y-7337167D01*
X569405Y-7337167D01*
X550357Y-7346690D01*
X540833Y-7356214D01*
X531310Y-7375262D01*
X826548Y-7260976D02*
X731309Y-7260976D01*
X721786Y-7356214D01*
X731309Y-7346690D01*
X750357Y-7337167D01*
X797976Y-7337167D01*
X817024Y-7346690D01*
X826548Y-7356214D01*
X836071Y-7375262D01*
X836071Y-7422881D01*
X826548Y-7441928D01*
X817024Y-7451452D01*
X797976Y-7460976D01*
X750357Y-7460976D01*
X731309Y-7451452D01*
X721786Y-7441928D01*
X959881Y-7260976D02*
X978928Y-7260976D01*
X997976Y-7270500D01*
X1007500Y-7280024D01*
X1017024Y-7299071D01*
X1026548Y-7337167D01*
X1026548Y-7384786D01*
X1017024Y-7422881D01*
X1007500Y-7441928D01*
X997976Y-7451452D01*
X978928Y-7460976D01*
X959881Y-7460976D01*
X940833Y-7451452D01*
X931309Y-7441928D01*
X921786Y-7422881D01*
X912262Y-7384786D01*
X912262Y-7337167D01*
X921786Y-7299071D01*
X931309Y-7280024D01*
X940833Y-7270500D01*
X959881Y-7260976D01*
X1112262Y-7460976D02*
X1112262Y-7327643D01*
X1112262Y-7346690D02*
X1121786Y-7337167D01*
X1140833Y-7327643D01*
X1169405Y-7327643D01*
X1188452Y-7337167D01*
X1197976Y-7356214D01*
X1197976Y-7460976D01*
X1197976Y-7356214D02*
X1207500Y-7337167D01*
X1226548Y-7327643D01*
X1255119Y-7327643D01*
X1274167Y-7337167D01*
X1283690Y-7356214D01*
X1283690Y-7460976D01*
X1378929Y-7460976D02*
X1378929Y-7327643D01*
X1378929Y-7346690D02*
X1388452Y-7337167D01*
X1407500Y-7327643D01*
X1436071Y-7327643D01*
X1455119Y-7337167D01*
X1464643Y-7356214D01*
X1464643Y-7460976D01*
X1464643Y-7356214D02*
X1474167Y-7337167D01*
X1493214Y-7327643D01*
X1521786Y-7327643D01*
X1540833Y-7337167D01*
X1550357Y-7356214D01*
X1550357Y-7460976D01*
X1940833Y-7251452D02*
X1769405Y-7508595D01*
X2197976Y-7260976D02*
X2217024Y-7260976D01*
X2236071Y-7270500D01*
X2245595Y-7280024D01*
X2255119Y-7299071D01*
X2264643Y-7337167D01*
X2264643Y-7384786D01*
X2255119Y-7422881D01*
X2245595Y-7441928D01*
X2236071Y-7451452D01*
X2217024Y-7460976D01*
X2197976Y-7460976D01*
X2178929Y-7451452D01*
X2169405Y-7441928D01*
X2159881Y-7422881D01*
X2150357Y-7384786D01*
X2150357Y-7337167D01*
X2159881Y-7299071D01*
X2169405Y-7280024D01*
X2178929Y-7270500D01*
X2197976Y-7260976D01*
X2350357Y-7441928D02*
X2359881Y-7451452D01*
X2350357Y-7460976D01*
X2340833Y-7451452D01*
X2350357Y-7441928D01*
X2350357Y-7460976D01*
X2483690Y-7260976D02*
X2502738Y-7260976D01*
X2521786Y-7270500D01*
X2531310Y-7280024D01*
X2540833Y-7299071D01*
X2550357Y-7337167D01*
X2550357Y-7384786D01*
X2540833Y-7422881D01*
X2531310Y-7441928D01*
X2521786Y-7451452D01*
X2502738Y-7460976D01*
X2483690Y-7460976D01*
X2464643Y-7451452D01*
X2455119Y-7441928D01*
X2445595Y-7422881D01*
X2436071Y-7384786D01*
X2436071Y-7337167D01*
X2445595Y-7299071D01*
X2455119Y-7280024D01*
X2464643Y-7270500D01*
X2483690Y-7260976D01*
X2626548Y-7280024D02*
X2636071Y-7270500D01*
X2655119Y-7260976D01*
X2702738Y-7260976D01*
X2721786Y-7270500D01*
X2731310Y-7280024D01*
X2740833Y-7299071D01*
X2740833Y-7318119D01*
X2731310Y-7346690D01*
X2617024Y-7460976D01*
X2740833Y-7460976D01*
X2921786Y-7260976D02*
X2826548Y-7260976D01*
X2817024Y-7356214D01*
X2826548Y-7346690D01*
X2845595Y-7337167D01*
X2893214Y-7337167D01*
X2912262Y-7346690D01*
X2921786Y-7356214D01*
X2931309Y-7375262D01*
X2931309Y-7422881D01*
X2921786Y-7441928D01*
X2912262Y-7451452D01*
X2893214Y-7460976D01*
X2845595Y-7460976D01*
X2826548Y-7451452D01*
X2817024Y-7441928D01*
X3102738Y-7260976D02*
X3064643Y-7260976D01*
X3045595Y-7270500D01*
X3036071Y-7280024D01*
X3017024Y-7308595D01*
X3007500Y-7346690D01*
X3007500Y-7422881D01*
X3017024Y-7441928D01*
X3026548Y-7451452D01*
X3045595Y-7460976D01*
X3083690Y-7460976D01*
X3102738Y-7451452D01*
X3112262Y-7441928D01*
X3121786Y-7422881D01*
X3121786Y-7375262D01*
X3112262Y-7356214D01*
X3102738Y-7346690D01*
X3083690Y-7337167D01*
X3045595Y-7337167D01*
X3026548Y-7346690D01*
X3017024Y-7356214D01*
X3007500Y-7375262D01*
X3197976Y-7260976D02*
X3197976Y-7299071D01*
X3274167Y-7260976D02*
X3274167Y-7299071D01*
X3569405Y-7537167D02*
X3559881Y-7527643D01*
X3540833Y-7499071D01*
X3531309Y-7480024D01*
X3521786Y-7451452D01*
X3512262Y-7403833D01*
X3512262Y-7365738D01*
X3521786Y-7318119D01*
X3531309Y-7289548D01*
X3540833Y-7270500D01*
X3559881Y-7241928D01*
X3569405Y-7232405D01*
X3683690Y-7260976D02*
X3702738Y-7260976D01*
X3721786Y-7270500D01*
X3731309Y-7280024D01*
X3740833Y-7299071D01*
X3750357Y-7337167D01*
X3750357Y-7384786D01*
X3740833Y-7422881D01*
X3731309Y-7441928D01*
X3721786Y-7451452D01*
X3702738Y-7460976D01*
X3683690Y-7460976D01*
X3664643Y-7451452D01*
X3655119Y-7441928D01*
X3645595Y-7422881D01*
X3636071Y-7384786D01*
X3636071Y-7337167D01*
X3645595Y-7299071D01*
X3655119Y-7280024D01*
X3664643Y-7270500D01*
X3683690Y-7260976D01*
X3988452Y-7460976D02*
X3988452Y-7260976D01*
X4074167Y-7460976D02*
X4074167Y-7356214D01*
X4064643Y-7337167D01*
X4045595Y-7327643D01*
X4017024Y-7327643D01*
X3997976Y-7337167D01*
X3988452Y-7346690D01*
X4197976Y-7460976D02*
X4178928Y-7451452D01*
X4169405Y-7441928D01*
X4159881Y-7422881D01*
X4159881Y-7365738D01*
X4169405Y-7346690D01*
X4178928Y-7337167D01*
X4197976Y-7327643D01*
X4226548Y-7327643D01*
X4245595Y-7337167D01*
X4255119Y-7346690D01*
X4264643Y-7365738D01*
X4264643Y-7422881D01*
X4255119Y-7441928D01*
X4245595Y-7451452D01*
X4226548Y-7460976D01*
X4197976Y-7460976D01*
X4378929Y-7460976D02*
X4359881Y-7451452D01*
X4350357Y-7432405D01*
X4350357Y-7260976D01*
X4531310Y-7451452D02*
X4512262Y-7460976D01*
X4474167Y-7460976D01*
X4455119Y-7451452D01*
X4445595Y-7432405D01*
X4445595Y-7356214D01*
X4455119Y-7337167D01*
X4474167Y-7327643D01*
X4512262Y-7327643D01*
X4531310Y-7337167D01*
X4540833Y-7356214D01*
X4540833Y-7375262D01*
X4445595Y-7394309D01*
X4617024Y-7451452D02*
X4636071Y-7460976D01*
X4674167Y-7460976D01*
X4693214Y-7451452D01*
X4702738Y-7432405D01*
X4702738Y-7422881D01*
X4693214Y-7403833D01*
X4674167Y-7394309D01*
X4645595Y-7394309D01*
X4626548Y-7384786D01*
X4617024Y-7365738D01*
X4617024Y-7356214D01*
X4626548Y-7337167D01*
X4645595Y-7327643D01*
X4674167Y-7327643D01*
X4693214Y-7337167D01*
X4940833Y-7384786D02*
X5093214Y-7384786D01*
X5017024Y-7460976D02*
X5017024Y-7308595D01*
X5426548Y-7327643D02*
X5426548Y-7460976D01*
X5378929Y-7251452D02*
X5331310Y-7394309D01*
X5455119Y-7394309D01*
X5674167Y-7451452D02*
X5693214Y-7460976D01*
X5731309Y-7460976D01*
X5750357Y-7451452D01*
X5759881Y-7432405D01*
X5759881Y-7422881D01*
X5750357Y-7403833D01*
X5731309Y-7394309D01*
X5702738Y-7394309D01*
X5683690Y-7384786D01*
X5674167Y-7365738D01*
X5674167Y-7356214D01*
X5683690Y-7337167D01*
X5702738Y-7327643D01*
X5731309Y-7327643D01*
X5750357Y-7337167D01*
X5874167Y-7460976D02*
X5855119Y-7451452D01*
X5845595Y-7432405D01*
X5845595Y-7260976D01*
X5978928Y-7460976D02*
X5959881Y-7451452D01*
X5950357Y-7441928D01*
X5940833Y-7422881D01*
X5940833Y-7365738D01*
X5950357Y-7346690D01*
X5959881Y-7337167D01*
X5978928Y-7327643D01*
X6007500Y-7327643D01*
X6026548Y-7337167D01*
X6036071Y-7346690D01*
X6045595Y-7365738D01*
X6045595Y-7422881D01*
X6036071Y-7441928D01*
X6026548Y-7451452D01*
X6007500Y-7460976D01*
X5978928Y-7460976D01*
X6102738Y-7327643D02*
X6178928Y-7327643D01*
X6131309Y-7260976D02*
X6131309Y-7432405D01*
X6140833Y-7451452D01*
X6159881Y-7460976D01*
X6178928Y-7460976D01*
X6236071Y-7451452D02*
X6255119Y-7460976D01*
X6293214Y-7460976D01*
X6312262Y-7451452D01*
X6321786Y-7432405D01*
X6321786Y-7422881D01*
X6312262Y-7403833D01*
X6293214Y-7394309D01*
X6264643Y-7394309D01*
X6245595Y-7384786D01*
X6236071Y-7365738D01*
X6236071Y-7356214D01*
X6245595Y-7337167D01*
X6264643Y-7327643D01*
X6293214Y-7327643D01*
X6312262Y-7337167D01*
X6388452Y-7537167D02*
X6397976Y-7527643D01*
X6417024Y-7499071D01*
X6426548Y-7480024D01*
X6436071Y-7451452D01*
X6445595Y-7403833D01*
X6445595Y-7365738D01*
X6436071Y-7318119D01*
X6426548Y-7289548D01*
X6417024Y-7270500D01*
X6397976Y-7241928D01*
X6388452Y-7232405D01*
M02*
