%TF.GenerationSoftware,KiCad,Pcbnew,6.0.11-2627ca5db0~126~ubuntu22.04.1*%
%TF.CreationDate,2023-07-14T19:34:09-07:00*%
%TF.ProjectId,small-display,736d616c-6c2d-4646-9973-706c61792e6b,rev?*%
%TF.SameCoordinates,Original*%
%TF.FileFunction,Soldermask,Top*%
%TF.FilePolarity,Negative*%
%FSLAX46Y46*%
G04 Gerber Fmt 4.6, Leading zero omitted, Abs format (unit mm)*
G04 Created by KiCad (PCBNEW 6.0.11-2627ca5db0~126~ubuntu22.04.1) date 2023-07-14 19:34:09*
%MOMM*%
%LPD*%
G01*
G04 APERTURE LIST*
G04 Aperture macros list*
%AMRoundRect*
0 Rectangle with rounded corners*
0 $1 Rounding radius*
0 $2 $3 $4 $5 $6 $7 $8 $9 X,Y pos of 4 corners*
0 Add a 4 corners polygon primitive as box body*
4,1,4,$2,$3,$4,$5,$6,$7,$8,$9,$2,$3,0*
0 Add four circle primitives for the rounded corners*
1,1,$1+$1,$2,$3*
1,1,$1+$1,$4,$5*
1,1,$1+$1,$6,$7*
1,1,$1+$1,$8,$9*
0 Add four rect primitives between the rounded corners*
20,1,$1+$1,$2,$3,$4,$5,0*
20,1,$1+$1,$4,$5,$6,$7,0*
20,1,$1+$1,$6,$7,$8,$9,0*
20,1,$1+$1,$8,$9,$2,$3,0*%
G04 Aperture macros list end*
%ADD10RoundRect,0.135000X0.185000X-0.135000X0.185000X0.135000X-0.185000X0.135000X-0.185000X-0.135000X0*%
%ADD11R,0.300000X0.950000*%
%ADD12O,2.200000X1.100000*%
%ADD13O,1.400000X0.700000*%
%ADD14R,0.650000X0.400000*%
%ADD15R,0.300000X0.550000*%
%ADD16R,0.400000X0.550000*%
%ADD17RoundRect,0.218750X-0.256250X0.218750X-0.256250X-0.218750X0.256250X-0.218750X0.256250X0.218750X0*%
%ADD18R,0.700000X0.200000*%
G04 APERTURE END LIST*
D10*
%TO.C,R1*%
X6270000Y-57773750D03*
X6270000Y-56753750D03*
%TD*%
%TO.C,R6*%
X27960000Y-59510000D03*
X27960000Y-58490000D03*
%TD*%
D11*
%TO.C,J1*%
X18750000Y-57745000D03*
X19250000Y-57745000D03*
X19750000Y-57745000D03*
X20250000Y-57745000D03*
X20750000Y-57745000D03*
X21250000Y-57745000D03*
X21750000Y-57745000D03*
X22250000Y-57745000D03*
X22750000Y-57745000D03*
X23250000Y-57745000D03*
X23750000Y-57745000D03*
X24250000Y-57745000D03*
X24250000Y-59255000D03*
X23750000Y-59255000D03*
X23250000Y-59255000D03*
X22750000Y-59255000D03*
X22250000Y-59255000D03*
X21750000Y-59255000D03*
X21250000Y-59255000D03*
X20750000Y-59255000D03*
X20250000Y-59255000D03*
X19750000Y-59255000D03*
X19250000Y-59255000D03*
X18750000Y-59255000D03*
D12*
X18400000Y-56350000D03*
X24600000Y-56350000D03*
D13*
X25250000Y-58500000D03*
D12*
X24600000Y-60650000D03*
X18400000Y-60650000D03*
D13*
X17750000Y-58500000D03*
%TD*%
D14*
%TO.C,U2*%
X7820000Y-57123750D03*
X7820000Y-57773750D03*
X7820000Y-58423750D03*
X9720000Y-58423750D03*
X9720000Y-57123750D03*
%TD*%
D10*
%TO.C,R7*%
X15020000Y-59010000D03*
X15020000Y-57990000D03*
%TD*%
D15*
%TO.C,U1*%
X29500000Y-56365000D03*
X29000000Y-56365000D03*
D16*
X28500000Y-56365000D03*
D15*
X28000000Y-56365000D03*
X27500000Y-56365000D03*
X27500000Y-57135000D03*
X28000000Y-57135000D03*
D16*
X28500000Y-57135000D03*
D15*
X29000000Y-57135000D03*
X29500000Y-57135000D03*
%TD*%
D17*
%TO.C,D2*%
X11770000Y-59236250D03*
X11770000Y-60811250D03*
%TD*%
%TO.C,D1*%
X6270000Y-59226250D03*
X6270000Y-60801250D03*
%TD*%
D18*
%TO.C,Module1*%
X40000000Y-35300000D03*
X36920000Y-35300000D03*
X40000000Y-34900000D03*
X36920000Y-34900000D03*
X40000000Y-34500000D03*
X36920000Y-34500000D03*
X40000000Y-34100000D03*
X36920000Y-34100000D03*
X40000000Y-33700000D03*
X36920000Y-33700000D03*
X40000000Y-33300000D03*
X36920000Y-33300000D03*
X40000000Y-32900000D03*
X36920000Y-32900000D03*
X40000000Y-32500000D03*
X36920000Y-32500000D03*
X40000000Y-32100000D03*
X36920000Y-32100000D03*
X40000000Y-31700000D03*
X36920000Y-31700000D03*
X40000000Y-31300000D03*
X36920000Y-31300000D03*
X40000000Y-30900000D03*
X36920000Y-30900000D03*
X40000000Y-30500000D03*
X36920000Y-30500000D03*
X40000000Y-30100000D03*
X36920000Y-30100000D03*
X40000000Y-29700000D03*
X36920000Y-29700000D03*
X40000000Y-29300000D03*
X36920000Y-29300000D03*
X40000000Y-28900000D03*
X36920000Y-28900000D03*
X40000000Y-28500000D03*
X36920000Y-28500000D03*
X40000000Y-28100000D03*
X36920000Y-28100000D03*
X40000000Y-27700000D03*
X36920000Y-27700000D03*
X40000000Y-27300000D03*
X36920000Y-27300000D03*
X40000000Y-26900000D03*
X36920000Y-26900000D03*
X40000000Y-26500000D03*
X36920000Y-26500000D03*
X40000000Y-26100000D03*
X36920000Y-26100000D03*
X40000000Y-25700000D03*
X36920000Y-25700000D03*
X40000000Y-25300000D03*
X36920000Y-25300000D03*
X40000000Y-24900000D03*
X36920000Y-24900000D03*
X40000000Y-24500000D03*
X36920000Y-24500000D03*
X40000000Y-24100000D03*
X36920000Y-24100000D03*
X40000000Y-23700000D03*
X36920000Y-23700000D03*
X40000000Y-23300000D03*
X36920000Y-23300000D03*
X40000000Y-22900000D03*
X36920000Y-22900000D03*
X40000000Y-22500000D03*
X36920000Y-22500000D03*
X40000000Y-22100000D03*
X36920000Y-22100000D03*
X40000000Y-21700000D03*
X36920000Y-21700000D03*
X40000000Y-21300000D03*
X36920000Y-21300000D03*
X40000000Y-20900000D03*
X36920000Y-20900000D03*
X40000000Y-20500000D03*
X36920000Y-20500000D03*
X40000000Y-20100000D03*
X36920000Y-20100000D03*
X40000000Y-19700000D03*
X36920000Y-19700000D03*
X40000000Y-19300000D03*
X36920000Y-19300000D03*
X40000000Y-18900000D03*
X36920000Y-18900000D03*
X40000000Y-18500000D03*
X36920000Y-18500000D03*
X40000000Y-18100000D03*
X36920000Y-18100000D03*
X40000000Y-17700000D03*
X36920000Y-17700000D03*
X40000000Y-17300000D03*
X36920000Y-17300000D03*
X40000000Y-16900000D03*
X36920000Y-16900000D03*
X40000000Y-16500000D03*
X36920000Y-16500000D03*
X40000000Y-16100000D03*
X36920000Y-16100000D03*
X40000000Y-15700000D03*
X36920000Y-15700000D03*
X6080000Y-35300000D03*
X3000000Y-35300000D03*
X6080000Y-34900000D03*
X3000000Y-34900000D03*
X6080000Y-34500000D03*
X3000000Y-34500000D03*
X6080000Y-34100000D03*
X3000000Y-34100000D03*
X6080000Y-33700000D03*
X3000000Y-33700000D03*
X6080000Y-33300000D03*
X3000000Y-33300000D03*
X6080000Y-32900000D03*
X3000000Y-32900000D03*
X6080000Y-32500000D03*
X3000000Y-32500000D03*
X6080000Y-32100000D03*
X3000000Y-32100000D03*
X6080000Y-31700000D03*
X3000000Y-31700000D03*
X6080000Y-31300000D03*
X3000000Y-31300000D03*
X6080000Y-30900000D03*
X3000000Y-30900000D03*
X6080000Y-30500000D03*
X3000000Y-30500000D03*
X6080000Y-30100000D03*
X3000000Y-30100000D03*
X6080000Y-29700000D03*
X3000000Y-29700000D03*
X6080000Y-29300000D03*
X3000000Y-29300000D03*
X6080000Y-28900000D03*
X3000000Y-28900000D03*
X6080000Y-28500000D03*
X3000000Y-28500000D03*
X6080000Y-28100000D03*
X3000000Y-28100000D03*
X6080000Y-27700000D03*
X3000000Y-27700000D03*
X6080000Y-27300000D03*
X3000000Y-27300000D03*
X6080000Y-26900000D03*
X3000000Y-26900000D03*
X6080000Y-26500000D03*
X3000000Y-26500000D03*
X6080000Y-26100000D03*
X3000000Y-26100000D03*
X6080000Y-25700000D03*
X3000000Y-25700000D03*
X6080000Y-25300000D03*
X3000000Y-25300000D03*
X6080000Y-24900000D03*
X3000000Y-24900000D03*
X6080000Y-24500000D03*
X3000000Y-24500000D03*
X6080000Y-24100000D03*
X3000000Y-24100000D03*
X6080000Y-23700000D03*
X3000000Y-23700000D03*
X6080000Y-23300000D03*
X3000000Y-23300000D03*
X6080000Y-22900000D03*
X3000000Y-22900000D03*
X6080000Y-22500000D03*
X3000000Y-22500000D03*
X6080000Y-22100000D03*
X3000000Y-22100000D03*
X6080000Y-21700000D03*
X3000000Y-21700000D03*
X6080000Y-21300000D03*
X3000000Y-21300000D03*
X6080000Y-20900000D03*
X3000000Y-20900000D03*
X6080000Y-20500000D03*
X3000000Y-20500000D03*
X6080000Y-20100000D03*
X3000000Y-20100000D03*
X6080000Y-19700000D03*
X3000000Y-19700000D03*
X6080000Y-19300000D03*
X3000000Y-19300000D03*
X6080000Y-18900000D03*
X3000000Y-18900000D03*
X6080000Y-18500000D03*
X3000000Y-18500000D03*
X6080000Y-18100000D03*
X3000000Y-18100000D03*
X6080000Y-17700000D03*
X3000000Y-17700000D03*
X6080000Y-17300000D03*
X3000000Y-17300000D03*
X6080000Y-16900000D03*
X3000000Y-16900000D03*
X6080000Y-16500000D03*
X3000000Y-16500000D03*
X6080000Y-16100000D03*
X3000000Y-16100000D03*
X6080000Y-15700000D03*
X3000000Y-15700000D03*
%TD*%
D10*
%TO.C,R2*%
X11750000Y-57783750D03*
X11750000Y-56763750D03*
%TD*%
M02*
